<svg aria-hidden="true" style="position: absolute; width: 0; height: 0; overflow: hidden;" version="1.1" xmlns="http://www.w3.org/2000/svg" xmlns:xlink="http://www.w3.org/1999/xlink">
<defs>

<symbol id="icon-mess" viewBox="0 0 43 32">
<title>icon-mess</title>
<path fill="#9cf" style="fill: var(--color1, #9cf)" d="M40 25.043c0 3.229-3.2-1.771-3.2-1.771l-8.109-9.285c-0.901-0.939 0.968-2.219 0.968-2.219l8.259-7.037c2.475-2.579 2.037-0.139 2.037-0.139l0.045 20.451zM20.784 16.565c-0.792 1.053-1.528 0.021-1.528 0.021l-17.688-14.944c-1.549-1.659 1.504-1.643 1.504-1.643h33.773c3.037 0 1.493 1.563 1.493 1.563l-17.555 15.003zM2.083 4.731l8.259 7.037c0 0 1.869 1.28 0.968 2.219l-8.109 9.285c0 0-3.2 5-3.2 1.771l0.045-20.451c0 0-0.437-2.44 2.037 0.139zM12.797 14.944c0.899-1.616 3.197 1.717 3.197 1.717l3.2 3.331c0.899 0.835 1.6 0 1.6 0l3.248-3.331c2.451-3.176 3.2-1.613 3.2-1.613l9.547 10.987c3.2 3.28 0.051 3.28 0.051 3.28h-33.592c-3.197 0-0.048-3.384-0.048-3.384l9.597-10.987z"></path>
<path fill="#000" style="fill: var(--color2, #000)" d="M40 25.043c0 3.229-3.2-1.771-3.2-1.771l-8.109-9.285c-0.901-0.939 0.968-2.219 0.968-2.219l8.259-7.037c2.475-2.579 2.037-0.139 2.037-0.139l0.045 20.451zM20.784 16.565c-0.792 1.053-1.528 0.021-1.528 0.021l-17.688-14.944c-1.549-1.659 1.504-1.643 1.504-1.643h33.773c3.037 0 1.493 1.563 1.493 1.563l-17.555 15.003zM2.083 4.731l8.259 7.037c0 0 1.869 1.28 0.968 2.219l-8.109 9.285c0 0-3.2 5-3.2 1.771l0.045-20.451c0 0-0.437-2.44 2.037 0.139zM12.797 14.944c0.899-1.616 3.197 1.717 3.197 1.717l3.2 3.331c0.899 0.835 1.6 0 1.6 0l3.248-3.331c2.451-3.176 3.2-1.613 3.2-1.613l9.547 10.987c3.2 3.28 0.051 3.28 0.051 3.28h-33.592c-3.197 0-0.048-3.384-0.048-3.384l9.597-10.987z"></path>
</symbol>

<symbol id="icon-of" viewBox="0 0 30 32">
<title>icon-of</title>
<path fill="#9cf" style="fill: var(--color1, #9cf)" d="M13.832 29.992c-7.51 0-13.832-5.996-13.832-13.734 0-5.020 2.814-9.298 6.834-11.692 2.746 0.752 1.954 3.472 1.698 4.172-2.38 1.67-3.982 4.372-3.982 7.53 0 5.282 4.154 9.286 9.278 9.286 5.126 0 9.28-4.004 9.28-9.286 0-3.354-1.554-6.198-3.998-7.83-0.254-1.060-0.538-3.574 2.334-3.852 3.902 2.398 6.556 6.666 6.556 11.672 0 7.738-6.66 13.734-14.168 13.734zM14.1 17.706c-0.938 0-2.238-1.13-2.238-2.098v-13.456c0-0.134 0.022-2.168 2.172-2.168 0.938 0 2.17 0.508 2.17 2.168v13.456c0 0.968-1.164 2.098-2.104 2.098z"></path>
<path fill="#000" style="fill: var(--color2, #000)" d="M13.832 29.992c-7.51 0-13.832-5.996-13.832-13.734 0-5.020 2.814-9.298 6.834-11.692 2.746 0.752 1.954 3.472 1.698 4.172-2.38 1.67-3.982 4.372-3.982 7.53 0 5.282 4.154 9.286 9.278 9.286 5.126 0 9.28-4.004 9.28-9.286 0-3.354-1.554-6.198-3.998-7.83-0.254-1.060-0.538-3.574 2.334-3.852 3.902 2.398 6.556 6.666 6.556 11.672 0 7.738-6.66 13.734-14.168 13.734zM14.1 17.706c-0.938 0-2.238-1.13-2.238-2.098v-13.456c0-0.134 0.022-2.168 2.172-2.168 0.938 0 2.17 0.508 2.17 2.168v13.456c0 0.968-1.164 2.098-2.104 2.098z"></path>
</symbol>

<symbol id="icon-profile" viewBox="0 0 32 32">
<title>icon-profile</title>
<path fill="#9cf" style="fill: var(--color1, #9cf)" d="M16.51 1.078c3.556 0 3.806 4.718 3.806 4.718v4.392c0 0 0.010 3.338-2.218 4.584 0 0-0.16 0.982-0.032 0.918 0.126-0.062-0.634 4.418 3.234 4.988 3.87 0.57 6.74 2.956 7.47 3.654 0.73 0.696 1.222 5.664 1.222 5.664h-30.002c0 0-0.042-4.034 1.222-5.664 0.73-0.698 3.934-3.084 7.804-3.654 3.868-0.57 2.572-4.85 2.7-4.788 0.126 0.064-0.032-0.918-0.032-0.918s-2.146-2.702-2.116-5.14c0.032-2.438 0-4.036 0-4.036s-0.076-5.786 3.88-5.786l3.062 1.068z"></path>
<path fill="#000" style="fill: var(--color2, #000)" d="M16.51 1.078c3.556 0 3.806 4.718 3.806 4.718v4.392c0 0 0.010 3.338-2.218 4.584 0 0-0.16 0.982-0.032 0.918 0.126-0.062-0.634 4.418 3.234 4.988 3.87 0.57 6.74 2.956 7.47 3.654 0.73 0.696 1.222 5.664 1.222 5.664h-30.002c0 0-0.042-4.034 1.222-5.664 0.73-0.698 3.934-3.084 7.804-3.654 3.868-0.57 2.572-4.85 2.7-4.788 0.126 0.064-0.032-0.918-0.032-0.918s-2.146-2.702-2.116-5.14c0.032-2.438 0-4.036 0-4.036s-0.076-5.786 3.88-5.786l3.062 1.068z"></path>
</symbol>

<symbol id="icon-setting" viewBox="0 0 32 32">
<title>icon-setting</title>
<path fill="#9cf" style="fill: var(--color1, #9cf)" d="M8.438 15c0-3.624 2.938-6.562 6.562-6.562s6.562 2.938 6.562 6.562c0 3.624-2.938 6.562-6.562 6.562s-6.562-2.938-6.562-6.562zM1.876 12.188c-1.036 0-1.876 0.838-1.876 1.874v1.876c0 1.036 0.84 1.874 1.876 1.874h2.658c0.246 0.922 0.612 1.794 1.078 2.6l-1.882 1.88c-0.732 0.732-0.732 1.92 0 2.652l1.326 1.326c0.732 0.732 1.92 0.732 2.652 0l1.88-1.882c0.806 0.466 1.678 0.832 2.6 1.078v2.66c0 1.034 0.84 1.874 1.874 1.874h1.876c1.036 0 1.874-0.84 1.874-1.874v-2.664c0.92-0.246 1.79-0.608 2.596-1.074l1.884 1.882c0.732 0.732 1.92 0.732 2.652 0l1.326-1.326c0.732-0.732 0.732-1.92 0-2.652l-1.882-1.884c0.464-0.806 0.828-1.676 1.074-2.596h2.662c1.036 0 1.876-0.838 1.876-1.874v-1.876c0-1.036-0.84-1.874-1.876-1.874h-2.658c-0.246-0.922-0.612-1.794-1.078-2.6l1.882-1.88c0.732-0.732 0.732-1.92 0-2.652l-1.326-1.326c-0.732-0.732-1.92-0.732-2.652 0l-1.88 1.882c-0.806-0.466-1.678-0.832-2.6-1.078v-2.66c0-1.034-0.838-1.874-1.874-1.874h-1.876c-1.034 0-1.874 0.84-1.874 1.874v2.664c-0.92 0.246-1.79 0.61-2.596 1.074l-1.884-1.882c-0.732-0.732-1.92-0.732-2.652 0l-1.326 1.326c-0.732 0.732-0.732 1.92 0 2.652l1.882 1.884c-0.464 0.806-0.828 1.676-1.074 2.596h-2.662zM12.188 15c0 1.554 1.258 2.812 2.812 2.812s2.812-1.258 2.812-2.812c0-1.554-1.258-2.812-2.812-2.812s-2.812 1.258-2.812 2.812z"></path>
<path fill="#000" style="fill: var(--color2, #000)" d="M8.438 15c0-3.624 2.938-6.562 6.562-6.562s6.562 2.938 6.562 6.562c0 3.624-2.938 6.562-6.562 6.562s-6.562-2.938-6.562-6.562zM1.876 12.188c-1.036 0-1.876 0.838-1.876 1.874v1.876c0 1.036 0.84 1.874 1.876 1.874h2.658c0.246 0.922 0.612 1.794 1.078 2.6l-1.882 1.88c-0.732 0.732-0.732 1.92 0 2.652l1.326 1.326c0.732 0.732 1.92 0.732 2.652 0l1.88-1.882c0.806 0.466 1.678 0.832 2.6 1.078v2.66c0 1.034 0.84 1.874 1.874 1.874h1.876c1.036 0 1.874-0.84 1.874-1.874v-2.664c0.92-0.246 1.79-0.608 2.596-1.074l1.884 1.882c0.732 0.732 1.92 0.732 2.652 0l1.326-1.326c0.732-0.732 0.732-1.92 0-2.652l-1.882-1.884c0.464-0.806 0.828-1.676 1.074-2.596h2.662c1.036 0 1.876-0.838 1.876-1.874v-1.876c0-1.036-0.84-1.874-1.876-1.874h-2.658c-0.246-0.922-0.612-1.794-1.078-2.6l1.882-1.88c0.732-0.732 0.732-1.92 0-2.652l-1.326-1.326c-0.732-0.732-1.92-0.732-2.652 0l-1.88 1.882c-0.806-0.466-1.678-0.832-2.6-1.078v-2.66c0-1.034-0.838-1.874-1.874-1.874h-1.876c-1.034 0-1.874 0.84-1.874 1.874v2.664c-0.92 0.246-1.79 0.61-2.596 1.074l-1.884-1.882c-0.732-0.732-1.92-0.732-2.652 0l-1.326 1.326c-0.732 0.732-0.732 1.92 0 2.652l1.882 1.884c-0.464 0.806-0.828 1.676-1.074 2.596h-2.662zM12.188 15c0 1.554 1.258 2.812 2.812 2.812s2.812-1.258 2.812-2.812c0-1.554-1.258-2.812-2.812-2.812s-2.812 1.258-2.812 2.812z"></path>
</symbol>
</defs>
</svg>
