<?xml version="1.0" standalone="no"?> <!DOCTYPE svg PUBLIC "-//W3C//DTD SVG 1.0//EN" "http://www.w3.org/TR/2001/REC-SVG-20010904/DTD/svg10.dtd" > <svg xmlns="http://www.w3.org/2000/svg" width="100%" height="100%">
<defs >
<font id="broadwaycyrillic" horiz-adv-x="632" ><font-face
    font-family="Broadway"
    units-per-em="1000"
    panose-1="0 0 0 0 0 0 0 0 0 0"
    ascent="1072"
    descent="-245"
    alphabetic="0" />
<missing-glyph horiz-adv-x="755" d="M47 0V755H708V0H47ZM661 47V708H94V47H661Z" />
<glyph unicode=" " glyph-name="space" horiz-adv-x="394" />
<glyph unicode="!" glyph-name="exclam" horiz-adv-x="396" d="M49 106Q49 159 103 195Q150 226 203 226Q260 226 308 198Q367 164 367 109Q367 51 315 16Q268 -16 203 -16Q140 -16 97 14Q49 48 49 106ZM190 300Q180 356 163 395T110 474Q81 509 66 537Q45 575
45 610L44 623Q44 688 93 726Q137 760 205 760Q271 760 319 725Q372 686 372 622V610Q372 579 357 548Q346 526 294 459Q266 423 252 388T226 300H190Z" />
<glyph unicode="&quot;" glyph-name="quotedbl" horiz-adv-x="373" d="M117 429H91L44 667L41 685Q41 713 59 730T102 747Q127 747 145 731T164 683V667L117 429ZM343 667L295 429H271L224 667L221 687Q221 715 239 731T281 747Q305 747 324 730T343 683V667Z" />
<glyph unicode="#" glyph-name="numbersign" horiz-adv-x="841" d="M339 752H487L420 565H537L602 752H750L685 565H815L765 427H635L596 318H729L677 180H547L481 -6H333L399 180H284L216 -6H68L136 180H5L55 318H185L222 427H91L141 565H273L339 752ZM369 427L328
315H451L490 427H369Z" />
<glyph unicode="$" glyph-name="dollar" horiz-adv-x="669" d="M179 -55L206 13Q176 28 140 52Q78 93 78 115Q78 124 89 130L96 131Q105 131 117 122Q125 116 135 106Q158 86 176 72T219 45L289 229Q227 301 165 373Q94 468 94 544Q94 597 125 644Q162 703 225
730T365 758Q431 758 490 742Q499 768 500 771Q511 797 523 797Q532 794 535 791T539 778Q539 768 535 758Q528 743 521 729Q542 718 567 702Q607 676 607 661Q607 655 599 649L589 646Q579 646 564 661Q555 671 552 674Q546 680 540 684T511 701L443 526L536 425Q585
371 615 316Q651 249 651 192Q651 159 640 128T602 68Q562 24 501 3T373 -18Q339 -18 304 -13T237 0Q222 -44 221 -47Q205 -83 190 -83Q175 -80 175 -68L179 -55ZM394 39Q403 50 403 65Q403 96 368 141Q367 142 315 201L250 32Q265 28 291 22T334 15Q374 15 394
39ZM417 555L479 714Q454 721 431 725T398 729Q382 729 369 725T347 711Q336 696 336 682Q336 654 368 612Q407 567 417 555Z" />
<glyph unicode="%" glyph-name="percent" horiz-adv-x="867" d="M226 737Q303 737 357 675T412 531Q412 451 357 388T224 325Q149 325 97 388T44 529Q44 608 96 672T226 737ZM646 740L269 -18Q264 -28 253 -28Q239 -28 239 -11L242 0L617 760Q622 769 631 769Q648
769 648 752Q648 744 646 740ZM226 352Q301 352 341 401T381 531V537Q381 598 336 653Q288 711 226 711V352ZM817 206V211Q817 272 771 327Q722 385 659 385V26Q735 33 776 80T817 206ZM479 203Q479 282 530 347T659 412Q737 412 792 350T847 206Q847 126 792 62T659
-2Q584 -2 532 61T479 203Z" />
<glyph unicode="&amp;" glyph-name="ampersand" horiz-adv-x="867" d="M471 0L407 54Q366 23 323 5T232 -13Q149 -13 91 40T32 174Q32 184 35 198T39 219Q49 259 77 292Q111 332 188 375Q151 447 138 489T125 563Q125 601 141 636T193 702T282 747T390 763Q444
763 494 750Q538 737 570 703T602 625L601 604Q592 565 558 530Q530 501 489 479Q517 430 553 377Q580 338 623 279Q707 356 726 369Q766 397 799 403H808Q820 403 828 398T838 381V377Q838 366 826 363T799 359Q762 356 714 318Q690 299 641 250Q694 180 744 120T852
0H471ZM357 729Q375 673 406 615Q428 573 471 506Q512 532 534 554Q567 588 567 623Q567 637 562 654Q547 697 498 716Q460 731 403 731L357 729ZM385 81Q334 139 288 208Q253 261 206 347Q154 319 130 298Q93 266 78 224Q74 215 72 203T70 179Q70 146 84 116T121
63T170 30T227 19Q267 19 309 36T385 81Z" />
<glyph unicode="&apos;" glyph-name="quotesingle" horiz-adv-x="175" d="M110 429H86L39 667L36 687Q36 715 54 731T96 747Q120 747 138 731T157 683V667L110 429Z" />
<glyph unicode="(" glyph-name="parenleft" horiz-adv-x="373" d="M81 344Q81 457 88 513Q100 612 135 674Q178 750 260 784Q269 787 288 793T321 799Q346 799 346 786V782Q346 771 321 760T294 747Q274 729 267 696T260 627Q260 583 259 556Q255 446 255 437L256
310L255 180Q255 128 257 81T268 -9T308 -70Q318 -71 332 -78T347 -94Q345 -104 343 -106Q335 -112 318 -112Q304 -112 286 -107T245 -89Q170 -54 131 22Q99 83 88 179Q81 239 81 344Z" />
<glyph unicode=")" glyph-name="parenright" horiz-adv-x="299" d="M273 344Q273 230 265 169Q252 67 215 6Q169 -70 80 -101Q67 -104 53 -107T31 -110Q11 -110 10 -101L8 -94Q8 -84 24 -77T54 -65Q79 -48 88 -8Q94 18 94 60Q94 99 95 138T97 218V505Q97 570 95
619T84 701Q77 747 36 761Q26 765 19 769Q5 777 5 784Q7 787 8 789T13 795Q23 799 31 799Q58 799 106 776Q148 756 166 740Q236 681 259 563Q273 492 273 356V344Z" />
<glyph unicode="*" glyph-name="asterisk" horiz-adv-x="422" d="M219 614Q219 650 207 672Q186 712 183 719L180 735Q180 752 193 762T224 773Q242 773 257 762T273 731L269 711Q246 662 244 655Q238 637 235 615Q262 631 278 655Q300 688 310 698Q324 713 339
713Q357 713 371 696T386 659Q386 645 379 636T352 622Q315 617 291 614T244 601Q268 590 290 586Q322 582 346 579T379 565T388 539Q388 521 373 503T339 484Q323 484 308 502Q287 533 276 547Q256 573 237 586Q240 554 251 530Q271 485 273 481L274 464Q274 447
261 435T229 422Q208 422 195 434T182 464L185 482Q197 513 210 544Q219 567 221 584Q199 572 183 551Q163 521 153 506Q144 496 133 491T110 485Q94 485 80 502Q65 515 65 534Q65 550 75 563T111 579T164 586T211 599Q189 610 167 614T117 619Q96 619 81 631T65
662L68 679Q81 713 114 713Q134 713 146 698Q151 692 178 654Q193 633 219 614Z" />
<glyph unicode="+" glyph-name="plus" horiz-adv-x="766" d="M365 625H508V383H744V244H508V0H365V244H130V383H365V625Z" />
<glyph unicode="," glyph-name="comma" horiz-adv-x="396" d="M331 44Q304 15 264 -1T180 -18Q144 -18 113 -7T58 29Q31 61 31 102Q31 145 58 180Q80 206 111 219T177 232Q249 232 309 182T369 60Q369 52 368 42T365 26Q344 -54 261 -89Q199 -115 102 -115V-88H133Q216
-88 259 -64Q312 -34 331 44Z" />
<glyph unicode="-" glyph-name="hyphen" horiz-adv-x="520" d="M80 185V414H487V185H80Z" />
<glyph unicode="." glyph-name="period" horiz-adv-x="373" d="M185 226Q242 226 290 198Q349 164 349 109Q349 52 297 16Q250 -16 185 -16Q122 -16 79 14Q31 48 31 106Q31 159 85 195Q132 226 185 226Z" />
<glyph unicode="/" glyph-name="slash" horiz-adv-x="471" d="M45 -31Q44 -35 39 -37T26 -39Q6 -39 6 -23Q6 -19 10 -11L407 756Q413 766 424 766Q430 766 436 761T442 748Q441 739 440 737L45 -31Z" />
<glyph unicode="0" glyph-name="zero" horiz-adv-x="718" d="M32 370Q32 531 121 641Q215 758 369 758H401Q540 758 623 630Q696 517 696 365Q696 347 694 324T690 282Q667 138 570 56Q482 -19 367 -19Q232 -19 137 79Q32 188 32 370ZM542 669Q505 702 456 716T352
731V10Q412 10 453 22Q503 37 542 71Q602 123 634 203T666 370Q666 458 635 536T542 669Z" />
<glyph unicode="1" glyph-name="one" horiz-adv-x="520" d="M169 0L170 133V644L29 601Q12 601 10 619L8 622Q8 633 18 641T39 649Q260 705 481 761Q481 731 479 663T477 589V198Q477 155 479 85T482 0H169Z" />
<glyph unicode="2" glyph-name="two" horiz-adv-x="718" d="M2 0Q54 62 106 130Q155 194 204 264Q240 315 299 403Q341 467 383 532Q445 631 453 664V677Q453 705 426 716T360 727L308 726Q220 715 154 668Q75 611 75 529V524Q75 496 88 468T117 411L115 404Q109
394 99 394Q84 394 67 429T47 481Q43 499 42 506T41 524Q41 603 101 665Q157 723 242 744Q269 750 307 755T381 760Q485 760 560 728Q650 689 679 612Q690 580 690 537Q690 501 681 465T653 393Q625 337 579 271Q551 231 487 150Q441 93 396 36H429Q519 36 567
38T657 47H669Q693 47 693 36Q693 21 685 10T671 -3T648 -4T619 -5Q579 -5 531 -3T442 0H2Z" />
<glyph unicode="3" glyph-name="three" horiz-adv-x="718" d="M357 16V380H218Q204 380 195 386T185 399Q185 408 196 413T219 419H357V726Q294 726 242 714T148 669Q127 647 115 635Q92 612 78 612Q69 612 63 619T57 635L58 640Q60 652 77 668T136 706T245 744T378
760Q462 760 529 738T635 669Q664 627 664 573Q664 521 638 489Q601 440 530 419Q487 406 401 399Q519 386 565 371Q658 340 687 269Q692 258 695 239T698 205Q698 175 689 147T661 94Q608 29 517 2Q447 -19 344 -19H328Q254 -19 195 -6Q124 10 71 45Q47 62 28
81Q-2 111 -2 131V138Q-2 146 9 150T24 154H31Q38 153 54 131Q95 75 115 62Q158 35 210 25T323 15L357 16Z" />
<glyph unicode="4" glyph-name="four" horiz-adv-x="766" d="M287 0L289 148H37Q25 148 15 156T5 175Q5 187 13 195L607 794L606 619V185L685 187Q695 187 704 187T726 185Q737 185 737 167Q737 152 724 149Q715 149 698 147T675 144Q664 144 636 146T606 148V0H287ZM289
185V425L52 185H289Z" />
<glyph unicode="5" glyph-name="five" horiz-adv-x="718" d="M357 18V552L300 555Q264 555 231 547T172 519Q162 511 156 507Q144 498 138 498L135 500Q123 503 123 515L128 539L198 740H570Q583 740 595 740T614 737L615 729Q615 723 612 717T606 708Q595 693
575 693L555 695Q534 695 491 698T425 701H224L174 563Q252 588 336 588Q451 588 552 537Q620 502 659 436T698 294Q698 265 694 241T679 188Q643 93 542 34Q447 -21 334 -21Q267 -21 209 -1T107 63Q71 96 49 141T26 234Q24 270 46 331T99 393H107Q120 388 120
375Q120 365 112 357Q84 327 72 304Q57 276 57 245Q57 234 58 226T62 208Q69 163 94 127T160 63T249 27T357 18Z" />
<glyph unicode="6" glyph-name="six" horiz-adv-x="744" d="M357 731V11Q453 11 515 35Q592 64 638 135Q657 165 668 202T679 278Q679 302 675 327T661 372Q642 414 601 440T511 466Q481 466 449 453T414 440Q396 440 396 453L398 461Q401 473 422 482Q452 495
482 495H506Q601 495 658 429Q711 368 711 276Q711 243 707 219T690 166Q655 80 563 28Q477 -21 375 -21Q316 -21 265 -4T170 50Q87 121 57 231Q48 265 42 302T36 370Q36 535 135 646Q238 761 401 761Q447 761 492 753T583 718Q644 684 644 651Q644 625 622 625Q613
625 598 641Q550 694 547 696Q519 716 485 724T409 732L357 731Z" />
<glyph unicode="7" glyph-name="seven" horiz-adv-x="744" d="M65 0L440 705H185Q147 705 117 703T58 693Q41 689 24 685Q12 685 6 693L2 711Q2 727 18 733T60 740H718L435 0H65Z" />
<glyph unicode="8" glyph-name="eight" horiz-adv-x="718" d="M133 328Q94 363 72 407T49 497Q49 535 65 580Q100 672 195 719Q277 760 385 760H393Q482 760 545 733Q627 698 643 625L646 589Q646 551 625 519T567 463Q631 423 664 378Q701 327 701 263L698 222Q678
106 567 40Q469 -18 343 -18H318Q226 -18 158 11Q75 46 44 120Q29 152 29 182Q29 226 59 265Q84 298 133 328ZM159 302Q118 281 93 251T67 182Q67 156 80 130Q109 66 183 36Q244 11 326 11Q334 11 351 13T375 15Q414 15 453 30Q505 50 505 83L502 104Q489 133 415
167Q386 179 357 192Q285 225 255 241Q206 268 159 302ZM534 479Q568 501 588 526Q612 557 612 591Q612 607 610 615Q595 680 521 709Q465 731 385 731H375Q327 731 287 720Q227 703 227 667Q227 630 297 588Q326 571 398 539L534 479Z" />
<glyph unicode="9" glyph-name="nine" horiz-adv-x="718" d="M380 11V731Q290 731 234 712Q163 688 115 627Q88 591 73 550T58 463Q58 442 60 426T71 386Q87 337 130 306T226 274L237 276Q254 276 278 283T328 300Q343 300 343 286L341 279Q336 266 303 255Q279
247 256 245L231 244Q135 244 77 310Q24 371 24 463Q24 486 28 509T47 575Q86 668 171 715Q249 758 352 758H388Q510 758 592 674Q667 597 692 469Q695 445 697 414T700 370Q700 204 605 97Q503 -18 330 -18Q260 -18 200 1Q119 27 96 78L93 89Q93 99 99 107T114
115L117 117Q126 117 141 100Q189 47 192 44Q218 25 253 17T325 8L380 11Z" />
<glyph unicode=":" glyph-name="colon" horiz-adv-x="396" d="M201 -18Q145 -18 99 13Q45 49 45 106Q45 159 100 195Q147 226 200 226Q257 226 305 198Q364 164 364 109Q364 53 308 15Q259 -18 201 -18ZM201 333Q146 333 99 364Q45 400 45 455Q45 509 100 545Q146
575 200 575Q257 575 305 547Q364 513 364 458Q364 402 308 365Q259 333 201 333Z" />
<glyph unicode=";" glyph-name="semicolon" horiz-adv-x="396" d="M334 44Q307 14 267 -2T183 -18Q108 -18 62 29Q34 60 34 102Q34 145 62 180Q84 205 115 218T180 232Q253 232 312 182T372 60L369 26Q348 -54 265 -89Q202 -115 106 -115V-88H136Q219 -88 262
-64Q315 -34 334 44ZM34 455Q34 510 88 545Q134 575 188 575Q245 575 293 547Q352 513 352 458Q352 401 300 365Q253 333 188 333Q125 333 82 363Q34 397 34 455Z" />
<glyph unicode="&lt;" glyph-name="less" horiz-adv-x="766" d="M744 633V481L334 313L744 144V-6L143 242V385L744 633Z" />
<glyph unicode="=" glyph-name="equal" horiz-adv-x="766" d="M130 503H744V364H130V503ZM130 123V263H744V123H130Z" />
<glyph unicode="&gt;" glyph-name="greater" horiz-adv-x="766" d="M143 633L744 385V242L143 -6V144L552 313L143 481V633Z" />
<glyph unicode="?" glyph-name="question" horiz-adv-x="643" d="M295 227Q351 227 400 198Q459 163 459 109Q459 54 403 17Q353 -16 297 -16Q242 -16 195 15Q141 51 141 106Q141 160 195 196Q242 227 295 227ZM323 289H289V731Q226 724 171 692Q102 652 102 597Q102
587 107 570L110 545Q110 523 91 523L88 521Q71 521 67 536T63 563L65 584Q78 673 158 721Q229 763 328 763Q376 763 419 754T498 726Q549 699 577 652T606 549Q606 514 593 477Q564 404 480 369Q413 341 323 341V289Z" />
<glyph unicode="@" glyph-name="at" horiz-adv-x="990" d="M571 477Q514 468 466 356Q427 265 420 188L419 180Q419 150 433 127T472 104Q482 104 498 110Q541 128 583 234Q613 311 627 386L630 422Q630 447 621 460Q609 477 584 477H571ZM825 93Q802 78 772 68T711
58Q664 58 633 81Q597 108 597 156Q569 112 535 88Q494 58 450 58Q446 58 439 60T429 62Q359 72 321 122T282 240Q282 259 285 277T297 325Q323 405 395 464T550 523H565Q609 523 632 501T664 435L687 511H807L716 190Q713 176 711 161T708 143Q708 131 712 118T734
99L742 97Q763 97 802 123Q819 134 830 144Q880 188 905 255T930 393V401Q930 519 860 595T670 696Q636 703 591 703Q483 703 388 651T235 506Q203 453 185 390T167 261Q167 151 222 57Q271 -23 365 -64Q449 -101 552 -101Q574 -101 601 -98T641 -94Q711 -82 764
-56Q818 -26 873 3L896 -29Q824 -80 762 -105T615 -141Q572 -146 534 -146Q419 -146 321 -108Q213 -66 151 15Q65 127 65 269Q65 357 100 444T198 596Q268 667 368 707T575 748Q627 748 677 739Q811 713 891 625T972 404V391Q972 299 936 222Q897 139 825 93Z"
/>
<glyph unicode="A" glyph-name="A" horiz-adv-x="938" d="M528 0L474 101H97Q71 54 55 27T32 -3L21 -5Q6 -5 6 15Q6 20 8 26T13 37Q60 113 93 166Q135 235 172 299L459 791L911 0H528ZM117 138H455Q409 224 375 284Q357 316 291 429L117 138Z" />
<glyph unicode="B" glyph-name="B" horiz-adv-x="815" d="M73 0L75 120V620L73 740H469Q588 740 669 695Q767 640 784 532L787 489Q787 433 758 392T672 321Q713 298 734 267T756 192L755 166Q745 76 663 34Q597 0 498 0H73ZM401 34L482 32Q563 32 613 48Q681
70 708 125Q715 138 718 153T721 182Q721 222 695 256T625 307Q608 305 594 304T576 302Q544 302 524 311Q498 323 498 347Q498 362 510 362Q518 362 530 357T559 345T597 338Q657 338 705 387T753 497V502Q753 555 722 601T641 672Q604 692 555 699T450 706H401V34Z"
/>
<glyph unicode="C" glyph-name="C" horiz-adv-x="815" d="M391 13L409 11Q514 11 600 51Q695 95 745 179Q753 194 757 202Q765 217 773 224Q776 227 779 228T784 229Q789 229 794 222T799 206V196Q785 157 739 109Q697 65 657 41Q611 11 553 -5T435 -21L380 -18Q235
-1 135 109T34 364L36 394Q36 552 155 657T437 763H463Q536 763 606 730Q667 702 729 646Q747 632 758 616T769 589Q769 573 760 573Q754 573 743 580T727 593Q664 663 591 694T425 726H391V13Z" />
<glyph unicode="D" glyph-name="D" horiz-adv-x="841" d="M70 120V620L68 740H396Q532 740 596 717Q652 697 701 651Q757 600 786 526T815 370Q815 288 787 215T701 89Q641 33 559 14Q499 0 396 0H68L70 120ZM396 706V34Q489 34 530 41Q599 53 653 91Q714 136
747 212T781 370Q781 454 748 528T653 649Q614 677 560 691T396 706Z" />
<glyph unicode="E" glyph-name="E" horiz-adv-x="766" d="M716 0H62L63 120V620L62 740H672Q693 740 695 731L696 718Q696 708 686 704T662 700L640 701Q593 701 564 702Q447 706 435 706H390V536L432 534Q492 534 529 535Q679 539 693 539Q706 539 713 532T721
516Q721 498 696 498Q643 498 522 500T390 502V34L554 31Q634 31 719 39Q744 39 744 19Q744 0 716 0Z" />
<glyph unicode="F" glyph-name="F" horiz-adv-x="766" d="M75 120V620L73 740H679Q700 740 700 734T701 726T703 718Q703 709 692 705T667 700L648 701Q603 701 574 702Q459 706 446 706H401V536L695 539Q713 539 722 536T731 518Q731 505 722 502T698 498Q668
498 596 500T519 502H401V120L404 0H73L75 120Z" />
<glyph unicode="G" glyph-name="G" horiz-adv-x="867" d="M393 726V13L422 11Q498 11 554 27Q620 46 674 89Q733 136 765 203Q792 259 805 346H490L479 344Q468 344 462 347T456 362Q456 376 466 378T487 380H843Q843 306 824 245T760 123Q707 53 623 16T446 -21Q355
-21 273 12T133 112Q85 167 60 233T34 364Q34 523 146 640Q263 763 438 763Q495 763 547 750T648 708Q684 687 712 664Q752 632 765 606L766 593Q766 578 752 578Q742 578 718 602Q702 618 687 635Q630 683 568 704T432 726H393Z" />
<glyph unicode="H" glyph-name="H" horiz-adv-x="815" d="M62 0L63 120V620L62 740H393L390 620V487H758L753 719L755 735Q756 739 761 742T771 745Q779 745 787 740T797 726Q797 709 796 698Q792 654 792 651L791 591L792 472V313L791 279Q791 236 794 149T797
18Q797 -3 773 -3Q764 -3 758 2T752 18L758 450H390V120L393 0H62Z" />
<glyph unicode="I" glyph-name="I" horiz-adv-x="422" d="M65 0L67 120V620L65 740H396L393 620V120L396 0H65Z" />
<glyph unicode="J" glyph-name="J" horiz-adv-x="669" d="M317 10L320 130V620L317 740H649L646 620V256Q646 114 536 40Q442 -23 295 -23H274Q265 -23 256 -23Q244 -21 239 -21Q154 -11 87 30Q3 81 3 156Q3 183 24 183Q35 183 44 177T55 154Q77 67 155 34Q212
10 317 10Z" />
<glyph unicode="K" glyph-name="K" horiz-adv-x="841" d="M62 0L63 120V620L62 740H393L390 555Q527 630 552 644Q624 685 711 740Q721 747 735 747Q751 747 763 742Q766 741 767 738T769 731Q769 724 762 717T748 708Q692 684 634 653Q589 628 524 589Q598 438
663 312T808 42Q813 32 815 26T818 13Q818 -3 797 -3L789 -5L778 0Q767 6 739 67Q722 103 706 140Q647 263 601 357Q541 480 492 573Q463 557 441 543Q407 521 390 510V120L393 0H62Z" />
<glyph unicode="L" glyph-name="L" horiz-adv-x="766" d="M62 0L63 120V620L62 740H393L390 620V153L393 34L474 32Q512 32 565 35Q688 42 719 42Q732 42 738 37T745 23Q745 15 737 8T716 0H62Z" />
<glyph unicode="M" glyph-name="M" horiz-adv-x="1062" d="M144 375Q121 293 99 211T58 47Q53 16 44 5T21 -6L3 -3Q-2 -1 -2 8Q-2 13 -1 20T3 36L231 771Q304 664 379 558Q443 468 531 349Q579 419 627 489T725 629Q766 689 820 771Q858 643 896 515Q923 423 971
258Q1011 119 1045 0H713L607 394Q568 338 530 282Q516 261 454 170Q401 92 378 57L144 375Z" />
<glyph unicode="N" glyph-name="N" horiz-adv-x="815" d="M97 354V185Q97 156 100 100T104 31V18Q104 7 96 1T76 -6Q55 -6 55 13L52 57Q52 87 59 185Q63 241 63 263V763Q237 661 400 571T750 386V554Q750 576 746 626T742 700L744 722Q744 747 769 747H776Q785
746 788 737T792 718V713Q792 673 788 594T784 476V-23Q610 79 447 169T97 354Z" />
<glyph unicode="O" glyph-name="O" horiz-adv-x="841" d="M34 370Q34 533 151 648T427 763Q477 763 529 750Q657 716 738 610T820 370Q820 209 705 94T429 -21Q265 -21 150 93T34 370ZM391 13L406 11Q464 11 514 22T610 62Q692 110 737 194T782 373Q782 438 760
500T692 612Q636 672 568 699T416 726H391V13Z" />
<glyph unicode="P" glyph-name="P" horiz-adv-x="841" d="M68 0L70 120V620L68 740H445Q542 740 614 717Q703 689 756 625Q789 585 806 535T823 430Q823 374 805 321Q779 249 719 200T580 133Q544 127 521 125T468 122L396 125V0H68ZM396 159L469 156Q503 156
535 160T599 174Q677 198 728 257T786 398L787 430Q787 500 756 560T668 655T536 700Q492 706 396 706V159Z" />
<glyph unicode="Q" glyph-name="Q" horiz-adv-x="841" d="M635 36Q534 -21 422 -21Q338 -21 264 12T130 114Q34 225 34 365Q34 463 79 552T209 698Q305 761 422 761Q540 761 641 698T787 524Q820 441 820 364Q820 279 781 201T667 58Q680 50 746 4T813 -44L815
-52Q815 -65 807 -70L797 -71Q773 -71 711 -25Q696 -14 635 36ZM391 726V13L412 11Q509 11 606 58Q577 85 555 108Q511 153 511 170Q511 172 513 175T516 179T524 182L536 179Q559 159 587 131Q631 87 638 80Q706 136 745 209T784 364L781 422Q761 557 655 641T412
726H391Z" />
<glyph unicode="R" glyph-name="R" horiz-adv-x="841" d="M62 0L63 120V620L62 740H438Q536 740 608 717Q697 689 750 625Q782 586 799 535T817 430V409Q817 281 728 208Q651 145 513 125Q574 91 636 67T765 29Q779 27 779 11Q776 1 774 -2Q766 -11 748 -11Q739
-11 723 -7T703 -2Q623 23 539 72Q471 111 390 174V0H62ZM661 657Q605 690 530 700Q486 706 390 706V219Q429 184 476 154Q557 162 605 179Q642 192 675 216Q725 250 752 307T779 429Q779 500 749 561T661 657Z" />
<glyph unicode="S" glyph-name="S" horiz-adv-x="643" d="M289 166L180 284Q110 365 86 401Q37 476 37 541Q37 551 40 564T44 584Q65 675 158 723Q235 763 339 763Q433 763 508 726Q553 701 558 698Q574 686 581 672V666Q581 661 577 656T568 651Q523 682 479
705Q429 731 380 731H360Q331 728 318 717T304 688Q304 660 344 610Q357 593 378 571L518 425Q566 374 595 322Q630 258 630 200V188Q630 181 628 167Q613 77 528 25Q453 -21 357 -21H333Q250 -21 175 5T39 86Q24 101 24 110Q28 119 30 123T42 128Q52 128 68 115Q90
98 91 97Q152 48 196 30Q233 15 271 15L284 13Q309 13 329 23T354 54V60Q354 83 330 117Q316 137 289 166Z" />
<glyph unicode="T" glyph-name="T" horiz-adv-x="766" d="M206 0L209 119V586L206 705Q159 701 114 699T42 696Q27 696 18 697T3 701Q0 704 -1 708T-5 716Q-5 725 5 732T28 739H718Q730 739 742 728Q750 720 750 714Q749 710 748 707T744 701Q740 700 737 700Q716
696 703 696Q665 696 619 699T539 705L536 620L537 586V119L536 83L539 0H206Z" />
<glyph unicode="U" glyph-name="U" horiz-adv-x="815" d="M57 260V620L55 740H386L383 622V10Q498 10 554 22Q649 43 698 106Q731 148 743 212Q752 259 752 328Q752 398 753 467T755 607L752 693Q752 707 752 720T756 739Q762 747 773 747Q780 747 787 744T795
737T796 717T797 683L794 498L792 479V390Q792 241 764 161Q740 93 693 52T573 -6T420 -23Q391 -23 358 -20T307 -16Q174 -2 116 62T57 260Z" />
<glyph unicode="V" glyph-name="V" horiz-adv-x="916" d="M469 -50Q391 81 313 213Q165 462 157 476Q106 561 -2 740H378L628 323L722 497Q746 539 757 560Q795 629 812 667Q821 696 829 714Q845 750 864 750L873 748Q886 744 886 729L885 718Q875 686 825 599Q782
523 773 513Q731 439 669 327Q635 265 568 139Q515 39 469 -50Z" />
<glyph unicode="W" glyph-name="W" horiz-adv-x="1062" d="M307 -52L70 557Q45 620 32 649Q12 694 -8 740H313Q343 652 383 547Q419 452 459 356L657 765Q684 711 725 631Q752 578 795 498T867 365Q924 510 937 545Q979 659 995 726Q998 740 1003 749T1019 758H1024Q1042
754 1042 739V734Q1038 714 1027 687T1005 635L896 354L744 -52Q706 22 669 96T592 244Q567 292 513 390L307 -52Z" />
<glyph unicode="X" glyph-name="X" horiz-adv-x="890" d="M268 338L143 539Q113 587 77 638T5 740H381L474 594L554 472L636 578Q672 626 702 665Q761 742 768 745L778 747Q786 747 793 740T800 724Q800 714 794 708Q770 676 734 634Q686 578 674 563L575 440L742
180Q768 139 803 90Q835 45 867 0H472Q455 36 431 77Q412 110 386 151L289 304Q235 238 199 193Q159 143 112 80Q100 64 84 41Q64 13 55 4T32 -6Q24 -6 19 -2Q10 7 10 13Q10 19 14 28T24 44Q124 161 177 225Q213 268 268 338Z" />
<glyph unicode="Y" glyph-name="Y" horiz-adv-x="890" d="M352 97L427 198Q382 257 287 379Q196 495 145 560Q73 650 2 740H403L617 459Q699 571 723 605Q743 634 784 695Q796 714 803 725Q818 746 831 748Q854 748 854 737V731Q854 719 844 707T825 685L369 58Q349
29 336 12T316 -11T297 -16Q279 -16 279 -2L282 8Q293 27 325 64Q343 86 352 97Z" />
<glyph unicode="Z" glyph-name="Z" horiz-adv-x="744" d="M0 0L346 706Q298 706 250 705T154 703Q140 703 117 701T89 698L60 701Q42 705 42 718Q42 725 52 732T78 740H713Q632 581 539 389Q460 226 370 34L450 32Q478 32 529 34T591 37Q595 37 615 39T648 41Q673
41 681 37T692 28T695 18Q695 0 664 0H0Z" />
<glyph unicode="[" glyph-name="bracketleft" horiz-adv-x="396" d="M106 787H330Q343 787 351 781T359 766Q358 763 357 760T352 755Q340 748 318 748Q303 748 290 749T261 753V-65L321 -62Q344 -62 351 -67T359 -80Q359 -88 352 -94T330 -101H106V787Z" />
<glyph unicode="\" glyph-name="backslash" horiz-adv-x="471" d="M45 756L440 -11L443 -24Q443 -28 439 -33T425 -39Q410 -39 407 -31L10 737L45 756Z" />
<glyph unicode="]" glyph-name="bracketright" horiz-adv-x="273" d="M253 787V-101H28Q7 -101 3 -89L0 -76Q0 -67 10 -64T39 -60Q55 -60 70 -61T97 -65V753Q94 753 70 751T39 748Q18 748 6 755Q4 757 3 760T0 766Q0 774 7 780T28 787H253Z" />
<glyph unicode="^" glyph-name="asciicircum" horiz-adv-x="497" d="M265 661L196 769L99 661Q97 659 92 656T84 653Q79 653 74 658T68 670Q68 675 73 683L180 807H357L469 661H265Z" />
<glyph unicode="_" glyph-name="underscore" horiz-adv-x="545" d="M0 -101H524V-245H0V-101Z" />
<glyph unicode="`" glyph-name="grave" horiz-adv-x="396" d="M239 661L120 807H313L369 661H239Z" />
<glyph unicode="a" glyph-name="a" horiz-adv-x="766" d="M451 0V54Q402 19 364 3Q315 -18 265 -18H255Q181 -18 122 17Q57 56 36 123Q24 159 24 188Q24 253 60 305T161 380Q184 389 215 394T273 399Q316 399 361 389T451 359V481Q451 528 417 551T333 575Q306
575 283 569T237 552Q193 516 166 494T123 472Q120 474 118 475T112 477Q97 488 97 500Q97 518 125 540T203 583Q242 597 291 604T388 612Q457 612 513 602Q565 595 607 577T683 528Q712 501 722 456Q729 424 729 372V133Q729 90 733 64T753 0H451ZM451 91V318Q427
337 400 348T344 360Q318 360 309 340T299 291V83Q299 60 306 46T333 32L336 34Q364 37 396 55Q414 65 451 91Z" />
<glyph unicode="b" glyph-name="b" horiz-adv-x="841" d="M65 0L67 120V631L65 748H347L344 631V521Q390 565 431 586T524 607Q536 607 555 605T588 601Q693 577 754 486Q810 402 810 294Q810 186 754 104Q693 15 588 -6Q556 -13 523 -13Q472 -13 429 8T344 71L347
0H65ZM344 119Q366 88 402 62Q443 32 472 32Q490 32 501 48T513 96L515 101V495Q515 527 503 542T472 557Q444 557 403 528Q366 502 344 474V119Z" />
<glyph unicode="c" glyph-name="c" horiz-adv-x="669" d="M330 539V54Q330 13 369 13L377 15Q417 15 457 33T532 80Q549 95 582 139Q599 161 608 169T625 177L638 174Q642 171 644 167T646 156Q646 128 586 75Q540 34 511 18Q437 -19 357 -19Q251 -19 166 40Q77
102 45 205Q38 231 35 254T31 299Q31 431 127 520T357 610Q385 610 411 607T464 596Q505 582 548 553Q602 517 614 485L615 476Q615 459 596 459Q585 459 576 468Q551 493 527 518Q502 541 464 557Q447 563 424 569Q391 578 375 578Q355 578 343 569T330 539Z"
/>
<glyph unicode="d" glyph-name="d" horiz-adv-x="815" d="M784 0H502L505 71Q462 31 418 9T323 -13L289 -11Q171 1 104 87T36 295Q36 416 102 501Q172 591 289 604Q297 606 308 606T325 606Q374 606 420 583Q461 563 505 521V631L502 748H784L781 631V120L784
0ZM505 119V474Q484 502 446 528Q403 558 375 558Q357 558 346 543T334 495V101L333 91Q333 69 343 53T373 36H377Q412 36 449 63Q477 83 505 119Z" />
<glyph unicode="e" glyph-name="e" horiz-adv-x="695" d="M287 279V80Q287 44 299 30T349 15Q412 15 469 44T570 123Q583 141 593 153Q613 177 627 177L640 174Q643 171 645 165T648 156Q648 146 638 132T620 109Q564 50 492 16T344 -18Q306 -18 274 -11Q168 13
100 99T31 294L34 330Q46 451 138 531T351 612L385 610Q450 603 505 572T599 487Q633 443 647 391T662 279H287ZM287 519V313H427V519Q427 548 406 564T356 580Q328 580 308 565T287 519Z" />
<glyph unicode="f" glyph-name="f" horiz-adv-x="520" d="M75 0L76 120V554Q70 554 55 552T34 549Q17 549 8 553T-2 570Q-2 582 7 586T32 591L76 589Q89 655 113 692Q143 738 200 758Q226 768 256 773T318 778Q374 778 422 763Q441 760 462 749Q490 734 490 718Q490
700 469 696L466 695Q459 695 440 712T404 729Q375 729 364 702T352 635L354 589Q361 589 385 591T416 594Q435 594 447 590T461 575V568Q461 549 433 549Q417 549 389 551T354 554V120L357 0H75Z" />
<glyph unicode="g" glyph-name="g" horiz-adv-x="643" d="M122 231Q82 259 61 300T39 386Q39 433 63 479T130 556T223 598T326 609L437 606Q463 606 479 609T505 622Q506 623 526 647Q542 667 554 667Q565 667 571 657Q573 655 574 651T576 641Q576 620 535 600Q506
585 482 581Q532 553 561 522Q596 485 609 437Q612 422 613 410T615 386Q615 318 570 265Q531 219 467 195Q410 174 341 174Q294 174 248 183T154 209Q141 201 135 192T128 175Q128 164 146 156T190 148H195L425 151H432Q485 151 521 133Q567 110 567 65V57Q561
9 512 -16Q481 -32 419 -41Q425 -32 432 -21T440 -2Q440 10 425 13H416L378 10Q320 1 291 -3Q235 -11 203 -11H198Q138 -11 94 17Q42 50 42 106Q42 148 65 180Q82 204 122 231ZM328 209Q380 209 380 258V534Q380 557 364 570T326 583Q306 583 290 570T274 536L276
534V258L274 253Q274 231 289 220T328 209Z" />
<glyph unicode="h" glyph-name="h" horiz-adv-x="815" d="M65 631L63 748H346L343 631V510Q410 555 459 576Q525 604 589 604H609Q651 604 690 588T755 539Q777 509 784 473T791 388V120L789 96L792 0H510L513 120V492Q513 536 477 536Q451 536 402 508Q367 488
343 469V120L346 0H63L65 120V631Z" />
<glyph unicode="i" glyph-name="i" horiz-adv-x="396" d="M73 0L75 120V472L73 593H356Q356 572 354 524T352 472V120Q352 99 354 52T356 0H73ZM209 612Q157 612 116 636Q68 664 68 708Q68 751 114 776T208 802Q260 802 305 780Q359 754 359 711Q359 667 308 638Q263
612 209 612Z" />
<glyph unicode="j" glyph-name="j" horiz-adv-x="422" d="M117 472L114 593H396L393 495L394 472V196Q394 91 326 25T157 -41Q134 -41 105 -36T42 -13Q-3 11 -3 36L-2 47Q1 60 11 60Q21 60 38 45Q50 34 58 24Q77 3 91 3Q103 3 110 15T117 47V472ZM401 711Q401
667 350 637Q304 610 252 610Q200 610 158 635Q110 663 110 708Q110 750 159 778Q201 802 250 802Q302 802 347 780Q401 754 401 711Z" />
<glyph unicode="k" glyph-name="k" horiz-adv-x="867" d="M338 120L339 0H57L60 120V631L57 748H339L338 631V367L510 511Q567 560 591 575Q640 606 688 606Q704 606 717 597T731 575Q731 565 724 558Q714 545 695 545Q689 545 673 548T649 552Q620 552 590 533Q571
521 541 492L716 201Q752 142 797 76Q823 38 849 0H529L338 321V120Z" />
<glyph unicode="l" glyph-name="l" horiz-adv-x="373" d="M70 631L68 748H351Q351 729 349 682T347 631V120Q347 99 349 52T351 0H68L70 120V631Z" />
<glyph unicode="m" glyph-name="m" horiz-adv-x="1039" d="M65 0L67 120V472L65 593H318L315 521Q366 561 403 579Q453 604 503 604Q554 604 587 582T648 513Q705 555 742 574Q800 604 849 604Q875 604 894 599Q902 597 920 588Q973 562 992 506Q1006 466 1006
394V120L1005 84L1008 0H755L756 84V474Q756 528 731 528Q714 528 688 506Q682 501 661 481V120L662 0H409L412 120V474V490Q412 508 408 518T391 528Q372 528 349 511Q346 509 315 481V120L318 0H65Z" />
<glyph unicode="n" glyph-name="n" horiz-adv-x="815" d="M63 0L65 120V472L63 593H346L343 510Q410 555 459 576Q525 604 589 604H609Q651 604 690 588T755 539Q777 509 784 473T791 388V120L789 96L792 0H510L513 120V492Q513 536 477 536Q451 536 402 508Q367
488 343 469V120L346 0H63Z" />
<glyph unicode="o" glyph-name="o" horiz-adv-x="695" d="M31 295Q31 427 124 518T346 610Q390 610 429 601Q530 574 596 488T662 295Q662 165 570 74T347 -18Q218 -18 125 74T31 295ZM330 15L336 13Q457 13 543 93T630 295Q630 418 543 497T333 576L330 15Z" />
<glyph unicode="p" glyph-name="p" horiz-adv-x="815" d="M492 489V495Q492 524 483 537T458 550Q434 550 396 521Q370 501 343 472V183Q367 156 396 133Q435 102 458 102Q473 102 482 115T492 159V489ZM63 -41L65 78V472L63 593H346L343 521Q391 565 433 584Q480
606 534 606Q551 606 560 605T594 601Q686 583 741 501Q791 426 791 330Q791 232 742 158Q688 77 594 58Q572 54 558 52T532 50Q481 50 436 72T343 138L346 -41H63Z" />
<glyph unicode="q" glyph-name="q" horiz-adv-x="766" d="M753 -41H471L472 138Q424 94 382 74Q333 50 278 50Q273 50 262 52T247 54Q140 66 80 144Q24 218 24 330Q24 440 81 516T247 604Q255 606 266 606T282 606Q336 606 384 583Q426 563 472 521L471 593H753L750
506L752 472V78L750 42L753 -41ZM472 474Q451 500 419 525Q380 555 356 555Q341 555 331 541T321 498L323 492V167L321 159Q321 102 354 102Q378 102 418 132Q451 157 472 183V474Z" />
<glyph unicode="r" glyph-name="r" horiz-adv-x="643" d="M349 120L352 0H70L71 120V472L70 593H352L349 479Q400 536 433 562Q490 606 542 606L565 604Q583 602 595 588T607 557Q607 546 599 532Q589 519 575 519Q569 519 539 525T498 532Q465 532 433 512Q392
486 349 427V120Z" />
<glyph unicode="s" glyph-name="s" horiz-adv-x="545" d="M240 133L151 227Q97 287 74 321Q34 381 34 433Q34 438 35 445T39 469Q57 541 132 579Q197 612 279 612Q335 612 390 597Q463 577 485 542L489 531Q489 524 483 519T468 513Q425 539 387 557Q344 578 307
578Q288 578 274 572T255 549L253 539Q253 515 284 483Q306 464 312 458L427 339Q466 299 489 257Q518 205 518 159Q518 141 516 133Q505 61 434 19Q371 -18 292 -18H269Q214 -18 161 -3T65 44Q55 51 49 59Q39 71 39 80Q41 84 42 88T47 94T52 98T58 101Q67 101
81 89T101 73Q133 48 169 32T244 16Q265 16 281 22Q304 31 304 50Q304 64 278 93Q259 113 240 133Z" />
<glyph unicode="t" glyph-name="t" horiz-adv-x="545" d="M378 778L370 593L383 591L463 593L476 594Q490 594 490 576V570Q490 561 484 557T468 552L458 554L370 555L364 101Q364 44 398 44Q421 44 450 76Q453 80 473 114Q488 140 498 144L505 146Q520 146 523
133V127Q523 119 519 111T506 91Q473 38 412 10T281 -19Q228 -19 180 -2Q129 19 108 69T86 182L91 549Q88 549 72 547T47 545Q30 545 19 549T5 565L3 570Q3 575 8 582T23 589H32L81 588H93V656Q164 683 232 712T378 778Z" />
<glyph unicode="u" glyph-name="u" horiz-adv-x="815" d="M786 593Q786 572 784 524T782 472V120Q782 99 784 52T786 0H503Q503 13 504 41T505 83Q443 39 387 16Q321 -11 255 -11H240Q199 -11 159 5T94 54Q73 80 65 115T57 193L58 231V472L55 593H338Q338 579
336 544T334 506L336 472V101Q336 79 346 67T370 55Q397 55 445 83Q462 93 505 123V472L503 593H786Z" />
<glyph unicode="v" glyph-name="v" horiz-adv-x="766" d="M404 -32L83 474Q62 507 43 534Q14 574 0 593H339L537 274L622 427Q638 458 655 490Q668 516 685 554Q697 590 703 599Q713 612 727 612L740 610Q755 604 755 588Q755 574 740 550Q729 534 718 518L654
414L537 201Q507 146 471 83Q426 6 404 -32Z" />
<glyph unicode="w" glyph-name="w" horiz-adv-x="1062" d="M336 -34L5 593H318Q335 547 360 498L472 282L662 623L854 292L929 469Q945 515 955 544Q975 599 985 609Q987 610 990 610T998 612Q1006 612 1015 604T1024 588V581Q1016 561 996 520Q970 467 966 458L742
-34L531 310L336 -34Z" />
<glyph unicode="x" glyph-name="x" horiz-adv-x="815" d="M438 0L266 242L146 110Q102 54 77 25T39 -11L29 -13Q21 -13 13 -6T5 11Q5 18 10 28Q19 40 46 66Q113 131 117 135L245 269L88 489Q73 511 46 542Q26 565 0 593H354Q381 546 416 502L505 380L591 474Q610
493 631 519T670 570Q679 580 688 591Q701 604 711 604Q716 604 721 602T732 593L735 581Q735 578 733 573T724 562Q698 533 671 506T617 451L526 352L685 128Q705 101 723 79Q732 68 792 0H438Z" />
<glyph unicode="y" glyph-name="y" horiz-adv-x="744" d="M331 75L144 377Q117 421 91 459Q44 526 -3 593H343Q405 452 505 321L596 463Q599 468 635 534Q664 588 675 599Q682 604 688 604Q698 604 708 595T718 575L716 567Q712 556 705 547T688 528Q671 507 655
486Q643 470 623 442L396 97Q359 43 320 8Q264 -41 214 -41Q188 -41 164 -29T140 5L141 13Q145 32 166 32Q176 32 191 28T214 18Q223 15 229 13T239 11Q262 11 290 33Q310 49 331 75Z" />
<glyph unicode="z" glyph-name="z" horiz-adv-x="766" d="M10 0Q59 69 109 138L375 554H221Q206 554 175 553T127 552L97 549Q75 549 75 568L76 575Q79 597 106 597Q123 597 160 594T216 591L234 593H615L648 591L729 594Q682 525 658 490T617 427L360 39H513Q591
39 661 49H677Q694 49 703 42T713 16Q713 7 703 3T680 -2H666L516 0H10Z" />
<glyph unicode="{" glyph-name="braceleft" horiz-adv-x="471" d="M445 776V739Q391 739 370 704Q354 677 354 623L356 571V503Q356 430 339 396Q315 349 245 325Q314 302 338 255Q356 219 356 146V78L354 24Q354 -30 369 -54Q390 -88 445 -88V-123Q303 -123 264
-80Q229 -41 229 97V140Q229 220 210 250Q184 291 99 302V347Q184 359 210 398Q229 427 229 510V554Q229 693 264 732Q304 776 445 776Z" />
<glyph unicode="|" glyph-name="bar" horiz-adv-x="373" d="M198 800H341V-245H198V800Z" />
<glyph unicode="}" glyph-name="braceright" horiz-adv-x="471" d="M93 776Q234 776 273 733Q308 694 308 554L307 510Q307 429 327 399Q354 359 440 347V302Q355 291 328 251Q307 220 307 140L308 97V44Q308 6 303 -20T281 -68Q254 -104 195 -116Q160 -123 93
-123V-88Q147 -88 167 -55Q182 -30 182 21V78L180 146Q180 219 198 254Q223 302 292 325Q223 348 199 395Q180 431 180 502L182 571V623Q182 679 168 703Q147 739 93 739V776Z" />
<glyph unicode="~" glyph-name="asciitilde" horiz-adv-x="497" d="M175 690Q153 698 133 698Q110 698 93 674Q92 672 85 667T75 662Q67 662 67 674L65 677Q65 701 89 737Q110 769 129 784T168 806T209 813Q235 813 269 803T336 784Q344 782 365 775T394 768Q422
768 446 802Q449 805 452 806T459 808Q471 808 471 795Q471 769 445 729T393 672Q379 661 361 656T325 651Q293 651 253 664T175 690Z" />
</font>
</defs>
</svg>
