<?xml version="1.0" standalone="no"?>
<!DOCTYPE svg PUBLIC "-//W3C//DTD SVG 1.1//EN" "http://www.w3.org/Graphics/SVG/1.1/DTD/svg11.dtd" >
<svg xmlns="http://www.w3.org/2000/svg" xmlns:xlink="http://www.w3.org/1999/xlink" version="1.1">
<metadata>
Created by FontForge 20160407 at Thu Oct  6 01:27:57 2016
 By Jimmy Warting
2010 Hans Reichel published by FSI FontShop International GmbH
</metadata>
<defs>
<font id="DaxlineOffcPro-Light" horiz-adv-x="368" >
  <font-face 
    font-family="Daxline Offc Pro Light"
    font-weight="350"
    font-stretch="normal"
    units-per-em="1000"
    panose-1="2 11 5 4 2 1 1 2 1 2"
    ascent="785"
    descent="-215"
    x-height="539"
    cap-height="724"
    bbox="-298 -311 1283 1020"
    underline-thickness="48"
    underline-position="-167"
    unicode-range="U+0020-FB02"
  />
<missing-glyph horiz-adv-x="500" 
d="M0 700h500v-700h-500v700zM420 650h-340l170 -255zM450 95v510l-170 -255zM420 50l-170 255l-170 -255h340zM50 95l170 255l-170 255v-510z" />
    <glyph glyph-name=".notdef" horiz-adv-x="500" 
d="M0 700h500v-700h-500v700zM420 650h-340l170 -255zM450 95v510l-170 -255zM420 50l-170 255l-170 -255h340zM50 95l170 255l-170 255v-510z" />
    <glyph glyph-name=".null" horiz-adv-x="0" 
 />
    <glyph glyph-name="nonmarkingreturn" horiz-adv-x="282" 
 />
    <glyph glyph-name="space" unicode=" " horiz-adv-x="282" 
 />
    <glyph glyph-name="exclam" unicode="!" horiz-adv-x="266" 
d="M159 224h-51l-9 500h69zM178 39q0 -19 -13 -32t-32 -13t-32 13t-13 32t13 32t32 13t32 -13t13 -32z" />
    <glyph glyph-name="quotedbl" unicode="&#x22;" horiz-adv-x="430" 
d="M335 415h-40l-12 299q11 17 32 17q20 0 31 -17zM136 415h-40l-12 299q11 17 32 17t32 -17z" />
    <glyph glyph-name="numbersign" unicode="#" horiz-adv-x="767" 
d="M547 469l-29 -206h133v-44h-140l-31 -219h-50l31 219h-199l-31 -219h-50l31 219h-134v44h141l29 206h-134v44h141l30 211h50l-30 -211h199l30 211h50l-30 -211h133v-44h-140zM298 469l-29 -206h199l29 206h-199z" />
    <glyph glyph-name="dollar" unicode="$" horiz-adv-x="589" 
d="M508 188q0 -44 -16.5 -78.5t-46 -59.5t-70 -39.5t-89.5 -18.5l2 -151h-56l12 149q-41 2 -88.5 11.5t-81.5 25.5l24 52q14 -7 33.5 -13t40.5 -11t42.5 -8t38.5 -3q89 0 140.5 36t51.5 106q0 33 -13.5 56.5t-36 41.5t-51 31.5t-58.5 25.5q-38 15 -74 33.5t-65 43
t-46.5 56.5t-17.5 75q0 40 14.5 72.5t41 55.5t62.5 37t79 18l-2 144h55l-12 -142q45 -1 86.5 -12t67.5 -25l-22 -50q-23 13 -61 23.5t-79 10.5q-78 0 -123.5 -33.5t-45.5 -96.5q0 -32 15 -56t39 -42.5t54.5 -33t60.5 -26.5q35 -14 70 -31.5t62.5 -41t45 -56t17.5 -76.5z" />
    <glyph glyph-name="percent" unicode="%" horiz-adv-x="957" 
d="M882 215q0 -50 -9.5 -91.5t-29 -71t-48 -46t-65.5 -16.5q-38 0 -66 16.5t-47 46t-28.5 71t-9.5 91.5t9.5 91.5t28.5 71t47 46t66 16.5q37 0 65.5 -16.5t48 -46t29 -71t9.5 -91.5zM367 -8l-45 15l268 725l45 -15zM378 509q0 -50 -9.5 -91.5t-29 -71t-48 -46t-65.5 -16.5
q-38 0 -66 16.5t-47.5 46t-29 71t-9.5 91.5t9.5 91.5t29 71t47.5 46t66 16.5q37 0 65.5 -16.5t48 -46t29 -71t9.5 -91.5zM830 215q0 81 -25 130.5t-75 49.5t-74.5 -49.5t-24.5 -130.5t24.5 -130t74.5 -49t75 49t25 130zM326 509q0 81 -25 130.5t-75 49.5t-74.5 -49.5
t-24.5 -130.5t24.5 -130t74.5 -49t75 49t25 130z" />
    <glyph glyph-name="ampersand" unicode="&#x26;" horiz-adv-x="716" 
d="M540 402v-375q-32 -14 -87.5 -25.5t-115.5 -11.5q-63 0 -114.5 11t-87.5 35t-55.5 61t-19.5 89q0 81 48 130t125 71v2q-37 9 -63 25t-43 37.5t-25 47t-8 54.5q0 85 58.5 133t161.5 48q44 0 86.5 -10.5t72.5 -26.5l-21 -48q-25 14 -62 23.5t-72 9.5q-76 0 -120.5 -32.5
t-44.5 -98.5q0 -30 11.5 -55t31.5 -42t47 -26.5t59 -9.5q16 0 38 1t51 6l277 48l8 -49zM481 391l-164 -26q-197 -31 -197 -176q0 -41 15.5 -69t44 -46t68.5 -26t90 -8q19 0 40 2t40 5t35.5 7t27.5 8v329z" />
    <glyph glyph-name="quotesingle" unicode="'" horiz-adv-x="232" 
d="M136 415h-40l-12 299q11 17 32 17t32 -17z" />
    <glyph glyph-name="parenleft" unicode="(" horiz-adv-x="360" 
d="M273 -214q-41 52 -77.5 109t-63.5 120t-43 132.5t-16 148.5t16 148.5t43 132.5t63.5 119.5t77.5 109.5l45 -30q-36 -48 -69 -101t-58 -113t-40 -126.5t-15 -139.5q0 -74 15 -140t40 -126t58 -113t69 -101z" />
    <glyph glyph-name="parenright" unicode=")" horiz-adv-x="360" 
d="M287 296q0 -79 -16 -148.5t-43 -132.5t-63.5 -120t-77.5 -109l-45 30q36 48 69 101t58 113t40 126t15 140q0 73 -15 139.5t-40 126.5t-58 113t-69 101l45 30q41 -53 77.5 -109.5t63.5 -119.5t43 -132.5t16 -148.5z" />
    <glyph glyph-name="asterisk" unicode="*" horiz-adv-x="596" 
d="M530 720q0 -11 -5 -20l-190 -53l121 -153q-1 -14 -11.5 -24.5t-24.5 -10.5q-7 0 -11 1l-106 162l-107 -162q-4 -1 -10 -1q-14 0 -24.5 10.5t-11.5 24.5l121 153l-190 53q-6 10 -6 20q0 11 6.5 19t16.5 13l183 -67l-7 197q12 14 29 14t29 -14l-7 -197l183 67
q22 -10 22 -32z" />
    <glyph glyph-name="plus" unicode="+" horiz-adv-x="573" 
d="M314 300v-189h-54v189h-184v50h184v189h54v-189h183v-50h-183z" />
    <glyph glyph-name="comma" unicode="," horiz-adv-x="244" 
d="M62 -169h-46l84 231q7 10 17 16t24 6t21 -6.5t9 -15.5z" />
    <glyph glyph-name="hyphen" unicode="-" horiz-adv-x="416" 
d="M75 297v56h266v-56h-266z" />
    <glyph glyph-name="period" unicode="." horiz-adv-x="244" 
d="M167 39q0 -19 -13 -32t-32 -13t-32 13t-13 32t13 32t32 13t32 -13t13 -32z" />
    <glyph glyph-name="slash" unicode="/" horiz-adv-x="449" 
d="M65 -193l-56 19l339 969l55 -19z" />
    <glyph glyph-name="zero" unicode="0" horiz-adv-x="584" 
d="M519 362q0 -74 -12.5 -141.5t-40 -118.5t-70.5 -81.5t-104 -30.5t-104 30.5t-70.5 81.5t-40 118.5t-12.5 141.5t12.5 141.5t40 118.5t70.5 81.5t104 30.5t104 -30.5t70.5 -81.5t40 -118.5t12.5 -141.5zM459 362q0 64 -9 122t-29 102.5t-52 71t-77 26.5t-77 -26.5t-52 -71
t-29 -102.5t-9 -122t9 -122t29 -102.5t52 -70.5t77 -26t77 26t52 70.5t29 102.5t9 122z" />
    <glyph glyph-name="one" unicode="1" horiz-adv-x="584" 
d="M330 0v647q-18 -14 -43.5 -26.5t-54.5 -23.5t-61 -20t-63 -15l-10 49q34 6 68.5 16t67 24.5t60.5 32.5t49 40h48v-724h-61z" />
    <glyph glyph-name="two" unicode="2" horiz-adv-x="584" 
d="M26 0l308 353q17 20 33.5 40.5t29 43t20.5 46.5t8 50q0 70 -48.5 110t-138.5 40q-38 0 -79.5 -9.5t-73.5 -23.5l-23 47q38 17 84 27t94 10q116 0 181.5 -53.5t65.5 -145.5q0 -32 -9.5 -61t-25 -55.5t-34.5 -51t-38 -45.5l-243 -270h368v-52h-479z" />
    <glyph glyph-name="three" unicode="3" horiz-adv-x="584" 
d="M495 202q0 -48 -18 -87t-51.5 -66.5t-81 -43t-107.5 -15.5q-50 0 -99 10t-87 27l21 49q31 -14 75 -24t89 -10t81.5 11t62.5 32t40.5 50.5t14.5 66.5q0 40 -18.5 70.5t-50 50t-74 29.5t-91.5 10h-23v46q45 3 86 15t72 32t49 47t18 60q0 60 -43.5 90.5t-115.5 30.5
q-38 0 -79 -9t-74 -24l-22 47q36 17 82.5 27t96.5 10q100 0 157.5 -45.5t57.5 -124.5q0 -34 -14.5 -61.5t-37 -49t-50.5 -36t-55 -21.5v-2q29 -5 62.5 -17.5t61.5 -35t46.5 -56.5t18.5 -83z" />
    <glyph glyph-name="four" unicode="4" horiz-adv-x="584" 
d="M447 192v-192h-56v192h-341v46l331 486h66v-487h83v-45h-83zM393 669q-3 -6 -16 -29.5t-33 -53.5l-237 -349h285v337q0 35 1.5 61.5t1.5 33.5h-2z" />
    <glyph glyph-name="five" unicode="5" horiz-adv-x="584" 
d="M499 209q0 -50 -19 -90t-53.5 -69t-82.5 -44.5t-106 -15.5q-49 0 -97.5 10t-85.5 27l21 49q32 -15 75.5 -24.5t85.5 -9.5q45 0 82 11.5t64 33t41.5 52.5t14.5 69q0 40 -13.5 72t-42 54.5t-72.5 34.5t-106 12q-24 0 -51 -2t-57 -6l39 351h351v-52h-299l-28 -246q34 3 66 3
q131 0 202 -57t71 -163z" />
    <glyph glyph-name="six" unicode="6" horiz-adv-x="584" 
d="M523 211q0 -44 -16.5 -83.5t-46 -70.5t-71 -49t-92.5 -18q-58 0 -101.5 21.5t-72.5 58t-43.5 85.5t-14.5 104q0 73 24.5 146.5t72.5 138t118 114.5t161 76l18 -50q-62 -18 -112.5 -47.5t-89.5 -67.5t-66.5 -82t-43.5 -91q27 13 65.5 21.5t73.5 8.5q52 0 95.5 -14
t75 -41.5t49 -67.5t17.5 -92zM463 210q0 42 -13.5 73.5t-38 53t-58 32t-72.5 10.5q-17 0 -37 -3t-40 -7.5t-38.5 -10.5t-32.5 -13q-5 -22 -7.5 -43.5t-2.5 -42.5q0 -46 11 -86t33 -69.5t54.5 -46.5t75.5 -17q37 0 68 14t52.5 37.5t33.5 54t12 64.5z" />
    <glyph glyph-name="seven" unicode="7" horiz-adv-x="584" 
d="M187 0h-68l327 672h-393v52h479z" />
    <glyph glyph-name="eight" unicode="8" horiz-adv-x="584" 
d="M521 172q0 -42 -17 -75.5t-48 -57t-73 -36.5t-91 -13q-50 0 -91.5 12.5t-72.5 36.5t-48 57.5t-17 75.5t15 73.5t39.5 55.5t56 42t64.5 33q-30 13 -58 30t-49.5 39.5t-34 51t-12.5 64.5q0 38 15 69.5t42 54.5t65.5 36t85.5 13t85.5 -13t65.5 -36t42 -55t15 -69
q0 -36 -12.5 -64.5t-34 -51t-49.5 -39.5t-58 -30q33 -15 64.5 -33t56 -42t39.5 -55.5t15 -73.5zM442 561q0 54 -39.5 90t-110.5 36t-110.5 -36t-39.5 -90q0 -31 12.5 -55t33 -43t47.5 -34t57 -28q30 13 57 28t47.5 34t33 43t12.5 55zM462 173q0 36 -14 63t-37.5 48t-54.5 37
t-64 30q-33 -14 -64 -30t-54.5 -37t-37.5 -48t-14 -63q0 -31 12.5 -56t35 -42.5t53.5 -27t69 -9.5q37 0 68.5 9.5t54 27t35 42.5t12.5 56z" />
    <glyph glyph-name="nine" unicode="9" horiz-adv-x="584" 
d="M519 465q0 -73 -24.5 -146.5t-72.5 -138t-118 -114.5t-161 -76l-18 50q62 18 112.5 47.5t89.5 67.5t66.5 82t43.5 91q-27 -13 -65.5 -21.5t-73.5 -8.5q-52 0 -95.5 14t-75 41.5t-49 67.5t-17.5 92q0 43 16.5 83t46 71t71 49t92.5 18q58 0 101.5 -21.5t72.5 -58
t43.5 -85.5t14.5 -104zM461 465q0 46 -11 86t-33 69.5t-54.5 46.5t-75.5 17q-38 0 -68.5 -14t-52 -37.5t-33.5 -54t-12 -64.5q0 -42 13.5 -73.5t38 -52.5t58 -31.5t72.5 -10.5q17 0 37 2.5t40 7t38.5 10.5t32.5 13q5 22 7.5 43.5t2.5 42.5z" />
    <glyph glyph-name="colon" unicode=":" horiz-adv-x="272" 
d="M181 361q0 -19 -13 -32t-32 -13t-32 13t-13 32t13 32t32 13t32 -13t13 -32zM181 39q0 -19 -13 -32t-32 -13t-32 13t-13 32t13 32t32 13t32 -13t13 -32z" />
    <glyph glyph-name="semicolon" unicode=";" horiz-adv-x="272" 
d="M182 361q0 -19 -13 -32t-32 -13t-32 13t-13 32t13 32t32 13t32 -13t13 -32zM74 -169h-46l84 231q7 10 17 16t24 6t21.5 -6.5t9.5 -15.5z" />
    <glyph glyph-name="less" unicode="&#x3c;" horiz-adv-x="573" 
d="M76 304v42l421 207v-59l-361 -169l361 -169v-59z" />
    <glyph glyph-name="equal" unicode="=" horiz-adv-x="573" 
d="M76 397v51h421v-51h-421zM76 202v51h421v-51h-421z" />
    <glyph glyph-name="greater" unicode="&#x3e;" horiz-adv-x="573" 
d="M76 97v59l362 169l-362 169v59l421 -207v-42z" />
    <glyph glyph-name="question" unicode="?" horiz-adv-x="467" 
d="M415 556q0 -38 -16.5 -69t-42 -55t-56 -41t-58.5 -26l-4 -141h-50l-5 174q31 8 61.5 22t54.5 33.5t38.5 45t14.5 55.5q0 60 -38.5 94t-114.5 34q-38 0 -77.5 -9t-65.5 -23l-22 47q30 16 76 26.5t93 10.5q103 0 157.5 -48.5t54.5 -129.5zM258 39q0 -19 -13 -32t-32 -13
t-32 13t-13 32t13 32t32 13t32 -13t13 -32z" />
    <glyph glyph-name="at" unicode="@" horiz-adv-x="1035" 
d="M969 335q0 -89 -27 -154t-74.5 -107.5t-111.5 -63t-138 -20.5q-145 0 -225 69.5t-80 203.5q0 60 16.5 108t47.5 82t74.5 52.5t96.5 18.5q54 0 90.5 -15t58.5 -33v-431q103 22 160 93t57 197q0 69 -21 132.5t-66 112t-115 77.5t-169 29q-100 0 -178.5 -34t-132.5 -93
t-82.5 -137.5t-28.5 -168.5q0 -89 29 -167.5t88 -137t148.5 -92t210.5 -33.5q100 0 179 26.5t133 64.5l27 -41q-58 -42 -141.5 -70t-197.5 -28q-132 0 -231.5 37.5t-166 102t-100 152t-33.5 186.5t32.5 186.5t94 153t150 103.5t200.5 38q111 0 191.5 -33t132.5 -88.5
t77 -127.5t25 -150zM643 453q-13 8 -39.5 16t-56.5 8q-82 0 -130.5 -56.5t-48.5 -157.5q0 -115 66.5 -170t181.5 -55q10 0 18 0.5t9 0.5v414z" />
    <glyph glyph-name="A" unicode="A" horiz-adv-x="653" 
d="M562 0l-82 231h-306l-83 -231h-64l265 724h69l265 -724h-64zM351 592q-10 29 -16 51.5t-8 30.5h-2q-2 -10 -8.5 -35t-14.5 -47l-112 -313h272z" />
    <glyph glyph-name="B" unicode="B" horiz-adv-x="603" 
d="M546 190q0 -94 -70 -147t-196 -53q-25 0 -52 3t-53 8t-49 11.5t-39 14.5v670q34 16 84 26.5t105 10.5q118 0 180.5 -50.5t62.5 -133.5q0 -38 -12 -67t-30.5 -50t-41 -34.5t-43.5 -18.5v-2q24 -5 51 -18t50 -35.5t38 -55.5t15 -79zM460 547q0 65 -49 101t-135 36
q-38 0 -73 -6t-57 -15v-265h113q29 0 50 1.5t37.5 5t30.5 9.5t28 16q25 17 40 48.5t15 68.5zM485 192q0 93 -77 132q-15 7 -29 12t-30.5 8t-37 4.5t-47.5 1.5h-118v-289q24 -9 61.5 -15t72.5 -6q98 0 151.5 40t53.5 112z" />
    <glyph glyph-name="C" unicode="C" horiz-adv-x="548" 
d="M496 27q-65 -37 -153 -37q-57 0 -108 22.5t-89.5 68.5t-61 116t-22.5 165t22.5 165t61 116t89.5 68.5t108 22.5q88 0 153 -37l-21 -50q-26 16 -58 24.5t-70 8.5q-45 0 -85.5 -19t-70.5 -58t-48 -99t-18 -142q0 -83 18 -142.5t48 -98.5t70.5 -57.5t85.5 -18.5q75 0 128 32
z" />
    <glyph glyph-name="D" unicode="D" horiz-adv-x="638" 
d="M577 362q0 -95 -24 -164.5t-66 -116t-98.5 -69t-120.5 -22.5q-57 0 -106 11t-77 26v670q33 17 80.5 27t102.5 10q64 0 120.5 -22.5t98.5 -69t66 -116.5t24 -164zM515 362q0 83 -19.5 143.5t-53 99.5t-78.5 57.5t-95 18.5q-36 0 -69.5 -5.5t-53.5 -14.5v-598q17 -8 50 -14
t73 -6q50 0 95 18.5t78.5 57.5t53 99.5t19.5 143.5z" />
    <glyph glyph-name="E" unicode="E" horiz-adv-x="507" 
d="M85 0v724h370v-53h-310v-270h287v-53h-287v-295h310v-53h-370z" />
    <glyph glyph-name="F" unicode="F" horiz-adv-x="492" 
d="M145 671v-270h279v-53h-279v-348h-60v724h361v-53h-301z" />
    <glyph glyph-name="G" unicode="G" horiz-adv-x="647" 
d="M566 27q-26 -15 -74.5 -26t-114.5 -11q-65 0 -122 23t-100 69.5t-68 116.5t-25 163t25.5 163t69 116.5t101 69.5t122.5 23q54 0 99.5 -10t71.5 -27l-22 -49q-22 14 -61 23.5t-87 9.5q-51 0 -97.5 -19t-82.5 -58t-57 -99.5t-21 -142.5q0 -83 21 -143t55.5 -99t80 -58
t95.5 -19q45 0 81.5 6.5t50.5 14.5v286h-174v51h233v-374z" />
    <glyph glyph-name="H" unicode="H" horiz-adv-x="639" 
d="M493 0v348h-347v-348h-61v724h61v-323h347v323h61v-724h-61z" />
    <glyph glyph-name="I" unicode="I" horiz-adv-x="235" 
d="M87 0v724h61v-724h-61z" />
    <glyph glyph-name="J" unicode="J" horiz-adv-x="235" 
d="M148 80q0 -66 -15 -116.5t-43.5 -86.5t-69 -59.5t-91.5 -35.5v55q37 12 66 31.5t49.5 49t31.5 69.5t11 93v644h61v-644z" />
    <glyph glyph-name="K" unicode="K" horiz-adv-x="561" 
d="M468 0l-318 376h-2v-376h-61v724h61v-338h2l311 338h74l-316 -343l323 -381h-74z" />
    <glyph glyph-name="L" unicode="L" horiz-adv-x="478" 
d="M87 0v724h61v-671h294v-53h-355z" />
    <glyph glyph-name="M" unicode="M" horiz-adv-x="867" 
d="M749 0l-77 580q-4 29 -5.5 51.5t-2.5 32.5h-2q-2 -11 -8 -33.5t-14 -49.5l-180 -581h-53l-180 581q-3 10 -6.5 22t-6.5 23.5t-5.5 21.5t-3.5 16h-2q-1 -11 -3 -35t-5 -49l-76 -580h-59l99 724h77l176 -563q7 -23 12.5 -46t8.5 -39h2q1 3 3 12.5t4.5 21.5t6 25.5t7.5 25.5
l175 563h77l99 -724h-58z" />
    <glyph glyph-name="N" unicode="N" horiz-adv-x="696" 
d="M546 0l-364 577q-15 24 -26 46.5t-15 30.5h-2q0 -4 1 -30t1 -56v-568h-56v724h68l359 -568q14 -23 25.5 -45t16.5 -31h2q0 5 -0.5 30.5t-0.5 56.5v557h56v-724h-65z" />
    <glyph glyph-name="O" unicode="O" horiz-adv-x="676" 
d="M614 362q0 -77 -17.5 -144.5t-52 -118t-86.5 -80t-120 -29.5t-120 29.5t-86.5 80t-52 118t-17.5 144.5q0 76 17.5 144t52 118.5t86.5 80t120 29.5t120 -29.5t86.5 -80t52 -118.5t17.5 -144zM553 362q0 66 -14 123.5t-41 101t-67 68.5t-93 25t-93 -25t-67 -68.5t-41 -101
t-14 -123.5t14 -123.5t41 -101t67 -68.5t93 -25t93 25t67 68.5t41 101t14 123.5z" />
    <glyph glyph-name="P" unicode="P" horiz-adv-x="560" 
d="M515 519q0 -47 -18 -86t-53.5 -67.5t-87 -44.5t-117.5 -16q-25 0 -50.5 2t-42.5 5v-312h-61v697q35 17 82 27t99 10q120 0 184.5 -57.5t64.5 -157.5zM454 519q0 80 -48.5 122t-139.5 42q-36 0 -68 -5.5t-52 -14.5v-300q17 -3 42 -5t50 -2q105 0 160.5 44.5t55.5 118.5z
" />
    <glyph glyph-name="Q" unicode="Q" horiz-adv-x="676" 
d="M567 -183l-135 193q-43 -20 -96 -20q-68 0 -119.5 29.5t-86 80t-51.5 118t-17 144.5q0 76 17 144t51.5 118.5t86 80t119.5 29.5t120 -29.5t87 -80t53 -118.5t18 -144q0 -106 -33.5 -192.5t-99.5 -134.5l133 -181zM553 362q0 66 -14 123.5t-41.5 101t-68 68.5t-93.5 25
t-93 -25t-66.5 -68.5t-40 -101t-13.5 -123.5t13.5 -123.5t40 -101t66.5 -68.5t93 -25t93.5 25t68 68.5t41.5 101t14 123.5z" />
    <glyph glyph-name="R" unicode="R" horiz-adv-x="595" 
d="M487 0l-124 242q-22 43 -52.5 65t-80.5 22h-83v-329h-60v696q36 17 85 27.5t100 10.5q61 0 107.5 -15t77.5 -41.5t46.5 -62.5t15.5 -79q0 -45 -13 -78t-37 -56t-57 -36.5t-72 -19.5v-2q27 -12 47.5 -36.5t37.5 -57.5l129 -250h-67zM459 534q0 67 -46 108.5t-140 41.5
q-35 0 -69.5 -6t-56.5 -15v-285h103q48 0 86.5 8t66 26.5t42 48t14.5 73.5z" />
    <glyph glyph-name="S" unicode="S" horiz-adv-x="522" 
d="M461 190q0 -47 -18 -84t-49.5 -63t-75.5 -39.5t-96 -13.5q-92 0 -169 37l23 52q66 -34 145 -34q39 0 71.5 9.5t56 28t37 45t13.5 61.5q0 45 -25 73.5t-63 50t-81.5 40t-81.5 43t-63 60t-25 90.5q0 44 16.5 79t45.5 59t68.5 37t86.5 13q86 0 154 -37l-23 -50
q-29 16 -60.5 24.5t-69.5 8.5q-34 0 -63 -9t-50 -25.5t-32.5 -41.5t-11.5 -56q0 -44 25 -72t63 -49t82 -39.5t82 -43.5t63 -61.5t25 -92.5z" />
    <glyph glyph-name="T" unicode="T" horiz-adv-x="512" 
d="M287 671v-671h-61v671h-193v53h446v-53h-192z" />
    <glyph glyph-name="U" unicode="U" horiz-adv-x="628" 
d="M543 204q0 -50 -18 -89.5t-48.5 -67.5t-72.5 -42.5t-90 -14.5t-90 14.5t-72.5 42.5t-48.5 67.5t-18 89.5v520h61v-520q0 -38 13 -67.5t36 -50t53.5 -31.5t65.5 -11t65.5 11t53.5 31.5t36 50t13 67.5v520h61v-520z" />
    <glyph glyph-name="V" unicode="V" horiz-adv-x="610" 
d="M338 0h-66l-239 724h66l179 -566q11 -32 17.5 -60.5t8.5 -34.5h2q0 1 2.5 10t6 22.5t8 30t9.5 32.5l179 566h66z" />
    <glyph glyph-name="W" unicode="W" horiz-adv-x="906" 
d="M676 0h-64l-140 555q-6 25 -11 52t-7 43h-2q-1 -6 -2.5 -17t-4 -24.5t-5.5 -27.5t-6 -26l-140 -555h-64l-185 724h62l137 -560q3 -14 6.5 -28.5t6 -28t4 -24t2.5 -15.5h2q2 11 6.5 39t12.5 57l140 560h58l140 -560q3 -13 6.5 -27.5t6 -28t4 -24.5t2.5 -16h2q2 10 7 38.5
t12 57.5l137 560h62z" />
    <glyph glyph-name="X" unicode="X" horiz-adv-x="579" 
d="M479 0l-189 325h-2l-189 -325h-67l221 374l-207 350h67l175 -300h2l175 300h67l-207 -350l222 -374h-68z" />
    <glyph glyph-name="Y" unicode="Y" horiz-adv-x="597" 
d="M329 293v-293h-61v293l-238 431h67l200 -369h2l200 369h68z" />
    <glyph glyph-name="Z" unicode="Z" horiz-adv-x="515" 
d="M33 0l341 671h-324v53h413l-340 -671h344v-53h-434z" />
    <glyph glyph-name="bracketleft" unicode="[" horiz-adv-x="357" 
d="M95 -195v980h205v-49h-147v-882h147v-49h-205z" />
    <glyph glyph-name="backslash" unicode="\" horiz-adv-x="449" 
d="M384 -193l-338 969l56 19l338 -969z" />
    <glyph glyph-name="bracketright" unicode="]" horiz-adv-x="357" 
d="M57 -195v49h147v882h-147v49h205v-980h-205z" />
    <glyph glyph-name="asciicircum" unicode="^" horiz-adv-x="573" 
d="M440 451l-154 185l-153 -185l-39 33l161 193q6 8 13 12t18 4t18 -4t14 -12l161 -193z" />
    <glyph glyph-name="underscore" unicode="_" horiz-adv-x="583" 
d="M-4 -191v48h591v-48h-591z" />
    <glyph glyph-name="grave" unicode="`" horiz-adv-x="294" 
d="M144 603l-96 131q6 19 29 19q10 0 21 -4.5t19 -14.5l75 -131h-48z" />
    <glyph glyph-name="a" unicode="a" horiz-adv-x="523" 
d="M444 27q-14 -8 -34 -14.5t-44 -11.5t-50 -8t-51 -3q-106 0 -159.5 43.5t-53.5 117.5q0 59 29.5 94t77 54.5t107.5 27t121 10.5v47q0 34 -11 57t-29.5 36.5t-44.5 19t-56 5.5q-38 0 -78 -10t-66 -24l-18 44q15 7 34 13.5t40.5 12t45 8.5t46.5 3q42 0 78 -9t61.5 -29
t40 -52.5t14.5 -78.5v-353zM387 292q-48 -3 -97.5 -7.5t-89.5 -18t-65.5 -40.5t-25.5 -74q0 -52 38 -83.5t117 -31.5q35 0 70.5 6t52.5 14v235z" />
    <glyph glyph-name="b" unicode="b" horiz-adv-x="549" 
d="M492 278q0 -77 -19.5 -131.5t-53.5 -89t-80 -51t-99 -16.5q-46 0 -88.5 10.5t-72.5 26.5v758h59v-263q23 11 55 18t66 7q52 0 95 -18.5t73.5 -53.5t47.5 -85t17 -112zM433 275q0 52 -13 93.5t-37 70t-57 44t-73 15.5q-31 0 -62.5 -6.5t-52.5 -17.5v-414q16 -8 44 -14.5
t60 -6.5q39 0 74 12.5t61 41t41 73t15 109.5z" />
    <glyph glyph-name="c" unicode="c" horiz-adv-x="461" 
d="M413 27q-54 -37 -128 -37q-41 0 -81.5 15.5t-73 49t-52.5 87t-20 128.5t20 128t52.5 86.5t73 49t81.5 15.5q74 0 128 -37l-21 -44q-21 14 -47 22.5t-56 8.5q-31 0 -61.5 -12t-55 -39t-39.5 -71t-15 -107t15.5 -107t40 -71t55 -39t60.5 -12t56 8.5t47 22.5z" />
    <glyph glyph-name="d" unicode="d" horiz-adv-x="549" 
d="M470 27q-22 -14 -67.5 -25.5t-94.5 -11.5q-60 0 -106.5 19.5t-78.5 55t-48.5 85.5t-16.5 111t16.5 113t48 90t77.5 59t106 21q32 0 60.5 -5t44.5 -11v257h59v-758zM411 480q-14 5 -44 10t-58 5q-47 0 -83 -17.5t-60 -48.5t-36.5 -74t-12.5 -93t12.5 -91t36.5 -70.5
t59.5 -45.5t81.5 -16q29 0 60 6.5t44 14.5v420z" />
    <glyph glyph-name="e" unicode="e" horiz-adv-x="552" 
d="M494 310q0 -7 -1 -16l-378 -56q6 -100 58 -149.5t138 -49.5q41 0 80.5 9.5t65.5 24.5l20 -46q-27 -16 -72 -26.5t-96 -10.5q-116 0 -183.5 71t-67.5 209q0 62 16 113.5t45.5 88t71.5 57t95 20.5q94 0 151 -58t57 -165v-16zM437 330q-1 88 -42 130t-109 42
q-40 0 -71.5 -15.5t-54 -44.5t-35 -69.5t-13.5 -89.5z" />
    <glyph glyph-name="f" unicode="f" horiz-adv-x="340" 
d="M303 736q-54 0 -91 -28.5t-37 -90.5v-78h126v-45h-126v-494h-57v494h-80v45h80v78q0 42 14 74t38 53t56.5 31.5t69.5 10.5q5 0 9 -0.5t6 -0.5v-49h-8z" />
    <glyph glyph-name="g" unicode="g" horiz-adv-x="549" 
d="M470 -6q0 -104 -55.5 -161.5t-158.5 -57.5q-48 0 -94.5 12t-75.5 27l21 47q26 -14 65.5 -24.5t80.5 -10.5q79 0 119 43.5t40 124.5v52q-23 -11 -56 -18.5t-67 -7.5q-51 0 -93 17t-73 49.5t-48 80.5t-17 110q0 72 19.5 123.5t53.5 84.5t79.5 48.5t98.5 15.5q47 0 89 -10
t72 -27v-518zM412 480q-16 8 -44.5 14t-60.5 6q-39 0 -73.5 -12t-60.5 -38.5t-41 -69t-15 -102.5q0 -52 13.5 -91t37.5 -65.5t56.5 -39.5t71.5 -13q31 0 63 6.5t53 17.5v387z" />
    <glyph glyph-name="h" unicode="h" horiz-adv-x="554" 
d="M416 0v368q0 66 -40.5 98t-109.5 32q-33 0 -67.5 -9.5t-60.5 -25.5v-463h-59v785h59v-272q28 15 64 25t72 10q93 0 147 -45t54 -132v-371h-59z" />
    <glyph glyph-name="i" unicode="i" horiz-adv-x="227" 
d="M155 700q0 -17 -12 -29t-29 -12t-29.5 12t-12.5 29t12.5 29t29.5 12t29 -12t12 -29zM84 0v539h59v-539h-59z" />
    <glyph glyph-name="j" unicode="j" horiz-adv-x="227" 
d="M155 700q0 -17 -12 -29t-29 -12t-29.5 12t-12.5 29t12.5 29t29.5 12t29 -12t12 -29zM143 51q0 -63 -16 -110t-43.5 -80t-63 -53t-74.5 -29v53q28 9 53 26.5t44 44.5t30 63.5t11 84.5v488h59v-488z" />
    <glyph glyph-name="k" unicode="k" horiz-adv-x="505" 
d="M414 0l-272 279h-2v-279h-57v785h57v-498h2l259 252h74l-264 -257l277 -282h-74z" />
    <glyph glyph-name="l" unicode="l" horiz-adv-x="227" 
d="M84 0v785h59v-785h-59z" />
    <glyph glyph-name="m" unicode="m" horiz-adv-x="860" 
d="M722 0v377q0 59 -36.5 91t-92.5 32q-44 0 -77.5 -14t-55.5 -40v-446h-59v393q0 50 -39.5 78.5t-102.5 28.5q-36 0 -67 -6t-54 -16v-478h-59v512q38 17 83.5 27t95.5 10q62 0 105 -19.5t64 -46.5q25 25 69.5 45.5t104.5 20.5q40 0 73 -12t57 -33.5t37 -53t13 -70.5v-380
h-59z" />
    <glyph glyph-name="n" unicode="n" horiz-adv-x="554" 
d="M416 0v368q0 60 -36.5 96t-110.5 36q-41 0 -74.5 -6.5t-56.5 -15.5v-478h-59v512q37 17 85.5 27t104.5 10q101 0 153.5 -47t52.5 -131v-371h-59z" />
    <glyph glyph-name="o" unicode="o" horiz-adv-x="560" 
d="M502 270q0 -60 -14 -111t-42 -88.5t-69.5 -59t-96.5 -21.5t-96.5 21.5t-69.5 59t-42 88.5t-14 111t14 111t42 88.5t69.5 58.5t96.5 21t96.5 -21t69.5 -58.5t42 -88.5t14 -111zM443 270q0 49 -10 91.5t-30 73t-50.5 48t-72.5 17.5t-72.5 -17.5t-50.5 -48t-30 -73
t-10 -91.5q0 -50 10 -92t30 -72.5t50.5 -48t72.5 -17.5t72.5 17.5t50.5 48t30 72.5t10 92z" />
    <glyph glyph-name="p" unicode="p" horiz-adv-x="549" 
d="M492 277q0 -62 -16.5 -114t-48.5 -89.5t-78 -59t-106 -21.5q-32 0 -60.5 5t-44.5 11v-224h-59v727q25 14 70 25.5t92 11.5q60 0 106.5 -19.5t78.5 -55.5t49 -86t17 -111zM433 277q0 50 -12.5 91t-37 70.5t-60 45.5t-81.5 16q-31 0 -60.5 -6t-43.5 -14v-422
q14 -5 44 -10.5t58 -5.5q47 0 83 18t60.5 49.5t37 74.5t12.5 93z" />
    <glyph glyph-name="q" unicode="q" horiz-adv-x="549" 
d="M411 -215v232q-23 -11 -55 -18t-66 -7q-52 0 -95 18.5t-73.5 53.5t-47 85t-16.5 112q0 76 19 131t53 89.5t80 51t99 16.5q46 0 88.5 -10.5t72.5 -26.5v-727h-59zM411 480q-16 8 -44 14t-60 6q-39 0 -74 -12.5t-60.5 -41t-40.5 -73.5t-15 -109q0 -105 49 -164t130 -59
q31 0 62.5 7t52.5 18v414z" />
    <glyph glyph-name="r" unicode="r" horiz-adv-x="344" 
d="M298 496q-18 3 -40 3q-32 0 -65.5 -5.5t-54.5 -15.5v-478h-59v512q34 17 84.5 27t101.5 10q17 0 29.5 -0.5t16.5 -1.5z" />
    <glyph glyph-name="s" unicode="s" horiz-adv-x="448" 
d="M393 138q0 -67 -51 -107.5t-141 -40.5q-40 0 -79.5 9.5t-74.5 27.5l23 46q27 -15 61.5 -24.5t68.5 -9.5q60 0 96 27t36 73q0 24 -9 41.5t-25.5 30.5t-39 23t-48.5 20q-30 11 -57 24t-47.5 30.5t-32.5 42t-12 59.5q0 29 11.5 54.5t33 44t53.5 29.5t73 11q40 0 76.5 -9.5
t65.5 -27.5l-23 -44q-23 15 -52 24t-63 9q-55 0 -85 -26.5t-30 -64.5q0 -24 9 -41t25 -29.5t37 -22t45 -18.5q31 -12 59.5 -25t50 -31t34 -43t12.5 -62z" />
    <glyph glyph-name="t" unicode="t" horiz-adv-x="338" 
d="M297 1q-14 -6 -42 -6q-60 0 -98.5 33t-38.5 102v364h-84v45h84v134l57 22v-156h122v-45h-122v-362q0 -45 26.5 -65t62.5 -20q20 0 33 5v-51z" />
    <glyph glyph-name="u" unicode="u" horiz-adv-x="545" 
d="M466 27q-29 -15 -79.5 -26t-108.5 -11q-96 0 -147.5 45t-51.5 139v365h59v-366q0 -133 140 -133q42 0 76.5 7t52.5 15v477h59v-512z" />
    <glyph glyph-name="v" unicode="v" horiz-adv-x="537" 
d="M302 0h-67l-199 539h64l144 -405q10 -27 15 -47t8 -31h2q1 4 3.5 13.5t6 21t7.5 23t7 20.5l144 405h64z" />
    <glyph glyph-name="w" unicode="w" horiz-adv-x="820" 
d="M610 0h-60l-122 407q-3 9 -8 30.5t-9 41.5h-2q-2 -12 -6.5 -32t-10.5 -40l-122 -407h-60l-167 539h59l120 -405q6 -21 10.5 -44.5t6.5 -33.5h2q2 8 7 31.5t12 46.5l120 405h60l120 -405q8 -26 12.5 -48t6.5 -30h2q2 8 6 30t12 48l119 405h59z" />
    <glyph glyph-name="x" unicode="x" horiz-adv-x="503" 
d="M406 0l-154 237h-2l-153 -237h-67l186 280l-172 259h67l139 -217h2l140 217h67l-172 -259l186 -280h-67z" />
    <glyph glyph-name="y" unicode="y" horiz-adv-x="537" 
d="M219 -215h-61l81 215l-203 539h64l148 -417q7 -20 11.5 -38t7.5 -34h2q2 10 7 29.5t13 42.5l148 417h64z" />
    <glyph glyph-name="z" unicode="z" horiz-adv-x="458" 
d="M35 0l279 489h-264v50h353l-278 -489h287v-50h-377z" />
    <glyph glyph-name="braceleft" unicode="{" horiz-adv-x="358" 
d="M262 -195q-71 0 -110.5 40.5t-39.5 113.5q0 35 3 58t6.5 43t6.5 41.5t3 53.5q0 51 -23 80.5t-63 33.5v52q40 4 63 33.5t23 80.5q0 32 -3 53.5t-6.5 41.5t-6.5 43t-3 58q0 73 39.5 113.5t110.5 40.5h28v-49h-24q-46 0 -71 -27t-25 -78q0 -35 3 -58t6.5 -43t6.5 -41.5
t3 -53.5q0 -57 -23.5 -91.5t-60.5 -47.5v-2q37 -13 60.5 -47.5t23.5 -91.5q0 -32 -3 -53.5t-6.5 -41.5t-6.5 -43t-3 -58q0 -51 25 -78t71 -27h24v-49h-28z" />
    <glyph glyph-name="bar" unicode="|" horiz-adv-x="228" 
d="M85 -215v1000h59v-1000h-59z" />
    <glyph glyph-name="braceright" unicode="}" horiz-adv-x="358" 
d="M313 269q-40 -4 -63 -33.5t-23 -80.5q0 -32 3 -53.5t6.5 -41.5t6.5 -43t3 -58q0 -73 -39.5 -113.5t-110.5 -40.5h-28v49h24q46 0 71 27t25 78q0 35 -3 58t-6.5 43t-6.5 41.5t-3 53.5q0 57 23.5 91.5t60.5 47.5v2q-37 13 -60.5 47.5t-23.5 91.5q0 32 3 53.5t6.5 41.5
t6.5 43t3 58q0 51 -25 78t-71 27h-24v49h28q71 0 110.5 -40.5t39.5 -113.5q0 -35 -3 -58t-6.5 -43t-6.5 -41.5t-3 -53.5q0 -51 23 -80.5t63 -33.5v-52z" />
    <glyph glyph-name="asciitilde" unicode="~" horiz-adv-x="573" 
d="M488 391q-13 -39 -42 -62.5t-71 -23.5q-27 0 -49 9.5t-41.5 21t-39.5 21t-42 9.5q-30 0 -50.5 -17t-31.5 -44l-36 27q13 39 42 62.5t71 23.5q27 0 48.5 -9.5t41.5 -21.5t39 -21.5t42 -9.5q30 0 51 17t32 44z" />
    <glyph glyph-name="uni00A0" unicode="&#xa0;" horiz-adv-x="282" 
 />
    <glyph glyph-name="exclamdown" unicode="&#xa1;" horiz-adv-x="266" 
d="M178 470q0 -19 -13 -32t-32 -13t-32 13t-13 32t13 32t32 13t32 -13t13 -32zM99 -215l9 500h51l9 -500h-69z" />
    <glyph glyph-name="cent" unicode="&#xa2;" horiz-adv-x="481" 
d="M427 166q-23 -14 -53.5 -23t-63.5 -11l7 -132h-53l7 133q-38 4 -73.5 21t-64 48.5t-45.5 79t-17 112.5t17 112t45.5 78.5t64 48.5t73.5 21l-7 131h53l-7 -129q33 -2 63.5 -11.5t53.5 -23.5l-22 -43q-20 13 -47 21t-56 8q-31 0 -61.5 -11t-54.5 -36t-39 -65.5t-15 -99.5
t15 -100t39.5 -66.5t55 -36.5t60.5 -11q29 0 56 8t47 21z" />
    <glyph glyph-name="sterling" unicode="&#xa3;" horiz-adv-x="650" 
d="M75 0q26 26 53 56.5t48.5 65.5t35.5 73.5t14 80.5q0 30 -4 51.5t-10 39.5h-113v48h98q-9 24 -16.5 51.5t-7.5 69.5q0 45 16.5 81.5t47 62.5t73 40t95.5 14q48 0 89 -11t68 -26l-22 -47q-20 12 -56 21.5t-75 9.5q-81 0 -128.5 -40t-47.5 -107q0 -41 7.5 -67.5t16.5 -51.5
h215v-48h-201q5 -18 8.5 -40t3.5 -51q0 -35 -9.5 -68t-24.5 -61.5t-33 -52.5t-34 -41h383v-53h-490z" />
    <glyph glyph-name="currency" unicode="&#xa4;" horiz-adv-x="671" 
d="M559 40l-98 107q-24 -23 -56 -35t-70 -12q-75 0 -125 47l-98 -107l-41 35l102 112q-38 58 -38 138t38 138l-102 112l41 36l98 -108q50 47 125 47q76 0 126 -47l98 108l41 -36l-102 -112q38 -58 38 -138t-38 -138l102 -112zM482 325q0 37 -9.5 69t-28.5 56t-46 38t-63 14
t-63 -14t-45.5 -38t-28 -56t-9.5 -69t9.5 -69t28 -56t45.5 -37.5t63 -13.5t63 13.5t46 37.5t28.5 56t9.5 69z" />
    <glyph glyph-name="yen" unicode="&#xa5;" horiz-adv-x="686" 
d="M470 469h130v-40h-152l-75 -132h227v-40h-227v-257h-60v257h-227v40h227l-75 132h-152v40h131l-142 255h67l200 -368h2l200 368h68z" />
    <glyph glyph-name="brokenbar" unicode="&#xa6;" horiz-adv-x="228" 
d="M85 385v400h59v-400h-59zM85 -215v400h59v-400h-59z" />
    <glyph glyph-name="section" unicode="&#xa7;" horiz-adv-x="588" 
d="M515 224q0 -29 -11 -54.5t-28.5 -47t-38.5 -38t-42 -28.5q29 -25 47 -56t18 -73q0 -69 -50 -110.5t-137 -41.5q-40 0 -83.5 10.5t-69.5 26.5l22 47q9 -6 24 -12t32.5 -11t36 -8t34.5 -3q61 0 96.5 27.5t35.5 76.5q0 28 -12 49.5t-32.5 40t-47 34t-54.5 31.5
q-33 18 -65.5 38t-58.5 45t-42 56.5t-16 73.5q0 32 10.5 58.5t27 47.5t37.5 37.5t43 29.5q-23 22 -36.5 48.5t-13.5 61.5q0 36 13.5 64.5t37.5 48.5t57.5 30.5t72.5 10.5q42 0 79 -10.5t63 -26.5l-21 -45q-20 13 -51.5 22.5t-66.5 9.5q-55 0 -90.5 -27t-35.5 -78
q0 -26 11 -46t30.5 -37t45 -32.5t55.5 -31.5q31 -18 62.5 -37t56 -43t40 -55t15.5 -73zM459 221q0 43 -22.5 73.5t-57 54.5t-75 45t-75.5 45q-19 -11 -37 -24.5t-32 -30.5t-22.5 -38t-8.5 -47q0 -41 21.5 -70t54.5 -53t73 -45t76 -45q19 10 38 24.5t34 31.5t24 37t9 42z" />
    <glyph glyph-name="dieresis" unicode="&#xa8;" horiz-adv-x="294" 
d="M274 669q0 -16 -11 -27.5t-28 -11.5t-28 11.5t-11 27.5t11 27t28 11t28 -11t11 -27zM98 669q0 -16 -11 -27.5t-28 -11.5t-28 11.5t-11 27.5t11 27t28 11t28 -11t11 -27z" />
    <glyph glyph-name="copyright" unicode="&#xa9;" horiz-adv-x="878" 
d="M812 362q0 -77 -29 -145t-79.5 -118.5t-118.5 -79.5t-146 -29t-146 29t-118.5 79.5t-79.5 118.5t-29 145t29 145t79.5 118.5t118.5 79.5t146 29t146 -29t118.5 -79.5t79.5 -118.5t29 -145zM764 362q0 68 -25 128t-69 104.5t-103.5 70.5t-127.5 26t-127.5 -26
t-103.5 -70.5t-69 -104.5t-25 -128t25 -128t69 -104.5t103.5 -70.5t127.5 -26t127.5 26t103.5 70.5t69 104.5t25 128zM554 178q-19 -13 -46.5 -21.5t-59.5 -8.5q-38 0 -72.5 13t-60.5 40t-41 67.5t-15 95.5t15 95.5t41 67.5t60.5 40t72.5 13q32 0 59.5 -8t46.5 -21l-20 -37
q-14 9 -36.5 16.5t-48.5 7.5q-27 0 -52.5 -9.5t-45 -30.5t-31.5 -54t-12 -80t12 -80t31.5 -53.5t45 -30t52.5 -9.5q26 0 48.5 7t36.5 16z" />
    <glyph glyph-name="ordfeminine" unicode="&#xaa;" horiz-adv-x="436" 
d="M357 352q-21 -11 -61 -19.5t-80 -8.5q-85 0 -126.5 32t-41.5 87q0 42 22 67.5t58.5 39.5t83 20t95.5 9v32q0 24 -8.5 39.5t-22.5 25t-33.5 13.5t-41.5 4q-29 0 -60.5 -7.5t-51.5 -17.5l-14 37q23 11 59 19t71 8q69 0 110.5 -29t41.5 -98v-253zM307 542q-42 -2 -79.5 -6
t-66.5 -14t-46 -28.5t-17 -49.5q0 -37 30 -59t87 -22q25 0 52 4.5t40 10.5v164z" />
    <glyph glyph-name="guillemotleft" unicode="&#xab;" horiz-adv-x="578" 
d="M459 68l-181 237l181 237l39 -31l-158 -206l158 -206zM251 68l-182 237l182 237l39 -31l-159 -206l159 -206z" />
    <glyph glyph-name="logicalnot" unicode="&#xac;" horiz-adv-x="573" 
d="M443 91v209h-367v50h421v-259h-54z" />
    <glyph glyph-name="uni00AD" unicode="&#xad;" horiz-adv-x="416" 
d="M75 297v56h266v-56h-266z" />
    <glyph glyph-name="registered" unicode="&#xae;" horiz-adv-x="682" 
d="M620 459q0 -58 -21.5 -108.5t-59.5 -88t-89 -59.5t-109 -22q-59 0 -109.5 22t-88.5 59.5t-59.5 88t-21.5 108.5t21.5 108.5t59.5 88t88.5 59.5t109.5 22q58 0 109 -22t89 -59.5t59.5 -88t21.5 -108.5zM578 459q0 50 -18 93.5t-50 76t-75.5 51.5t-93.5 19t-93.5 -19
t-75.5 -51.5t-50.5 -76t-18.5 -93.5t18.5 -93.5t50.5 -76t75.5 -51.5t93.5 -19t93.5 19t75.5 51.5t50 76t18 93.5zM427 306l-57 109q-8 16 -20 22.5t-32 6.5h-34v-138h-39v303q19 9 42.5 13t46.5 4q57 0 88.5 -23t31.5 -65q0 -35 -21 -54.5t-53 -26.5v-2q15 -8 28 -31
l64 -118h-45zM414 537q0 26 -19 40.5t-60 14.5q-14 0 -28 -1.5t-23 -4.5v-109h42q44 0 66 13.5t22 46.5z" />
    <glyph glyph-name="macron" unicode="&#xaf;" horiz-adv-x="294" 
d="M31 637v45h232v-45h-232z" />
    <glyph glyph-name="degree" unicode="&#xb0;" horiz-adv-x="458" 
d="M397 569q0 -34 -13 -64t-35.5 -52.5t-53.5 -35.5t-66 -13t-65.5 13t-53 35.5t-35.5 52.5t-13 64t13 64t35.5 52.5t53 35.5t65.5 13t66 -13t53.5 -35.5t35.5 -52.5t13 -64zM348 569q0 25 -9.5 46.5t-25.5 37.5t-37.5 25.5t-46.5 9.5t-46.5 -9.5t-37.5 -25.5t-25.5 -37.5
t-9.5 -46.5t9.5 -46.5t25.5 -38t37.5 -26t46.5 -9.5t46.5 9.5t37.5 26t25.5 38t9.5 46.5z" />
    <glyph glyph-name="plusminus" unicode="&#xb1;" horiz-adv-x="573" 
d="M313 336v-180h-53v180h-184v48h184v180h53v-180h184v-48h-184zM76 0v49h421v-49h-421z" />
    <glyph glyph-name="twosuperior" unicode="&#xb2;" 
d="M17 500l189 208q21 23 36.5 46.5t15.5 51.5q0 38 -24.5 61.5t-74.5 23.5q-23 0 -51.5 -6t-50.5 -16l-15 38q27 11 58 18t60 7q72 0 109 -35t37 -90q0 -38 -20.5 -69t-43.5 -55l-133 -141h208v-42h-300z" />
    <glyph glyph-name="threesuperior" unicode="&#xb3;" 
d="M314 619q0 -58 -43 -92.5t-117 -34.5q-65 0 -120 25l16 38q21 -9 49 -15.5t55 -6.5q54 0 83.5 22t29.5 64t-37 65t-101 23h-17v37q64 4 100 26t36 55t-23.5 49.5t-67.5 16.5q-24 0 -48.5 -5.5t-47.5 -15.5l-18 37q26 11 56 18t61 7q64 0 100 -28t36 -78
q0 -35 -25.5 -58.5t-57.5 -34.5v-2q17 -5 35 -13.5t32.5 -22t24 -32.5t9.5 -44z" />
    <glyph glyph-name="acute" unicode="&#xb4;" horiz-adv-x="294" 
d="M150 603h-48l75 131q8 10 19 14.5t21 4.5q23 0 29 -19z" />
    <glyph glyph-name="mu" unicode="&#xb5;" horiz-adv-x="545" 
d="M466 43q-35 -26 -81.5 -39.5t-96.5 -13.5q-41 0 -81 9t-69 26v-240h-59v754h59v-463q27 -18 66 -27.5t76 -9.5q36 0 70 9.5t57 25.5v465h59v-496z" />
    <glyph glyph-name="paragraph" unicode="&#xb6;" horiz-adv-x="578" 
d="M441 -215v878q-27 11 -65.5 17t-69.5 6q-10 0 -16.5 -0.5t-7.5 -0.5v-900h-50v552q-74 12 -120.5 61.5t-46.5 133.5q0 100 62 151t168 51q63 0 111.5 -10t85.5 -27v-912h-51z" />
    <glyph glyph-name="periodcentered" unicode="&#xb7;" horiz-adv-x="244" 
d="M167 325q0 -19 -13 -32t-32 -13t-32 13t-13 32t13 32t32 13t32 -13t13 -32z" />
    <glyph glyph-name="cedilla" unicode="&#xb8;" horiz-adv-x="294" 
d="M254 -124q0 -38 -39.5 -57.5t-111.5 -19.5q-17 0 -34.5 1t-37.5 3l19 35q27 -3 53 -3q43 0 71 10t28 31q0 32 -63 32q-24 0 -54 -3l18 34q27 3 48 3q58 0 80.5 -19.5t22.5 -46.5z" />
    <glyph glyph-name="onesuperior" unicode="&#xb9;" 
d="M206 500v363q-22 -14 -59 -26.5t-71 -19.5l-10 40q19 3 40.5 9.5t42 15t38.5 19t30 23.5h37v-424h-48z" />
    <glyph glyph-name="ordmasculine" unicode="&#xba;" horiz-adv-x="463" 
d="M405 529q0 -44 -11.5 -81.5t-33.5 -65t-54.5 -43t-74.5 -15.5t-74.5 15.5t-54.5 43t-33 65t-11 81.5t11 81t33 64t54.5 42.5t74.5 15.5t74.5 -15.5t54.5 -42.5t33.5 -64t11.5 -81zM354 529q0 70 -31 115t-92 45t-91.5 -45t-30.5 -115q0 -35 7.5 -64.5t23 -51t38.5 -33.5
t53 -12q61 0 92 45.5t31 115.5z" />
    <glyph glyph-name="guillemotright" unicode="&#xbb;" horiz-adv-x="578" 
d="M327 68l-39 31l159 206l-159 206l39 31l182 -237zM119 68l-39 31l158 206l-158 206l39 31l181 -237z" />
    <glyph glyph-name="onequarter" unicode="&#xbc;" horiz-adv-x="828" 
d="M721 111v-111h-44v111h-204v37l198 276h50v-276h52v-37h-52zM234 -11l-40 22l384 724l39 -22zM163 300v363q-22 -14 -58.5 -26.5t-70.5 -19.5l-11 40q19 3 40.5 9.5t42 15t39 19t30.5 23.5h36v-424h-48zM678 381q-2 -5 -8.5 -17.5t-14.5 -23.5l-136 -192h159v186
q0 12 0.5 26.5t1.5 20.5h-2z" />
    <glyph glyph-name="onehalf" unicode="&#xbd;" horiz-adv-x="828" 
d="M478 0l190 208q21 23 36.5 46.5t15.5 51.5q0 38 -25 61.5t-75 23.5q-23 0 -51 -6t-50 -16l-16 38q27 11 58.5 18t60.5 7q72 0 109 -35t37 -90q0 -38 -20.5 -69t-43.5 -55l-133 -141h207v-42h-300zM208 -11l-39 22l384 724l39 -22zM163 300v363q-22 -14 -58.5 -26.5
t-70.5 -19.5l-11 40q19 3 40.5 9.5t42 15t39 19t30.5 23.5h36v-424h-48z" />
    <glyph glyph-name="threequarters" unicode="&#xbe;" horiz-adv-x="828" 
d="M264 -11l-40 22l384 724l39 -22zM311 419q0 -58 -43 -92.5t-117 -34.5q-65 0 -120 25l16 38q21 -9 49 -15.5t55 -6.5q54 0 83.5 22t29.5 64t-37 65t-101 23h-17v37q64 4 100 26t36 55t-23.5 49.5t-67.5 16.5q-24 0 -48.5 -5.5t-47.5 -15.5l-18 37q26 11 56 18t61 7
q64 0 100 -28t36 -78q0 -35 -25.5 -58.5t-57.5 -34.5v-2q17 -5 35 -13.5t32.5 -22t24 -32.5t9.5 -44zM721 111v-111h-44v111h-204v37l198 276h50v-276h52v-37h-52zM678 381q-2 -5 -8.5 -17.5t-14.5 -23.5l-136 -192h159v186q0 12 0.5 26.5t1.5 20.5h-2z" />
    <glyph glyph-name="questiondown" unicode="&#xbf;" horiz-adv-x="467" 
d="M299 470q0 -19 -13 -32t-32 -13t-32 13t-13 32t13 32t32 13t32 -13t13 -32zM433 -188q-30 -16 -76 -26.5t-93 -10.5q-103 0 -157 48.5t-54 129.5q0 37 16.5 68.5t42 55.5t55.5 41t58 26l4 141h50l5 -174q-32 -8 -62 -22t-54 -33.5t-38.5 -45t-14.5 -55.5q0 -60 38.5 -94
t114.5 -34q38 0 77.5 9t65.5 23z" />
    <glyph glyph-name="Agrave" unicode="&#xc0;" horiz-adv-x="653" 
d="M562 0l-82 231h-306l-83 -231h-64l265 724h69l265 -724h-64zM351 592q-10 29 -16 51.5t-8 30.5h-2q-2 -10 -8.5 -35t-14.5 -47l-112 -313h272zM308 788l-96 131q6 19 29 19q10 0 21 -4.5t19 -14.5l75 -131h-48z" />
    <glyph glyph-name="Aacute" unicode="&#xc1;" horiz-adv-x="653" 
d="M562 0l-82 231h-306l-83 -231h-64l265 724h69l265 -724h-64zM351 592q-10 29 -16 51.5t-8 30.5h-2q-2 -10 -8.5 -35t-14.5 -47l-112 -313h272zM344 788h-48l75 131q8 10 19 14.5t21 4.5q23 0 29 -19z" />
    <glyph glyph-name="Acircumflex" unicode="&#xc2;" horiz-adv-x="653" 
d="M562 0l-82 231h-306l-83 -231h-64l265 724h69l265 -724h-64zM351 592q-10 29 -16 51.5t-8 30.5h-2q-2 -10 -8.5 -35t-14.5 -47l-112 -313h272zM428 786l-102 91l-102 -91l-28 25l99 100q15 15 31 15q15 0 30 -15l100 -100z" />
    <glyph glyph-name="Atilde" unicode="&#xc3;" horiz-adv-x="653" 
d="M562 0l-82 231h-306l-83 -231h-64l265 724h69l265 -724h-64zM351 592q-10 29 -16 51.5t-8 30.5h-2q-2 -10 -8.5 -35t-14.5 -47l-112 -313h272zM458 880q-5 -31 -24 -54t-52 -23q-20 0 -33 8t-24.5 17.5t-22 17.5t-23.5 8q-20 0 -31.5 -15t-15.5 -37l-35 21q5 31 24.5 54
t52.5 23q19 0 32.5 -8t24.5 -17.5t21 -17.5t24 -8q20 0 31.5 15t15.5 37z" />
    <glyph glyph-name="Adieresis" unicode="&#xc4;" horiz-adv-x="653" 
d="M562 0l-82 231h-306l-83 -231h-64l265 724h69l265 -724h-64zM351 592q-10 29 -16 51.5t-8 30.5h-2q-2 -10 -8.5 -35t-14.5 -47l-112 -313h272zM278 854q0 -16 -11 -27.5t-28 -11.5t-28 11.5t-11 27.5t11 27t28 11t28 -11t11 -27zM453 854q0 -16 -11 -27.5t-28 -11.5
t-28 11.5t-11 27.5t11 27t28 11t28 -11t11 -27z" />
    <glyph glyph-name="Aring" unicode="&#xc5;" horiz-adv-x="653" 
d="M562 0l-82 231h-306l-83 -231h-64l265 724h69l265 -724h-64zM351 592q-10 29 -16 51.5t-8 30.5h-2q-2 -10 -8.5 -35t-14.5 -47l-112 -313h272zM416 869q0 -36 -26 -61t-63 -25t-63 25t-26 61t26 61t63 25t63 -25t26 -61zM381 869q0 23 -15.5 38.5t-38.5 15.5t-38.5 -15.5
t-15.5 -38.5t15.5 -38t38.5 -15t38.5 15t15.5 38z" />
    <glyph glyph-name="AE" unicode="&#xc6;" horiz-adv-x="910" 
d="M538 0l-50 231h-306l-115 -231h-66l366 724h421v-53h-342l63 -270h269v-53h-257l68 -295h279v-53h-330zM409 592q-5 20 -8 44.5t-5 37.5h-2q-5 -17 -13.5 -38t-19.5 -44l-156 -313h273z" />
    <glyph glyph-name="Ccedilla" unicode="&#xc7;" horiz-adv-x="548" 
d="M496 27q-65 -37 -153 -37q-57 0 -108 22.5t-89.5 68.5t-61 116t-22.5 165t22.5 165t61 116t89.5 68.5t108 22.5q88 0 153 -37l-21 -50q-26 16 -58 24.5t-70 8.5q-45 0 -85.5 -19t-70.5 -58t-48 -99t-18 -142q0 -83 18 -142.5t48 -98.5t70.5 -57.5t85.5 -18.5q75 0 128 32
zM395 -124q0 -38 -39.5 -57.5t-111.5 -19.5q-17 0 -34.5 1t-37.5 3l19 35q27 -3 53 -3q43 0 71 10t28 31q0 32 -63 32q-24 0 -54 -3l18 34q27 3 48 3q58 0 80.5 -19.5t22.5 -46.5z" />
    <glyph glyph-name="Egrave" unicode="&#xc8;" horiz-adv-x="507" 
d="M85 0v724h370v-53h-310v-270h287v-53h-287v-295h310v-53h-370zM259 788l-96 131q6 19 29 19q10 0 21 -4.5t19 -14.5l75 -131h-48z" />
    <glyph glyph-name="Eacute" unicode="&#xc9;" horiz-adv-x="507" 
d="M85 0v724h370v-53h-310v-270h287v-53h-287v-295h310v-53h-370zM278 788h-48l75 131q8 10 19 14.5t21 4.5q23 0 29 -19z" />
    <glyph glyph-name="Ecircumflex" unicode="&#xca;" horiz-adv-x="507" 
d="M85 0v724h370v-53h-310v-270h287v-53h-287v-295h310v-53h-370zM372 786l-102 91l-102 -91l-28 25l99 100q15 15 31 15q15 0 30 -15l100 -100z" />
    <glyph glyph-name="Edieresis" unicode="&#xcb;" horiz-adv-x="507" 
d="M85 0v724h370v-53h-310v-270h287v-53h-287v-295h310v-53h-370zM221 854q0 -16 -11 -27.5t-28 -11.5t-28 11.5t-11 27.5t11 27t28 11t28 -11t11 -27zM395 854q0 -16 -11 -27.5t-28 -11.5t-28 11.5t-11 27.5t11 27t28 11t28 -11t11 -27z" />
    <glyph glyph-name="Igrave" unicode="&#xcc;" horiz-adv-x="235" 
d="M87 0v724h61v-724h-61zM109 788l-96 131q6 19 29 19q10 0 21 -4.5t19 -14.5l75 -131h-48z" />
    <glyph glyph-name="Iacute" unicode="&#xcd;" horiz-adv-x="235" 
d="M87 0v724h61v-724h-61zM128 788h-48l75 131q8 10 19 14.5t21 4.5q23 0 29 -19z" />
    <glyph glyph-name="Icircumflex" unicode="&#xce;" horiz-adv-x="235" 
d="M87 0v724h61v-724h-61zM221 786l-102 91l-102 -91l-28 25l99 100q15 15 31 15q15 0 30 -15l100 -100z" />
    <glyph glyph-name="Idieresis" unicode="&#xcf;" horiz-adv-x="235" 
d="M87 0v724h61v-724h-61zM70 854q0 -16 -11 -27.5t-28 -11.5t-28 11.5t-11 27.5t11 27t28 11t28 -11t11 -27zM245 854q0 -16 -11 -27.5t-28 -11.5t-28 11.5t-11 27.5t11 27t28 11t28 -11t11 -27z" />
    <glyph glyph-name="Eth" unicode="&#xd0;" horiz-adv-x="648" 
d="M587 362q0 -95 -24 -164.5t-66 -116t-98.5 -69t-120.5 -22.5q-57 0 -106 11t-77 26v320h-66v48h66v302q33 17 80.5 27t102.5 10q64 0 120.5 -22.5t98.5 -69t66 -116.5t24 -164zM526 362q0 83 -20 143.5t-53.5 99.5t-78.5 57.5t-95 18.5q-36 0 -69.5 -5.5t-53.5 -14.5
v-266h141v-48h-141v-284q17 -8 49.5 -14t73.5 -6q50 0 95 18.5t78.5 57.5t53.5 99.5t20 143.5z" />
    <glyph glyph-name="Ntilde" unicode="&#xd1;" horiz-adv-x="696" 
d="M546 0l-364 577q-15 24 -26 46.5t-15 30.5h-2q0 -4 1 -30t1 -56v-568h-56v724h68l359 -568q14 -23 25.5 -45t16.5 -31h2q0 5 -0.5 30.5t-0.5 56.5v557h56v-724h-65zM480 880q-5 -31 -24 -54t-52 -23q-20 0 -33 8t-24.5 17.5t-22 17.5t-23.5 8q-20 0 -31.5 -15t-15.5 -37
l-35 21q5 31 24.5 54t52.5 23q19 0 32.5 -8t24.5 -17.5t21 -17.5t24 -8q20 0 31.5 15t15.5 37z" />
    <glyph glyph-name="Ograve" unicode="&#xd2;" horiz-adv-x="676" 
d="M614 362q0 -77 -17.5 -144.5t-52 -118t-86.5 -80t-120 -29.5t-120 29.5t-86.5 80t-52 118t-17.5 144.5q0 76 17.5 144t52 118.5t86.5 80t120 29.5t120 -29.5t86.5 -80t52 -118.5t17.5 -144zM553 362q0 66 -14 123.5t-41 101t-67 68.5t-93 25t-93 -25t-67 -68.5t-41 -101
t-14 -123.5t14 -123.5t41 -101t67 -68.5t93 -25t93 25t67 68.5t41 101t14 123.5zM329 788l-96 131q6 19 29 19q10 0 21 -4.5t19 -14.5l75 -131h-48z" />
    <glyph glyph-name="Oacute" unicode="&#xd3;" horiz-adv-x="676" 
d="M614 362q0 -77 -17.5 -144.5t-52 -118t-86.5 -80t-120 -29.5t-120 29.5t-86.5 80t-52 118t-17.5 144.5q0 76 17.5 144t52 118.5t86.5 80t120 29.5t120 -29.5t86.5 -80t52 -118.5t17.5 -144zM553 362q0 66 -14 123.5t-41 101t-67 68.5t-93 25t-93 -25t-67 -68.5t-41 -101
t-14 -123.5t14 -123.5t41 -101t67 -68.5t93 -25t93 25t67 68.5t41 101t14 123.5zM344 788h-48l75 131q8 10 19 14.5t21 4.5q23 0 29 -19z" />
    <glyph glyph-name="Ocircumflex" unicode="&#xd4;" horiz-adv-x="676" 
d="M614 362q0 -77 -17.5 -144.5t-52 -118t-86.5 -80t-120 -29.5t-120 29.5t-86.5 80t-52 118t-17.5 144.5q0 76 17.5 144t52 118.5t86.5 80t120 29.5t120 -29.5t86.5 -80t52 -118.5t17.5 -144zM553 362q0 66 -14 123.5t-41 101t-67 68.5t-93 25t-93 -25t-67 -68.5t-41 -101
t-14 -123.5t14 -123.5t41 -101t67 -68.5t93 -25t93 25t67 68.5t41 101t14 123.5zM438 786l-102 91l-102 -91l-28 25l99 100q15 15 31 15q15 0 30 -15l100 -100z" />
    <glyph glyph-name="Otilde" unicode="&#xd5;" horiz-adv-x="676" 
d="M614 362q0 -77 -17.5 -144.5t-52 -118t-86.5 -80t-120 -29.5t-120 29.5t-86.5 80t-52 118t-17.5 144.5q0 76 17.5 144t52 118.5t86.5 80t120 29.5t120 -29.5t86.5 -80t52 -118.5t17.5 -144zM553 362q0 66 -14 123.5t-41 101t-67 68.5t-93 25t-93 -25t-67 -68.5t-41 -101
t-14 -123.5t14 -123.5t41 -101t67 -68.5t93 -25t93 25t67 68.5t41 101t14 123.5zM463 880q-5 -31 -24 -54t-52 -23q-20 0 -33 8t-24.5 17.5t-22 17.5t-23.5 8q-20 0 -31.5 -15t-15.5 -37l-35 21q5 31 24.5 54t52.5 23q19 0 32.5 -8t24.5 -17.5t21 -17.5t24 -8q20 0 31.5 15
t15.5 37z" />
    <glyph glyph-name="Odieresis" unicode="&#xd6;" horiz-adv-x="676" 
d="M614 362q0 -77 -17.5 -144.5t-52 -118t-86.5 -80t-120 -29.5t-120 29.5t-86.5 80t-52 118t-17.5 144.5q0 76 17.5 144t52 118.5t86.5 80t120 29.5t120 -29.5t86.5 -80t52 -118.5t17.5 -144zM553 362q0 66 -14 123.5t-41 101t-67 68.5t-93 25t-93 -25t-67 -68.5t-41 -101
t-14 -123.5t14 -123.5t41 -101t67 -68.5t93 -25t93 25t67 68.5t41 101t14 123.5zM288 854q0 -16 -11 -27.5t-28 -11.5t-28 11.5t-11 27.5t11 27t28 11t28 -11t11 -27zM463 854q0 -16 -11 -27.5t-28 -11.5t-28 11.5t-11 27.5t11 27t28 11t28 -11t11 -27z" />
    <glyph glyph-name="multiply" unicode="&#xd7;" horiz-adv-x="573" 
d="M471 104l-184 184l-185 -184l-36 38l183 183l-183 183l36 38l185 -184l184 184l37 -38l-184 -183l184 -183z" />
    <glyph glyph-name="Oslash" unicode="&#xd8;" horiz-adv-x="676" 
d="M614 362q0 -77 -18 -144.5t-53 -118t-87 -80t-120 -29.5q-52 0 -94.5 17.5t-74.5 49.5l-69 -106l-34 23l75 116q-38 52 -57.5 122t-19.5 150q0 76 17 144t51.5 118.5t86 80t119.5 29.5q54 0 97.5 -19t77.5 -54l67 102l34 -23l-73 -112q37 -51 56 -119.5t19 -146.5z
M481 615q-27 32 -63.5 50t-81.5 18q-54 0 -94.5 -25.5t-67.5 -69t-40.5 -102t-13.5 -124.5q0 -65 13 -121.5t39 -100.5zM556 362q0 63 -12.5 118t-37.5 98l-308 -474q26 -29 60 -46t78 -17q54 0 95 25.5t68.5 69t42 102t14.5 124.5z" />
    <glyph glyph-name="Ugrave" unicode="&#xd9;" horiz-adv-x="628" 
d="M543 204q0 -50 -18 -89.5t-48.5 -67.5t-72.5 -42.5t-90 -14.5t-90 14.5t-72.5 42.5t-48.5 67.5t-18 89.5v520h61v-520q0 -38 13 -67.5t36 -50t53.5 -31.5t65.5 -11t65.5 11t53.5 31.5t36 50t13 67.5v520h61v-520zM308 788l-96 131q6 19 29 19q10 0 21 -4.5t19 -14.5
l75 -131h-48z" />
    <glyph glyph-name="Uacute" unicode="&#xda;" horiz-adv-x="628" 
d="M543 204q0 -50 -18 -89.5t-48.5 -67.5t-72.5 -42.5t-90 -14.5t-90 14.5t-72.5 42.5t-48.5 67.5t-18 89.5v520h61v-520q0 -38 13 -67.5t36 -50t53.5 -31.5t65.5 -11t65.5 11t53.5 31.5t36 50t13 67.5v520h61v-520zM320 788h-48l75 131q8 10 19 14.5t21 4.5q23 0 29 -19z
" />
    <glyph glyph-name="Ucircumflex" unicode="&#xdb;" horiz-adv-x="628" 
d="M543 204q0 -50 -18 -89.5t-48.5 -67.5t-72.5 -42.5t-90 -14.5t-90 14.5t-72.5 42.5t-48.5 67.5t-18 89.5v520h61v-520q0 -38 13 -67.5t36 -50t53.5 -31.5t65.5 -11t65.5 11t53.5 31.5t36 50t13 67.5v520h61v-520zM417 786l-102 91l-102 -91l-28 25l99 100q15 15 31 15
q15 0 30 -15l100 -100z" />
    <glyph glyph-name="Udieresis" unicode="&#xdc;" horiz-adv-x="628" 
d="M543 204q0 -50 -18 -89.5t-48.5 -67.5t-72.5 -42.5t-90 -14.5t-90 14.5t-72.5 42.5t-48.5 67.5t-18 89.5v520h61v-520q0 -38 13 -67.5t36 -50t53.5 -31.5t65.5 -11t65.5 11t53.5 31.5t36 50t13 67.5v520h61v-520zM266 854q0 -16 -11 -27.5t-28 -11.5t-28 11.5t-11 27.5
t11 27t28 11t28 -11t11 -27zM440 854q0 -16 -11 -27.5t-28 -11.5t-28 11.5t-11 27.5t11 27t28 11t28 -11t11 -27z" />
    <glyph glyph-name="Yacute" unicode="&#xdd;" horiz-adv-x="597" 
d="M329 293v-293h-61v293l-238 431h67l200 -369h2l200 369h68zM309 788h-48l75 131q8 10 19 14.5t21 4.5q23 0 29 -19z" />
    <glyph glyph-name="Thorn" unicode="&#xde;" horiz-adv-x="573" 
d="M515 373q0 -47 -18 -86t-53.5 -67.5t-87 -44.5t-117.5 -16q-25 0 -50.5 1.5t-42.5 4.5v-165h-61v724h61v-155q23 9 54 14t66 5q121 0 185 -57.5t64 -157.5zM454 373q0 80 -48.5 122t-139.5 42q-34 0 -65.5 -5t-54.5 -14v-302q17 -3 42 -4.5t50 -1.5q105 0 160.5 44.5
t55.5 118.5z" />
    <glyph glyph-name="germandbls" unicode="&#xdf;" horiz-adv-x="625" 
d="M573 147q0 -70 -49.5 -112.5t-139.5 -42.5q-20 0 -40.5 3t-40 7.5t-37 10.5t-30.5 13l18 47q23 -13 58 -21.5t67 -8.5q66 0 100 28.5t34 77.5q0 25 -9 44t-23.5 33.5t-33.5 26t-39 22.5q-22 12 -43.5 25.5t-39 30.5t-28 39t-10.5 52q0 48 35 86t112 49q3 21 3 40
q0 31 -8 58t-25 47t-44 31.5t-66 11.5q-41 0 -70.5 -15.5t-48.5 -42.5t-28 -64t-9 -79v-544h-59v544q0 53 13 99t39.5 79.5t66.5 53t95 19.5q54 0 92.5 -17t62.5 -44.5t35 -63.5t11 -74q0 -20 -2.5 -39.5t-7.5 -38.5q-74 -4 -106 -30t-32 -67q0 -21 8 -36.5t21.5 -27.5
t30.5 -22.5t36 -20.5q23 -13 46.5 -27t42 -33.5t30.5 -45t12 -61.5z" />
    <glyph glyph-name="agrave" unicode="&#xe0;" horiz-adv-x="523" 
d="M444 27q-14 -8 -34 -14.5t-44 -11.5t-50 -8t-51 -3q-106 0 -159.5 43.5t-53.5 117.5q0 59 29.5 94t77 54.5t107.5 27t121 10.5v47q0 34 -11 57t-29.5 36.5t-44.5 19t-56 5.5q-38 0 -78 -10t-66 -24l-18 44q15 7 34 13.5t40.5 12t45 8.5t46.5 3q42 0 78 -9t61.5 -29
t40 -52.5t14.5 -78.5v-353zM387 292q-48 -3 -97.5 -7.5t-89.5 -18t-65.5 -40.5t-25.5 -74q0 -52 38 -83.5t117 -31.5q35 0 70.5 6t52.5 14v235zM266 603l-96 131q6 19 29 19q10 0 21 -4.5t19 -14.5l75 -131h-48z" />
    <glyph glyph-name="aacute" unicode="&#xe1;" horiz-adv-x="523" 
d="M444 27q-14 -8 -34 -14.5t-44 -11.5t-50 -8t-51 -3q-106 0 -159.5 43.5t-53.5 117.5q0 59 29.5 94t77 54.5t107.5 27t121 10.5v47q0 34 -11 57t-29.5 36.5t-44.5 19t-56 5.5q-38 0 -78 -10t-66 -24l-18 44q15 7 34 13.5t40.5 12t45 8.5t46.5 3q42 0 78 -9t61.5 -29
t40 -52.5t14.5 -78.5v-353zM387 292q-48 -3 -97.5 -7.5t-89.5 -18t-65.5 -40.5t-25.5 -74q0 -52 38 -83.5t117 -31.5q35 0 70.5 6t52.5 14v235zM275 603h-48l75 131q8 10 19 14.5t21 4.5q23 0 29 -19z" />
    <glyph glyph-name="acircumflex" unicode="&#xe2;" horiz-adv-x="523" 
d="M444 27q-14 -8 -34 -14.5t-44 -11.5t-50 -8t-51 -3q-106 0 -159.5 43.5t-53.5 117.5q0 59 29.5 94t77 54.5t107.5 27t121 10.5v47q0 34 -11 57t-29.5 36.5t-44.5 19t-56 5.5q-38 0 -78 -10t-66 -24l-18 44q15 7 34 13.5t40.5 12t45 8.5t46.5 3q42 0 78 -9t61.5 -29
t40 -52.5t14.5 -78.5v-353zM387 292q-48 -3 -97.5 -7.5t-89.5 -18t-65.5 -40.5t-25.5 -74q0 -52 38 -83.5t117 -31.5q35 0 70.5 6t52.5 14v235zM360 601l-102 91l-102 -91l-28 25l99 100q15 15 31 15q15 0 30 -15l100 -100z" />
    <glyph glyph-name="atilde" unicode="&#xe3;" horiz-adv-x="523" 
d="M444 27q-14 -8 -34 -14.5t-44 -11.5t-50 -8t-51 -3q-106 0 -159.5 43.5t-53.5 117.5q0 59 29.5 94t77 54.5t107.5 27t121 10.5v47q0 34 -11 57t-29.5 36.5t-44.5 19t-56 5.5q-38 0 -78 -10t-66 -24l-18 44q15 7 34 13.5t40.5 12t45 8.5t46.5 3q42 0 78 -9t61.5 -29
t40 -52.5t14.5 -78.5v-353zM387 292q-48 -3 -97.5 -7.5t-89.5 -18t-65.5 -40.5t-25.5 -74q0 -52 38 -83.5t117 -31.5q35 0 70.5 6t52.5 14v235zM393 695q-5 -31 -24 -54t-52 -23q-20 0 -33 8t-24.5 17.5t-22 17.5t-23.5 8q-20 0 -31.5 -15t-15.5 -37l-35 21q5 31 24.5 54
t52.5 23q19 0 32.5 -8t24.5 -17.5t21 -17.5t24 -8q20 0 31.5 15t15.5 37z" />
    <glyph glyph-name="adieresis" unicode="&#xe4;" horiz-adv-x="523" 
d="M444 27q-14 -8 -34 -14.5t-44 -11.5t-50 -8t-51 -3q-106 0 -159.5 43.5t-53.5 117.5q0 59 29.5 94t77 54.5t107.5 27t121 10.5v47q0 34 -11 57t-29.5 36.5t-44.5 19t-56 5.5q-38 0 -78 -10t-66 -24l-18 44q15 7 34 13.5t40.5 12t45 8.5t46.5 3q42 0 78 -9t61.5 -29
t40 -52.5t14.5 -78.5v-353zM387 292q-48 -3 -97.5 -7.5t-89.5 -18t-65.5 -40.5t-25.5 -74q0 -52 38 -83.5t117 -31.5q35 0 70.5 6t52.5 14v235zM219 669q0 -16 -11 -27.5t-28 -11.5t-28 11.5t-11 27.5t11 27t28 11t28 -11t11 -27zM393 669q0 -16 -11 -27.5t-28 -11.5
t-28 11.5t-11 27.5t11 27t28 11t28 -11t11 -27z" />
    <glyph glyph-name="aring" unicode="&#xe5;" horiz-adv-x="523" 
d="M444 27q-14 -8 -34 -14.5t-44 -11.5t-50 -8t-51 -3q-106 0 -159.5 43.5t-53.5 117.5q0 59 29.5 94t77 54.5t107.5 27t121 10.5v47q0 34 -11 57t-29.5 36.5t-44.5 19t-56 5.5q-38 0 -78 -10t-66 -24l-18 44q15 7 34 13.5t40.5 12t45 8.5t46.5 3q42 0 78 -9t61.5 -29
t40 -52.5t14.5 -78.5v-353zM387 292q-48 -3 -97.5 -7.5t-89.5 -18t-65.5 -40.5t-25.5 -74q0 -52 38 -83.5t117 -31.5q35 0 70.5 6t52.5 14v235zM352 684q0 -36 -26 -61t-63 -25t-63 25t-26 61t26 61t63 25t63 -25t26 -61zM317 684q0 23 -15.5 38.5t-38.5 15.5t-38.5 -15.5
t-15.5 -38.5t15.5 -38t38.5 -15t38.5 15t15.5 38z" />
    <glyph glyph-name="ae" unicode="&#xe6;" horiz-adv-x="875" 
d="M817 309q0 -7 -1 -15l-377 -56q6 -100 58 -149.5t138 -49.5q41 0 80 9.5t65 24.5l20 -46q-27 -16 -71 -26.5t-95 -10.5q-81 0 -133 33.5t-75 85.5q-12 -50 -56.5 -84.5t-115.5 -34.5q-100 0 -151 44t-51 117q0 59 29.5 94t77 54.5t107.5 27t121 10.5v47q0 34 -11 57
t-29.5 36.5t-44.5 19t-56 5.5q-38 0 -78 -10t-66 -24l-18 44q29 14 74 25.5t90 11.5q77 0 122 -28t56 -88q26 56 73.5 86t111.5 30q94 0 150 -58.5t56 -167.5v-14zM387 292q-48 -3 -97.5 -7.5t-89.5 -18t-65.5 -40.5t-25.5 -74q0 -52 35.5 -83.5t110.5 -31.5q63 0 97.5 34.5
t34.5 88.5v132zM760 330q-1 88 -42 130t-109 42q-40 0 -71.5 -15.5t-54 -44.5t-34.5 -69.5t-13 -89.5z" />
    <glyph glyph-name="ccedilla" unicode="&#xe7;" horiz-adv-x="461" 
d="M413 27q-54 -37 -128 -37q-41 0 -81.5 15.5t-73 49t-52.5 87t-20 128.5t20 128t52.5 86.5t73 49t81.5 15.5q74 0 128 -37l-21 -44q-21 14 -47 22.5t-56 8.5q-31 0 -61.5 -12t-55 -39t-39.5 -71t-15 -107t15.5 -107t40 -71t55 -39t60.5 -12t56 8.5t47 22.5zM344 -124
q0 -38 -39.5 -57.5t-111.5 -19.5q-17 0 -34.5 1t-37.5 3l19 35q27 -3 53 -3q43 0 71 10t28 31q0 32 -63 32q-24 0 -54 -3l18 34q27 3 48 3q58 0 80.5 -19.5t22.5 -46.5z" />
    <glyph glyph-name="egrave" unicode="&#xe8;" horiz-adv-x="552" 
d="M494 310q0 -7 -1 -16l-378 -56q6 -100 58 -149.5t138 -49.5q41 0 80.5 9.5t65.5 24.5l20 -46q-27 -16 -72 -26.5t-96 -10.5q-116 0 -183.5 71t-67.5 209q0 62 16 113.5t45.5 88t71.5 57t95 20.5q94 0 151 -58t57 -165v-16zM437 330q-1 88 -42 130t-109 42
q-40 0 -71.5 -15.5t-54 -44.5t-35 -69.5t-13.5 -89.5zM279 603l-96 131q6 19 29 19q10 0 21 -4.5t19 -14.5l75 -131h-48z" />
    <glyph glyph-name="eacute" unicode="&#xe9;" horiz-adv-x="552" 
d="M494 310q0 -7 -1 -16l-378 -56q6 -100 58 -149.5t138 -49.5q41 0 80.5 9.5t65.5 24.5l20 -46q-27 -16 -72 -26.5t-96 -10.5q-116 0 -183.5 71t-67.5 209q0 62 16 113.5t45.5 88t71.5 57t95 20.5q94 0 151 -58t57 -165v-16zM437 330q-1 88 -42 130t-109 42
q-40 0 -71.5 -15.5t-54 -44.5t-35 -69.5t-13.5 -89.5zM294 603h-48l75 131q8 10 19 14.5t21 4.5q23 0 29 -19z" />
    <glyph glyph-name="ecircumflex" unicode="&#xea;" horiz-adv-x="552" 
d="M494 310q0 -7 -1 -16l-378 -56q6 -100 58 -149.5t138 -49.5q41 0 80.5 9.5t65.5 24.5l20 -46q-27 -16 -72 -26.5t-96 -10.5q-116 0 -183.5 71t-67.5 209q0 62 16 113.5t45.5 88t71.5 57t95 20.5q94 0 151 -58t57 -165v-16zM437 330q-1 88 -42 130t-109 42
q-40 0 -71.5 -15.5t-54 -44.5t-35 -69.5t-13.5 -89.5zM385 601l-102 91l-102 -91l-28 25l99 100q15 15 31 15q15 0 30 -15l100 -100z" />
    <glyph glyph-name="edieresis" unicode="&#xeb;" horiz-adv-x="552" 
d="M494 310q0 -7 -1 -16l-378 -56q6 -100 58 -149.5t138 -49.5q41 0 80.5 9.5t65.5 24.5l20 -46q-27 -16 -72 -26.5t-96 -10.5q-116 0 -183.5 71t-67.5 209q0 62 16 113.5t45.5 88t71.5 57t95 20.5q94 0 151 -58t57 -165v-16zM437 330q-1 88 -42 130t-109 42
q-40 0 -71.5 -15.5t-54 -44.5t-35 -69.5t-13.5 -89.5zM231 669q0 -16 -11 -27.5t-28 -11.5t-28 11.5t-11 27.5t11 27t28 11t28 -11t11 -27zM407 669q0 -16 -11 -27.5t-28 -11.5t-28 11.5t-11 27.5t11 27t28 11t28 -11t11 -27z" />
    <glyph glyph-name="igrave" unicode="&#xec;" horiz-adv-x="227" 
d="M84 0v539h59v-539h-59zM110 603l-96 131q6 19 29 19q10 0 21 -4.5t19 -14.5l75 -131h-48z" />
    <glyph glyph-name="iacute" unicode="&#xed;" horiz-adv-x="227" 
d="M84 0v539h59v-539h-59zM119 603h-48l75 131q8 10 19 14.5t21 4.5q23 0 29 -19z" />
    <glyph glyph-name="icircumflex" unicode="&#xee;" horiz-adv-x="227" 
d="M84 0v539h59v-539h-59zM217 601l-102 91l-102 -91l-28 25l99 100q15 15 31 15q15 0 30 -15l100 -100z" />
    <glyph glyph-name="idieresis" unicode="&#xef;" horiz-adv-x="227" 
d="M84 0v539h59v-539h-59zM66 669q0 -16 -11 -27.5t-28 -11.5t-28 11.5t-11 27.5t11 27t28 11t28 -11t11 -27zM240 669q0 -16 -11 -27.5t-28 -11.5t-28 11.5t-11 27.5t11 27t28 11t28 -11t11 -27z" />
    <glyph glyph-name="eth" unicode="&#xf0;" horiz-adv-x="561" 
d="M502 270q0 -60 -14 -111t-42 -88.5t-69.5 -59t-96.5 -21.5t-96.5 21.5t-69.5 59t-42 88.5t-14 111q0 62 17 112.5t48 86.5t74.5 56t97.5 20q23 0 43 -3.5t37 -8.5q-17 33 -37.5 63t-42.5 59l-111 -49l-23 35l107 48q-19 22 -38 42t-38 39l51 22q37 -38 75 -81l97 43
l25 -34l-95 -42q32 -41 60.5 -87.5t50 -97.5t34 -107t12.5 -116zM443 270q0 57 -11.5 109t-31.5 100q-20 8 -46 12.5t-55 4.5q-42 0 -75.5 -16t-57.5 -45.5t-36.5 -71.5t-12.5 -93q0 -50 10 -92t30 -72.5t50.5 -48t72.5 -17.5t72.5 17.5t50.5 48t30 72.5t10 92z" />
    <glyph glyph-name="ntilde" unicode="&#xf1;" horiz-adv-x="554" 
d="M416 0v368q0 60 -36.5 96t-110.5 36q-41 0 -74.5 -6.5t-56.5 -15.5v-478h-59v512q37 17 85.5 27t104.5 10q101 0 153.5 -47t52.5 -131v-371h-59zM401 695q-5 -31 -24 -54t-52 -23q-20 0 -33 8t-24.5 17.5t-22 17.5t-23.5 8q-20 0 -31.5 -15t-15.5 -37l-35 21
q5 31 24.5 54t52.5 23q19 0 32.5 -8t24.5 -17.5t21 -17.5t24 -8q20 0 31.5 15t15.5 37z" />
    <glyph glyph-name="ograve" unicode="&#xf2;" horiz-adv-x="560" 
d="M502 270q0 -60 -14 -111t-42 -88.5t-69.5 -59t-96.5 -21.5t-96.5 21.5t-69.5 59t-42 88.5t-14 111t14 111t42 88.5t69.5 58.5t96.5 21t96.5 -21t69.5 -58.5t42 -88.5t14 -111zM443 270q0 49 -10 91.5t-30 73t-50.5 48t-72.5 17.5t-72.5 -17.5t-50.5 -48t-30 -73
t-10 -91.5q0 -50 10 -92t30 -72.5t50.5 -48t72.5 -17.5t72.5 17.5t50.5 48t30 72.5t10 92zM269 603l-96 131q6 19 29 19q10 0 21 -4.5t19 -14.5l75 -131h-48z" />
    <glyph glyph-name="oacute" unicode="&#xf3;" horiz-adv-x="560" 
d="M502 270q0 -60 -14 -111t-42 -88.5t-69.5 -59t-96.5 -21.5t-96.5 21.5t-69.5 59t-42 88.5t-14 111t14 111t42 88.5t69.5 58.5t96.5 21t96.5 -21t69.5 -58.5t42 -88.5t14 -111zM443 270q0 49 -10 91.5t-30 73t-50.5 48t-72.5 17.5t-72.5 -17.5t-50.5 -48t-30 -73
t-10 -91.5q0 -50 10 -92t30 -72.5t50.5 -48t72.5 -17.5t72.5 17.5t50.5 48t30 72.5t10 92zM286 603h-48l75 131q8 10 19 14.5t21 4.5q23 0 29 -19z" />
    <glyph glyph-name="ocircumflex" unicode="&#xf4;" horiz-adv-x="560" 
d="M502 270q0 -60 -14 -111t-42 -88.5t-69.5 -59t-96.5 -21.5t-96.5 21.5t-69.5 59t-42 88.5t-14 111t14 111t42 88.5t69.5 58.5t96.5 21t96.5 -21t69.5 -58.5t42 -88.5t14 -111zM443 270q0 49 -10 91.5t-30 73t-50.5 48t-72.5 17.5t-72.5 -17.5t-50.5 -48t-30 -73
t-10 -91.5q0 -50 10 -92t30 -72.5t50.5 -48t72.5 -17.5t72.5 17.5t50.5 48t30 72.5t10 92zM382 601l-102 91l-102 -91l-28 25l99 100q15 15 31 15q15 0 30 -15l100 -100z" />
    <glyph glyph-name="otilde" unicode="&#xf5;" horiz-adv-x="560" 
d="M502 270q0 -60 -14 -111t-42 -88.5t-69.5 -59t-96.5 -21.5t-96.5 21.5t-69.5 59t-42 88.5t-14 111t14 111t42 88.5t69.5 58.5t96.5 21t96.5 -21t69.5 -58.5t42 -88.5t14 -111zM443 270q0 49 -10 91.5t-30 73t-50.5 48t-72.5 17.5t-72.5 -17.5t-50.5 -48t-30 -73
t-10 -91.5q0 -50 10 -92t30 -72.5t50.5 -48t72.5 -17.5t72.5 17.5t50.5 48t30 72.5t10 92zM407 695q-5 -31 -24 -54t-52 -23q-20 0 -33 8t-24.5 17.5t-22 17.5t-23.5 8q-20 0 -31.5 -15t-15.5 -37l-35 21q5 31 24.5 54t52.5 23q19 0 32.5 -8t24.5 -17.5t21 -17.5t24 -8
q20 0 31.5 15t15.5 37z" />
    <glyph glyph-name="odieresis" unicode="&#xf6;" horiz-adv-x="560" 
d="M502 270q0 -60 -14 -111t-42 -88.5t-69.5 -59t-96.5 -21.5t-96.5 21.5t-69.5 59t-42 88.5t-14 111t14 111t42 88.5t69.5 58.5t96.5 21t96.5 -21t69.5 -58.5t42 -88.5t14 -111zM443 270q0 49 -10 91.5t-30 73t-50.5 48t-72.5 17.5t-72.5 -17.5t-50.5 -48t-30 -73
t-10 -91.5q0 -50 10 -92t30 -72.5t50.5 -48t72.5 -17.5t72.5 17.5t50.5 48t30 72.5t10 92zM231 669q0 -16 -11 -27.5t-28 -11.5t-28 11.5t-11 27.5t11 27t28 11t28 -11t11 -27zM406 669q0 -16 -11 -27.5t-28 -11.5t-28 11.5t-11 27.5t11 27t28 11t28 -11t11 -27z" />
    <glyph glyph-name="divide" unicode="&#xf7;" horiz-adv-x="573" 
d="M328 483q0 -17 -12 -29.5t-29 -12.5t-29.5 12.5t-12.5 29.5t12.5 29t29.5 12t29 -12t12 -29zM76 301v48h421v-48h-421zM328 167q0 -17 -12 -29t-29 -12t-29.5 12t-12.5 29t12.5 29.5t29.5 12.5t29 -12.5t12 -29.5z" />
    <glyph glyph-name="oslash" unicode="&#xf8;" horiz-adv-x="560" 
d="M502 270q0 -60 -14 -111t-42 -88.5t-69.5 -59t-96.5 -21.5q-40 0 -73.5 12t-59.5 34l-57 -85l-30 22l60 91q-31 38 -46.5 91t-15.5 115q0 60 14 111t42 88.5t69.5 58.5t96.5 21q79 0 133 -46l56 84l31 -22l-60 -90q31 -38 46.5 -90.5t15.5 -114.5zM386 461
q-20 20 -46.5 31.5t-59.5 11.5q-42 0 -73.5 -18t-52.5 -49.5t-31 -74.5t-10 -92q0 -97 38 -161zM447 270q0 47 -9 88t-28 72l-235 -352q20 -20 46 -31t59 -11q42 0 73.5 18t52.5 49.5t31 74.5t10 92z" />
    <glyph glyph-name="ugrave" unicode="&#xf9;" horiz-adv-x="545" 
d="M466 27q-29 -15 -79.5 -26t-108.5 -11q-96 0 -147.5 45t-51.5 139v365h59v-366q0 -133 140 -133q42 0 76.5 7t52.5 15v477h59v-512zM264 603l-96 131q6 19 29 19q10 0 21 -4.5t19 -14.5l75 -131h-48z" />
    <glyph glyph-name="uacute" unicode="&#xfa;" horiz-adv-x="545" 
d="M466 27q-29 -15 -79.5 -26t-108.5 -11q-96 0 -147.5 45t-51.5 139v365h59v-366q0 -133 140 -133q42 0 76.5 7t52.5 15v477h59v-512zM282 603h-48l75 131q8 10 19 14.5t21 4.5q23 0 29 -19z" />
    <glyph glyph-name="ucircumflex" unicode="&#xfb;" horiz-adv-x="545" 
d="M466 27q-29 -15 -79.5 -26t-108.5 -11q-96 0 -147.5 45t-51.5 139v365h59v-366q0 -133 140 -133q42 0 76.5 7t52.5 15v477h59v-512zM376 601l-102 91l-102 -91l-28 25l99 100q15 15 31 15q15 0 30 -15l100 -100z" />
    <glyph glyph-name="udieresis" unicode="&#xfc;" horiz-adv-x="545" 
d="M466 27q-29 -15 -79.5 -26t-108.5 -11q-96 0 -147.5 45t-51.5 139v365h59v-366q0 -133 140 -133q42 0 76.5 7t52.5 15v477h59v-512zM225 669q0 -16 -11 -27.5t-28 -11.5t-28 11.5t-11 27.5t11 27t28 11t28 -11t11 -27zM400 669q0 -16 -11 -27.5t-28 -11.5t-28 11.5
t-11 27.5t11 27t28 11t28 -11t11 -27z" />
    <glyph glyph-name="yacute" unicode="&#xfd;" horiz-adv-x="537" 
d="M219 -215h-61l81 215l-203 539h64l148 -417q7 -20 11.5 -38t7.5 -34h2q2 10 7 29.5t13 42.5l148 417h64zM287 603h-48l75 131q8 10 19 14.5t21 4.5q23 0 29 -19z" />
    <glyph glyph-name="thorn" unicode="&#xfe;" horiz-adv-x="549" 
d="M492 276q0 -76 -19 -130.5t-53 -89t-79.5 -50.5t-97.5 -16q-28 0 -55 5t-50 13v-223h-59v1000h59v-263q23 11 55 18t66 7q52 0 95 -19t73.5 -54t47.5 -85t17 -113zM433 275q0 106 -49.5 164.5t-130.5 58.5q-31 0 -62.5 -7t-52.5 -18v-414q16 -8 44 -14t60 -6
q39 0 74 12.5t61 41t41 73t15 109.5z" />
    <glyph glyph-name="ydieresis" unicode="&#xff;" horiz-adv-x="537" 
d="M219 -215h-61l81 215l-203 539h64l148 -417q7 -20 11.5 -38t7.5 -34h2q2 10 7 29.5t13 42.5l148 417h64zM221 669q0 -16 -11 -27.5t-28 -11.5t-28 11.5t-11 27.5t11 27t28 11t28 -11t11 -27zM396 669q0 -16 -11 -27.5t-28 -11.5t-28 11.5t-11 27.5t11 27t28 11t28 -11
t11 -27z" />
    <glyph glyph-name="Amacron" unicode="&#x100;" horiz-adv-x="653" 
d="M562 0l-82 231h-306l-83 -231h-64l265 724h69l265 -724h-64zM351 592q-10 29 -16 51.5t-8 30.5h-2q-2 -10 -8.5 -35t-14.5 -47l-112 -313h272zM210 822v45h232v-45h-232z" />
    <glyph glyph-name="amacron" unicode="&#x101;" horiz-adv-x="523" 
d="M444 27q-14 -8 -34 -14.5t-44 -11.5t-50 -8t-51 -3q-106 0 -159.5 43.5t-53.5 117.5q0 59 29.5 94t77 54.5t107.5 27t121 10.5v47q0 34 -11 57t-29.5 36.5t-44.5 19t-56 5.5q-38 0 -78 -10t-66 -24l-18 44q15 7 34 13.5t40.5 12t45 8.5t46.5 3q42 0 78 -9t61.5 -29
t40 -52.5t14.5 -78.5v-353zM387 292q-48 -3 -97.5 -7.5t-89.5 -18t-65.5 -40.5t-25.5 -74q0 -52 38 -83.5t117 -31.5q35 0 70.5 6t52.5 14v235zM150 637v45h232v-45h-232z" />
    <glyph glyph-name="Abreve" unicode="&#x102;" horiz-adv-x="653" 
d="M562 0l-82 231h-306l-83 -231h-64l265 724h69l265 -724h-64zM351 592q-10 29 -16 51.5t-8 30.5h-2q-2 -10 -8.5 -35t-14.5 -47l-112 -313h272zM456 913q-4 -58 -38 -92.5t-91 -34.5t-91.5 34.5t-38.5 92.5l41 6q8 -44 29 -66t60 -22t59.5 22t28.5 66z" />
    <glyph glyph-name="abreve" unicode="&#x103;" horiz-adv-x="523" 
d="M444 27q-14 -8 -34 -14.5t-44 -11.5t-50 -8t-51 -3q-106 0 -159.5 43.5t-53.5 117.5q0 59 29.5 94t77 54.5t107.5 27t121 10.5v47q0 34 -11 57t-29.5 36.5t-44.5 19t-56 5.5q-38 0 -78 -10t-66 -24l-18 44q15 7 34 13.5t40.5 12t45 8.5t46.5 3q42 0 78 -9t61.5 -29
t40 -52.5t14.5 -78.5v-353zM387 292q-48 -3 -97.5 -7.5t-89.5 -18t-65.5 -40.5t-25.5 -74q0 -52 38 -83.5t117 -31.5q35 0 70.5 6t52.5 14v235zM391 728q-4 -58 -38 -92.5t-91 -34.5t-91.5 34.5t-38.5 92.5l41 6q8 -44 29 -66t60 -22t59.5 22t28.5 66z" />
    <glyph glyph-name="Aogonek" unicode="&#x104;" horiz-adv-x="653" 
d="M659 -173q-17 -8 -39.5 -13.5t-44.5 -5.5q-44 0 -71.5 23t-27.5 62q0 32 22.5 60t61.5 51l-81 227h-305l-83 -231h-64l265 724h69l265 -724h-15q-46 -26 -65.5 -53t-19.5 -49t15.5 -35t39.5 -13q32 0 63 14zM351 592q-9 26 -15.5 49t-8.5 33h-2q-2 -10 -8.5 -34.5
t-14.5 -47.5l-112 -313h272z" />
    <glyph glyph-name="aogonek" unicode="&#x105;" horiz-adv-x="523" 
d="M444 27q-20 -11 -55 -21q-52 -27 -74 -56t-22 -52q0 -22 15.5 -35t39.5 -13q32 0 63 14l15 -37q-17 -8 -39.5 -13.5t-44.5 -5.5q-44 0 -71.5 23t-27.5 62q0 28 18 52.5t50 46.5q-12 -2 -24 -2h-22q-106 0 -159.5 43.5t-53.5 117.5q0 59 29.5 94t77 54.5t107.5 27
t121 10.5v47q0 34 -11 57t-29.5 36.5t-44.5 19t-56 5.5q-38 0 -78 -10t-66 -24l-18 44q15 7 34 13.5t40.5 12t45 8.5t46.5 3q42 0 78 -9t61.5 -29t40 -52.5t14.5 -78.5v-353zM387 292q-48 -3 -97.5 -7.5t-89.5 -18t-65.5 -40.5t-25.5 -74q0 -52 38 -83.5t117 -31.5
q35 0 70.5 6t52.5 14v235z" />
    <glyph glyph-name="Cacute" unicode="&#x106;" horiz-adv-x="548" 
d="M496 27q-65 -37 -153 -37q-57 0 -108 22.5t-89.5 68.5t-61 116t-22.5 165t22.5 165t61 116t89.5 68.5t108 22.5q88 0 153 -37l-21 -50q-26 16 -58 24.5t-70 8.5q-45 0 -85.5 -19t-70.5 -58t-48 -99t-18 -142q0 -83 18 -142.5t48 -98.5t70.5 -57.5t85.5 -18.5q75 0 128 32
zM328 788h-48l75 131q8 10 19 14.5t21 4.5q23 0 29 -19z" />
    <glyph glyph-name="cacute" unicode="&#x107;" horiz-adv-x="461" 
d="M413 27q-54 -37 -128 -37q-41 0 -81.5 15.5t-73 49t-52.5 87t-20 128.5t20 128t52.5 86.5t73 49t81.5 15.5q74 0 128 -37l-21 -44q-21 14 -47 22.5t-56 8.5q-31 0 -61.5 -12t-55 -39t-39.5 -71t-15 -107t15.5 -107t40 -71t55 -39t60.5 -12t56 8.5t47 22.5zM281 603h-48
l75 131q8 10 19 14.5t21 4.5q23 0 29 -19z" />
    <glyph glyph-name="Ccircumflex" unicode="&#x108;" horiz-adv-x="548" 
d="M496 27q-65 -37 -153 -37q-57 0 -108 22.5t-89.5 68.5t-61 116t-22.5 165t22.5 165t61 116t89.5 68.5t108 22.5q88 0 153 -37l-21 -50q-26 16 -58 24.5t-70 8.5q-45 0 -85.5 -19t-70.5 -58t-48 -99t-18 -142q0 -83 18 -142.5t48 -98.5t70.5 -57.5t85.5 -18.5q75 0 128 32
zM428 786l-102 91l-102 -91l-28 25l99 100q15 15 31 15q15 0 30 -15l100 -100z" />
    <glyph glyph-name="ccircumflex" unicode="&#x109;" horiz-adv-x="461" 
d="M413 27q-54 -37 -128 -37q-41 0 -81.5 15.5t-73 49t-52.5 87t-20 128.5t20 128t52.5 86.5t73 49t81.5 15.5q74 0 128 -37l-21 -44q-21 14 -47 22.5t-56 8.5q-31 0 -61.5 -12t-55 -39t-39.5 -71t-15 -107t15.5 -107t40 -71t55 -39t60.5 -12t56 8.5t47 22.5zM370 601
l-102 91l-102 -91l-28 25l99 100q15 15 31 15q15 0 30 -15l100 -100z" />
    <glyph glyph-name="Cdotaccent" unicode="&#x10a;" horiz-adv-x="548" 
d="M496 27q-65 -37 -153 -37q-57 0 -108 22.5t-89.5 68.5t-61 116t-22.5 165t22.5 165t61 116t89.5 68.5t108 22.5q88 0 153 -37l-21 -50q-26 16 -58 24.5t-70 8.5q-45 0 -85.5 -19t-70.5 -58t-48 -99t-18 -142q0 -83 18 -142.5t48 -98.5t70.5 -57.5t85.5 -18.5q75 0 128 32
zM366 856q0 -17 -12 -29t-29 -12t-29 12t-12 29t12 28.5t29 11.5t29 -11.5t12 -28.5z" />
    <glyph glyph-name="cdotaccent" unicode="&#x10b;" horiz-adv-x="461" 
d="M413 27q-54 -37 -128 -37q-41 0 -81.5 15.5t-73 49t-52.5 87t-20 128.5t20 128t52.5 86.5t73 49t81.5 15.5q74 0 128 -37l-21 -44q-21 14 -47 22.5t-56 8.5q-31 0 -61.5 -12t-55 -39t-39.5 -71t-15 -107t15.5 -107t40 -71t55 -39t60.5 -12t56 8.5t47 22.5zM303 671
q0 -17 -12 -29t-29 -12t-29 12t-12 29t12 28.5t29 11.5t29 -11.5t12 -28.5z" />
    <glyph glyph-name="Ccaron" unicode="&#x10c;" horiz-adv-x="548" 
d="M496 27q-65 -37 -153 -37q-57 0 -108 22.5t-89.5 68.5t-61 116t-22.5 165t22.5 165t61 116t89.5 68.5t108 22.5q88 0 153 -37l-21 -50q-26 16 -58 24.5t-70 8.5q-45 0 -85.5 -19t-70.5 -58t-48 -99t-18 -142q0 -83 18 -142.5t48 -98.5t70.5 -57.5t85.5 -18.5q75 0 128 32
zM354 804q-16 -16 -30 -16q-15 0 -31 16l-99 100l28 24l102 -91l102 91l28 -24z" />
    <glyph glyph-name="ccaron" unicode="&#x10d;" horiz-adv-x="461" 
d="M413 27q-54 -37 -128 -37q-41 0 -81.5 15.5t-73 49t-52.5 87t-20 128.5t20 128t52.5 86.5t73 49t81.5 15.5q74 0 128 -37l-21 -44q-21 14 -47 22.5t-56 8.5q-31 0 -61.5 -12t-55 -39t-39.5 -71t-15 -107t15.5 -107t40 -71t55 -39t60.5 -12t56 8.5t47 22.5zM297 619
q-16 -16 -30 -16q-15 0 -31 16l-99 100l28 24l102 -91l102 91l28 -24z" />
    <glyph glyph-name="Dcaron" unicode="&#x10e;" horiz-adv-x="638" 
d="M577 362q0 -95 -24 -164.5t-66 -116t-98.5 -69t-120.5 -22.5q-57 0 -106 11t-77 26v670q33 17 80.5 27t102.5 10q64 0 120.5 -22.5t98.5 -69t66 -116.5t24 -164zM515 362q0 83 -19.5 143.5t-53 99.5t-78.5 57.5t-95 18.5q-36 0 -69.5 -5.5t-53.5 -14.5v-598q17 -8 50 -14
t73 -6q50 0 95 18.5t78.5 57.5t53 99.5t19.5 143.5zM310 804q-16 -16 -30 -16q-15 0 -31 16l-99 100l28 24l102 -91l102 91l28 -24z" />
    <glyph glyph-name="dcaron" unicode="&#x10f;" horiz-adv-x="549" 
d="M470 27q-22 -14 -67.5 -25.5t-94.5 -11.5q-60 0 -106.5 19.5t-78.5 55t-48.5 85.5t-16.5 111t16.5 113t48 90t77.5 59t106 21q32 0 60.5 -5t44.5 -11v257h59v-758zM411 480q-14 5 -44 10t-58 5q-47 0 -83 -17.5t-60 -48.5t-36.5 -74t-12.5 -93t12.5 -91t36.5 -70.5
t59.5 -45.5t81.5 -16q29 0 60 6.5t44 14.5v420zM614 622h-40v154q11 16 30 16q20 0 30 -16z" />
    <glyph glyph-name="Dcroat" unicode="&#x110;" horiz-adv-x="648" 
d="M587 362q0 -95 -24 -164.5t-66 -116t-98.5 -69t-120.5 -22.5q-57 0 -106 11t-77 26v320h-66v48h66v302q33 17 80.5 27t102.5 10q64 0 120.5 -22.5t98.5 -69t66 -116.5t24 -164zM526 362q0 83 -20 143.5t-53.5 99.5t-78.5 57.5t-95 18.5q-36 0 -69.5 -5.5t-53.5 -14.5
v-266h141v-48h-141v-284q17 -8 49.5 -14t73.5 -6q50 0 95 18.5t78.5 57.5t53.5 99.5t20 143.5z" />
    <glyph glyph-name="dcroat" unicode="&#x111;" horiz-adv-x="549" 
d="M470 638v-611q-22 -14 -67.5 -25.5t-94.5 -11.5q-60 0 -106.5 19.5t-78.5 55t-48.5 85.5t-16.5 111t16.5 113t48 90t77.5 59t106 21q32 0 60.5 -5t44.5 -11v110h-168v41h168v106h59v-106h81v-41h-81zM411 480q-14 5 -44 10t-58 5q-47 0 -83 -17.5t-60 -48.5t-36.5 -74
t-12.5 -93t12.5 -91t36.5 -70.5t59.5 -45.5t81.5 -16q29 0 60 6.5t44 14.5v420z" />
    <glyph glyph-name="Emacron" unicode="&#x112;" horiz-adv-x="507" 
d="M85 0v724h370v-53h-310v-270h287v-53h-287v-295h310v-53h-370zM153 822v45h232v-45h-232z" />
    <glyph glyph-name="emacron" unicode="&#x113;" horiz-adv-x="552" 
d="M494 310q0 -7 -1 -16l-378 -56q6 -100 58 -149.5t138 -49.5q41 0 80.5 9.5t65.5 24.5l20 -46q-27 -16 -72 -26.5t-96 -10.5q-116 0 -183.5 71t-67.5 209q0 62 16 113.5t45.5 88t71.5 57t95 20.5q94 0 151 -58t57 -165v-16zM437 330q-1 88 -42 130t-109 42
q-40 0 -71.5 -15.5t-54 -44.5t-35 -69.5t-13.5 -89.5zM166 637v45h232v-45h-232z" />
    <glyph glyph-name="Ebreve" unicode="&#x114;" horiz-adv-x="507" 
d="M85 0v724h370v-53h-310v-270h287v-53h-287v-295h310v-53h-370zM394 913q-4 -58 -38 -92.5t-91 -34.5t-91.5 34.5t-38.5 92.5l41 6q8 -44 29 -66t60 -22t59.5 22t28.5 66z" />
    <glyph glyph-name="ebreve" unicode="&#x115;" horiz-adv-x="552" 
d="M494 310q0 -7 -1 -16l-378 -56q6 -100 58 -149.5t138 -49.5q41 0 80.5 9.5t65.5 24.5l20 -46q-27 -16 -72 -26.5t-96 -10.5q-116 0 -183.5 71t-67.5 209q0 62 16 113.5t45.5 88t71.5 57t95 20.5q94 0 151 -58t57 -165v-16zM437 330q-1 88 -42 130t-109 42
q-40 0 -71.5 -15.5t-54 -44.5t-35 -69.5t-13.5 -89.5zM408 728q-4 -58 -38 -92.5t-91 -34.5t-91.5 34.5t-38.5 92.5l41 6q8 -44 29 -66t60 -22t59.5 22t28.5 66z" />
    <glyph glyph-name="Edotaccent" unicode="&#x116;" horiz-adv-x="507" 
d="M85 0v724h370v-53h-310v-270h287v-53h-287v-295h310v-53h-370zM306 856q0 -17 -12 -29t-29 -12t-29 12t-12 29t12 28.5t29 11.5t29 -11.5t12 -28.5z" />
    <glyph glyph-name="edotaccent" unicode="&#x117;" horiz-adv-x="552" 
d="M494 310q0 -7 -1 -16l-378 -56q6 -100 58 -149.5t138 -49.5q41 0 80.5 9.5t65.5 24.5l20 -46q-27 -16 -72 -26.5t-96 -10.5q-116 0 -183.5 71t-67.5 209q0 62 16 113.5t45.5 88t71.5 57t95 20.5q94 0 151 -58t57 -165v-16zM437 330q-1 88 -42 130t-109 42
q-40 0 -71.5 -15.5t-54 -44.5t-35 -69.5t-13.5 -89.5zM320 671q0 -17 -12 -29t-29 -12t-29 12t-12 29t12 28.5t29 11.5t29 -11.5t12 -28.5z" />
    <glyph glyph-name="Eogonek" unicode="&#x118;" horiz-adv-x="507" 
d="M473 -173q-17 -8 -39 -13.5t-44 -5.5q-44 0 -72 23t-28 62q0 30 21.5 57t58.5 50h-285v724h370v-53h-310v-270h287v-53h-287v-295h310v-53h-30q-46 -26 -65 -53t-19 -49t15 -35t39 -13q33 0 64 14z" />
    <glyph glyph-name="eogonek" unicode="&#x119;" horiz-adv-x="552" 
d="M494 310q0 -7 -1 -16l-378 -56q6 -100 58 -149.5t138 -49.5q41 0 80.5 9.5t65.5 24.5l20 -46q-16 -10 -41 -18q-55 -27 -78 -57t-23 -54q0 -22 15 -35t39 -13q33 0 64 14l15 -37q-17 -8 -39.5 -13.5t-44.5 -5.5q-44 0 -72 23t-28 62q0 28 18.5 52.5t50.5 46.5
q-11 -1 -22 -1.5t-22 -0.5q-116 0 -183.5 71t-67.5 209q0 62 16 113.5t45.5 88t71.5 57t95 20.5q94 0 151 -58t57 -165v-16zM437 330q-1 88 -42 130t-109 42q-40 0 -71.5 -15.5t-54 -44.5t-35 -69.5t-13.5 -89.5z" />
    <glyph glyph-name="Ecaron" unicode="&#x11a;" horiz-adv-x="507" 
d="M85 0v724h370v-53h-310v-270h287v-53h-287v-295h310v-53h-370zM296 804q-16 -16 -30 -16q-15 0 -31 16l-99 100l28 24l102 -91l102 91l28 -24z" />
    <glyph glyph-name="ecaron" unicode="&#x11b;" horiz-adv-x="552" 
d="M494 310q0 -7 -1 -16l-378 -56q6 -100 58 -149.5t138 -49.5q41 0 80.5 9.5t65.5 24.5l20 -46q-27 -16 -72 -26.5t-96 -10.5q-116 0 -183.5 71t-67.5 209q0 62 16 113.5t45.5 88t71.5 57t95 20.5q94 0 151 -58t57 -165v-16zM437 330q-1 88 -42 130t-109 42
q-40 0 -71.5 -15.5t-54 -44.5t-35 -69.5t-13.5 -89.5zM311 619q-16 -16 -30 -16q-15 0 -31 16l-99 100l28 24l102 -91l102 91l28 -24z" />
    <glyph glyph-name="Gcircumflex" unicode="&#x11c;" horiz-adv-x="647" 
d="M566 27q-26 -15 -74.5 -26t-114.5 -11q-65 0 -122 23t-100 69.5t-68 116.5t-25 163t25.5 163t69 116.5t101 69.5t122.5 23q54 0 99.5 -10t71.5 -27l-22 -49q-22 14 -61 23.5t-87 9.5q-51 0 -97.5 -19t-82.5 -58t-57 -99.5t-21 -142.5q0 -83 21 -143t55.5 -99t80 -58
t95.5 -19q45 0 81.5 6.5t50.5 14.5v286h-174v51h233v-374zM459 786l-102 91l-102 -91l-28 25l99 100q15 15 31 15q15 0 30 -15l100 -100z" />
    <glyph glyph-name="gcircumflex" unicode="&#x11d;" horiz-adv-x="549" 
d="M470 -6q0 -104 -55.5 -161.5t-158.5 -57.5q-48 0 -94.5 12t-75.5 27l21 47q26 -14 65.5 -24.5t80.5 -10.5q79 0 119 43.5t40 124.5v52q-23 -11 -56 -18.5t-67 -7.5q-51 0 -93 17t-73 49.5t-48 80.5t-17 110q0 72 19.5 123.5t53.5 84.5t79.5 48.5t98.5 15.5q47 0 89 -10
t72 -27v-518zM412 480q-16 8 -44.5 14t-60.5 6q-39 0 -73.5 -12t-60.5 -38.5t-41 -69t-15 -102.5q0 -52 13.5 -91t37.5 -65.5t56.5 -39.5t71.5 -13q31 0 63 6.5t53 17.5v387zM391 601l-102 91l-102 -91l-28 25l99 100q15 15 31 15q15 0 30 -15l100 -100z" />
    <glyph glyph-name="Gbreve" unicode="&#x11e;" horiz-adv-x="647" 
d="M566 27q-26 -15 -74.5 -26t-114.5 -11q-65 0 -122 23t-100 69.5t-68 116.5t-25 163t25.5 163t69 116.5t101 69.5t122.5 23q54 0 99.5 -10t71.5 -27l-22 -49q-22 14 -61 23.5t-87 9.5q-51 0 -97.5 -19t-82.5 -58t-57 -99.5t-21 -142.5q0 -83 21 -143t55.5 -99t80 -58
t95.5 -19q45 0 81.5 6.5t50.5 14.5v286h-174v51h233v-374zM475 913q-4 -58 -38 -92.5t-91 -34.5t-91.5 34.5t-38.5 92.5l41 6q8 -44 29 -66t60 -22t59.5 22t28.5 66z" />
    <glyph glyph-name="gbreve" unicode="&#x11f;" horiz-adv-x="549" 
d="M470 -6q0 -104 -55.5 -161.5t-158.5 -57.5q-48 0 -94.5 12t-75.5 27l21 47q26 -14 65.5 -24.5t80.5 -10.5q79 0 119 43.5t40 124.5v52q-23 -11 -56 -18.5t-67 -7.5q-51 0 -93 17t-73 49.5t-48 80.5t-17 110q0 72 19.5 123.5t53.5 84.5t79.5 48.5t98.5 15.5q47 0 89 -10
t72 -27v-518zM412 480q-16 8 -44.5 14t-60.5 6q-39 0 -73.5 -12t-60.5 -38.5t-41 -69t-15 -102.5q0 -52 13.5 -91t37.5 -65.5t56.5 -39.5t71.5 -13q31 0 63 6.5t53 17.5v387zM416 728q-4 -58 -38 -92.5t-91 -34.5t-91.5 34.5t-38.5 92.5l41 6q8 -44 29 -66t60 -22t59.5 22
t28.5 66z" />
    <glyph glyph-name="Gdotaccent" unicode="&#x120;" horiz-adv-x="647" 
d="M566 27q-26 -15 -74.5 -26t-114.5 -11q-65 0 -122 23t-100 69.5t-68 116.5t-25 163t25.5 163t69 116.5t101 69.5t122.5 23q54 0 99.5 -10t71.5 -27l-22 -49q-22 14 -61 23.5t-87 9.5q-51 0 -97.5 -19t-82.5 -58t-57 -99.5t-21 -142.5q0 -83 21 -143t55.5 -99t80 -58
t95.5 -19q45 0 81.5 6.5t50.5 14.5v286h-174v51h233v-374zM397 856q0 -17 -12 -29t-29 -12t-29 12t-12 29t12 28.5t29 11.5t29 -11.5t12 -28.5z" />
    <glyph glyph-name="gdotaccent" unicode="&#x121;" horiz-adv-x="549" 
d="M470 -6q0 -104 -55.5 -161.5t-158.5 -57.5q-48 0 -94.5 12t-75.5 27l21 47q26 -14 65.5 -24.5t80.5 -10.5q79 0 119 43.5t40 124.5v52q-23 -11 -56 -18.5t-67 -7.5q-51 0 -93 17t-73 49.5t-48 80.5t-17 110q0 72 19.5 123.5t53.5 84.5t79.5 48.5t98.5 15.5q47 0 89 -10
t72 -27v-518zM412 480q-16 8 -44.5 14t-60.5 6q-39 0 -73.5 -12t-60.5 -38.5t-41 -69t-15 -102.5q0 -52 13.5 -91t37.5 -65.5t56.5 -39.5t71.5 -13q31 0 63 6.5t53 17.5v387zM331 671q0 -17 -12 -29t-29 -12t-29 12t-12 29t12 28.5t29 11.5t29 -11.5t12 -28.5z" />
    <glyph glyph-name="Gcommaaccent" unicode="&#x122;" horiz-adv-x="647" 
d="M566 27q-26 -15 -74.5 -26t-114.5 -11q-65 0 -122 23t-100 69.5t-68 116.5t-25 163t25.5 163t69 116.5t101 69.5t122.5 23q54 0 99.5 -10t71.5 -27l-22 -49q-22 14 -61 23.5t-87 9.5q-51 0 -97.5 -19t-82.5 -58t-57 -99.5t-21 -142.5q0 -83 21 -143t55.5 -99t80 -58
t95.5 -19q45 0 81.5 6.5t50.5 14.5v286h-174v51h233v-374zM313 -215h-47l51 137q16 18 38 18q12 0 20 -5t10 -13z" />
    <glyph glyph-name="gcommaaccent" unicode="&#x123;" horiz-adv-x="549" 
d="M470 -6q0 -104 -55.5 -161.5t-158.5 -57.5q-48 0 -94.5 12t-75.5 27l21 47q26 -14 65.5 -24.5t80.5 -10.5q79 0 119 43.5t40 124.5v52q-23 -11 -56 -18.5t-67 -7.5q-51 0 -93 17t-73 49.5t-48 80.5t-17 110q0 72 19.5 123.5t53.5 84.5t79.5 48.5t98.5 15.5q47 0 89 -10
t72 -27v-518zM412 480q-16 8 -44.5 14t-60.5 6q-39 0 -73.5 -12t-60.5 -38.5t-41 -69t-15 -102.5q0 -52 13.5 -91t37.5 -65.5t56.5 -39.5t71.5 -13q31 0 63 6.5t53 17.5v387zM330 618q-16 -18 -39 -18q-12 0 -20 5t-10 13l73 137h47z" />
    <glyph glyph-name="Hcircumflex" unicode="&#x124;" horiz-adv-x="639" 
d="M493 0v348h-347v-348h-61v724h61v-323h347v323h61v-724h-61zM422 786l-102 91l-102 -91l-28 25l99 100q15 15 31 15q15 0 30 -15l100 -100z" />
    <glyph glyph-name="hcircumflex" unicode="&#x125;" horiz-adv-x="554" 
d="M416 0v368q0 66 -40.5 98t-109.5 32q-33 0 -67.5 -9.5t-60.5 -25.5v-463h-59v785h59v-272q28 15 64 25t72 10q93 0 147 -45t54 -132v-371h-59zM212 822l-102 91l-102 -91l-28 25l99 100q15 15 31 15q15 0 30 -15l100 -100z" />
    <glyph glyph-name="Hbar" unicode="&#x126;" horiz-adv-x="639" 
d="M554 537v-537h-60v348h-348v-348h-61v537h-68v41h68v146h61v-146h348v146h60v-146h68v-41h-68zM494 537h-348v-137h348v137z" />
    <glyph glyph-name="hbar" unicode="&#x127;" horiz-adv-x="554" 
d="M416 0v368q0 66 -40.5 98t-109.5 32q-33 0 -67.5 -9.5t-60.5 -25.5v-463h-59v639h-81v40h81v106h59v-106h168v-40h-168v-126q28 15 64 25t72 10q93 0 147 -45t54 -132v-371h-59z" />
    <glyph glyph-name="Itilde" unicode="&#x128;" horiz-adv-x="235" 
d="M87 0v724h61v-724h-61zM249 880q-5 -31 -24 -54t-52 -23q-20 0 -33 8t-24.5 17.5t-22 17.5t-23.5 8q-20 0 -31.5 -15t-15.5 -37l-35 21q5 31 24.5 54t52.5 23q19 0 32.5 -8t24.5 -17.5t21 -17.5t24 -8q20 0 31.5 15t15.5 37z" />
    <glyph glyph-name="itilde" unicode="&#x129;" horiz-adv-x="227" 
d="M84 0v539h59v-539h-59zM245 695q-5 -31 -24 -54t-52 -23q-20 0 -33 8t-24.5 17.5t-22 17.5t-23.5 8q-20 0 -31.5 -15t-15.5 -37l-35 21q5 31 24.5 54t52.5 23q19 0 32.5 -8t24.5 -17.5t21 -17.5t24 -8q20 0 31.5 15t15.5 37z" />
    <glyph glyph-name="Imacron" unicode="&#x12a;" horiz-adv-x="235" 
d="M87 0v724h61v-724h-61zM3 822v45h232v-45h-232z" />
    <glyph glyph-name="imacron" unicode="&#x12b;" horiz-adv-x="227" 
d="M84 0v539h59v-539h-59zM-1 637v45h232v-45h-232z" />
    <glyph glyph-name="Ibreve" unicode="&#x12c;" horiz-adv-x="235" 
d="M87 0v724h61v-724h-61zM248 913q-4 -58 -38 -92.5t-91 -34.5t-91.5 34.5t-38.5 92.5l41 6q8 -44 29 -66t60 -22t59.5 22t28.5 66z" />
    <glyph glyph-name="ibreve" unicode="&#x12d;" horiz-adv-x="227" 
d="M84 0v539h59v-539h-59zM244 728q-4 -58 -38 -92.5t-91 -34.5t-91.5 34.5t-38.5 92.5l41 6q8 -44 29 -66t60 -22t59.5 22t28.5 66z" />
    <glyph glyph-name="Iogonek" unicode="&#x12e;" horiz-adv-x="235" 
d="M183 -173q-17 -8 -39.5 -13.5t-44.5 -5.5q-44 0 -71.5 23t-27.5 62q0 32 23.5 60t63.5 51v720h61v-724h-14q-46 -26 -65 -53t-19 -49t15.5 -35t39.5 -13q32 0 63 14z" />
    <glyph glyph-name="iogonek" unicode="&#x12f;" horiz-adv-x="227" 
d="M155 700q0 -17 -12 -29t-29 -12t-29.5 12t-12.5 29t12.5 29t29.5 12t29 -12t12 -29zM178 -173q-17 -8 -39 -13.5t-44 -5.5q-44 0 -72 23t-28 62q0 32 24 60.5t65 51.5v534h59v-539h-13q-46 -26 -65 -53t-19 -49t15 -35t39 -13q33 0 64 14z" />
    <glyph glyph-name="Idotaccent" unicode="&#x130;" horiz-adv-x="235" 
d="M87 0v724h61v-724h-61zM159 856q0 -17 -12 -29t-29 -12t-29 12t-12 29t12 28.5t29 11.5t29 -11.5t12 -28.5z" />
    <glyph glyph-name="dotlessi" unicode="&#x131;" horiz-adv-x="227" 
d="M84 0v539h59v-539h-59z" />
    <glyph glyph-name="IJ" unicode="&#x132;" horiz-adv-x="470" 
d="M383 80q0 -66 -15 -116.5t-43.5 -86.5t-69 -59.5t-91.5 -35.5v55q37 12 66 31.5t49.5 49t31.5 69.5t11 93v644h61v-644zM87 0v724h61v-724h-61z" />
    <glyph glyph-name="ij" unicode="&#x133;" horiz-adv-x="455" 
d="M383 700q0 -17 -12.5 -29t-29.5 -12t-29.5 12t-12.5 29t12.5 29t29.5 12t29.5 -12t12.5 -29zM155 700q0 -17 -12 -29t-29 -12t-29.5 12t-12.5 29t12.5 29t29.5 12t29 -12t12 -29zM371 51q0 -63 -16.5 -110t-43.5 -80t-63 -53t-75 -29v53q28 9 53 26.5t44 44.5t30.5 63.5
t11.5 84.5v488h59v-488zM84 0v539h59v-539h-59z" />
    <glyph glyph-name="Jcircumflex" unicode="&#x134;" horiz-adv-x="235" 
d="M148 80q0 -66 -15 -116.5t-43.5 -86.5t-69 -59.5t-91.5 -35.5v55q37 12 66 31.5t49.5 49t31.5 69.5t11 93v644h61v-644zM221 786l-102 91l-102 -91l-28 25l99 100q15 15 31 15q15 0 30 -15l100 -100z" />
    <glyph glyph-name="jcircumflex" unicode="&#x135;" horiz-adv-x="227" 
d="M143 51q0 -63 -16 -110t-43.5 -80t-63 -53t-74.5 -29v53q28 9 53 26.5t44 44.5t30 63.5t11 84.5v488h59v-488zM217 601l-102 91l-102 -91l-28 25l99 100q15 15 31 15q15 0 30 -15l100 -100z" />
    <glyph glyph-name="Kcommaaccent" unicode="&#x136;" horiz-adv-x="561" 
d="M468 0l-318 376h-2v-376h-61v724h61v-338h2l311 338h74l-316 -343l323 -381h-74zM254 -215h-47l51 137q16 18 38 18q12 0 20 -5t10 -13z" />
    <glyph glyph-name="kcommaaccent" unicode="&#x137;" horiz-adv-x="505" 
d="M414 0l-272 279h-2v-279h-57v785h57v-498h2l259 252h74l-264 -257l277 -282h-74zM228 -215h-47l51 137q16 18 38 18q12 0 20 -5t10 -13z" />
    <glyph glyph-name="kgreenlandic" unicode="&#x138;" horiz-adv-x="505" 
d="M414 0l-272 279h-2v-279h-57v539h57v-252h2l259 252h74l-264 -257l277 -282h-74z" />
    <glyph glyph-name="Lacute" unicode="&#x139;" horiz-adv-x="478" 
d="M87 0v724h61v-671h294v-53h-355zM133 788h-48l75 131q8 10 19 14.5t21 4.5q23 0 29 -19z" />
    <glyph glyph-name="lacute" unicode="&#x13a;" horiz-adv-x="227" 
d="M84 0v785h59v-785h-59zM131 831h-48l75 131q8 10 19 14.5t21 4.5q23 0 29 -19z" />
    <glyph glyph-name="Lcommaaccent" unicode="&#x13b;" horiz-adv-x="478" 
d="M87 0v724h61v-671h294v-53h-355zM229 -215h-47l51 137q16 18 38 18q12 0 20 -5t10 -13z" />
    <glyph glyph-name="lcommaaccent" unicode="&#x13c;" horiz-adv-x="227" 
d="M84 0v785h59v-785h-59zM72 -215h-47l51 137q16 18 38 18q12 0 20 -5t10 -13z" />
    <glyph glyph-name="Lcaron" unicode="&#x13d;" horiz-adv-x="478" 
d="M87 0v724h61v-671h294v-53h-355zM292 560h-40v154q11 16 30 16q20 0 30 -16z" />
    <glyph glyph-name="lcaron" unicode="&#x13e;" horiz-adv-x="227" 
d="M84 0v785h59v-785h-59zM287 622h-40v154q11 16 30 16q20 0 30 -16z" />
    <glyph glyph-name="Ldot" unicode="&#x13f;" horiz-adv-x="478" 
d="M87 0v724h61v-671h294v-53h-355zM337 410q0 -17 -12 -29t-29 -12t-29 12t-12 29t12 28.5t29 11.5t29 -11.5t12 -28.5z" />
    <glyph glyph-name="ldot" unicode="&#x140;" horiz-adv-x="277" 
d="M84 0v785h59v-785h-59zM299 410q0 -17 -12 -29t-29 -12t-29 12t-12 29t12 28.5t29 11.5t29 -11.5t12 -28.5z" />
    <glyph glyph-name="Lslash" unicode="&#x141;" horiz-adv-x="497" 
d="M106 0v386l-77 -43v51l77 44v286h61v-252l137 77v-51l-137 -77v-368h294v-53h-355z" />
    <glyph glyph-name="lslash" unicode="&#x142;" horiz-adv-x="243" 
d="M151 457v-457h-59v425l-75 -42v49l75 42v311h59v-279l75 43v-49z" />
    <glyph glyph-name="Nacute" unicode="&#x143;" horiz-adv-x="696" 
d="M546 0l-364 577q-15 24 -26 46.5t-15 30.5h-2q0 -4 1 -30t1 -56v-568h-56v724h68l359 -568q14 -23 25.5 -45t16.5 -31h2q0 5 -0.5 30.5t-0.5 56.5v557h56v-724h-65zM358 788h-48l75 131q8 10 19 14.5t21 4.5q23 0 29 -19z" />
    <glyph glyph-name="nacute" unicode="&#x144;" horiz-adv-x="554" 
d="M416 0v368q0 60 -36.5 96t-110.5 36q-41 0 -74.5 -6.5t-56.5 -15.5v-478h-59v512q37 17 85.5 27t104.5 10q101 0 153.5 -47t52.5 -131v-371h-59zM273 603h-48l75 131q8 10 19 14.5t21 4.5q23 0 29 -19z" />
    <glyph glyph-name="Ncommaaccent" unicode="&#x145;" horiz-adv-x="696" 
d="M546 0l-364 577q-15 24 -26 46.5t-15 30.5h-2q0 -4 1 -30t1 -56v-568h-56v724h68l359 -568q14 -23 25.5 -45t16.5 -31h2q0 5 -0.5 30.5t-0.5 56.5v557h56v-724h-65zM307 -215h-47l51 137q16 18 38 18q12 0 20 -5t10 -13z" />
    <glyph glyph-name="ncommaaccent" unicode="&#x146;" horiz-adv-x="554" 
d="M416 0v368q0 60 -36.5 96t-110.5 36q-41 0 -74.5 -6.5t-56.5 -15.5v-478h-59v512q37 17 85.5 27t104.5 10q101 0 153.5 -47t52.5 -131v-371h-59zM243 -215h-47l51 137q16 18 38 18q12 0 20 -5t10 -13z" />
    <glyph glyph-name="Ncaron" unicode="&#x147;" horiz-adv-x="696" 
d="M546 0l-364 577q-15 24 -26 46.5t-15 30.5h-2q0 -4 1 -30t1 -56v-568h-56v724h68l359 -568q14 -23 25.5 -45t16.5 -31h2q0 5 -0.5 30.5t-0.5 56.5v557h56v-724h-65zM379 804q-16 -16 -30 -16q-15 0 -31 16l-99 100l28 24l102 -91l102 91l28 -24z" />
    <glyph glyph-name="ncaron" unicode="&#x148;" horiz-adv-x="554" 
d="M416 0v368q0 60 -36.5 96t-110.5 36q-41 0 -74.5 -6.5t-56.5 -15.5v-478h-59v512q37 17 85.5 27t104.5 10q101 0 153.5 -47t52.5 -131v-371h-59zM293 619q-16 -16 -30 -16q-15 0 -31 16l-99 100l28 24l102 -91l102 91l28 -24z" />
    <glyph glyph-name="napostrophe" unicode="&#x149;" horiz-adv-x="554" 
d="M416 0v368q0 60 -36.5 96t-110.5 36q-41 0 -74.5 -6.5t-56.5 -15.5v-478h-59v512q37 17 85.5 27t104.5 10q101 0 153.5 -47t52.5 -131v-371h-59zM41 622h-40v154q11 16 30 16q20 0 30 -16z" />
    <glyph glyph-name="Eng" unicode="&#x14a;" horiz-adv-x="696" 
d="M611 48q0 -60 -15.5 -105.5t-41.5 -78.5t-60.5 -53.5t-72.5 -30.5l-15 48q25 7 49 20.5t43.5 34t33 48t19.5 63.5l-369 583q-13 20 -24.5 43t-16.5 34h-2q1 -11 1.5 -37t0.5 -49v-568h-56v724h68l359 -568q14 -23 25.5 -44t16.5 -32h2q0 8 -0.5 32t-0.5 55v557h56v-676z
" />
    <glyph glyph-name="eng" unicode="&#x14b;" horiz-adv-x="554" 
d="M475 43q0 -59 -15 -103.5t-40 -76t-57 -51.5t-66 -30l-20 47q28 9 53 26.5t44 43.5t30.5 61.5t11.5 82.5v325q0 60 -36.5 96t-110.5 36q-41 0 -74.5 -6.5t-56.5 -15.5v-478h-59v512q37 17 85.5 27t104.5 10q101 0 153.5 -47t52.5 -131v-328z" />
    <glyph glyph-name="Omacron" unicode="&#x14c;" horiz-adv-x="676" 
d="M614 362q0 -77 -17.5 -144.5t-52 -118t-86.5 -80t-120 -29.5t-120 29.5t-86.5 80t-52 118t-17.5 144.5q0 76 17.5 144t52 118.5t86.5 80t120 29.5t120 -29.5t86.5 -80t52 -118.5t17.5 -144zM553 362q0 66 -14 123.5t-41 101t-67 68.5t-93 25t-93 -25t-67 -68.5t-41 -101
t-14 -123.5t14 -123.5t41 -101t67 -68.5t93 -25t93 25t67 68.5t41 101t14 123.5zM221 822v45h232v-45h-232z" />
    <glyph glyph-name="omacron" unicode="&#x14d;" horiz-adv-x="560" 
d="M502 270q0 -60 -14 -111t-42 -88.5t-69.5 -59t-96.5 -21.5t-96.5 21.5t-69.5 59t-42 88.5t-14 111t14 111t42 88.5t69.5 58.5t96.5 21t96.5 -21t69.5 -58.5t42 -88.5t14 -111zM443 270q0 49 -10 91.5t-30 73t-50.5 48t-72.5 17.5t-72.5 -17.5t-50.5 -48t-30 -73
t-10 -91.5q0 -50 10 -92t30 -72.5t50.5 -48t72.5 -17.5t72.5 17.5t50.5 48t30 72.5t10 92zM164 637v45h232v-45h-232z" />
    <glyph glyph-name="Obreve" unicode="&#x14e;" horiz-adv-x="676" 
d="M614 362q0 -77 -17.5 -144.5t-52 -118t-86.5 -80t-120 -29.5t-120 29.5t-86.5 80t-52 118t-17.5 144.5q0 76 17.5 144t52 118.5t86.5 80t120 29.5t120 -29.5t86.5 -80t52 -118.5t17.5 -144zM553 362q0 66 -14 123.5t-41 101t-67 68.5t-93 25t-93 -25t-67 -68.5t-41 -101
t-14 -123.5t14 -123.5t41 -101t67 -68.5t93 -25t93 25t67 68.5t41 101t14 123.5zM466 913q-4 -58 -38 -92.5t-91 -34.5t-91.5 34.5t-38.5 92.5l41 6q8 -44 29 -66t60 -22t59.5 22t28.5 66z" />
    <glyph glyph-name="obreve" unicode="&#x14f;" horiz-adv-x="560" 
d="M502 270q0 -60 -14 -111t-42 -88.5t-69.5 -59t-96.5 -21.5t-96.5 21.5t-69.5 59t-42 88.5t-14 111t14 111t42 88.5t69.5 58.5t96.5 21t96.5 -21t69.5 -58.5t42 -88.5t14 -111zM443 270q0 49 -10 91.5t-30 73t-50.5 48t-72.5 17.5t-72.5 -17.5t-50.5 -48t-30 -73
t-10 -91.5q0 -50 10 -92t30 -72.5t50.5 -48t72.5 -17.5t72.5 17.5t50.5 48t30 72.5t10 92zM409 728q-4 -58 -38 -92.5t-91 -34.5t-91.5 34.5t-38.5 92.5l41 6q8 -44 29 -66t60 -22t59.5 22t28.5 66z" />
    <glyph glyph-name="Ohungarumlaut" unicode="&#x150;" horiz-adv-x="676" 
d="M614 362q0 -77 -17.5 -144.5t-52 -118t-86.5 -80t-120 -29.5t-120 29.5t-86.5 80t-52 118t-17.5 144.5q0 76 17.5 144t52 118.5t86.5 80t120 29.5t120 -29.5t86.5 -80t52 -118.5t17.5 -144zM553 362q0 66 -14 123.5t-41 101t-67 68.5t-93 25t-93 -25t-67 -68.5t-41 -101
t-14 -123.5t14 -123.5t41 -101t67 -68.5t93 -25t93 25t67 68.5t41 101t14 123.5zM414 788h-43l78 131q15 19 36 19t26 -19zM277 788h-43l78 131q15 19 36 19t26 -19z" />
    <glyph glyph-name="ohungarumlaut" unicode="&#x151;" horiz-adv-x="560" 
d="M502 270q0 -60 -14 -111t-42 -88.5t-69.5 -59t-96.5 -21.5t-96.5 21.5t-69.5 59t-42 88.5t-14 111t14 111t42 88.5t69.5 58.5t96.5 21t96.5 -21t69.5 -58.5t42 -88.5t14 -111zM443 270q0 49 -10 91.5t-30 73t-50.5 48t-72.5 17.5t-72.5 -17.5t-50.5 -48t-30 -73
t-10 -91.5q0 -50 10 -92t30 -72.5t50.5 -48t72.5 -17.5t72.5 17.5t50.5 48t30 72.5t10 92zM357 603h-43l78 131q15 19 36 19t26 -19zM220 603h-43l78 131q15 19 36 19t26 -19z" />
    <glyph glyph-name="OE" unicode="&#x152;" horiz-adv-x="915" 
d="M500 0q-28 -5 -55 -7.5t-53 -2.5q-158 0 -244 97t-86 275t86 275t244 97q26 0 53 -2.5t55 -7.5h363v-53h-310v-270h286v-53h-286v-295h310v-53h-363zM493 671q-27 5 -52 7.5t-48 2.5q-131 0 -200.5 -82t-69.5 -237t69.5 -237t200.5 -82q23 0 48 2.5t52 7.5v618z" />
    <glyph glyph-name="oe" unicode="&#x153;" horiz-adv-x="932" 
d="M874 309q0 -7 -1 -15l-377 -56q6 -100 58.5 -149.5t138.5 -49.5q41 0 79.5 9.5t64.5 24.5l20 -46q-27 -16 -71 -26.5t-95 -10.5q-81 0 -137.5 35.5t-82.5 110.5q-21 -67 -68.5 -106.5t-122.5 -39.5q-55 0 -96.5 21.5t-69.5 59t-42 88.5t-14 111t14 111t42 88.5t69.5 58.5
t96.5 21q74 0 121.5 -39t68.5 -106q23 69 73.5 107t123.5 38q95 0 151 -58.5t56 -167.5v-14zM443 270q0 49 -10 91.5t-30 73t-50.5 48t-72.5 17.5t-72.5 -17.5t-50.5 -48t-30 -73t-10 -91.5q0 -50 10 -92t30 -72.5t50.5 -48t72.5 -17.5t72.5 17.5t50.5 48t30 72.5t10 92z
M817 330q-1 88 -42 130t-109 42q-40 0 -71.5 -15.5t-54 -44.5t-34.5 -69.5t-13 -89.5z" />
    <glyph glyph-name="Racute" unicode="&#x154;" horiz-adv-x="595" 
d="M487 0l-124 242q-22 43 -52.5 65t-80.5 22h-83v-329h-60v696q36 17 85 27.5t100 10.5q61 0 107.5 -15t77.5 -41.5t46.5 -62.5t15.5 -79q0 -45 -13 -78t-37 -56t-57 -36.5t-72 -19.5v-2q27 -12 47.5 -36.5t37.5 -57.5l129 -250h-67zM459 534q0 67 -46 108.5t-140 41.5
q-35 0 -69.5 -6t-56.5 -15v-285h103q48 0 86.5 8t66 26.5t42 48t14.5 73.5zM301 788h-48l75 131q8 10 19 14.5t21 4.5q23 0 29 -19z" />
    <glyph glyph-name="racute" unicode="&#x155;" horiz-adv-x="344" 
d="M298 496q-18 3 -40 3q-32 0 -65.5 -5.5t-54.5 -15.5v-478h-59v512q34 17 84.5 27t101.5 10q17 0 29.5 -0.5t16.5 -1.5zM185 603h-48l75 131q8 10 19 14.5t21 4.5q23 0 29 -19z" />
    <glyph glyph-name="Rcommaaccent" unicode="&#x156;" horiz-adv-x="595" 
d="M487 0l-124 242q-22 43 -52.5 65t-80.5 22h-83v-329h-60v696q36 17 85 27.5t100 10.5q61 0 107.5 -15t77.5 -41.5t46.5 -62.5t15.5 -79q0 -45 -13 -78t-37 -56t-57 -36.5t-72 -19.5v-2q27 -12 47.5 -36.5t37.5 -57.5l129 -250h-67zM459 534q0 67 -46 108.5t-140 41.5
q-35 0 -69.5 -6t-56.5 -15v-285h103q48 0 86.5 8t66 26.5t42 48t14.5 73.5zM263 -215h-47l51 137q16 18 38 18q12 0 20 -5t10 -13z" />
    <glyph glyph-name="rcommaaccent" unicode="&#x157;" horiz-adv-x="344" 
d="M298 496q-18 3 -40 3q-32 0 -65.5 -5.5t-54.5 -15.5v-478h-59v512q34 17 84.5 27t101.5 10q17 0 29.5 -0.5t16.5 -1.5zM73 -215h-47l51 137q16 18 38 18q12 0 20 -5t10 -13z" />
    <glyph glyph-name="Rcaron" unicode="&#x158;" horiz-adv-x="595" 
d="M487 0l-124 242q-22 43 -52.5 65t-80.5 22h-83v-329h-60v696q36 17 85 27.5t100 10.5q61 0 107.5 -15t77.5 -41.5t46.5 -62.5t15.5 -79q0 -45 -13 -78t-37 -56t-57 -36.5t-72 -19.5v-2q27 -12 47.5 -36.5t37.5 -57.5l129 -250h-67zM459 534q0 67 -46 108.5t-140 41.5
q-35 0 -69.5 -6t-56.5 -15v-285h103q48 0 86.5 8t66 26.5t42 48t14.5 73.5zM314 804q-16 -16 -30 -16q-15 0 -31 16l-99 100l28 24l102 -91l102 91l28 -24z" />
    <glyph glyph-name="rcaron" unicode="&#x159;" horiz-adv-x="344" 
d="M298 496q-18 3 -40 3q-32 0 -65.5 -5.5t-54.5 -15.5v-478h-59v512q34 17 84.5 27t101.5 10q17 0 29.5 -0.5t16.5 -1.5zM220 619q-16 -16 -30 -16q-15 0 -31 16l-99 100l28 24l102 -91l102 91l28 -24z" />
    <glyph glyph-name="Sacute" unicode="&#x15a;" horiz-adv-x="522" 
d="M461 190q0 -47 -18 -84t-49.5 -63t-75.5 -39.5t-96 -13.5q-92 0 -169 37l23 52q66 -34 145 -34q39 0 71.5 9.5t56 28t37 45t13.5 61.5q0 45 -25 73.5t-63 50t-81.5 40t-81.5 43t-63 60t-25 90.5q0 44 16.5 79t45.5 59t68.5 37t86.5 13q86 0 154 -37l-23 -50
q-29 16 -60.5 24.5t-69.5 8.5q-34 0 -63 -9t-50 -25.5t-32.5 -41.5t-11.5 -56q0 -44 25 -72t63 -49t82 -39.5t82 -43.5t63 -61.5t25 -92.5zM270 788h-48l75 131q8 10 19 14.5t21 4.5q23 0 29 -19z" />
    <glyph glyph-name="sacute" unicode="&#x15b;" horiz-adv-x="448" 
d="M393 138q0 -67 -51 -107.5t-141 -40.5q-40 0 -79.5 9.5t-74.5 27.5l23 46q27 -15 61.5 -24.5t68.5 -9.5q60 0 96 27t36 73q0 24 -9 41.5t-25.5 30.5t-39 23t-48.5 20q-30 11 -57 24t-47.5 30.5t-32.5 42t-12 59.5q0 29 11.5 54.5t33 44t53.5 29.5t73 11q40 0 76.5 -9.5
t65.5 -27.5l-23 -44q-23 15 -52 24t-63 9q-55 0 -85 -26.5t-30 -64.5q0 -24 9 -41t25 -29.5t37 -22t45 -18.5q31 -12 59.5 -25t50 -31t34 -43t12.5 -62zM234 603h-48l75 131q8 10 19 14.5t21 4.5q23 0 29 -19z" />
    <glyph glyph-name="Scircumflex" unicode="&#x15c;" horiz-adv-x="522" 
d="M461 190q0 -47 -18 -84t-49.5 -63t-75.5 -39.5t-96 -13.5q-92 0 -169 37l23 52q66 -34 145 -34q39 0 71.5 9.5t56 28t37 45t13.5 61.5q0 45 -25 73.5t-63 50t-81.5 40t-81.5 43t-63 60t-25 90.5q0 44 16.5 79t45.5 59t68.5 37t86.5 13q86 0 154 -37l-23 -50
q-29 16 -60.5 24.5t-69.5 8.5q-34 0 -63 -9t-50 -25.5t-32.5 -41.5t-11.5 -56q0 -44 25 -72t63 -49t82 -39.5t82 -43.5t63 -61.5t25 -92.5zM360 786l-102 91l-102 -91l-28 25l99 100q15 15 31 15q15 0 30 -15l100 -100z" />
    <glyph glyph-name="scircumflex" unicode="&#x15d;" horiz-adv-x="448" 
d="M393 138q0 -67 -51 -107.5t-141 -40.5q-40 0 -79.5 9.5t-74.5 27.5l23 46q27 -15 61.5 -24.5t68.5 -9.5q60 0 96 27t36 73q0 24 -9 41.5t-25.5 30.5t-39 23t-48.5 20q-30 11 -57 24t-47.5 30.5t-32.5 42t-12 59.5q0 29 11.5 54.5t33 44t53.5 29.5t73 11q40 0 76.5 -9.5
t65.5 -27.5l-23 -44q-23 15 -52 24t-63 9q-55 0 -85 -26.5t-30 -64.5q0 -24 9 -41t25 -29.5t37 -22t45 -18.5q31 -12 59.5 -25t50 -31t34 -43t12.5 -62zM328 601l-102 91l-102 -91l-28 25l99 100q15 15 31 15q15 0 30 -15l100 -100z" />
    <glyph glyph-name="Scedilla" unicode="&#x15e;" horiz-adv-x="522" 
d="M461 190q0 -47 -18 -84t-49.5 -63t-75.5 -39.5t-96 -13.5q-92 0 -169 37l23 52q66 -34 145 -34q39 0 71.5 9.5t56 28t37 45t13.5 61.5q0 45 -25 73.5t-63 50t-81.5 40t-81.5 43t-63 60t-25 90.5q0 44 16.5 79t45.5 59t68.5 37t86.5 13q86 0 154 -37l-23 -50
q-29 16 -60.5 24.5t-69.5 8.5q-34 0 -63 -9t-50 -25.5t-32.5 -41.5t-11.5 -56q0 -44 25 -72t63 -49t82 -39.5t82 -43.5t63 -61.5t25 -92.5zM337 -124q0 -38 -39.5 -57.5t-111.5 -19.5q-17 0 -34.5 1t-37.5 3l19 35q27 -3 53 -3q43 0 71 10t28 31q0 32 -63 32q-24 0 -54 -3
l18 34q27 3 48 3q58 0 80.5 -19.5t22.5 -46.5z" />
    <glyph glyph-name="scedilla" unicode="&#x15f;" horiz-adv-x="448" 
d="M393 138q0 -67 -51 -107.5t-141 -40.5q-40 0 -79.5 9.5t-74.5 27.5l23 46q27 -15 61.5 -24.5t68.5 -9.5q60 0 96 27t36 73q0 24 -9 41.5t-25.5 30.5t-39 23t-48.5 20q-30 11 -57 24t-47.5 30.5t-32.5 42t-12 59.5q0 29 11.5 54.5t33 44t53.5 29.5t73 11q40 0 76.5 -9.5
t65.5 -27.5l-23 -44q-23 15 -52 24t-63 9q-55 0 -85 -26.5t-30 -64.5q0 -24 9 -41t25 -29.5t37 -22t45 -18.5q31 -12 59.5 -25t50 -31t34 -43t12.5 -62zM311 -124q0 -38 -39.5 -57.5t-111.5 -19.5q-17 0 -34.5 1t-37.5 3l19 35q27 -3 53 -3q43 0 71 10t28 31q0 32 -63 32
q-24 0 -54 -3l18 34q27 3 48 3q58 0 80.5 -19.5t22.5 -46.5z" />
    <glyph glyph-name="Scaron" unicode="&#x160;" horiz-adv-x="522" 
d="M461 190q0 -47 -18 -84t-49.5 -63t-75.5 -39.5t-96 -13.5q-92 0 -169 37l23 52q66 -34 145 -34q39 0 71.5 9.5t56 28t37 45t13.5 61.5q0 45 -25 73.5t-63 50t-81.5 40t-81.5 43t-63 60t-25 90.5q0 44 16.5 79t45.5 59t68.5 37t86.5 13q86 0 154 -37l-23 -50
q-29 16 -60.5 24.5t-69.5 8.5q-34 0 -63 -9t-50 -25.5t-32.5 -41.5t-11.5 -56q0 -44 25 -72t63 -49t82 -39.5t82 -43.5t63 -61.5t25 -92.5zM286 804q-16 -16 -30 -16q-15 0 -31 16l-99 100l28 24l102 -91l102 91l28 -24z" />
    <glyph glyph-name="scaron" unicode="&#x161;" horiz-adv-x="448" 
d="M393 138q0 -67 -51 -107.5t-141 -40.5q-40 0 -79.5 9.5t-74.5 27.5l23 46q27 -15 61.5 -24.5t68.5 -9.5q60 0 96 27t36 73q0 24 -9 41.5t-25.5 30.5t-39 23t-48.5 20q-30 11 -57 24t-47.5 30.5t-32.5 42t-12 59.5q0 29 11.5 54.5t33 44t53.5 29.5t73 11q40 0 76.5 -9.5
t65.5 -27.5l-23 -44q-23 15 -52 24t-63 9q-55 0 -85 -26.5t-30 -64.5q0 -24 9 -41t25 -29.5t37 -22t45 -18.5q31 -12 59.5 -25t50 -31t34 -43t12.5 -62zM256 619q-16 -16 -30 -16q-15 0 -31 16l-99 100l28 24l102 -91l102 91l28 -24z" />
    <glyph glyph-name="Tcommaaccent" unicode="&#x162;" horiz-adv-x="512" 
d="M287 671v-671h-61v671h-193v53h446v-53h-192zM356 -124q0 -38 -39.5 -57.5t-111.5 -19.5q-17 0 -34.5 1t-37.5 3l19 35q27 -3 53 -3q43 0 71 10t28 31q0 32 -63 32q-24 0 -54 -3l18 34q27 3 48 3q58 0 80.5 -19.5t22.5 -46.5z" />
    <glyph glyph-name="tcommaaccent" unicode="&#x163;" horiz-adv-x="338" 
d="M297 1q-14 -6 -42 -6q-60 0 -98.5 33t-38.5 102v364h-84v45h84v134l57 22v-156h122v-45h-122v-362q0 -45 26.5 -65t62.5 -20q20 0 33 5v-51zM290 -124q0 -38 -39.5 -57.5t-111.5 -19.5q-17 0 -34.5 1t-37.5 3l19 35q27 -3 53 -3q43 0 71 10t28 31q0 32 -63 32
q-24 0 -54 -3l18 34q27 3 48 3q58 0 80.5 -19.5t22.5 -46.5z" />
    <glyph glyph-name="Tcaron" unicode="&#x164;" horiz-adv-x="512" 
d="M287 671v-671h-61v671h-193v53h446v-53h-192zM286 804q-16 -16 -30 -16q-15 0 -31 16l-99 100l28 24l102 -91l102 91l28 -24z" />
    <glyph glyph-name="tcaron" unicode="&#x165;" horiz-adv-x="338" 
d="M297 1q-14 -6 -42 -6q-60 0 -98.5 33t-38.5 102v364h-84v45h84v134l57 22v-156h122v-45h-122v-362q0 -45 26.5 -65t62.5 -20q20 0 33 5v-51zM319 622h-40v154q11 16 30 16q20 0 30 -16z" />
    <glyph glyph-name="Tbar" unicode="&#x166;" horiz-adv-x="512" 
d="M287 671v-237h155v-45h-155v-389h-61v389h-155v45h155v237h-193v53h446v-53h-192z" />
    <glyph glyph-name="tbar" unicode="&#x167;" horiz-adv-x="338" 
d="M297 1q-14 -6 -42 -6q-60 0 -98.5 33t-38.5 102v179h-84v38h84v148h-84v44h84v134l57 22v-156h122v-44h-122v-148h122v-38h-122v-177q0 -45 26.5 -65t62.5 -20q20 0 33 5v-51z" />
    <glyph glyph-name="Utilde" unicode="&#x168;" horiz-adv-x="628" 
d="M543 204q0 -50 -18 -89.5t-48.5 -67.5t-72.5 -42.5t-90 -14.5t-90 14.5t-72.5 42.5t-48.5 67.5t-18 89.5v520h61v-520q0 -38 13 -67.5t36 -50t53.5 -31.5t65.5 -11t65.5 11t53.5 31.5t36 50t13 67.5v520h61v-520zM443 880q-5 -31 -24 -54t-52 -23q-20 0 -33 8t-24.5 17.5
t-22 17.5t-23.5 8q-20 0 -31.5 -15t-15.5 -37l-35 21q5 31 24.5 54t52.5 23q19 0 32.5 -8t24.5 -17.5t21 -17.5t24 -8q20 0 31.5 15t15.5 37z" />
    <glyph glyph-name="utilde" unicode="&#x169;" horiz-adv-x="545" 
d="M466 27q-29 -15 -79.5 -26t-108.5 -11q-96 0 -147.5 45t-51.5 139v365h59v-366q0 -133 140 -133q42 0 76.5 7t52.5 15v477h59v-512zM403 695q-5 -31 -24 -54t-52 -23q-20 0 -33 8t-24.5 17.5t-22 17.5t-23.5 8q-20 0 -31.5 -15t-15.5 -37l-35 21q5 31 24.5 54t52.5 23
q19 0 32.5 -8t24.5 -17.5t21 -17.5t24 -8q20 0 31.5 15t15.5 37z" />
    <glyph glyph-name="Umacron" unicode="&#x16a;" horiz-adv-x="628" 
d="M543 204q0 -50 -18 -89.5t-48.5 -67.5t-72.5 -42.5t-90 -14.5t-90 14.5t-72.5 42.5t-48.5 67.5t-18 89.5v520h61v-520q0 -38 13 -67.5t36 -50t53.5 -31.5t65.5 -11t65.5 11t53.5 31.5t36 50t13 67.5v520h61v-520zM198 822v45h232v-45h-232z" />
    <glyph glyph-name="umacron" unicode="&#x16b;" horiz-adv-x="545" 
d="M466 27q-29 -15 -79.5 -26t-108.5 -11q-96 0 -147.5 45t-51.5 139v365h59v-366q0 -133 140 -133q42 0 76.5 7t52.5 15v477h59v-512zM157 637v45h232v-45h-232z" />
    <glyph glyph-name="Ubreve" unicode="&#x16c;" horiz-adv-x="628" 
d="M543 204q0 -50 -18 -89.5t-48.5 -67.5t-72.5 -42.5t-90 -14.5t-90 14.5t-72.5 42.5t-48.5 67.5t-18 89.5v520h61v-520q0 -38 13 -67.5t36 -50t53.5 -31.5t65.5 -11t65.5 11t53.5 31.5t36 50t13 67.5v520h61v-520zM443 913q-4 -58 -38 -92.5t-91 -34.5t-91.5 34.5
t-38.5 92.5l41 6q8 -44 29 -66t60 -22t59.5 22t28.5 66z" />
    <glyph glyph-name="ubreve" unicode="&#x16d;" horiz-adv-x="545" 
d="M466 27q-29 -15 -79.5 -26t-108.5 -11q-96 0 -147.5 45t-51.5 139v365h59v-366q0 -133 140 -133q42 0 76.5 7t52.5 15v477h59v-512zM402 728q-4 -58 -38 -92.5t-91 -34.5t-91.5 34.5t-38.5 92.5l41 6q8 -44 29 -66t60 -22t59.5 22t28.5 66z" />
    <glyph glyph-name="Uring" unicode="&#x16e;" horiz-adv-x="628" 
d="M543 204q0 -50 -18 -89.5t-48.5 -67.5t-72.5 -42.5t-90 -14.5t-90 14.5t-72.5 42.5t-48.5 67.5t-18 89.5v520h61v-520q0 -38 13 -67.5t36 -50t53.5 -31.5t65.5 -11t65.5 11t53.5 31.5t36 50t13 67.5v520h61v-520zM403 869q0 -36 -26 -61t-63 -25t-63 25t-26 61t26 61
t63 25t63 -25t26 -61zM368 869q0 23 -15.5 38.5t-38.5 15.5t-38.5 -15.5t-15.5 -38.5t15.5 -38t38.5 -15t38.5 15t15.5 38z" />
    <glyph glyph-name="uring" unicode="&#x16f;" horiz-adv-x="545" 
d="M466 27q-29 -15 -79.5 -26t-108.5 -11q-96 0 -147.5 45t-51.5 139v365h59v-366q0 -133 140 -133q42 0 76.5 7t52.5 15v477h59v-512zM362 684q0 -36 -26 -61t-63 -25t-63 25t-26 61t26 61t63 25t63 -25t26 -61zM327 684q0 23 -15.5 38.5t-38.5 15.5t-38.5 -15.5
t-15.5 -38.5t15.5 -38t38.5 -15t38.5 15t15.5 38z" />
    <glyph glyph-name="Uhungarumlaut" unicode="&#x170;" horiz-adv-x="628" 
d="M543 204q0 -50 -18 -89.5t-48.5 -67.5t-72.5 -42.5t-90 -14.5t-90 14.5t-72.5 42.5t-48.5 67.5t-18 89.5v520h61v-520q0 -38 13 -67.5t36 -50t53.5 -31.5t65.5 -11t65.5 11t53.5 31.5t36 50t13 67.5v520h61v-520zM385 788h-43l78 131q15 19 36 19t26 -19zM248 788h-43
l78 131q15 19 36 19t26 -19z" />
    <glyph glyph-name="uhungarumlaut" unicode="&#x171;" horiz-adv-x="545" 
d="M466 27q-29 -15 -79.5 -26t-108.5 -11q-96 0 -147.5 45t-51.5 139v365h59v-366q0 -133 140 -133q42 0 76.5 7t52.5 15v477h59v-512zM348 603h-43l78 131q15 19 36 19t26 -19zM211 603h-43l78 131q15 19 36 19t26 -19z" />
    <glyph glyph-name="Uogonek" unicode="&#x172;" horiz-adv-x="628" 
d="M543 204q0 -42 -12.5 -76.5t-35 -61t-53.5 -44t-67 -25.5q-43 -25 -61 -51.5t-18 -47.5q0 -22 15 -35t39 -13q33 0 64 14l15 -37q-17 -8 -39.5 -13.5t-44.5 -5.5q-44 0 -71.5 23t-27.5 62q0 27 17 51.5t48 45.5q-48 0 -89 15t-71.5 43t-48 67t-17.5 89v520h61v-520
q0 -38 13 -67.5t36 -50t53.5 -31.5t65.5 -11t65.5 11t53.5 31.5t36 50t13 67.5v520h61v-520z" />
    <glyph glyph-name="uogonek" unicode="&#x173;" horiz-adv-x="545" 
d="M466 27q-14 -8 -39 -16q-57 -28 -81.5 -58.5t-24.5 -54.5q0 -22 15 -35t39 -13q33 0 64 14l15 -37q-17 -8 -39.5 -13.5t-44.5 -5.5q-44 0 -71.5 23t-27.5 62q0 28 19 53t51 47q-15 -2 -30.5 -2.5t-32.5 -0.5q-96 0 -147.5 45t-51.5 139v365h59v-366q0 -133 140 -133
q42 0 76.5 7t52.5 15v477h59v-512z" />
    <glyph glyph-name="Wcircumflex" unicode="&#x174;" horiz-adv-x="906" 
d="M676 0h-64l-140 555q-6 25 -11 52t-7 43h-2q-1 -6 -2.5 -17t-4 -24.5t-5.5 -27.5t-6 -26l-140 -555h-64l-185 724h62l137 -560q3 -14 6.5 -28.5t6 -28t4 -24t2.5 -15.5h2q2 11 6.5 39t12.5 57l140 560h58l140 -560q3 -13 6.5 -27.5t6 -28t4 -24.5t2.5 -16h2q2 10 7 38.5
t12 57.5l137 560h62zM555 786l-102 91l-102 -91l-28 25l99 100q15 15 31 15q15 0 30 -15l100 -100z" />
    <glyph glyph-name="wcircumflex" unicode="&#x175;" horiz-adv-x="820" 
d="M610 0h-60l-122 407q-3 9 -8 30.5t-9 41.5h-2q-2 -12 -6.5 -32t-10.5 -40l-122 -407h-60l-167 539h59l120 -405q6 -21 10.5 -44.5t6.5 -33.5h2q2 8 7 31.5t12 46.5l120 405h60l120 -405q8 -26 12.5 -48t6.5 -30h2q2 8 6 30t12 48l119 405h59zM512 601l-102 91l-102 -91
l-28 25l99 100q15 15 31 15q15 0 30 -15l100 -100z" />
    <glyph glyph-name="Ycircumflex" unicode="&#x176;" horiz-adv-x="597" 
d="M329 293v-293h-61v293l-238 431h67l200 -369h2l200 369h68zM400 786l-102 91l-102 -91l-28 25l99 100q15 15 31 15q15 0 30 -15l100 -100z" />
    <glyph glyph-name="ycircumflex" unicode="&#x177;" horiz-adv-x="537" 
d="M219 -215h-61l81 215l-203 539h64l148 -417q7 -20 11.5 -38t7.5 -34h2q2 10 7 29.5t13 42.5l148 417h64zM372 601l-102 91l-102 -91l-28 25l99 100q15 15 31 15q15 0 30 -15l100 -100z" />
    <glyph glyph-name="Ydieresis" unicode="&#x178;" horiz-adv-x="597" 
d="M329 293v-293h-61v293l-238 431h67l200 -369h2l200 369h68zM251 854q0 -16 -11 -27.5t-28 -11.5t-28 11.5t-11 27.5t11 27t28 11t28 -11t11 -27zM426 854q0 -16 -11 -27.5t-28 -11.5t-28 11.5t-11 27.5t11 27t28 11t28 -11t11 -27z" />
    <glyph glyph-name="Zacute" unicode="&#x179;" horiz-adv-x="515" 
d="M33 0l341 671h-324v53h413l-340 -671h344v-53h-434zM260 788h-48l75 131q8 10 19 14.5t21 4.5q23 0 29 -19z" />
    <glyph glyph-name="zacute" unicode="&#x17a;" horiz-adv-x="458" 
d="M35 0l279 489h-264v50h353l-278 -489h287v-50h-377zM232 603h-48l75 131q8 10 19 14.5t21 4.5q23 0 29 -19z" />
    <glyph glyph-name="Zdotaccent" unicode="&#x17b;" horiz-adv-x="515" 
d="M33 0l341 671h-324v53h413l-340 -671h344v-53h-434zM294 856q0 -17 -12 -29t-29 -12t-29 12t-12 29t12 28.5t29 11.5t29 -11.5t12 -28.5z" />
    <glyph glyph-name="zdotaccent" unicode="&#x17c;" horiz-adv-x="458" 
d="M35 0l279 489h-264v50h353l-278 -489h287v-50h-377zM263 671q0 -17 -12 -29t-29 -12t-29 12t-12 29t12 28.5t29 11.5t29 -11.5t12 -28.5z" />
    <glyph glyph-name="Zcaron" unicode="&#x17d;" horiz-adv-x="515" 
d="M33 0l341 671h-324v53h413l-340 -671h344v-53h-434zM278 804q-16 -16 -30 -16q-15 0 -31 16l-99 100l28 24l102 -91l102 91l28 -24z" />
    <glyph glyph-name="zcaron" unicode="&#x17e;" horiz-adv-x="458" 
d="M35 0l279 489h-264v50h353l-278 -489h287v-50h-377zM253 619q-16 -16 -30 -16q-15 0 -31 16l-99 100l28 24l102 -91l102 91l28 -24z" />
    <glyph glyph-name="longs" unicode="&#x17f;" horiz-adv-x="262" 
d="M319 734q-14 3 -32 3q-76 0 -110 -36.5t-34 -120.5v-795h-59v795q0 108 50.5 157.5t147.5 49.5q10 0 19.5 -1t17.5 -3v-49z" />
    <glyph glyph-name="uni018F" unicode="&#x18f;" horiz-adv-x="673" 
d="M611 373q0 -76 -17.5 -145.5t-52.5 -122t-88.5 -84t-126.5 -31.5q-67 0 -117 28t-83 75.5t-49.5 109t-16.5 127.5v14l488 74q-6 63 -26.5 112t-53.5 82.5t-77.5 51t-97.5 17.5q-43 0 -86.5 -7.5t-78.5 -24.5l-23 48q42 19 91 28t101 9q75 0 133.5 -27.5t98.5 -76
t61 -114.5t21 -143zM122 301q2 -51 16 -97.5t39.5 -82t62.5 -57t86 -21.5q57 0 99.5 26.5t70.5 71.5t41.5 103.5t13.5 121.5z" />
    <glyph glyph-name="florin" unicode="&#x192;" horiz-adv-x="548" 
d="M494 669q-8 4 -21.5 7t-27.5 3q-52 0 -77.5 -30t-33.5 -91l-19 -139h140v-50h-146l-55 -424q-11 -82 -51.5 -124.5t-116.5 -42.5q-20 0 -39 4t-33 10l19 50q8 -4 21.5 -7t27.5 -3q52 0 78 30t34 91l54 416h-118v50h125l18 145q11 82 51.5 124.5t116.5 42.5q20 0 39 -4
t33 -10z" />
    <glyph glyph-name="uni01B5" unicode="&#x1b5;" horiz-adv-x="515" 
d="M33 0l179 352h-143v45h166l139 274h-324v53h413l-166 -327h145v-45h-167l-152 -299h344v-53h-434z" />
    <glyph glyph-name="uni01B6" unicode="&#x1b6;" horiz-adv-x="458" 
d="M35 0l146 256h-108v40h131l110 193h-264v50h353l-138 -243h112v-40h-135l-117 -206h287v-50h-377z" />
    <glyph glyph-name="uni01C4" unicode="&#x1c4;" horiz-adv-x="1137" 
d="M577 362q0 -95 -24 -164.5t-66 -116t-98.5 -69t-120.5 -22.5q-57 0 -106 11t-77 26v670q33 17 80.5 27t102.5 10q64 0 120.5 -22.5t98.5 -69t66 -116.5t24 -164zM515 362q0 83 -19.5 143.5t-53 99.5t-78.5 57.5t-95 18.5q-36 0 -69.5 -5.5t-53.5 -14.5v-598q17 -8 50 -14
t73 -6q50 0 95 18.5t78.5 57.5t53 99.5t19.5 143.5zM655 0l341 671h-324v53h413l-340 -671h344v-53h-434zM900 804q-16 -16 -30 -16q-15 0 -31 16l-99 100l28 24l102 -91l102 91l28 -24z" />
    <glyph glyph-name="uni01C5" unicode="&#x1c5;" horiz-adv-x="1091" 
d="M577 362q0 -95 -24 -164.5t-66 -116t-98.5 -69t-120.5 -22.5q-57 0 -106 11t-77 26v670q33 17 80.5 27t102.5 10q64 0 120.5 -22.5t98.5 -69t66 -116.5t24 -164zM515 362q0 83 -19.5 143.5t-53 99.5t-78.5 57.5t-95 18.5q-36 0 -69.5 -5.5t-53.5 -14.5v-598q17 -8 50 -14
t73 -6q50 0 95 18.5t78.5 57.5t53 99.5t19.5 143.5zM668 0l279 489h-264v50h353l-278 -489h287v-50h-377zM885 619q-16 -16 -30 -16q-15 0 -31 16l-99 100l28 24l102 -91l102 91l28 -24z" />
    <glyph glyph-name="uni01C6" unicode="&#x1c6;" horiz-adv-x="1007" 
d="M470 27q-22 -14 -67.5 -25.5t-94.5 -11.5q-60 0 -106.5 19.5t-78.5 55t-48.5 85.5t-16.5 111t16.5 113t48 90t77.5 59t106 21q32 0 60.5 -5t44.5 -11v257h59v-758zM411 480q-14 5 -44 10t-58 5q-47 0 -83 -17.5t-60 -48.5t-36.5 -74t-12.5 -93t12.5 -91t36.5 -70.5
t59.5 -45.5t81.5 -16q29 0 60 6.5t44 14.5v420zM584 0l279 489h-264v50h353l-278 -489h287v-50h-377zM801 619q-16 -16 -30 -16q-15 0 -31 16l-99 100l28 24l102 -91l102 91l28 -24z" />
    <glyph glyph-name="uni01C7" unicode="&#x1c7;" horiz-adv-x="756" 
d="M87 0v724h61v-671h294v-53h-355zM669 80q0 -66 -15 -116.5t-43.5 -86.5t-69 -59.5t-91.5 -35.5v55q37 12 66 31.5t49.5 49t31.5 69.5t11 93v644h61v-644z" />
    <glyph glyph-name="uni01C8" unicode="&#x1c8;" horiz-adv-x="743" 
d="M87 0v724h61v-671h294v-53h-355zM671 700q0 -17 -12 -29t-29 -12t-29.5 12t-12.5 29t12.5 29t29.5 12t29 -12t12 -29zM659 51q0 -63 -16 -110t-43.5 -80t-63 -53t-74.5 -29v53q28 9 53 26.5t44 44.5t30 63.5t11 84.5v488h59v-488z" />
    <glyph glyph-name="uni01C9" unicode="&#x1c9;" horiz-adv-x="469" 
d="M84 0v785h59v-785h-59zM397 700q0 -17 -12 -29t-29 -12t-29.5 12t-12.5 29t12.5 29t29.5 12t29 -12t12 -29zM385 51q0 -63 -16 -110t-43.5 -80t-63 -53t-74.5 -29v53q28 9 53 26.5t44 44.5t30 63.5t11 84.5v488h59v-488z" />
    <glyph glyph-name="uni01CA" unicode="&#x1ca;" horiz-adv-x="931" 
d="M546 0l-364 577q-15 24 -26 46.5t-15 30.5h-2q0 -4 1 -30t1 -56v-568h-56v724h68l359 -568q14 -23 25.5 -45t16.5 -31h2q0 5 -0.5 30.5t-0.5 56.5v557h56v-724h-65zM844 80q0 -66 -15 -116.5t-43.5 -86.5t-69 -59.5t-91.5 -35.5v55q37 12 66 31.5t49.5 49t31.5 69.5
t11 93v644h61v-644z" />
    <glyph glyph-name="uni01CB" unicode="&#x1cb;" horiz-adv-x="923" 
d="M546 0l-364 577q-15 24 -26 46.5t-15 30.5h-2q0 -4 1 -30t1 -56v-568h-56v724h68l359 -568q14 -23 25.5 -45t16.5 -31h2q0 5 -0.5 30.5t-0.5 56.5v557h56v-724h-65zM851 700q0 -17 -12 -29t-29 -12t-29.5 12t-12.5 29t12.5 29t29.5 12t29 -12t12 -29zM839 51
q0 -63 -16 -110t-43.5 -80t-63 -53t-74.5 -29v53q28 9 53 26.5t44 44.5t30 63.5t11 84.5v488h59v-488z" />
    <glyph glyph-name="uni01CC" unicode="&#x1cc;" horiz-adv-x="796" 
d="M416 0v368q0 60 -36.5 96t-110.5 36q-41 0 -74.5 -6.5t-56.5 -15.5v-478h-59v512q37 17 85.5 27t104.5 10q101 0 153.5 -47t52.5 -131v-371h-59zM724 700q0 -17 -12 -29t-29 -12t-29.5 12t-12.5 29t12.5 29t29.5 12t29 -12t12 -29zM712 51q0 -63 -16 -110t-43.5 -80
t-63 -53t-74.5 -29v53q28 9 53 26.5t44 44.5t30 63.5t11 84.5v488h59v-488z" />
    <glyph glyph-name="uni01F1" unicode="&#x1f1;" horiz-adv-x="1137" 
d="M577 362q0 -95 -24 -164.5t-66 -116t-98.5 -69t-120.5 -22.5q-57 0 -106 11t-77 26v670q33 17 80.5 27t102.5 10q64 0 120.5 -22.5t98.5 -69t66 -116.5t24 -164zM515 362q0 83 -19.5 143.5t-53 99.5t-78.5 57.5t-95 18.5q-36 0 -69.5 -5.5t-53.5 -14.5v-598q17 -8 50 -14
t73 -6q50 0 95 18.5t78.5 57.5t53 99.5t19.5 143.5zM655 0l341 671h-324v53h413l-340 -671h344v-53h-434z" />
    <glyph glyph-name="uni01F2" unicode="&#x1f2;" horiz-adv-x="1091" 
d="M577 362q0 -95 -24 -164.5t-66 -116t-98.5 -69t-120.5 -22.5q-57 0 -106 11t-77 26v670q33 17 80.5 27t102.5 10q64 0 120.5 -22.5t98.5 -69t66 -116.5t24 -164zM515 362q0 83 -19.5 143.5t-53 99.5t-78.5 57.5t-95 18.5q-36 0 -69.5 -5.5t-53.5 -14.5v-598q17 -8 50 -14
t73 -6q50 0 95 18.5t78.5 57.5t53 99.5t19.5 143.5zM668 0l279 489h-264v50h353l-278 -489h287v-50h-377z" />
    <glyph glyph-name="uni01F3" unicode="&#x1f3;" horiz-adv-x="1007" 
d="M470 27q-22 -14 -67.5 -25.5t-94.5 -11.5q-60 0 -106.5 19.5t-78.5 55t-48.5 85.5t-16.5 111t16.5 113t48 90t77.5 59t106 21q32 0 60.5 -5t44.5 -11v257h59v-758zM411 480q-14 5 -44 10t-58 5q-47 0 -83 -17.5t-60 -48.5t-36.5 -74t-12.5 -93t12.5 -91t36.5 -70.5
t59.5 -45.5t81.5 -16q29 0 60 6.5t44 14.5v420zM584 0l279 489h-264v50h353l-278 -489h287v-50h-377z" />
    <glyph glyph-name="Aringacute" unicode="&#x1fa;" horiz-adv-x="653" 
d="M395 816q-25 -33 -77 -33q-37 0 -63 25t-26 61t26 61t63 25q29 0 51 -17t30 -41l27 50q8 9 18.5 13.5t20.5 4.5q22 0 28 -19zM372 869q0 23 -15.5 38t-38.5 15t-38.5 -15t-15.5 -38t15.5 -38.5t38.5 -15.5t38.5 15.5t15.5 38.5zM562 0l-82 231h-306l-83 -231h-64l265 724
h69l265 -724h-64zM351 592q-10 29 -16 50t-8 32h-2q-2 -11 -8.5 -35.5t-14.5 -46.5l-112 -313h272z" />
    <glyph glyph-name="aringacute" unicode="&#x1fb;" horiz-adv-x="523" 
d="M331 632q-12 -16 -31.5 -25t-45.5 -9q-37 0 -63 25t-26 61t26 61t63 25q29 0 51 -16.5t30 -40.5l27 50q8 9 18.5 13.5t20.5 4.5q22 0 28 -19zM444 27q-14 -8 -34 -14.5t-44 -11.5t-50 -8t-51 -3q-106 0 -159.5 43.5t-53.5 117.5q0 59 29.5 94t77 54.5t107.5 27t121 10.5
v47q0 34 -11 57t-29.5 36.5t-44.5 19t-56 5.5q-38 0 -78 -10t-66 -24l-18 44q15 7 34 13.5t40.5 12t45 8.5t46.5 3q42 0 78 -9t61.5 -29t40 -52.5t14.5 -78.5v-353zM308 684q0 23 -15.5 38.5t-38.5 15.5t-38.5 -15.5t-15.5 -38.5t15.5 -38t38.5 -15t38.5 15t15.5 38z
M387 292q-48 -3 -97.5 -7.5t-89.5 -18t-65.5 -40.5t-25.5 -74q0 -52 38 -83.5t117 -31.5q35 0 70.5 6t52.5 14v235z" />
    <glyph glyph-name="AEacute" unicode="&#x1fc;" horiz-adv-x="910" 
d="M538 0l-50 231h-306l-115 -231h-66l366 724h421v-53h-342l63 -270h269v-53h-257l68 -295h279v-53h-330zM409 592q-5 20 -8 44.5t-5 37.5h-2q-5 -17 -13.5 -38t-19.5 -44l-156 -313h273zM538 788h-48l75 131q8 10 19 14.5t21 4.5q23 0 29 -19z" />
    <glyph glyph-name="aeacute" unicode="&#x1fd;" horiz-adv-x="875" 
d="M817 309q0 -7 -1 -15l-377 -56q6 -100 58 -149.5t138 -49.5q41 0 80 9.5t65 24.5l20 -46q-27 -16 -71 -26.5t-95 -10.5q-81 0 -133 33.5t-75 85.5q-12 -50 -56.5 -84.5t-115.5 -34.5q-100 0 -151 44t-51 117q0 59 29.5 94t77 54.5t107.5 27t121 10.5v47q0 34 -11 57
t-29.5 36.5t-44.5 19t-56 5.5q-38 0 -78 -10t-66 -24l-18 44q29 14 74 25.5t90 11.5q77 0 122 -28t56 -88q26 56 73.5 86t111.5 30q94 0 150 -58.5t56 -167.5v-14zM387 292q-48 -3 -97.5 -7.5t-89.5 -18t-65.5 -40.5t-25.5 -74q0 -52 35.5 -83.5t110.5 -31.5q63 0 97.5 34.5
t34.5 88.5v132zM760 330q-1 88 -42 130t-109 42q-40 0 -71.5 -15.5t-54 -44.5t-34.5 -69.5t-13 -89.5zM448 603h-48l75 131q8 10 19 14.5t21 4.5q23 0 29 -19z" />
    <glyph glyph-name="Oslashacute" unicode="&#x1fe;" horiz-adv-x="676" 
d="M614 362q0 -77 -18 -144.5t-53 -118t-87 -80t-120 -29.5q-52 0 -94.5 17.5t-74.5 49.5l-69 -106l-34 23l75 116q-38 52 -57.5 122t-19.5 150q0 76 17 144t51.5 118.5t86 80t119.5 29.5q54 0 97.5 -19t77.5 -54l67 102l34 -23l-73 -112q37 -51 56 -119.5t19 -146.5z
M481 615q-27 32 -63.5 50t-81.5 18q-54 0 -94.5 -25.5t-67.5 -69t-40.5 -102t-13.5 -124.5q0 -65 13 -121.5t39 -100.5zM556 362q0 63 -12.5 118t-37.5 98l-308 -474q26 -29 60 -46t78 -17q54 0 95 25.5t68.5 69t42 102t14.5 124.5zM343 788h-48l75 131q8 10 19 14.5t21 4.5
q23 0 29 -19z" />
    <glyph glyph-name="oslashacute" unicode="&#x1ff;" horiz-adv-x="560" 
d="M502 270q0 -60 -14 -111t-42 -88.5t-69.5 -59t-96.5 -21.5q-40 0 -73.5 12t-59.5 34l-57 -85l-30 22l60 91q-31 38 -46.5 91t-15.5 115q0 60 14 111t42 88.5t69.5 58.5t96.5 21q79 0 133 -46l56 84l31 -22l-60 -90q31 -38 46.5 -90.5t15.5 -114.5zM386 461
q-20 20 -46.5 31.5t-59.5 11.5q-42 0 -73.5 -18t-52.5 -49.5t-31 -74.5t-10 -92q0 -97 38 -161zM447 270q0 47 -9 88t-28 72l-235 -352q20 -20 46 -31t59 -11q42 0 73.5 18t52.5 49.5t31 74.5t10 92zM283 603h-48l75 131q8 10 19 14.5t21 4.5q23 0 29 -19z" />
    <glyph glyph-name="Scommaaccent" unicode="&#x218;" horiz-adv-x="522" 
d="M461 190q0 -47 -18 -84t-49.5 -63t-75.5 -39.5t-96 -13.5q-92 0 -169 37l23 52q66 -34 145 -34q39 0 71.5 9.5t56 28t37 45t13.5 61.5q0 45 -25 73.5t-63 50t-81.5 40t-81.5 43t-63 60t-25 90.5q0 44 16.5 79t45.5 59t68.5 37t86.5 13q86 0 154 -37l-23 -50
q-29 16 -60.5 24.5t-69.5 8.5q-34 0 -63 -9t-50 -25.5t-32.5 -41.5t-11.5 -56q0 -44 25 -72t63 -49t82 -39.5t82 -43.5t63 -61.5t25 -92.5zM217 -215h-47l51 137q16 18 38 18q12 0 20 -5t10 -13z" />
    <glyph glyph-name="scommaaccent" unicode="&#x219;" horiz-adv-x="448" 
d="M393 138q0 -67 -51 -107.5t-141 -40.5q-40 0 -79.5 9.5t-74.5 27.5l23 46q27 -15 61.5 -24.5t68.5 -9.5q60 0 96 27t36 73q0 24 -9 41.5t-25.5 30.5t-39 23t-48.5 20q-30 11 -57 24t-47.5 30.5t-32.5 42t-12 59.5q0 29 11.5 54.5t33 44t53.5 29.5t73 11q40 0 76.5 -9.5
t65.5 -27.5l-23 -44q-23 15 -52 24t-63 9q-55 0 -85 -26.5t-30 -64.5q0 -24 9 -41t25 -29.5t37 -22t45 -18.5q31 -12 59.5 -25t50 -31t34 -43t12.5 -62zM183 -215h-47l51 137q16 18 38 18q12 0 20 -5t10 -13z" />
    <glyph glyph-name="uni021A" unicode="&#x21a;" horiz-adv-x="512" 
d="M287 671v-671h-61v671h-193v53h446v-53h-192zM217 -215h-47l51 137q16 18 38 18q12 0 20 -5t10 -13z" />
    <glyph glyph-name="uni021B" unicode="&#x21b;" horiz-adv-x="338" 
d="M297 1q-14 -6 -42 -6q-60 0 -98.5 33t-38.5 102v364h-84v45h84v134l57 22v-156h122v-45h-122v-362q0 -45 26.5 -65t62.5 -20q20 0 33 5v-51zM159 -215h-47l51 137q16 18 38 18q12 0 20 -5t10 -13z" />
    <glyph glyph-name="dotlessj" unicode="&#x237;" horiz-adv-x="227" 
d="M143 51q0 -63 -16 -110t-43.5 -80t-63 -53t-74.5 -29v53q28 9 53 26.5t44 44.5t30 63.5t11 84.5v488h59v-488z" />
    <glyph glyph-name="uni0259" unicode="&#x259;" horiz-adv-x="552" 
d="M494 269q0 -62 -15.5 -113.5t-44.5 -88.5t-70.5 -57t-93.5 -20q-48 0 -87 17t-66.5 48.5t-43 77t-15.5 102.5v18l378 56q-6 92 -57.5 142t-138.5 50q-40 0 -78 -9t-67 -25l-20 45q32 17 75.5 27t92.5 10q116 0 183.5 -71t67.5 -209zM115 216q4 -87 45 -133t110 -46
q39 0 70.5 16t53 45.5t33.5 71.5t12 94z" />
    <glyph glyph-name="uni02BB" unicode="&#x2bb;" horiz-adv-x="61" 
d="M63 571q-6 -11 -16 -16t-21 -5t-19.5 5t-9.5 16l100 214h45z" />
    <glyph glyph-name="afii57929" unicode="&#x2bc;" horiz-adv-x="61" 
d="M46 555h-45l79 214q6 11 16.5 15.5t21.5 4.5t19 -4.5t9 -15.5z" />
    <glyph glyph-name="circumflex" unicode="&#x2c6;" horiz-adv-x="294" 
d="M249 601l-102 91l-102 -91l-28 25l99 100q15 15 31 15q15 0 30 -15l100 -100z" />
    <glyph glyph-name="caron" unicode="&#x2c7;" horiz-adv-x="294" 
d="M177 619q-16 -16 -30 -16q-15 0 -31 16l-99 100l28 24l102 -91l102 91l28 -24z" />
    <glyph glyph-name="breve" unicode="&#x2d8;" horiz-adv-x="294" 
d="M276 728q-4 -58 -38 -92.5t-91 -34.5t-91.5 34.5t-38.5 92.5l41 6q8 -44 29 -66t60 -22t59.5 22t28.5 66z" />
    <glyph glyph-name="dotaccent" unicode="&#x2d9;" horiz-adv-x="294" 
d="M188 671q0 -17 -12 -29t-29 -12t-29 12t-12 29t12 28.5t29 11.5t29 -11.5t12 -28.5z" />
    <glyph glyph-name="ring" unicode="&#x2da;" horiz-adv-x="294" 
d="M236 684q0 -36 -26 -61t-63 -25t-63 25t-26 61t26 61t63 25t63 -25t26 -61zM201 684q0 23 -15.5 38.5t-38.5 15.5t-38.5 -15.5t-15.5 -38.5t15.5 -38t38.5 -15t38.5 15t15.5 38z" />
    <glyph glyph-name="ogonek" unicode="&#x2db;" horiz-adv-x="294" 
d="M267 -173q-17 -8 -39.5 -13.5t-44.5 -5.5q-44 0 -71.5 23t-27.5 62q0 35 29.5 66t77.5 56h57q-63 -29 -88.5 -60t-25.5 -57q0 -22 15 -35t39 -13q33 0 64 14z" />
    <glyph glyph-name="tilde" unicode="&#x2dc;" horiz-adv-x="294" 
d="M277 695q-5 -31 -24 -54t-52 -23q-20 0 -33 8t-24.5 17.5t-22 17.5t-23.5 8q-20 0 -31.5 -15t-15.5 -37l-35 21q5 31 24.5 54t52.5 23q19 0 32.5 -8t24.5 -17.5t21 -17.5t24 -8q20 0 31.5 15t15.5 37z" />
    <glyph glyph-name="hungarumlaut" unicode="&#x2dd;" horiz-adv-x="294" 
d="M202 603h-43l78 131q15 19 36 19t26 -19zM65 603h-43l78 131q15 19 36 19t26 -19z" />
    <glyph glyph-name="uni030F" unicode="&#x30f;" horiz-adv-x="0" 
d="M-64 603l-97 131q5 19 25 19q21 0 36 -19l78 -131h-42zM-201 603l-97 131q5 19 25 19q21 0 36 -19l78 -131h-42z" />
    <glyph glyph-name="uni0311" unicode="&#x311;" horiz-adv-x="0" 
d="M-58 601q-8 44 -28.5 66.5t-59.5 22.5t-60 -22.5t-29 -66.5l-41 7q4 58 38.5 92t91.5 34t91 -34t38 -92z" />
    <glyph glyph-name="uni037E" unicode="&#x37e;" horiz-adv-x="280" 
d="M182 361q0 -19 -13 -32t-32 -13t-32 13t-13 32t13 32t32 13t32 -13t13 -32zM74 -169h-46l84 231q7 10 17 16t24 6t21.5 -6.5t9.5 -15.5z" />
    <glyph glyph-name="tonos" unicode="&#x384;" horiz-adv-x="283" 
d="M146 603h-43l48 132q5 9 14.5 14t19.5 5q22 0 31 -19z" />
    <glyph glyph-name="dieresistonos" unicode="&#x385;" horiz-adv-x="284" 
d="M123 603h-36l21 133q4 10 12.5 14.5t17.5 4.5t15 -5.5t10 -13.5zM49 669q0 -16 -10 -27.5t-24 -11.5t-24.5 11.5t-10.5 27.5t10.5 27t24.5 11t24 -11t10 -27zM263 669q0 -16 -10 -27.5t-24 -11.5t-24.5 11.5t-10.5 27.5t10.5 27t24.5 11t24 -11t10 -27z" />
    <glyph glyph-name="Alphatonos" unicode="&#x386;" horiz-adv-x="653" 
d="M562 0l-82 231h-306l-83 -231h-64l265 724h69l265 -724h-64zM351 592q-10 29 -16 51.5t-8 30.5h-2q-2 -10 -8.5 -35t-14.5 -47l-112 -313h272zM142 559h-41v155q12 17 31 17q21 0 31 -17z" />
    <glyph glyph-name="anoteleia" unicode="&#x387;" horiz-adv-x="248" 
d="M176 325q0 -22 -15 -37t-37 -15t-37 15t-15 37t15 37t37 15t37 -15t15 -37z" />
    <glyph glyph-name="Epsilontonos" unicode="&#x388;" horiz-adv-x="568" 
d="M146 0v724h370v-53h-310v-270h287v-53h-287v-295h310v-53h-370zM41 559h-41v155q12 17 31 17q21 0 31 -17z" />
    <glyph glyph-name="Etatonos" unicode="&#x389;" horiz-adv-x="700" 
d="M554 0v348h-347v-348h-61v724h61v-323h347v323h61v-724h-61zM41 559h-41v155q12 17 31 17q21 0 31 -17z" />
    <glyph glyph-name="Iotatonos" unicode="&#x38a;" horiz-adv-x="294" 
d="M146 0v724h61v-724h-61zM41 559h-41v155q12 17 31 17q21 0 31 -17z" />
    <glyph glyph-name="Omicrontonos" unicode="&#x38c;" horiz-adv-x="704" 
d="M642 362q0 -77 -17.5 -144.5t-52 -118t-86.5 -80t-120 -29.5t-120 29.5t-86.5 80t-52 118t-17.5 144.5q0 76 17.5 144t52 118.5t86.5 80t120 29.5t120 -29.5t86.5 -80t52 -118.5t17.5 -144zM581 362q0 66 -14 123.5t-41 101t-67 68.5t-93 25t-93 -25t-67 -68.5t-41 -101
t-14 -123.5t14 -123.5t41 -101t67 -68.5t93 -25t93 25t67 68.5t41 101t14 123.5zM41 559h-41v155q12 17 31 17q21 0 31 -17z" />
    <glyph glyph-name="Upsilontonos" unicode="&#x38e;" horiz-adv-x="693" 
d="M663 677q-54 -28 -98.5 -69.5t-76 -99t-48.5 -131.5t-17 -168v-209h-62v209q0 94 -17 168t-48.5 131.5t-76 99t-98.5 69.5l18 57q70 -36 117 -82.5t76 -97t42.5 -101.5t16.5 -97h2q3 46 16.5 97t42.5 101.5t75.5 97t117.5 82.5zM41 559h-41v155q12 17 31 17q21 0 31 -17z
" />
    <glyph glyph-name="Omegatonos" unicode="&#x38f;" horiz-adv-x="712" 
d="M41 559h-41v155q12 17 31 17q21 0 31 -17zM429 0v44q88 90 122 182.5t34 181.5q0 55 -13.5 104.5t-40.5 86.5t-67 59t-94 22t-94 -22t-67 -59t-40.5 -86.5t-13.5 -104.5q0 -89 34 -181.5t122 -182.5v-44h-229v51h161q-78 84 -113.5 174t-35.5 187q0 64 17.5 122.5t52 103
t86.5 70.5t120 26t120 -26t87 -70.5t52.5 -103t17.5 -122.5q0 -97 -35.5 -187t-113.5 -174h160v-51h-229z" />
    <glyph glyph-name="iotadieresistonos" unicode="&#x390;" horiz-adv-x="243" 
d="M205 -10q-63 5 -92 37t-29 91v421h58v-421q0 -36 15.5 -54t47.5 -22v-52zM124 603h-36l21 133q4 10 12.5 14.5t17.5 4.5t15 -5.5t10 -13.5zM50 669q0 -16 -10 -27.5t-24 -11.5t-24.5 11.5t-10.5 27.5t10.5 27t24.5 11t24 -11t10 -27zM264 669q0 -16 -10 -27.5t-24 -11.5
t-24.5 11.5t-10.5 27.5t10.5 27t24.5 11t24 -11t10 -27z" />
    <glyph glyph-name="Alpha" unicode="&#x391;" horiz-adv-x="653" 
d="M562 0l-82 231h-306l-83 -231h-64l265 724h69l265 -724h-64zM351 592q-10 29 -16 51.5t-8 30.5h-2q-2 -10 -8.5 -35t-14.5 -47l-112 -313h272z" />
    <glyph glyph-name="Beta" unicode="&#x392;" horiz-adv-x="603" 
d="M546 190q0 -94 -70 -147t-196 -53q-25 0 -52 3t-53 8t-49 11.5t-39 14.5v670q34 16 84 26.5t105 10.5q118 0 180.5 -50.5t62.5 -133.5q0 -38 -12 -67t-30.5 -50t-41 -34.5t-43.5 -18.5v-2q24 -5 51 -18t50 -35.5t38 -55.5t15 -79zM460 547q0 65 -49 101t-135 36
q-38 0 -73 -6t-57 -15v-265h113q29 0 50 1.5t37.5 5t30.5 9.5t28 16q25 17 40 48.5t15 68.5zM485 192q0 93 -77 132q-15 7 -29 12t-30.5 8t-37 4.5t-47.5 1.5h-118v-289q24 -9 61.5 -15t72.5 -6q98 0 151.5 40t53.5 112z" />
    <glyph glyph-name="Gamma" unicode="&#x393;" horiz-adv-x="480" 
d="M149 671v-671h-60v724h357v-53h-297z" />
    <glyph glyph-name="uni0394" unicode="&#x394;" horiz-adv-x="653" 
d="M27 0l265 724h69l265 -724h-599zM351 592q-8 20 -13.5 42t-10.5 40h-2q-5 -21 -10 -41.5t-13 -40.5l-195 -542h439z" />
    <glyph glyph-name="Epsilon" unicode="&#x395;" horiz-adv-x="507" 
d="M85 0v724h370v-53h-310v-270h287v-53h-287v-295h310v-53h-370z" />
    <glyph glyph-name="Zeta" unicode="&#x396;" horiz-adv-x="515" 
d="M33 0l341 671h-324v53h413l-340 -671h344v-53h-434z" />
    <glyph glyph-name="Eta" unicode="&#x397;" horiz-adv-x="639" 
d="M493 0v348h-347v-348h-61v724h61v-323h347v323h61v-724h-61z" />
    <glyph glyph-name="Theta" unicode="&#x398;" horiz-adv-x="696" 
d="M634 362q0 -76 -18.5 -143.5t-55 -118.5t-90.5 -80.5t-124 -29.5t-123 29.5t-89 80.5t-54 118.5t-18 143.5t18 143.5t54 118.5t89 80.5t123 29.5t124 -29.5t90.5 -80.5t55 -118.5t18.5 -143.5zM574 362q0 65 -14.5 123t-43.5 101.5t-71.5 69t-98.5 25.5t-98 -25.5
t-70 -69t-42 -101.5t-14 -123t14 -123t42 -101.5t70 -69t98 -25.5t98.5 25.5t71.5 69t43.5 101.5t14.5 123zM197 348v53h301v-53h-301z" />
    <glyph glyph-name="Iota" unicode="&#x399;" horiz-adv-x="235" 
d="M87 0v724h61v-724h-61z" />
    <glyph glyph-name="Kappa" unicode="&#x39a;" horiz-adv-x="561" 
d="M468 0l-318 376h-2v-376h-61v724h61v-338h2l311 338h74l-316 -343l323 -381h-74z" />
    <glyph glyph-name="Lambda" unicode="&#x39b;" horiz-adv-x="653" 
d="M560 0l-210 587q-7 20 -12.5 39t-10.5 39h-2q-4 -17 -9.5 -38t-12.5 -40l-211 -587h-65l264 724h70l265 -724h-66z" />
    <glyph glyph-name="Mu" unicode="&#x39c;" horiz-adv-x="867" 
d="M749 0l-77 580q-4 29 -5.5 51.5t-2.5 32.5h-2q-2 -11 -8 -33.5t-14 -49.5l-180 -581h-53l-180 581q-3 10 -6.5 22t-6.5 23.5t-5.5 21.5t-3.5 16h-2q-1 -11 -3 -35t-5 -49l-76 -580h-59l99 724h77l176 -563q7 -23 12.5 -46t8.5 -39h2q1 3 3 12.5t4.5 21.5t6 25.5t7.5 25.5
l175 563h77l99 -724h-58z" />
    <glyph glyph-name="Nu" unicode="&#x39d;" horiz-adv-x="696" 
d="M546 0l-364 577q-15 24 -26 46.5t-15 30.5h-2q0 -4 1 -30t1 -56v-568h-56v724h68l359 -568q14 -23 25.5 -45t16.5 -31h2q0 5 -0.5 30.5t-0.5 56.5v557h56v-724h-65z" />
    <glyph glyph-name="Xi" unicode="&#x39e;" horiz-adv-x="547" 
d="M59 671v53h429v-53h-429zM95 348v53h358v-53h-358zM52 0v53h443v-53h-443z" />
    <glyph glyph-name="Omicron" unicode="&#x39f;" horiz-adv-x="676" 
d="M614 362q0 -77 -17.5 -144.5t-52 -118t-86.5 -80t-120 -29.5t-120 29.5t-86.5 80t-52 118t-17.5 144.5q0 76 17.5 144t52 118.5t86.5 80t120 29.5t120 -29.5t86.5 -80t52 -118.5t17.5 -144zM553 362q0 66 -14 123.5t-41 101t-67 68.5t-93 25t-93 -25t-67 -68.5t-41 -101
t-14 -123.5t14 -123.5t41 -101t67 -68.5t93 -25t93 25t67 68.5t41 101t14 123.5z" />
    <glyph glyph-name="Pi" unicode="&#x3a0;" horiz-adv-x="639" 
d="M493 0v671h-347v-671h-61v724h469v-724h-61z" />
    <glyph glyph-name="Rho" unicode="&#x3a1;" horiz-adv-x="560" 
d="M515 519q0 -47 -18 -86t-53.5 -67.5t-87 -44.5t-117.5 -16q-25 0 -50.5 2t-42.5 5v-312h-61v697q35 17 82 27t99 10q120 0 184.5 -57.5t64.5 -157.5zM454 519q0 80 -48.5 122t-139.5 42q-36 0 -68 -5.5t-52 -14.5v-300q17 -3 42 -5t50 -2q105 0 160.5 44.5t55.5 118.5z
" />
    <glyph glyph-name="Sigma" unicode="&#x3a3;" horiz-adv-x="542" 
d="M48 0v40l259 333l-252 311v40h430v-53h-350l243 -297l-250 -321h365v-53h-445z" />
    <glyph glyph-name="Tau" unicode="&#x3a4;" horiz-adv-x="512" 
d="M287 671v-671h-61v671h-193v53h446v-53h-192z" />
    <glyph glyph-name="Upsilon" unicode="&#x3a5;" horiz-adv-x="602" 
d="M572 677q-54 -28 -98.5 -69.5t-76 -99t-48.5 -131.5t-17 -168v-209h-62v209q0 94 -17 168t-48.5 131.5t-76 99t-98.5 69.5l18 57q70 -36 117 -82.5t76 -97t42.5 -101.5t16.5 -97h2q3 46 16.5 97t42.5 101.5t75.5 97t117.5 82.5z" />
    <glyph glyph-name="Phi" unicode="&#x3a6;" horiz-adv-x="813" 
d="M755 362q0 -65 -22 -122t-63.5 -99.5t-100.5 -67t-134 -25.5v-69h-57v69q-75 1 -134 25.5t-100.5 67t-63.5 99.5t-22 122t22 122t63.5 99.5t100.5 67.5t134 26v68h57v-68q75 -1 134 -26t100.5 -67.5t63.5 -99.5t22 -122zM694 363q0 55 -17.5 103.5t-51 84t-81.5 56.5
t-109 21v-531q61 0 109 21t81.5 57t51 84t17.5 104zM378 628q-61 0 -109 -21t-81.5 -56.5t-51 -84t-17.5 -103.5q0 -56 17.5 -104t51 -84t81.5 -57t109 -21v531z" />
    <glyph glyph-name="Chi" unicode="&#x3a7;" horiz-adv-x="579" 
d="M479 0l-189 325h-2l-189 -325h-67l221 374l-207 350h67l175 -300h2l175 300h67l-207 -350l222 -374h-68z" />
    <glyph glyph-name="Psi" unicode="&#x3a8;" horiz-adv-x="765" 
d="M691 476q0 -64 -15.5 -114t-49.5 -85t-86.5 -54t-127.5 -21v-202h-58v202q-75 2 -128 21t-86.5 54t-49.5 85t-16 114v248h58v-248q0 -53 12 -93.5t38.5 -68.5t68.5 -43.5t103 -17.5v471h58v-471q61 2 103 17.5t68 43.5t38 68.5t12 93.5v248h58v-248z" />
    <glyph glyph-name="uni03A9" unicode="&#x3a9;" horiz-adv-x="684" 
d="M401 0v44q88 90 122 182.5t34 181.5q0 55 -13.5 104.5t-40.5 86.5t-67 59t-94 22t-94 -22t-67 -59t-40.5 -86.5t-13.5 -104.5q0 -89 34 -181.5t122 -182.5v-44h-229v51h161q-78 84 -113.5 174t-35.5 187q0 64 17.5 122.5t52 103t86.5 70.5t120 26t120 -26t87 -70.5
t52.5 -103t17.5 -122.5q0 -97 -35.5 -187t-113.5 -174h160v-51h-229z" />
    <glyph glyph-name="Iotadieresis" unicode="&#x3aa;" horiz-adv-x="235" 
d="M87 0v724h61v-724h-61zM70 854q0 -16 -11 -27.5t-28 -11.5t-28 11.5t-11 27.5t11 27t28 11t28 -11t11 -27zM245 854q0 -16 -11 -27.5t-28 -11.5t-28 11.5t-11 27.5t11 27t28 11t28 -11t11 -27z" />
    <glyph glyph-name="Upsilondieresis" unicode="&#x3ab;" horiz-adv-x="602" 
d="M572 677q-54 -28 -98.5 -69.5t-76 -99t-48.5 -131.5t-17 -168v-209h-62v209q0 94 -17 168t-48.5 131.5t-76 99t-98.5 69.5l18 57q70 -36 117 -82.5t76 -97t42.5 -101.5t16.5 -97h2q3 46 16.5 97t42.5 101.5t75.5 97t117.5 82.5zM426 838q0 -16 -11 -27.5t-28 -11.5
t-28 11.5t-11 27.5t11 27t28 11t28 -11t11 -27zM253 838q0 -16 -11 -27.5t-28 -11.5t-28 11.5t-11 27.5t11 27t28 11t28 -11t11 -27z" />
    <glyph glyph-name="alphatonos" unicode="&#x3ac;" horiz-adv-x="650" 
d="M536 0q-5 22 -11.5 48t-14.5 53l-15 54q-7 27 -14 51h-2q-17 -44 -37.5 -83.5t-46.5 -69t-60 -46.5t-77 -17q-50 0 -87 23.5t-62.5 62.5t-38 89.5t-12.5 104.5t12.5 104.5t38 89.5t62.5 62t87 23q42 0 75 -17.5t59.5 -47t47.5 -69t38 -82.5h2q14 49 28 105t24 101h57
q-15 -62 -35 -133t-43 -136q23 -66 44.5 -137t37.5 -133h-57zM457 270q-17 47 -36 89t-42.5 73.5t-52 49.5t-63.5 18q-37 0 -64.5 -20t-46 -52t-27.5 -73.5t-9 -84.5t9 -84.5t27.5 -73.5t46 -52t64.5 -20q36 0 65 18t52.5 49.5t42.5 73.5t34 89zM353 603h-43l48 132
q5 9 14.5 14t19.5 5q22 0 31 -19z" />
    <glyph glyph-name="epsilontonos" unicode="&#x3ad;" horiz-adv-x="489" 
d="M453 27q-35 -17 -82.5 -27t-98.5 -10q-45 0 -84 10t-68.5 29.5t-46.5 48.5t-17 68q0 30 11 53t29 40.5t41 28t47 15.5v2q-49 9 -78 41t-29 79q0 36 15 63t40.5 45t60.5 27t75 9q48 0 93.5 -10t78.5 -27l-21 -43q-27 14 -67.5 23.5t-78.5 9.5q-27 0 -52 -6t-44 -18
t-30 -31t-11 -45q0 -47 37.5 -73.5t112.5 -26.5h73v-44h-76q-44 0 -75.5 -8.5t-51.5 -23.5t-30 -35t-10 -43q0 -28 12.5 -49t34.5 -34.5t51 -20t61 -6.5q45 0 87 9t69 23zM276 603h-43l48 132q5 9 14.5 14t19.5 5q22 0 31 -19z" />
    <glyph glyph-name="etatonos" unicode="&#x3ae;" horiz-adv-x="555" 
d="M417 -215v584q0 60 -36.5 95.5t-111.5 35.5q-42 0 -75 -6.5t-56 -15.5v-478h-59v512q37 17 85.5 27t104.5 10q101 0 154 -47.5t53 -132.5v-584h-59zM285 603h-43l48 132q5 9 14.5 14t19.5 5q22 0 31 -19z" />
    <glyph glyph-name="iotatonos" unicode="&#x3af;" horiz-adv-x="243" 
d="M205 -10q-63 5 -92 37t-29 91v421h58v-421q0 -36 15.5 -54t47.5 -22v-52zM132 603h-43l48 132q5 9 14.5 14t19.5 5q22 0 31 -19z" />
    <glyph glyph-name="upsilondieresistonos" unicode="&#x3b0;" horiz-adv-x="545" 
d="M466 172q0 -41 -14 -74.5t-39.5 -57.5t-61 -37t-78.5 -13t-79 13t-61.5 37t-39.5 57.5t-14 74.5v367h59v-367q0 -62 37 -97.5t98 -35.5t97.5 35.5t36.5 97.5v367h59v-367zM274 603h-36l21 133q4 10 12.5 14.5t17.5 4.5t15 -5.5t10 -13.5zM200 669q0 -16 -10 -27.5
t-24 -11.5t-24.5 11.5t-10.5 27.5t10.5 27t24.5 11t24 -11t10 -27zM414 669q0 -16 -10 -27.5t-24 -11.5t-24.5 11.5t-10.5 27.5t10.5 27t24.5 11t24 -11t10 -27z" />
    <glyph glyph-name="alpha" unicode="&#x3b1;" horiz-adv-x="650" 
d="M536 0q-5 22 -11.5 48t-14.5 53l-15 54q-7 27 -14 51h-2q-17 -44 -37.5 -83.5t-46.5 -69t-60 -46.5t-77 -17q-50 0 -87 23.5t-62.5 62.5t-38 89.5t-12.5 104.5t12.5 104.5t38 89.5t62.5 62t87 23q42 0 75 -17.5t59.5 -47t47.5 -69t38 -82.5h2q14 49 28 105t24 101h57
q-15 -62 -35 -133t-43 -136q23 -66 44.5 -137t37.5 -133h-57zM457 270q-17 47 -36 89t-42.5 73.5t-52 49.5t-63.5 18q-37 0 -64.5 -20t-46 -52t-27.5 -73.5t-9 -84.5t9 -84.5t27.5 -73.5t46 -52t64.5 -20q36 0 65 18t52.5 49.5t42.5 73.5t34 89z" />
    <glyph glyph-name="beta" unicode="&#x3b2;" horiz-adv-x="578" 
d="M524 211q0 -45 -16 -85t-47.5 -70t-78.5 -48t-109 -18q-68 0 -133 28v-233h-57v746q0 58 12 107t37 83.5t63.5 54t92.5 19.5q46 0 80.5 -15.5t57.5 -41t34.5 -58t11.5 -65.5q0 -60 -35.5 -110.5t-104.5 -71.5v-2q49 -11 85 -33t60 -51.5t35.5 -64.5t11.5 -71zM464 215
q0 42 -16.5 76t-45.5 58.5t-68 38t-84 13.5h-26v44q98 10 145 54.5t47 112.5q0 26 -8 50t-23.5 43t-39.5 30t-57 11q-40 0 -68 -15.5t-46 -44t-26 -67.5t-8 -86v-465q30 -14 63 -21.5t65 -7.5q49 0 86 14.5t61.5 38.5t36.5 56t12 67z" />
    <glyph glyph-name="gamma" unicode="&#x3b3;" horiz-adv-x="548" 
d="M493 539q-3 -69 -19 -136t-42.5 -134t-61.5 -133.5t-75 -135.5v-215h-58v117q0 69 -11.5 138t-36.5 145.5t-64 163t-94 190.5h66q35 -68 64 -130t50.5 -121t36.5 -116t22 -116h2q32 57 60 115t49.5 118.5t35 122.5t16.5 127h60z" />
    <glyph glyph-name="delta" unicode="&#x3b4;" horiz-adv-x="572" 
d="M514 249q0 -53 -14 -100t-42.5 -82.5t-70.5 -56t-98 -20.5q-55 0 -98 21.5t-72.5 57.5t-45 83t-15.5 98q0 44 11.5 86t36.5 77.5t64 61.5t94 38q-21 17 -40 35t-33.5 38t-22.5 43t-8 50q0 32 9 58t24 48h272v-50h-231q-8 -11 -12 -25t-4 -31q0 -26 10.5 -48.5t27.5 -42
t38.5 -37.5t44.5 -35q30 -23 61.5 -48.5t56.5 -57.5t41 -71.5t16 -89.5zM456 249q0 42 -13 74.5t-34 59.5t-48 49.5t-55 43.5q-53 -9 -89 -31t-58.5 -52.5t-32.5 -67.5t-10 -75q0 -40 11.5 -78t33.5 -67t54 -47t73 -18q42 0 73.5 16t52.5 44.5t31.5 66.5t10.5 82z" />
    <glyph glyph-name="epsilon" unicode="&#x3b5;" horiz-adv-x="489" 
d="M453 27q-35 -17 -82.5 -27t-98.5 -10q-45 0 -84 10t-68.5 29.5t-46.5 48.5t-17 68q0 30 11 53t29 40.5t41 28t47 15.5v2q-49 9 -78 41t-29 79q0 36 15 63t40.5 45t60.5 27t75 9q48 0 93.5 -10t78.5 -27l-21 -43q-27 14 -67.5 23.5t-78.5 9.5q-27 0 -52 -6t-44 -18
t-30 -31t-11 -45q0 -47 37.5 -73.5t112.5 -26.5h73v-44h-76q-44 0 -75.5 -8.5t-51.5 -23.5t-30 -35t-10 -43q0 -28 12.5 -49t34.5 -34.5t51 -20t61 -6.5q45 0 87 9t69 23z" />
    <glyph glyph-name="zeta" unicode="&#x3b6;" horiz-adv-x="441" 
d="M275 561q-31 -40 -59.5 -79t-50.5 -79t-35.5 -81.5t-13.5 -86.5q0 -57 19.5 -95.5t57 -61t91.5 -32t124 -9.5l-30 -206l-48 8l17 151q-64 3 -117.5 16.5t-92 41.5t-60 72.5t-21.5 109.5q0 51 14.5 97.5t38.5 89.5t55 84t63 82l118 152h-251v50h318v-45z" />
    <glyph glyph-name="eta" unicode="&#x3b7;" horiz-adv-x="555" 
d="M417 -215v584q0 60 -36.5 95.5t-111.5 35.5q-42 0 -75 -6.5t-56 -15.5v-478h-59v512q37 17 85.5 27t104.5 10q101 0 154 -47.5t53 -132.5v-584h-59z" />
    <glyph glyph-name="theta" unicode="&#x3b8;" horiz-adv-x="586" 
d="M523 393q0 -81 -12 -154t-39.5 -128.5t-71.5 -88t-107 -32.5t-107 32.5t-71.5 88t-39.5 128.5t-12 154t12 154t39.5 128t71.5 87.5t107 32.5t107 -32.5t71.5 -87.5t39.5 -128t12 -154zM465 421q-2 65 -11.5 124t-30 104t-52.5 71.5t-78 26.5t-78 -26.5t-52.5 -71.5
t-30.5 -104t-11 -124h344zM121 372q1 -66 10.5 -126.5t29.5 -106.5t52.5 -73t79.5 -27t79 27t52.5 73t30 106.5t10.5 126.5h-344z" />
    <glyph glyph-name="iota" unicode="&#x3b9;" horiz-adv-x="243" 
d="M205 -10q-63 5 -92 37t-29 91v421h58v-421q0 -36 15.5 -54t47.5 -22v-52z" />
    <glyph glyph-name="kappa" unicode="&#x3ba;" horiz-adv-x="494" 
d="M405 0l-106 167q-25 39 -65.5 68.5t-94.5 29.5v-265h-58v539h58v-250h2l251 250h75l-257 -246q51 -14 85 -43.5t62 -72.5l115 -177h-67z" />
    <glyph glyph-name="lambda" unicode="&#x3bb;" horiz-adv-x="544" 
d="M444 0l-149 416q-6 17 -11 36t-8 35h-2q-7 -34 -20 -71l-154 -416h-64l210 539l-95 246h62l295 -785h-64z" />
    <glyph glyph-name="uni03BC" unicode="&#x3bc;" horiz-adv-x="545" 
d="M466 43q-35 -26 -81.5 -39.5t-96.5 -13.5q-41 0 -81 9t-69 26v-240h-59v754h59v-463q27 -18 66 -27.5t76 -9.5q36 0 70 9.5t57 25.5v465h59v-496z" />
    <glyph glyph-name="nu" unicode="&#x3bd;" horiz-adv-x="548" 
d="M493 539q-3 -69 -19.5 -136t-42.5 -134t-61.5 -133.5t-75.5 -135.5h-62l-196 539h64l166 -483h2q32 57 61 115t51 118t36 122.5t17 127.5h60z" />
    <glyph glyph-name="xi" unicode="&#x3be;" horiz-adv-x="474" 
d="M410 -169l-49 8l18 151q-68 4 -127 17.5t-102.5 40.5t-68.5 70t-25 105q0 49 16 86.5t43 64t62 42.5t73 23v2q-34 9 -63 25.5t-50 41t-32.5 56.5t-11.5 72q0 81 54 149h275v-50h-237q-34 -42 -34 -104q0 -86 59 -127.5t164 -46.5v-47h-40q-37 0 -75.5 -10t-70 -32
t-51.5 -57t-20 -86q0 -54 24 -90t67 -57.5t102 -31t130 -9.5z" />
    <glyph glyph-name="omicron" unicode="&#x3bf;" horiz-adv-x="560" 
d="M502 270q0 -60 -14 -111t-42 -88.5t-69.5 -59t-96.5 -21.5t-96.5 21.5t-69.5 59t-42 88.5t-14 111t14 111t42 88.5t69.5 58.5t96.5 21t96.5 -21t69.5 -58.5t42 -88.5t14 -111zM443 270q0 49 -10 91.5t-30 73t-50.5 48t-72.5 17.5t-72.5 -17.5t-50.5 -48t-30 -73
t-10 -91.5q0 -50 10 -92t30 -72.5t50.5 -48t72.5 -17.5t72.5 17.5t50.5 48t30 72.5t10 92z" />
    <glyph glyph-name="pi" unicode="&#x3c0;" horiz-adv-x="611" 
d="M482 489v-489h-58v490h-209l-58 -490h-58l58 489h-119v50h535v-50h-91z" />
    <glyph glyph-name="rho" unicode="&#x3c1;" horiz-adv-x="570" 
d="M512 275q0 -53 -13 -104t-41 -91t-73.5 -65t-109.5 -25q-34 0 -69 9t-62 24q11 -62 27 -123t34 -115h-59q-16 47 -30.5 101.5t-25.5 112.5t-17.5 117.5t-6.5 116.5q0 64 12 121.5t38.5 100.5t69.5 68.5t105 25.5q54 0 95.5 -22.5t69.5 -60t42 -87t14 -104.5zM453 275
q0 45 -10 86t-30 71.5t-50.5 49t-71.5 18.5q-48 0 -80 -21t-51.5 -57.5t-27.5 -85t-8 -103.5q0 -42 3.5 -80t8.5 -76q26 -17 61.5 -27.5t73.5 -10.5q51 0 86 20.5t56.5 53.5t30.5 75.5t9 86.5z" />
    <glyph glyph-name="sigma1" unicode="&#x3c2;" horiz-adv-x="479" 
d="M409 468q-48 31 -116 31q-38 0 -70.5 -15t-55.5 -43t-36 -67.5t-13 -88.5q0 -65 21 -111.5t61 -76.5t98 -44.5t131 -15.5l-30 -206l-49 8l18 151q-70 7 -127.5 27.5t-98 56t-62.5 87t-22 122.5q0 60 17 109.5t48 84t73.5 53.5t92.5 19q39 0 75 -8.5t67 -28.5z" />
    <glyph glyph-name="sigma" unicode="&#x3c3;" horiz-adv-x="607" 
d="M511 489q-29 0 -56.5 1.5t-47.5 5.5v-2q40 -31 67 -87.5t27 -140.5q0 -58 -13.5 -108t-41 -87.5t-69 -59t-97.5 -21.5q-55 0 -96.5 21.5t-69.5 59t-42 88.5t-14 111t14 111t42 88.5t69.5 58.5t96.5 21q18 0 33 -1.5t31 -3.5t34.5 -3.5t41.5 -1.5h156v-50h-65zM443 270
q0 58 -12 101t-34 71.5t-51.5 43t-65.5 14.5q-42 0 -72.5 -17.5t-50.5 -48t-30 -73t-10 -91.5q0 -50 10 -92t30 -72.5t50.5 -48t72.5 -17.5t72.5 17.5t50.5 48t30 72.5t10 92z" />
    <glyph glyph-name="tau" unicode="&#x3c4;" horiz-adv-x="444" 
d="M251 489v-489h-58v489h-162v50h382v-50h-162z" />
    <glyph glyph-name="upsilon" unicode="&#x3c5;" horiz-adv-x="545" 
d="M466 172q0 -41 -14 -74.5t-39.5 -57.5t-61 -37t-78.5 -13t-79 13t-61.5 37t-39.5 57.5t-14 74.5v367h59v-367q0 -62 37 -97.5t98 -35.5t97.5 35.5t36.5 97.5v367h59v-367z" />
    <glyph glyph-name="phi" unicode="&#x3c6;" horiz-adv-x="750" 
d="M692 286q0 -134 -76 -211.5t-222 -82.5v-207h-56v207q-70 2 -122.5 25.5t-87.5 62.5t-52.5 91.5t-17.5 112.5q0 51 13.5 94t36.5 76.5t53 57.5t63 37l24 -44q-25 -10 -49 -29t-42.5 -46.5t-30 -64t-11.5 -80.5q0 -51 13 -95t40.5 -77t69.5 -52.5t100 -21.5v473
q28 17 63 27t73 10q105 0 161.5 -69.5t56.5 -193.5zM636 285q0 104 -41.5 160.5t-118.5 56.5q-20 0 -42.5 -5t-39.5 -14v-444q121 3 181.5 66t60.5 180z" />
    <glyph glyph-name="chi" unicode="&#x3c7;" horiz-adv-x="541" 
d="M450 -215l-184 349h-2q-27 -35 -53 -72t-49 -79t-42.5 -91t-33.5 -107h-60q16 66 39.5 121.5t51 103.5t58.5 89.5t62 80.5l-194 359h64l165 -318h2q49 64 92 140.5t66 177.5h60q-14 -59 -34.5 -110t-46 -95t-53.5 -83.5t-57 -75.5l214 -390h-65z" />
    <glyph glyph-name="psi" unicode="&#x3c8;" horiz-adv-x="750" 
d="M676 266q0 -127 -66 -198t-207 -76v-207h-56v207q-141 5 -207 76t-66 198v273h56v-273q0 -104 50.5 -163t166.5 -63v608h56v-608q116 4 167 63t51 163v273h55v-273z" />
    <glyph glyph-name="omega" unicode="&#x3c9;" horiz-adv-x="776" 
d="M716 267q0 -55 -11 -105t-34.5 -88.5t-59.5 -61t-85 -22.5q-32 0 -56.5 11.5t-41.5 30.5t-26.5 44t-11.5 52h-2q-2 -27 -11.5 -52t-26.5 -44t-42 -30.5t-57 -11.5q-50 0 -86 22.5t-59 61t-34.5 88.5t-11.5 105q0 37 6 74.5t17 73.5t27 67.5t36 56.5h67
q-48 -54 -71.5 -127.5t-23.5 -145.5q0 -45 8 -85.5t24.5 -71t42 -49t60.5 -18.5q50 0 79 45.5t29 136.5v195h55v-195q0 -91 29 -136.5t79 -45.5q35 0 60 18.5t41.5 49t24.5 71t8 85.5q0 72 -23 145.5t-71 127.5h67q20 -25 36 -56.5t27 -67.5t16.5 -73.5t5.5 -74.5z" />
    <glyph glyph-name="iotadieresis" unicode="&#x3ca;" horiz-adv-x="243" 
d="M205 -10q-63 5 -92 37t-29 91v421h58v-421q0 -36 15.5 -54t47.5 -22v-52zM241 669q0 -16 -11 -27.5t-28 -11.5t-28 11.5t-11 27.5t11 27t28 11t28 -11t11 -27zM65 669q0 -16 -11 -27.5t-28 -11.5t-28 11.5t-11 27.5t11 27t28 11t28 -11t11 -27z" />
    <glyph glyph-name="upsilondieresis" unicode="&#x3cb;" horiz-adv-x="545" 
d="M466 172q0 -41 -14 -74.5t-39.5 -57.5t-61 -37t-78.5 -13t-79 13t-61.5 37t-39.5 57.5t-14 74.5v367h59v-367q0 -62 37 -97.5t98 -35.5t97.5 35.5t36.5 97.5v367h59v-367zM400 669q0 -16 -11 -27.5t-28 -11.5t-28 11.5t-11 27.5t11 27t28 11t28 -11t11 -27zM224 669
q0 -16 -11 -27.5t-28 -11.5t-28 11.5t-11 27.5t11 27t28 11t28 -11t11 -27z" />
    <glyph glyph-name="omicrontonos" unicode="&#x3cc;" horiz-adv-x="560" 
d="M502 270q0 -60 -14 -111t-42 -88.5t-69.5 -59t-96.5 -21.5t-96.5 21.5t-69.5 59t-42 88.5t-14 111t14 111t42 88.5t69.5 58.5t96.5 21t96.5 -21t69.5 -58.5t42 -88.5t14 -111zM443 270q0 49 -10 91.5t-30 73t-50.5 48t-72.5 17.5t-72.5 -17.5t-50.5 -48t-30 -73
t-10 -91.5q0 -50 10 -92t30 -72.5t50.5 -48t72.5 -17.5t72.5 17.5t50.5 48t30 72.5t10 92zM294 603h-43l48 132q5 9 14.5 14t19.5 5q22 0 31 -19z" />
    <glyph glyph-name="upsilontonos" unicode="&#x3cd;" horiz-adv-x="545" 
d="M466 172q0 -41 -14 -74.5t-39.5 -57.5t-61 -37t-78.5 -13t-79 13t-61.5 37t-39.5 57.5t-14 74.5v367h59v-367q0 -62 37 -97.5t98 -35.5t97.5 35.5t36.5 97.5v367h59v-367zM277 603h-43l48 132q5 9 14.5 14t19.5 5q22 0 31 -19z" />
    <glyph glyph-name="omegatonos" unicode="&#x3ce;" horiz-adv-x="776" 
d="M716 267q0 -55 -11 -105t-34.5 -88.5t-59.5 -61t-85 -22.5q-32 0 -56.5 11.5t-41.5 30.5t-26.5 44t-11.5 52h-2q-2 -27 -11.5 -52t-26.5 -44t-42 -30.5t-57 -11.5q-50 0 -86 22.5t-59 61t-34.5 88.5t-11.5 105q0 37 6 74.5t17 73.5t27 67.5t36 56.5h67
q-48 -54 -71.5 -127.5t-23.5 -145.5q0 -45 8 -85.5t24.5 -71t42 -49t60.5 -18.5q50 0 79 45.5t29 136.5v195h55v-195q0 -91 29 -136.5t79 -45.5q35 0 60 18.5t41.5 49t24.5 71t8 85.5q0 72 -23 145.5t-71 127.5h67q20 -25 36 -56.5t27 -67.5t16.5 -73.5t5.5 -74.5zM397 603
h-43l48 132q5 9 14.5 14t19.5 5q22 0 31 -19z" />
    <glyph glyph-name="uni0400" unicode="&#x400;" horiz-adv-x="507" 
d="M85 0v724h370v-53h-310v-270h287v-53h-287v-295h310v-53h-370zM259 788l-96 131q6 19 29 19q10 0 21 -4.5t19 -14.5l75 -131h-48z" />
    <glyph glyph-name="afii10023" unicode="&#x401;" horiz-adv-x="507" 
d="M85 0v724h370v-53h-310v-270h287v-53h-287v-295h310v-53h-370zM396 854q0 -16 -11 -27.5t-28 -11.5t-28 11.5t-11 27.5t11 27t28 11t28 -11t11 -27zM220 854q0 -16 -11 -27.5t-28 -11.5t-28 11.5t-11 27.5t11 27t28 11t28 -11t11 -27z" />
    <glyph glyph-name="afii10051" unicode="&#x402;" horiz-adv-x="705" 
d="M643 188q0 -127 -56.5 -227t-163.5 -151l-27 48q93 45 139.5 131.5t46.5 198.5q0 51 -10.5 94t-32.5 74.5t-57 49.5t-84 18q-33 0 -71 -9.5t-66 -26.5v-388h-61v671h-167v53h485v-53h-257v-230q30 17 68.5 26t76.5 9q62 0 107 -22t74 -60.5t42.5 -91t13.5 -114.5z" />
    <glyph glyph-name="afii10052" unicode="&#x403;" horiz-adv-x="480" 
d="M149 671v-671h-60v724h357v-53h-297zM273 788h-48l75 131q8 10 19 14.5t21 4.5q23 0 29 -19z" />
    <glyph glyph-name="afii10053" unicode="&#x404;" horiz-adv-x="571" 
d="M519 27q-38 -20 -76 -28.5t-83 -8.5q-62 0 -116 23t-94.5 69t-64 116t-23.5 164t23.5 164t64 116t94.5 69t116 23q45 0 83 -8.5t76 -28.5l-20 -49q-31 16 -64.5 24.5t-73.5 8.5q-45 0 -86.5 -16.5t-73.5 -50.5t-52.5 -87t-24.5 -126h321v-53h-322q1 -80 20.5 -137.5
t52 -94.5t75.5 -54.5t90 -17.5q40 0 73.5 8t64.5 24z" />
    <glyph glyph-name="afii10054" unicode="&#x405;" horiz-adv-x="522" 
d="M461 190q0 -47 -18 -84t-49.5 -63t-75.5 -39.5t-96 -13.5q-92 0 -169 37l23 52q66 -34 145 -34q39 0 71.5 9.5t56 28t37 45t13.5 61.5q0 45 -25 73.5t-63 50t-81.5 40t-81.5 43t-63 60t-25 90.5q0 44 16.5 79t45.5 59t68.5 37t86.5 13q86 0 154 -37l-23 -50
q-29 16 -60.5 24.5t-69.5 8.5q-34 0 -63 -9t-50 -25.5t-32.5 -41.5t-11.5 -56q0 -44 25 -72t63 -49t82 -39.5t82 -43.5t63 -61.5t25 -92.5z" />
    <glyph glyph-name="afii10055" unicode="&#x406;" horiz-adv-x="235" 
d="M87 0v724h61v-724h-61z" />
    <glyph glyph-name="afii10056" unicode="&#x407;" horiz-adv-x="235" 
d="M87 0v724h61v-724h-61zM245 854q0 -16 -11 -27.5t-28 -11.5t-28 11.5t-11 27.5t11 27t28 11t28 -11t11 -27zM69 854q0 -16 -11 -27.5t-28 -11.5t-28 11.5t-11 27.5t11 27t28 11t28 -11t11 -27z" />
    <glyph glyph-name="afii10057" unicode="&#x408;" horiz-adv-x="235" 
d="M148 80q0 -66 -15 -116.5t-43.5 -86.5t-69 -59.5t-91.5 -35.5v55q37 12 66 31.5t49.5 49t31.5 69.5t11 93v644h61v-644z" />
    <glyph glyph-name="afii10058" unicode="&#x409;" horiz-adv-x="974" 
d="M918 208q0 -99 -64.5 -158.5t-184.5 -59.5q-53 0 -99.5 10t-81.5 27v644h-199l-16 -155q-9 -82 -20 -158t-34 -144t-63 -125.5t-106 -101.5l-26 51q55 39 88 90t52.5 112t29 131.5t18.5 149.5l22 203h315v-312q17 5 46.5 9.5t58.5 4.5q63 0 112 -16t82.5 -45t51.5 -69
t18 -88zM857 208q0 78 -53.5 122.5t-150.5 44.5q-12 0 -27 -1t-29 -3t-26.5 -4.5t-21.5 -5.5v-300q20 -9 52 -14.5t68 -5.5q91 0 139.5 43.5t48.5 123.5z" />
    <glyph glyph-name="afii10059" unicode="&#x40a;" horiz-adv-x="943" 
d="M887 208q0 -99 -64.5 -158.5t-184.5 -59.5q-53 0 -99 10t-81 27v321h-312v-348h-61v724h61v-323h312v323h60v-312q17 5 46.5 9.5t58.5 4.5q63 0 112 -16t82.5 -45t51.5 -69t18 -88zM826 208q0 78 -53.5 122.5t-150.5 44.5q-12 0 -27 -1t-29 -3t-26.5 -4.5t-21.5 -5.5
v-300q20 -9 52 -14.5t68 -5.5q91 0 139.5 43.5t48.5 123.5z" />
    <glyph glyph-name="afii10060" unicode="&#x40b;" horiz-adv-x="701" 
d="M559 0v276q0 77 -44 113t-116 36q-34 0 -72 -9.5t-66 -26.5v-389h-61v671h-167v53h485v-53h-257v-230q30 17 69 26t77 9q98 0 155.5 -50.5t57.5 -147.5v-278h-61z" />
    <glyph glyph-name="afii10061" unicode="&#x40c;" horiz-adv-x="581" 
d="M287 788h-48l75 131q8 10 19 14.5t21 4.5q23 0 29 -19zM485 0l-127 225q-32 56 -85 92.5t-125 36.5v-354h-61v724h61v-342h2l314 342h78l-317 -337q126 -30 193 -148l138 -239h-71z" />
    <glyph glyph-name="uni040D" unicode="&#x40d;" horiz-adv-x="698" 
d="M556 0v568q0 30 1 54t1 32h-2q-4 -8 -16 -31.5t-26 -45.5l-365 -577h-64v724h57v-557q0 -31 -0.5 -52.5t-0.5 -34.5h2l6 13q5 9 11 19.5t12.5 22t12.5 21.5l360 568h68v-724h-57zM341 788l-96 131q6 19 29 19q10 0 21 -4.5t19 -14.5l75 -131h-48z" />
    <glyph glyph-name="afii10062" unicode="&#x40e;" horiz-adv-x="594" 
d="M547 724q-22 -134 -74.5 -258.5t-117.5 -241.5l-125 -224h-69l118 207q-39 60 -75.5 123t-67 127.5t-54 131t-36.5 135.5h64q24 -121 77.5 -238t121.5 -226h2q58 109 105 224.5t67 239.5h64zM426 913q-4 -58 -38 -92.5t-91 -34.5t-91.5 34.5t-38.5 92.5l41 6
q8 -44 29 -66t60 -22t59.5 22t28.5 66z" />
    <glyph glyph-name="afii10145" unicode="&#x40f;" horiz-adv-x="633" 
d="M345 0l-5 -146h-47l-4 146h-204v724h61v-671h341v671h61v-724h-203z" />
    <glyph glyph-name="afii10017" unicode="&#x410;" horiz-adv-x="653" 
d="M562 0l-82 231h-306l-83 -231h-64l265 724h69l265 -724h-64zM351 592q-10 29 -16 51.5t-8 30.5h-2q-2 -10 -8.5 -35t-14.5 -47l-112 -313h272z" />
    <glyph glyph-name="afii10018" unicode="&#x411;" horiz-adv-x="583" 
d="M526 206q0 -49 -16.5 -89t-48.5 -68t-79 -43.5t-109 -15.5q-51 0 -101 10t-85 27v697h366v-53h-306v-262q17 5 48.5 9.5t63.5 4.5q64 0 113.5 -15.5t83.5 -43.5t52 -68.5t18 -89.5zM464 207q0 79 -53.5 122.5t-154.5 43.5q-14 0 -29 -1t-30 -3t-28 -4.5t-22 -5.5v-298
q20 -9 54.5 -14.5t71.5 -5.5q95 0 143 43.5t48 122.5z" />
    <glyph glyph-name="afii10019" unicode="&#x412;" horiz-adv-x="603" 
d="M546 190q0 -94 -70 -147t-196 -53q-25 0 -52 3t-53 8t-49 11.5t-39 14.5v670q34 16 84 26.5t105 10.5q118 0 180.5 -50.5t62.5 -133.5q0 -38 -12 -67t-30.5 -50t-41 -34.5t-43.5 -18.5v-2q24 -5 51 -18t50 -35.5t38 -55.5t15 -79zM460 547q0 65 -49 101t-135 36
q-38 0 -73 -6t-57 -15v-265h113q29 0 50 1.5t37.5 5t30.5 9.5t28 16q25 17 40 48.5t15 68.5zM485 192q0 93 -77 132q-15 7 -29 12t-30.5 8t-37 4.5t-47.5 1.5h-118v-289q24 -9 61.5 -15t72.5 -6q98 0 151.5 40t53.5 112z" />
    <glyph glyph-name="afii10020" unicode="&#x413;" horiz-adv-x="480" 
d="M149 671v-671h-60v724h357v-53h-297z" />
    <glyph glyph-name="afii10021" unicode="&#x414;" horiz-adv-x="743" 
d="M679 -146h-47l-4 146h-531l-4 -146h-48l-4 184q51 44 86 106.5t57.5 131.5t35.5 138.5t20 127.5l22 182h302l77 -671l42 -15zM510 671h-195l-15 -134q-7 -59 -19.5 -126.5t-33 -133.5t-49.5 -125.5t-68 -101.5h450z" />
    <glyph glyph-name="afii10022" unicode="&#x415;" horiz-adv-x="507" 
d="M85 0v724h370v-53h-310v-270h287v-53h-287v-295h310v-53h-370z" />
    <glyph glyph-name="afii10024" unicode="&#x416;" horiz-adv-x="859" 
d="M765 0l-126 235q-28 51 -72.5 86t-107.5 35v-356h-59v356q-63 0 -107.5 -35t-72.5 -86l-126 -235h-68l135 248q30 56 72 90.5t93 48.5l-284 337h75l281 -344h2v344h59v-344h2l281 344h75l-284 -337q51 -14 93 -48.5t72 -90.5l135 -248h-68z" />
    <glyph glyph-name="afii10025" unicode="&#x417;" horiz-adv-x="565" 
d="M507 197q0 -48 -18.5 -86.5t-53.5 -65t-85 -41t-113 -14.5q-101 0 -188 37l21 49q38 -16 80 -24.5t87 -8.5q97 0 152.5 40t55.5 115q0 78 -68 115.5t-196 37.5h-41v49h41q51 0 94 10t74 29.5t48.5 48t17.5 65.5q0 60 -46 94t-129 34q-86 0 -162 -32l-22 48q83 37 187 37
q54 0 97.5 -13t73.5 -36.5t46.5 -56.5t16.5 -73q0 -69 -44 -112t-114 -60v-2q38 -6 72 -20t60 -36t41 -54t15 -74z" />
    <glyph glyph-name="afii10026" unicode="&#x418;" horiz-adv-x="698" 
d="M556 0v568q0 30 1 54t1 32h-2q-4 -8 -16 -31.5t-26 -45.5l-365 -577h-64v724h57v-557q0 -31 -0.5 -52.5t-0.5 -34.5h2l6 13q5 9 11 19.5t12.5 22t12.5 21.5l360 568h68v-724h-57z" />
    <glyph glyph-name="afii10027" unicode="&#x419;" horiz-adv-x="698" 
d="M556 0v568q0 30 1 54t1 32h-2q-4 -8 -16 -31.5t-26 -45.5l-365 -577h-64v724h57v-557q0 -31 -0.5 -52.5t-0.5 -34.5h2l6 13q5 9 11 19.5t12.5 22t12.5 21.5l360 568h68v-724h-57zM475 913q-4 -58 -38 -92.5t-91 -34.5t-91.5 34.5t-38.5 92.5l41 6q8 -44 29 -66t60 -22
t59.5 22t28.5 66z" />
    <glyph glyph-name="afii10028" unicode="&#x41a;" horiz-adv-x="581" 
d="M485 0l-127 225q-32 56 -85 92.5t-125 36.5v-354h-61v724h61v-342h2l314 342h78l-317 -337q126 -30 193 -148l138 -239h-71z" />
    <glyph glyph-name="afii10029" unicode="&#x41b;" horiz-adv-x="699" 
d="M570 0l-75 671h-195l-17 -155q-9 -82 -20.5 -158.5t-35.5 -144t-65.5 -125.5t-110.5 -102l-25 53q58 40 93 90.5t55 111.5t30 131t19 149l22 203h306l82 -724h-63z" />
    <glyph glyph-name="afii10030" unicode="&#x41c;" horiz-adv-x="867" 
d="M749 0l-77 580q-4 29 -5.5 51.5t-2.5 32.5h-2q-2 -11 -8 -33.5t-14 -49.5l-180 -581h-53l-180 581q-3 10 -6.5 22t-6.5 23.5t-5.5 21.5t-3.5 16h-2q-1 -11 -3 -35t-5 -49l-76 -580h-59l99 724h77l176 -563q7 -23 12.5 -46t8.5 -39h2q1 3 3 12.5t4.5 21.5t6 25.5t7.5 25.5
l175 563h77l99 -724h-58z" />
    <glyph glyph-name="afii10031" unicode="&#x41d;" horiz-adv-x="639" 
d="M493 0v348h-347v-348h-61v724h61v-323h347v323h61v-724h-61z" />
    <glyph glyph-name="afii10032" unicode="&#x41e;" horiz-adv-x="676" 
d="M614 362q0 -77 -17.5 -144.5t-52 -118t-86.5 -80t-120 -29.5t-120 29.5t-86.5 80t-52 118t-17.5 144.5q0 76 17.5 144t52 118.5t86.5 80t120 29.5t120 -29.5t86.5 -80t52 -118.5t17.5 -144zM553 362q0 66 -14 123.5t-41 101t-67 68.5t-93 25t-93 -25t-67 -68.5t-41 -101
t-14 -123.5t14 -123.5t41 -101t67 -68.5t93 -25t93 25t67 68.5t41 101t14 123.5z" />
    <glyph glyph-name="afii10033" unicode="&#x41f;" horiz-adv-x="639" 
d="M493 0v671h-347v-671h-61v724h469v-724h-61z" />
    <glyph glyph-name="afii10034" unicode="&#x420;" horiz-adv-x="560" 
d="M515 519q0 -47 -18 -86t-53.5 -67.5t-87 -44.5t-117.5 -16q-25 0 -50.5 2t-42.5 5v-312h-61v697q35 17 82 27t99 10q120 0 184.5 -57.5t64.5 -157.5zM454 519q0 80 -48.5 122t-139.5 42q-36 0 -68 -5.5t-52 -14.5v-300q17 -3 42 -5t50 -2q105 0 160.5 44.5t55.5 118.5z
" />
    <glyph glyph-name="afii10035" unicode="&#x421;" horiz-adv-x="548" 
d="M496 27q-65 -37 -153 -37q-57 0 -108 22.5t-89.5 68.5t-61 116t-22.5 165t22.5 165t61 116t89.5 68.5t108 22.5q88 0 153 -37l-21 -50q-26 16 -58 24.5t-70 8.5q-45 0 -85.5 -19t-70.5 -58t-48 -99t-18 -142q0 -83 18 -142.5t48 -98.5t70.5 -57.5t85.5 -18.5q75 0 128 32
z" />
    <glyph glyph-name="afii10036" unicode="&#x422;" horiz-adv-x="512" 
d="M287 671v-671h-61v671h-193v53h446v-53h-192z" />
    <glyph glyph-name="afii10037" unicode="&#x423;" horiz-adv-x="594" 
d="M547 724q-22 -134 -74.5 -258.5t-117.5 -241.5l-125 -224h-69l118 207q-39 60 -75.5 123t-67 127.5t-54 131t-36.5 135.5h64q24 -121 77.5 -238t121.5 -226h2q58 109 105 224.5t67 239.5h64z" />
    <glyph glyph-name="afii10038" unicode="&#x424;" horiz-adv-x="813" 
d="M755 362q0 -65 -22 -122t-63.5 -99.5t-100.5 -67t-134 -25.5v-69h-57v69q-75 1 -134 25.5t-100.5 67t-63.5 99.5t-22 122t22 122t63.5 99.5t100.5 67.5t134 26v68h57v-68q75 -1 134 -26t100.5 -67.5t63.5 -99.5t22 -122zM694 363q0 55 -17.5 103.5t-51 84t-81.5 56.5
t-109 21v-531q61 0 109 21t81.5 57t51 84t17.5 104zM378 628q-61 0 -109 -21t-81.5 -56.5t-51 -84t-17.5 -103.5q0 -56 17.5 -104t51 -84t81.5 -57t109 -21v531z" />
    <glyph glyph-name="afii10039" unicode="&#x425;" horiz-adv-x="579" 
d="M479 0l-189 325h-2l-189 -325h-67l221 374l-207 350h67l175 -300h2l175 300h67l-207 -350l222 -374h-68z" />
    <glyph glyph-name="afii10040" unicode="&#x426;" horiz-adv-x="648" 
d="M585 -146h-48l-4 146h-448v724h61v-671h341v671h61v-670l41 -16z" />
    <glyph glyph-name="afii10041" unicode="&#x427;" horiz-adv-x="619" 
d="M472 0v312q-14 -8 -34 -14.5t-42 -11t-44 -7.5t-40 -3q-53 0 -96 16t-73 45t-46 71t-16 95v221h61v-219q0 -84 46.5 -129t129.5 -45q17 0 38.5 2.5t43 7.5t40.5 11.5t32 14.5v357h62v-724h-62z" />
    <glyph glyph-name="afii10042" unicode="&#x428;" horiz-adv-x="935" 
d="M85 0v724h60v-671h292v671h60v-671h292v671h61v-724h-765z" />
    <glyph glyph-name="afii10043" unicode="&#x429;" horiz-adv-x="950" 
d="M886 -146h-47l-4 146h-750v724h60v-671h292v671h60v-671h292v671h61v-671l40 -15z" />
    <glyph glyph-name="afii10044" unicode="&#x42a;" horiz-adv-x="685" 
d="M629 208q0 -99 -64.5 -158.5t-184.5 -59.5q-53 0 -99 10t-81 27v644h-167v53h227v-312q17 5 46.5 9.5t58.5 4.5q63 0 112 -16t82.5 -45t51.5 -69t18 -88zM568 208q0 78 -53.5 122.5t-150.5 44.5q-12 0 -27 -1t-29 -3t-26.5 -4.5t-21.5 -5.5v-300q20 -9 52.5 -14.5
t68.5 -5.5q91 0 139 43.5t48 123.5z" />
    <glyph glyph-name="afii10045" unicode="&#x42b;" horiz-adv-x="764" 
d="M616 0v724h61v-724h-61zM515 208q0 -99 -64.5 -158.5t-184.5 -59.5q-53 0 -99.5 10t-81.5 27v697h61v-312q17 5 46.5 9.5t58.5 4.5q63 0 112 -16t82.5 -45t51.5 -69t18 -88zM454 208q0 78 -54 122.5t-151 44.5q-12 0 -26.5 -1t-28.5 -3t-26.5 -4.5t-21.5 -5.5v-300
q20 -9 52 -14.5t68 -5.5q91 0 139.5 43.5t48.5 123.5z" />
    <glyph glyph-name="afii10046" unicode="&#x42c;" horiz-adv-x="570" 
d="M515 208q0 -99 -64.5 -158.5t-184.5 -59.5q-53 0 -99.5 10t-81.5 27v697h61v-312q17 5 46.5 9.5t58.5 4.5q63 0 112 -16t82.5 -45t51.5 -69t18 -88zM454 208q0 78 -54 122.5t-151 44.5q-12 0 -26.5 -1t-28.5 -3t-26.5 -4.5t-21.5 -5.5v-300q20 -9 52 -14.5t68 -5.5
q91 0 139.5 43.5t48.5 123.5z" />
    <glyph glyph-name="afii10047" unicode="&#x42d;" horiz-adv-x="571" 
d="M509 362q0 -94 -23.5 -164t-64 -116t-95 -69t-115.5 -23q-45 0 -83.5 8.5t-76.5 28.5l21 49q31 -16 64.5 -24t73.5 -8q47 0 90 17.5t75.5 54.5t52 94.5t20.5 137.5h-322v53h321q-4 73 -24.5 126t-52.5 87t-73.5 50.5t-86.5 16.5q-40 0 -73.5 -8.5t-64.5 -24.5l-21 49
q38 20 76.5 28.5t83.5 8.5q61 0 115.5 -23t95 -69t64 -116t23.5 -164z" />
    <glyph glyph-name="afii10048" unicode="&#x42e;" horiz-adv-x="891" 
d="M827 362q0 -74 -13.5 -141.5t-43 -118.5t-76 -81.5t-112.5 -30.5q-64 0 -110 29t-75.5 78.5t-44 114t-15.5 136.5h-191v-348h-61v724h61v-323h192q3 68 18.5 128.5t45 106t74 72t106.5 26.5q66 0 112.5 -30.5t76 -81.5t43 -118.5t13.5 -141.5zM767 362q0 64 -10 122
t-32.5 102t-57.5 70.5t-85 26.5t-85 -26.5t-57.5 -70.5t-33 -102t-10.5 -122t10.5 -122t33 -102.5t57.5 -70.5t85 -26t85 26t57.5 70.5t32.5 102.5t10 122z" />
    <glyph glyph-name="afii10049" unicode="&#x42f;" horiz-adv-x="610" 
d="M463 0v329h-98q-50 0 -81 -22t-53 -65l-123 -242h-67l129 250q17 33 37.5 57.5t47.5 36.5v2q-39 6 -72 19.5t-57 36.5t-37 56t-13 78q0 44 16 80.5t48.5 62.5t80 40.5t110.5 14.5q54 0 105.5 -10.5t87.5 -27.5v-696h-61zM463 663q-22 9 -57.5 15t-74.5 6
q-99 0 -147 -40.5t-48 -109.5q0 -44 14.5 -73.5t42 -48t66 -26.5t86.5 -8h118v285z" />
    <glyph glyph-name="afii10065" unicode="&#x430;" horiz-adv-x="523" 
d="M444 27q-14 -8 -34 -14.5t-44 -11.5t-50 -8t-51 -3q-106 0 -159.5 43.5t-53.5 117.5q0 59 29.5 94t77 54.5t107.5 27t121 10.5v47q0 34 -11 57t-29.5 36.5t-44.5 19t-56 5.5q-38 0 -78 -10t-66 -24l-18 44q15 7 34 13.5t40.5 12t45 8.5t46.5 3q42 0 78 -9t61.5 -29
t40 -52.5t14.5 -78.5v-353zM387 292q-48 -3 -97.5 -7.5t-89.5 -18t-65.5 -40.5t-25.5 -74q0 -52 38 -83.5t117 -31.5q35 0 70.5 6t52.5 14v235z" />
    <glyph glyph-name="afii10066" unicode="&#x431;" horiz-adv-x="564" 
d="M507 272q0 -59 -14 -110.5t-42 -89.5t-68.5 -60t-93.5 -22q-57 0 -99 25t-69.5 70t-41.5 107.5t-14 137.5q0 104 21 184.5t68 138t122 93t183 49.5v-52q-135 -20 -210.5 -74.5t-104.5 -154.5q28 14 60.5 23t74.5 9q55 0 97.5 -21t71.5 -58t44 -87t15 -108zM448 272
q0 48 -11.5 89.5t-33.5 72t-54.5 48t-74.5 17.5q-39 0 -74 -8.5t-67 -24.5q-11 -64 -11 -138q0 -64 10.5 -117t31.5 -91t52.5 -59t72.5 -21q39 0 68.5 18t50 49.5t30.5 73.5t10 91z" />
    <glyph glyph-name="afii10067" unicode="&#x432;" horiz-adv-x="523" 
d="M465 141q0 -71 -54.5 -111t-160.5 -40q-45 0 -89.5 9.5t-79.5 27.5v485q34 18 78.5 27.5t86.5 9.5q94 0 147 -38.5t53 -102.5q0 -27 -9.5 -49t-24.5 -38.5t-33 -26.5t-35 -14v-2q19 -4 40 -13.5t39 -26t30 -40.5t12 -57zM389 406q0 45 -37 72.5t-106 27.5q-30 0 -61 -6
t-48 -15v-188h102q43 0 65.5 4.5t43.5 18.5q18 13 29.5 36t11.5 50zM408 143q0 64 -59 94q-11 5 -20.5 8.5t-21.5 5.5t-27.5 3t-36.5 1h-106v-200q20 -10 52 -16t61 -6q79 0 118.5 29t39.5 81z" />
    <glyph glyph-name="afii10068" unicode="&#x433;" horiz-adv-x="409" 
d="M141 490v-490h-58v539h296v-49h-238z" />
    <glyph glyph-name="afii10069" unicode="&#x434;" horiz-adv-x="631" 
d="M572 -146h-46l-4 146h-428l-5 -146h-45l-7 181q46 32 75.5 77t47.5 95t27.5 101t15.5 95l20 136h257l56 -489l40 -15zM431 491h-159l-15 -97q-6 -42 -15 -90t-24 -95t-38 -89.5t-59 -72.5h359z" />
    <glyph glyph-name="afii10070" unicode="&#x435;" horiz-adv-x="552" 
d="M494 310q0 -7 -1 -16l-378 -56q6 -100 58 -149.5t138 -49.5q41 0 80.5 9.5t65.5 24.5l20 -46q-27 -16 -72 -26.5t-96 -10.5q-116 0 -183.5 71t-67.5 209q0 62 16 113.5t45.5 88t71.5 57t95 20.5q94 0 151 -58t57 -165v-16zM437 330q-1 88 -42 130t-109 42
q-40 0 -71.5 -15.5t-54 -44.5t-35 -69.5t-13.5 -89.5z" />
    <glyph glyph-name="afii10072" unicode="&#x436;" horiz-adv-x="719" 
d="M631 0l-93 166q-11 20 -26 38.5t-34 32.5t-41.5 22.5t-49.5 8.5v-268h-55v268q-27 0 -49.5 -8.5t-41.5 -22.5t-34 -32.5t-26 -38.5l-93 -166h-64l101 177q26 45 58.5 74t76.5 42l-231 246h72l229 -253h2v253h55v-253h2l229 253h72l-231 -246q44 -12 76.5 -41.5
t58.5 -74.5l101 -177h-64z" />
    <glyph glyph-name="afii10073" unicode="&#x437;" horiz-adv-x="490" 
d="M432 145q0 -39 -16.5 -68t-45.5 -48.5t-68 -29t-84 -9.5q-47 0 -89 9.5t-82 27.5l20 43q65 -32 148 -32q32 0 60.5 6.5t50 20t34 34t12.5 48.5q0 23 -10 43t-30.5 34.5t-52.5 23t-75 8.5h-76v45h74q75 0 113 27t38 74q0 26 -11 45t-29.5 31t-43 18t-51.5 6
q-38 0 -73 -8.5t-67 -24.5l-20 43q38 19 79.5 28t84.5 9q40 0 75 -9t60.5 -27t40 -45t14.5 -63q0 -47 -30 -80t-79 -42v-2q24 -5 47.5 -15.5t41.5 -27.5t29 -40t11 -53z" />
    <glyph glyph-name="afii10074" unicode="&#x438;" horiz-adv-x="577" 
d="M444 0v410q0 18 0.5 37.5t1.5 29.5h-2q-4 -9 -13.5 -27.5t-18.5 -32.5l-272 -417h-61v539h54v-401q0 -20 -0.5 -37t-1.5 -32h2q1 3 5 10.5t8.5 16.5t10 18t9.5 15l267 410h65v-539h-54z" />
    <glyph glyph-name="afii10075" unicode="&#x439;" horiz-adv-x="577" 
d="M444 0v410q0 18 0.5 37.5t1.5 29.5h-2q-4 -9 -13.5 -27.5t-18.5 -32.5l-272 -417h-61v539h54v-401q0 -20 -0.5 -37t-1.5 -32h2q1 3 5 10.5t8.5 16.5t10 18t9.5 15l267 410h65v-539h-54zM415 728q-4 -58 -38 -92.5t-91 -34.5t-91.5 34.5t-38.5 92.5l41 6q8 -44 29 -66
t60 -22t59.5 22t28.5 66z" />
    <glyph glyph-name="afii10076" unicode="&#x43a;" horiz-adv-x="494" 
d="M405 0l-106 167q-25 39 -65.5 68.5t-94.5 29.5v-265h-58v539h58v-250h2l251 250h75l-257 -246q51 -14 85 -43.5t62 -72.5l115 -177h-67z" />
    <glyph glyph-name="afii10077" unicode="&#x43b;" horiz-adv-x="596" 
d="M478 0l-55 490h-157l-16 -109q-8 -55 -18.5 -114t-32 -113.5t-58.5 -98.5t-98 -69l-22 49q48 21 78.5 59t49 86t28 102t16.5 106l21 151h262l61 -539h-59z" />
    <glyph glyph-name="afii10078" unicode="&#x43c;" horiz-adv-x="730" 
d="M619 0l-55 419q-3 24 -4 43t-2 28h-2q-2 -8 -7 -29.5t-12 -40.5l-147 -420h-50l-147 420q-8 23 -12.5 43.5t-6.5 26.5h-2q0 -3 -1.5 -25t-4.5 -46l-55 -419h-56l76 539h73l142 -409q6 -17 11 -36.5t7 -29.5h2q2 11 6 28.5t11 37.5l143 409h73l76 -539h-56z" />
    <glyph glyph-name="afii10079" unicode="&#x43d;" horiz-adv-x="546" 
d="M408 0v251h-270v-251h-59v539h59v-238h270v238h59v-539h-59z" />
    <glyph glyph-name="afii10080" unicode="&#x43e;" horiz-adv-x="560" 
d="M502 270q0 -60 -14 -111t-42 -88.5t-69.5 -59t-96.5 -21.5t-96.5 21.5t-69.5 59t-42 88.5t-14 111t14 111t42 88.5t69.5 58.5t96.5 21t96.5 -21t69.5 -58.5t42 -88.5t14 -111zM443 270q0 49 -10 91.5t-30 73t-50.5 48t-72.5 17.5t-72.5 -17.5t-50.5 -48t-30 -73
t-10 -91.5q0 -50 10 -92t30 -72.5t50.5 -48t72.5 -17.5t72.5 17.5t50.5 48t30 72.5t10 92z" />
    <glyph glyph-name="afii10081" unicode="&#x43f;" horiz-adv-x="546" 
d="M408 0v490h-270v-490h-59v539h388v-539h-59z" />
    <glyph glyph-name="afii10082" unicode="&#x440;" horiz-adv-x="549" 
d="M492 277q0 -62 -16.5 -114t-48.5 -89.5t-78 -59t-106 -21.5q-32 0 -60.5 5t-44.5 11v-224h-59v727q25 14 70 25.5t92 11.5q60 0 106.5 -19.5t78.5 -55.5t49 -86t17 -111zM433 277q0 50 -12.5 91t-37 70.5t-60 45.5t-81.5 16q-31 0 -60.5 -6t-43.5 -14v-422
q14 -5 44 -10.5t58 -5.5q47 0 83 18t60.5 49.5t37 74.5t12.5 93z" />
    <glyph glyph-name="afii10083" unicode="&#x441;" horiz-adv-x="461" 
d="M413 27q-54 -37 -128 -37q-41 0 -81.5 15.5t-73 49t-52.5 87t-20 128.5t20 128t52.5 86.5t73 49t81.5 15.5q74 0 128 -37l-21 -44q-21 14 -47 22.5t-56 8.5q-31 0 -61.5 -12t-55 -39t-39.5 -71t-15 -107t15.5 -107t40 -71t55 -39t60.5 -12t56 8.5t47 22.5z" />
    <glyph glyph-name="afii10084" unicode="&#x442;" horiz-adv-x="444" 
d="M251 489v-489h-58v489h-162v50h382v-50h-162z" />
    <glyph glyph-name="afii10085" unicode="&#x443;" horiz-adv-x="537" 
d="M492 539q-20 -140 -67 -269.5t-108 -251.5l-116 -233h-63l110 215q-68 128 -123.5 262t-79.5 277h61q21 -125 66.5 -245t103.5 -238h2q54 115 93.5 233.5t58.5 249.5h62z" />
    <glyph glyph-name="afii10086" unicode="&#x444;" horiz-adv-x="759" 
d="M700 270q0 -51 -10.5 -101t-34 -89.5t-62 -64.5t-94.5 -25q-25 0 -49 8t-42 21v-234h-56v234q-18 -13 -42.5 -21t-49.5 -8q-56 0 -94.5 25t-62 64.5t-34 89.5t-10.5 101t10.5 100.5t34 89.5t62 64.5t94.5 24.5q25 0 49.5 -7.5t42.5 -20.5v264h56v-264q18 13 42 20.5
t49 7.5q56 0 94.5 -24.5t62 -64.5t34 -89.5t10.5 -100.5zM643 270q0 39 -6.5 80.5t-23.5 75t-45.5 55.5t-73.5 22q-23 0 -46 -7.5t-40 -18.5v-415q17 -11 40 -18.5t46 -7.5q45 0 73.5 22t45.5 56t23.5 75.5t6.5 80.5zM352 477q-17 11 -40.5 18.5t-46.5 7.5q-45 0 -73.5 -22
t-45.5 -55.5t-23.5 -75t-6.5 -80.5t6.5 -80.5t23.5 -75.5t45.5 -56t73.5 -22q23 0 46.5 7.5t40.5 18.5v415z" />
    <glyph glyph-name="afii10087" unicode="&#x445;" horiz-adv-x="503" 
d="M406 0l-154 237h-2l-153 -237h-67l186 280l-172 259h67l139 -217h2l140 217h67l-172 -259l186 -280h-67z" />
    <glyph glyph-name="afii10088" unicode="&#x446;" horiz-adv-x="554" 
d="M495 -146h-45l-4 146h-367v539h59v-490h264v490h59v-489l38 -15z" />
    <glyph glyph-name="afii10089" unicode="&#x447;" horiz-adv-x="540" 
d="M402 0v231q-28 -15 -62 -25.5t-70 -10.5q-96 0 -146 47.5t-50 138.5v158h58v-155q0 -139 145 -139q33 0 66 10t59 26v258h59v-539h-59z" />
    <glyph glyph-name="afii10090" unicode="&#x448;" horiz-adv-x="819" 
d="M79 0v539h59v-491h242v491h59v-491h242v491h59v-539h-661z" />
    <glyph glyph-name="afii10091" unicode="&#x449;" horiz-adv-x="833" 
d="M774 -146h-45l-5 146h-645v539h59v-491h242v491h59v-491h242v491h59v-489l38 -15z" />
    <glyph glyph-name="afii10092" unicode="&#x44a;" horiz-adv-x="590" 
d="M535 159q0 -78 -52.5 -123.5t-149.5 -45.5q-43 0 -85 10t-74 27v463h-143v49h201v-223q17 5 45 9.5t51 4.5q104 0 155.5 -47t51.5 -124zM476 159q0 58 -35.5 92t-114.5 34q-21 0 -49 -4t-45 -9v-216q17 -8 45 -14.5t56 -6.5q71 0 107 32t36 92z" />
    <glyph glyph-name="afii10093" unicode="&#x44b;" horiz-adv-x="672" 
d="M534 0v539h59v-539h-59zM440 159q0 -78 -52 -123.5t-149 -45.5q-43 0 -85.5 10t-74.5 27v512h58v-223q9 3 21 5.5t25 4.5t26.5 3t24.5 1q104 0 155 -47t51 -124zM382 159q0 58 -36 92t-115 34q-21 0 -49 -4t-45 -9v-216q17 -8 45.5 -14.5t56.5 -6.5q71 0 107 32t36 92z
" />
    <glyph glyph-name="afii10094" unicode="&#x44c;" horiz-adv-x="495" 
d="M440 159q0 -78 -52 -123.5t-149 -45.5q-43 0 -85.5 10t-74.5 27v512h58v-223q9 3 21 5.5t25 4.5t26.5 3t24.5 1q104 0 155 -47t51 -124zM382 159q0 58 -36 92t-115 34q-21 0 -49 -4t-45 -9v-216q17 -8 45.5 -14.5t56.5 -6.5q71 0 107 32t36 92z" />
    <glyph glyph-name="afii10095" unicode="&#x44d;" horiz-adv-x="485" 
d="M427 270q0 -72 -19.5 -124.5t-53 -87t-78 -51.5t-94.5 -17q-39 0 -72 9.5t-62 27.5l20 43q23 -14 51.5 -23t60.5 -9q36 0 69.5 12.5t59 39t41.5 67.5t18 98h-258v46h257q-4 53 -20.5 91t-41.5 62t-57.5 35.5t-67.5 11.5q-32 0 -60.5 -9t-51.5 -23l-20 43q29 18 62 27.5
t72 9.5q50 0 94.5 -16.5t78 -51t53 -87t19.5 -124.5z" />
    <glyph glyph-name="afii10096" unicode="&#x44e;" horiz-adv-x="747" 
d="M686 270q0 -60 -13 -111t-39.5 -88.5t-65 -59t-89.5 -21.5q-49 0 -86.5 20t-63.5 55t-40 83t-16 105h-136v-253h-58v539h58v-237h137q3 54 18 99t40.5 78t62.5 51.5t84 18.5q51 0 89.5 -21t65 -58.5t39.5 -88.5t13 -111zM628 270q0 49 -9 91.5t-28 73t-47 48t-65 17.5
q-38 0 -66 -17.5t-47 -48t-28 -73t-9 -91.5q0 -50 9 -92t28 -73t47 -48.5t66 -17.5q37 0 65 17.5t47 48.5t28 73t9 92z" />
    <glyph glyph-name="afii10097" unicode="&#x44f;" horiz-adv-x="525" 
d="M387 0v235h-98q-36 0 -60.5 -18t-40.5 -50l-82 -167h-63l87 173q13 25 31.5 45.5t39.5 30.5v2q-57 9 -94.5 46t-37.5 97q0 69 53.5 112t152.5 43q51 0 95.5 -10t73.5 -27v-512h-57zM387 485q-38 20 -113 20q-73 0 -110.5 -30t-37.5 -82q0 -53 36.5 -84t115.5 -31h109v207
z" />
    <glyph glyph-name="uni0450" unicode="&#x450;" horiz-adv-x="552" 
d="M494 310q0 -7 -1 -16l-378 -56q6 -100 58 -149.5t138 -49.5q41 0 80.5 9.5t65.5 24.5l20 -46q-27 -16 -72 -26.5t-96 -10.5q-116 0 -183.5 71t-67.5 209q0 62 16 113.5t45.5 88t71.5 57t95 20.5q94 0 151 -58t57 -165v-16zM437 330q-1 88 -42 130t-109 42
q-40 0 -71.5 -15.5t-54 -44.5t-35 -69.5t-13.5 -89.5zM279 603l-96 131q6 19 29 19q10 0 21 -4.5t19 -14.5l75 -131h-48z" />
    <glyph glyph-name="afii10071" unicode="&#x451;" horiz-adv-x="552" 
d="M407 669q0 -16 -11 -27.5t-28 -11.5t-28 11.5t-11 27.5t11 27t28 11t28 -11t11 -27zM231 669q0 -16 -11 -27.5t-28 -11.5t-28 11.5t-11 27.5t11 27t28 11t28 -11t11 -27zM494 310q0 -7 -1 -16l-378 -56q6 -100 58 -149.5t138 -49.5q41 0 80.5 9.5t65.5 24.5l20 -46
q-27 -16 -72 -26.5t-96 -10.5q-116 0 -183.5 71t-67.5 209q0 62 16 113.5t45.5 88t71.5 57t95 20.5q94 0 151 -58t57 -165v-16zM437 330q-1 88 -42 130t-109 42q-40 0 -71.5 -15.5t-54 -44.5t-35 -69.5t-13.5 -89.5z" />
    <glyph glyph-name="afii10099" unicode="&#x452;" horiz-adv-x="555" 
d="M494 225q0 -68 -15 -131.5t-43.5 -117.5t-69.5 -96.5t-93 -67.5l-29 44q47 24 83 61.5t60 85t36 104t12 118.5q0 56 -10 106t-32 87t-57 58.5t-84 21.5q-29 0 -58.5 -8.5t-55.5 -25.5v-464h-59v639h-81v40h81v106h59v-106h178v-40h-178v-125q26 16 55.5 25t64.5 9
q62 0 106.5 -25t73.5 -68.5t42.5 -102.5t13.5 -127z" />
    <glyph glyph-name="afii10100" unicode="&#x453;" horiz-adv-x="409" 
d="M141 490v-490h-58v539h296v-49h-238zM236 603h-48l75 131q8 10 19 14.5t21 4.5q23 0 29 -19z" />
    <glyph glyph-name="afii10101" unicode="&#x454;" horiz-adv-x="485" 
d="M437 27q-29 -18 -62 -27.5t-72 -9.5q-50 0 -94.5 17t-78 51.5t-53 87t-19.5 124.5t19.5 124.5t53 87t78 51t94.5 16.5q39 0 72 -9.5t62 -27.5l-20 -43q-23 14 -51.5 23t-60.5 9q-35 0 -67.5 -11.5t-57.5 -35.5t-41.5 -62t-20.5 -91h257v-46h-258q2 -57 18 -98t41.5 -67.5
t59 -39t69.5 -12.5q32 0 60.5 9t51.5 23z" />
    <glyph glyph-name="afii10102" unicode="&#x455;" horiz-adv-x="448" 
d="M393 138q0 -67 -51 -107.5t-141 -40.5q-40 0 -79.5 9.5t-74.5 27.5l23 46q27 -15 61.5 -24.5t68.5 -9.5q60 0 96 27t36 73q0 24 -9 41.5t-25.5 30.5t-39 23t-48.5 20q-30 11 -57 24t-47.5 30.5t-32.5 42t-12 59.5q0 29 11.5 54.5t33 44t53.5 29.5t73 11q40 0 76.5 -9.5
t65.5 -27.5l-23 -44q-23 15 -52 24t-63 9q-55 0 -85 -26.5t-30 -64.5q0 -24 9 -41t25 -29.5t37 -22t45 -18.5q31 -12 59.5 -25t50 -31t34 -43t12.5 -62z" />
    <glyph glyph-name="afii10103" unicode="&#x456;" horiz-adv-x="227" 
d="M84 0v539h59v-539h-59zM156 671q0 -17 -12 -29t-29 -12t-29 12t-12 29t12 28.5t29 11.5t29 -11.5t12 -28.5z" />
    <glyph glyph-name="afii10104" unicode="&#x457;" horiz-adv-x="227" 
d="M84 0v539h59v-539h-59zM242 669q0 -16 -11 -27.5t-28 -11.5t-28 11.5t-11 27.5t11 27t28 11t28 -11t11 -27zM66 669q0 -16 -11 -27.5t-28 -11.5t-28 11.5t-11 27.5t11 27t28 11t28 -11t11 -27z" />
    <glyph glyph-name="afii10105" unicode="&#x458;" horiz-adv-x="227" 
d="M143 51q0 -63 -16 -110t-43.5 -80t-63 -53t-74.5 -29v53q28 9 53 26.5t44 44.5t30 63.5t11 84.5v488h59v-488zM156 671q0 -17 -12 -29t-29 -12t-29 12t-12 29t12 28.5t29 11.5t29 -11.5t12 -28.5z" />
    <glyph glyph-name="afii10106" unicode="&#x459;" horiz-adv-x="830" 
d="M775 159q0 -81 -55 -125t-147 -44q-43 0 -85.5 10t-74.5 27v463h-155l-15 -109q-8 -55 -18 -114t-31 -113t-56.5 -98t-93.5 -69l-23 48q46 21 74.5 59t46.5 86t27.5 102t16.5 106l21 151h265v-223q17 5 45 9.5t51 4.5q104 0 155.5 -47t51.5 -124zM716 159q0 58 -36 92
t-115 34q-21 0 -48.5 -4t-44.5 -9v-216q17 -8 45 -14.5t56 -6.5q71 0 107 32t36 92z" />
    <glyph glyph-name="afii10107" unicode="&#x45a;" horiz-adv-x="807" 
d="M752 159q0 -78 -52.5 -123.5t-149.5 -45.5q-43 0 -85.5 10t-74.5 27v226h-253v-253h-58v539h58v-237h253v237h59v-223q17 5 45 9.5t51 4.5q104 0 155.5 -47t51.5 -124zM693 159q0 58 -36 92t-115 34q-21 0 -48.5 -4t-44.5 -9v-216q17 -8 45 -14.5t56 -6.5q71 0 107 32
t36 92z" />
    <glyph glyph-name="afii10108" unicode="&#x45b;" horiz-adv-x="549" 
d="M411 0v368q0 67 -39 98.5t-108 31.5q-33 0 -66.5 -9.5t-59.5 -25.5v-463h-59v639h-81v40h81v106h59v-106h178v-40h-178v-126q28 16 62.5 25.5t70.5 9.5q93 0 146 -45t53 -132v-371h-59z" />
    <glyph glyph-name="afii10109" unicode="&#x45c;" horiz-adv-x="494" 
d="M405 0l-106 167q-25 39 -65.5 68.5t-94.5 29.5v-265h-58v539h58v-250h2l251 250h75l-257 -246q51 -14 85 -43.5t62 -72.5l115 -177h-67zM253 603h-48l75 131q8 10 19 14.5t21 4.5q23 0 29 -19z" />
    <glyph glyph-name="uni045D" unicode="&#x45d;" horiz-adv-x="577" 
d="M444 0v410q0 18 0.5 37.5t1.5 29.5h-2q-4 -9 -13.5 -27.5t-18.5 -32.5l-272 -417h-61v539h54v-401q0 -20 -0.5 -37t-1.5 -32h2q1 3 5 10.5t8.5 16.5t10 18t9.5 15l267 410h65v-539h-54zM285 603l-96 131q6 19 29 19q10 0 21 -4.5t19 -14.5l75 -131h-48z" />
    <glyph glyph-name="afii10110" unicode="&#x45e;" horiz-adv-x="537" 
d="M492 539q-20 -140 -67 -269.5t-108 -251.5l-116 -233h-63l110 215q-68 128 -123.5 262t-79.5 277h61q21 -125 66.5 -245t103.5 -238h2q54 115 93.5 233.5t58.5 249.5h62zM398 728q-4 -58 -38 -92.5t-91 -34.5t-91.5 34.5t-38.5 92.5l41 6q8 -44 29 -66t60 -22t59.5 22
t28.5 66z" />
    <glyph glyph-name="afii10193" unicode="&#x45f;" horiz-adv-x="546" 
d="M300 0l-5 -146h-44l-5 146h-167v539h59v-490h270v490h59v-539h-167z" />
    <glyph glyph-name="afii10050" unicode="&#x490;" horiz-adv-x="487" 
d="M149 671v-671h-60v724h311v130h54v-183h-305z" />
    <glyph glyph-name="afii10098" unicode="&#x491;" horiz-adv-x="419" 
d="M141 490v-490h-58v539h253v123h52v-172h-247z" />
    <glyph glyph-name="uni0492" unicode="&#x492;" horiz-adv-x="492" 
d="M162 671v-270h159v-53h-159v-348h-62v348h-79v53h79v323h359v-53h-297z" />
    <glyph glyph-name="uni0493" unicode="&#x493;" horiz-adv-x="419" 
d="M151 490v-193h120v-48h-120v-249h-58v249h-71v48h71v242h296v-49h-238z" />
    <glyph glyph-name="uni0496" unicode="&#x496;" horiz-adv-x="880" 
d="M843 -146h-47l-4 146h-27l-126 235q-28 51 -72.5 86t-107.5 35v-356h-59v356q-63 0 -107.5 -35t-72.5 -86l-126 -235h-68l135 248q30 56 72 90.5t93 48.5l-284 337h75l281 -344h2v344h59v-344h2l281 344h75l-284 -337q51 -14 93 -48.5t72 -90.5l104 -192l45 -18z" />
    <glyph glyph-name="uni0497" unicode="&#x497;" horiz-adv-x="747" 
d="M705 -146h-45l-4 146h-25l-93 166q-11 20 -26 38.5t-34 32.5t-41.5 22.5t-49.5 8.5v-268h-55v268q-27 0 -49.5 -8.5t-41.5 -22.5t-34 -32.5t-26 -38.5l-93 -166h-64l101 177q26 45 58.5 74t76.5 42l-231 246h72l229 -253h2v253h55v-253h2l229 253h72l-231 -246
q44 -12 76.5 -41.5t58.5 -74.5l71 -125l44 -17z" />
    <glyph glyph-name="uni049A" unicode="&#x49a;" horiz-adv-x="604" 
d="M567 -146h-48l-4 146h-30l-127 225q-32 56 -85 92.5t-125 36.5v-354h-61v724h61v-342h2l314 342h78l-317 -337q126 -30 193 -148l106 -183l47 -18z" />
    <glyph glyph-name="uni049B" unicode="&#x49b;" horiz-adv-x="523" 
d="M481 -146h-46l-4 146h-26l-106 167q-25 39 -65.5 68.5t-94.5 29.5v-265h-58v539h58v-250h2l251 250h75l-257 -246q51 -14 85 -43.5t62 -72.5l81 -125l47 -17z" />
    <glyph glyph-name="uni04A2" unicode="&#x4a2;" horiz-adv-x="655" 
d="M591 -146h-47l-4 146h-47v348h-347v-348h-61v724h61v-323h347v323h61v-670l41 -16z" />
    <glyph glyph-name="uni04A3" unicode="&#x4a3;" horiz-adv-x="560" 
d="M501 -146h-45l-4 146h-44v251h-270v-251h-59v539h59v-238h270v238h59v-489l38 -15z" />
    <glyph glyph-name="uni04AE" unicode="&#x4ae;" horiz-adv-x="597" 
d="M329 293v-293h-61v293l-238 431h67l200 -369h2l200 369h68z" />
    <glyph glyph-name="uni04AF" unicode="&#x4af;" horiz-adv-x="537" 
d="M298 0v-215h-59v215l-203 539h64l144 -396q7 -19 12.5 -39t10.5 -39h2q5 19 11 39t13 39l144 396h64z" />
    <glyph glyph-name="uni04B0" unicode="&#x4b0;" horiz-adv-x="597" 
d="M329 293h157v-48h-157v-245h-61v245h-157v48h157l-238 431h67l200 -369h2l200 369h68z" />
    <glyph glyph-name="uni04B1" unicode="&#x4b1;" horiz-adv-x="537" 
d="M298 0h146v-46h-146v-169h-59v169h-146v46h146l-203 539h64l144 -396q7 -19 12.5 -39t10.5 -39h2q5 19 11 39t13 39l144 396h64z" />
    <glyph glyph-name="uni04B2" unicode="&#x4b2;" horiz-adv-x="592" 
d="M555 -146h-48l-4 146h-24l-189 325h-2l-189 -325h-67l221 374l-207 350h67l175 -300h2l175 300h67l-207 -350l190 -318l43 -18z" />
    <glyph glyph-name="uni04B3" unicode="&#x4b3;" horiz-adv-x="518" 
d="M475 -146h-45l-4 146h-20l-154 237h-2l-153 -237h-67l186 280l-172 259h67l139 -217h2l140 217h67l-172 -259l152 -229l40 -16z" />
    <glyph glyph-name="uni04B6" unicode="&#x4b6;" horiz-adv-x="634" 
d="M571 -146h-48l-4 146h-47v312q-14 -8 -33.5 -14.5t-42 -11t-44.5 -7.5t-40 -3q-53 0 -96 15.5t-73 45t-46 71.5t-16 95v221h61v-219q0 -83 46.5 -128.5t129.5 -45.5q17 0 38.5 2.5t43 7.5t40.5 11.5t32 14.5v357h62v-670l40 -16z" />
    <glyph glyph-name="uni04B7" unicode="&#x4b7;" horiz-adv-x="554" 
d="M495 -146h-45l-4 146h-44v231q-27 -15 -61.5 -25.5t-70.5 -10.5q-96 0 -146 47.5t-50 138.5v158h58v-155q0 -139 145 -139q33 0 66 10t59 26v258h59v-489l38 -15z" />
    <glyph glyph-name="uni04BA" unicode="&#x4ba;" horiz-adv-x="586" 
d="M444 0v276q0 77 -43.5 113t-115.5 36q-34 0 -72.5 -9.5t-66.5 -26.5v-389h-61v724h61v-283q30 17 69 26t77 9q98 0 155.5 -50.5t57.5 -147.5v-278h-61z" />
    <glyph glyph-name="uni04BB" unicode="&#x4bb;" horiz-adv-x="549" 
d="M411 0v368q0 67 -39.5 98.5t-108.5 31.5q-33 0 -66.5 -10t-59.5 -25v-463h-58v785h58v-272q28 16 63 25.5t71 9.5q93 0 146 -45.5t53 -131.5v-371h-59z" />
    <glyph glyph-name="uni04C0" unicode="&#x4c0;" horiz-adv-x="235" 
d="M87 0v724h61v-724h-61z" />
    <glyph glyph-name="uni04CF" unicode="&#x4cf;" horiz-adv-x="227" 
d="M84 0v785h59v-785h-59z" />
    <glyph glyph-name="uni04D8" unicode="&#x4d8;" horiz-adv-x="673" 
d="M611 373q0 -76 -17.5 -145.5t-52.5 -122t-88.5 -84t-126.5 -31.5q-67 0 -117 28t-83 75.5t-49.5 109t-16.5 127.5v14l488 74q-6 63 -26.5 112t-53.5 82.5t-77.5 51t-97.5 17.5q-43 0 -86.5 -7.5t-78.5 -24.5l-23 48q42 19 91 28t101 9q75 0 133.5 -27.5t98.5 -76
t61 -114.5t21 -143zM122 301q2 -51 16 -97.5t39.5 -82t62.5 -57t86 -21.5q57 0 99.5 26.5t70.5 71.5t41.5 103.5t13.5 121.5z" />
    <glyph glyph-name="afii10846" unicode="&#x4d9;" horiz-adv-x="552" 
d="M494 269q0 -62 -15.5 -113.5t-44.5 -88.5t-70.5 -57t-93.5 -20q-48 0 -87 17t-66.5 48.5t-43 77t-15.5 102.5v18l378 56q-6 92 -57.5 142t-138.5 50q-40 0 -78 -9t-67 -25l-20 45q32 17 75.5 27t92.5 10q116 0 183.5 -71t67.5 -209zM115 216q4 -87 45 -133t110 -46
q39 0 70.5 16t53 45.5t33.5 71.5t12 94z" />
    <glyph glyph-name="uni04E2" unicode="&#x4e2;" horiz-adv-x="698" 
d="M556 0v568q0 30 1 54t1 32h-2q-4 -8 -16 -31.5t-26 -45.5l-365 -577h-64v724h57v-557q0 -31 -0.5 -52.5t-0.5 -34.5h2l6 13q5 9 11 19.5t12.5 22t12.5 21.5l360 568h68v-724h-57zM232 822v45h232v-45h-232z" />
    <glyph glyph-name="uni04E3" unicode="&#x4e3;" horiz-adv-x="577" 
d="M444 0v410q0 18 0.5 37.5t1.5 29.5h-2q-4 -9 -13.5 -27.5t-18.5 -32.5l-272 -417h-61v539h54v-401q0 -20 -0.5 -37t-1.5 -32h2q1 3 5 10.5t8.5 16.5t10 18t9.5 15l267 410h65v-539h-54zM172 637v45h232v-45h-232z" />
    <glyph glyph-name="uni04E8" unicode="&#x4e8;" horiz-adv-x="676" 
d="M614 362q0 -77 -18 -144.5t-53 -118t-87 -80t-120 -29.5t-119.5 29.5t-86 80t-51.5 118t-17 144.5q0 76 17 144t51.5 118.5t86 80t119.5 29.5t120 -29.5t87 -80t53 -118.5t18 -144zM554 398q-4 59 -19.5 111t-43 90.5t-66.5 60.5t-89 22t-88.5 -22t-65 -60.5t-42 -90.5
t-18.5 -111h432zM121 349q1 -63 15 -119t41 -98t66.5 -66t92.5 -24q52 0 92.5 24t68 66t42 98t16.5 119h-434z" />
    <glyph glyph-name="uni04E9" unicode="&#x4e9;" horiz-adv-x="559" 
d="M502 270q0 -60 -14 -111t-42 -88.5t-69.5 -59t-96.5 -21.5t-96.5 21.5t-69.5 59t-42 88.5t-14 111t14 111t42 88.5t69.5 58.5t96.5 21t96.5 -21t69.5 -58.5t42 -88.5t14 -111zM446 298q-3 44 -14 82t-31.5 65.5t-50.5 43t-70 15.5t-70 -15.5t-50.5 -43t-31.5 -65.5
t-14 -82h332zM113 254q1 -47 12 -86.5t31.5 -69t51.5 -46t72 -16.5t71.5 16.5t51 46t31 69t12.5 86.5h-333z" />
    <glyph glyph-name="uni04EE" unicode="&#x4ee;" horiz-adv-x="594" 
d="M547 724q-22 -134 -74.5 -258.5t-117.5 -241.5l-125 -224h-69l118 207q-39 60 -75.5 123t-67 127.5t-54 131t-36.5 135.5h64q24 -121 77.5 -238t121.5 -226h2q58 109 105 224.5t67 239.5h64zM180 822v45h232v-45h-232z" />
    <glyph glyph-name="uni04EF" unicode="&#x4ef;" horiz-adv-x="537" 
d="M492 539q-20 -140 -67 -269.5t-108 -251.5l-116 -233h-63l110 215q-68 128 -123.5 262t-79.5 277h61q21 -125 66.5 -245t103.5 -238h2q54 115 93.5 233.5t58.5 249.5h62zM153 637v45h232v-45h-232z" />
    <glyph glyph-name="Wgrave" unicode="&#x1e80;" horiz-adv-x="906" 
d="M676 0h-64l-140 555q-6 25 -11 52t-7 43h-2q-1 -6 -2.5 -17t-4 -24.5t-5.5 -27.5t-6 -26l-140 -555h-64l-185 724h62l137 -560q3 -14 6.5 -28.5t6 -28t4 -24t2.5 -15.5h2q2 11 6.5 39t12.5 57l140 560h58l140 -560q3 -13 6.5 -27.5t6 -28t4 -24.5t2.5 -16h2q2 10 7 38.5
t12 57.5l137 560h62zM442 788l-96 131q6 19 29 19q10 0 21 -4.5t19 -14.5l75 -131h-48z" />
    <glyph glyph-name="wgrave" unicode="&#x1e81;" horiz-adv-x="820" 
d="M610 0h-60l-122 407q-3 9 -8 30.5t-9 41.5h-2q-2 -12 -6.5 -32t-10.5 -40l-122 -407h-60l-167 539h59l120 -405q6 -21 10.5 -44.5t6.5 -33.5h2q2 8 7 31.5t12 46.5l120 405h60l120 -405q8 -26 12.5 -48t6.5 -30h2q2 8 6 30t12 48l119 405h59zM382 603l-96 131q6 19 29 19
q10 0 21 -4.5t19 -14.5l75 -131h-48z" />
    <glyph glyph-name="Wacute" unicode="&#x1e82;" horiz-adv-x="906" 
d="M676 0h-64l-140 555q-6 25 -11 52t-7 43h-2q-1 -6 -2.5 -17t-4 -24.5t-5.5 -27.5t-6 -26l-140 -555h-64l-185 724h62l137 -560q3 -14 6.5 -28.5t6 -28t4 -24t2.5 -15.5h2q2 11 6.5 39t12.5 57l140 560h58l140 -560q3 -13 6.5 -27.5t6 -28t4 -24.5t2.5 -16h2q2 10 7 38.5
t12 57.5l137 560h62zM463 788h-48l75 131q8 10 19 14.5t21 4.5q23 0 29 -19z" />
    <glyph glyph-name="wacute" unicode="&#x1e83;" horiz-adv-x="820" 
d="M610 0h-60l-122 407q-3 9 -8 30.5t-9 41.5h-2q-2 -12 -6.5 -32t-10.5 -40l-122 -407h-60l-167 539h59l120 -405q6 -21 10.5 -44.5t6.5 -33.5h2q2 8 7 31.5t12 46.5l120 405h60l120 -405q8 -26 12.5 -48t6.5 -30h2q2 8 6 30t12 48l119 405h59zM421 603h-48l75 131
q8 10 19 14.5t21 4.5q23 0 29 -19z" />
    <glyph glyph-name="Wdieresis" unicode="&#x1e84;" horiz-adv-x="906" 
d="M676 0h-64l-140 555q-6 25 -11 52t-7 43h-2q-1 -6 -2.5 -17t-4 -24.5t-5.5 -27.5t-6 -26l-140 -555h-64l-185 724h62l137 -560q3 -14 6.5 -28.5t6 -28t4 -24t2.5 -15.5h2q2 11 6.5 39t12.5 57l140 560h58l140 -560q3 -13 6.5 -27.5t6 -28t4 -24.5t2.5 -16h2q2 10 7 38.5
t12 57.5l137 560h62zM580 854q0 -16 -11 -27.5t-28 -11.5t-28 11.5t-11 27.5t11 27t28 11t28 -11t11 -27zM404 854q0 -16 -11 -27.5t-28 -11.5t-28 11.5t-11 27.5t11 27t28 11t28 -11t11 -27z" />
    <glyph glyph-name="wdieresis" unicode="&#x1e85;" horiz-adv-x="820" 
d="M610 0h-60l-122 407q-3 9 -8 30.5t-9 41.5h-2q-2 -12 -6.5 -32t-10.5 -40l-122 -407h-60l-167 539h59l120 -405q6 -21 10.5 -44.5t6.5 -33.5h2q2 8 7 31.5t12 46.5l120 405h60l120 -405q8 -26 12.5 -48t6.5 -30h2q2 8 6 30t12 48l119 405h59zM537 669q0 -16 -11 -27.5
t-28 -11.5t-28 11.5t-11 27.5t11 27t28 11t28 -11t11 -27zM361 669q0 -16 -11 -27.5t-28 -11.5t-28 11.5t-11 27.5t11 27t28 11t28 -11t11 -27z" />
    <glyph glyph-name="uni1E8A" unicode="&#x1e8a;" horiz-adv-x="579" 
d="M479 0l-189 325h-2l-189 -325h-67l221 374l-207 350h67l175 -300h2l175 300h67l-207 -350l222 -374h-68zM330 856q0 -17 -12 -29t-29 -12t-29 12t-12 29t12 28.5t29 11.5t29 -11.5t12 -28.5z" />
    <glyph glyph-name="uni1E8B" unicode="&#x1e8b;" horiz-adv-x="503" 
d="M406 0l-154 237h-2l-153 -237h-67l186 280l-172 259h67l139 -217h2l140 217h67l-172 -259l186 -280h-67zM292 671q0 -17 -12 -29t-29 -12t-29 12t-12 29t12 28.5t29 11.5t29 -11.5t12 -28.5z" />
    <glyph glyph-name="Ygrave" unicode="&#x1ef2;" horiz-adv-x="597" 
d="M329 293v-293h-61v293l-238 431h67l200 -369h2l200 369h68zM302 788l-96 131q6 19 29 19q10 0 21 -4.5t19 -14.5l75 -131h-48z" />
    <glyph glyph-name="ygrave" unicode="&#x1ef3;" horiz-adv-x="537" 
d="M219 -215h-61l81 215l-203 539h64l148 -417q7 -20 11.5 -38t7.5 -34h2q2 10 7 29.5t13 42.5l148 417h64zM271 603l-96 131q6 19 29 19q10 0 21 -4.5t19 -14.5l75 -131h-48z" />
    <glyph glyph-name="uni2007" unicode="&#x2007;" horiz-adv-x="584" 
 />
    <glyph glyph-name="uni2008" unicode="&#x2008;" horiz-adv-x="244" 
 />
    <glyph glyph-name="uni200B" unicode="&#x200b;" horiz-adv-x="0" 
 />
    <glyph glyph-name="endash" unicode="&#x2013;" horiz-adv-x="404" 
d="M-4 300v50h412v-50h-412z" />
    <glyph glyph-name="emdash" unicode="&#x2014;" horiz-adv-x="808" 
d="M86 300v50h636v-50h-636z" />
    <glyph glyph-name="afii00208" unicode="&#x2015;" horiz-adv-x="808" 
d="M0 300v50h808v-50h-808z" />
    <glyph glyph-name="quoteleft" unicode="&#x2018;" horiz-adv-x="261" 
d="M123 554q-7 -10 -16.5 -16t-23.5 -6t-21 7t-9 15l109 231h45z" />
    <glyph glyph-name="quoteright" unicode="&#x2019;" horiz-adv-x="261" 
d="M99 536h-46l85 232q7 10 16 16t23 6t21 -7t9 -15z" />
    <glyph glyph-name="quotesinglbase" unicode="&#x201a;" horiz-adv-x="261" 
d="M99 -169h-46l85 231q7 10 16 16t23 6t21 -7t9 -15z" />
    <glyph glyph-name="quotedblleft" unicode="&#x201c;" horiz-adv-x="430" 
d="M292 554q-7 -10 -16 -16t-23 -6t-21 7t-9 15l108 231h46zM123 554q-7 -10 -16.5 -16t-23.5 -6t-21 7t-9 15l109 231h45z" />
    <glyph glyph-name="quotedblright" unicode="&#x201d;" horiz-adv-x="430" 
d="M268 536h-45l84 232q7 10 16.5 16t23.5 6t21 -7t9 -15zM99 536h-46l85 232q7 10 16 16t23 6t21 -7t9 -15z" />
    <glyph glyph-name="quotedblbase" unicode="&#x201e;" horiz-adv-x="430" 
d="M268 -169h-45l84 231q7 10 16.5 16t23.5 6t21 -7t9 -15zM99 -169h-46l85 231q7 10 16 16t23 6t21 -7t9 -15z" />
    <glyph glyph-name="dagger" unicode="&#x2020;" horiz-adv-x="617" 
d="M338 485v-700h-59v700h-210v54h210v246h59v-246h210v-54h-210z" />
    <glyph glyph-name="daggerdbl" unicode="&#x2021;" horiz-adv-x="617" 
d="M338 165v-380h-59v380h-210v54h210v266h-210v54h210v246h59v-246h210v-54h-210v-266h210v-54h-210z" />
    <glyph glyph-name="bullet" unicode="&#x2022;" horiz-adv-x="324" 
d="M239 325q0 -32 -22.5 -54.5t-54.5 -22.5t-54.5 22.5t-22.5 54.5t22.5 54.5t54.5 22.5t54.5 -22.5t22.5 -54.5z" />
    <glyph glyph-name="ellipsis" unicode="&#x2026;" horiz-adv-x="732" 
d="M655 39q0 -19 -13 -32t-32 -13t-32 13t-13 32t13 32t32 13t32 -13t13 -32zM411 39q0 -19 -13 -32t-32 -13t-32 13t-13 32t13 32t32 13t32 -13t13 -32zM167 39q0 -19 -13 -32t-32 -13t-32 13t-13 32t13 32t32 13t32 -13t13 -32z" />
    <glyph glyph-name="perthousand" unicode="&#x2030;" horiz-adv-x="1289" 
d="M1214 190q0 -45 -10 -81.5t-28.5 -63t-46 -41t-62.5 -14.5t-62.5 14.5t-46.5 41t-29 63t-10 81.5t10 81.5t29 63t46.5 41t62.5 14.5t62.5 -14.5t46 -41t28.5 -63t10 -81.5zM834 190q0 -45 -10 -81.5t-28.5 -63t-46 -41t-62.5 -14.5t-62.5 14.5t-46.5 41t-29 63t-10 81.5
t10 81.5t29 63t46.5 41t62.5 14.5t62.5 -14.5t46 -41t28.5 -63t10 -81.5zM342 -8l-45 15l268 725l45 -15zM369 534q0 -45 -10 -81.5t-28.5 -63t-46 -41t-62.5 -14.5t-62.5 14.5t-46.5 41t-29 63t-10 81.5t10 81.5t29 63t46.5 41t62.5 14.5t62.5 -14.5t46 -41t28.5 -63
t10 -81.5zM1163 190q0 71 -25 113.5t-71 42.5t-71.5 -42.5t-25.5 -113.5t25.5 -113t71.5 -42t71 42t25 113zM783 190q0 71 -25 113.5t-71 42.5t-71.5 -42.5t-25.5 -113.5t25.5 -113t71.5 -42t71 42t25 113zM318 534q0 71 -25 113.5t-71 42.5t-71 -42.5t-25 -113.5t25 -113
t71 -42t71 42t25 113z" />
    <glyph glyph-name="guilsinglleft" unicode="&#x2039;" horiz-adv-x="369" 
d="M251 68l-182 237l182 237l39 -31l-159 -206l159 -206z" />
    <glyph glyph-name="guilsinglright" unicode="&#x203a;" horiz-adv-x="369" 
d="M119 68l-39 31l158 206l-158 206l39 31l181 -237z" />
    <glyph glyph-name="fraction" unicode="&#x2044;" horiz-adv-x="149" 
d="M-97 -11l-40 22l384 724l39 -22z" />
    <glyph glyph-name="uni2070" unicode="&#x2070;" 
d="M327 712q0 -45 -8.5 -85t-25.5 -70t-44.5 -47.5t-64.5 -17.5q-38 0 -65 17.5t-44 47.5t-25.5 70t-8.5 85t8.5 85t25.5 70t44 47.5t65 17.5q37 0 64.5 -17.5t44.5 -47.5t25.5 -70t8.5 -85zM279 712q0 37 -5.5 70t-16.5 57.5t-29.5 38.5t-43.5 14q-26 0 -44 -14t-29 -38.5
t-16.5 -57.5t-5.5 -70t5.5 -69.5t16.5 -57t29 -38.5t44 -14q25 0 43.5 14t29.5 38.5t16.5 57t5.5 69.5z" />
    <glyph glyph-name="uni2074" unicode="&#x2074;" 
d="M280 611v-111h-44v111h-204v37l198 276h50v-276h52v-37h-52zM237 881q-2 -5 -7.5 -16t-15.5 -25l-136 -192h159v186q0 17 1 31t1 16h-2z" />
    <glyph glyph-name="uni2075" unicode="&#x2075;" 
d="M318 624q0 -30 -12.5 -54.5t-34 -41.5t-51.5 -26.5t-66 -9.5q-61 0 -117 25l17 37q23 -11 49.5 -16t50.5 -5q53 0 84.5 24.5t31.5 66.5q0 43 -30 68t-104 25q-16 0 -34 -1t-38 -4l24 212h222v-42h-180l-15 -127q8 1 15 1h16q85 0 128.5 -34.5t43.5 -97.5z" />
    <glyph glyph-name="uni2076" unicode="&#x2076;" 
d="M329 624q0 -26 -10 -50t-29 -42t-45 -29t-58 -11q-36 0 -63.5 13t-46 35t-27.5 51t-9 61q0 43 15 86t45 81t74 67.5t102 45.5l15 -40q-66 -17 -115 -57t-72 -95q17 6 37 10t38 4q65 0 107 -33.5t42 -96.5zM281 624q0 45 -29 68t-75 23q-20 0 -42 -4.5t-42 -12.5
q-2 -11 -4 -22.5t-2 -23.5q0 -51 26 -85t74 -34q43 0 68.5 27.5t25.5 63.5z" />
    <glyph glyph-name="uni2077" unicode="&#x2077;" 
d="M136 500h-53l187 382h-232v42h300z" />
    <glyph glyph-name="uni2078" unicode="&#x2078;" 
d="M328 602q0 -26 -11 -46t-30.5 -34.5t-45.5 -22t-57 -7.5t-57 7.5t-45.5 21.5t-30.5 34.5t-11 46.5q0 24 8.5 42.5t22 32.5t31.5 25t36 19q-17 8 -32 17.5t-27 22t-19 28.5t-7 37q0 47 36 76.5t95 29.5t95 -30t36 -76q0 -21 -7 -37t-19 -28.5t-27.5 -22t-31.5 -17.5
q18 -8 36 -19t31.5 -25t22 -32.5t8.5 -42.5zM270 826q0 29 -22.5 48.5t-63.5 19.5t-63.5 -19.5t-22.5 -48.5q0 -33 25.5 -52t60.5 -34q35 15 60.5 34t25.5 52zM281 603q0 19 -7.5 34t-21 26.5t-31 20.5t-37.5 17q-20 -8 -37.5 -17t-31 -20.5t-21 -26.5t-7.5 -34
q0 -34 26.5 -53t70.5 -19t70.5 19t26.5 53z" />
    <glyph glyph-name="uni2079" unicode="&#x2079;" 
d="M327 772q0 -43 -15 -86t-45 -81t-74 -67.5t-102 -45.5l-15 40q66 17 115 57t72 95q-17 -6 -37 -10t-38 -4q-65 0 -107 33.5t-42 96.5q0 26 10 50t29 42t45 29t58 11q36 0 63.5 -13t46 -35t27.5 -51t9 -61zM281 773q0 51 -26 84.5t-74 33.5q-43 0 -68.5 -27.5t-25.5 -63.5
q0 -45 29 -68t75 -23q20 0 42 4.5t42 12.5q2 11 4 23t2 24z" />
    <glyph glyph-name="uni207A" unicode="&#x207a;" 
d="M206 693v-111h-44v111h-109v42h109v111h44v-111h109v-42h-109z" />
    <glyph glyph-name="uni207B" unicode="&#x207b;" 
d="M53 693v42h262v-42h-262z" />
    <glyph glyph-name="uni207C" unicode="&#x207c;" 
d="M53 750v43h262v-43h-262zM53 636v42h262v-42h-262z" />
    <glyph glyph-name="uni207D" unicode="&#x207d;" horiz-adv-x="253" 
d="M186 404q-25 31 -47 65.5t-38.5 72.5t-26.5 80.5t-10 89.5t10 89.5t26.5 80.5t38.5 72t47 66l36 -22q-22 -29 -41.5 -60.5t-34.5 -67t-24 -75t-9 -83.5t9 -83.5t24 -75t34.5 -67.5t41.5 -60z" />
    <glyph glyph-name="uni207E" unicode="&#x207e;" horiz-adv-x="253" 
d="M190 712q0 -47 -10 -89.5t-26.5 -80.5t-38.5 -72.5t-47 -65.5l-37 22q22 28 41.5 60t34.5 67.5t24 75t9 83.5t-9 83.5t-24 75t-34.5 67t-41.5 60.5l37 22q25 -32 47 -66t38.5 -72t26.5 -80.5t10 -89.5z" />
    <glyph glyph-name="uni207F" unicode="&#x207f;" horiz-adv-x="406" 
d="M299 500v262q0 42 -24.5 66.5t-76.5 24.5q-28 0 -51.5 -4.5t-39.5 -10.5v-338h-47v365q28 13 63.5 20.5t74.5 7.5q72 0 110.5 -34t38.5 -97v-262h-48z" />
    <glyph glyph-name="uni2080" unicode="&#x2080;" 
d="M327 -3q0 -45 -8.5 -85t-25.5 -70t-44.5 -47.5t-64.5 -17.5q-38 0 -65 17.5t-44 47.5t-25.5 70t-8.5 85t8.5 85t25.5 70t44 47.5t65 17.5q37 0 64.5 -17.5t44.5 -47.5t25.5 -70t8.5 -85zM279 -3q0 37 -5.5 70t-16.5 57.5t-29.5 38.5t-43.5 14q-26 0 -44 -14t-29 -38.5
t-16.5 -57.5t-5.5 -70t5.5 -69.5t16.5 -57t29 -38.5t44 -14q25 0 43.5 14t29.5 38.5t16.5 57t5.5 69.5z" />
    <glyph glyph-name="uni2081" unicode="&#x2081;" 
d="M206 -215v363q-22 -14 -59 -26.5t-71 -19.5l-10 40q19 3 40.5 9.5t42 15t38.5 19t30 23.5h37v-424h-48z" />
    <glyph glyph-name="uni2082" unicode="&#x2082;" 
d="M17 -215l189 208q21 23 36.5 46.5t15.5 51.5q0 38 -24.5 61.5t-74.5 23.5q-23 0 -51.5 -6t-50.5 -16l-15 38q27 11 58 18t60 7q72 0 109 -35t37 -90q0 -38 -20.5 -69t-43.5 -55l-133 -141h208v-42h-300z" />
    <glyph glyph-name="uni2083" unicode="&#x2083;" 
d="M314 -96q0 -58 -43 -92.5t-117 -34.5q-65 0 -120 25l16 38q21 -9 49 -15.5t55 -6.5q54 0 83.5 22t29.5 64t-37 65t-101 23h-17v37q64 4 100 26t36 55t-23.5 49.5t-67.5 16.5q-24 0 -48.5 -5.5t-47.5 -15.5l-18 37q26 11 56 18t61 7q64 0 100 -28t36 -78
q0 -35 -25.5 -58.5t-57.5 -34.5v-2q17 -5 35 -13.5t32.5 -22t24 -32.5t9.5 -44z" />
    <glyph glyph-name="uni2084" unicode="&#x2084;" 
d="M280 -104v-111h-44v111h-204v37l198 276h50v-276h52v-37h-52zM237 166q-2 -5 -7.5 -16t-15.5 -25l-136 -192h159v186q0 17 1 31t1 16h-2z" />
    <glyph glyph-name="uni2085" unicode="&#x2085;" 
d="M318 -91q0 -30 -12.5 -54.5t-34 -41.5t-51.5 -26.5t-66 -9.5q-61 0 -117 25l17 37q23 -11 49.5 -16t50.5 -5q53 0 84.5 24.5t31.5 66.5q0 43 -30 68t-104 25q-16 0 -34 -1t-38 -4l24 212h222v-42h-180l-15 -127q8 1 15 1h16q85 0 128.5 -34.5t43.5 -97.5z" />
    <glyph glyph-name="uni2086" unicode="&#x2086;" 
d="M329 -91q0 -26 -10 -50t-29 -42t-45 -29t-58 -11q-36 0 -63.5 13t-46 35t-27.5 51t-9 61q0 43 15 86t45 81t74 67.5t102 45.5l15 -40q-66 -17 -115 -57t-72 -95q17 6 37 10t38 4q65 0 107 -33.5t42 -96.5zM281 -91q0 45 -29 68t-75 23q-20 0 -42 -4.5t-42 -12.5
q-2 -11 -4 -22.5t-2 -23.5q0 -51 26 -85t74 -34q43 0 68.5 27.5t25.5 63.5z" />
    <glyph glyph-name="uni2087" unicode="&#x2087;" 
d="M136 -215h-53l187 382h-232v42h300z" />
    <glyph glyph-name="uni2088" unicode="&#x2088;" 
d="M328 -113q0 -26 -11 -46t-30.5 -34.5t-45.5 -22t-57 -7.5t-57 7.5t-45.5 21.5t-30.5 34.5t-11 46.5q0 24 8.5 42.5t22 32.5t31.5 25t36 19q-17 8 -32 17.5t-27 22t-19 28.5t-7 37q0 47 36 76.5t95 29.5t95 -30t36 -76q0 -21 -7 -37t-19 -28.5t-27.5 -22t-31.5 -17.5
q18 -8 36 -19t31.5 -25t22 -32.5t8.5 -42.5zM270 111q0 29 -22.5 48.5t-63.5 19.5t-63.5 -19.5t-22.5 -48.5q0 -33 25.5 -52t60.5 -34q35 15 60.5 34t25.5 52zM281 -112q0 19 -7.5 34t-21 26.5t-31 20.5t-37.5 17q-20 -8 -37.5 -17t-31 -20.5t-21 -26.5t-7.5 -34
q0 -34 26.5 -53t70.5 -19t70.5 19t26.5 53z" />
    <glyph glyph-name="uni2089" unicode="&#x2089;" 
d="M327 57q0 -43 -15 -86t-45 -81t-74 -67.5t-102 -45.5l-15 40q66 17 115 57t72 95q-17 -6 -37 -10t-38 -4q-65 0 -107 33.5t-42 96.5q0 26 10 50t29 42t45 29t58 11q36 0 63.5 -13t46 -35t27.5 -51t9 -61zM281 58q0 51 -26 84.5t-74 33.5q-43 0 -68.5 -27.5t-25.5 -63.5
q0 -45 29 -68t75 -23q20 0 42 4.5t42 12.5q2 11 4 23t2 24z" />
    <glyph glyph-name="uni208A" unicode="&#x208a;" 
d="M206 -22v-111h-44v111h-109v42h109v111h44v-111h109v-42h-109z" />
    <glyph glyph-name="uni208B" unicode="&#x208b;" 
d="M53 -22v42h262v-42h-262z" />
    <glyph glyph-name="uni208C" unicode="&#x208c;" 
d="M53 35v43h262v-43h-262zM53 -79v42h262v-42h-262z" />
    <glyph glyph-name="uni208D" unicode="&#x208d;" horiz-adv-x="253" 
d="M186 -311q-25 31 -47 65.5t-38.5 72.5t-26.5 80.5t-10 89.5t10 89.5t26.5 80.5t38.5 72t47 66l36 -22q-22 -29 -41.5 -60.5t-34.5 -67t-24 -75t-9 -83.5t9 -83.5t24 -75t34.5 -67.5t41.5 -60z" />
    <glyph glyph-name="uni208E" unicode="&#x208e;" horiz-adv-x="253" 
d="M190 -3q0 -47 -10 -89.5t-26.5 -80.5t-38.5 -72.5t-47 -65.5l-37 22q22 28 41.5 60t34.5 67.5t24 75t9 83.5t-9 83.5t-24 75t-34.5 67t-41.5 60.5l37 22q25 -32 47 -66t38.5 -72t26.5 -80.5t10 -89.5z" />
    <glyph glyph-name="Euro" unicode="&#x20ac;" horiz-adv-x="713" 
d="M663 27q-27 -17 -71.5 -27t-99.5 -10q-54 0 -104 16.5t-91 49.5t-70 83.5t-42 119.5h-116v40h111q-2 15 -3 30.5t-1 32.5q0 19 1 36t3 34h-111v40h118q13 67 42.5 116t70 81.5t89.5 48.5t103 16t99 -10t72 -27l-23 -47q-22 14 -60.5 23t-85.5 9q-42 0 -81.5 -12.5
t-72.5 -38t-57.5 -65t-36.5 -94.5h304v-40h-311q-2 -17 -3.5 -34t-1.5 -36q0 -17 1 -32.5t3 -30.5h312v-40h-305q12 -57 36 -98t57 -67.5t73 -39t83 -12.5q47 0 85.5 9t60.5 23z" />
    <glyph glyph-name="uni20B4" unicode="&#x20b4;" horiz-adv-x="584" 
d="M179 259q-11 -15 -16.5 -32t-5.5 -39q0 -69 49 -107t127 -38q38 0 76.5 8.5t67.5 23.5l22 -49q-35 -19 -79 -27.5t-89 -8.5q-52 0 -95 13.5t-73.5 39t-47.5 62t-17 83.5q0 40 14 71h-60v40h85q20 24 47 41.5t56.5 32.5t59 29t54.5 30h-302v40h349q13 16 20 34.5t7 42.5
q0 64 -42.5 98.5t-111.5 34.5q-35 0 -68.5 -8t-61.5 -24l-21 48q32 19 71 27.5t81 8.5q47 0 86 -12.5t66.5 -36t43 -58t15.5 -78.5q0 -43 -17 -77h63v-40h-91q-21 -23 -49.5 -40t-58.5 -32t-59.5 -29.5t-53.5 -31.5h312v-40h-353z" />
    <glyph glyph-name="afii61289" unicode="&#x2113;" horiz-adv-x="305" 
d="M264 1q-14 -6 -43 -6q-60 0 -99 33t-39 102v655h59v-653q0 -45 26 -65t62 -20q9 0 18.5 1.5t15.5 3.5v-51z" />
    <glyph glyph-name="afii61352" unicode="&#x2116;" horiz-adv-x="1131" 
d="M546 0l-364 577q-11 17 -22 38.5t-19 38.5h-2q1 -18 1.5 -42t0.5 -44v-568h-56v724h68l359 -568q13 -20 23.5 -39.5t18.5 -36.5h2q-1 20 -1 42v602h56v-724h-65zM1073 359q0 -41 -11 -75.5t-33 -60.5t-54.5 -40.5t-74.5 -14.5t-74.5 14.5t-54.5 40.5t-33 60.5t-11 75.5
q0 40 11 75t33 60.5t54.5 40t74.5 14.5t74.5 -14.5t54.5 -40t33 -60.5t11 -75zM1022 359q0 64 -31 105.5t-91 41.5q-61 0 -91.5 -41.5t-30.5 -105.5q0 -63 30.5 -105.5t91.5 -42.5q60 0 91 42.5t31 105.5zM737 0v47h326v-47h-326z" />
    <glyph glyph-name="uni2117" unicode="&#x2117;" horiz-adv-x="878" 
d="M596 453q0 -56 -46 -91.5t-129 -35.5q-14 0 -27.5 0.5t-24.5 2.5v-175h-47v401q22 11 52.5 18t63.5 7q75 0 116.5 -34t41.5 -93zM549 453q0 43 -28.5 65.5t-82.5 22.5q-39 0 -69 -14v-159q11 -2 24 -2.5t27 -0.5q64 0 96.5 24.5t32.5 63.5zM812 362q0 -77 -29 -145
t-79.5 -118.5t-118.5 -79.5t-146 -29t-146 29t-118.5 79.5t-79.5 118.5t-29 145t29 145t79.5 118.5t118.5 79.5t146 29t146 -29t118.5 -79.5t79.5 -118.5t29 -145zM764 362q0 68 -25 128t-69 104.5t-103.5 70.5t-127.5 26t-127.5 -26t-103.5 -70.5t-69 -104.5t-25 -128
t25 -128t69 -104.5t103.5 -70.5t127.5 -26t127.5 26t103.5 70.5t69 104.5t25 128z" />
    <glyph glyph-name="trademark" unicode="&#x2122;" horiz-adv-x="954" 
d="M840 294l-46 336q-2 17 -3 31.5t-1 18.5h-2q-2 -7 -5 -20t-8 -30l-110 -336h-50l-110 336q-5 14 -8 29t-5 21h-2q0 -5 -1 -22t-3 -28l-46 -336h-47l61 430h66l106 -326q5 -15 8 -28.5t5 -21.5h2q2 7 5 20t8 30l106 326h66l61 -430h-47zM232 682v-388h-49v388h-126v42h302
v-42h-127z" />
    <glyph glyph-name="Omega" unicode="&#x2126;" horiz-adv-x="684" 
d="M401 0v44q88 90 122 182.5t34 181.5q0 55 -13.5 104.5t-40.5 86.5t-67 59t-94 22t-94 -22t-67 -59t-40.5 -86.5t-13.5 -104.5q0 -89 34 -181.5t122 -182.5v-44h-229v51h161q-78 84 -113.5 174t-35.5 187q0 64 17.5 122.5t52 103t86.5 70.5t120 26t120 -26t87 -70.5
t52.5 -103t17.5 -122.5q0 -97 -35.5 -187t-113.5 -174h160v-51h-229z" />
    <glyph glyph-name="estimated" unicode="&#x212e;" horiz-adv-x="980" 
d="M243 347q2 -70 21 -128t53.5 -99t84.5 -64t113 -23q46 0 92 11t86.5 33t74.5 54t57 74l38 -24q-23 -42 -58 -77.5t-82 -61.5t-105 -40.5t-128 -14.5q-105 0 -184 32.5t-131.5 85t-78.5 120t-26 137.5t26 137.5t78.5 120t131.5 85t184 32.5t183.5 -32.5t131 -85t79 -120
t26.5 -137.5v-15h-667zM736 390q-4 65 -23.5 121t-51.5 97.5t-75.5 65t-95.5 23.5t-95.5 -23.5t-75.5 -65t-51.5 -97.5t-23.5 -121h492z" />
    <glyph glyph-name="uni2150" unicode="&#x2150;" horiz-adv-x="885" 
d="M206 300v363q-22 -14 -59 -26.5t-71 -19.5l-10 40q19 3 40.5 9.5t42 15t38.5 19t30 23.5h37v-424h-48zM271 -11l-40 22l384 724l39 -22zM653 0h-53l187 382h-232v42h300z" />
    <glyph glyph-name="uni2151" unicode="&#x2151;" horiz-adv-x="885" 
d="M206 300v363q-22 -14 -59 -26.5t-71 -19.5l-10 40q19 3 40.5 9.5t42 15t38.5 19t30 23.5h37v-424h-48zM271 -11l-40 22l384 724l39 -22zM844 272q0 -43 -15 -86t-45 -81t-74 -67.5t-102 -45.5l-15 40q66 17 115 57t72 95q-17 -6 -37 -10t-38 -4q-65 0 -107 33.5t-42 96.5
q0 26 10 50t29 42t45 29t58 11q36 0 63.5 -13t46 -35t27.5 -51t9 -61zM798 273q0 51 -26 84.5t-74 33.5q-43 0 -68.5 -27.5t-25.5 -63.5q0 -45 29 -68t75 -23q20 0 42 4.5t42 12.5q2 11 4 23t2 24z" />
    <glyph glyph-name="uni2152" unicode="&#x2152;" horiz-adv-x="1253" 
d="M206 300v363q-22 -14 -59 -26.5t-71 -19.5l-10 40q19 3 40.5 9.5t42 15t38.5 19t30 23.5h37v-424h-48zM271 -11l-40 22l384 724l39 -22zM723 0v363q-22 -14 -59 -26.5t-71 -19.5l-10 40q19 3 40.5 9.5t42 15t38.5 19t30 23.5h37v-424h-48zM1212 212q0 -45 -8.5 -85
t-25.5 -70t-44.5 -47.5t-64.5 -17.5q-38 0 -65 17.5t-44 47.5t-25.5 70t-8.5 85t8.5 85t25.5 70t44 47.5t65 17.5q37 0 64.5 -17.5t44.5 -47.5t25.5 -70t8.5 -85zM1164 212q0 37 -5.5 70t-16.5 57.5t-29.5 38.5t-43.5 14q-26 0 -44 -14t-29 -38.5t-16.5 -57.5t-5.5 -70
t5.5 -69.5t16.5 -57t29 -38.5t44 -14q25 0 43.5 14t29.5 38.5t16.5 57t5.5 69.5z" />
    <glyph glyph-name="onethird" unicode="&#x2153;" horiz-adv-x="828" 
d="M205 -11l-40 22l385 724l38 -22zM163 300v363q-22 -14 -58.5 -26.5t-70.5 -19.5l-11 40q19 3 40.5 9.5t42 15t39 19t30.5 23.5h36v-424h-48zM777 119q0 -58 -43 -92.5t-117 -34.5q-65 0 -120 25l16 38q21 -9 49 -15.5t55 -6.5q54 0 83.5 22t29.5 64t-37 65t-101 23h-17
v37q64 4 100 26t36 55t-23.5 49.5t-67.5 16.5q-24 0 -48.5 -5.5t-47.5 -15.5l-18 37q26 11 56 18t61 7q64 0 100 -28t36 -78q0 -35 -25.5 -58.5t-57.5 -34.5v-2q17 -5 35 -13.5t32.5 -22t24 -32.5t9.5 -44z" />
    <glyph glyph-name="twothirds" unicode="&#x2154;" horiz-adv-x="828" 
d="M246 -11l-39 22l384 724l39 -22zM12 300l190 208q21 23 36.5 46.5t15.5 51.5q0 38 -25 61.5t-75 23.5q-23 0 -51 -6t-50 -16l-15 38q27 11 58 18t60 7q72 0 109 -35t37 -90q0 -38 -20.5 -69t-43.5 -55l-133 -141h207v-42h-300zM786 119q0 -58 -43 -92.5t-117 -34.5
q-65 0 -120 25l16 38q21 -9 49 -15.5t55 -6.5q54 0 83.5 22t29.5 64t-37 65t-101 23h-17v37q64 4 100 26t36 55t-23.5 49.5t-67.5 16.5q-24 0 -48.5 -5.5t-47.5 -15.5l-18 37q26 11 56 18t61 7q64 0 100 -28t36 -78q0 -35 -25.5 -58.5t-57.5 -34.5v-2q17 -5 35 -13.5
t32.5 -22t24 -32.5t9.5 -44z" />
    <glyph glyph-name="uni2155" unicode="&#x2155;" horiz-adv-x="828" 
d="M778 124q0 -30 -12.5 -54.5t-34 -41.5t-51.5 -26.5t-66 -9.5q-61 0 -117 25l17 37q23 -11 49.5 -16t50.5 -5q53 0 84.5 24.5t31.5 66.5q0 43 -30 68t-104 25q-16 0 -34 -1t-38 -4l24 212h222v-42h-180l-15 -127q8 1 15 1h16q85 0 128.5 -34.5t43.5 -97.5zM207 -11l-40 22
l384 724l39 -22zM163 300v363q-22 -14 -58.5 -26.5t-70.5 -19.5l-11 40q19 3 40.5 9.5t42 15t39 19t30.5 23.5h36v-424h-48z" />
    <glyph glyph-name="uni2156" unicode="&#x2156;" horiz-adv-x="828" 
d="M786 124q0 -30 -12.5 -54.5t-34 -41.5t-51.5 -26.5t-66 -9.5q-61 0 -117 25l17 37q23 -11 49.5 -16t50.5 -5q53 0 84.5 24.5t31.5 66.5q0 43 -30 68t-104 25q-16 0 -34 -1t-38 -4l24 212h222v-42h-180l-15 -127q8 1 15 1h16q85 0 128.5 -34.5t43.5 -97.5zM12 300l190 208
q21 23 36.5 46.5t15.5 51.5q0 38 -25 61.5t-75 23.5q-23 0 -51 -6t-50 -16l-15 38q27 11 58 18t60 7q72 0 109 -35t37 -90q0 -38 -20.5 -69t-43.5 -55l-133 -141h207v-42h-300zM259 -11l-40 22l385 724l38 -22z" />
    <glyph glyph-name="uni2157" unicode="&#x2157;" horiz-adv-x="828" 
d="M778 124q0 -30 -12.5 -54.5t-34 -41.5t-51.5 -26.5t-66 -9.5q-61 0 -117 25l17 37q23 -11 49.5 -16t50.5 -5q53 0 84.5 24.5t31.5 66.5q0 43 -30 68t-104 25q-16 0 -34 -1t-38 -4l24 212h222v-42h-180l-15 -127q8 1 15 1h16q85 0 128.5 -34.5t43.5 -97.5zM311 419
q0 -58 -43 -92.5t-117 -34.5q-65 0 -120 25l16 38q21 -9 49 -15.5t55 -6.5q54 0 83.5 22t29.5 64t-37 65t-101 23h-17v37q64 4 100 26t36 55t-23.5 49.5t-67.5 16.5q-24 0 -48.5 -5.5t-47.5 -15.5l-18 37q26 11 56 18t61 7q64 0 100 -28t36 -78q0 -35 -25.5 -58.5
t-57.5 -34.5v-2q17 -5 35 -13.5t32.5 -22t24 -32.5t9.5 -44zM237 -11l-39 22l384 724l39 -22z" />
    <glyph glyph-name="uni2158" unicode="&#x2158;" horiz-adv-x="828" 
d="M280 411v-111h-44v111h-204v37l198 276h50v-276h52v-37h-52zM778 124q0 -30 -12.5 -54.5t-34 -41.5t-51.5 -26.5t-66 -9.5q-61 0 -117 25l17 37q23 -11 49.5 -16t50.5 -5q53 0 84.5 24.5t31.5 66.5q0 43 -30 68t-104 25q-16 0 -34 -1t-38 -4l24 212h222v-42h-180
l-15 -127q8 1 15 1h16q85 0 128.5 -34.5t43.5 -97.5zM246 -11l-39 22l384 724l39 -22zM237 681q-2 -5 -8.5 -17.5t-14.5 -23.5l-136 -192h159v186q0 12 0.5 26.5t1.5 20.5h-2z" />
    <glyph glyph-name="uni2159" unicode="&#x2159;" horiz-adv-x="828" 
d="M777 124q0 -26 -10 -50t-28.5 -42t-44.5 -29t-58 -11q-36 0 -63.5 13t-46 35t-27.5 51t-9 61q0 43 15 86t45 81t74 67.5t102 45.5l15 -40q-66 -17 -115 -57t-72 -95q17 6 37 10t38 4q65 0 106.5 -33.5t41.5 -96.5zM221 -11l-39 22l384 724l39 -22zM163 300v363
q-22 -14 -58.5 -26.5t-70.5 -19.5l-11 40q19 3 40.5 9.5t42 15t39 19t30.5 23.5h36v-424h-48zM730 124q0 45 -29 68t-75 23q-20 0 -42 -4.5t-42 -12.5q-2 -11 -4 -22.5t-2 -23.5q0 -51 26 -85t74 -34q43 0 68.5 27.5t25.5 63.5z" />
    <glyph glyph-name="uni215A" unicode="&#x215a;" horiz-adv-x="828" 
d="M777 124q0 -26 -10 -50t-28.5 -42t-44.5 -29t-58 -11q-36 0 -63.5 13t-46 35t-27.5 51t-9 61q0 43 15 86t45 81t74 67.5t102 45.5l15 -40q-66 -17 -115 -57t-72 -95q17 6 37 10t38 4q65 0 106.5 -33.5t41.5 -96.5zM315 424q0 -30 -12.5 -54.5t-34 -41.5t-51.5 -26.5
t-66 -9.5q-61 0 -117 25l17 37q23 -11 49.5 -16t50.5 -5q53 0 84.5 24.5t31.5 66.5q0 43 -30 68t-104 25q-16 0 -34 -1t-38 -4l24 212h222v-42h-180l-15 -127q8 1 15 1h16q85 0 128.5 -34.5t43.5 -97.5zM257 -11l-40 22l385 724l38 -22zM730 124q0 45 -29 68t-75 23
q-20 0 -42 -4.5t-42 -12.5q-2 -11 -4 -22.5t-2 -23.5q0 -51 26 -85t74 -34q43 0 68.5 27.5t25.5 63.5z" />
    <glyph glyph-name="oneeighth" unicode="&#x215b;" horiz-adv-x="828" 
d="M778 102q0 -26 -11 -46t-30.5 -34.5t-45.5 -22t-57 -7.5q-62 0 -102.5 29t-40.5 81q0 24 8 42.5t21.5 32.5t31 25t35.5 19q-33 16 -58.5 40t-25.5 65q0 47 36 76.5t95 29.5t95 -30t36 -76q0 -41 -25.5 -65t-58.5 -40q18 -8 35.5 -19t31 -25t22 -32.5t8.5 -42.5zM202 -11
l-39 22l384 724l39 -22zM163 300v363q-22 -14 -58.5 -26.5t-70.5 -19.5l-11 40q19 3 40.5 9.5t42 15t39 19t30.5 23.5h36v-424h-48zM720 326q0 29 -22.5 48.5t-63.5 19.5t-63 -19.5t-22 -48.5q0 -33 25 -51.5t60 -33.5q35 15 60.5 33.5t25.5 51.5zM732 103q0 19 -8 33.5
t-21.5 26t-31 20.5t-37.5 17q-20 -8 -37.5 -17t-31 -20.5t-21 -26t-7.5 -33.5q0 -34 26.5 -53t70.5 -19t71 19t27 53z" />
    <glyph glyph-name="threeeighths" unicode="&#x215c;" horiz-adv-x="828" 
d="M778 102q0 -26 -11 -46t-30.5 -34.5t-45.5 -22t-57 -7.5q-62 0 -102.5 29t-40.5 81q0 24 8 42.5t21.5 32.5t31 25t35.5 19q-33 16 -58.5 40t-25.5 65q0 47 36 76.5t95 29.5t95 -30t36 -76q0 -41 -25.5 -65t-58.5 -40q18 -8 35.5 -19t31 -25t22 -32.5t8.5 -42.5zM230 -11
l-39 22l384 724l39 -22zM720 326q0 29 -22.5 48.5t-63.5 19.5t-63 -19.5t-22 -48.5q0 -33 25 -51.5t60 -33.5q35 15 60.5 33.5t25.5 51.5zM732 103q0 19 -8 33.5t-21.5 26t-31 20.5t-37.5 17q-20 -8 -37.5 -17t-31 -20.5t-21 -26t-7.5 -33.5q0 -34 26.5 -53t70.5 -19t71 19
t27 53zM311 419q0 -58 -43 -92.5t-117 -34.5q-65 0 -120 25l16 38q21 -9 49 -15.5t55 -6.5q54 0 83.5 22t29.5 64t-37 65t-101 23h-17v37q64 4 100 26t36 55t-23.5 49.5t-67.5 16.5q-24 0 -48.5 -5.5t-47.5 -15.5l-18 37q26 11 56 18t61 7q64 0 100 -28t36 -78
q0 -35 -25.5 -58.5t-57.5 -34.5v-2q17 -5 35 -13.5t32.5 -22t24 -32.5t9.5 -44z" />
    <glyph glyph-name="fiveeighths" unicode="&#x215d;" horiz-adv-x="828" 
d="M778 102q0 -26 -11 -46t-30.5 -34.5t-45.5 -22t-57 -7.5q-62 0 -102.5 29t-40.5 81q0 24 8 42.5t21.5 32.5t31 25t35.5 19q-33 16 -58.5 40t-25.5 65q0 47 36 76.5t95 29.5t95 -30t36 -76q0 -41 -25.5 -65t-58.5 -40q18 -8 35.5 -19t31 -25t22 -32.5t8.5 -42.5zM315 424
q0 -30 -12.5 -54.5t-34 -41.5t-51.5 -26.5t-66 -9.5q-61 0 -117 25l17 37q23 -11 49.5 -16t50.5 -5q53 0 84.5 24.5t31.5 66.5q0 43 -30 68t-104 25q-16 0 -34 -1t-38 -4l24 212h222v-42h-180l-15 -127q8 1 15 1h16q85 0 128.5 -34.5t43.5 -97.5zM234 -11l-40 22l384 724
l39 -22zM732 103q0 19 -8 33.5t-21.5 26t-31 20.5t-37.5 17q-20 -8 -37.5 -17t-31 -20.5t-21 -26t-7.5 -33.5q0 -34 26.5 -53t70.5 -19t71 19t27 53zM720 326q0 29 -22.5 48.5t-63.5 19.5t-63 -19.5t-22 -48.5q0 -33 25 -51.5t60 -33.5q35 15 60.5 33.5t25.5 51.5z" />
    </font>
</defs>
</svg>
