<?xml version="1.0" standalone="no"?>
<!DOCTYPE svg PUBLIC "-//W3C//DTD SVG 1.1//EN" "http://www.w3.org/Graphics/SVG/1.1/DTD/svg11.dtd" >
<svg xmlns="http://www.w3.org/2000/svg">
<metadata></metadata>
<defs>
<font id="PFAgoraSansProLightRegular" horiz-adv-x="1089" >
<font-face units-per-em="2048" ascent="1536" descent="-512" />
<missing-glyph horiz-adv-x="540" />
<glyph unicode="&#xfb01;" horiz-adv-x="1050" d="M59 907v66l30 6q20 4 42.5 8t42 8t29.5 6v152q0 264 215 315q65 15 139 15q124 0 289 -31l-19 -90q-139 22 -230 22t-141 -11t-82 -39q-63 -54 -63 -197v-140h590v-997h-115v907h-475v-907h-110v907h-142z" />
<glyph unicode="&#xfb02;" horiz-adv-x="1064" d="M61 907v66l30 6q20 4 42.5 8t42 8t29.5 6v142q0 268 218 317q69 15 152 15q180 -11 259 -25q16 2 40.5 7t38.5 7v-440l-2 -584v-440h-110v1356q-137 20 -215 20t-128 -11t-82 -39q-61 -53 -61 -198v-131h310v-90h-310v-271l-2 -365v-271h-110v907h-142z" />
<glyph unicode="&#xfb03;" horiz-adv-x="1632" d="M63 907v66l30 6q20 4 40.5 8t40 8t29.5 6v138q0 245 233 307q70 18 182 18t248 -43q86 86 285 86q144 0 281 -30l-17 -93q-137 27 -226.5 27t-141.5 -10t-85 -38q-65 -54 -65 -200v-164h586v-999h-115v907h-471v-907h-113v907h-469v-271l-2 -365v-271h-112v907h-138z M315 999h471v199q0 80 29 137q-114 31 -203.5 31t-145.5 -15.5t-90 -48.5q-61 -61 -61 -212v-91z" />
<glyph unicode="&#xfb04;" horiz-adv-x="1650" d="M61 907v64q35 10 70 16l70 12v113q0 170 97 260t264.5 90t301.5 -43q47 47 124 66.5t202 19.5q118 -4 237 -22l70 16v-1499h-113v1389q-110 20 -201.5 20t-141.5 -11.5t-83 -39.5q-63 -53 -63 -197v-166h313v-88h-313v-907h-113v907h-471l-2 -907h-110v907h-138zM311 995 h473v154q0 121 29 184q-122 33 -206.5 33t-141.5 -16.5t-91 -49.5q-63 -63 -63 -213v-92z" />
<glyph horiz-adv-x="0" />
<glyph horiz-adv-x="2048" />
<glyph unicode=" "  horiz-adv-x="540" />
<glyph unicode="&#x09;" horiz-adv-x="540" />
<glyph unicode="&#xa0;" horiz-adv-x="540" />
<glyph unicode="!" horiz-adv-x="423" d="M129 68q0 37 26.5 61.5t62.5 24.5t62.5 -25t26.5 -61.5t-26.5 -62t-62.5 -25.5t-62.5 25.5t-26.5 62.5zM160 1419h114l-2 -628l-14 -453h-76l-16 453z" />
<glyph unicode="&#x22;" horiz-adv-x="471" d="M86 1401h113l-25 -391h-61zM281 1401h110l-22 -391h-66z" />
<glyph unicode="#" horiz-adv-x="1062" d="M92 412l14 71h152q4 20 16.5 73.5t24.5 113t23.5 113t15.5 75.5h-160l17 70h159q0 2 78 352h76l-78 -352h334l78 352h78l-78 -352h155l-14 -70h-156l-82 -375h162l-14 -71h-162q-6 -23 -18.5 -81.5t-26.5 -124.5q-38 -177 -43 -206h-78l86 412h-332l-88 -412h-77l88 412 h-150zM334 483h334q4 20 16 73.5t24.5 113t23.5 113t16 75.5h-332z" />
<glyph unicode="$" d="M127 104l41 89q132 -70 268 -89v586q-150 57 -200 105.5t-72.5 99.5t-22.5 123q0 138 85 229q80 86 210 111v135h62v-1649h-62v164q-171 17 -309 96zM244 1028q0 -138 116 -198q35 -19 76 -35v467q-80 -23 -136 -78.5t-56 -155.5zM569 -156v1649h64v-129q147 -10 250 -74 l-33 -84q-114 55 -217 64v-537q63 -27 124.5 -55.5t109.5 -68.5q106 -88 106 -236q0 -298 -340 -359v-170h-64zM633 109q237 38 237 270q0 135 -144 209q-44 22 -93 41v-520z" />
<glyph unicode="%" horiz-adv-x="1638" d="M59 944q0 282 159 383q65 41 170 41t166.5 -43t93.5 -106.5t41 -137.5t9 -140.5t-14 -139t-51 -131.5q-83 -131 -250 -131q-188 0 -266 129q-58 95 -58 276zM160 933.5q0 -59.5 8 -118.5t32 -104q53 -97 187 -97q213 0 213 324q0 51 -5 110.5t-27 112.5q-51 127 -181 127 q-193 0 -220 -234q-7 -61 -7 -120.5zM481 -47l588 1479h82l-584 -1479h-86zM938 399q0 282 158 383q65 41 170.5 41t167 -43t93.5 -106.5t41 -137.5t9 -140.5t-14.5 -139t-50.5 -131.5q-83 -133 -250 -133q-189 0 -266 128q-58 96 -58 279zM1038 397q0 -155 42 -231 q52 -96 186 -96q169 0 204 214q9 58 9 109t-5.5 111.5t-27.5 113.5q-51 125 -180 125q-228 0 -228 -346z" />
<glyph unicode="&#x26;" horiz-adv-x="1445" d="M59 367q0 141 92.5 247.5t258.5 198.5q-115 158 -115 285q0 121 71 200q75 84 205 84t209 -78q68 -67 68 -175.5t-77 -191.5t-218 -161q235 -337 410 -512q222 204 249 557h97q-14 -219 -90 -366.5t-189 -253.5q150 -150 313 -217q-13 -29 -47 -82q-53 22 -133 75 q-135 88 -213 162q-209 -157 -458 -157q-190 0 -306 94q-127 102 -127 291zM166 362.5q0 -69.5 25.5 -127t69.5 -95.5q86 -74 226 -74q200 0 398 137q-53 55 -100.5 111.5t-92.5 109.5q-167 213 -231 309q-147 -82 -198.5 -140t-74 -109.5t-22.5 -121zM401 1114 q0 -110 105 -258q98 49 170 116.5t72 147.5t-48.5 127t-115 47t-97 -19.5t-49.5 -46.5q-37 -52 -37 -114z" />
<glyph unicode="'" horiz-adv-x="339" d="M115 1401h112l-24 -391h-64z" />
<glyph unicode="(" horiz-adv-x="555" d="M121 573.5q0 184.5 34.5 329t82.5 255.5q66 154 176 302l47 -33q-132 -190 -200 -529q-28 -140 -28 -310q0 -525 230 -905l-49 -35q-173 221 -257 584q-36 157 -36 341.5z" />
<glyph unicode=")" horiz-adv-x="557" d="M82 -317q88 149 131 280q98 298 98 625q0 292 -92 556q-52 150 -135 283l49 33q106 -142 163.5 -277.5t92.5 -280t35 -329t-36 -341t-83 -274.5q-63 -158 -174 -310z" />
<glyph unicode="*" horiz-adv-x="735" d="M88 1151q4 72 39 123l217 -109q-15 109 -37 240q33 6 59 6q48 0 72 -6q-10 -59 -19.5 -120t-19.5 -120q182 86 217 105q39 -49 39 -123q-87 -11 -243 -37l170 -172q-39 -51 -101 -76q-29 53 -56.5 108.5t-55.5 108.5l-107 -215q-63 20 -104 74q41 45 84 88t84 86z" />
<glyph unicode="+" d="M166 565v88h338v334h92v-334h336v-88h-336v-346h-92v346h-338z" />
<glyph unicode="," horiz-adv-x="346" d="M74 -193q69 80 73 185q-29 6 -47 27.5t-18 54.5t24.5 58.5t64.5 25.5t65.5 -30t25.5 -71t-11 -80.5t-31 -77.5q-49 -90 -116 -128z" />
<glyph unicode="-" horiz-adv-x="708" d="M106 477v103h496v-103h-496z" />
<glyph unicode="." horiz-adv-x="364" d="M92 74q0 35 25.5 60.5t60.5 25.5t60.5 -25.5t25.5 -60.5t-25.5 -60.5t-60.5 -25.5t-60.5 25.5t-25.5 60.5z" />
<glyph unicode="/" horiz-adv-x="659" d="M23 -55l528 1487h84l-526 -1487h-86z" />
<glyph unicode="0" d="M61 666q0 469 240 642q96 70 254 70t252 -71.5t143 -179t63.5 -230.5t14.5 -234.5t-22.5 -233.5t-77.5 -220q-127 -223 -377 -223q-283 0 -401 214q-89 160 -89 466zM178 662q0 -276 70 -411q89 -171 305 -171q198 0 288 190q70 147 70 372q0 79 -3 145.5t-14 135 t-33.5 133t-62.5 114.5q-88 112 -230 112t-217 -62.5t-113 -156.5q-60 -152 -60 -401z" />
<glyph unicode="1" d="M209 1206v80l315 72h111v-1358h-113v1237z" />
<glyph unicode="2" d="M70 0v84l182 172q233 218 330.5 344.5t142.5 219.5t45 172t-22.5 130.5t-62.5 85.5q-77 64 -210 64q-182 0 -350 -111q-22 39 -45 74q191 137 414 137q275 0 366 -198q31 -68 31 -158t-34 -177t-90 -171t-127 -163t-144.5 -151.5t-143 -138t-123.5 -121.5q2 -2 2 -4 l711 -2v-88h-872z" />
<glyph unicode="3" d="M80 55l31 84q190 -59 310 -59t190.5 20.5t120.5 62.5q108 91 108 246.5t-104.5 230.5t-293.5 75q-61 0 -127 -8l-26 73l463 471l-9 9h-610v96h766l21 -76q-37 -39 -100 -102l-361 -361l4 -8h53q313 0 410 -216q32 -73 32 -177.5t-37.5 -186.5t-102.5 -136 q-133 -109 -339 -109q-242 0 -399 71z" />
<glyph unicode="4" d="M51 385v92l662 879h121v-881h200v-90h-200l2 -385h-115l2 385h-672zM162 475h563v731h-10z" />
<glyph unicode="5" d="M96 57l31 84q185 -61 350.5 -61t272 83t106.5 261q0 155 -103 241q-94 78 -240.5 78t-254.5 -57l-74 47l35 623h694v-96h-596q-4 -39 -7 -102.5t-7 -132.5t-8 -133.5t-6 -103.5q16 6 37.5 14.5t51.5 15.5q86 20 163.5 20t155 -22.5t139.5 -71.5q139 -113 139 -320 q0 -212 -143 -334q-126 -108 -330 -108q-241 0 -406 75z" />
<glyph unicode="6" d="M106 621q0 342 130 543q138 212 389 212q159 0 290 -61l-30 -84q-132 49 -236 49t-164.5 -29.5t-105.5 -77t-74 -107.5t-47 -120q-32 -104 -37 -209l8 -6q176 105 369 105q276 0 368 -225q33 -79 33 -185t-31.5 -187t-89.5 -137q-120 -116 -319 -116q-251 0 -363 186 q-90 151 -90 449zM223 575q0 -197 55 -319q81 -178 285 -178q154 0 240 94q84 92 84 240q0 329 -309 329q-136 0 -256 -55q-71 -31 -99 -59v-52z" />
<glyph unicode="7" d="M137 1262v96h803v-92l-567 -1266h-113l569 1262h-692z" />
<glyph unicode="8" d="M86 328q0 198 144 347q51 52 122 93q-100 55 -149 119.5t-49 147t28.5 142.5t81.5 105q115 98 293 98q159 0 267 -73q130 -89 130 -246q0 -197 -215 -352q246 -120 246 -353q0 -157 -117 -260q-124 -110 -333 -110q-218 0 -339 102q-110 94 -110 240zM203 342 q0 -111 78 -183q90 -83 256 -83q88 0 150.5 23.5t102.5 63.5q82 80 82 195q0 136 -122 220q-58 40 -136.5 74t-173.5 73q-131 -82 -184 -184.5t-53 -198.5zM272 1058.5q0 -68.5 32 -112t83 -76.5q59 -40 250 -118q207 142 207 290q0 155 -157 220q-56 24 -136 24 q-142 0 -218 -88q-61 -71 -61 -139.5z" />
<glyph unicode="9" d="M80 933.5q0 106.5 31.5 187.5t88.5 139q117 116 320 116q364 0 432 -390q21 -116 21 -263.5t-33 -286.5t-98 -238q-135 -210 -389 -210q-197 0 -312 59l31 84q128 -51 281 -51q145 0 245 108q78 83 122 226q30 102 36 211l-8 6q-167 -109 -367 -109q-276 0 -369 226 q-32 79 -32 185.5zM193 950q0 -332 307 -332q136 0 258 56q45 20 69.5 38.5t28.5 20.5v51q0 199 -55 318q-82 178 -285 178q-158 0 -240.5 -92t-82.5 -238z" />
<glyph unicode=":" horiz-adv-x="360" d="M96 78q0 35 25.5 59.5t60.5 24.5t60.5 -24.5t25.5 -59.5t-23.5 -61.5t-60.5 -26.5t-62.5 26.5t-25.5 61.5zM96 715q0 35 25.5 59.5t60.5 24.5t60.5 -24.5t25.5 -60.5t-24.5 -61.5t-59.5 -25.5t-61.5 26.5t-26.5 61.5z" />
<glyph unicode=";" horiz-adv-x="360" d="M84 -190q70 82 74 182q-29 6 -47.5 27.5t-18.5 54.5t24.5 58.5t64.5 25.5t66.5 -30t26.5 -71t-11 -79.5t-33 -77.5q-47 -86 -115 -129zM96 715q0 35 25.5 59.5t60.5 24.5t60.5 -24.5t25.5 -60.5t-24.5 -61.5t-59.5 -25.5t-61.5 26.5t-26.5 61.5z" />
<glyph unicode="&#x3c;" d="M162 565v84l776 398v-105l-674 -334l674 -338v-104z" />
<glyph unicode="=" d="M152 426v88h784v-88h-784zM152 717v90h784v-90h-784z" />
<glyph unicode="&#x3e;" d="M162 166v104l674 338l-674 334v105l776 -398v-84z" />
<glyph unicode="?" horiz-adv-x="868" d="M86 1376q177 62 358.5 62t275 -73t93.5 -202q0 -156 -227 -347q-137 -115 -182.5 -185t-45.5 -121t19 -158l-101 -18q-24 101 -24 177.5t32.5 135t81 110.5t105.5 100t105 96q114 112 114 208t-71.5 137t-206 41t-297.5 -55zM279 67q0 36 25.5 60.5t61.5 24.5t61.5 -24.5 t25.5 -61.5t-26 -59.5t-60 -22.5q-35 0 -61.5 23.5t-26.5 59.5z" />
<glyph unicode="@" horiz-adv-x="1769" d="M152 680q0 158 61 290t167.5 228t247 150.5t301.5 54.5t291 -46t221 -132q187 -177 187 -480q0 -198 -110 -313q-96 -102 -224 -102q-63 0 -125.5 24.5t-91.5 91.5q-47 -45 -121.5 -79.5t-150.5 -34.5t-117 21.5t-64 54.5q-40 58 -40 151.5t69.5 146t180.5 62.5l225 16 v66q0 104 -36 144t-140.5 40t-227.5 -45q-9 28 -20 68q120 59 254.5 59t196 -54t61.5 -183v-332q0 -68 39 -104.5t98 -36.5t103.5 18t80.5 59q80 93 80 247t-45 264t-126 184q-168 155 -451 155q-141 0 -268.5 -49t-222.5 -137t-150.5 -207t-55.5 -258t49.5 -258t135.5 -205 q184 -184 454 -184q122 0 244 39l21 -68q-127 -45 -273 -45t-277.5 54.5t-228.5 149.5q-202 199 -202 515zM678 555q0 -66 36 -107.5t113 -41.5q118 0 232 100v215l-215 -19q-72 -4 -119 -42.5t-47 -104.5z" />
<glyph unicode="A" horiz-adv-x="1128" d="M29 0l456 1399h156q117 -352 228.5 -700.5t226.5 -698.5h-125l-123 383h-576l-118 -383h-125zM305 477h514q-241 768 -254 817h-6z" />
<glyph unicode="B" horiz-adv-x="1196" d="M164 0v1397h465q203 0 302 -98.5t99 -251.5q0 -129 -91 -235q-36 -42 -93 -75v-14q122 -45 181 -156q46 -87 46 -183.5t-29.5 -165t-81.5 -116.5q-110 -102 -268 -102h-530zM283 94h370q154 0 231 88q68 77 68 205q0 119 -80 202q-85 89 -221 89h-368v-584zM283 774h333 q135 0 214 70.5t79 189.5q0 189 -165 248q-58 21 -138 21h-323v-529z" />
<glyph unicode="C" horiz-adv-x="1165" d="M123 690q0 475 294 660q114 71 292 71q205 0 348 -55l-29 -92q-145 49 -288.5 49t-231.5 -45t-146 -128q-114 -161 -114 -462q0 -277 88 -422q110 -182 383 -182q179 0 340 47l24 -86q-147 -59 -346 -59t-308.5 50t-176.5 142q-129 175 -129 512z" />
<glyph unicode="D" horiz-adv-x="1275" d="M164 0v1401h430q306 0 444 -209q115 -173 115 -490q0 -320 -121 -494q-146 -208 -459 -208h-409zM287 98h270q107 0 168 20.5t113.5 56.5t94.5 101q95 149 95 412q0 269 -88 425q-66 117 -188 163q-76 29 -181 29h-284v-1207z" />
<glyph unicode="E" horiz-adv-x="1087" d="M164 0v1399h805v-94h-684v-517h585v-94h-585v-598h719v-96h-840z" />
<glyph unicode="F" horiz-adv-x="1030" d="M164 0v1399h801v-96h-680v-521h577v-96h-577v-686h-121z" />
<glyph unicode="G" horiz-adv-x="1247" d="M123 692q0 178 39 291t84 186.5t114 130.5q147 121 377 121q212 0 355 -55l-25 -90q-162 47 -305.5 47t-237.5 -45t-156 -128q-120 -163 -120 -466q0 -274 88 -417q111 -181 379 -181q173 0 274 39v584h115v-664q-175 -59 -368.5 -59t-303.5 50t-179 143 q-130 175 -130 513z" />
<glyph unicode="H" horiz-adv-x="1282" d="M164 0v1399h125v-126l-2 -357v-125h706v608h125v-1399h-125v688h-706v-204l2 -278v-206h-125z" />
<glyph unicode="I" horiz-adv-x="487" d="M184 0v1401h119v-1401h-119z" />
<glyph unicode="J" horiz-adv-x="579" d="M-88 -279q189 109 265 215q79 110 79 300v1165h119v-1159q0 -349 -244 -512q-80 -54 -182 -97z" />
<glyph unicode="K" horiz-adv-x="1126" d="M164 0v1401h121v-676l655 676h143l-548 -561l563 -840h-137l-506 756l-170 -172v-584h-121z" />
<glyph unicode="L" horiz-adv-x="1087" d="M186 0v1399h123v-1305h748v-94h-871z" />
<glyph unicode="M" horiz-adv-x="1626" d="M164 0v1397h135q111 -242 217.5 -485.5t216.5 -487.5l74 -170h10l514 1143h129v-1397h-117l-2 1167h-4l-94 -213q-49 -109 -100 -220t-99.5 -218.5t-93.5 -207t-82 -181.5h-116q-29 64 -54.5 122t-50 110.5t-61.5 137t-90.5 200.5t-120.5 264l-90 208h-6v-1169h-115z" />
<glyph unicode="N" horiz-adv-x="1347" d="M164 0v1399h123q46 -69 142.5 -219t162 -251.5t124.5 -193.5q143 -226 177 -276l164 -254h8v1194h119l-2 -1399h-117q-49 71 -210 323t-220.5 344.5t-108.5 167t-73 113.5l-164 264l-8 -2v-1210h-117z" />
<glyph unicode="O" horiz-adv-x="1384" d="M123 677.5q0 153.5 29.5 287t97.5 234.5q148 222 455 222q304 0 443 -222q114 -181 114 -511q0 -146 -35 -274.5t-105 -223.5q-151 -204 -417 -204q-452 0 -551 408q-31 130 -31 283.5zM248 678q0 -289 106.5 -443.5t343.5 -154.5q215 0 330 178q107 166 107 420 q0 116 -15.5 230t-61.5 207q-105 212 -353 212q-254 0 -367 -201q-90 -159 -90 -448z" />
<glyph unicode="P" horiz-adv-x="1075" d="M164 0v1401h432q186 0 299 -99q57 -49 89 -123.5t32 -155t-18.5 -153.5t-63.5 -134q-105 -144 -320 -144h-329l2 -592h-123zM285 686h315q198 0 266 160q25 61 25 145t-23.5 142.5t-63.5 96.5q-79 75 -210 75h-309v-619z" />
<glyph unicode="Q" horiz-adv-x="1384" d="M123 688q0 507 306 672q112 61 277 61t272 -61.5t170 -162.5q114 -185 114 -505q0 -376 -198 -568q-65 -63 -151 -97l336 -86l-41 -113q-33 10 -95 30.5t-132 43.5q-185 59 -225 75q-10 2 -26 3q-332 10 -475 195q-132 170 -132 513zM248 676q0 -289 105.5 -443.5 t342.5 -154.5q218 0 332 179q107 168 107 421q0 116 -15.5 229t-61.5 206q-105 212 -353 212q-253 0 -367 -201q-90 -159 -90 -448z" />
<glyph unicode="R" horiz-adv-x="1153" d="M164 0v1401h440q205 0 314 -108q100 -99 100 -259q0 -69 -14.5 -127.5t-45.5 -107.5q-66 -107 -192 -140q84 -27 124 -91t64 -150l121 -418h-123l-114 401q-45 132 -114 181q-66 47 -173 47h-266v-629h-121zM285 725h313q206 0 272 157q23 56 23 136q0 147 -85 216 t-216 69h-307v-578z" />
<glyph unicode="S" horiz-adv-x="1120" d="M94 88l41 90q196 -94 384.5 -94t286 65.5t97.5 227.5q0 129 -93 195q-68 50 -197.5 84.5t-211.5 60.5t-144 67q-136 90 -136 254q0 182 125 285q121 100 321 100q218 0 367 -73l-39 -93q-167 66 -319 66t-241 -69.5t-89 -213.5q0 -157 214 -226q62 -19 133 -37.5 t149.5 -43t141.5 -67.5q144 -97 144 -289q0 -197 -142 -300q-127 -91 -354 -91q-260 0 -438 102z" />
<glyph unicode="T" horiz-adv-x="1097" d="M39 1303v98h1018v-98h-447l-2 -1303h-119v1303h-450z" />
<glyph unicode="U" horiz-adv-x="1339" d="M156 498v903h116l2 -901q0 -209 100.5 -314.5t294.5 -105.5t295 104.5t101 315.5v901h121v-903q0 -236 -128 -371q-134 -141 -397 -141t-384 136t-121 376z" />
<glyph unicode="V" horiz-adv-x="1081" d="M29 1401h129l381 -1276h8l381 1276h125l-439 -1401h-147z" />
<glyph unicode="W" horiz-adv-x="1652" d="M29 1397h123q14 -63 36.5 -160.5t49 -214.5t56.5 -242t58 -243l90 -396h9q23 96 44 191.5t59 257.5q116 497 187 807h127q27 -105 89.5 -334t93 -345t43 -158t28 -97t31.5 -119q32 -130 53 -203h11l286 1256h119q-168 -700 -340 -1397h-145q-57 217 -113.5 423t-98 363.5 t-64.5 247.5t-50 183h-12l-279 -1217h-151z" />
<glyph unicode="X" horiz-adv-x="1081" d="M27 0l440 725q-248 409 -412 674h135q189 -322 353 -590l354 590h133l-420 -678l443 -721h-135l-381 635l-379 -635h-131z" />
<glyph unicode="Y" horiz-adv-x="1024" d="M25 1401h129l219 -416l129 -256h8l133 254l227 418h127l-428 -770v-631h-127v623z" />
<glyph unicode="Z" horiz-adv-x="1028" d="M39 0v98l770 1202h-721v101h866v-98l-770 -1203h805v-100h-950z" />
<glyph unicode="[" horiz-adv-x="499" d="M119 -328v1753h307v-86h-197v-1579h197v-88h-307z" />
<glyph unicode="\" horiz-adv-x="659" d="M23 1432h83l529 -1487h-86z" />
<glyph unicode="]" horiz-adv-x="499" d="M76 -240h196v1579h-196v86h305v-1753h-305v88z" />
<glyph unicode="^" horiz-adv-x="880" d="M51 801l348 596h84l340 -596h-96l-289 502l-286 -502h-101z" />
<glyph unicode="_" horiz-adv-x="1024" d="M0 -180h1024v-74h-1024v74z" />
<glyph unicode="`" horiz-adv-x="978" d="M272 1391l93 84l231 -314l-57 -49z" />
<glyph unicode="a" horiz-adv-x="1036" d="M82 275.5q0 123.5 91 196.5t235 83l313 16v82q0 139 -47 199.5t-187.5 60.5t-306.5 -59l-28 80q177 76 346.5 76t252.5 -74t83 -252v-594h135q4 -16 4 -33.5t2 -33.5q-72 -33 -139.5 -33t-93.5 28q-22 24 -22 77q0 8 1 18l-4 2q-147 -117 -287 -125q-35 -2 -89 -2 t-110.5 25.5t-88.5 65.5q-60 73 -60 196.5zM205 268q0 -94 50 -143t171.5 -49t294.5 141v272l-285 -16q-117 -4 -174 -57.5t-57 -147.5z" />
<glyph unicode="b" horiz-adv-x="1017" d="M121 70v1384h115v-326l-3 -99l-2 -101l7 -4q177 92 299 92t192 -40t112 -110q77 -127 77 -374q0 -353 -216 -464q-77 -40 -194 -40q-206 0 -387 82zM236 133q123 -53 264 -53q223 0 280 217q21 78 21 197.5t-19.5 202.5t-54.5 133q-64 90 -193 90t-298 -97v-690z" />
<glyph unicode="c" horiz-adv-x="911" d="M100 483q0 201 82 345q106 188 355 188q158 0 280 -51l-31 -86q-112 41 -241 41q-164 0 -245 -117.5t-81 -310.5q0 -412 309 -412q130 0 297 67l31 -79q-143 -82 -334 -82q-221 0 -328 141q-94 122 -94 356z" />
<glyph unicode="d" horiz-adv-x="1019" d="M100 477q0 380 210 496q75 41 182 41q163 0 290 -78v516h115v-1452h-113v102q-2 0 -2 1t-2 1q-144 -116 -317 -116q-192 0 -284 144q-79 123 -79 345zM219 475q0 -314 162 -375q51 -20 98.5 -20t88 10t80.5 26q80 34 134 85v637q-45 29 -122.5 54.5t-145 25.5t-120 -22 t-91.5 -74q-84 -112 -84 -347z" />
<glyph unicode="e" horiz-adv-x="995" d="M100 494q0 183 72 322q103 198 346 198q175 0 273 -100q105 -107 109 -305q1 -46 1 -72v-60h-682q0 -282 155 -367q60 -32 151 -32t162 18.5t157 57.5l30 -78q-165 -90 -352 -90q-235 0 -338 150q-84 123 -84 358zM221 559h570q0 265 -141 341q-52 28 -131 28t-134 -31 t-89 -82q-61 -92 -75 -256z" />
<glyph unicode="f" horiz-adv-x="690" d="M76 909v66l141 29v176q0 147 78 220t223 73q81 0 180 -21l-14 -86q-82 14 -165.5 14t-136 -44t-52.5 -152v-185h297v-90h-297l-2 -909h-111v909h-141z" />
<glyph unicode="g" horiz-adv-x="1069" d="M92 -154q0 86 41 154t90 96q-125 18 -125 137q0 79 58 121q38 28 116 39l2 6q-57 29 -100 95.5t-43 167t34 167t87 107.5q103 80 236.5 80t199.5 -23h307v-82h-172l-4 -6q90 -79 90 -231q0 -156 -113 -249q-108 -89 -290 -89h-117q-78 0 -129 -15.5t-51 -70.5 q0 -80 121 -80h274q184 0 272.5 -77t88.5 -214q0 -151 -129 -237q-130 -86 -334 -86q-225 0 -327 89q-83 72 -83 201zM205 -137q0 -37 13 -78t48 -73q76 -68 238.5 -68t254 62.5t91.5 170.5q0 205 -264 205h-244q-93 -38 -127 -150q-10 -32 -10 -69zM246 675 q0 -116 68.5 -184.5t191.5 -68.5t206 62.5t83 189.5q0 165 -145 230q-52 24 -132 24q-133 0 -202.5 -68.5t-69.5 -184.5z" />
<glyph unicode="h" horiz-adv-x="1003" d="M121 0v1454h112v-355l-4 -192l13 -6q213 115 364 115q176 0 238 -105q39 -67 39 -204v-707h-115v672q0 131 -25.5 171t-63.5 57.5t-104 17.5q-143 0 -339 -109v-809h-115z" />
<glyph unicode="i" horiz-adv-x="460" d="M147 1254.5q0 33.5 24 59t58 25.5q35 0 59.5 -25.5t24.5 -59.5t-24.5 -58.5t-59.5 -24.5t-58.5 25t-23.5 58.5zM172 0v997h115v-997h-115z" />
<glyph unicode="j" horiz-adv-x="479" d="M-51 -362q144 80 193 155q46 72 46 201l-2 1003h115v-1001q-4 -176 -69 -268q-72 -101 -248 -170zM164 1254q0 34 23.5 59.5t58.5 25.5t59.5 -25.5t24.5 -59.5t-24.5 -58.5t-59.5 -24.5t-58.5 24.5t-23.5 58.5z" />
<glyph unicode="k" horiz-adv-x="878" d="M119 0v1450h114v-657l-4 -250q2 0 11 -4l120 123l338 333h133l-391 -389q45 -56 68 -89.5t71 -105t101 -149.5t101 -150.5t77 -111.5h-129q-92 135 -181 268t-181 269l-134 -134v-403h-114z" />
<glyph unicode="l" horiz-adv-x="419" d="M152 0v1454h114v-1454h-114z" />
<glyph unicode="m" horiz-adv-x="1613" d="M121 0v997h110v-19l2 -56v-19l9 -4q192 115 359 115t233 -125q208 125 370 125q177 0 244 -102q43 -65 43 -199v-713h-115v670q0 128 -26.5 170.5t-65.5 60t-90 17.5t-95 -9.5t-87 -24.5q-95 -35 -158 -73q8 -58 8 -115v-696h-114v688q0 109 -38 168t-147 59 q-149 0 -327 -108v-807h-115z" />
<glyph unicode="n" horiz-adv-x="1003" d="M121 0v997h112v-18l3 -55v-19q0 -2 2 -2t2 -1t2 -1q90 55 190 85t185 30t140.5 -26.5t82.5 -69.5q43 -66 43 -201v-719h-115v670q0 124 -27.5 168.5t-65.5 62t-100 17.5q-143 0 -339 -109v-809h-115z" />
<glyph unicode="o" horiz-adv-x="1034" d="M100 489q0 355 228 480q82 45 200.5 45t197.5 -45t126 -119t65.5 -167t18.5 -187t-19.5 -185.5t-67.5 -164.5q-106 -160 -337 -160q-222 0 -326 154q-86 127 -86 349zM219 487q0 -188 57 -283q74 -126 250 -126q291 0 291 411q0 291 -141 392q-58 41 -150 41 q-167 0 -246 -140q-61 -109 -61 -295z" />
<glyph unicode="p" horiz-adv-x="1017" d="M121 -430v1427h106l4 -98l9 -6q146 117 313 117q193 0 284 -144q78 -124 78 -350q0 -374 -209 -489q-75 -41 -182 -41q-173 0 -291 75v-491h-112zM233 158q45 -31 123 -56.5t145.5 -25.5t121 22.5t92.5 74.5q84 112 84 347q0 311 -164 374q-51 19 -99.5 19t-88 -10 t-79.5 -27q-82 -36 -135 -83v-635z" />
<glyph unicode="q" horiz-adv-x="1019" d="M102 481q0 373 216 489q79 42 198 42q199 0 381 -82v-1360h-113v380q0 56 2 113l-12 9q-169 -90 -289 -90t-191 36.5t-114 103.5q-78 120 -78 359zM217 504q0 -342 156 -408q49 -20 108 -20q137 0 301 94v698q-126 52 -261.5 52t-218.5 -97.5t-85 -318.5z" />
<glyph unicode="r" horiz-adv-x="643" d="M143 0v997h115l-6 -131l10 -4q122 100 252 144q43 14 76 14q41 0 41 -39q0 -18 -11.5 -54t-27.5 -59q-51 -4 -179 -32.5t-153 -30.5v-805h-117z" />
<glyph unicode="s" horiz-adv-x="876" d="M86 61l39 82q137 -67 295 -67q182 0 240 101q20 36 20 83t-20.5 78t-53.5 54q-40 29 -133.5 61t-152 54.5t-104.5 54.5q-101 70 -101 186q0 134 101 204q91 62 237 62q163 0 278 -62q-26 -68 -35 -84q-133 52 -235 52t-169 -40t-67 -135q0 -114 230 -180 q61 -20 121.5 -41.5t108.5 -54.5q106 -73 106 -205q0 -139 -109 -212q-99 -66 -262 -66q-204 0 -334 75z" />
<glyph unicode="t" horiz-adv-x="681" d="M53 909v64l148 35l37 200l73 13v-224h295v-88h-297v-657q0 -74 29 -120t110 -46t201 35l19 -78q-113 -51 -228 -51t-179 51t-64 174v692h-144z" />
<glyph unicode="u" horiz-adv-x="985" d="M121 287v710h115v-675q0 -134 24.5 -173.5t62 -57t102 -17.5t155 35.5t172.5 107.5l-2 780l114 2v-999h-112v121l-7 4q-170 -145 -346 -145q-181 0 -241 102q-27 45 -32 99.5t-5 105.5z" />
<glyph unicode="v" horiz-adv-x="866" d="M25 995h116q47 -150 98.5 -300t86.5 -265t57.5 -189.5t44.5 -144.5h10q12 39 38 125t54.5 174t55 171t52.5 160q55 162 87 269h119l-346 -995h-140q-82 244 -163.5 490.5t-169.5 504.5z" />
<glyph unicode="w" horiz-adv-x="1404" d="M25 997h114l158 -575l78 -309h8l88 325l162 559h115l190 -604l82 -280h10l72 286l162 598h116l-286 -997h-131l-181 563l-88 301h-8l-78 -289l-168 -575h-133z" />
<glyph unicode="x" horiz-adv-x="831" d="M14 0l332 524q-158 254 -299 473h129l238 -395l239 395h127l-301 -469q86 -133 169 -264t169 -264h-131l-272 451q-222 -364 -277 -451h-123z" />
<glyph unicode="y" horiz-adv-x="888" d="M-2 -414l18 86q108 -22 150.5 -22t66 4t45.5 20q42 30 72 123l68 207h-60q-46 154 -121 377t-106 318.5t-57.5 173t-40.5 124.5h112q8 -27 24.5 -78t36 -113.5t42 -131t42 -131t36 -113.5t24.5 -80l86 -274h8l291 921h117q-41 -120 -139.5 -425.5t-137 -421t-69.5 -211 t-57.5 -176.5t-83 -144t-160.5 -63q-29 2 -79 5t-128 25z" />
<glyph unicode="z" horiz-adv-x="823" d="M29 0v80l596 819l-7 8h-534v90h684v-86l-592 -813l4 -10l608 2v-90h-759z" />
<glyph unicode="{" horiz-adv-x="505" d="M61 573v70q140 26 140 229v299q0 263 157 263h97v-88h-47q-99 0 -99 -132v-348q0 -214 -116 -256q77 -43 99 -114q17 -54 17 -179v-440q0 -53 15.5 -91t74.5 -38h56v-86h-93q-161 0 -161 211v473q0 88 -19 128q-37 82 -121 99z" />
<glyph unicode="|" horiz-adv-x="454" d="M178 -281v1711h90v-1711h-90z" />
<glyph unicode="}" horiz-adv-x="505" d="M57 -252h56q59 0 73.5 38t14.5 91v440q0 125 14 170t37.5 73t66.5 50q-118 38 -118 256v348q0 132 -99 132h-45v88h95q157 0 157 -263v-299q0 -203 140 -229v-70q-121 -26 -136 -158q-4 -36 -4 -69v-473q0 -211 -162 -211h-90v86z" />
<glyph unicode="~" d="M145 543q71 147 187 147q71 0 188 -30q224 -56 277 -56l116 88l50 -37q-63 -147 -181 -147q-78 0 -192 30q-217 56 -271 56l-122 -90z" />
<glyph unicode="&#xa1;" horiz-adv-x="423" d="M129 925q0 36 26.5 62.5t62.5 26.5t61.5 -26.5t25.5 -62.5t-25.5 -61.5t-61.5 -25.5t-62.5 25.5t-26.5 61.5zM160 -428l6 584l16 497h74q14 -329 14 -448v-159l4 -428v-46h-114z" />
<glyph unicode="&#xa2;" d="M168 483q0 321 188 462q74 56 195 69v166h72v-164q147 -4 262 -51l-31 -86q-115 41 -231 41v-840q112 3 270 67l31 -79q-133 -72 -301 -80v-166h-72v166q-383 22 -383 495zM287 488q0 -379 264 -406v831q-135 -23 -199.5 -135t-64.5 -290z" />
<glyph unicode="&#xa3;" d="M106 0l3 92q84 36 127 154q31 87 36 217l11 188h-144v82h148l10 238q14 280 207 367q69 32 164 32q198 0 327 -59l-34 -90q-130 51 -245.5 51t-166.5 -22.5t-82 -64.5q-50 -67 -59 -222l-11 -230h400v-82h-406l-8 -190q-7 -186 -67 -302q-21 -42 -54 -67h719v-92h-875z " />
<glyph unicode="&#xa4;" horiz-adv-x="1081" d="M111 262l131 127q-84 101 -84 240.5t84 234.5l-129 131l57 60l131 -129q104 84 240 84q123 0 237 -84l131 129l60 -62l-133 -127q84 -105 84 -236.5t-84 -240.5l135 -123l-62 -65l-133 129q-99 -82 -234.5 -82t-238.5 82l-133 -131zM244 626q0 -60 23.5 -114.5 t63.5 -94.5q85 -85 208 -85q122 0 205 85q87 88 87 210q0 121 -85 205q-87 88 -207 88q-119 0 -208 -88q-87 -85 -87 -206z" />
<glyph unicode="&#xa5;" d="M90 1358h123q17 -41 102.5 -215t98.5 -201l125 -254h6q10 18 27.5 53t37 73t37 74t27.5 54l207 416h120q-29 -59 -88 -170t-98 -184.5t-75 -141.5q-76 -145 -109 -213h313v-65h-803v65h310q-16 33 -45 89.5t-63 124t-73 141t-72.5 141t-62.5 124t-45 89.5zM141 420v65 h803v-65h-346v-420h-117v420h-340z" />
<glyph unicode="&#xa6;" horiz-adv-x="454" d="M178 -281v791h90v-791h-90zM178 713v717h90v-717h-90z" />
<glyph unicode="&#xa7;" horiz-adv-x="933" d="M121 655q0 161 160 275q-72 49 -103 100t-31 121t27 126t75 93q99 76 257 76q139 0 285 -47l-29 -84q-134 43 -258 43q-169 0 -230 -111q-22 -39 -22 -90t28.5 -86t72.5 -64.5t99.5 -55t145.5 -68.5q217 -104 217 -271q0 -144 -141 -266q157 -102 157 -248 q0 -154 -119 -238q-105 -75 -272 -75q-136 0 -299 49l25 82q146 -47 272.5 -47t205.5 56.5t79 151.5t-62.5 148.5t-141.5 89t-147.5 64.5t-123.5 65q-127 85 -127 211zM225 674q0 -57 35 -98t88 -72t120 -57.5t130 -59.5q117 109 117 215q0 88 -104 160q-48 33 -113.5 63.5 t-141.5 67.5q-57 -47 -94 -104.5t-37 -114.5z" />
<glyph unicode="&#xa8;" horiz-adv-x="958" d="M221 1239q0 31 22.5 52.5t54.5 21.5t53.5 -20.5t21.5 -52.5t-21.5 -52.5t-54.5 -20.5t-54.5 20.5t-21.5 51.5zM557 1239q0 31 21.5 52.5t52.5 21.5t53.5 -20.5t22.5 -52.5t-22.5 -52.5t-54.5 -20.5t-52.5 20.5t-20.5 51.5z" />
<glyph unicode="&#xa9;" horiz-adv-x="1695" d="M111 683q0 153 58 286t158.5 233.5t235.5 157.5t289 57t289 -57t237.5 -157.5t161.5 -233.5t59 -286t-59 -287t-161.5 -233.5t-237.5 -157.5t-289 -58t-289 58t-235.5 157.5t-158.5 233.5t-58 287zM178 683q0 -138 53.5 -259t145.5 -211t214 -142.5t262 -52.5t263 52.5 t214 142.5t143.5 211t52.5 259t-52.5 260t-143.5 212t-214 142.5t-263 52.5t-262 -52.5t-214 -142.5t-145.5 -212t-53.5 -260zM442 668q0 200 85 342q112 186 347 186q156 0 250 -39l-20 -76q-98 37 -203.5 37t-170 -31.5t-107.5 -90.5q-86 -120 -86 -330q0 -204 67 -304 q86 -129 279 -129q141 0 239 35l19 -69q-113 -45 -275 -45q-424 0 -424 514z" />
<glyph unicode="&#xaa;" horiz-adv-x="679" d="M39 735q0 86 64.5 129t136 51.5t125 10.5t102.5 4v45q0 86 -29.5 122t-120.5 36t-211 -43q-20 54 -24 69q124 53 246.5 53t178.5 -48t56 -171v-366h94l7 -66q-59 -22 -107.5 -22t-66 18t-23.5 57q-108 -79 -225 -79q-111 0 -162 64q-41 50 -41 136zM139 733 q0 -121 131 -121q90 0 197 80v170q-128 -6 -186 -11t-100 -35t-42 -83z" />
<glyph unicode="&#xab;" horiz-adv-x="825" d="M131 340v74l289 309l49 -41l-219 -305l221 -305l-49 -39zM389 340v74l289 309l51 -41l-221 -305l223 -305l-51 -39z" />
<glyph unicode="&#xac;" d="M166 565v88h766v-434h-92v346h-674z" />
<glyph unicode="&#xad;" horiz-adv-x="708" d="M106 477v103h496v-103h-496z" />
<glyph unicode="&#xae;" horiz-adv-x="1173" d="M92 969q0 198 141.5 339.5t344.5 141.5q200 0 342 -142q143 -143 143 -339q0 -198 -143 -339q-140 -138 -342 -138q-207 0 -344 136q-142 139 -142 341zM152 969q0 -177 122.5 -299.5t303.5 -122.5q182 0 302 121q124 123 124 300q0 89 -33 165.5t-91 134.5 q-127 127 -302 127q-177 0 -301.5 -126.5t-124.5 -299.5zM412 676v596h190q82 0 133 -39t51 -125q0 -41 -25.5 -90t-90.5 -72l125 -270h-76l-119 262h-119v-262h-69zM481 993h119q45 0 80 21.5t35 87t-34 90.5t-81 25h-119v-224z" />
<glyph unicode="&#xaf;" horiz-adv-x="997" d="M174 1221v96h635v-96h-635z" />
<glyph unicode="&#xb0;" horiz-adv-x="694" d="M92 1110q0 103 76 181q77 79 184 79q105 0 180 -79q74 -77 74 -182q0 -52 -19.5 -99t-54.5 -81q-74 -73 -188.5 -73t-183 72.5t-68.5 181.5zM168 1108q0 -70 54 -125q51 -53 126 -53q76 0 128 53q54 56 54 125q0 72 -54 130q-53 56 -128 56q-74 0 -126 -56 q-54 -57 -54 -130z" />
<glyph unicode="&#xb1;" d="M160 18v84h776v-84h-776zM166 561v92h338v328h92v-328h336v-92h-336v-338h-92v338h-338z" />
<glyph unicode="&#xb2;" horiz-adv-x="710" d="M39 729v68q205 170 285 255q161 173 161 273q0 76 -50 108.5t-142.5 32.5t-210.5 -69l-39 67q130 86 276 86q190 0 251 -121q20 -41 20 -105.5t-43 -138t-105 -141.5q-76 -84 -258 -235h83l271 -2h83v-78h-582z" />
<glyph unicode="&#xb3;" horiz-adv-x="710" d="M39 766l27 74q124 -39 230.5 -39t170 46t63.5 132t-66.5 125t-143 39t-121.5 -6l-25 57l281 260q-2 2 -2 4l-377 2v80h516l16 -59q-66 -59 -131 -121t-151 -141h18q197 0 262 -131q23 -44 23 -106.5t-25.5 -111.5t-68.5 -82q-88 -69 -220 -69q-170 0 -276 47z" />
<glyph unicode="&#xb4;" horiz-adv-x="983" d="M344 1157l229 316l93 -82l-269 -279z" />
<glyph unicode="&#xb6;" horiz-adv-x="1005" d="M104 1065q0 143 100 250q100 106 247 106h370v-1792h-90v1702h-151l2 -1702h-95v1092h-36q-148 0 -247 99q-100 100 -100 245z" />
<glyph unicode="&#xb7;" horiz-adv-x="368" d="M98 580q0 37 28 62.5t63.5 25.5t63.5 -25.5t28 -62.5t-28 -65t-63 -28t-63.5 28t-28.5 65z" />
<glyph unicode="&#xb8;" horiz-adv-x="993" d="M381 -436q133 10 194.5 47t61.5 90q0 92 -185 92h-30l-23 33q47 57 90 114.5t91 110.5l47 -31q-84 -100 -127 -159q235 -5 235 -152q0 -82 -85 -142.5t-267 -60.5z" />
<glyph unicode="&#xb9;" horiz-adv-x="710" d="M100 1481l236 61h88v-813h-98v713l-211 -29z" />
<glyph unicode="&#xba;" horiz-adv-x="706" d="M61 870q0 233 157 317q56 30 140 30q155 0 228 -109q59 -90 59 -235q0 -62 -13.5 -122.5t-47.5 -107.5q-75 -106 -236 -106q-155 0 -227 102q-60 85 -60 231zM160 870q0 -118 28.5 -164.5t67.5 -68t100 -21.5t98.5 24t57.5 60q35 64 35 170q0 271 -189 271 q-109 0 -160 -88q-38 -67 -38 -183z" />
<glyph unicode="&#xbb;" horiz-adv-x="825" d="M113 72l221 305l-219 305l51 41l289 -309v-74l-291 -307zM373 72l221 305l-221 305l51 41l289 -309v-74l-291 -307z" />
<glyph unicode="&#xbc;" horiz-adv-x="1638" d="M166 1296l235 62h88v-813h-98v712l-211 -28zM442 -47l588 1479h82l-584 -1479h-86zM819 229v70l430 514h97v-506h127v-78h-127v-229h-99v229h-428zM930 307h319v381h-6z" />
<glyph unicode="&#xbd;" horiz-adv-x="1638" d="M147 1296l236 62h88v-813h-98v712l-211 -28zM389 -47l588 1479h82l-584 -1479h-86zM909 0v70q213 175 288 256q159 170 159 270q0 76 -50.5 108.5t-143 32.5t-210.5 -69l-39 67q130 86 277 86q189 0 250 -121q20 -41 20 -105.5t-43 -138t-105 -142.5q-89 -97 -257 -234 h436v-80h-582z" />
<glyph unicode="&#xbe;" horiz-adv-x="1638" d="M92 582q11 24 27 73q124 -39 230.5 -39t170.5 46.5t64 132.5t-66.5 124.5t-143.5 38.5t-122 -6l-25 58l281 260q-2 2 -2 4l-377 2v80h516q4 -15 17 -60q-66 -59 -131.5 -120.5t-151.5 -141.5h18q196 0 263 -130q22 -44 22 -106.5t-25.5 -111.5t-68.5 -83 q-86 -68 -219 -68q-169 0 -277 47zM520 -47l588 1479h82l-584 -1479h-86zM893 229v70l430 514h96v-506h127v-78h-127v-229h-98v229h-428zM1004 307h319v381h-6z" />
<glyph unicode="&#xbf;" horiz-adv-x="868" d="M74 -178q0 98 55 172t128 131t124 104t84 90q63 82 63 158t-16 162l96 16q23 -113 23 -198.5t-66.5 -175.5t-197.5 -201q-78 -59 -123 -114.5t-45 -131.5q0 -180 250 -180q157 0 327 55l25 -88q-175 -65 -357 -65t-274 70.5t-96 195.5zM434 927q0 36 25.5 61.5t61.5 25.5 t62.5 -25.5t26.5 -61.5t-26.5 -61.5t-61.5 -25.5t-61.5 25.5t-26.5 61.5z" />
<glyph unicode="&#xc0;" horiz-adv-x="1128" d="M29 0l456 1399h156q117 -352 228.5 -700.5t226.5 -698.5h-125l-123 383h-576l-118 -383h-125zM303 1755l90 84l232 -313l-58 -47zM305 477h514q-241 768 -254 817h-6z" />
<glyph unicode="&#xc1;" horiz-adv-x="1128" d="M29 0l456 1399h156q117 -352 228.5 -700.5t226.5 -698.5h-125l-123 383h-576l-118 -383h-125zM305 477h514q-241 768 -254 817h-6zM512 1524l231 313l93 -82l-267 -276z" />
<glyph unicode="&#xc2;" horiz-adv-x="1128" d="M29 0l456 1399h156q117 -352 228.5 -700.5t226.5 -698.5h-125l-123 383h-576l-118 -383h-125zM229 1511l289 269h88l291 -264l-39 -46l-297 195l-295 -197zM305 477h514q-241 768 -254 817h-6z" />
<glyph unicode="&#xc3;" horiz-adv-x="1128" d="M29 0l456 1399h156q117 -352 228.5 -700.5t226.5 -698.5h-125l-123 383h-576l-118 -383h-125zM258 1571q23 61 65 99t86 38t83.5 -12.5t79.5 -25.5t77 -25.5t66 -12.5l106 82l43 -33q-23 -59 -61.5 -99t-84.5 -40t-87 12.5t-81 27.5q-107 40 -138 40l-109 -82zM305 477 h514q-241 768 -254 817h-6z" />
<glyph unicode="&#xc4;" horiz-adv-x="1128" d="M29 0l456 1399h156q117 -352 228.5 -700.5t226.5 -698.5h-125l-123 383h-576l-118 -383h-125zM305 477h514q-241 768 -254 817h-6zM319 1563q0 31 23 52t53.5 21t53 -20t22.5 -52t-22.5 -52.5t-54.5 -20.5t-53.5 20.5t-21.5 51.5zM655 1563q0 31 20.5 52t52.5 21 t54.5 -20t22.5 -52t-22.5 -52.5t-54.5 -20.5t-52.5 20.5t-20.5 51.5z" />
<glyph unicode="&#xc5;" horiz-adv-x="1128" d="M29 0l456 1399h156q117 -352 228.5 -700.5t226.5 -698.5h-125l-123 383h-576l-118 -383h-125zM305 477h514q-241 768 -254 817h-6zM362 1638q0 80 57.5 137.5t143.5 57.5q82 0 139 -57q56 -56 56 -138t-55.5 -138t-142.5 -56t-142.5 57.5t-55.5 136.5zM436 1634.5 q0 -55.5 34 -90.5t91 -35t91 35t34 89t-34 92t-91 38t-91 -36.5t-34 -92z" />
<glyph unicode="&#xc6;" horiz-adv-x="1855" d="M20 0l885 1399h830v-92h-641v-521h546v-92h-546v-600h675v-94h-796v412h-561l-260 -412h-132zM467 510h506v786h-8z" />
<glyph unicode="&#xc7;" horiz-adv-x="1165" d="M123 670q0 133 24.5 261t90 237.5t179.5 181t292 71.5q205 0 348 -55l-29 -92q-145 49 -288.5 49t-231.5 -45t-146 -128q-114 -161 -114 -462q0 -277 88 -422q110 -182 383 -182q179 0 340 47l24 -86q-172 -59 -364 -59q-29 -35 -56.5 -71t-56.5 -73q236 -5 236 -151 q0 -82 -85 -142.5t-268 -60.5l-2 57q133 10 194.5 47t61.5 91q0 92 -183 92h-32l-22 32q37 47 70.5 92.5t70.5 88.5q-410 23 -497 422q-27 127 -27 260z" />
<glyph unicode="&#xc8;" horiz-adv-x="1087" d="M164 0v1399h805v-94h-684v-517h585v-94h-585v-598h719v-96h-840zM360 1755l91 84l231 -313l-57 -47z" />
<glyph unicode="&#xc9;" horiz-adv-x="1087" d="M164 0v1399h805v-94h-684v-517h585v-94h-585v-598h719v-96h-840zM502 1524l231 313l92 -82l-266 -276z" />
<glyph unicode="&#xca;" horiz-adv-x="1087" d="M164 0v1399h805v-94h-684v-517h585v-94h-585v-598h719v-96h-840zM231 1524l289 268h88l291 -264l-39 -45l-297 194l-295 -196z" />
<glyph unicode="&#xcb;" horiz-adv-x="1087" d="M164 0v1399h805v-94h-684v-517h585v-94h-585v-598h719v-96h-840zM336 1569q0 31 22.5 52t53.5 21t53 -20t22 -52t-22.5 -52.5t-54 -20.5t-53 20.5t-21.5 51.5zM672 1569q0 31 20.5 52t52 21t54 -20t22.5 -52t-22.5 -52.5t-54.5 -20.5t-52 20.5t-20 51.5z" />
<glyph unicode="&#xcc;" horiz-adv-x="487" d="M-14 1755l90 84l231 -313l-57 -47zM184 0v1401h119v-1401h-119z" />
<glyph unicode="&#xcd;" horiz-adv-x="487" d="M184 0v1401h119v-1401h-119zM184 1524l232 313l92 -82l-266 -276z" />
<glyph unicode="&#xce;" horiz-adv-x="487" d="M-88 1513l289 269h88l291 -264l-39 -45l-297 194l-295 -197zM184 0v1401h119v-1401h-119z" />
<glyph unicode="&#xcf;" horiz-adv-x="487" d="M6 1571q0 31 22.5 52.5t53.5 21.5t53.5 -20.5t22.5 -52.5t-22.5 -52.5t-54.5 -20.5t-53.5 20.5t-21.5 51.5zM184 0v1401h119v-1401h-119zM342 1571q0 31 20.5 52.5t52.5 21.5t54.5 -20.5t22.5 -52.5t-23 -52.5t-54.5 -20.5t-52 20.5t-20.5 51.5z" />
<glyph unicode="&#xd0;" horiz-adv-x="1275" d="M33 690v90h131v621h430q306 0 444 -209q115 -173 115 -490q0 -320 -121 -494q-146 -208 -459 -208h-409v690h-131zM287 98h270q107 0 168 20.5t113.5 56.5t94.5 101q95 149 95 412q0 269 -88 425q-66 117 -188 163q-76 29 -181 29h-284v-525h370v-90h-370v-592z" />
<glyph unicode="&#xd1;" horiz-adv-x="1347" d="M164 0v1399h123q46 -69 142.5 -219t162 -251.5t124.5 -193.5q143 -226 177 -276l164 -254h8v1194h119l-2 -1399h-117q-49 71 -210 323t-220.5 344.5t-108.5 167t-73 113.5l-164 264l-8 -2v-1210h-117zM375 1569q23 61 64.5 99t86 38t84 -12.5t79.5 -25.5t77 -25.5 t65 -12.5l107 82l43 -33q-23 -59 -62 -99t-85 -40t-86.5 12.5t-80.5 27.5q-107 40 -139 40l-108 -82z" />
<glyph unicode="&#xd2;" horiz-adv-x="1384" d="M123 677.5q0 153.5 29.5 287t97.5 234.5q148 222 455 222q304 0 443 -222q114 -181 114 -511q0 -146 -35 -274.5t-105 -223.5q-151 -204 -417 -204q-452 0 -551 408q-31 130 -31 283.5zM248 678q0 -289 106.5 -443.5t343.5 -154.5q215 0 330 178q107 166 107 420 q0 116 -15.5 230t-61.5 207q-105 212 -353 212q-254 0 -367 -201q-90 -159 -90 -448zM446 1755l91 84l231 -313l-57 -47z" />
<glyph unicode="&#xd3;" horiz-adv-x="1384" d="M123 677.5q0 153.5 29.5 287t97.5 234.5q148 222 455 222q304 0 443 -222q114 -181 114 -511q0 -146 -35 -274.5t-105 -223.5q-151 -204 -417 -204q-452 0 -551 408q-31 130 -31 283.5zM248 678q0 -289 106.5 -443.5t343.5 -154.5q215 0 330 178q107 166 107 420 q0 116 -15.5 230t-61.5 207q-105 212 -353 212q-254 0 -367 -201q-90 -159 -90 -448zM631 1524l231 313l92 -82l-266 -276z" />
<glyph unicode="&#xd4;" horiz-adv-x="1384" d="M123 677.5q0 153.5 29.5 287t97.5 234.5q148 222 455 222q304 0 443 -222q114 -181 114 -511q0 -146 -35 -274.5t-105 -223.5q-151 -204 -417 -204q-452 0 -551 408q-31 130 -31 283.5zM248 678q0 -289 106.5 -443.5t343.5 -154.5q215 0 330 178q107 166 107 420 q0 116 -15.5 230t-61.5 207q-105 212 -353 212q-254 0 -367 -201q-90 -159 -90 -448zM375 1524l289 268h88l290 -264l-38 -45l-297 194l-295 -196z" />
<glyph unicode="&#xd5;" horiz-adv-x="1384" d="M123 677.5q0 153.5 29.5 287t97.5 234.5q148 222 455 222q304 0 443 -222q114 -181 114 -511q0 -146 -35 -274.5t-105 -223.5q-151 -204 -417 -204q-452 0 -551 408q-31 130 -31 283.5zM248 678q0 -289 106.5 -443.5t343.5 -154.5q215 0 330 178q107 166 107 420 q0 116 -15.5 230t-61.5 207q-105 212 -353 212q-254 0 -367 -201q-90 -159 -90 -448zM401 1595q23 61 65 99.5t86 38.5t84 -12.5t80 -26.5q111 -37 142 -37l107 82l43 -33q-23 -59 -62 -99t-85 -40t-87 12t-81 27q-105 41 -138 41l-109 -82z" />
<glyph unicode="&#xd6;" horiz-adv-x="1384" d="M123 677.5q0 153.5 29.5 287t97.5 234.5q148 222 455 222q304 0 443 -222q114 -181 114 -511q0 -146 -35 -274.5t-105 -223.5q-151 -204 -417 -204q-452 0 -551 408q-31 130 -31 283.5zM248 678q0 -289 106.5 -443.5t343.5 -154.5q215 0 330 178q107 166 107 420 q0 116 -15.5 230t-61.5 207q-105 212 -353 212q-254 0 -367 -201q-90 -159 -90 -448zM461 1591.5q0 30.5 22.5 52t53.5 21.5t53 -20.5t22 -52.5t-22.5 -52t-54 -20t-53 20.5t-21.5 51zM797 1591.5q0 30.5 20.5 52t52 21.5t54 -20.5t22.5 -52.5t-22.5 -52t-54.5 -20t-52 20.5 t-20 51z" />
<glyph unicode="&#xd7;" horiz-adv-x="1118" d="M233 326l261 262l-261 260l64 63l260 -260l248 258l65 -67l-247 -258l260 -256l-66 -66l-256 260l-262 -262z" />
<glyph unicode="&#xd8;" horiz-adv-x="1343" d="M100 -10l136 180q-134 171 -134 518q0 506 306 672q112 61 276 61q240 0 375 -139l104 141h86l-143 -192q135 -185 135 -537q0 -314 -141 -504q-150 -204 -416 -204t-405 137l-99 -133h-80zM227 684q0 -274 86 -412l676 918q-110 137 -305 137q-252 0 -366 -201 q-91 -159 -91 -442zM350 213q106 -133 328 -133q213 0 330 178q106 163 106 436t-90 436z" />
<glyph unicode="&#xd9;" horiz-adv-x="1339" d="M156 498v903h116l2 -901q0 -209 100.5 -314.5t294.5 -105.5t295 104.5t101 315.5v901h121v-903q0 -236 -128 -371q-134 -141 -397 -141t-384 136t-121 376zM436 1755l90 84l232 -313l-58 -47z" />
<glyph unicode="&#xda;" horiz-adv-x="1339" d="M156 498v903h116l2 -901q0 -209 100.5 -314.5t294.5 -105.5t295 104.5t101 315.5v901h121v-903q0 -236 -128 -371q-134 -141 -397 -141t-384 136t-121 376zM582 1524l231 313l92 -82l-266 -276z" />
<glyph unicode="&#xdb;" horiz-adv-x="1339" d="M156 498v903h116l2 -901q0 -209 100.5 -314.5t294.5 -105.5t295 104.5t101 315.5v901h121v-903q0 -236 -128 -371q-134 -141 -397 -141t-384 136t-121 376zM319 1522l302 264h90l303 -260l-41 -43l-307 190l-308 -192z" />
<glyph unicode="&#xdc;" horiz-adv-x="1339" d="M156 498v903h116l2 -901q0 -209 100.5 -314.5t294.5 -105.5t295 104.5t101 315.5v901h121v-903q0 -236 -128 -371q-134 -141 -397 -141t-384 136t-121 376zM428 1573q0 31 22.5 52.5t53.5 21.5t53.5 -20.5t22.5 -52.5t-22.5 -52.5t-54.5 -20.5t-53.5 20.5t-21.5 51.5z M764 1573q0 31 20.5 52.5t52.5 21.5t54 -20.5t22 -52.5t-22.5 -52.5t-54 -20.5t-52 20.5t-20.5 51.5z" />
<glyph unicode="&#xdd;" horiz-adv-x="1024" d="M25 1401h129l219 -416l129 -256h8l133 254l227 418h127l-428 -770v-631h-127v623zM434 1503l232 314l92 -82l-266 -277z" />
<glyph unicode="&#xde;" horiz-adv-x="1075" d="M164 0v1401h121v-275h311q185 0 299 -98q57 -49 89 -124t32 -155.5t-18.5 -153.5t-63.5 -135q-105 -143 -320 -143h-329v-317h-121zM285 412h315q198 0 266 160q25 61 25 145t-23.5 142.5t-63.5 96.5q-79 74 -210 74h-309v-618z" />
<glyph unicode="&#xdf;" horiz-adv-x="1150" d="M57 797v84h150v235q0 127 67 222q92 130 291 130q171 0 261 -88q69 -67 69 -151t-35 -138.5t-78 -98.5t-77.5 -85t-34.5 -91q0 -89 182 -230q43 -35 84 -70t72 -76q73 -94 73 -211q-8 -172 -173 -233q-60 -23 -139 -23q-161 0 -288 47l29 91q294 -105 402 -3 q53 50 53 107t-16.5 96t-42 73t-57.5 61.5t-66 58.5t-75.5 68.5t-75.5 76.5q-79 91 -79 157t35 114.5t78 93.5t77.5 90t34.5 96q0 61 -24 95q-57 79 -197 79q-114 0 -179 -76q-59 -70 -59 -180v-1118h-112v797h-150z" />
<glyph unicode="&#xe0;" horiz-adv-x="1036" d="M82 275.5q0 123.5 91 196.5t235 83l313 16v82q0 139 -47 199.5t-187.5 60.5t-306.5 -59l-28 80q177 76 346.5 76t252.5 -74t83 -252v-594h135q4 -16 4 -33.5t2 -33.5q-72 -33 -139.5 -33t-93 27.5t-21.5 95.5l-4 2q-147 -117 -287 -125q-35 -2 -89 -2t-110.5 25.5 t-88.5 65.5q-60 73 -60 196.5zM205 268q0 -94 50 -143t171.5 -49t294.5 141v272l-285 -16q-117 -4 -174 -57.5t-57 -147.5zM268 1391l92 84l232 -314l-57 -49z" />
<glyph unicode="&#xe1;" horiz-adv-x="1036" d="M82 275.5q0 123.5 91 196.5t235 83l313 16v82q0 139 -47 199.5t-187.5 60.5t-306.5 -59l-28 80q177 76 346.5 76t252.5 -74t83 -252v-594h135q4 -16 4 -33.5t2 -33.5q-72 -33 -139.5 -33t-93 27.5t-21.5 95.5l-4 2q-147 -117 -287 -125q-35 -2 -89 -2t-110.5 25.5 t-88.5 65.5q-60 73 -60 196.5zM205 268q0 -94 50 -143t171.5 -49t294.5 141v272l-285 -16q-117 -4 -174 -57.5t-57 -147.5zM412 1157l229 316l92 -82l-268 -279z" />
<glyph unicode="&#xe2;" horiz-adv-x="1036" d="M82 275.5q0 123.5 91 196.5t235 83l313 16v82q0 139 -47 199.5t-187.5 60.5t-306.5 -59l-28 80q177 76 346.5 76t252.5 -74t83 -252v-594h135q4 -16 4 -33.5t2 -33.5q-72 -33 -139.5 -33t-93 27.5t-21.5 95.5l-4 2q-147 -117 -287 -125q-35 -2 -89 -2t-110.5 25.5 t-88.5 65.5q-60 73 -60 196.5zM172 1147l287 274h88l291 -270l-37 -45l-297 201l-297 -203zM205 268q0 -94 50 -143t171.5 -49t294.5 141v272l-285 -16q-117 -4 -174 -57.5t-57 -147.5z" />
<glyph unicode="&#xe3;" horiz-adv-x="1036" d="M82 275.5q0 123.5 91 196.5t235 83l313 16v82q0 139 -47 199.5t-187.5 60.5t-306.5 -59l-28 80q177 76 346.5 76t252.5 -74t83 -252v-594h135q4 -16 4 -33.5t2 -33.5q-72 -33 -139.5 -33t-93 27.5t-21.5 95.5l-4 2q-147 -117 -287 -125q-35 -2 -89 -2t-110.5 25.5 t-88.5 65.5q-60 73 -60 196.5zM197 1210q23 61 64.5 99.5t85.5 38.5t84 -12.5t80 -25.5q111 -38 142 -38l107 82l43 -33q-23 -59 -62 -99t-85 -40t-87 12t-81 28q-103 40 -138 40l-108 -82zM205 268q0 -94 50 -143t171.5 -49t294.5 141v272l-285 -16q-117 -4 -174 -57.5 t-57 -147.5z" />
<glyph unicode="&#xe4;" horiz-adv-x="1036" d="M82 275.5q0 123.5 91 196.5t235 83l313 16v82q0 139 -47 199.5t-187.5 60.5t-306.5 -59l-28 80q177 76 346.5 76t252.5 -74t83 -252v-594h135q4 -16 4 -33.5t2 -33.5q-72 -33 -139.5 -33t-93 27.5t-21.5 95.5l-4 2q-147 -117 -287 -125q-35 -2 -89 -2t-110.5 25.5 t-88.5 65.5q-60 73 -60 196.5zM205 268q0 -94 50 -143t171.5 -49t294.5 141v272l-285 -16q-117 -4 -174 -57.5t-57 -147.5zM268 1239q0 31 22.5 52.5t54.5 21.5t53.5 -20.5t21.5 -52.5t-21.5 -52.5t-54.5 -20.5t-54.5 20.5t-21.5 51.5zM604 1239q0 31 21.5 52.5t52.5 21.5 t53.5 -20.5t22.5 -52.5t-22.5 -52.5t-54.5 -20.5t-52.5 20.5t-20.5 51.5z" />
<glyph unicode="&#xe5;" horiz-adv-x="1036" d="M82 275.5q0 123.5 91 196.5t235 83l313 16v82q0 139 -47 199.5t-187.5 60.5t-306.5 -59l-28 80q177 76 346.5 76t252.5 -74t83 -252v-594h135q4 -16 4 -33.5t2 -33.5q-72 -33 -139.5 -33t-93 27.5t-21.5 95.5l-4 2q-147 -117 -287 -125q-35 -2 -89 -2t-110.5 25.5 t-88.5 65.5q-60 73 -60 196.5zM205 268q0 -94 50 -143t171.5 -49t294.5 141v272l-285 -16q-117 -4 -174 -57.5t-57 -147.5zM324 1317q0 80 57 137t143 57q84 0 140 -57q55 -57 55 -138t-55.5 -137.5t-142.5 -56.5t-142 57.5t-55 137.5zM397 1313q0 -55 34 -90t91 -35 t91 34.5t34 89t-34 92.5t-91 38t-91 -37t-34 -92z" />
<glyph unicode="&#xe6;" horiz-adv-x="1591" d="M74 276.5q0 122.5 93 201.5t249 79h305v98q0 143 -53.5 203t-190.5 60t-307 -62l-29 80q177 76 365 76q115 0 190.5 -45t104.5 -152q43 82 123 140.5t194.5 58.5t180 -28t107.5 -72t64.5 -99t32.5 -107q13 -69 13 -171v-60h-678q0 -181 60 -277q75 -120 238 -120t322 74 l31 -78q-165 -90 -348 -90q-239 0 -342 155q-131 -99 -269 -136q-72 -19 -165 -19t-147 26.5t-87 68.5q-57 73 -57 195.5zM195 279q0 -205 211 -205q125 0 268 74q49 26 92 61q-45 103 -45 268h-287q-119 0 -179 -54t-60 -144zM840 557h565q0 266 -139 340q-51 27 -129 27 t-133.5 -31t-89.5 -82q-60 -92 -74 -254z" />
<glyph unicode="&#xe7;" horiz-adv-x="911" d="M100 483q0 201 82 345q106 188 355 188q158 0 280 -51l-31 -86q-112 41 -241 41q-164 0 -245 -117.5t-81 -310.5q0 -412 309 -412q130 0 297 67l31 -79q-132 -74 -315 -82q-52 -60 -97 -125q236 -5 236 -152q0 -82 -85 -142.5t-267 -60.5l-2 58q133 10 194.5 47t61.5 90 q0 92 -184 92h-31l-23 33l127 162q-194 15 -288 156q-83 123 -83 339z" />
<glyph unicode="&#xe8;" horiz-adv-x="995" d="M100 494q0 183 72 322q103 198 346 198q175 0 273 -100q105 -107 109 -305q1 -46 1 -72v-60h-682q0 -282 155 -367q60 -32 151 -32t162 18.5t157 57.5l30 -78q-165 -90 -352 -90q-235 0 -338 150q-84 123 -84 358zM221 559h570q0 265 -141 341q-52 28 -131 28t-134 -31 t-89 -82q-61 -92 -75 -256zM272 1391l93 84l231 -314l-57 -49z" />
<glyph unicode="&#xe9;" horiz-adv-x="995" d="M100 494q0 183 72 322q103 198 346 198q175 0 273 -100q105 -107 109 -305q1 -46 1 -72v-60h-682q0 -282 155 -367q60 -32 151 -32t162 18.5t157 57.5l30 -78q-165 -90 -352 -90q-235 0 -338 150q-84 123 -84 358zM221 559h570q0 265 -141 341q-52 28 -131 28t-134 -31 t-89 -82q-61 -92 -75 -256zM432 1157l230 316l92 -82l-269 -279z" />
<glyph unicode="&#xea;" horiz-adv-x="995" d="M100 494q0 183 72 322q103 198 346 198q175 0 273 -100q105 -107 109 -305q1 -46 1 -72v-60h-682q0 -282 155 -367q60 -32 151 -32t162 18.5t157 57.5l30 -78q-165 -90 -352 -90q-235 0 -338 150q-84 123 -84 358zM197 1133l286 274h88l291 -270l-37 -45l-297 200 l-297 -202zM221 559h570q0 265 -141 341q-52 28 -131 28t-134 -31t-89 -82q-61 -92 -75 -256z" />
<glyph unicode="&#xeb;" horiz-adv-x="995" d="M100 494q0 183 72 322q103 198 346 198q175 0 273 -100q105 -107 109 -305q1 -46 1 -72v-60h-682q0 -282 155 -367q60 -32 151 -32t162 18.5t157 57.5l30 -78q-165 -90 -352 -90q-235 0 -338 150q-84 123 -84 358zM221 559h570q0 265 -141 341q-52 28 -131 28t-134 -31 t-89 -82q-61 -92 -75 -256zM289 1239q0 31 22.5 52.5t54 21.5t53 -20.5t21.5 -52.5t-21.5 -52.5t-54.5 -20.5t-54 20.5t-21 51.5zM625 1239q0 31 21.5 52.5t52 21.5t53 -20.5t22.5 -52.5t-22.5 -52.5t-54.5 -20.5t-52 20.5t-20 51.5z" />
<glyph unicode="&#xec;" horiz-adv-x="460" d="M-18 1391l92 84l231 -314l-57 -49zM172 0v997h115v-997h-115z" />
<glyph unicode="&#xed;" horiz-adv-x="460" d="M172 0v997h115v-997h-115zM176 1157l230 316l92 -82l-269 -279z" />
<glyph unicode="&#xee;" horiz-adv-x="460" d="M-104 1147l286 274h88l291 -270l-37 -45l-297 201l-297 -203zM172 0v997h115v-997h-115z" />
<glyph unicode="&#xef;" horiz-adv-x="460" d="M-14 1239q0 31 22.5 52.5t54 21.5t53 -20.5t21.5 -52.5t-21.5 -52.5t-54.5 -20.5t-54 20.5t-21 51.5zM172 0v997h115v-997h-115zM322 1239q0 31 21.5 52.5t52 21.5t53 -20.5t22.5 -52.5t-22.5 -52.5t-54.5 -20.5t-52 20.5t-20 51.5z" />
<glyph unicode="&#xf0;" horiz-adv-x="995" d="M84 438q0 187 97 322q115 160 315 160q155 0 276 -89q-55 186 -170 320l-188 -127l-39 53l182 123q-104 109 -248 191l39 69q170 -84 287 -205l172 115l39 -53l-164 -111q244 -281 236 -671q0 -349 -208 -492q-83 -57 -212.5 -57t-208 43t-124.5 109q-81 118 -81 300z M199 442q0 -245 149 -332q60 -34 157 -34t156.5 49t90.5 119q53 118 53 286q0 102 -19 187q-128 114 -290 114q-78 0 -137.5 -36.5t-94.5 -94.5q-65 -106 -65 -258z" />
<glyph unicode="&#xf1;" horiz-adv-x="1003" d="M121 0v997h112v-18l3 -55v-19q0 -2 2 -2t2 -1t2 -1q90 55 190 85t185 30t140.5 -26.5t82.5 -69.5q43 -66 43 -201v-719h-115v670q0 124 -27.5 168.5t-65.5 62t-100 17.5q-143 0 -339 -109v-809h-115zM176 1237q23 61 65 99t86 38t84 -12t79 -26q113 -38 143 -38l106 82 l43 -32q-23 -59 -61.5 -99.5t-84.5 -40.5t-87 12.5t-81 27.5q-102 40 -138 40l-109 -82z" />
<glyph unicode="&#xf2;" horiz-adv-x="1034" d="M100 489q0 355 228 480q82 45 200.5 45t197.5 -45t126 -119t65.5 -167t18.5 -187t-19.5 -185.5t-67.5 -164.5q-106 -160 -337 -160q-222 0 -326 154q-86 127 -86 349zM219 487q0 -188 57 -283q74 -126 250 -126q291 0 291 411q0 291 -141 392q-58 41 -150 41 q-167 0 -246 -140q-61 -109 -61 -295zM281 1391l92 84l231 -314l-57 -49z" />
<glyph unicode="&#xf3;" horiz-adv-x="1034" d="M100 489q0 355 228 480q82 45 200.5 45t197.5 -45t126 -119t65.5 -167t18.5 -187t-19.5 -185.5t-67.5 -164.5q-106 -160 -337 -160q-222 0 -326 154q-86 127 -86 349zM219 487q0 -188 57 -283q74 -126 250 -126q291 0 291 411q0 291 -141 392q-58 41 -150 41 q-167 0 -246 -140q-61 -109 -61 -295zM457 1157l229 316l92 -82l-268 -279z" />
<glyph unicode="&#xf4;" horiz-adv-x="1034" d="M100 489q0 355 228 480q82 45 200.5 45t197.5 -45t126 -119t65.5 -167t18.5 -187t-19.5 -185.5t-67.5 -164.5q-106 -160 -337 -160q-222 0 -326 154q-86 127 -86 349zM199 1147l286 274h88l291 -270l-37 -45l-297 201l-297 -203zM219 487q0 -188 57 -283 q74 -126 250 -126q291 0 291 411q0 291 -141 392q-58 41 -150 41q-167 0 -246 -140q-61 -109 -61 -295z" />
<glyph unicode="&#xf5;" horiz-adv-x="1034" d="M100 489q0 355 228 480q82 45 200.5 45t197.5 -45t126 -119t65.5 -167t18.5 -187t-19.5 -185.5t-67.5 -164.5q-106 -160 -337 -160q-222 0 -326 154q-86 127 -86 349zM219 487q0 -188 57 -283q74 -126 250 -126q291 0 291 411q0 291 -141 392q-58 41 -150 41 q-167 0 -246 -140q-61 -109 -61 -295zM225 1210q23 61 65 99.5t86 38.5t84 -12.5t80 -25.5q111 -38 142 -38l106 82l43 -33q-23 -59 -61.5 -99t-84.5 -40t-87 12t-81 28q-105 40 -138 40l-109 -82z" />
<glyph unicode="&#xf6;" horiz-adv-x="1034" d="M100 489q0 355 228 480q82 45 200.5 45t197.5 -45t126 -119t65.5 -167t18.5 -187t-19.5 -185.5t-67.5 -164.5q-106 -160 -337 -160q-222 0 -326 154q-86 127 -86 349zM219 487q0 -188 57 -283q74 -126 250 -126q291 0 291 411q0 291 -141 392q-58 41 -150 41 q-167 0 -246 -140q-61 -109 -61 -295zM289 1239q0 31 22.5 52.5t54 21.5t53 -20.5t21.5 -52.5t-21.5 -52.5t-54.5 -20.5t-54 20.5t-21 51.5zM625 1239q0 31 21.5 52.5t52 21.5t53 -20.5t22.5 -52.5t-22.5 -52.5t-54.5 -20.5t-52 20.5t-20 51.5z" />
<glyph unicode="&#xf7;" d="M162 565v88h768v-88h-768zM463 307q0 35 25.5 58.5t60.5 23.5t59.5 -23.5t24.5 -58.5t-24.5 -60.5t-59.5 -25.5t-60.5 25.5t-25.5 60.5zM463 909q0 35 25.5 59.5t60.5 24.5t59.5 -24.5t24.5 -59.5t-24.5 -60.5t-59.5 -25.5t-60.5 25.5t-25.5 60.5z" />
<glyph unicode="&#xf8;" horiz-adv-x="997" d="M80 -12l100 133q-98 128 -98 368q0 220 95 361q111 164 331 164q171 0 270 -101l76 99q10 0 32.5 1t35.5 1q-41 -51 -107 -142q100 -138 100 -378q0 -347 -216 -464q-81 -44 -205 -44q-179 0 -277 94l-67 -90q-14 0 -37 -1t-33 -1zM201 492q0 -185 53 -279 q44 55 112 148.5t116 159t92 125.5q94 130 137 183q-79 93 -203 93q-165 0 -244 -140q-63 -110 -63 -290zM285 162q75 -84 223 -84q289 0 289 411q0 187 -58 291z" />
<glyph unicode="&#xf9;" horiz-adv-x="985" d="M121 287v710h115v-675q0 -134 24.5 -173.5t62 -57t102 -17.5t155 35.5t172.5 107.5l-2 780l114 2v-999h-112v121l-7 4q-170 -145 -346 -145q-181 0 -241 102q-27 45 -32 99.5t-5 105.5zM262 1391l92 84l232 -314l-58 -49z" />
<glyph unicode="&#xfa;" horiz-adv-x="985" d="M121 287v710h115v-675q0 -134 24.5 -173.5t62 -57t102 -17.5t155 35.5t172.5 107.5l-2 780l114 2v-999h-112v121l-7 4q-170 -145 -346 -145q-181 0 -241 102q-27 45 -32 99.5t-5 105.5zM416 1157l229 316l92 -82l-268 -279z" />
<glyph unicode="&#xfb;" horiz-adv-x="985" d="M121 287v710h115v-675q0 -134 24.5 -173.5t62 -57t102 -17.5t155 35.5t172.5 107.5l-2 780l114 2v-999h-112v121l-7 4q-170 -145 -346 -145q-181 0 -241 102q-27 45 -32 99.5t-5 105.5zM158 1147l286 274h88l291 -270l-37 -45l-297 201l-296 -203z" />
<glyph unicode="&#xfc;" horiz-adv-x="985" d="M121 287v710h115v-675q0 -134 24.5 -173.5t62 -57t102 -17.5t155 35.5t172.5 107.5l-2 780l114 2v-999h-112v121l-7 4q-170 -145 -346 -145q-181 0 -241 102q-27 45 -32 99.5t-5 105.5zM252 1239q0 31 22.5 52.5t54.5 21.5t53 -20.5t21 -52.5t-21.5 -52.5t-54 -20.5 t-54 20.5t-21.5 51.5zM588 1239q0 31 21.5 52.5t52 21.5t53 -20.5t22.5 -52.5t-22.5 -52.5t-54.5 -20.5t-52 20.5t-20 51.5z" />
<glyph unicode="&#xfd;" horiz-adv-x="888" d="M-2 -414l18 86q108 -22 150.5 -22t66 4t45.5 20q42 30 72 123l68 207h-60q-46 154 -121 377t-106 318.5t-57.5 173t-40.5 124.5h112q8 -27 24.5 -78t36 -113.5t42 -131t42 -131t36 -113.5t24.5 -80l86 -274h8l291 921h117q-41 -120 -139.5 -425.5t-137 -421t-69.5 -211 t-57.5 -176.5t-83 -144t-160.5 -63q-29 2 -79 5t-128 25zM358 1157l230 316l92 -82l-268 -279z" />
<glyph unicode="&#xfe;" horiz-adv-x="1017" d="M119 -428v1851h112v-534h2q148 119 318 119q191 0 285 -144q79 -120 79 -346q0 -380 -211 -492q-75 -40 -182 -40q-169 0 -289 75l-2 -489h-112zM233 158q45 -31 122 -56.5t145.5 -25.5t121 22.5t91.5 74.5q84 112 84 347q0 316 -162 376q-51 19 -99.5 19t-89 -10 t-80.5 -27q-86 -38 -133 -83v-637z" />
<glyph unicode="&#xff;" horiz-adv-x="888" d="M-2 -414l18 86q108 -22 150.5 -22t66 4t45.5 20q42 30 72 123l68 207h-60q-46 154 -121 377t-106 318.5t-57.5 173t-40.5 124.5h112q8 -27 24.5 -78t36 -113.5t42 -131t42 -131t36 -113.5t24.5 -80l86 -274h8l291 921h117q-41 -120 -139.5 -425.5t-137 -421t-69.5 -211 t-57.5 -176.5t-83 -144t-160.5 -63q-29 2 -79 5t-128 25zM215 1239q0 31 22.5 52.5t54.5 21.5t53.5 -20.5t21.5 -52.5t-21.5 -52.5t-54.5 -20.5t-54.5 20.5t-21.5 51.5zM551 1239q0 31 21.5 52.5t52.5 21.5t53 -20.5t22 -52.5t-22.5 -52.5t-54 -20.5t-52 20.5t-20.5 51.5z " />
<glyph unicode="&#x152;" horiz-adv-x="1599" d="M102 677.5q0 153.5 30 287t98 234.5q148 222 454 222q112 0 188 -24h629v-92h-639v-521h543v-92h-543v-600h674v-92h-719q-51 -9 -133 -14q-450 0 -550 408q-32 130 -32 283.5zM227 677.5q0 -288.5 106.5 -444t344.5 -155.5q31 0 63 4v1239l-59 4q-249 0 -364 -201 q-91 -158 -91 -446.5z" />
<glyph unicode="&#x153;" horiz-adv-x="1679" d="M86 489q0 220 95 361q111 164 329 164q150 0 231.5 -71t120.5 -177q63 172 226 228q59 20 146 20t151.5 -28t106.5 -72t64.5 -98t32.5 -108q15 -80 15 -169v-58h-680q0 -285 154 -369q59 -32 151 -32q156 0 315 74l31 -78q-168 -88 -337 -88t-254 62.5t-126 166.5 q-41 -98 -126 -164.5t-220 -66.5t-214 42t-126 112q-86 127 -86 349zM205 487q0 -189 55 -283q73 -126 250 -126q165 0 236 133q55 102 55 278q0 184 -53 289q-72 144 -238 144q-165 0 -244 -140q-61 -107 -61 -295zM926 557h567q0 367 -270 367q-146 0 -223 -112 q-60 -86 -74 -255z" />
<glyph unicode="&#x178;" horiz-adv-x="1024" d="M25 1401h129l219 -416l129 -256h8l133 254l227 418h127l-428 -770v-631h-127v623zM264 1554.5q0 30.5 22.5 52t53.5 21.5t53.5 -20.5t22.5 -52.5t-22.5 -52t-54.5 -20t-53.5 20.5t-21.5 51zM600 1554.5q0 30.5 20.5 52t52.5 21.5t54.5 -20.5t22.5 -52.5t-22.5 -52 t-54.5 -20t-52.5 20.5t-20.5 51z" />
<glyph unicode="&#x2c6;" horiz-adv-x="997" d="M154 1147l286 274h88l291 -270l-37 -45l-297 201l-297 -203z" />
<glyph unicode="&#x2dc;" horiz-adv-x="997" d="M195 1210q23 61 64.5 99.5t85.5 38.5t84 -12.5t80 -25.5q111 -38 142 -38l107 82l43 -33q-23 -59 -62 -99t-85 -40t-87 12t-81 28q-105 40 -138 40l-108 -82z" />
<glyph unicode="&#x2000;" horiz-adv-x="919" />
<glyph unicode="&#x2001;" horiz-adv-x="1839" />
<glyph unicode="&#x2002;" horiz-adv-x="919" />
<glyph unicode="&#x2003;" horiz-adv-x="1839" />
<glyph unicode="&#x2004;" horiz-adv-x="613" />
<glyph unicode="&#x2005;" horiz-adv-x="459" />
<glyph unicode="&#x2006;" horiz-adv-x="306" />
<glyph unicode="&#x2007;" horiz-adv-x="306" />
<glyph unicode="&#x2008;" horiz-adv-x="229" />
<glyph unicode="&#x2009;" horiz-adv-x="367" />
<glyph unicode="&#x200a;" horiz-adv-x="102" />
<glyph unicode="&#x2010;" horiz-adv-x="708" d="M106 477v103h496v-103h-496z" />
<glyph unicode="&#x2011;" horiz-adv-x="708" d="M106 477v103h496v-103h-496z" />
<glyph unicode="&#x2012;" horiz-adv-x="708" d="M106 477v103h496v-103h-496z" />
<glyph unicode="&#x2013;" horiz-adv-x="1024" d="M57 473v94h914v-94h-914z" />
<glyph unicode="&#x2014;" horiz-adv-x="2048" d="M61 473v94h1917v-94h-1917z" />
<glyph unicode="&#x2018;" horiz-adv-x="413" d="M119 1178q0 41 12 79.5t33 74.5q47 78 117 122l28 -39q-72 -78 -73 -170q65 -13 65 -83q0 -34 -25.5 -59.5t-64.5 -25.5t-65.5 30t-26.5 71z" />
<glyph unicode="&#x2019;" horiz-adv-x="413" d="M121 1118q68 71 76 170q-66 13 -66 80q0 35 24.5 61.5t64.5 26.5t65.5 -29.5t25.5 -71.5t-11 -80t-32 -74q-48 -80 -116 -122z" />
<glyph unicode="&#x201a;" horiz-adv-x="346" d="M74 -193q69 80 73 185q-29 6 -47 27.5t-18 54.5t24.5 58.5t64.5 25.5t65.5 -30t25.5 -71t-11 -80.5t-31 -77.5q-49 -90 -116 -128z" />
<glyph unicode="&#x201c;" horiz-adv-x="620" d="M117 1196.5q0 59.5 45 136t117 121.5l30 -39q-65 -69 -76 -170q29 -6 47.5 -27.5t18.5 -55.5t-24.5 -59.5t-64.5 -25.5t-66.5 30t-26.5 89.5zM340 1178q0 41 12.5 79.5t33.5 74.5q48 79 116 122l30 -39q-74 -76 -75 -170q65 -13 65 -83q0 -34 -24.5 -59.5t-64.5 -25.5 t-66.5 30t-26.5 71z" />
<glyph unicode="&#x201d;" horiz-adv-x="620" d="M119 1118q69 69 78 170q-66 13 -66 80q0 35 23.5 61.5t64.5 26.5t66.5 -29.5t25.5 -71.5t-11 -80t-32 -74q-48 -80 -116 -122zM342 1118q74 76 76 170q-64 14 -64 80q0 35 23.5 61.5t64.5 26.5t67 -29.5t26 -71.5t-11.5 -80t-33.5 -74q-49 -84 -117 -122z" />
<glyph unicode="&#x201e;" horiz-adv-x="571" d="M74 -193q69 80 73 185q-29 6 -47 27.5t-18 54.5t24.5 58.5t64.5 25.5t65.5 -30t25.5 -71t-11 -80.5t-31 -77.5q-49 -90 -116 -128zM301 -193q70 82 74 185q-29 6 -47.5 27.5t-18.5 54.5t24.5 58.5t64.5 25.5t65.5 -30t25.5 -71t-11 -80.5t-32 -77.5q-48 -90 -114 -128z " />
<glyph unicode="&#x2022;" horiz-adv-x="593" d="M117 556q0 77 52 129t127 52t127 -52t52 -129t-52 -130t-127 -53t-127 53t-52 130z" />
<glyph unicode="&#x2026;" horiz-adv-x="1167" d="M90 76q0 35 26.5 59.5t61.5 24.5t59.5 -24.5t24.5 -59.5t-25.5 -61.5t-59.5 -26.5t-60.5 26.5t-26.5 61.5zM481 76q0 35 24.5 59.5t60.5 24.5t60.5 -24.5t24.5 -59.5t-24.5 -61.5t-59.5 -26.5t-60.5 26.5t-25.5 61.5zM889 76q0 35 25.5 59.5t60.5 24.5t60.5 -24.5 t25.5 -59.5t-25.5 -61.5t-60.5 -26.5t-60.5 26.5t-25.5 61.5z" />
<glyph unicode="&#x202f;" horiz-adv-x="367" />
<glyph unicode="&#x2039;" horiz-adv-x="626" d="M133 340v74l289 309l51 -41l-221 -305l221 -305l-49 -39z" />
<glyph unicode="&#x203a;" horiz-adv-x="626" d="M127 72l221 305l-219 305l49 41l289 -309v-74l-291 -307z" />
<glyph unicode="&#x205f;" horiz-adv-x="459" />
<glyph unicode="&#x20ac;" d="M57 561v68h838v-68h-631q14 -223 100 -337q107 -142 347 -142q136 0 311 45l20 -88q-146 -53 -319.5 -53t-272 41t-162.5 115q-125 145 -138 419h-93zM57 741v66h97q19 231 136 383q143 184 402 184q183 0 330 -55l-25 -88q-136 47 -267.5 47t-206 -34t-127.5 -96 q-105 -120 -128 -341h627v-66h-838z" />
<glyph unicode="&#x2122;" horiz-adv-x="1390" d="M78 1331v66h502v-66h-213v-567h-82v567h-207zM655 762v635h84l99 -201q58 -122 118 -246l138 281q20 41 39.5 83t42.5 83h81v-635h-75v493h-2q-25 -49 -48.5 -97t-50.5 -97l-94 -195h-67q-25 49 -47.5 97.5t-45.5 95.5l-46 94t-46 96h-2v-487h-78z" />
<glyph unicode="&#xe000;" horiz-adv-x="993" d="M0 0v993h993v-993h-993z" />
</font>
</defs>
</svg>
