<?xml version="1.0" standalone="no"?> <!DOCTYPE svg PUBLIC "-//W3C//DTD SVG 1.0//EN" "http://www.w3.org/TR/2001/REC-SVG-20010904/DTD/svg10.dtd" > <svg xmlns="http://www.w3.org/2000/svg" width="100%" height="100%">
<defs >
<font id="twentiethcenturymediumcondensedlatin1" horiz-adv-x="385" ><font-face
    font-family="Tw Cen W01 Medium Cond"
    units-per-em="1000"
    panose-1="2 11 5 6 2 1 4 2 6 3"
    ascent="827"
    descent="-241"
    alphabetic="0" />
<missing-glyph horiz-adv-x="182" />
<glyph unicode=" " glyph-name="null" horiz-adv-x="182" />
<glyph unicode="!" glyph-name="null" horiz-adv-x="188" d="M143 625V148H62V625H143ZM103 88Q123 88 136 75T149 42Q149 22 136 9T103 -4Q84 -4 71 9T57 42Q57 61 70 74T103 88Z" />
<glyph unicode="&quot;" glyph-name="null" horiz-adv-x="355" d="M46 599V716H147V599L124 462H71L46 599ZM209 599V716H309V599L285 462H232L209 599Z" />
<glyph unicode="#" glyph-name="null" horiz-adv-x="668" d="M203 475L245 672H304L262 475H468L509 672H569L527 475H624V415H515L478 234H624V174H466L425 -22H365L407 174H200L159 -22H99L140 174H44V234H153L191 415H44V475H203ZM212 235H419L456 415H250L212 235Z" />
<glyph unicode="$" glyph-name="null" horiz-adv-x="365" d="M170 558Q120 543 120 478Q120 415 170 386V558ZM205 71Q231 79 245 103T259 163Q259 195 246 217T205 257V71ZM204 676V632Q255 632 286 611T333 548L336 539L265 503Q254 532 241 544T205 559V360Q231
343 246 332T272 313T291 296T309 275Q342 234 342 166Q342 90 306 44T205 -6V-61H170V-7Q121 -6 94 15T45 89L110 121Q117 99 133 85T170 68V280Q150 293 137 302T114 320T95 338T78 358Q39 406 39 475Q39 615 170 632V676H204Z" />
<glyph unicode="%" glyph-name="null" horiz-adv-x="688" d="M552 372Q603 372 624 324T645 164Q645 68 620 19T545 -30Q511 -30 490 -6Q479 5 473 19T462 52T456 99T454 162Q454 238 461 276T485 337Q514 372 552 372ZM581 169Q582 180 582 190T582 212Q582 275
576 297T552 319Q532 319 523 289T514 190Q514 137 515 105T519 55T529 31T546 25Q558 25 566 34T575 60L581 169ZM131 433Q130 423 130 414T130 395Q130 335 137 311T161 286Q181 286 190 317T199 423Q199 471 198 501T193 550T183 575T166 582Q155 582 147 571T137
543L131 433ZM163 635Q212 632 234 597Q248 576 254 537T260 431Q260 327 236 281Q225 260 205 247T162 234Q142 234 123 245T93 277Q82 296 76 339T69 440Q69 526 84 570T134 628Q150 635 162 635H163ZM552 638L210 -35H163L502 638H552Z" />
<glyph unicode="&amp;" glyph-name="null" horiz-adv-x="458" d="M206 363Q262 430 262 469Q262 489 250 501T218 514Q198 514 183 498T167 460Q167 438 175 417T206 363ZM265 115Q245 146 233 166T212 200T197 223T185 240Q158 213 147 192T135 147Q135 115 155
92T202 68Q221 68 237 75T274 101L273 103L265 115ZM311 41L301 34Q266 11 242 2T191 -7Q161 -7 136 4T92 35T62 82T51 141Q51 163 59 186T82 231Q89 241 95 249T109 265T125 282T148 305Q93 391 93 458Q93 483 102 505T128 544T168 569T217 579Q275 579 306 548T337
460Q337 423 308 377Q302 367 296 359T283 342T267 324T245 301L305 200L329 162Q345 183 355 197T376 232L428 198Q394 137 367 103L429 2H335L311 41Z" />
<glyph unicode="&apos;" glyph-name="null" horiz-adv-x="191" d="M45 596V716H146V596L122 462H68L45 596Z" />
<glyph unicode="(" glyph-name="null" horiz-adv-x="188" d="M179 616Q170 595 164 580T152 551T142 523T132 491Q110 422 100 359T90 233Q90 129 117 18Q123 -9 129 -29T142 -68T158 -107T180 -155L119 -188Q105 -161 95 -140T78 -99T64 -56T50 -2Q34 61 26 119T18
228Q18 273 24 324T43 431Q51 464 57 489T72 538T91 587T117 646L179 616Z" />
<glyph unicode=")" glyph-name="null" horiz-adv-x="188" d="M83 646Q97 617 106 596T123 553T137 509T151 455Q181 332 181 228Q181 123 146 -12Q138 -42 132 -63T119 -104T103 -141T81 -185L21 -154Q34 -124 43 -101T60 -57T74 -14T87 39Q110 139 110 218Q110
321 84 433Q78 460 72 481T59 522T43 563T21 614L83 646Z" />
<glyph unicode="*" glyph-name="null" horiz-adv-x="329" d="M166 511Q166 522 164 531T153 560Q146 577 144 586T141 603Q141 617 150 626T172 636Q206 636 206 602Q206 591 194 558Q187 544 185 535T182 520V511L190 507Q204 517 211 525T231 549Q245 566 254
572T275 579Q289 579 297 570T306 546Q306 529 294 520T251 507Q231 505 222 503T199 494L198 484Q209 479 218 477T248 471Q281 466 293 457T306 431Q306 417 297 408T273 398Q262 398 252 405T228 431Q215 448 208 455T190 469L181 466Q183 452 185 443T196 417Q204
401 206 393T208 374Q208 360 198 351T172 341Q161 341 153 351Q142 360 142 374Q142 386 153 412Q161 432 163 443T166 467L160 472Q150 466 144 459T125 436Q110 415 99 407T75 398Q62 398 52 408T42 432Q42 449 54 457T96 469Q116 471 128 474T151 484V494Q140
499 131 501T103 506Q69 511 56 520T42 548Q42 560 52 569T77 579Q88 579 97 572T121 546Q133 530 140 523T158 507L166 511Z" />
<glyph unicode="+" glyph-name="null" horiz-adv-x="667" d="M300 355V589H364V355H599V291H364V59H300V291H67V355H300Z" />
<glyph unicode="," glyph-name="null" horiz-adv-x="188" d="M171 88L77 -131L39 -118L108 113L171 88Z" />
<glyph unicode="-" glyph-name="null" horiz-adv-x="229" d="M202 248V187H43V248H202Z" />
<glyph unicode="." glyph-name="null" horiz-adv-x="188" d="M101 95Q124 95 138 82T152 47Q152 26 138 11T103 -4Q83 -4 68 11T53 47Q53 67 67 81T101 95Z" />
<glyph unicode="/" glyph-name="null" horiz-adv-x="271" d="M257 643L69 -188H29L218 643H257Z" />
<glyph unicode="0" glyph-name="null" horiz-adv-x="365" d="M241 367V389Q241 422 241 444T239 481T234 506T227 525Q218 543 209 550T187 558Q172 558 162 549T146 520T137 467T134 384V364Q134 359 134 354T135 343V321Q135 304 135 291T134 268V253Q134 199
136 164T145 107T162 77T188 68Q215 68 227 97Q231 109 233 122T237 158T239 219T240 315V341L241 367ZM188 633Q270 630 301 551Q309 531 314 509T323 459T328 396T330 315Q330 256 328 214T321 141T309 88T289 47Q254 -7 188 -7Q102 -7 68 89Q62 105 58 126T52
175T48 242T47 331Q47 374 48 407T53 466T61 513T73 550Q84 577 101 596T141 625Q162 633 187 633H188Z" />
<glyph unicode="1" glyph-name="null" horiz-adv-x="365" d="M232 623V0H151V556H96V623H232Z" />
<glyph unicode="2" glyph-name="null" horiz-adv-x="365" d="M50 422Q50 461 52 488T58 535T69 568T87 593Q122 631 195 631Q260 631 293 596T327 492Q327 442 309 382T248 236L170 76H309V0H37L146 215L155 232L163 250Q185 293 199 327T223 388T236 439T240
484Q240 519 227 538T189 557Q173 557 163 551T146 530T136 488T132 422H50Z" />
<glyph unicode="3" glyph-name="null" horiz-adv-x="365" d="M63 466Q64 522 73 552T102 603Q133 634 194 634Q265 634 296 595T327 468Q327 436 325 414T315 376T295 349T263 328Q282 317 294 305T314 276T325 235T328 179Q328 80 294 37T180 -6Q145 -6 121 3T80
31T57 83T49 161H128Q129 112 142 90T184 67Q214 67 227 91T241 169Q241 206 237 229T223 266T195 285T149 291V365Q177 365 194 369T222 385T237 415T241 465Q241 516 230 537T193 559Q166 559 155 539T143 466H63Z" />
<glyph unicode="4" glyph-name="null" horiz-adv-x="365" d="M114 247H214V470H212L114 247ZM295 631V247H330V173H296L295 172V0H213V173H49V250L218 631H295Z" />
<glyph unicode="5" glyph-name="null" horiz-adv-x="365" d="M323 623V546H182L162 405Q206 400 232 389T279 354Q322 308 322 217Q322 168 309 127T271 56T213 9T140 -8Q114 -8 93 -2T39 23L63 96L75 90Q93 80 106 77T133 73Q181 73 208 109T235 211Q235 271
207 302T126 333Q115 333 104 332T72 325L117 623H323Z" />
<glyph unicode="6" glyph-name="null" horiz-adv-x="365" d="M140 192Q140 121 151 94T192 66Q218 66 230 90T242 168Q242 173 241 176V186Q241 191 241 196T242 207V217Q242 234 242 245T240 265T236 280T229 294Q214 315 193 315Q163 315 151 294T139 217Q139
211 140 208V200V192ZM280 623L204 471L163 379Q180 387 190 389T212 392Q287 392 314 324Q322 301 326 274T330 201Q330 143 324 110T301 49Q269 -7 185 -7Q115 -7 83 40T51 193Q51 228 53 256T59 311T71 362T89 416Q94 430 100 444T114 475T132 513T157 562Q163
575 167 583T175 597T180 609T187 623H280Z" />
<glyph unicode="7" glyph-name="null" horiz-adv-x="365" d="M349 622L170 0L88 1L245 545H78V622H349Z" />
<glyph unicode="8" glyph-name="null" horiz-adv-x="365" d="M187 369Q213 369 223 391T234 470Q234 518 224 538T189 558Q163 558 153 539T143 468Q143 413 153 391T187 369ZM189 296Q162 296 151 273T139 193Q139 121 150 94T191 67Q216 67 227 90T239 168Q239
240 228 268T189 296ZM130 335Q111 345 98 356T78 384T67 421T64 473Q64 556 92 594T184 632Q252 632 283 597T314 483Q314 450 311 427T300 387T280 358T248 337Q276 322 290 307T312 269Q320 250 323 227T326 171Q326 77 293 35T187 -7Q50 -7 50 172Q50 242 68
279T130 335Z" />
<glyph unicode="9" glyph-name="null" horiz-adv-x="365" d="M241 440V445Q241 503 228 530T189 557H187Q161 556 150 533T138 458Q138 413 140 384T148 338T164 315T189 308Q205 308 215 312T231 330T239 368T241 432V440ZM118 31Q132 58 148 91T176 151Q182
163 186 173T195 193T205 215T217 244L208 241Q193 236 183 234T162 232Q117 232 87 265Q51 305 51 417Q51 469 55 501T68 556Q77 579 93 595T131 621Q143 626 158 628T191 631Q236 631 266 613T309 560Q328 509 328 411Q328 380 327 355T321 308T312 264T297 220Q286
191 270 154T227 66Q219 52 215 43T207 28T202 15T195 0H103L118 31Z" />
<glyph unicode=":" glyph-name="null" horiz-adv-x="188" d="M103 327Q124 326 138 312T152 276Q152 255 138 241T103 227Q82 227 68 241T53 277Q53 297 67 312T102 327H103ZM104 96Q124 95 138 81T152 47Q152 26 138 11T104 -4Q83 -4 69 10T54 45Q54 66 68 81T103
96H104Z" />
<glyph unicode=";" glyph-name="null" horiz-adv-x="188" d="M161 92L69 -128L30 -113L98 117L161 92ZM123 334Q143 333 158 319T173 285Q173 263 159 248T122 233Q102 233 88 248T73 284Q73 304 87 319T122 334H123Z" />
<glyph unicode="&lt;" glyph-name="null" horiz-adv-x="667" d="M69 295V353L598 576V506L155 324L598 141V72L69 295Z" />
<glyph unicode="=" glyph-name="null" horiz-adv-x="667" d="M599 472V407H68V472H599ZM599 243V179H68V243H599Z" />
<glyph unicode="&gt;" glyph-name="null" horiz-adv-x="667" d="M598 352V295L68 72V141L512 323L68 506V576L598 352Z" />
<glyph unicode="?" glyph-name="null" horiz-adv-x="323" d="M54 480Q54 510 55 530T60 564T70 587T85 606Q112 633 159 633Q195 633 219 626T257 601T278 554T284 480Q284 433 282 402T276 351T263 318T241 297Q232 290 221 287T193 279V148H122V325Q150 326
167 331T195 351Q206 365 209 388T213 448V468V481Q213 532 204 551T169 570Q144 570 135 551T125 480H54ZM157 87Q177 86 190 74T203 42Q203 23 190 10T158 -3Q138 -3 126 9T113 39Q113 59 125 73T156 87H157Z" />
<glyph unicode="@" glyph-name="null" horiz-adv-x="1015" d="M981 9Q966 -23 939 -53T875 -112Q807 -163 730 -186T550 -210Q435 -210 344 -180T189 -93T91 45T57 229Q57 296 72 359T116 479T185 581T276 659Q386 729 540 729Q657 729 747 686T894 557Q926 511
942 460T958 356Q958 281 935 219T861 100Q844 80 825 64T785 34Q758 17 727 8T667 -2Q616 -2 595 16T570 80Q536 42 498 21T422 -1Q383 -1 351 15T294 61T257 131T243 220Q243 273 263 329T320 432Q356 478 402 503T496 529Q541 529 579 506T644 439L660 515H748L677
187L670 153Q665 132 664 125T663 111Q663 97 673 88T698 79Q714 79 741 94T791 130Q836 172 860 230T885 350Q885 416 859 472T786 570T675 635T535 658Q447 658 373 626T244 538T160 405T129 237Q129 148 157 79T240 -39T372 -112T552 -138Q630 -138 691 -122T807
-71Q824 -61 835 -53T856 -35T874 -16T893 9H981ZM333 212Q333 149 363 110T441 71Q471 71 505 93T564 151Q588 185 602 229T616 315Q616 381 585 419T501 457Q469 457 439 437T385 382T347 303T333 212Z" />
<glyph unicode="A" glyph-name="null" horiz-adv-x="417" d="M164 186H272L218 481H216L164 186ZM252 622L387 0H306L283 123H152L129 0H49L183 622H252Z" />
<glyph unicode="B" glyph-name="null" horiz-adv-x="365" d="M152 342Q202 344 222 367T243 448Q243 480 239 501T224 535T196 553T152 558V342ZM152 63Q178 64 196 69T224 86T239 117T244 166Q244 197 239 218T224 253T195 273T152 280V63ZM167 622Q248 622 285
583T323 460Q323 400 302 364T234 311V309Q285 298 308 261T331 155Q331 80 296 40T194 0H69V622H167Z" />
<glyph unicode="C" glyph-name="null" horiz-adv-x="365" d="M326 11Q305 1 289 -3T251 -7Q211 -7 177 9T118 55Q90 90 78 145T66 294Q66 353 70 398T83 477T106 538T140 585Q186 633 254 633Q283 633 326 623V547Q308 554 298 556T273 558Q243 558 217 538T178
486Q166 456 161 416T155 313Q155 264 157 230T164 170T177 129T197 100Q224 70 266 70Q280 70 292 73T326 85V11Z" />
<glyph unicode="D" glyph-name="null" horiz-adv-x="417" d="M156 557V63Q191 63 211 69T247 93Q270 116 280 169T290 315Q290 384 284 431T264 506T226 546T167 558H156V557ZM193 622Q266 622 311 577Q347 541 362 480T378 314Q378 227 368 167T334 70T272 17T178
0H72V622H193Z" />
<glyph unicode="E" glyph-name="null" horiz-adv-x="323" d="M290 622V551H152V354H280V283H152V69H294V0H69V622H290Z" />
<glyph unicode="F" glyph-name="null" horiz-adv-x="323" d="M294 622V551H151V355H279V284H151V0H68V622H294Z" />
<glyph unicode="G" glyph-name="null" horiz-adv-x="418" d="M386 220Q386 72 321 22Q284 -6 220 -6Q122 -6 89 79Q75 115 69 164T63 291Q63 301 63 311T64 332Q69 449 76 501Q80 527 92 552T122 594Q161 633 232 633Q262 633 288 624T334 597T366 556T380 504L301
475Q296 522 279 543T232 565Q188 565 170 520T151 364V332Q157 177 163 123Q165 111 170 99T183 78Q200 61 227 61Q271 61 288 103Q292 115 295 127T300 155T302 195T303 252H227V325H386V220Z" />
<glyph unicode="H" glyph-name="null" horiz-adv-x="417" d="M153 622V380H282V622H366V0H282V309H153V0H69V622H153Z" />
<glyph unicode="I" glyph-name="null" horiz-adv-x="229" d="M165 622V0H81V622H165Z" />
<glyph unicode="J" glyph-name="null" horiz-adv-x="271" d="M226 622V112Q226 -9 107 -9Q91 -9 74 -7T26 3V79Q69 62 92 62Q115 62 128 79T142 125V622H226Z" />
<glyph unicode="K" glyph-name="null" horiz-adv-x="417" d="M155 622V314H157L302 622H387L236 320L388 0H292L157 316H155V0H70V622H155Z" />
<glyph unicode="L" glyph-name="null" horiz-adv-x="323" d="M151 622V70H292V0H67V622H151Z" />
<glyph unicode="M" glyph-name="null" horiz-adv-x="510" d="M178 622L265 186H267L356 622H428L487 0H409L378 398H376L291 0H239L158 398H156L123 0H45L106 622H178Z" />
<glyph unicode="N" glyph-name="null" horiz-adv-x="417" d="M363 622V0H297L138 427H136V0H61V622H128L287 195H289V622H363Z" />
<glyph unicode="O" glyph-name="null" horiz-adv-x="458" d="M237 569Q213 569 197 558T171 521T157 453T152 350V316Q154 252 156 208T163 140Q165 124 172 106Q191 62 237 62Q264 62 286 84Q295 94 301 109T312 148T318 205T320 285V308Q318 372 317 416T311
486Q310 494 308 503T301 522Q282 569 237 569ZM235 635Q285 635 318 621T372 571T400 476T408 328Q408 259 406 211T397 130T380 76T353 37Q332 14 306 5T237 -4Q158 -4 121 34Q105 51 94 73T77 128T67 206T64 313Q64 375 67 421T77 501T95 558T122 597Q161 635
235 635Z" />
<glyph unicode="P" glyph-name="null" horiz-adv-x="365" d="M148 338Q176 338 195 343T226 361T242 394T247 446Q247 479 243 500T227 535T196 553T148 558V338ZM201 622Q267 622 301 578T335 446Q335 320 258 287Q240 279 216 277T148 273V0H64V622H201Z" />
<glyph unicode="Q" glyph-name="null" horiz-adv-x="458" d="M306 118Q310 130 313 144T318 178T320 228T321 302Q321 358 319 407T312 486Q310 504 303 521T284 550Q267 567 238 567Q214 567 198 556T173 520T159 452T154 348Q154 277 155 230T161 153T172 106T191
77Q207 61 233 61Q244 61 251 62T271 68L214 145L262 180L306 118ZM318 6Q286 -2 269 -4T232 -7Q185 -7 154 8T102 58T74 149T65 286Q65 357 68 408T78 496T96 556T123 596Q163 635 242 635Q348 635 382 550Q389 530 394 508T403 457T408 392T410 310Q410 226 405
174T386 85Q381 71 377 63T363 43L409 -21L363 -55L318 6Z" />
<glyph unicode="R" glyph-name="null" horiz-adv-x="365" d="M151 349Q202 351 222 373T243 453Q243 510 224 533T156 557H151V349ZM183 622Q325 622 325 463Q325 428 320 402T305 356T277 323T236 299L343 0H256L158 292H151V0H67V622H183Z" />
<glyph unicode="S" glyph-name="null" horiz-adv-x="323" d="M53 90Q55 89 56 89T60 86Q83 72 100 67T133 61Q170 61 193 85T217 148Q217 160 215 170T207 192T191 218T164 254Q162 256 160 259T155 266L144 279Q135 290 129 297T117 312T104 328T87 350Q74 369
65 385T51 416T44 446T41 479Q41 513 51 541T80 589T125 621T183 632Q227 632 272 610V542Q231 564 198 564Q165 564 142 541T119 484Q119 462 132 436T174 374L184 362Q218 320 239 290T273 237T290 193T295 149Q295 79 254 36T144 -7Q122 -7 104 -3T53 15V90Z"
/>
<glyph unicode="T" glyph-name="null" horiz-adv-x="323" d="M306 622V551H211V0H127V551H32V622H306Z" />
<glyph unicode="U" glyph-name="null" horiz-adv-x="417" d="M154 621V181Q154 144 157 120T167 82T187 62T219 56Q238 56 250 61T269 81T278 121T281 186V621H364V147Q364 -9 224 -9Q71 -9 71 146V621H154Z" />
<glyph unicode="V" glyph-name="null" horiz-adv-x="365" d="M110 622L187 151H189L272 622H352L221 0H155L29 622H110Z" />
<glyph unicode="W" glyph-name="null" horiz-adv-x="552" d="M111 622L180 192H182L257 622H314L385 194H387L458 622H532L425 0H358L283 439H281L208 0H142L38 622H111Z" />
<glyph unicode="X" glyph-name="null" horiz-adv-x="365" d="M114 622L188 427L263 622H345L229 320L349 0H270L188 213L105 0H24L147 321L33 622H114Z" />
<glyph unicode="Y" glyph-name="null" horiz-adv-x="365" d="M112 622L189 343H191L269 622H352L231 265V0H147V261L29 622H112Z" />
<glyph unicode="Z" glyph-name="null" horiz-adv-x="365" d="M339 622L141 70H320V0H39L236 551H63V622H339Z" />
<glyph unicode="[" glyph-name="null" horiz-adv-x="229" d="M213 632V575H133V-118H213V-176H69V632H213Z" />
<glyph unicode="\" glyph-name="null" horiz-adv-x="271" d="M52 643L240 -188H204L14 643H52Z" />
<glyph unicode="]" glyph-name="null" horiz-adv-x="229" d="M177 631V-177H34V-119H112V574H33V631H177Z" />
<glyph unicode="^" glyph-name="null" horiz-adv-x="469" d="M26 337L199 728H270L443 337H354L234 629L116 337H26Z" />
<glyph unicode="_" glyph-name="null" horiz-adv-x="500" d="M-7 -74H507V-124H-7V-74Z" />
<glyph unicode="`" glyph-name="null" horiz-adv-x="333" d="M156 481L43 617H161L227 481H156Z" />
<glyph unicode="a" glyph-name="null" horiz-adv-x="365" d="M190 365Q176 365 166 358T150 335T142 293T139 230Q139 181 141 149T149 98T164 72T189 64Q204 64 213 72T229 98T237 148T240 225Q240 266 238 293T230 336T215 358T190 365ZM240 52H238Q207 -6 158
-6Q120 -6 93 24Q82 36 74 51T62 88T55 139T53 207Q53 328 77 380T159 433Q184 433 201 422T238 380H240V427H320V0H240V52Z" />
<glyph unicode="b" glyph-name="null" horiz-adv-x="365" d="M192 366Q165 366 153 336T141 235Q141 139 152 101T194 63Q221 63 233 94T245 198Q245 246 243 278T234 329T217 357T192 366ZM142 644V370H144Q157 405 176 419T227 434Q263 434 287 409Q310 386
320 345T330 230Q330 161 326 120T310 53Q286 -5 224 -5Q172 -5 143 59H141V0H62V644H142Z" />
<glyph unicode="c" glyph-name="null" horiz-adv-x="271" d="M249 13Q225 2 210 -2T177 -6Q111 -6 81 47T51 217Q51 286 62 329T99 398Q133 434 179 434Q193 434 208 431T248 419V351Q231 359 222 361T203 364Q168 364 153 327T137 209Q137 64 200 64Q211 64 221
67T249 79V13Z" />
<glyph unicode="d" glyph-name="null" horiz-adv-x="365" d="M193 365Q164 365 152 332T140 216Q140 172 142 143T151 95T167 70T191 62Q219 62 231 98T243 220Q243 302 232 333T193 365ZM322 644V0H243V57H241Q212 -6 159 -6Q117 -6 87 30Q69 52 62 89T55 199Q55
248 57 282T63 340T76 380T96 408Q122 434 161 434Q187 434 205 421T240 377H242V644H322Z" />
<glyph unicode="e" glyph-name="null" horiz-adv-x="365" d="M241 261Q241 327 231 353T194 380Q165 380 154 354T142 261H241ZM317 144Q315 67 284 31T190 -6Q57 -6 57 204Q57 433 195 433Q245 433 280 398Q292 386 300 371T313 337T320 291T322 230V199H142Q142
158 145 131T154 88T170 66T197 59Q223 59 233 77T244 144H317Z" />
<glyph unicode="f" glyph-name="null" horiz-adv-x="229" d="M72 518Q72 643 167 643Q181 643 192 642T218 637V566Q215 569 207 570T190 572Q151 572 151 512V427H217V366H151V0H72V366H29V427H72V518Z" />
<glyph unicode="g" glyph-name="null" horiz-adv-x="365" d="M191 369Q164 369 152 339T140 237Q140 186 142 154T150 102T166 76T191 68Q218 68 228 97T239 201Q239 252 237 285T230 336T216 362T191 369ZM239 57H237Q226 26 205 10T154 -6Q104 -6 78 45Q66 69
61 110T56 222Q56 262 58 291T64 343T74 380T91 406Q115 433 155 433Q183 433 200 423T237 384H239V427H318V-54Q318 -120 288 -150T189 -181Q137 -181 108 -168T67 -125Q61 -110 59 -96T56 -53H133Q135 -90 148 -106T187 -123Q239 -123 239 -71V57Z" />
<glyph unicode="h" glyph-name="null" horiz-adv-x="365" d="M142 643V391Q165 414 186 423T230 433Q321 433 321 335V0H242V310Q242 371 193 371Q142 371 142 303V0H61V643H142Z" />
<glyph unicode="i" glyph-name="null" horiz-adv-x="188" d="M142 427V0H63V427H142ZM103 601Q121 601 134 588T147 557Q147 539 134 526T103 513Q84 513 72 526T59 557Q59 575 72 588T103 601Z" />
<glyph unicode="j" glyph-name="null" horiz-adv-x="188" d="M141 427V-189H62V427H141ZM101 601Q119 601 132 588T145 557Q145 539 132 526T101 513Q82 513 69 526T56 557Q56 575 69 588T101 601Z" />
<glyph unicode="k" glyph-name="null" horiz-adv-x="365" d="M142 643V244H144L250 427H333L225 234L347 0H263L144 228H142V0H62V643H142Z" />
<glyph unicode="l" glyph-name="null" horiz-adv-x="188" d="M143 644V0H63V644H143Z" />
<glyph unicode="m" glyph-name="null" horiz-adv-x="552" d="M145 388Q166 413 187 423T234 434Q290 434 317 381Q357 433 413 433Q503 433 503 330V0H423V311Q423 373 375 373Q323 373 323 299V0H244V317Q244 341 231 357T197 373Q144 373 144 305V0H64V427H145V388Z" />
<glyph unicode="n" glyph-name="null" horiz-adv-x="365" d="M140 387H142Q156 410 178 422T225 434Q318 434 318 333V0H239V310Q239 340 226 356T189 373Q166 373 153 356T139 310V0H59V428H140V387Z" />
<glyph unicode="o" glyph-name="null" horiz-adv-x="365" d="M190 434Q243 433 275 401Q289 387 298 371T314 331T322 278T325 208Q325 151 318 113T293 48Q276 22 250 8T191 -6Q120 -6 86 46T52 211Q52 295 66 340T113 411Q128 422 148 428T188 434H190ZM189
368Q160 368 149 341T138 246Q138 116 150 88Q162 59 190 59Q204 59 213 65T229 87T237 126T240 188Q240 242 238 277T230 332T214 360T189 368Z" />
<glyph unicode="p" glyph-name="null" horiz-adv-x="365" d="M193 365Q165 365 155 336T144 231Q144 180 146 148T153 96T168 70T193 62Q222 62 234 95T246 204Q246 293 235 329T193 365ZM143 380H145Q166 409 184 421T226 433Q283 433 307 383T331 217Q331 155
327 117T311 53Q288 -7 227 -7Q215 -7 206 -5T188 3T169 19T147 47H145V-189H65V427H143V380Z" />
<glyph unicode="q" glyph-name="null" horiz-adv-x="365" d="M192 365Q165 364 153 332T141 230Q141 182 143 150T152 98T167 70T192 62Q220 62 231 92T243 198Q243 248 241 280T233 331T218 357T193 365H192ZM242 50H240Q211 -7 160 -7Q143 -7 127 0T97 19Q74
41 65 82T55 199Q55 214 56 233T58 272T60 309T64 338Q67 356 75 374T96 406Q121 433 161 433Q187 433 206 420T241 374H243V427H322V-189H242V50Z" />
<glyph unicode="r" glyph-name="null" horiz-adv-x="271" d="M140 364H142Q159 397 183 415T237 433Q239 433 239 433T242 432V364Q212 362 192 357T161 339T145 307T140 256V0H59V427H140V364Z" />
<glyph unicode="s" glyph-name="null" horiz-adv-x="316" d="M93 79Q121 68 136 65T168 61Q191 61 204 73T217 107Q217 126 203 144T148 198Q143 202 140 205T130 213Q102 240 91 263T79 318Q79 369 112 402T196 435Q226 435 273 419V354L268 356Q248 363 235
366T210 369Q184 369 169 357T154 322Q154 305 166 288T212 243Q225 232 231 227T247 211Q272 185 283 162T294 112Q294 86 285 65T260 28T222 4T173 -5Q153 -5 137 -2T93 13V79Z" />
<glyph unicode="t" glyph-name="null" horiz-adv-x="229" d="M161 543V427H213V364H161V0H81V364H30V427H81V543H161Z" />
<glyph unicode="u" glyph-name="null" horiz-adv-x="365" d="M139 428V130Q139 59 190 59Q216 59 227 77T239 137V428H318V135Q318 60 289 27T190 -6Q121 -6 91 26T60 131V428H139Z" />
<glyph unicode="v" glyph-name="null" horiz-adv-x="365" d="M124 427L188 126H190L255 427H333L217 0H163L44 427H124Z" />
<glyph unicode="w" glyph-name="null" horiz-adv-x="510" d="M127 427L187 142H189L246 427H287L347 141H349L406 427H481L376 0H320L267 261H265L212 0H159L53 427H127Z" />
<glyph unicode="x" glyph-name="null" horiz-adv-x="365" d="M119 427L188 297L257 427H339L229 219L345 0H265L188 141L113 0H32L147 218L38 427H119Z" />
<glyph unicode="y" glyph-name="null" horiz-adv-x="365" d="M112 427L182 133H184L271 427H347L148 -189H78L148 38L32 427H112Z" />
<glyph unicode="z" glyph-name="null" horiz-adv-x="323" d="M300 427L148 61H285V0H41L190 365H47V427H300Z" />
<glyph unicode="{" glyph-name="null" horiz-adv-x="334" d="M28 268Q45 268 54 270T75 279Q91 288 101 300T118 331T126 381T129 457Q129 507 130 538T135 591T145 625T163 653Q172 665 183 673T208 687T240 695T284 697H311V621H296Q270 621 254 617T228 602T216
571T212 520V448Q212 371 200 328T159 258Q147 248 139 243T110 228Q138 216 157 199T189 155T206 93T212 7V-64Q212 -96 215 -115T228 -146T253 -161T296 -165H311V-241H284Q234 -241 208 -232T163 -197Q152 -183 146 -169T136 -135T131 -83T129 -1Q129 45 127
75T118 124T102 156T75 177Q64 183 55 185T28 188V268Z" />
<glyph unicode="|" glyph-name="null" horiz-adv-x="527" d="M296 696V-135H231V696H296Z" />
<glyph unicode="}" glyph-name="null" horiz-adv-x="334" d="M306 188Q289 188 280 186T259 177Q242 168 232 156T215 125T207 75T205 -1Q205 -51 204 -82T199 -135T189 -169T171 -197Q162 -210 151 -218T126 -232T94 -239T50 -241H23V-165H38Q64 -165 80 -161T106
-146T118 -115T122 -64V7Q122 57 127 93T144 155T175 198T224 228Q189 245 171 262T142 306Q131 334 127 366T122 448V520Q122 551 119 570T106 601T81 617T38 621H23V697H50Q100 697 126 688T171 653Q182 639 188 625T198 591T203 539T205 457Q205 411 207 381T215
332T231 300T259 279Q270 273 279 271T306 268V188Z" />
<glyph unicode="~" glyph-name="null" horiz-adv-x="656" d="M592 342Q518 280 453 280Q438 280 425 282T394 289T355 305T298 331Q266 346 245 352T206 359Q174 359 140 343T64 292V362Q99 391 137 407T207 423Q221 423 234 421T264 414T301 399T351 376Q386
359 409 352T451 344Q485 344 517 359T592 413V342Z" />
</font>
</defs>
</svg>
