<?xml version="1.0" standalone="no"?> <!DOCTYPE svg PUBLIC "-//W3C//DTD SVG 1.0//EN" "http://www.w3.org/TR/2001/REC-SVG-20010904/DTD/svg10.dtd" > <svg xmlns="http://www.w3.org/2000/svg" width="100%" height="100%">
<defs >
<font id="politica" horiz-adv-x="323" ><font-face
    font-family="Politica"
    units-per-em="1000"
    panose-1="2 0 5 6 6 0 0 2 0 4"
    ascent="1016"
    descent="-220"
    alphabetic="0" />
<missing-glyph horiz-adv-x="182" d="M91 470Q80 470 80 481Q80 492 91 492Q102 492 102 481Q102 470 91 470ZM91 0Q80 0 80 11Q80 22 91 22Q102 22 102 11Q102 0 91 0Z" />
<glyph unicode=" " glyph-name="space" horiz-adv-x="160" />
<glyph unicode="!" glyph-name="exclam" horiz-adv-x="272" d="M160 206H110V796H160V206ZM160 0H110V106H160V0Z" />
<glyph unicode="&quot;" glyph-name="quotedbl" horiz-adv-x="280" d="M215 506H165V764H215V506ZM115 506H65V764H115V506Z" />
<glyph unicode="#" glyph-name="numbersign" horiz-adv-x="586" d="M200 324H341L383 457H242L200 324ZM432 457L390 324H505V275H375L320 100H270L325 275H185L130 100H80L135 275H65V324H151L193 457H100V506H208L260 670H310L258 506H398L450 670H500L448 506H540V457H432Z"
/>
<glyph unicode="$" glyph-name="dollar" horiz-adv-x="368" d="M90 527Q90 507 112 485T159 445V629Q129 624 110 601T90 547V527ZM278 267Q278 287 256 309T209 350V151Q238 156 258 179T278 233V267ZM159 770H209V679Q234 676 256 665T294 637T319 596T328 547V527H278V547Q278
578 258 601T209 629V413Q217 409 236 396T276 363T312 319T328 267V233Q328 207 319 184T294 144T256 115T209 101V0H159V101Q134 104 112 115T74 143T49 184T40 233V322H90V233Q90 202 109 179T159 151V383Q156 385 137 397T97 428T58 472T40 527V547Q40 573
49 596T74 636T112 665T159 679V770Z" />
<glyph unicode="%" glyph-name="percent" horiz-adv-x="675" d="M240 0H190L442 798H492L240 0ZM615 123Q615 96 606 72T582 29T547 1T502 -10H492Q468 -10 448 0T412 29T388 71T379 123V272Q379 300 388 324T412 366T447 394T492 405H502Q526 405 546 395T582
366T606 324T615 272V123ZM565 272Q565 307 547 331T502 355H492Q466 355 448 331T429 272V123Q429 88 447 64T492 40H502Q528 40 546 64T565 123V272ZM296 496Q296 469 287 445T263 402T228 374T183 363H173Q149 363 129 373T93 402T69 444T60 496V645Q60 673
69 697T93 739T128 767T173 778H183Q207 778 227 768T263 739T287 697T296 645V496ZM246 645Q246 680 228 704T183 728H173Q147 728 129 704T110 645V496Q110 461 128 437T173 413H183Q209 413 227 437T246 496V645Z" />
<glyph unicode="&amp;" glyph-name="ampersand" horiz-adv-x="514" d="M248 359H184Q172 359 158 349T130 324T109 293T100 264V115Q100 76 126 61T192 45H208Q247 45 267 60T287 115V444H337V408H464V358H337V115Q337 55 303 25T208 -5H191Q131 -5 91 25T50 115V264Q50
303 73 336T134 384Q100 399 79 431T57 502V646Q57 706 94 736T192 767H208Q268 767 302 737T337 646V567H287V646Q287 685 267 701T208 717H192Q153 717 130 701T107 646V502Q107 490 114 474T133 444T158 419T184 409H248V359Z" />
<glyph unicode="&apos;" glyph-name="quotesingle" horiz-adv-x="180" d="M115 506H65V764H115V506Z" />
<glyph unicode="(" glyph-name="parenleft" horiz-adv-x="295" d="M255 842Q177 745 132 629T87 380Q87 248 132 132T255 -82H197Q125 10 83 122T40 380Q40 526 82 638T197 842H255Z" />
<glyph unicode=")" glyph-name="parenright" horiz-adv-x="295" d="M98 842Q170 751 212 639T255 380Q255 234 213 122T98 -82H40Q118 15 163 131T208 380Q208 512 163 628T40 842H98Z" />
<glyph unicode="*" glyph-name="asterisk" horiz-adv-x="436" d="M243 775V641L376 673V626L253 592L360 486L324 455L218 561L112 455L76 486L183 592L60 626V673L193 641V775H243Z" />
<glyph unicode="+" glyph-name="plus" horiz-adv-x="430" d="M40 327V376H190V515H239V376H390V327H239V165H190V327H40Z" />
<glyph unicode="," glyph-name="comma" horiz-adv-x="206" d="M136 -156H86V155H136V-156Z" />
<glyph unicode="-" glyph-name="hyphen" horiz-adv-x="300" d="M40 327V376H260V327H40Z" />
<glyph unicode="." glyph-name="period" horiz-adv-x="159" d="M79 0Q67 0 59 8T50 29Q50 41 58 50T79 59Q91 59 100 50T109 29Q109 17 100 9T79 0Z" />
<glyph unicode="/" glyph-name="slash" horiz-adv-x="320" d="M40 -60H-10L280 860H330L40 -60Z" />
<glyph unicode="0" glyph-name="zero" horiz-adv-x="398" d="M343 123Q343 96 333 72T304 29T262 1T210 -10H188Q160 -10 136 0T94 29T66 71T55 123V642Q55 670 65 694T94 736T136 764T188 775H210Q238 775 262 765T304 736T332 694T343 642V123ZM293 642Q293
677 269 701T210 725H188Q153 725 129 701T105 642V123Q105 88 129 64T188 40H210Q245 40 269 64T293 123V642Z" />
<glyph unicode="1" glyph-name="one" horiz-adv-x="219" d="M154 0H104V715H65V765H154V0Z" />
<glyph unicode="2" glyph-name="two" horiz-adv-x="349" d="M334 50V0H30V50Q30 103 36 140T55 208T91 265T147 322Q177 350 202 377T246 435T274 504T284 591V632Q284 652 277 669T257 698T227 718T190 726H174Q155 726 138 719T108 699T88 669T80 632H30Q30
662 41 688T72 734T118 765T174 776H190Q220 776 246 765T292 735T323 689T334 632V591Q334 539 323 496T291 416T243 349T186 290Q153 260 133 237T100 189T84 131T80 50H334Z" />
<glyph unicode="3" glyph-name="three" horiz-adv-x="391" d="M279 653Q279 692 253 707T187 723H171Q132 723 112 708T92 653V633H42V653Q42 713 76 743T171 773H188Q248 773 288 743T329 653V537Q329 498 308 466T252 419Q289 405 312 372T336 299V115Q336 55
296 25T195 -5H178Q118 -5 84 25T49 115V282H99V115Q99 76 119 61T178 45H194Q233 45 259 60T286 115V299Q286 311 278 327T256 358T229 383T202 394H158V444H202Q214 444 227 454T252 478T271 509T279 537V653Z" />
<glyph unicode="4" glyph-name="four" horiz-adv-x="413" d="M281 204V715H271L75 204H281ZM331 765V204H383V154H331V-6H281V154H0L244 765H331Z" />
<glyph unicode="5" glyph-name="five" horiz-adv-x="367" d="M61 394V764H327V715H111V444H193Q221 444 245 434T287 405T315 363T326 311V115Q326 55 286 25T185 -5H168Q108 -5 74 25T39 115V282H89V115Q89 76 109 61T168 45H184Q223 45 249 60T276 115V311Q276
346 252 370T193 394H61Z" />
<glyph unicode="6" glyph-name="six" horiz-adv-x="393" d="M291 656Q291 695 269 710T208 726H186Q147 726 126 711T105 656V404Q115 412 128 419Q139 425 154 429T188 434H210Q238 434 262 424T304 395T332 353T343 301V124Q343 97 333 73T304 30T262 2T210
-9H188Q160 -9 136 1T94 30T66 72T55 124V656Q55 716 90 746T186 776H208Q268 776 304 746T341 656V567H291V656ZM105 124Q105 89 129 65T188 41H210Q245 41 269 65T293 124V301Q293 336 269 360T210 384H188Q153 384 129 361T105 302V124Z" />
<glyph unicode="7" glyph-name="seven" horiz-adv-x="305" d="M30 0L227 720H0V770H290L80 0H30Z" />
<glyph unicode="8" glyph-name="eight" horiz-adv-x="390" d="M57 642Q57 669 67 693T96 736T138 764T190 775H200Q228 775 252 765T294 736T322 694T333 642V536Q333 494 312 464T256 418Q293 404 316 372T340 298V124Q340 97 330 73T301 30T259 2T207 -9H183Q155
-9 131 1T89 30T61 72T50 124V298Q50 340 73 372T134 418Q100 433 79 463T57 536V642ZM107 536Q107 501 130 475T189 448H201Q215 448 229 455T256 475T275 503T283 536V642Q283 677 259 701T200 725H190Q155 725 131 701T107 642V536ZM290 298Q290 315 284 331T266
360T239 380T206 388H184Q167 388 152 381T125 361T107 332T100 298V124Q100 89 124 65T183 41H207Q242 41 266 65T290 124V298Z" />
<glyph unicode="9" glyph-name="nine" horiz-adv-x="393" d="M102 112Q102 73 124 58T185 42H207Q246 42 267 57T288 112V364Q278 356 265 349Q254 343 239 339T205 334H183Q155 334 131 344T89 373T61 415T50 467V644Q50 671 60 695T89 738T131 766T183 777H205Q233
777 257 767T299 738T327 696T338 644V112Q338 52 303 22T207 -8H185Q125 -8 89 22T52 112V201H102V112ZM288 644Q288 679 264 703T205 727H183Q148 727 124 703T100 644V467Q100 432 124 408T183 384H205Q240 384 264 407T288 466V644Z" />
<glyph unicode=":" glyph-name="colon" horiz-adv-x="159" d="M79 0Q67 0 59 8T50 29Q50 41 58 50T79 59Q91 59 100 50T109 29Q109 17 100 9T79 0ZM79 434Q67 434 59 442T50 463Q50 475 58 484T79 493Q91 493 100 484T109 463Q109 451 100 443T79 434Z" />
<glyph unicode=";" glyph-name="semicolon" horiz-adv-x="203" d="M133 155H83V-156H133V155ZM109 434Q97 434 89 442T80 463Q80 475 88 484T109 493Q121 493 130 484T139 463Q139 451 130 443T109 434Z" />
<glyph unicode="&lt;" glyph-name="less" horiz-adv-x="308" d="M217 657L250 625L88 415L258 197L226 164L30 415L217 657Z" />
<glyph unicode="=" glyph-name="equal" horiz-adv-x="430" d="M40 235V285H390V235H40ZM40 416V466H390V416H40Z" />
<glyph unicode="&gt;" glyph-name="greater" horiz-adv-x="308" d="M278 415L82 164L50 197L220 415L58 625L91 657L278 415Z" />
<glyph unicode="?" glyph-name="question" horiz-adv-x="388" d="M186 106H136V0H186V106ZM136 195V378Q136 404 145 425T170 461T207 485T252 494Q265 494 273 501T287 518T295 540T298 560V673Q298 708 274 732T215 756H173Q138 756 114 732T90 673V569H40V673Q40
701 50 725T79 767T121 795T173 806H215Q243 806 267 796T309 767T337 725T348 673V560Q348 541 343 520T327 483T297 455T252 444Q244 444 233 441T211 431T193 411T186 378V195H136Z" />
<glyph unicode="@" glyph-name="at" horiz-adv-x="669" d="M187 375Q187 402 197 426T226 469T268 497T320 508H342Q370 508 394 498T436 469T464 427T475 375V133H506Q514 133 526 135T550 145T570 165T579 201V414Q579 448 565 478T528 532T474 570T409 584H260Q226
584 196 570T142 533T104 479T90 414V156Q90 122 104 92T141 38T195 0T260 -14H367V-64H260Q215 -64 175 -47T105 0T58 70T40 156V414Q40 460 57 500T104 570T174 617T260 634H409Q454 634 494 617T564 570T611 500T629 414V201Q629 177 620 156T594 118T556 93T510
83H425V140Q400 120 374 104Q352 90 328 79T283 68Q243 68 215 96T187 164V375ZM237 164Q237 147 242 138T255 124T270 119T283 118Q303 118 327 129T374 155Q400 172 425 192V375Q425 417 401 437T342 458H320Q285 458 261 434T237 375V164Z" />
<glyph unicode="A" glyph-name="A" horiz-adv-x="421" d="M108 264H312L223 743Q223 747 221 750Q217 756 213 756H205Q199 756 198 751T195 743L108 264ZM361 0L321 214H99L60 0H10L149 772Q151 784 163 795T192 806H226Q242 806 254 796T269 772L411 0H361Z" />
<glyph unicode="B" glyph-name="B" horiz-adv-x="428" d="M251 800Q276 800 297 791T335 765T361 727T371 680V536Q371 497 350 465T294 418Q331 404 354 372T378 298V120Q378 95 369 74T343 36T305 10T258 0H70V800H251ZM246 443Q256 448 269 455T293 473T312
500T320 534V680Q320 707 300 729T251 751H120V443H246ZM328 298Q328 319 319 335T297 362T270 381T245 393H120V50H257Q287 50 307 70T328 120V298Z" />
<glyph unicode="C" glyph-name="C" horiz-adv-x="413" d="M313 292H363V134Q363 104 352 78T322 33T276 2T219 -10H199Q169 -10 143 1T98 32T67 78T55 134V662Q55 692 66 718T97 764T143 795T199 806H219Q249 806 275 795T321 765T352 719T363 662V536H313V662Q313
682 306 699T286 728T256 748T219 756H199Q180 756 163 749T133 729T113 699T105 662V134Q105 115 112 98T132 68T162 48T199 40H219Q258 40 284 67T311 134V292H313Z" />
<glyph unicode="D" glyph-name="D" horiz-adv-x="433" d="M70 800H234Q264 800 290 790T336 761T367 718T378 662V144Q378 114 367 88T337 43T291 12T234 0H70V800ZM120 750V50H234Q254 50 271 57T300 77T320 107T328 144V662Q328 700 301 725T234 750H120Z" />
<glyph unicode="E" glyph-name="E" horiz-adv-x="338" d="M120 750V466H291V416H120V50H318V0H70V800H318V750H120Z" />
<glyph unicode="F" glyph-name="F" horiz-adv-x="329" d="M319 800V750H120V466H291V416H120V0H70V800H319Z" />
<glyph unicode="G" glyph-name="G" horiz-adv-x="409" d="M215 40Q235 40 252 47T281 67T301 97T309 134V342H207V392H359V134Q359 104 348 78T318 33T272 2T215 -10H199Q169 -10 143 1T98 32T67 78T55 134V662Q55 692 66 718T97 764T143 795T199 806H215Q245
806 271 795T317 765T348 719T359 662V536H309V662Q309 682 302 699T282 728T252 748T215 756H199Q180 756 163 749T133 729T113 699T105 662V134Q105 115 112 98T132 68T162 48T199 40H215Z" />
<glyph unicode="H" glyph-name="H" horiz-adv-x="445" d="M375 800V0H325V417H120V0H70V800H120V466H325V800H375Z" />
<glyph unicode="I" glyph-name="I" horiz-adv-x="200" d="M125 0H75V800H125V0Z" />
<glyph unicode="J" glyph-name="J" horiz-adv-x="389" d="M334 800V134Q334 104 323 78T293 33T247 2T190 -10H174Q144 -10 118 1T73 32T42 78T30 134V292H80V134Q80 115 87 98T107 68T137 48T174 40H190Q210 40 227 47T256 67T276 97T284 134V800H334Z" />
<glyph unicode="K" glyph-name="K" horiz-adv-x="446" d="M119 0H70V800H119V466H194L382 800H436L239 446V437L436 0H382L194 417H119V0Z" />
<glyph unicode="L" glyph-name="L" horiz-adv-x="298" d="M100 50H298V0H51V800H100V50Z" />
<glyph unicode="M" glyph-name="M" horiz-adv-x="614" d="M524 800L554 0H504L475 750H455L332 10H282L160 750H140L110 0H60L91 800H200L307 110L416 800H524Z" />
<glyph unicode="N" glyph-name="N" horiz-adv-x="485" d="M307 0L140 750H120V0H70V800H180L345 50H365V800H415V0H307Z" />
<glyph unicode="O" glyph-name="O" horiz-adv-x="418" d="M363 134Q363 104 352 78T322 33T276 2T219 -10H199Q169 -10 143 1T98 32T67 78T55 134V662Q55 692 66 718T97 764T143 795T199 806H219Q249 806 275 795T321 765T352 719T363 662V134ZM313 662Q313 682
306 699T286 728T256 748T219 756H199Q180 756 163 749T133 729T113 699T105 662V134Q105 115 112 98T132 68T162 48T199 40H219Q239 40 256 47T285 67T305 97T313 134V662Z" />
<glyph unicode="P" glyph-name="P" horiz-adv-x="404" d="M70 800H230Q260 800 286 790T332 761T363 718T374 662V486Q374 456 363 430T333 385T287 354T230 342H120V0H70V800ZM120 750V392H230Q250 392 267 399T296 419T316 449T324 486V662Q324 700 297 725T230
750H120Z" />
<glyph unicode="Q" glyph-name="Q" horiz-adv-x="418" d="M234 134V41Q268 46 290 72T313 134V662Q313 682 306 699T286 728T256 748T219 756H199Q180 756 163 749T133 729T113 699T105 662V134Q105 99 127 73T184 41V134H234ZM363 134Q363 106 353 81T326 37T285
6T234 -9V-150H184V-9Q157 -6 133 6T92 37T65 81T55 134V662Q55 692 66 718T97 764T143 795T199 806H219Q249 806 275 795T321 765T352 719T363 662V134Z" />
<glyph unicode="R" glyph-name="R" horiz-adv-x="418" d="M246 443Q256 448 269 455T293 473T312 500T320 534V680Q320 707 300 729T251 751H120V443H246ZM328 0V298Q328 319 319 335T297 362T270 381T245 393H120V0H70V800H251Q276 800 297 791T335 765T361 727T371
680V536Q371 497 350 465T294 418Q331 404 354 372T378 298V0H328Z" />
<glyph unicode="S" glyph-name="S" horiz-adv-x="394" d="M349 134Q349 104 338 78T308 33T262 2T205 -10H189Q159 -10 133 1T88 32T57 78T45 134V282H95V134Q95 115 102 98T122 68T152 48T189 40H205Q225 40 242 47T271 67T291 97T299 134V211Q299 256 287 289T255
347T207 392T150 429Q98 461 72 502T45 607V662Q45 692 56 718T87 764T133 795T189 806H205Q235 806 261 795T307 765T338 719T349 662H299Q299 682 292 699T272 728T242 748T205 756H189Q170 756 153 749T123 729T103 699T95 662V607Q95 579 105 556T132 514T173
478T222 445Q251 428 274 408T314 360T340 296T349 211V134Z" />
<glyph unicode="T" glyph-name="T" horiz-adv-x="330" d="M190 750V0H140V750H0V800H330V750H190Z" />
<glyph unicode="U" glyph-name="U" horiz-adv-x="428" d="M318 800H368V134Q368 104 357 78T327 33T281 2T224 -10H204Q174 -10 148 1T103 32T72 78T60 134V800H110V134Q110 115 117 98T137 68T167 48T204 40H224Q244 40 261 47T290 67T310 97T318 134V800Z" />
<glyph unicode="V" glyph-name="V" horiz-adv-x="424" d="M364 800H414L273 24Q271 12 259 1T230 -10H196Q180 -10 168 0T153 24L10 800H60L199 53Q199 50 201 47Q203 45 204 43T209 40H217Q223 40 224 45T227 53L364 800Z" />
<glyph unicode="W" glyph-name="W" horiz-adv-x="718" d="M658 800V134Q658 104 647 78T617 33T571 2T514 -10H498Q447 -10 410 19T359 95Q346 49 309 20T220 -10H204Q174 -10 148 1T103 32T72 78T60 134V800H110V134Q110 115 117 98T137 68T167 48T204 40H220Q245
40 266 55T302 92T325 140T334 184V800H384V184Q384 165 392 140T416 93T452 55T498 40H514Q534 40 551 47T580 67T600 97T608 134V800H658Z" />
<glyph unicode="X" glyph-name="X" horiz-adv-x="400" d="M292 800H343L225 455L380 0H329L200 399L71 0H20L174 455L58 800H109L200 511L292 800Z" />
<glyph unicode="Y" glyph-name="Y" horiz-adv-x="424" d="M364 800H414L273 254Q271 243 261 233T237 220V0H187V221Q173 224 164 233T153 254L10 800H60L199 283Q199 280 201 277Q203 275 204 273T209 270H217Q223 270 224 275T227 283L364 800Z" />
<glyph unicode="Z" glyph-name="Z" horiz-adv-x="360" d="M15 0L276 750H15V800H345L85 50H345V0H15Z" />
<glyph unicode="[" glyph-name="bracketleft" horiz-adv-x="281" d="M281 870V820H110V-20H281V-70H60V870H281Z" />
<glyph unicode="\" glyph-name="backslash" horiz-adv-x="259" d="M259 0H209L0 800H49L259 0Z" />
<glyph unicode="]" glyph-name="bracketright" horiz-adv-x="281" d="M221 870V-70H0V-20H171V820H0V870H221Z" />
<glyph unicode="^" glyph-name="asciicircum" horiz-adv-x="310" d="M161 735H158L81 637H31L155 785H164L288 637H238L161 735Z" />
<glyph unicode="_" glyph-name="underscore" horiz-adv-x="350" d="M0 -73V-24H350V-73H0Z" />
<glyph unicode="`" glyph-name="grave" horiz-adv-x="299" d="M30 765H87L188 634H131L30 765Z" />
<glyph unicode="a" glyph-name="a" horiz-adv-x="373" d="M268 437Q268 476 246 498T185 520Q146 520 124 496T102 437V417H52V437Q52 467 62 491T91 533T133 560T185 570Q213 570 237 561T279 534T307 492T318 437V0H268V62Q243 42 217 26Q195 12 171 1T126 -10Q86
-10 58 18T30 86V155Q30 208 58 245T129 300L268 344V437ZM80 86Q80 69 94 55T126 40Q146 40 170 53T217 82Q243 100 268 123V292L150 255Q115 241 98 215T80 155V86Z" />
<glyph unicode="b" glyph-name="b" horiz-adv-x="403" d="M298 474Q298 495 284 507T252 520Q232 520 208 508T161 479Q135 461 110 438V123Q110 88 134 64T193 40H215Q250 40 274 64T298 123V474ZM348 123Q348 96 338 72T309 29T267 1T215 -10H193Q165 -10 141
0T99 29T71 71T60 123V765H110V498Q135 518 161 534Q183 548 207 559T252 570Q292 570 320 542T348 474V123Z" />
<glyph unicode="c" glyph-name="c" horiz-adv-x="363" d="M288 195H338V123Q338 96 328 72T299 29T257 1T205 -10H183Q155 -10 131 0T89 29T61 71T50 123V437Q50 465 60 489T89 531T131 559T183 570H205Q233 570 257 560T299 531T327 489T338 437V362H288V437Q288
472 264 496T205 520H183Q148 520 124 496T100 437V123Q100 88 124 64T183 40H205Q240 40 264 64T288 123V195Z" />
<glyph unicode="d" glyph-name="d" horiz-adv-x="403" d="M343 0H293V62Q268 42 242 26Q220 12 196 1T151 -10Q111 -10 83 18T55 86V438Q55 465 65 489T94 532T136 560T188 571H210Q236 571 257 562T293 542V764H343V0ZM293 443Q293 459 287 473T269 498T242 515T210
521H188Q153 521 129 497T105 438V86Q105 65 119 53T151 40Q171 40 195 53T242 82Q268 100 293 123V443Z" />
<glyph unicode="e" glyph-name="e" horiz-adv-x="373" d="M205 40Q240 40 264 64T288 123V195H338V123Q338 95 328 71T299 29T257 1T205 -10H183Q155 -10 131 0T89 29T61 71T50 123V437Q50 465 60 489T89 531T131 559T183 570H205Q233 570 257 560T299 531T327
489T338 437V308H100V123Q100 88 124 64T183 40H205ZM288 357V437Q288 472 264 496T205 520H183Q148 520 124 496T100 437V357H288Z" />
<glyph unicode="f" glyph-name="f" horiz-adv-x="242" d="M242 515H135V-59Q135 -79 125 -96T97 -127T60 -147T19 -155V-105Q28 -105 39 -101T60 -91T78 -76T85 -59V515H5V564H85V669Q85 689 95 706T123 737T160 757T201 765V715Q192 715 181 711T160 701T142
686T135 669V564H242V515Z" />
<glyph unicode="g" glyph-name="g" horiz-adv-x="388" d="M289 121Q263 100 237 83Q215 69 191 57T146 45Q106 45 78 73T50 141V438Q50 465 60 489T89 532T131 560T183 571H205Q233 571 257 561T299 532T327 490T338 438V-34Q338 -62 328 -86T300 -127T258 -155T206
-165H184Q156 -165 132 -155T90 -126T62 -84T51 -32V-10H101V-32Q101 -67 125 -91T184 -115H206Q241 -115 265 -91T289 -32V121ZM100 141Q100 120 114 108T146 95Q166 95 190 108T237 137Q263 155 288 178V438Q288 473 264 497T205 521H183Q148 521 124 497T100
438V141Z" />
<glyph unicode="h" glyph-name="h" horiz-adv-x="403" d="M60 0V765H110V498Q135 518 161 534Q183 548 207 559T252 570Q292 570 320 542T348 474V0H298V474Q298 495 284 507T252 520Q232 520 208 508T161 479Q135 461 110 438V0H60Z" />
<glyph unicode="i" glyph-name="i" horiz-adv-x="196" d="M115 659H65V765H115V659ZM65 560H115V86Q115 79 121 71T137 56T159 45T181 40V-10Q161 -10 141 -3T103 18T76 48T65 86V560Z" />
<glyph unicode="j" glyph-name="j" horiz-adv-x="182" d="M117 659H67V765H117V659ZM66 560H116V-59Q116 -79 106 -96T78 -127T41 -147T0 -155V-105Q9 -105 20 -101T41 -91T59 -76T66 -59V560Z" />
<glyph unicode="k" glyph-name="k" horiz-adv-x="351" d="M109 0H60V765H109V326H134L272 560H326L179 306V297L376 0H322L134 277H109V0Z" />
<glyph unicode="l" glyph-name="l" horiz-adv-x="196" d="M65 764H115V86Q115 79 121 71T137 56T159 45T181 40V-10Q161 -10 141 -3T103 18T76 48T65 86V764Z" />
<glyph unicode="m" glyph-name="m" horiz-adv-x="681" d="M318 0V474Q318 495 304 507T272 520Q252 520 225 508T171 479Q141 461 110 438V0H60V560H110V498Q141 518 171 534Q197 548 224 559T272 570Q306 570 331 550T365 498H368Q399 518 429 534Q455 548 482
559T530 570Q570 570 598 542T626 474V0H576V474Q576 495 562 507T530 520Q510 520 483 508T429 479Q399 461 368 438V0H318Z" />
<glyph unicode="n" glyph-name="n" horiz-adv-x="403" d="M60 0V560H110V498Q135 518 161 534Q183 548 207 559T252 570Q292 570 320 542T348 474V0H298V474Q298 495 284 507T252 520Q232 520 208 508T161 479Q135 461 110 438V0H60Z" />
<glyph unicode="o" glyph-name="o" horiz-adv-x="388" d="M338 123Q338 96 328 72T299 29T257 1T205 -10H183Q155 -10 131 0T89 29T61 71T50 123V437Q50 465 60 489T89 531T131 559T183 570H205Q233 570 257 560T299 531T327 489T338 437V123ZM288 437Q288 472
264 496T205 520H183Q148 520 124 496T100 437V123Q100 88 124 64T183 40H205Q240 40 264 64T288 123V437Z" />
<glyph unicode="p" glyph-name="p" horiz-adv-x="398" d="M105 123Q105 88 129 64T188 40H210Q245 40 269 64T293 123V474Q293 495 279 507T247 520Q227 520 203 508T156 479Q130 461 105 438V123ZM343 123Q343 96 333 72T304 29T262 1T210 -10H188Q140 -10 105
19V-156H55V560H105V498Q130 518 156 534Q178 548 202 559T247 570Q287 570 315 542T343 474V123Z" />
<glyph unicode="q" glyph-name="q" horiz-adv-x="393" d="M338 -156H288V63Q263 43 237 27Q215 13 191 2T146 -9Q106 -9 78 19T50 87V438Q50 465 60 489T89 532T131 560T183 571H205Q233 571 257 561T299 532T327 490T338 438V-156ZM100 87Q100 66 114 54T146
41Q166 41 190 54T237 83Q263 101 288 124V438Q288 473 264 497T205 521H183Q148 521 124 497T100 438V87Z" />
<glyph unicode="r" glyph-name="r" horiz-adv-x="363" d="M60 0V560H110V498Q135 518 161 534Q183 548 207 559T252 570Q292 570 320 542T348 474V373H298V474Q298 495 284 507T252 520Q232 520 208 508T161 479Q135 461 110 438V0H60Z" />
<glyph unicode="s" glyph-name="s" horiz-adv-x="368" d="M90 417Q90 400 108 381T148 344Q174 325 205 305Q240 285 267 261Q290 241 309 214T328 157V123Q328 96 318 72T289 29T247 1T195 -10H173Q145 -10 121 0T79 29T51 71T40 123V212H90V123Q90 88 114 64T173
40H195Q230 40 254 64T278 123V157Q278 174 260 194T219 232Q193 252 160 273Q126 292 100 315Q77 335 59 361T40 417V437Q40 465 50 489T79 531T121 559T173 570H195Q223 570 247 560T289 531T317 489T328 437V417H278V437Q278 472 254 496T195 520H173Q138 520
114 496T90 437V417Z" />
<glyph unicode="t" glyph-name="t" horiz-adv-x="237" d="M0 511V560H80V705H130V560H237V511H130V86Q130 79 136 71T152 56T174 45T196 40V-10Q176 -10 156 -3T118 18T91 48T80 86V511H0Z" />
<glyph unicode="u" glyph-name="u" horiz-adv-x="403" d="M343 560V0H293V62Q268 42 242 26Q220 12 196 1T151 -10Q111 -10 83 18T55 86V560H105V86Q105 65 119 53T151 40Q171 40 195 52T242 81Q268 99 293 122V560H343Z" />
<glyph unicode="v" glyph-name="v" horiz-adv-x="345" d="M280 558H330L233 24Q231 12 219 1T190 -10H156Q140 -10 128 0T113 24L15 558H65L159 53Q159 50 161 47Q163 45 164 43T169 40H177Q183 40 184 45T187 53L280 558Z" />
<glyph unicode="w" glyph-name="w" horiz-adv-x="676" d="M621 560V134Q621 104 612 78T585 33T543 2T488 -10H466Q421 -10 386 16T338 88Q325 42 290 16T210 -10H188Q158 -10 134 1T92 32T65 78T55 134V560H105V134Q105 95 127 68T188 40H210Q236 40 255 53T287
86T306 133T313 184V560H363V184Q363 159 369 133T389 87T421 53T466 40H488Q527 40 549 67T571 134V560H621Z" />
<glyph unicode="x" glyph-name="x" horiz-adv-x="339" d="M321 560L198 295L329 0H279L173 245L60 0H10L148 295L33 560H83L173 344L271 560H321Z" />
<glyph unicode="y" glyph-name="y" horiz-adv-x="335" d="M10 558H60L154 53Q154 50 156 47Q158 45 159 43T164 40H180L275 557H325L194 -158H144L171 -10H151Q135 -10 123 0T108 24L10 558Z" />
<glyph unicode="z" glyph-name="z" horiz-adv-x="334" d="M309 0H25V50L256 514H27V564H306V514L74 49H309V0Z" />
<glyph unicode="{" glyph-name="braceleft" horiz-adv-x="229" d="M189 810Q170 805 159 787T148 727V539Q148 502 143 477T129 437T105 416T70 408V392Q90 391 105 385T129 364T143 324T148 261V73Q148 29 159 12T189 -10V-60Q147 -55 123 -24T98 73V261Q98 298
94 318T79 348T55 360T20 362V438Q40 438 54 440T79 451T93 481T98 539V727Q98 793 122 824T189 860V810Z" />
<glyph unicode="|" glyph-name="bar" horiz-adv-x="170" d="M110 -50H60V850H110V-50Z" />
<glyph unicode="}" glyph-name="braceright" horiz-adv-x="229" d="M40 860Q82 855 106 824T131 727V539Q131 502 135 482T150 452T174 440T209 438V362Q189 362 175 360T150 349T136 319T131 261V73Q131 7 107 -24T40 -60V-10Q59 -5 70 12T81 73V261Q81 299 85
324T99 364T124 385T159 392V408Q140 409 125 415T101 437T86 477T81 539V727Q81 768 70 786T40 810V860Z" />
<glyph unicode="~" glyph-name="asciitilde" horiz-adv-x="307" d="M24 695Q32 704 47 715T86 726Q104 726 121 721T155 709T189 697T223 691Q243 691 255 699T279 719L284 673Q276 664 261 653T223 641Q205 641 188 646T154 658T120 670T86 676Q66 676 53 668T29
649L24 695Z" />
</font>
</defs>
</svg>
