<?xml version="1.0" standalone="no"?>
<!DOCTYPE svg PUBLIC "-//W3C//DTD SVG 1.1//EN" "http://www.w3.org/Graphics/SVG/1.1/DTD/svg11.dtd" >
<svg xmlns="http://www.w3.org/2000/svg" xmlns:xlink="http://www.w3.org/1999/xlink" version="1.1">
<metadata>
Created by FontForge 20150824 at Wed Sep  7 07:12:58 2016
 By Everything Fonts
2010 Hans Reichel published by FSI FontShop International GmbH
</metadata>
<defs>
<font id="Daxlineoffcpro" horiz-adv-x="309" >
  <font-face 
    font-family="Daxlineoffcpro"
    font-weight="400"
    font-stretch="normal"
    units-per-em="1000"
    panose-1="2 11 5 4 2 1 1 2 1 2"
    ascent="785"
    descent="-215"
    x-height="539"
    cap-height="724"
    bbox="-321 -312 1286 1021"
    underline-thickness="62"
    underline-position="-230"
    unicode-range="U+0020-FB02"
  />
<missing-glyph horiz-adv-x="500" 
d="M0 700h500v-700h-500v700zM420 650h-340l170 -255zM450 95v510l-170 -255zM420 50l-170 255l-170 -255h340zM50 95l170 255l-170 255v-510z" />
    <glyph glyph-name=".notdef" horiz-adv-x="500" 
d="M0 700h500v-700h-500v700zM420 650h-340l170 -255zM450 95v510l-170 -255zM420 50l-170 255l-170 -255h340zM50 95l170 255l-170 255v-510z" />
    <glyph glyph-name=".null" horiz-adv-x="0" 
 />
    <glyph glyph-name="nonmarkingreturn" horiz-adv-x="271" 
 />
    <glyph glyph-name="space" unicode=" " horiz-adv-x="271" 
 />
    <glyph glyph-name="exclam" unicode="!" horiz-adv-x="275" 
d="M174 233h-73l-12 491h97zM195 51q0 -24 -16.5 -41t-40.5 -17t-41 17t-17 41t17 41t41 17t40.5 -17t16.5 -41z" />
    <glyph glyph-name="quotedbl" unicode="&#x22;" horiz-adv-x="443" 
d="M350 410h-52l-16 300q15 21 42 21q26 0 41 -21zM145 410h-52l-15 300q15 21 41 21q27 0 42 -21z" />
    <glyph glyph-name="numbersign" unicode="#" horiz-adv-x="763" 
d="M553 461l-27 -190h126v-60h-135l-29 -211h-68l30 211h-185l-30 -211h-67l30 211h-127v60h136l27 190h-126v60h135l29 203h67l-29 -203h185l29 203h67l-28 -203h126v-60h-136zM301 461l-27 -190h185l27 190h-185z" />
    <glyph glyph-name="dollar" unicode="$" horiz-adv-x="584" 
d="M509 194q0 -87 -59 -139.5t-156 -62.5l4 -151h-73l13 148q-21 1 -44 4t-45.5 8t-43.5 11.5t-37 14.5l32 73q13 -7 32 -13t39.5 -10.5t41 -7.5t37.5 -3q79 0 125.5 31t46.5 93q0 28 -12 49.5t-32.5 38t-46 29t-52.5 23.5q-36 15 -72 33t-65.5 43t-47.5 57.5t-18 77.5
q0 82 54 131.5t141 59.5l-3 144h71l-12 -141q45 -2 86 -13t67 -25l-30 -69q-22 12 -59 22.5t-76 10.5q-72 0 -112 -29.5t-40 -86.5q0 -28 13.5 -49.5t35 -38t48.5 -29.5t54 -25q34 -14 68.5 -31.5t62.5 -42t46 -57.5t18 -78z" />
    <glyph glyph-name="percent" unicode="%" horiz-adv-x="965" 
d="M897 215q0 -50 -10 -91.5t-30 -71.5t-50 -46.5t-69 -16.5t-69 16.5t-50 46.5t-30 71.5t-10 91.5t10 91.5t30 71.5t50 46.5t69 16.5t69 -16.5t50 -46.5t30 -71.5t10 -91.5zM377 -9l-57 18l267 724l58 -18zM385 509q0 -50 -10 -91.5t-29.5 -71.5t-49.5 -46.5t-69 -16.5
t-69 16.5t-50 46.5t-30 71.5t-10 91.5t10 91.5t30 71.5t50 46.5t69 16.5t69 -16.5t49.5 -46.5t29.5 -71.5t10 -91.5zM828 216q0 77 -22.5 121.5t-67.5 44.5t-67.5 -44.5t-22.5 -121.5t22.5 -121.5t67.5 -44.5t67.5 44.5t22.5 121.5zM317 510q0 77 -22.5 121.5t-67.5 44.5
t-67.5 -44.5t-22.5 -121.5t22.5 -121.5t67.5 -44.5t67.5 44.5t22.5 121.5z" />
    <glyph glyph-name="ampersand" unicode="&#x26;" horiz-adv-x="714" 
d="M546 392v-365q-33 -14 -90 -26t-120 -12q-65 0 -117 12t-88.5 36.5t-56 62.5t-19.5 89q0 39 12.5 71t34 56.5t51.5 41.5t66 28v2q-69 18 -100.5 62.5t-31.5 99.5q0 41 15.5 75t44.5 58.5t71 38t95 13.5q47 0 90 -11t74 -27l-28 -66q-24 14 -59.5 22.5t-69.5 8.5
q-69 0 -109 -29t-40 -89q0 -55 38 -87t97 -32q15 0 36 1t47 6l276 48l11 -67zM464 378l-147 -24q-177 -29 -177 -160q0 -37 14 -63t39.5 -42.5t62 -24t82.5 -7.5q35 0 71 6t55 13v302z" />
    <glyph glyph-name="quotesingle" unicode="'" horiz-adv-x="239" 
d="M145 410h-52l-15 300q15 21 41 21q27 0 42 -21z" />
    <glyph glyph-name="parenleft" unicode="(" horiz-adv-x="372" 
d="M271 -216q-44 52 -81 109.5t-65 121t-43.5 134t-15.5 148.5t15.5 148.5t43.5 133.5t65 120t81 110l63 -38q-36 -47 -68.5 -100t-57 -112t-38.5 -124.5t-14 -137.5t14 -137.5t38.5 -125t57 -112.5t68.5 -100z" />
    <glyph glyph-name="parenright" unicode=")" horiz-adv-x="372" 
d="M306 297q0 -78 -15.5 -148.5t-43.5 -134t-65.5 -121t-80.5 -109.5l-63 38q36 47 68.5 100t57 112.5t38.5 125t14 137.5t-14 137.5t-38.5 124.5t-57 112t-68.5 100l63 38q43 -53 80.5 -110t65.5 -120t43.5 -133.5t15.5 -148.5z" />
    <glyph glyph-name="asterisk" unicode="*" horiz-adv-x="591" 
d="M531 715q0 -14 -7 -25l-181 -48l117 -144q-2 -18 -16 -32t-32 -14h-7q-4 0 -6 2l-99 154l-98 -154q-2 -2 -6 -2h-7q-18 0 -32 14t-16 32l117 144l-181 48q-7 11 -7 25q0 31 29 44l173 -67l-10 187q14 17 38 17t38 -17l-9 -187l172 67q14 -6 22 -18t8 -26z" />
    <glyph glyph-name="plus" unicode="+" horiz-adv-x="565" 
d="M319 291v-180h-73v180h-175v68h175v180h73v-180h175v-68h-175z" />
    <glyph glyph-name="comma" unicode="," horiz-adv-x="252" 
d="M70 -169h-61l86 248q9 13 22.5 21.5t33.5 8.5t29.5 -9t11.5 -21z" />
    <glyph glyph-name="hyphen" unicode="-" horiz-adv-x="411" 
d="M70 288v74h271v-74h-271z" />
    <glyph glyph-name="period" unicode="." horiz-adv-x="252" 
d="M184 51q0 -24 -17 -41t-41 -17t-41 17t-17 41t17 41t41 17t41 -17t17 -41z" />
    <glyph glyph-name="slash" unicode="/" horiz-adv-x="460" 
d="M82 -196l-78 25l337 969l78 -25z" />
    <glyph glyph-name="zero" unicode="0" horiz-adv-x="589" 
d="M529 362q0 -76 -13.5 -143.5t-42 -118.5t-73 -81t-106.5 -30t-106.5 30t-73 81t-41.5 118.5t-13 143.5t13 143.5t41.5 118.5t73 81t106.5 30t106.5 -30t73 -81t42 -118.5t13.5 -143.5zM444 363q0 62 -8 117.5t-26 97t-46.5 65.5t-69.5 24t-69.5 -24t-46 -65.5t-25.5 -97
t-8 -117.5t8 -117.5t25.5 -97t46 -65.5t69.5 -24t69.5 24t46.5 65.5t26 97t8 117.5z" />
    <glyph glyph-name="one" unicode="1" horiz-adv-x="589" 
d="M320 0v623q-18 -13 -42.5 -24.5t-52.5 -21.5t-58 -18t-60 -13l-14 66q34 6 69.5 16.5t67.5 24.5t60 32t48 39h67v-724h-85z" />
    <glyph glyph-name="two" unicode="2" horiz-adv-x="589" 
d="M21 0l308 363q31 36 56 76t25 87q0 63 -45 100.5t-127 37.5q-38 0 -79.5 -9.5t-73.5 -23.5l-28 66q40 17 88 27.5t99 10.5q121 0 187.5 -55.5t66.5 -150.5q0 -31 -9 -59.5t-23.5 -54t-33 -49t-36.5 -43.5l-226 -252h345v-71h-494z" />
    <glyph glyph-name="three" unicode="3" horiz-adv-x="589" 
d="M506 203q0 -48 -18.5 -87.5t-52.5 -67.5t-83.5 -43.5t-110.5 -15.5q-52 0 -103.5 10.5t-91.5 27.5l28 67q32 -14 77 -23.5t90 -9.5q82 0 130.5 38.5t48.5 104.5q0 36 -17.5 63.5t-47.5 46t-71 27.5t-88 9h-20v63q45 3 84 14.5t68 30t46 43t17 54.5q0 53 -39.5 81
t-106.5 28q-38 0 -79 -9.5t-75 -23.5l-27 66q40 17 89 27.5t101 10.5q106 0 164 -47t58 -128q0 -32 -13 -59t-34 -48t-47 -36t-52 -23v-2q29 -6 60 -19.5t57 -36t42.5 -55.5t16.5 -78z" />
    <glyph glyph-name="four" unicode="4" horiz-adv-x="589" 
d="M459 187v-187h-78v187h-335v63l321 474h92v-475h80v-62h-80zM384 649q-4 -7 -16 -30t-32 -53l-214 -317h262v305q0 35 1 62t1 33h-2z" />
    <glyph glyph-name="five" unicode="5" horiz-adv-x="589" 
d="M510 212q0 -52 -19.5 -93t-55 -70t-85 -44.5t-108.5 -15.5q-51 0 -102 10.5t-89 27.5l28 67q32 -14 75.5 -23.5t85.5 -9.5t76 10.5t58 29.5t37.5 46.5t13.5 62.5q0 72 -52.5 115.5t-170.5 43.5q-24 0 -51.5 -1.5t-57.5 -6.5l42 363h362v-71h-289l-26 -222q8 1 22 1.5
t25 0.5q140 0 210.5 -57.5t70.5 -163.5z" />
    <glyph glyph-name="six" unicode="6" horiz-adv-x="589" 
d="M533 215q0 -45 -17 -86t-47.5 -72t-74 -49.5t-95.5 -18.5q-60 0 -105 21.5t-75 59t-44.5 87t-14.5 105.5q0 79 26.5 153.5t77 137.5t122 110.5t161.5 71.5l23 -71q-60 -16 -108.5 -42.5t-86 -60t-64.5 -74t-43 -83.5q25 11 59.5 19t66.5 8q54 0 98 -14.5t75.5 -42
t48.5 -68t17 -91.5zM450 215q0 77 -47 115.5t-119 38.5q-32 0 -70.5 -9t-64.5 -21q-4 -20 -6 -39t-2 -38q0 -43 10 -80.5t30 -65t49.5 -43t68.5 -15.5q34 0 62 13t47.5 34.5t30.5 50t11 59.5z" />
    <glyph glyph-name="seven" unicode="7" horiz-adv-x="589" 
d="M207 0h-95l312 653h-374v71h493z" />
    <glyph glyph-name="eight" unicode="8" horiz-adv-x="589" 
d="M532 175q0 -42 -18 -76.5t-49.5 -59t-75 -37.5t-95.5 -13t-95.5 12.5t-75 36.5t-49 58.5t-17.5 78.5q0 41 14 72t37 55t53 42t62 32q-29 13 -55.5 30t-46.5 38.5t-32 49t-12 62.5q0 40 16 73t44.5 56.5t68.5 36.5t88 13t88 -13.5t68.5 -37t44.5 -56.5t16 -72
q0 -35 -12 -62.5t-32 -49t-46.5 -38.5t-55.5 -30q32 -14 62 -32t53.5 -42t37.5 -55t14 -72zM431 556q0 49 -35.5 82.5t-101.5 33.5t-101 -33.5t-35 -82.5q0 -29 11 -51t30 -39.5t43.5 -31.5t51.5 -26q27 12 52 26t43.5 31.5t30 39.5t11.5 51zM449 177q0 33 -12.5 58t-34 44
t-49.5 34t-59 29q-31 -14 -59 -29t-49 -34t-33.5 -44t-12.5 -58q0 -57 42.5 -90.5t111.5 -33.5t112 33.5t43 90.5z" />
    <glyph glyph-name="nine" unicode="9" horiz-adv-x="589" 
d="M529 462q0 -79 -26.5 -153.5t-77 -137.5t-122 -110.5t-161.5 -71.5l-24 71q60 16 108.5 42.5t86 60t64.5 73.5t44 84q-25 -11 -59.5 -19t-66.5 -8q-54 0 -98 14.5t-75.5 42t-48.5 68t-17 91.5q0 45 16.5 86t47.5 72t73.5 49.5t95.5 18.5q60 0 105 -21.5t75 -59t45 -87
t15 -105.5zM448 462q0 43 -10 80.5t-30.5 65t-50 43t-68.5 15.5q-34 0 -62 -13t-47.5 -34.5t-30 -49.5t-10.5 -59q0 -77 47 -115.5t119 -38.5q32 0 70.5 8.5t64.5 20.5q4 20 6 39t2 38z" />
    <glyph glyph-name="colon" unicode=":" horiz-adv-x="280" 
d="M198 374q0 -24 -17 -41t-41 -17t-41 17t-17 41t17 41t41 17t41 -17t17 -41zM198 51q0 -24 -17 -41t-41 -17t-41 17t-17 41t17 41t41 17t41 -17t17 -41z" />
    <glyph glyph-name="semicolon" unicode=";" horiz-adv-x="280" 
d="M200 374q0 -24 -17 -41t-41 -17t-41 17t-17 41t17 41t41 17t41 -17t17 -41zM80 -169h-61l86 248q9 13 22.5 21.5t33.5 8.5t29.5 -9t11.5 -21z" />
    <glyph glyph-name="less" unicode="&#x3c;" horiz-adv-x="565" 
d="M71 296v58l423 206v-79l-343 -156l343 -156v-79z" />
    <glyph glyph-name="equal" unicode="=" horiz-adv-x="565" 
d="M71 393v67h423v-67h-423zM71 190v67h423v-67h-423z" />
    <glyph glyph-name="greater" unicode="&#x3e;" horiz-adv-x="565" 
d="M71 90v79l343 156l-343 156v79l423 -206v-58z" />
    <glyph glyph-name="question" unicode="?" horiz-adv-x="478" 
d="M429 553q0 -38 -16 -68.5t-41 -54.5t-55 -41t-58 -26l-5 -130h-70l-7 174q31 8 60.5 21t52.5 31t37 40.5t14 50.5q0 54 -34.5 84t-106.5 30q-38 0 -76 -9.5t-64 -22.5l-29 65q32 17 80 27.5t97 10.5q107 0 164 -48.5t57 -133.5zM277 51q0 -24 -17 -41t-41 -17t-41 17
t-17 41t17 41t41 17t41 -17t17 -41z" />
    <glyph glyph-name="at" unicode="@" horiz-adv-x="1033" 
d="M972 334q0 -90 -28 -155t-76.5 -107t-114 -62.5t-140.5 -20.5q-145 0 -225 70t-80 204q0 60 17 108.5t48 82.5t75 52t98 18q57 0 95 -15.5t61 -34.5v-411q91 22 143 87.5t52 183.5q0 67 -20.5 128t-64 107.5t-110.5 73.5t-160 27q-96 0 -171.5 -32.5t-127.5 -88.5
t-79.5 -132t-27.5 -164q0 -87 28.5 -162.5t86 -131t144 -87.5t201.5 -32q97 0 175.5 25t132.5 63l36 -56q-59 -42 -144 -70t-200 -28q-131 0 -230.5 36.5t-167.5 101t-102.5 152t-34.5 189.5q0 100 33 188t95 153t151 103t202 38q109 0 190 -33t134.5 -88.5t79.5 -128
t26 -151.5zM629 441q-12 8 -35 14.5t-50 6.5q-75 0 -118 -51.5t-43 -147.5q0 -107 59.5 -158t165.5 -51h21v387z" />
    <glyph glyph-name="A" unicode="A" horiz-adv-x="656" 
d="M546 0l-72 211h-291l-72 -211h-91l259 724h99l258 -724h-90zM351 570q-8 25 -13.5 46.5t-8.5 36.5h-2q-3 -15 -8.5 -36.5t-13.5 -46.5l-100 -293h247z" />
    <glyph glyph-name="B" unicode="B" horiz-adv-x="607" 
d="M555 192q0 -95 -71 -149t-202 -54q-27 0 -55.5 3t-55 8t-50 12t-40.5 15v670q36 17 88.5 27.5t109.5 10.5q124 0 187.5 -52.5t63.5 -136.5q0 -35 -11 -63.5t-29 -50t-40 -35t-43 -18.5v-2q23 -6 49 -19t48 -35.5t36.5 -55t14.5 -75.5zM447 540q0 60 -43.5 93.5
t-124.5 33.5q-34 0 -65 -5t-51 -13v-245h106q26 0 45 1.5t34 5t27 9t24 14.5q22 16 35 44t13 62zM469 196q0 82 -67 119q-13 7 -25.5 11.5t-27 7.5t-33 4.5t-43.5 1.5h-110v-265q21 -8 54 -13t65 -5q91 0 139 35.5t48 103.5z" />
    <glyph glyph-name="C" unicode="C" horiz-adv-x="540" 
d="M495 27q-67 -38 -155 -38q-58 0 -109.5 22.5t-90 68.5t-61 116.5t-22.5 165.5t22.5 165.5t61 116.5t90 68.5t109.5 22.5q88 0 155 -38l-29 -69q-24 14 -53.5 22.5t-64.5 8.5q-42 0 -78.5 -17.5t-64 -54t-43.5 -92.5t-16 -132t16 -132t43.5 -92.5t64 -54.5t78.5 -18
q35 0 64.5 8.5t53.5 22.5z" />
    <glyph glyph-name="D" unicode="D" horiz-adv-x="636" 
d="M580 362q0 -93 -23.5 -163t-65 -116.5t-99 -70t-125.5 -23.5q-58 0 -108.5 11t-79.5 27v670q33 17 82 27.5t106 10.5q68 0 125.5 -23.5t99 -70t65 -116.5t23.5 -163zM493 362q0 78 -17.5 134.5t-47.5 93t-70.5 54t-86.5 17.5q-31 0 -59.5 -4.5t-45.5 -12.5v-564
q14 -8 42.5 -12.5t62.5 -4.5q46 0 86.5 17.5t70.5 54t47.5 93t17.5 134.5z" />
    <glyph glyph-name="E" unicode="E" horiz-adv-x="504" 
d="M79 0v724h375v-74h-290v-242h267v-72h-267v-262h290v-74h-375z" />
    <glyph glyph-name="F" unicode="F" horiz-adv-x="490" 
d="M164 650v-242h260v-72h-260v-336h-85v724h368v-74h-283z" />
    <glyph glyph-name="G" unicode="G" horiz-adv-x="644" 
d="M569 27q-27 -16 -77 -27t-115 -11q-68 0 -126.5 24t-101.5 71.5t-67.5 117t-24.5 160.5t25 160.5t69 117t103 71.5t128 24q54 0 101 -10.5t74 -27.5l-30 -68q-22 13 -59 22t-84 9q-48 0 -92 -17.5t-77 -54t-52.5 -93t-19.5 -133.5t19 -133.5t51 -93.5t73 -54.5t86 -17.5
q39 0 70.5 5.5t43.5 12.5v260h-154v68h237v-382z" />
    <glyph glyph-name="H" unicode="H" horiz-adv-x="639" 
d="M473 0v336h-307v-336h-87v724h87v-316h307v316h87v-724h-87z" />
    <glyph glyph-name="I" unicode="I" horiz-adv-x="248" 
d="M81 0v724h86v-724h-86z" />
    <glyph glyph-name="J" unicode="J" horiz-adv-x="248" 
d="M167 80q0 -134 -62.5 -205.5t-171.5 -93.5v77q34 10 61.5 27.5t46.5 44.5t29.5 64t10.5 86v644h86v-644z" />
    <glyph glyph-name="K" unicode="K" horiz-adv-x="576" 
d="M459 0l-290 371h-2v-371h-86v724h86v-335h2l284 335h101l-293 -344l300 -380h-102z" />
    <glyph glyph-name="L" unicode="L" horiz-adv-x="474" 
d="M81 0v724h86v-650h272v-74h-358z" />
    <glyph glyph-name="M" unicode="M" horiz-adv-x="868" 
d="M734 0l-68 543q-4 31 -6 55t-3 33h-2q-2 -11 -7.5 -34t-14.5 -54l-167 -543h-64l-167 543q-9 31 -14.5 54t-7.5 34h-2q-1 -12 -2.5 -34.5t-5.5 -53.5l-69 -543h-81l96 724h103l160 -520q3 -10 6 -22.5t6 -24.5t5.5 -23t3.5 -17h2q2 11 7.5 36.5t13.5 50.5l160 520h103
l96 -724h-81z" />
    <glyph glyph-name="N" unicode="N" horiz-adv-x="688" 
d="M528 0l-331 531q-15 24 -26.5 47.5t-15.5 31.5h-2q1 -11 1.5 -37t0.5 -51v-522h-76v724h85l326 -521q17 -26 27.5 -48.5t14.5 -30.5h2q0 7 -0.5 33t-0.5 58v509h76v-724h-81z" />
    <glyph glyph-name="O" unicode="O" horiz-adv-x="668" 
d="M611 362q0 -77 -17.5 -145t-52 -118.5t-86.5 -80t-121 -29.5t-121 29.5t-86.5 80t-52 118.5t-17.5 145t17.5 145t52 118.5t86.5 80t121 29.5t121 -29.5t86.5 -80t52 -118.5t17.5 -145zM525 362q0 63 -12 117t-36 93.5t-60 62.5t-83 23t-83 -23t-60 -62.5t-36 -93.5
t-12 -117t12 -117t36 -93.5t60 -62.5t83 -23t83 23t60 62.5t36 93.5t12 117z" />
    <glyph glyph-name="P" unicode="P" horiz-adv-x="569" 
d="M527 514q0 -48 -18 -88t-53.5 -69t-87.5 -45t-119 -16q-23 0 -46 1.5t-38 4.5v-302h-86v697q38 18 86 28t104 10q125 0 191.5 -59.5t66.5 -161.5zM442 515q0 75 -44 113t-128 38q-32 0 -59.5 -4.5t-45.5 -12.5v-278q15 -3 36.5 -4.5t44.5 -1.5q96 0 146 40.5t50 109.5z
" />
    <glyph glyph-name="Q" unicode="Q" horiz-adv-x="668" 
d="M546 -187l-127 190q-40 -14 -85 -14q-69 0 -121 29.5t-86.5 80t-52 118.5t-17.5 145t17.5 145t52 118.5t86.5 80t121 29.5t121 -29.5t86.5 -80t52 -118.5t17.5 -145q0 -104 -31.5 -189.5t-93.5 -133.5l126 -174zM525 362q0 63 -12 117t-36 93.5t-60 62.5t-83 23t-83 -23
t-60 -62.5t-36 -93.5t-12 -117t12 -117t36 -93.5t60 -62.5t83 -23t83 23t60 62.5t36 93.5t12 117z" />
    <glyph glyph-name="R" unicode="R" horiz-adv-x="603" 
d="M475 0l-113 236q-19 40 -48 61t-75 21h-74v-318h-84v696q38 18 89.5 28.5t105.5 10.5q63 0 110.5 -15t80 -42t48.5 -65t16 -83q0 -43 -12.5 -75.5t-35 -55t-53 -36.5t-66.5 -20v-2q28 -14 48 -39t37 -59l118 -243h-92zM447 527q0 64 -41.5 102t-128.5 38q-32 0 -62 -5
t-50 -13v-266h95q87 0 137 32.5t50 111.5z" />
    <glyph glyph-name="S" unicode="S" horiz-adv-x="519" 
d="M464 197q0 -48 -17.5 -86.5t-49.5 -65.5t-76.5 -41.5t-98.5 -14.5q-93 0 -174 38l30 74q31 -16 66.5 -25t74.5 -9q69 0 113 33t44 93q0 40 -24 66.5t-59.5 46.5t-77 38.5t-77 43t-59.5 60.5t-24 91q0 45 16.5 81.5t45.5 62t70 39t91 13.5q46 0 85.5 -10t72.5 -28l-29 -70
q-28 16 -59 24.5t-67 8.5q-61 0 -100 -30.5t-39 -86.5q0 -40 24 -65.5t59.5 -45.5t77.5 -38.5t77.5 -44t59.5 -61.5t24 -91z" />
    <glyph glyph-name="T" unicode="T" horiz-adv-x="512" 
d="M299 650v-650h-86v650h-180v74h446v-74h-180z" />
    <glyph glyph-name="U" unicode="U" horiz-adv-x="628" 
d="M549 207q0 -51 -18 -91.5t-50 -68t-75 -42.5t-92 -15q-50 0 -92.5 15t-74.5 42.5t-50 68t-18 91.5v517h87v-517q0 -33 11.5 -59.5t31.5 -45t47 -28t58 -9.5t58 9.5t47 28t31.5 45t11.5 59.5v517h87v-517z" />
    <glyph glyph-name="V" unicode="V" horiz-adv-x="613" 
d="M352 0h-92l-233 724h93l161 -536q8 -25 13.5 -51t10.5 -47h2q1 5 4 17.5t6 26.5l7 29q4 15 7 25l162 536h93z" />
    <glyph glyph-name="W" unicode="W" horiz-adv-x="908" 
d="M687 0h-87l-127 512q-8 35 -12 59.5t-6 38.5h-2q-2 -14 -6 -40t-12 -58l-127 -512h-87l-183 724h87l124 -527q6 -26 11 -53.5t7 -42.5h2q2 16 7 43t11 53l129 527h76l129 -527q6 -25 10.5 -51t7.5 -45h2q3 20 7.5 45t10.5 51l124 527h87z" />
    <glyph glyph-name="X" unicode="X" horiz-adv-x="585" 
d="M466 0l-172 305h-2l-173 -305h-95l218 375l-203 349h94l159 -280h2l158 280h95l-203 -349l217 -375h-95z" />
    <glyph glyph-name="Y" unicode="Y" horiz-adv-x="593" 
d="M340 290v-290h-87v290l-230 434h94l179 -347h2l178 347h94z" />
    <glyph glyph-name="Z" unicode="Z" horiz-adv-x="516" 
d="M29 0l316 650h-297v74h420l-316 -650h318v-74h-441z" />
    <glyph glyph-name="bracketleft" unicode="[" horiz-adv-x="364" 
d="M88 -195v980h223v-67h-141v-846h141v-67h-223z" />
    <glyph glyph-name="backslash" unicode="\" horiz-adv-x="460" 
d="M378 -196l-337 969l79 25l336 -969z" />
    <glyph glyph-name="bracketright" unicode="]" horiz-adv-x="364" 
d="M53 -195v67h141v846h-141v67h223v-980h-223z" />
    <glyph glyph-name="asciicircum" unicode="^" horiz-adv-x="583" 
d="M444 430l-152 185l-153 -185l-53 44l164 198q15 20 42 20q26 0 41 -20l164 -198z" />
    <glyph glyph-name="underscore" unicode="_" horiz-adv-x="586" 
d="M-4 -199v62h594v-62h-594z" />
    <glyph glyph-name="grave" unicode="`" 
d="M146 603l-100 130q3 11 13 17t24 6q13 0 26.5 -6t24.5 -17l74 -130h-62z" />
    <glyph glyph-name="a" unicode="a" horiz-adv-x="528" 
d="M455 27q-29 -16 -80.5 -27t-105.5 -11q-112 0 -167 44t-55 121q0 58 28.5 93t75 54.5t105.5 27.5t120 11v41q0 30 -9.5 50t-26.5 32.5t-40.5 17.5t-51.5 5q-19 0 -39.5 -3t-40 -7.5t-37 -10.5t-30.5 -12l-22 59q31 14 78 26t98 12q45 0 82 -9.5t63.5 -30.5t40.5 -54.5
t14 -81.5v-347zM376 282q-45 -3 -89.5 -7t-80.5 -16.5t-58 -36.5t-22 -66q0 -48 35 -76t106 -28q15 0 31.5 1.5t31.5 3.5t27 5.5t19 6.5v213z" />
    <glyph glyph-name="b" unicode="b" horiz-adv-x="555" 
d="M503 280q0 -76 -19 -131t-53.5 -90.5t-82 -52.5t-104.5 -17q-50 0 -95 11t-76 27v758h84v-262q21 10 51 17t61 7q52 0 95 -18.5t74 -53t48 -84t17 -111.5zM419 275q0 97 -44 151.5t-117 54.5q-27 0 -54.5 -6t-46.5 -16v-385q14 -7 38.5 -12t52.5 -5q36 0 67 12.5
t54.5 38.5t36.5 67.5t13 99.5z" />
    <glyph glyph-name="c" unicode="c" horiz-adv-x="460" 
d="M418 26q-27 -19 -61.5 -28t-72.5 -9q-43 0 -84.5 16t-74 50t-52.5 87.5t-20 127.5t20 127t52.5 87t74 50t84.5 16q38 0 72.5 -9t61.5 -28l-29 -61q-40 28 -96 28q-29 0 -56.5 -11.5t-49.5 -36.5t-35 -64.5t-13 -96.5t13.5 -97t35 -65.5t49 -37t56.5 -11.5q28 0 52 7.5
t44 21.5z" />
    <glyph glyph-name="d" unicode="d" horiz-adv-x="555" 
d="M482 27q-12 -7 -30.5 -14t-41.5 -12t-48.5 -8.5t-52.5 -3.5q-62 0 -109.5 19.5t-80 55t-49.5 86t-17 113.5q0 62 16.5 113.5t48 89t78 58t106.5 20.5q28 0 55 -4.5t42 -9.5v255h83v-758zM399 465q-12 5 -39 9t-52 4q-42 0 -74.5 -16t-54 -45t-32.5 -68.5t-11 -85.5
q0 -94 44 -150t128 -56q13 0 26.5 1.5t26 4t22.5 5.5t16 6v391z" />
    <glyph glyph-name="e" unicode="e" horiz-adv-x="556" 
d="M503 302q0 -9 -1 -19l-368 -53q7 -87 55 -130t126 -43q41 0 80.5 9t66.5 24l26 -63q-29 -17 -76 -27.5t-101 -10.5q-121 0 -189.5 74t-68.5 207q0 62 16 113.5t46.5 88.5t74 57.5t98.5 20.5q100 0 157.5 -61.5t57.5 -169.5v-17zM423 330q-1 80 -38 118t-98 38
q-72 0 -114 -53t-44 -145z" />
    <glyph glyph-name="f" unicode="f" horiz-adv-x="349" 
d="M311 718q-50 0 -84 -25t-34 -81v-73h119v-63h-119v-476h-81v476h-76v63h76v73q0 45 14.5 77.5t39.5 54t59 32t73 10.5h13q7 0 11 -1v-67h-11z" />
    <glyph glyph-name="g" unicode="g" horiz-adv-x="555" 
d="M482 -2q0 -107 -58 -165t-164 -58q-54 0 -101.5 12t-78.5 28l26 66q26 -14 66 -24.5t82 -10.5q73 0 109.5 39.5t36.5 112.5v46q-22 -11 -53 -17.5t-63 -6.5q-51 0 -93 17t-73 50t-48 80.5t-17 109.5q0 71 19.5 122.5t54 85t82 49.5t103.5 16q50 0 94.5 -10.5t75.5 -27.5
v-514zM400 466q-14 7 -39 12t-54 5q-36 0 -67 -11t-54 -35.5t-36.5 -63t-13.5 -93.5q0 -97 45 -145.5t116 -48.5q27 0 56 5.5t47 15.5v359z" />
    <glyph glyph-name="h" unicode="h" horiz-adv-x="559" 
d="M403 0v363q0 60 -36 88.5t-98 28.5q-29 0 -59 -8t-53 -22v-450h-84v785h84v-269q26 14 60 23t68 9q94 0 147.5 -45.5t53.5 -133.5v-369h-83z" />
    <glyph glyph-name="i" unicode="i" horiz-adv-x="238" 
d="M172 699q0 -21 -15.5 -36t-37.5 -15t-37.5 15t-15.5 36t15.5 36.5t37.5 15.5t37.5 -15.5t15.5 -36.5zM78 0v539h83v-539h-83z" />
    <glyph glyph-name="j" unicode="j" horiz-adv-x="238" 
d="M172 699q0 -21 -15.5 -36t-37.5 -15t-37.5 15t-15.5 36t15.5 36.5t37.5 15.5t37.5 -15.5t15.5 -36.5zM161 57q0 -67 -17.5 -115.5t-46.5 -82t-68 -52.5t-81 -28v71q26 9 49.5 25t41.5 41t28.5 60t10.5 81v482h83v-482z" />
    <glyph glyph-name="k" unicode="k" horiz-adv-x="520" 
d="M408 0l-248 277h-2v-277h-82v785h82v-493h2l233 247h100l-242 -255l256 -284h-99z" />
    <glyph glyph-name="l" unicode="l" horiz-adv-x="238" 
d="M78 0v785h83v-785h-83z" />
    <glyph glyph-name="m" unicode="m" horiz-adv-x="863" 
d="M707 0v371q0 53 -33 82t-84 29q-38 0 -67.5 -12.5t-49.5 -33.5v-436h-83v384q0 46 -34.5 72t-91.5 26q-32 0 -59.5 -5.5t-47.5 -13.5v-463h-84v512q39 17 86 27.5t100 10.5q63 0 106 -18t65 -44q25 23 70.5 42.5t105.5 19.5q42 0 76 -12t58 -34.5t37 -54.5t13 -71v-378
h-83z" />
    <glyph glyph-name="n" unicode="n" horiz-adv-x="559" 
d="M403 0v364q0 54 -32.5 86t-98.5 32q-35 0 -65 -5.5t-50 -13.5v-463h-84v512q39 17 88.5 27.5t109.5 10.5q107 0 161 -47t54 -132v-371h-83z" />
    <glyph glyph-name="o" unicode="o" horiz-adv-x="564" 
d="M511 270q0 -60 -15 -111.5t-44 -89t-71.5 -59t-98.5 -21.5t-98.5 21.5t-71.5 59t-44 89t-15 111.5t15 111t44 88.5t71.5 59t98.5 21.5t98.5 -21.5t71.5 -59t44 -88.5t15 -111zM428 271q0 46 -9 85t-27 67t-45.5 43.5t-64.5 15.5t-64.5 -15.5t-45.5 -43.5t-27 -67t-9 -85
q0 -47 9 -86t27 -67t45.5 -44t64.5 -16t64.5 16t45.5 44t27 67t9 86z" />
    <glyph glyph-name="p" unicode="p" horiz-adv-x="555" 
d="M503 275q0 -62 -16.5 -113.5t-48 -89t-78.5 -58t-107 -20.5q-28 0 -54.5 4.5t-41.5 9.5v-223h-84v727q13 7 32.5 14t42.5 12t48 8.5t51 3.5q61 0 109 -19.5t80.5 -55.5t49.5 -86.5t17 -113.5zM419 275q0 94 -43.5 151t-127.5 57q-27 0 -52.5 -5.5t-38.5 -12.5v-391
q12 -5 38.5 -9.5t51.5 -4.5q42 0 74.5 16t54 45t32.5 68t11 86z" />
    <glyph glyph-name="q" unicode="q" horiz-adv-x="555" 
d="M399 -215v231q-21 -10 -51.5 -17t-61.5 -7q-52 0 -95 18.5t-73.5 53t-47.5 84t-17 111.5q0 76 19 131t53.5 90.5t82 52.5t104.5 17q50 0 94.5 -11t75.5 -27v-727h-83zM399 465q-14 7 -38.5 12.5t-52.5 5.5q-36 0 -67.5 -12.5t-54.5 -38.5t-36.5 -67.5t-13.5 -99.5
q0 -97 44.5 -151.5t117.5 -54.5q27 0 54.5 5.5t46.5 15.5v385z" />
    <glyph glyph-name="r" unicode="r" horiz-adv-x="353" 
d="M307 476q-11 2 -23 3t-25 1q-28 0 -55.5 -4.5t-46.5 -12.5v-463h-84v512q37 17 89 27.5t108 10.5q15 0 28.5 -1t24.5 -3z" />
    <glyph glyph-name="s" unicode="s" horiz-adv-x="453" 
d="M403 144q0 -70 -52.5 -112.5t-148.5 -42.5q-42 0 -83 9.5t-77 28.5l30 64q27 -15 62 -24.5t67 -9.5q52 0 83.5 23.5t31.5 63.5q0 21 -8 36.5t-22.5 27t-34.5 20.5t-44 18q-29 10 -56 23t-48 31t-34 43.5t-13 61.5q0 63 46.5 104t132.5 41q42 0 80.5 -10t69.5 -28l-29 -59
q-23 14 -52 23t-61 9q-49 0 -75.5 -23t-26.5 -57q0 -22 8.5 -37.5t23 -27t34 -19.5t40.5 -16q30 -11 58 -23.5t50 -30.5t35 -43.5t13 -63.5z" />
    <glyph glyph-name="t" unicode="t" horiz-adv-x="347" 
d="M308 3q-8 -4 -23 -6.5t-32 -2.5q-66 0 -104 36t-38 110v336h-78v63h78v130l81 27v-157h116v-63h-116v-332q0 -42 24 -59t57 -17q22 0 35 5v-70z" />
    <glyph glyph-name="u" unicode="u" horiz-adv-x="551" 
d="M478 27q-31 -16 -84 -27t-113 -11q-101 0 -154.5 45.5t-53.5 143.5v361h84v-362q0 -118 124 -118q37 0 67.5 5.5t46.5 12.5v462h83v-512z" />
    <glyph glyph-name="v" unicode="v" horiz-adv-x="550" 
d="M323 0h-96l-197 539h91l130 -383q8 -22 14 -45.5t9 -35.5h2q2 9 8 32t15 49l129 383h92z" />
    <glyph glyph-name="w" unicode="w" horiz-adv-x="827" 
d="M626 0h-85l-110 376q-5 18 -9.5 40.5t-6.5 33.5h-2q-3 -14 -6 -31t-11 -43l-110 -376h-85l-164 539h84l106 -381q8 -27 11.5 -48t5.5 -34h2q2 13 6.5 35.5t11.5 46.5l110 381h80l109 -381q8 -27 12.5 -49t6.5 -33h2q2 12 6.5 37t9.5 45l107 381h83z" />
    <glyph glyph-name="x" unicode="x" horiz-adv-x="518" 
d="M400 0l-140 222h-2l-140 -222h-95l185 280l-171 259h94l127 -203h2l127 203h94l-171 -259l185 -280h-95z" />
    <glyph glyph-name="y" unicode="y" horiz-adv-x="550" 
d="M238 -215h-87l81 215l-202 539h91l134 -392q6 -17 11 -38.5t8 -38.5h2q2 8 6.5 31t12.5 46l133 392h92z" />
    <glyph glyph-name="z" unicode="z" horiz-adv-x="463" 
d="M32 0l260 471h-244v68h364l-259 -471h267v-68h-388z" />
    <glyph glyph-name="braceleft" unicode="{" horiz-adv-x="366" 
d="M271 -195q-79 0 -121 43t-42 121q0 32 3 53.5t6 40.5t6 39.5t3 50.5q0 48 -23 76t-61 31v70q38 3 61 31t23 76q0 30 -3 50.5t-6 39.5t-6 40.5t-3 53.5q0 78 42 121t121 43h33v-67h-23q-43 0 -67.5 -24.5t-24.5 -72.5q0 -32 3 -53.5t6.5 -40.5t6.5 -39.5t3 -50.5
q0 -57 -24 -92t-65 -49v-2q41 -14 65 -49t24 -92q0 -30 -3 -50.5t-6.5 -39.5t-6.5 -40.5t-3 -53.5q0 -48 24.5 -72.5t67.5 -24.5h23v-67h-33z" />
    <glyph glyph-name="bar" unicode="|" horiz-adv-x="240" 
d="M78 -215v1000h84v-1000h-84z" />
    <glyph glyph-name="braceright" unicode="}" horiz-adv-x="366" 
d="M324 260q-38 -3 -61.5 -31t-23.5 -76q0 -30 3 -50.5t6 -39.5t6 -40.5t3 -53.5q0 -78 -42 -121t-121 -43h-32v67h23q43 0 67 24.5t24 72.5q0 32 -3 53.5t-6 40.5t-6 39.5t-3 50.5q0 57 23.5 92t64.5 49v2q-41 14 -64.5 49t-23.5 92q0 30 3 50.5t6 39.5t6 40.5t3 53.5
q0 48 -24 72.5t-67 24.5h-23v67h32q79 0 121 -43t42 -121q0 -32 -3 -53.5t-6 -40.5t-6 -39.5t-3 -50.5q0 -48 23.5 -76t61.5 -31v-70z" />
    <glyph glyph-name="asciitilde" unicode="~" horiz-adv-x="583" 
d="M504 394q-12 -43 -43.5 -70.5t-77.5 -27.5q-27 0 -49 9.5t-42 21t-40 21t-42 9.5q-30 0 -51.5 -17.5t-32.5 -44.5l-46 34q12 43 43.5 70.5t77.5 27.5q27 0 49 -9.5t42 -21t39.5 -21t42.5 -9.5q30 0 51 17.5t32 44.5z" />
    <glyph glyph-name="uni00A0" unicode="&#xa0;" horiz-adv-x="271" 
 />
    <glyph glyph-name="exclamdown" unicode="&#xa1;" horiz-adv-x="275" 
d="M195 458q0 -24 -16.5 -41t-40.5 -17t-41 17t-17 41t17 41t41 17t40.5 -17t16.5 -41zM89 -215l12 491h73l12 -491h-97z" />
    <glyph glyph-name="cent" unicode="&#xa2;" horiz-adv-x="479" 
d="M430 167q-23 -14 -52 -23.5t-62 -11.5l9 -132h-70l9 134q-38 5 -74 22.5t-63.5 49.5t-44 79t-16.5 110t16.5 109.5t44 78t63 49t73.5 22.5l-8 131h70l-9 -129q33 -2 62 -11t52 -23l-28 -59q-18 12 -43.5 19.5t-52.5 7.5q-29 0 -56.5 -10.5t-49.5 -34t-35 -60.5t-13 -90
t13.5 -90t35 -60.5t49 -34t56.5 -10.5q27 0 52.5 7t43.5 19z" />
    <glyph glyph-name="sterling" unicode="&#xa3;" horiz-adv-x="643" 
d="M68 0q27 27 53 58t46.5 65.5t33.5 72.5t13 78q0 26 -3.5 45t-8.5 36h-111v64h94q-8 23 -14 49t-6 64q0 47 16.5 84.5t47.5 64t74.5 40.5t96.5 14q51 0 92 -11t69 -27l-29 -67q-20 11 -53.5 20.5t-70.5 9.5q-73 0 -116 -35.5t-43 -96.5q0 -36 6 -61t14 -48h202v-64h-187
q5 -17 7.5 -36t2.5 -45q0 -31 -8 -60t-20.5 -55t-28 -47.5t-29.5 -37.5h356v-74h-496z" />
    <glyph glyph-name="currency" unicode="&#xa4;" horiz-adv-x="683" 
d="M562 30l-99 106q-50 -42 -121 -42q-72 0 -122 42l-98 -106l-56 48l103 112q-17 28 -26.5 62t-9.5 71t9.5 70.5t26.5 61.5l-103 113l56 48l98 -106q50 42 122 42q71 0 121 -42l99 106l56 -48l-103 -113q35 -56 35 -132q0 -37 -9 -71t-26 -62l103 -112zM476 323q0 35 -9 65
t-26 51.5t-42 34t-57 12.5t-57 -12.5t-42 -34t-26 -51.5t-9 -65t9 -65t26 -51.5t42 -34t57 -12.5t57 12.5t42 34t26 51.5t9 65z" />
    <glyph glyph-name="yen" unicode="&#xa5;" horiz-adv-x="685" 
d="M478 469h125v-49h-151l-68 -121h219v-50h-219v-249h-84v249h-219v50h219l-67 121h-152v49h126l-139 255h94l179 -342h2l179 342h94z" />
    <glyph glyph-name="brokenbar" unicode="&#xa6;" horiz-adv-x="240" 
d="M78 385v400h84v-400h-84zM78 -215v400h84v-400h-84z" />
    <glyph glyph-name="section" unicode="&#xa7;" horiz-adv-x="588" 
d="M523 227q0 -28 -10.5 -53t-27 -46.5t-37.5 -38.5t-41 -29q26 -25 42.5 -55t16.5 -72q0 -35 -13.5 -64t-38.5 -50t-60.5 -33t-79.5 -12q-21 0 -44 3t-45 8t-41 12t-32 15l28 66q9 -6 24 -11.5t32.5 -10.5t36 -8t33.5 -3q54 0 85.5 24t31.5 68q0 36 -23.5 62t-59 48.5
t-76.5 44.5t-76.5 49.5t-59 64.5t-23.5 89q0 31 10 56.5t26 46.5t37 37.5t42 30.5q-20 21 -33 47t-13 61q0 37 14 66.5t38.5 50.5t59 32.5t75.5 11.5q45 0 84.5 -10.5t66.5 -27.5l-27 -62q-20 13 -51 22t-64 9q-50 0 -82 -23.5t-32 -69.5q0 -35 22.5 -60t57 -46.5t74 -42.5
t74 -47.5t57 -62.5t22.5 -87zM445 222q0 39 -21 67t-52.5 50.5t-69.5 42.5t-72 43q-17 -10 -32.5 -22t-28.5 -27.5t-20.5 -34t-7.5 -41.5q0 -37 20 -64.5t51 -50t69 -42.5t73 -43q17 10 33.5 23t29 28.5t20.5 33t8 37.5z" />
    <glyph glyph-name="dieresis" unicode="&#xa8;" horiz-adv-x="310" 
d="M296 669q0 -19 -14 -32.5t-34 -13.5t-34 13.5t-14 32.5t14 32.5t34 13.5t34 -13.5t14 -32.5zM110 669q0 -19 -14 -32.5t-34 -13.5t-34 13.5t-14 32.5t14 32.5t34 13.5t34 -13.5t14 -32.5z" />
    <glyph glyph-name="copyright" unicode="&#xa9;" horiz-adv-x="872" 
d="M811 362q0 -78 -29 -146t-79 -118.5t-119 -79.5t-148 -29q-80 0 -148.5 29t-118.5 79.5t-79 118.5t-29 146t29 146t79 118.5t118.5 79.5t148.5 29q79 0 148 -29t119 -79.5t79 -118.5t29 -146zM751 362q0 66 -24 124.5t-66.5 101.5t-100 68t-124.5 25t-124.5 -25t-100 -68
t-66.5 -101.5t-24 -124.5t24 -124.5t66.5 -101.5t100 -68t124.5 -25t124.5 25t100 68t66.5 101.5t24 124.5zM552 180q-18 -12 -46 -20.5t-60 -8.5q-38 0 -72.5 13t-60 40t-40.5 67t-15 94t15 94t40.5 66t60 39t72.5 13q32 0 60 -8t46 -20l-23 -45q-14 9 -34.5 16t-44.5 7
q-25 0 -48.5 -9t-41.5 -28.5t-28.5 -50.5t-10.5 -74q0 -44 10.5 -74.5t28.5 -50t41.5 -28.5t48.5 -9q24 0 44.5 6.5t34.5 15.5z" />
    <glyph glyph-name="ordfeminine" unicode="&#xaa;" horiz-adv-x="438" 
d="M365 351q-22 -11 -63 -19t-83 -8q-88 0 -131.5 32t-43.5 89q0 41 21.5 66.5t57 40t81 20.5t94.5 9v29q0 41 -28 57t-69 16q-29 0 -60.5 -8t-52.5 -17l-18 47q25 11 62.5 19.5t75.5 8.5q73 0 115 -30.5t42 -101.5v-250zM298 535q-38 -2 -72.5 -5.5t-60 -13t-40.5 -26
t-15 -43.5q0 -34 28 -54t79 -20q22 0 46 4t35 9v149z" />
    <glyph glyph-name="guillemotleft" unicode="&#xab;" horiz-adv-x="587" 
d="M464 63l-184 242l184 242l51 -40l-154 -202l154 -202zM244 63l-183 242l183 242l52 -40l-154 -202l154 -202z" />
    <glyph glyph-name="logicalnot" unicode="&#xac;" horiz-adv-x="565" 
d="M421 91v200h-350v68h423v-268h-73z" />
    <glyph glyph-name="uni00AD" unicode="&#xad;" horiz-adv-x="411" 
d="M70 288v74h271v-74h-271z" />
    <glyph glyph-name="registered" unicode="&#xae;" horiz-adv-x="674" 
d="M617 459q0 -58 -21.5 -109t-59 -88.5t-89 -59t-110.5 -21.5t-110.5 21.5t-89 59t-59 88.5t-21.5 109t21.5 109t59 88.5t89 59t110.5 21.5t110.5 -21.5t89 -59t59 -88.5t21.5 -109zM568 459q0 49 -17.5 91.5t-48.5 74t-73.5 49.5t-91.5 18t-91.5 -18t-73.5 -49.5
t-48.5 -74t-17.5 -91.5t17.5 -91.5t48.5 -74t73.5 -49.5t91.5 -18t91.5 18t73.5 49.5t48.5 74t17.5 91.5zM415 307l-52 104q-8 15 -18.5 21.5t-29.5 6.5h-30v-132h-48v298q19 8 44 13t48 5q58 0 89.5 -24t31.5 -66q0 -33 -20.5 -52t-49.5 -27v-2q19 -11 30 -32l58 -113h-53z
M402 532q0 52 -72 52q-27 0 -45 -5v-103h38q39 0 59 13t20 43z" />
    <glyph glyph-name="macron" unicode="&#xaf;" 
d="M30 632v57h249v-57h-249z" />
    <glyph glyph-name="degree" unicode="&#xb0;" horiz-adv-x="463" 
d="M407 562q0 -36 -13.5 -67t-37 -54t-55.5 -36.5t-69 -13.5t-69 13.5t-55.5 36.5t-37 54t-13.5 67t13.5 67t37 54.5t55.5 37t69 13.5t69 -13.5t55.5 -37t37 -54.5t13.5 -67zM343 562q0 23 -9 43.5t-24 35.5t-35 24t-43 9t-43 -9t-35 -24t-24 -35.5t-9 -43.5t9 -43t24 -35
t35 -24t43 -9t43 9t35 24t24 35t9 43z" />
    <glyph glyph-name="plusminus" unicode="&#xb1;" horiz-adv-x="565" 
d="M319 334v-172h-72v172h-176v64h176v172h72v-172h175v-64h-175zM71 0v64h423v-64h-423z" />
    <glyph glyph-name="twosuperior" unicode="&#xb2;" horiz-adv-x="368" 
d="M15 500l188 214q18 21 32 42t14 47q0 35 -23 57t-69 22q-23 0 -50 -6t-49 -15l-18 47q27 11 59 17.5t61 6.5q74 0 112.5 -34.5t38.5 -91.5q0 -37 -19.5 -68t-41.5 -54l-125 -133h195v-51h-305z" />
    <glyph glyph-name="threesuperior" unicode="&#xb3;" horiz-adv-x="368" 
d="M317 620q0 -59 -44 -93.5t-119 -34.5q-32 0 -64 6t-59 18l20 47q20 -9 47.5 -14.5t55.5 -5.5q49 0 76 19.5t27 57.5t-35.5 59.5t-95.5 21.5h-15v44q62 4 95.5 25t33.5 52q0 60 -83 60q-23 0 -48.5 -5.5t-47.5 -15.5l-21 47q27 11 58.5 17.5t63.5 6.5q66 0 102 -28t36 -79
q0 -34 -24 -57.5t-54 -35.5v-2q17 -5 34 -14t30.5 -22.5t22 -31.5t8.5 -42z" />
    <glyph glyph-name="acute" unicode="&#xb4;" 
d="M163 603h-62l74 130q11 11 24.5 17t26.5 6q14 0 24 -6t13 -17z" />
    <glyph glyph-name="mu" unicode="&#xb5;" horiz-adv-x="551" 
d="M478 43q-35 -26 -81.5 -40t-97.5 -14q-39 0 -77 9t-66 24v-237h-83v754h83v-449q23 -16 58 -24.5t68 -8.5q32 0 62.5 9t50.5 23v450h83v-496z" />
    <glyph glyph-name="paragraph" unicode="&#xb6;" horiz-adv-x="587" 
d="M441 -215v867q-25 11 -60.5 15.5t-64.5 4.5q-9 0 -15 -0.5t-7 -0.5v-886h-65v539q-75 14 -122 64.5t-47 135.5q0 52 17 91.5t48.5 66t76 40t99.5 13.5q66 0 116.5 -10.5t88.5 -27.5v-912h-65z" />
    <glyph glyph-name="periodcentered" unicode="&#xb7;" horiz-adv-x="252" 
d="M184 325q0 -24 -17 -41t-41 -17t-41 17t-17 41t17 41t41 17t41 -17t17 -41z" />
    <glyph glyph-name="cedilla" unicode="&#xb8;" 
d="M270 -125q0 -40 -42 -60t-119 -20q-17 0 -36.5 1t-39.5 3l22 41q27 -3 52 -3q43 0 70 9t27 29q0 17 -15.5 23.5t-46.5 6.5q-24 0 -54 -3l20 39q28 3 51 3q62 0 86.5 -20t24.5 -49z" />
    <glyph glyph-name="onesuperior" unicode="&#xb9;" horiz-adv-x="368" 
d="M200 500v352q-21 -13 -57 -24.5t-68 -17.5l-11 48q20 3 41.5 9.5t41.5 14.5t37.5 19t29.5 23h46v-424h-60z" />
    <glyph glyph-name="ordmasculine" unicode="&#xba;" horiz-adv-x="464" 
d="M411 529q0 -44 -11.5 -81.5t-34.5 -65t-56.5 -43t-76.5 -15.5q-44 0 -77 15.5t-56 43t-34.5 65t-11.5 81.5t11.5 81.5t34.5 64.5t56 42.5t77 15.5q43 0 76.5 -15.5t56.5 -42.5t34.5 -64.5t11.5 -81.5zM342 529q0 66 -27.5 107.5t-82.5 41.5t-82.5 -41.5t-27.5 -107.5
t27.5 -107.5t82.5 -41.5t82.5 41.5t27.5 107.5z" />
    <glyph glyph-name="guillemotright" unicode="&#xbb;" horiz-adv-x="587" 
d="M343 63l-52 40l154 202l-154 202l52 40l183 -242zM124 63l-52 40l154 202l-154 202l52 40l183 -242z" />
    <glyph glyph-name="onequarter" unicode="&#xbc;" horiz-adv-x="837" 
d="M736 109v-109h-55v109h-200v44l191 271h64v-271h49v-44h-49zM245 -13l-48 27l383 723l48 -27zM159 300v352q-21 -13 -57 -24.5t-68 -17.5l-11 48q20 3 41.5 9.5t41.5 14.5t37.5 19t29.5 23h46v-424h-60zM683 371l-9 -17q-5 -11 -15 -25l-123 -176h147v169q0 15 0.5 28
t1.5 21h-2z" />
    <glyph glyph-name="onehalf" unicode="&#xbd;" horiz-adv-x="837" 
d="M485 0l189 214q18 21 32 42t14 47q0 35 -23.5 57t-69.5 22q-23 0 -50 -6t-49 -15l-18 47q27 11 59 17.5t61 6.5q74 0 112.5 -34.5t38.5 -91.5q0 -37 -19.5 -68t-41.5 -54l-125 -133h196v-51h-306zM220 -13l-48 27l383 723l48 -27zM159 300v352q-21 -13 -57 -24.5
t-68 -17.5l-11 48q20 3 41.5 9.5t41.5 14.5t37.5 19t29.5 23h46v-424h-60z" />
    <glyph glyph-name="threequarters" unicode="&#xbe;" horiz-adv-x="837" 
d="M736 109v-109h-55v109h-200v44l191 271h64v-271h49v-44h-49zM315 420q0 -59 -44 -93.5t-119 -34.5q-32 0 -64 6t-59 18l20 47q20 -9 47.5 -14.5t55.5 -5.5q49 0 76 19.5t27 57.5t-35.5 59.5t-95.5 21.5h-15v44q62 4 95.5 25t33.5 52q0 60 -83 60q-23 0 -48.5 -5.5
t-47.5 -15.5l-21 47q27 11 58.5 17.5t63.5 6.5q66 0 102 -28t36 -79q0 -34 -24 -57.5t-54 -35.5v-2q17 -5 34 -14t30.5 -22.5t22 -31.5t8.5 -42zM272 -13l-48 27l384 723l47 -27zM683 371l-9 -17q-5 -11 -15 -25l-123 -176h147v169q0 15 0.5 28t1.5 21h-2z" />
    <glyph glyph-name="questiondown" unicode="&#xbf;" horiz-adv-x="478" 
d="M316 458q0 -24 -16.5 -41t-40.5 -17t-41 17t-17 41t17 41t41 17t40.5 -17t16.5 -41zM446 -188q-32 -17 -80 -27.5t-97 -10.5q-107 0 -164 48.5t-57 133.5q0 37 16.5 68t41.5 55t55 41t58 26l5 130h70l7 -174q-31 -8 -60.5 -21t-52.5 -31t-37 -40.5t-14 -50.5
q0 -54 34.5 -84t106.5 -30q38 0 76 9.5t64 22.5z" />
    <glyph glyph-name="Agrave" unicode="&#xc0;" horiz-adv-x="656" 
d="M546 0l-72 211h-291l-72 -211h-91l259 724h99l258 -724h-90zM351 570q-8 25 -13.5 46.5t-8.5 36.5h-2q-3 -15 -8.5 -36.5t-13.5 -46.5l-100 -293h247zM305 788l-100 130q3 11 13 17t24 6q13 0 26.5 -6t24.5 -17l74 -130h-62z" />
    <glyph glyph-name="Aacute" unicode="&#xc1;" horiz-adv-x="656" 
d="M546 0l-72 211h-291l-72 -211h-91l259 724h99l258 -724h-90zM351 570q-8 25 -13.5 46.5t-8.5 36.5h-2q-3 -15 -8.5 -36.5t-13.5 -46.5l-100 -293h247zM353 788h-62l74 130q11 11 24.5 17t26.5 6q14 0 24 -6t13 -17z" />
    <glyph glyph-name="Acircumflex" unicode="&#xc2;" horiz-adv-x="656" 
d="M546 0l-72 211h-291l-72 -211h-91l259 724h99l258 -724h-90zM351 570q-8 25 -13.5 46.5t-8.5 36.5h-2q-3 -15 -8.5 -36.5t-13.5 -46.5l-100 -293h247zM427 783l-99 88l-100 -88l-36 31l100 101q17 17 36 17q18 0 35 -17l100 -101z" />
    <glyph glyph-name="Atilde" unicode="&#xc3;" horiz-adv-x="656" 
d="M546 0l-72 211h-291l-72 -211h-91l259 724h99l258 -724h-90zM351 570q-8 25 -13.5 46.5t-8.5 36.5h-2q-3 -15 -8.5 -36.5t-13.5 -46.5l-100 -293h247zM465 884q-5 -35 -25 -60t-55 -25q-20 0 -33.5 8t-24.5 17t-22 17t-24 8q-19 0 -30.5 -15t-15.5 -37l-43 26
q5 35 25 59.5t55 24.5q19 0 33 -7.5t25 -17t21.5 -17t24.5 -7.5q19 0 30.5 15t15.5 37z" />
    <glyph glyph-name="Adieresis" unicode="&#xc4;" horiz-adv-x="656" 
d="M546 0l-72 211h-291l-72 -211h-91l259 724h99l258 -724h-90zM351 570q-8 25 -13.5 46.5t-8.5 36.5h-2q-3 -15 -8.5 -36.5t-13.5 -46.5l-100 -293h247zM285 854q0 -19 -14 -32.5t-34 -13.5t-34 13.5t-14 32.5t14 32.5t34 13.5t34 -13.5t14 -32.5zM468 854q0 -19 -14 -32.5
t-34 -13.5t-34 13.5t-14 32.5t14 32.5t34 13.5t34 -13.5t14 -32.5z" />
    <glyph glyph-name="Aring" unicode="&#xc5;" horiz-adv-x="656" 
d="M546 0l-72 211h-291l-72 -211h-91l259 724h99l258 -724h-90zM351 570q-8 25 -13.5 46.5t-8.5 36.5h-2q-3 -15 -8.5 -36.5t-13.5 -46.5l-100 -293h247zM422 871q0 -19 -7 -35.5t-20 -28.5t-30 -19t-36 -7q-20 0 -37 7t-29.5 19t-20 28.5t-7.5 35.5q0 38 27.5 63.5
t66.5 25.5t66 -25.5t27 -63.5zM380 871q0 21 -15 35.5t-36 14.5t-36.5 -14.5t-15.5 -35.5t15.5 -36t36.5 -15t36 15t15 36z" />
    <glyph glyph-name="AE" unicode="&#xc6;" horiz-adv-x="899" 
d="M524 0l-43 211h-290l-101 -211h-93l356 724h432v-74h-318l55 -242h253v-72h-237l59 -262h262v-74h-335zM408 570q-5 26 -8 50t-4 33h-2q-3 -11 -11.5 -34.5t-20.5 -48.5l-140 -293h246z" />
    <glyph glyph-name="Ccedilla" unicode="&#xc7;" horiz-adv-x="540" 
d="M495 27q-67 -38 -155 -38q-58 0 -109.5 22.5t-90 68.5t-61 116.5t-22.5 165.5t22.5 165.5t61 116.5t90 68.5t109.5 22.5q88 0 155 -38l-29 -69q-24 14 -53.5 22.5t-64.5 8.5q-42 0 -78.5 -17.5t-64 -54t-43.5 -92.5t-16 -132t16 -132t43.5 -92.5t64 -54.5t78.5 -18
q35 0 64.5 8.5t53.5 22.5zM398 -125q0 -40 -42 -60t-119 -20q-17 0 -36.5 1t-39.5 3l22 41q27 -3 52 -3q43 0 70 9t27 29q0 17 -15.5 23.5t-46.5 6.5q-24 0 -54 -3l20 39q28 3 51 3q62 0 86.5 -20t24.5 -49z" />
    <glyph glyph-name="Egrave" unicode="&#xc8;" horiz-adv-x="504" 
d="M79 0v724h375v-74h-290v-242h267v-72h-267v-262h290v-74h-375zM249 788l-100 130q3 11 13 17t24 6q13 0 26.5 -6t24.5 -17l74 -130h-62z" />
    <glyph glyph-name="Eacute" unicode="&#xc9;" horiz-adv-x="504" 
d="M79 0v724h375v-74h-290v-242h267v-72h-267v-262h290v-74h-375zM280 788h-62l74 130q11 11 24.5 17t26.5 6q14 0 24 -6t13 -17z" />
    <glyph glyph-name="Ecircumflex" unicode="&#xca;" horiz-adv-x="504" 
d="M79 0v724h375v-74h-290v-242h267v-72h-267v-262h290v-74h-375zM363 783l-99 88l-100 -88l-36 31l100 101q17 17 36 17q18 0 35 -17l100 -101z" />
    <glyph glyph-name="Edieresis" unicode="&#xcb;" horiz-adv-x="504" 
d="M79 0v724h375v-74h-290v-242h267v-72h-267v-262h290v-74h-375zM222 854q0 -19 -14 -32.5t-34 -13.5t-34 13.5t-14 32.5t14 32.5t34 13.5t34 -13.5t14 -32.5zM405 854q0 -19 -14 -32.5t-34 -13.5t-34 13.5t-14 32.5t14 32.5t34 13.5t34 -13.5t14 -32.5z" />
    <glyph glyph-name="Igrave" unicode="&#xcc;" horiz-adv-x="248" 
d="M82 0v724h86v-724h-86zM110 788l-100 130q3 11 13 17t24 6q13 0 26.5 -6t24.5 -17l74 -130h-62z" />
    <glyph glyph-name="Iacute" unicode="&#xcd;" horiz-adv-x="248" 
d="M81 0v724h86v-724h-86zM140 788h-62l74 130q11 11 24.5 17t26.5 6q14 0 24 -6t13 -17z" />
    <glyph glyph-name="Icircumflex" unicode="&#xce;" horiz-adv-x="248" 
d="M81 0v724h86v-724h-86zM224 783l-99 88l-100 -88l-36 31l100 101q17 17 36 17q18 0 35 -17l100 -101z" />
    <glyph glyph-name="Idieresis" unicode="&#xcf;" horiz-adv-x="248" 
d="M81 0v724h86v-724h-86zM81 854q0 -19 -14 -32.5t-34 -13.5t-34 13.5t-14 32.5t14 32.5t34 13.5t34 -13.5t14 -32.5zM265 854q0 -19 -14 -32.5t-34 -13.5t-34 13.5t-14 32.5t14 32.5t34 13.5t34 -13.5t14 -32.5z" />
    <glyph glyph-name="Eth" unicode="&#xd0;" horiz-adv-x="646" 
d="M590 362q0 -93 -23.5 -163t-65 -116.5t-99 -70t-125.5 -23.5q-58 0 -108.5 11t-79.5 27v311h-61v65h61v294q33 17 82 27.5t106 10.5q68 0 125.5 -23.5t99 -70t65 -116.5t23.5 -163zM504 362q0 78 -17.5 134.5t-47.5 93t-71 54t-87 17.5q-32 0 -60.5 -4.5t-45.5 -12.5
v-241h127v-65h-127v-259q14 -8 42.5 -12t63.5 -4q46 0 87 17.5t71 54t47.5 93t17.5 134.5z" />
    <glyph glyph-name="Ntilde" unicode="&#xd1;" horiz-adv-x="688" 
d="M528 0l-331 531q-15 24 -26.5 47.5t-15.5 31.5h-2q1 -11 1.5 -37t0.5 -51v-522h-76v724h85l326 -521q17 -26 27.5 -48.5t14.5 -30.5h2q0 7 -0.5 33t-0.5 58v509h76v-724h-81zM480 884q-5 -35 -25 -60t-55 -25q-20 0 -33.5 8t-24.5 17t-22 17t-24 8q-19 0 -30.5 -15
t-15.5 -37l-43 26q5 35 25 59.5t55 24.5q19 0 33 -7.5t25 -17t21.5 -17t24.5 -7.5q19 0 30.5 15t15.5 37z" />
    <glyph glyph-name="Ograve" unicode="&#xd2;" horiz-adv-x="668" 
d="M611 362q0 -77 -17.5 -145t-52 -118.5t-86.5 -80t-121 -29.5t-121 29.5t-86.5 80t-52 118.5t-17.5 145t17.5 145t52 118.5t86.5 80t121 29.5t121 -29.5t86.5 -80t52 -118.5t17.5 -145zM525 362q0 63 -12 117t-36 93.5t-60 62.5t-83 23t-83 -23t-60 -62.5t-36 -93.5
t-12 -117t12 -117t36 -93.5t60 -62.5t83 -23t83 23t60 62.5t36 93.5t12 117zM318 788l-100 130q3 11 13 17t24 6q13 0 26.5 -6t24.5 -17l74 -130h-62z" />
    <glyph glyph-name="Oacute" unicode="&#xd3;" horiz-adv-x="668" 
d="M611 362q0 -77 -17.5 -145t-52 -118.5t-86.5 -80t-121 -29.5t-121 29.5t-86.5 80t-52 118.5t-17.5 145t17.5 145t52 118.5t86.5 80t121 29.5t121 -29.5t86.5 -80t52 -118.5t17.5 -145zM525 362q0 63 -12 117t-36 93.5t-60 62.5t-83 23t-83 -23t-60 -62.5t-36 -93.5
t-12 -117t12 -117t36 -93.5t60 -62.5t83 -23t83 23t60 62.5t36 93.5t12 117zM347 788h-62l74 130q11 11 24.5 17t26.5 6q14 0 24 -6t13 -17z" />
    <glyph glyph-name="Ocircumflex" unicode="&#xd4;" horiz-adv-x="668" 
d="M611 362q0 -77 -17.5 -145t-52 -118.5t-86.5 -80t-121 -29.5t-121 29.5t-86.5 80t-52 118.5t-17.5 145t17.5 145t52 118.5t86.5 80t121 29.5t121 -29.5t86.5 -80t52 -118.5t17.5 -145zM525 362q0 63 -12 117t-36 93.5t-60 62.5t-83 23t-83 -23t-60 -62.5t-36 -93.5
t-12 -117t12 -117t36 -93.5t60 -62.5t83 -23t83 23t60 62.5t36 93.5t12 117zM432 783l-99 88l-100 -88l-36 31l100 101q17 17 36 17q18 0 35 -17l100 -101z" />
    <glyph glyph-name="Otilde" unicode="&#xd5;" horiz-adv-x="668" 
d="M611 362q0 -77 -17.5 -145t-52 -118.5t-86.5 -80t-121 -29.5t-121 29.5t-86.5 80t-52 118.5t-17.5 145t17.5 145t52 118.5t86.5 80t121 29.5t121 -29.5t86.5 -80t52 -118.5t17.5 -145zM525 362q0 63 -12 117t-36 93.5t-60 62.5t-83 23t-83 -23t-60 -62.5t-36 -93.5
t-12 -117t12 -117t36 -93.5t60 -62.5t83 -23t83 23t60 62.5t36 93.5t12 117zM465 884q-5 -35 -25 -60t-55 -25q-20 0 -33.5 8t-24.5 17t-22 17t-24 8q-19 0 -30.5 -15t-15.5 -37l-43 26q5 35 25 59.5t55 24.5q19 0 33 -7.5t25 -17t21.5 -17t24.5 -7.5q19 0 30.5 15t15.5 37z
" />
    <glyph glyph-name="Odieresis" unicode="&#xd6;" horiz-adv-x="668" 
d="M611 362q0 -77 -17.5 -145t-52 -118.5t-86.5 -80t-121 -29.5t-121 29.5t-86.5 80t-52 118.5t-17.5 145t17.5 145t52 118.5t86.5 80t121 29.5t121 -29.5t86.5 -80t52 -118.5t17.5 -145zM525 362q0 63 -12 117t-36 93.5t-60 62.5t-83 23t-83 -23t-60 -62.5t-36 -93.5
t-12 -117t12 -117t36 -93.5t60 -62.5t83 -23t83 23t60 62.5t36 93.5t12 117zM289 854q0 -19 -14 -32.5t-34 -13.5t-34 13.5t-14 32.5t14 32.5t34 13.5t34 -13.5t14 -32.5zM473 854q0 -19 -14 -32.5t-34 -13.5t-34 13.5t-14 32.5t14 32.5t34 13.5t34 -13.5t14 -32.5z" />
    <glyph glyph-name="multiply" unicode="&#xd7;" horiz-adv-x="565" 
d="M456 103l-173 173l-173 -173l-49 50l172 172l-172 172l49 50l173 -173l173 173l49 -50l-173 -172l173 -172z" />
    <glyph glyph-name="Oslash" unicode="&#xd8;" horiz-adv-x="668" 
d="M611 362q0 -77 -17.5 -145t-52 -118.5t-86.5 -80t-121 -29.5q-51 0 -92.5 16.5t-73.5 46.5l-66 -102l-44 29l74 114q-37 51 -56 120.5t-19 148.5q0 77 17.5 145t52 118.5t86.5 80t121 29.5q52 0 94.5 -17.5t75.5 -49.5l63 98l43 -29l-71 -110q36 -51 54 -119t18 -146z
M462 604q-24 29 -56 44.5t-72 15.5q-49 0 -86 -23.5t-61.5 -64t-37 -95.5t-12.5 -119q0 -118 41 -198zM531 362q0 56 -9.5 105t-28.5 88l-284 -439q48 -56 125 -56q49 0 85.5 23.5t61.5 64t37.5 95.5t12.5 119z" />
    <glyph glyph-name="Ugrave" unicode="&#xd9;" horiz-adv-x="628" 
d="M549 207q0 -51 -18 -91.5t-50 -68t-75 -42.5t-92 -15q-50 0 -92.5 15t-74.5 42.5t-50 68t-18 91.5v517h87v-517q0 -33 11.5 -59.5t31.5 -45t47 -28t58 -9.5t58 9.5t47 28t31.5 45t11.5 59.5v517h87v-517zM303 788l-100 130q3 11 13 17t24 6q13 0 26.5 -6t24.5 -17
l74 -130h-62z" />
    <glyph glyph-name="Uacute" unicode="&#xda;" horiz-adv-x="628" 
d="M549 207q0 -51 -18 -91.5t-50 -68t-75 -42.5t-92 -15q-50 0 -92.5 15t-74.5 42.5t-50 68t-18 91.5v517h87v-517q0 -33 11.5 -59.5t31.5 -45t47 -28t58 -9.5t58 9.5t47 28t31.5 45t11.5 59.5v517h87v-517zM327 788h-62l74 130q11 11 24.5 17t26.5 6q14 0 24 -6t13 -17z
" />
    <glyph glyph-name="Ucircumflex" unicode="&#xdb;" horiz-adv-x="628" 
d="M549 207q0 -51 -18 -91.5t-50 -68t-75 -42.5t-92 -15q-50 0 -92.5 15t-74.5 42.5t-50 68t-18 91.5v517h87v-517q0 -33 11.5 -59.5t31.5 -45t47 -28t58 -9.5t58 9.5t47 28t31.5 45t11.5 59.5v517h87v-517zM414 783l-99 88l-100 -88l-36 31l100 101q17 17 36 17
q18 0 35 -17l100 -101z" />
    <glyph glyph-name="Udieresis" unicode="&#xdc;" horiz-adv-x="628" 
d="M549 207q0 -51 -18 -91.5t-50 -68t-75 -42.5t-92 -15q-50 0 -92.5 15t-74.5 42.5t-50 68t-18 91.5v517h87v-517q0 -33 11.5 -59.5t31.5 -45t47 -28t58 -9.5t58 9.5t47 28t31.5 45t11.5 59.5v517h87v-517zM271 854q0 -19 -14 -32.5t-34 -13.5t-34 13.5t-14 32.5t14 32.5
t34 13.5t34 -13.5t14 -32.5zM454 854q0 -19 -14 -32.5t-34 -13.5t-34 13.5t-14 32.5t14 32.5t34 13.5t34 -13.5t14 -32.5z" />
    <glyph glyph-name="Yacute" unicode="&#xdd;" horiz-adv-x="593" 
d="M340 290v-290h-87v290l-230 434h94l179 -347h2l178 347h94zM314 788h-62l74 130q11 11 24.5 17t26.5 6q14 0 24 -6t13 -17z" />
    <glyph glyph-name="Thorn" unicode="&#xde;" horiz-adv-x="580" 
d="M527 371q0 -48 -18 -88t-53.5 -69t-87.5 -45t-119 -16q-23 0 -46 1.5t-38 4.5v-159h-86v724h86v-148q20 8 47 11.5t57 3.5q127 0 192.5 -58.5t65.5 -161.5zM442 371q0 75 -44 113.5t-128 38.5q-30 0 -57.5 -4t-47.5 -12v-280q15 -3 36.5 -4.5t44.5 -1.5q96 0 146 40.5
t50 109.5z" />
    <glyph glyph-name="germandbls" unicode="&#xdf;" horiz-adv-x="628" 
d="M581 152q0 -73 -51 -117t-140 -44q-19 0 -39.5 2.5t-40 7t-37 10.5t-29.5 13l21 66q20 -11 52 -19.5t60 -8.5q58 0 88.5 25t30.5 69q0 22 -8 39t-21.5 30.5t-30.5 24.5t-35 22q-21 12 -41 25.5t-36 31t-26 40t-10 51.5q0 48 33 86t102 51q3 19 3 37q0 28 -7.5 52.5
t-23 42.5t-40 28t-58.5 10q-37 0 -63.5 -14t-43.5 -38.5t-25 -58t-8 -72.5v-544h-84v544q0 54 13.5 100t41.5 79.5t70 52.5t98 19q54 0 93.5 -16t65.5 -43.5t38.5 -64.5t12.5 -79t-12 -87q-66 -5 -94.5 -27.5t-28.5 -59.5q0 -18 7 -31.5t18.5 -25t27 -22t33.5 -20.5
q22 -13 44 -27.5t40 -34t29 -45t11 -60.5z" />
    <glyph glyph-name="agrave" unicode="&#xe0;" horiz-adv-x="528" 
d="M455 27q-29 -16 -80.5 -27t-105.5 -11q-112 0 -167 44t-55 121q0 58 28.5 93t75 54.5t105.5 27.5t120 11v41q0 30 -9.5 50t-26.5 32.5t-40.5 17.5t-51.5 5q-19 0 -39.5 -3t-40 -7.5t-37 -10.5t-30.5 -12l-22 59q31 14 78 26t98 12q45 0 82 -9.5t63.5 -30.5t40.5 -54.5
t14 -81.5v-347zM376 282q-45 -3 -89.5 -7t-80.5 -16.5t-58 -36.5t-22 -66q0 -48 35 -76t106 -28q15 0 31.5 1.5t31.5 3.5t27 5.5t19 6.5v213zM264 603l-100 130q3 11 13 17t24 6q13 0 26.5 -6t24.5 -17l74 -130h-62z" />
    <glyph glyph-name="aacute" unicode="&#xe1;" horiz-adv-x="528" 
d="M455 27q-29 -16 -80.5 -27t-105.5 -11q-112 0 -167 44t-55 121q0 58 28.5 93t75 54.5t105.5 27.5t120 11v41q0 30 -9.5 50t-26.5 32.5t-40.5 17.5t-51.5 5q-19 0 -39.5 -3t-40 -7.5t-37 -10.5t-30.5 -12l-22 59q31 14 78 26t98 12q45 0 82 -9.5t63.5 -30.5t40.5 -54.5
t14 -81.5v-347zM376 282q-45 -3 -89.5 -7t-80.5 -16.5t-58 -36.5t-22 -66q0 -48 35 -76t106 -28q15 0 31.5 1.5t31.5 3.5t27 5.5t19 6.5v213zM283 603h-62l74 130q11 11 24.5 17t26.5 6q14 0 24 -6t13 -17z" />
    <glyph glyph-name="acircumflex" unicode="&#xe2;" horiz-adv-x="528" 
d="M455 27q-29 -16 -80.5 -27t-105.5 -11q-112 0 -167 44t-55 121q0 58 28.5 93t75 54.5t105.5 27.5t120 11v41q0 30 -9.5 50t-26.5 32.5t-40.5 17.5t-51.5 5q-19 0 -39.5 -3t-40 -7.5t-37 -10.5t-30.5 -12l-22 59q31 14 78 26t98 12q45 0 82 -9.5t63.5 -30.5t40.5 -54.5
t14 -81.5v-347zM376 282q-45 -3 -89.5 -7t-80.5 -16.5t-58 -36.5t-22 -66q0 -48 35 -76t106 -28q15 0 31.5 1.5t31.5 3.5t27 5.5t19 6.5v213zM360 598l-99 88l-100 -88l-36 31l100 101q17 17 36 17q18 0 35 -17l100 -101z" />
    <glyph glyph-name="atilde" unicode="&#xe3;" horiz-adv-x="528" 
d="M455 27q-29 -16 -80.5 -27t-105.5 -11q-112 0 -167 44t-55 121q0 58 28.5 93t75 54.5t105.5 27.5t120 11v41q0 30 -9.5 50t-26.5 32.5t-40.5 17.5t-51.5 5q-19 0 -39.5 -3t-40 -7.5t-37 -10.5t-30.5 -12l-22 59q31 14 78 26t98 12q45 0 82 -9.5t63.5 -30.5t40.5 -54.5
t14 -81.5v-347zM376 282q-45 -3 -89.5 -7t-80.5 -16.5t-58 -36.5t-22 -66q0 -48 35 -76t106 -28q15 0 31.5 1.5t31.5 3.5t27 5.5t19 6.5v213zM402 699q-5 -35 -25 -60t-55 -25q-20 0 -33.5 8t-24.5 17t-22 17t-24 8q-19 0 -30.5 -15t-15.5 -37l-43 26q5 35 25 59.5t55 24.5
q19 0 33 -7.5t25 -17t21.5 -17t24.5 -7.5q19 0 30.5 15t15.5 37z" />
    <glyph glyph-name="adieresis" unicode="&#xe4;" horiz-adv-x="528" 
d="M455 27q-29 -16 -80.5 -27t-105.5 -11q-112 0 -167 44t-55 121q0 58 28.5 93t75 54.5t105.5 27.5t120 11v41q0 30 -9.5 50t-26.5 32.5t-40.5 17.5t-51.5 5q-19 0 -39.5 -3t-40 -7.5t-37 -10.5t-30.5 -12l-22 59q31 14 78 26t98 12q45 0 82 -9.5t63.5 -30.5t40.5 -54.5
t14 -81.5v-347zM376 282q-45 -3 -89.5 -7t-80.5 -16.5t-58 -36.5t-22 -66q0 -48 35 -76t106 -28q15 0 31.5 1.5t31.5 3.5t27 5.5t19 6.5v213zM227 669q0 -19 -14 -32.5t-34 -13.5t-34 13.5t-14 32.5t14 32.5t34 13.5t34 -13.5t14 -32.5zM410 669q0 -19 -14 -32.5t-34 -13.5
t-34 13.5t-14 32.5t14 32.5t34 13.5t34 -13.5t14 -32.5z" />
    <glyph glyph-name="aring" unicode="&#xe5;" horiz-adv-x="528" 
d="M455 27q-29 -16 -80.5 -27t-105.5 -11q-112 0 -167 44t-55 121q0 58 28.5 93t75 54.5t105.5 27.5t120 11v41q0 30 -9.5 50t-26.5 32.5t-40.5 17.5t-51.5 5q-19 0 -39.5 -3t-40 -7.5t-37 -10.5t-30.5 -12l-22 59q31 14 78 26t98 12q45 0 82 -9.5t63.5 -30.5t40.5 -54.5
t14 -81.5v-347zM376 282q-45 -3 -89.5 -7t-80.5 -16.5t-58 -36.5t-22 -66q0 -48 35 -76t106 -28q15 0 31.5 1.5t31.5 3.5t27 5.5t19 6.5v213zM360 686q0 -19 -7 -35.5t-20 -28.5t-30 -19t-36 -7q-20 0 -37 7t-29.5 19t-20 28.5t-7.5 35.5q0 38 27.5 63.5t66.5 25.5t66 -25.5
t27 -63.5zM318 686q0 21 -15 35.5t-36 14.5t-36.5 -14.5t-15.5 -35.5t15.5 -36t36.5 -15t36 15t15 36z" />
    <glyph glyph-name="ae" unicode="&#xe6;" horiz-adv-x="872" 
d="M819 298q0 -7 -1 -15l-367 -53q8 -87 55.5 -130t125.5 -43q40 0 80 9t66 24l26 -63q-29 -16 -75 -27t-100 -11q-78 0 -130 31t-74 78q-7 -22 -21.5 -42t-36 -35t-50 -23.5t-62.5 -8.5q-102 0 -155 45t-53 120q0 58 28.5 93t75 54.5t105.5 27.5t120 11v41q0 30 -9.5 50
t-26.5 32.5t-40.5 17.5t-51.5 5q-19 0 -39.5 -3t-40 -7.5t-37 -10.5t-30.5 -12l-22 59q31 14 78 26t95 12q149 0 174 -104q26 50 71 77t108 27q100 0 157 -62.5t57 -173.5v-16zM376 282q-45 -3 -89.5 -7t-80.5 -16.5t-58 -36.5t-22 -66q0 -47 32 -75.5t99 -28.5
q56 0 87.5 31.5t31.5 79.5v119zM738 330q-1 80 -38.5 118t-98.5 38q-72 0 -113 -53t-43 -145z" />
    <glyph glyph-name="ccedilla" unicode="&#xe7;" horiz-adv-x="460" 
d="M418 26q-27 -19 -61.5 -28t-72.5 -9q-43 0 -84.5 16t-74 50t-52.5 87.5t-20 127.5t20 127t52.5 87t74 50t84.5 16q38 0 72.5 -9t61.5 -28l-29 -61q-40 28 -96 28q-29 0 -56.5 -11.5t-49.5 -36.5t-35 -64.5t-13 -96.5t13.5 -97t35 -65.5t49 -37t56.5 -11.5q28 0 52 7.5
t44 21.5zM350 -125q0 -40 -42 -60t-119 -20q-17 0 -36.5 1t-39.5 3l22 41q27 -3 52 -3q43 0 70 9t27 29q0 17 -15.5 23.5t-46.5 6.5q-24 0 -54 -3l20 39q28 3 51 3q62 0 86.5 -20t24.5 -49z" />
    <glyph glyph-name="egrave" unicode="&#xe8;" horiz-adv-x="556" 
d="M503 302q0 -9 -1 -19l-368 -53q7 -87 55 -130t126 -43q41 0 80.5 9t66.5 24l26 -63q-29 -17 -76 -27.5t-101 -10.5q-121 0 -189.5 74t-68.5 207q0 62 16 113.5t46.5 88.5t74 57.5t98.5 20.5q100 0 157.5 -61.5t57.5 -169.5v-17zM423 330q-1 80 -38 118t-98 38
q-72 0 -114 -53t-44 -145zM274 603l-100 130q3 11 13 17t24 6q13 0 26.5 -6t24.5 -17l74 -130h-62z" />
    <glyph glyph-name="eacute" unicode="&#xe9;" horiz-adv-x="556" 
d="M503 302q0 -9 -1 -19l-368 -53q7 -87 55 -130t126 -43q41 0 80.5 9t66.5 24l26 -63q-29 -17 -76 -27.5t-101 -10.5q-121 0 -189.5 74t-68.5 207q0 62 16 113.5t46.5 88.5t74 57.5t98.5 20.5q100 0 157.5 -61.5t57.5 -169.5v-17zM423 330q-1 80 -38 118t-98 38
q-72 0 -114 -53t-44 -145zM302 603h-62l74 130q11 11 24.5 17t26.5 6q14 0 24 -6t13 -17z" />
    <glyph glyph-name="ecircumflex" unicode="&#xea;" horiz-adv-x="556" 
d="M503 302q0 -9 -1 -19l-368 -53q7 -87 55 -130t126 -43q41 0 80.5 9t66.5 24l26 -63q-29 -17 -76 -27.5t-101 -10.5q-121 0 -189.5 74t-68.5 207q0 62 16 113.5t46.5 88.5t74 57.5t98.5 20.5q100 0 157.5 -61.5t57.5 -169.5v-17zM423 330q-1 80 -38 118t-98 38
q-72 0 -114 -53t-44 -145zM383 598l-99 88l-100 -88l-36 31l100 101q17 17 36 17q18 0 35 -17l100 -101z" />
    <glyph glyph-name="edieresis" unicode="&#xeb;" horiz-adv-x="556" 
d="M503 302q0 -9 -1 -19l-368 -53q7 -87 55 -130t126 -43q41 0 80.5 9t66.5 24l26 -63q-29 -17 -76 -27.5t-101 -10.5q-121 0 -189.5 74t-68.5 207q0 62 16 113.5t46.5 88.5t74 57.5t98.5 20.5q100 0 157.5 -61.5t57.5 -169.5v-17zM423 330q-1 80 -38 118t-98 38
q-72 0 -114 -53t-44 -145zM238 669q0 -19 -14 -32.5t-34 -13.5t-34 13.5t-14 32.5t14 32.5t34 13.5t34 -13.5t14 -32.5zM422 669q0 -19 -14 -32.5t-34 -13.5t-34 13.5t-14 32.5t14 32.5t34 13.5t34 -13.5t14 -32.5z" />
    <glyph glyph-name="igrave" unicode="&#xec;" horiz-adv-x="238" 
d="M78 0v539h83v-539h-83zM109 603l-100 130q3 11 13 17t24 6q13 0 26.5 -6t24.5 -17l74 -130h-62z" />
    <glyph glyph-name="iacute" unicode="&#xed;" horiz-adv-x="238" 
d="M78 0v539h83v-539h-83zM131 603h-62l74 130q11 11 24.5 17t26.5 6q14 0 24 -6t13 -17z" />
    <glyph glyph-name="icircumflex" unicode="&#xee;" horiz-adv-x="238" 
d="M78 0v539h83v-539h-83zM220 598l-99 88l-100 -88l-36 31l100 101q17 17 36 17q18 0 35 -17l100 -101z" />
    <glyph glyph-name="idieresis" unicode="&#xef;" horiz-adv-x="238" 
d="M78 0v539h83v-539h-83zM76 669q0 -19 -14 -32.5t-34 -13.5t-34 13.5t-14 32.5t14 32.5t34 13.5t34 -13.5t14 -32.5zM259 669q0 -19 -14 -32.5t-34 -13.5t-34 13.5t-14 32.5t14 32.5t34 13.5t34 -13.5t14 -32.5z" />
    <glyph glyph-name="eth" unicode="&#xf0;" horiz-adv-x="565" 
d="M510 270q0 -60 -14.5 -111.5t-43.5 -89t-71.5 -59t-98.5 -21.5t-98.5 21.5t-71.5 59t-44 89t-15 111.5q0 61 17 111.5t48 86.5t75 56t98 20q37 0 67 -8q-16 29 -33.5 56t-37.5 53l-106 -47l-31 44l103 46q-17 20 -36 38l-36 37l70 30q18 -17 36.5 -36t35.5 -39l93 41
l32 -43l-90 -40q32 -41 60 -87.5t48.5 -97.5t32 -106t11.5 -115zM427 270q0 53 -9.5 101t-26.5 93q-18 7 -41 11t-49 4q-38 0 -68.5 -14.5t-52 -41.5t-33 -65.5t-11.5 -86.5q0 -47 9 -86t27 -67t45.5 -44t64.5 -16t64 15.5t45 44t27 67t9 85.5z" />
    <glyph glyph-name="ntilde" unicode="&#xf1;" horiz-adv-x="559" 
d="M403 0v364q0 54 -32.5 86t-98.5 32q-35 0 -65 -5.5t-50 -13.5v-463h-84v512q39 17 88.5 27.5t109.5 10.5q107 0 161 -47t54 -132v-371h-83zM410 699q-5 -35 -25 -60t-55 -25q-20 0 -33.5 8t-24.5 17t-22 17t-24 8q-19 0 -30.5 -15t-15.5 -37l-43 26q5 35 25 59.5t55 24.5
q19 0 33 -7.5t25 -17t21.5 -17t24.5 -7.5q19 0 30.5 15t15.5 37z" />
    <glyph glyph-name="ograve" unicode="&#xf2;" horiz-adv-x="564" 
d="M511 270q0 -60 -15 -111.5t-44 -89t-71.5 -59t-98.5 -21.5t-98.5 21.5t-71.5 59t-44 89t-15 111.5t15 111t44 88.5t71.5 59t98.5 21.5t98.5 -21.5t71.5 -59t44 -88.5t15 -111zM428 271q0 46 -9 85t-27 67t-45.5 43.5t-64.5 15.5t-64.5 -15.5t-45.5 -43.5t-27 -67t-9 -85
q0 -47 9 -86t27 -67t45.5 -44t64.5 -16t64.5 16t45.5 44t27 67t9 86zM264 603l-100 130q3 11 13 17t24 6q13 0 26.5 -6t24.5 -17l74 -130h-62z" />
    <glyph glyph-name="oacute" unicode="&#xf3;" horiz-adv-x="564" 
d="M511 270q0 -60 -15 -111.5t-44 -89t-71.5 -59t-98.5 -21.5t-98.5 21.5t-71.5 59t-44 89t-15 111.5t15 111t44 88.5t71.5 59t98.5 21.5t98.5 -21.5t71.5 -59t44 -88.5t15 -111zM428 271q0 46 -9 85t-27 67t-45.5 43.5t-64.5 15.5t-64.5 -15.5t-45.5 -43.5t-27 -67t-9 -85
q0 -47 9 -86t27 -67t45.5 -44t64.5 -16t64.5 16t45.5 44t27 67t9 86zM295 603h-62l74 130q11 11 24.5 17t26.5 6q14 0 24 -6t13 -17z" />
    <glyph glyph-name="ocircumflex" unicode="&#xf4;" horiz-adv-x="564" 
d="M511 270q0 -60 -15 -111.5t-44 -89t-71.5 -59t-98.5 -21.5t-98.5 21.5t-71.5 59t-44 89t-15 111.5t15 111t44 88.5t71.5 59t98.5 21.5t98.5 -21.5t71.5 -59t44 -88.5t15 -111zM428 271q0 46 -9 85t-27 67t-45.5 43.5t-64.5 15.5t-64.5 -15.5t-45.5 -43.5t-27 -67t-9 -85
q0 -47 9 -86t27 -67t45.5 -44t64.5 -16t64.5 16t45.5 44t27 67t9 86zM382 598l-99 88l-100 -88l-36 31l100 101q17 17 36 17q18 0 35 -17l100 -101z" />
    <glyph glyph-name="otilde" unicode="&#xf5;" horiz-adv-x="564" 
d="M511 270q0 -60 -15 -111.5t-44 -89t-71.5 -59t-98.5 -21.5t-98.5 21.5t-71.5 59t-44 89t-15 111.5t15 111t44 88.5t71.5 59t98.5 21.5t98.5 -21.5t71.5 -59t44 -88.5t15 -111zM428 271q0 46 -9 85t-27 67t-45.5 43.5t-64.5 15.5t-64.5 -15.5t-45.5 -43.5t-27 -67t-9 -85
q0 -47 9 -86t27 -67t45.5 -44t64.5 -16t64.5 16t45.5 44t27 67t9 86zM413 699q-5 -35 -25 -60t-55 -25q-20 0 -33.5 8t-24.5 17t-22 17t-24 8q-19 0 -30.5 -15t-15.5 -37l-43 26q5 35 25 59.5t55 24.5q19 0 33 -7.5t25 -17t21.5 -17t24.5 -7.5q19 0 30.5 15t15.5 37z" />
    <glyph glyph-name="odieresis" unicode="&#xf6;" horiz-adv-x="564" 
d="M511 270q0 -60 -15 -111.5t-44 -89t-71.5 -59t-98.5 -21.5t-98.5 21.5t-71.5 59t-44 89t-15 111.5t15 111t44 88.5t71.5 59t98.5 21.5t98.5 -21.5t71.5 -59t44 -88.5t15 -111zM428 271q0 46 -9 85t-27 67t-45.5 43.5t-64.5 15.5t-64.5 -15.5t-45.5 -43.5t-27 -67t-9 -85
q0 -47 9 -86t27 -67t45.5 -44t64.5 -16t64.5 16t45.5 44t27 67t9 86zM238 669q0 -19 -14 -32.5t-34 -13.5t-34 13.5t-14 32.5t14 32.5t34 13.5t34 -13.5t14 -32.5zM422 669q0 -19 -14 -32.5t-34 -13.5t-34 13.5t-14 32.5t14 32.5t34 13.5t34 -13.5t14 -32.5z" />
    <glyph glyph-name="divide" unicode="&#xf7;" horiz-adv-x="565" 
d="M333 490q0 -21 -14.5 -35.5t-35.5 -14.5t-35.5 14.5t-14.5 35.5t14.5 35.5t35.5 14.5t35.5 -14.5t14.5 -35.5zM71 294v62h423v-62h-423zM333 160q0 -21 -14.5 -35.5t-35.5 -14.5t-35.5 14.5t-14.5 35.5t14.5 35.5t35.5 14.5t35.5 -14.5t14.5 -35.5z" />
    <glyph glyph-name="oslash" unicode="&#xf8;" horiz-adv-x="564" 
d="M511 270q0 -60 -15 -111.5t-44 -89t-71.5 -59t-98.5 -21.5q-40 0 -73.5 11.5t-59.5 32.5l-57 -85l-38 28l62 90q-31 38 -47 90.5t-16 113.5q0 60 15 111t44 88.5t71.5 59t98.5 21.5q40 0 73.5 -11.5t59.5 -32.5l57 84l37 -28l-60 -89q31 -38 46.5 -90t15.5 -113zM377 451
q-37 37 -95 37q-39 0 -68 -16.5t-47.5 -46t-28 -69t-9.5 -85.5q0 -41 7 -77t22 -65zM435 271q0 41 -7.5 76.5t-21.5 63.5l-218 -322q18 -17 41.5 -27t52.5 -10q39 0 68 17t47.5 46.5t28 69.5t9.5 86z" />
    <glyph glyph-name="ugrave" unicode="&#xf9;" horiz-adv-x="551" 
d="M478 27q-31 -16 -84 -27t-113 -11q-101 0 -154.5 45.5t-53.5 143.5v361h84v-362q0 -118 124 -118q37 0 67.5 5.5t46.5 12.5v462h83v-512zM260 603l-100 130q3 11 13 17t24 6q13 0 26.5 -6t24.5 -17l74 -130h-62z" />
    <glyph glyph-name="uacute" unicode="&#xfa;" horiz-adv-x="551" 
d="M478 27q-31 -16 -84 -27t-113 -11q-101 0 -154.5 45.5t-53.5 143.5v361h84v-362q0 -118 124 -118q37 0 67.5 5.5t46.5 12.5v462h83v-512zM291 603h-62l74 130q11 11 24.5 17t26.5 6q14 0 24 -6t13 -17z" />
    <glyph glyph-name="ucircumflex" unicode="&#xfb;" horiz-adv-x="551" 
d="M478 27q-31 -16 -84 -27t-113 -11q-101 0 -154.5 45.5t-53.5 143.5v361h84v-362q0 -118 124 -118q37 0 67.5 5.5t46.5 12.5v462h83v-512zM375 598l-99 88l-100 -88l-36 31l100 101q17 17 36 17q18 0 35 -17l100 -101z" />
    <glyph glyph-name="udieresis" unicode="&#xfc;" horiz-adv-x="551" 
d="M478 27q-31 -16 -84 -27t-113 -11q-101 0 -154.5 45.5t-53.5 143.5v361h84v-362q0 -118 124 -118q37 0 67.5 5.5t46.5 12.5v462h83v-512zM232 669q0 -19 -14 -32.5t-34 -13.5t-34 13.5t-14 32.5t14 32.5t34 13.5t34 -13.5t14 -32.5zM416 669q0 -19 -14 -32.5t-34 -13.5
t-34 13.5t-14 32.5t14 32.5t34 13.5t34 -13.5t14 -32.5z" />
    <glyph glyph-name="yacute" unicode="&#xfd;" horiz-adv-x="550" 
d="M238 -215h-87l81 215l-202 539h91l134 -392q6 -17 11 -38.5t8 -38.5h2q2 8 6.5 31t12.5 46l133 392h92zM298 603h-62l74 130q11 11 24.5 17t26.5 6q14 0 24 -6t13 -17z" />
    <glyph glyph-name="thorn" unicode="&#xfe;" horiz-adv-x="555" 
d="M503 277q0 -75 -19 -129.5t-52.5 -89.5t-80.5 -51.5t-102 -16.5q-25 0 -48.5 4t-43.5 11v-220h-84v1000h84v-262q21 10 51 17t61 7q52 0 95 -18.5t74 -53t48 -85t17 -113.5zM419 274q0 98 -44 152t-117 54q-27 0 -54.5 -5.5t-46.5 -15.5v-385q14 -7 38.5 -12t52.5 -5
q36 0 67.5 12t54.5 38t36 67t13 100z" />
    <glyph glyph-name="ydieresis" unicode="&#xff;" horiz-adv-x="550" 
d="M238 -215h-87l81 215l-202 539h91l134 -392q6 -17 11 -38.5t8 -38.5h2q2 8 6.5 31t12.5 46l133 392h92zM232 669q0 -19 -14 -32.5t-34 -13.5t-34 13.5t-14 32.5t14 32.5t34 13.5t34 -13.5t14 -32.5zM415 669q0 -19 -14 -32.5t-34 -13.5t-34 13.5t-14 32.5t14 32.5
t34 13.5t34 -13.5t14 -32.5z" />
    <glyph glyph-name="Amacron" unicode="&#x100;" horiz-adv-x="656" 
d="M546 0l-72 211h-291l-72 -211h-91l259 724h99l258 -724h-90zM351 570q-8 25 -13.5 46.5t-8.5 36.5h-2q-3 -15 -8.5 -36.5t-13.5 -46.5l-100 -293h247zM204 818v57h249v-57h-249z" />
    <glyph glyph-name="amacron" unicode="&#x101;" horiz-adv-x="528" 
d="M455 27q-29 -16 -80.5 -27t-105.5 -11q-112 0 -167 44t-55 121q0 58 28.5 93t75 54.5t105.5 27.5t120 11v41q0 30 -9.5 50t-26.5 32.5t-40.5 17.5t-51.5 5q-19 0 -39.5 -3t-40 -7.5t-37 -10.5t-30.5 -12l-22 59q31 14 78 26t98 12q45 0 82 -9.5t63.5 -30.5t40.5 -54.5
t14 -81.5v-347zM376 282q-45 -3 -89.5 -7t-80.5 -16.5t-58 -36.5t-22 -66q0 -48 35 -76t106 -28q15 0 31.5 1.5t31.5 3.5t27 5.5t19 6.5v213zM146 632v57h249v-57h-249z" />
    <glyph glyph-name="Abreve" unicode="&#x102;" horiz-adv-x="656" 
d="M546 0l-72 211h-291l-72 -211h-91l259 724h99l258 -724h-90zM351 570q-8 25 -13.5 46.5t-8.5 36.5h-2q-3 -15 -8.5 -36.5t-13.5 -46.5l-100 -293h247zM463 918q-4 -62 -38.5 -98t-96.5 -36t-97 36t-39 98l52 9q7 -43 26.5 -65t57.5 -22t57 22t26 65z" />
    <glyph glyph-name="abreve" unicode="&#x103;" horiz-adv-x="528" 
d="M455 27q-29 -16 -80.5 -27t-105.5 -11q-112 0 -167 44t-55 121q0 58 28.5 93t75 54.5t105.5 27.5t120 11v41q0 30 -9.5 50t-26.5 32.5t-40.5 17.5t-51.5 5q-19 0 -39.5 -3t-40 -7.5t-37 -10.5t-30.5 -12l-22 59q31 14 78 26t98 12q45 0 82 -9.5t63.5 -30.5t40.5 -54.5
t14 -81.5v-347zM376 282q-45 -3 -89.5 -7t-80.5 -16.5t-58 -36.5t-22 -66q0 -48 35 -76t106 -28q15 0 31.5 1.5t31.5 3.5t27 5.5t19 6.5v213zM400 733q-4 -62 -38.5 -98t-96.5 -36t-97 36t-39 98l52 9q7 -43 26.5 -65t57.5 -22t57 22t26 65z" />
    <glyph glyph-name="Aogonek" unicode="&#x104;" horiz-adv-x="656" 
d="M654 -175q-18 -10 -42 -16t-48 -6q-47 0 -76 23.5t-29 63.5q0 31 22 60.5t63 53.5l-70 207h-291l-72 -211h-91l259 724h99l258 -724h-30q-44 -25 -63 -51.5t-19 -47.5q0 -20 14 -33t37 -13q15 0 31 4t30 10zM351 570q-10 29 -15 52.5t-7 30.5h-2q-2 -7 -7 -30.5
t-15 -52.5l-100 -293h247z" />
    <glyph glyph-name="aogonek" unicode="&#x105;" horiz-adv-x="528" 
d="M455 27q-10 -5 -22.5 -9.5t-27.5 -9.5q-51 -26 -73.5 -55t-22.5 -52q0 -20 14.5 -33t37.5 -13q15 0 31 4t30 10l17 -44q-18 -10 -41.5 -16t-47.5 -6q-47 0 -76.5 23.5t-29.5 63.5q0 27 18.5 53t50.5 49l-22 -2q-11 -1 -22 -1q-112 0 -167 44t-55 121q0 58 28.5 93
t75 54.5t105.5 27.5t120 11v41q0 30 -9.5 50t-26.5 32.5t-40.5 17.5t-51.5 5q-19 0 -39.5 -3t-40 -7.5t-37 -10.5t-30.5 -12l-22 59q31 14 78 26t98 12q45 0 82 -9.5t63.5 -30.5t40.5 -54.5t14 -81.5v-347zM376 282q-45 -3 -89.5 -7t-80.5 -16.5t-58 -36.5t-22 -66
q0 -48 35 -76t106 -28q15 0 31.5 1.5t31.5 3.5t27 5.5t19 6.5v213z" />
    <glyph glyph-name="Cacute" unicode="&#x106;" horiz-adv-x="540" 
d="M495 27q-67 -38 -155 -38q-58 0 -109.5 22.5t-90 68.5t-61 116.5t-22.5 165.5t22.5 165.5t61 116.5t90 68.5t109.5 22.5q88 0 155 -38l-29 -69q-24 14 -53.5 22.5t-64.5 8.5q-42 0 -78.5 -17.5t-64 -54t-43.5 -92.5t-16 -132t16 -132t43.5 -92.5t64 -54.5t78.5 -18
q35 0 64.5 8.5t53.5 22.5zM331 788h-62l74 130q11 11 24.5 17t26.5 6q14 0 24 -6t13 -17z" />
    <glyph glyph-name="cacute" unicode="&#x107;" horiz-adv-x="460" 
d="M418 26q-27 -19 -61.5 -28t-72.5 -9q-43 0 -84.5 16t-74 50t-52.5 87.5t-20 127.5t20 127t52.5 87t74 50t84.5 16q38 0 72.5 -9t61.5 -28l-29 -61q-40 28 -96 28q-29 0 -56.5 -11.5t-49.5 -36.5t-35 -64.5t-13 -96.5t13.5 -97t35 -65.5t49 -37t56.5 -11.5q28 0 52 7.5
t44 21.5zM285 603h-62l74 130q11 11 24.5 17t26.5 6q14 0 24 -6t13 -17z" />
    <glyph glyph-name="Ccircumflex" unicode="&#x108;" horiz-adv-x="540" 
d="M495 27q-67 -38 -155 -38q-58 0 -109.5 22.5t-90 68.5t-61 116.5t-22.5 165.5t22.5 165.5t61 116.5t90 68.5t109.5 22.5q88 0 155 -38l-29 -69q-24 14 -53.5 22.5t-64.5 8.5q-42 0 -78.5 -17.5t-64 -54t-43.5 -92.5t-16 -132t16 -132t43.5 -92.5t64 -54.5t78.5 -18
q35 0 64.5 8.5t53.5 22.5zM419 783l-99 88l-100 -88l-36 31l100 101q17 17 36 17q18 0 35 -17l100 -101z" />
    <glyph glyph-name="ccircumflex" unicode="&#x109;" horiz-adv-x="460" 
d="M418 26q-27 -19 -61.5 -28t-72.5 -9q-43 0 -84.5 16t-74 50t-52.5 87.5t-20 127.5t20 127t52.5 87t74 50t84.5 16q38 0 72.5 -9t61.5 -28l-29 -61q-40 28 -96 28q-29 0 -56.5 -11.5t-49.5 -36.5t-35 -64.5t-13 -96.5t13.5 -97t35 -65.5t49 -37t56.5 -11.5q28 0 52 7.5
t44 21.5zM365 598l-99 88l-100 -88l-36 31l100 101q17 17 36 17q18 0 35 -17l100 -101z" />
    <glyph glyph-name="Cdotaccent" unicode="&#x10a;" horiz-adv-x="540" 
d="M495 27q-67 -38 -155 -38q-58 0 -109.5 22.5t-90 68.5t-61 116.5t-22.5 165.5t22.5 165.5t61 116.5t90 68.5t109.5 22.5q88 0 155 -38l-29 -69q-24 14 -53.5 22.5t-64.5 8.5q-42 0 -78.5 -17.5t-64 -54t-43.5 -92.5t-16 -132t16 -132t43.5 -92.5t64 -54.5t78.5 -18
q35 0 64.5 8.5t53.5 22.5zM373 859q0 -21 -15 -35.5t-37 -14.5t-37.5 14.5t-15.5 35.5t15.5 35.5t37.5 14.5t37 -14.5t15 -35.5z" />
    <glyph glyph-name="cdotaccent" unicode="&#x10b;" horiz-adv-x="460" 
d="M418 26q-27 -19 -61.5 -28t-72.5 -9q-43 0 -84.5 16t-74 50t-52.5 87.5t-20 127.5t20 127t52.5 87t74 50t84.5 16q38 0 72.5 -9t61.5 -28l-29 -61q-40 28 -96 28q-29 0 -56.5 -11.5t-49.5 -36.5t-35 -64.5t-13 -96.5t13.5 -97t35 -65.5t49 -37t56.5 -11.5q28 0 52 7.5
t44 21.5zM314 674q0 -21 -15 -35.5t-37 -14.5t-37.5 14.5t-15.5 35.5t15.5 35.5t37.5 14.5t37 -14.5t15 -35.5z" />
    <glyph glyph-name="Ccaron" unicode="&#x10c;" horiz-adv-x="540" 
d="M495 27q-67 -38 -155 -38q-58 0 -109.5 22.5t-90 68.5t-61 116.5t-22.5 165.5t22.5 165.5t61 116.5t90 68.5t109.5 22.5q88 0 155 -38l-29 -69q-24 14 -53.5 22.5t-64.5 8.5q-42 0 -78.5 -17.5t-64 -54t-43.5 -92.5t-16 -132t16 -132t43.5 -92.5t64 -54.5t78.5 -18
q35 0 64.5 8.5t53.5 22.5zM355 802q-17 -17 -35 -17q-19 0 -36 17l-100 101l36 31l100 -88l99 88l36 -31z" />
    <glyph glyph-name="ccaron" unicode="&#x10d;" horiz-adv-x="460" 
d="M418 26q-27 -19 -61.5 -28t-72.5 -9q-43 0 -84.5 16t-74 50t-52.5 87.5t-20 127.5t20 127t52.5 87t74 50t84.5 16q38 0 72.5 -9t61.5 -28l-29 -61q-40 28 -96 28q-29 0 -56.5 -11.5t-49.5 -36.5t-35 -64.5t-13 -96.5t13.5 -97t35 -65.5t49 -37t56.5 -11.5q28 0 52 7.5
t44 21.5zM300 617q-17 -17 -35 -17q-19 0 -36 17l-100 101l36 31l100 -88l99 88l36 -31z" />
    <glyph glyph-name="Dcaron" unicode="&#x10e;" horiz-adv-x="636" 
d="M580 362q0 -93 -23.5 -163t-65 -116.5t-99 -70t-125.5 -23.5q-58 0 -108.5 11t-79.5 27v670q33 17 82 27.5t106 10.5q68 0 125.5 -23.5t99 -70t65 -116.5t23.5 -163zM493 362q0 78 -17.5 134.5t-47.5 93t-70.5 54t-86.5 17.5q-31 0 -59.5 -4.5t-45.5 -12.5v-564
q14 -8 42.5 -12.5t62.5 -4.5q46 0 86.5 17.5t70.5 54t47.5 93t17.5 134.5zM316 802q-17 -17 -35 -17q-19 0 -36 17l-100 101l36 31l100 -88l99 88l36 -31z" />
    <glyph glyph-name="dcaron" unicode="&#x10f;" horiz-adv-x="555" 
d="M482 27q-12 -7 -30.5 -14t-41.5 -12t-48.5 -8.5t-52.5 -3.5q-62 0 -109.5 19.5t-80 55t-49.5 86t-17 113.5q0 62 16.5 113.5t48 89t78 58t106.5 20.5q28 0 55 -4.5t42 -9.5v255h83v-758zM399 465q-12 5 -39 9t-52 4q-42 0 -74.5 -16t-54 -45t-32.5 -68.5t-11 -85.5
q0 -94 44 -150t128 -56q13 0 26.5 1.5t26 4t22.5 5.5t16 6v391zM629 614h-52v157q15 21 39 21q25 0 38 -21z" />
    <glyph glyph-name="Dcroat" unicode="&#x110;" horiz-adv-x="646" 
d="M590 362q0 -93 -23.5 -163t-65 -116.5t-99 -70t-125.5 -23.5q-58 0 -108.5 11t-79.5 27v311h-61v65h61v294q33 17 82 27.5t106 10.5q68 0 125.5 -23.5t99 -70t65 -116.5t23.5 -163zM504 362q0 78 -17.5 134.5t-47.5 93t-71 54t-87 17.5q-32 0 -60.5 -4.5t-45.5 -12.5
v-241h127v-65h-127v-259q14 -8 42.5 -12t63.5 -4q46 0 87 17.5t71 54t47.5 93t17.5 134.5z" />
    <glyph glyph-name="dcroat" unicode="&#x111;" horiz-adv-x="555" 
d="M482 632v-605q-12 -7 -30.5 -14t-41.5 -12t-48.5 -8.5t-52.5 -3.5q-62 0 -109.5 19.5t-80 55t-49.5 86t-17 113.5q0 62 16.5 113.5t48 89t78 58t106.5 20.5q28 0 55 -4.5t42 -9.5v102h-163v53h163v100h83v-100h76v-53h-76zM399 465q-12 5 -39 9t-52 4q-42 0 -74.5 -16
t-54 -45t-32.5 -68.5t-11 -85.5q0 -94 44 -150t128 -56q13 0 26.5 1.5t26 4t22.5 5.5t16 6v391z" />
    <glyph glyph-name="Emacron" unicode="&#x112;" horiz-adv-x="504" 
d="M79 0v724h375v-74h-290v-242h267v-72h-267v-262h290v-74h-375zM141 818v57h249v-57h-249z" />
    <glyph glyph-name="emacron" unicode="&#x113;" horiz-adv-x="556" 
d="M503 302q0 -9 -1 -19l-368 -53q7 -87 55 -130t126 -43q41 0 80.5 9t66.5 24l26 -63q-29 -17 -76 -27.5t-101 -10.5q-121 0 -189.5 74t-68.5 207q0 62 16 113.5t46.5 88.5t74 57.5t98.5 20.5q100 0 157.5 -61.5t57.5 -169.5v-17zM423 330q-1 80 -38 118t-98 38
q-72 0 -114 -53t-44 -145zM158 632v57h249v-57h-249z" />
    <glyph glyph-name="Ebreve" unicode="&#x114;" horiz-adv-x="504" 
d="M79 0v724h375v-74h-290v-242h267v-72h-267v-262h290v-74h-375zM398 918q-4 -62 -38.5 -98t-96.5 -36t-97 36t-39 98l52 9q7 -43 26.5 -65t57.5 -22t57 22t26 65z" />
    <glyph glyph-name="ebreve" unicode="&#x115;" horiz-adv-x="556" 
d="M503 302q0 -9 -1 -19l-368 -53q7 -87 55 -130t126 -43q41 0 80.5 9t66.5 24l26 -63q-29 -17 -76 -27.5t-101 -10.5q-121 0 -189.5 74t-68.5 207q0 62 16 113.5t46.5 88.5t74 57.5t98.5 20.5q100 0 157.5 -61.5t57.5 -169.5v-17zM423 330q-1 80 -38 118t-98 38
q-72 0 -114 -53t-44 -145zM416 733q-4 -62 -38.5 -98t-96.5 -36t-97 36t-39 98l52 9q7 -43 26.5 -65t57.5 -22t57 22t26 65z" />
    <glyph glyph-name="Edotaccent" unicode="&#x116;" horiz-adv-x="504" 
d="M79 0v724h375v-74h-290v-242h267v-72h-267v-262h290v-74h-375zM314 859q0 -21 -15 -35.5t-37 -14.5t-37.5 14.5t-15.5 35.5t15.5 35.5t37.5 14.5t37 -14.5t15 -35.5z" />
    <glyph glyph-name="edotaccent" unicode="&#x117;" horiz-adv-x="556" 
d="M503 302q0 -9 -1 -19l-368 -53q7 -87 55 -130t126 -43q41 0 80.5 9t66.5 24l26 -63q-29 -17 -76 -27.5t-101 -10.5q-121 0 -189.5 74t-68.5 207q0 62 16 113.5t46.5 88.5t74 57.5t98.5 20.5q100 0 157.5 -61.5t57.5 -169.5v-17zM423 330q-1 80 -38 118t-98 38
q-72 0 -114 -53t-44 -145zM335 674q0 -21 -15 -35.5t-37 -14.5t-37.5 14.5t-15.5 35.5t15.5 35.5t37.5 14.5t37 -14.5t15 -35.5z" />
    <glyph glyph-name="Eogonek" unicode="&#x118;" horiz-adv-x="504" 
d="M473 -175q-18 -10 -42 -16t-48 -6q-47 0 -76 23.5t-29 63.5q0 30 21 58t60 52h-280v724h375v-74h-290v-242h267v-72h-267v-262h290v-74h-30q-44 -25 -62.5 -51.5t-18.5 -47.5q0 -20 14 -33t37 -13q15 0 31 4t30 10z" />
    <glyph glyph-name="eogonek" unicode="&#x119;" horiz-adv-x="556" 
d="M503 302q0 -9 -1 -19l-368 -53q7 -87 55 -130t126 -43q41 0 80.5 9t66.5 24l26 -63q-8 -5 -18.5 -9.5t-21.5 -8.5q-54 -26 -76.5 -55.5t-22.5 -52.5q0 -20 14 -33t37 -13q15 0 31 4t30 10l18 -44q-18 -10 -42 -16t-48 -6q-47 0 -76 23.5t-29 63.5q0 27 18 53t50 49
l-20 -2q-10 -1 -21 -1q-121 0 -189.5 74t-68.5 207q0 62 16 113.5t46.5 88.5t74 57.5t98.5 20.5q100 0 157.5 -61.5t57.5 -169.5v-17zM423 330q-1 80 -38 118t-98 38q-72 0 -114 -53t-44 -145z" />
    <glyph glyph-name="Ecaron" unicode="&#x11a;" horiz-adv-x="504" 
d="M79 0v724h375v-74h-290v-242h267v-72h-267v-262h290v-74h-375zM298 802q-17 -17 -35 -17q-19 0 -36 17l-100 101l36 31l100 -88l99 88l36 -31z" />
    <glyph glyph-name="ecaron" unicode="&#x11b;" horiz-adv-x="556" 
d="M503 302q0 -9 -1 -19l-368 -53q7 -87 55 -130t126 -43q41 0 80.5 9t66.5 24l26 -63q-29 -17 -76 -27.5t-101 -10.5q-121 0 -189.5 74t-68.5 207q0 62 16 113.5t46.5 88.5t74 57.5t98.5 20.5q100 0 157.5 -61.5t57.5 -169.5v-17zM423 330q-1 80 -38 118t-98 38
q-72 0 -114 -53t-44 -145zM318 617q-17 -17 -35 -17q-19 0 -36 17l-100 101l36 31l100 -88l99 88l36 -31z" />
    <glyph glyph-name="Gcircumflex" unicode="&#x11c;" horiz-adv-x="644" 
d="M569 27q-27 -16 -77 -27t-115 -11q-68 0 -126.5 24t-101.5 71.5t-67.5 117t-24.5 160.5t25 160.5t69 117t103 71.5t128 24q54 0 101 -10.5t74 -27.5l-30 -68q-22 13 -59 22t-84 9q-48 0 -92 -17.5t-77 -54t-52.5 -93t-19.5 -133.5t19 -133.5t51 -93.5t73 -54.5t86 -17.5
q39 0 70.5 5.5t43.5 12.5v260h-154v68h237v-382zM454 783l-99 88l-100 -88l-36 31l100 101q17 17 36 17q18 0 35 -17l100 -101z" />
    <glyph glyph-name="gcircumflex" unicode="&#x11d;" horiz-adv-x="555" 
d="M482 -2q0 -107 -58 -165t-164 -58q-54 0 -101.5 12t-78.5 28l26 66q26 -14 66 -24.5t82 -10.5q73 0 109.5 39.5t36.5 112.5v46q-22 -11 -53 -17.5t-63 -6.5q-51 0 -93 17t-73 50t-48 80.5t-17 109.5q0 71 19.5 122.5t54 85t82 49.5t103.5 16q50 0 94.5 -10.5t75.5 -27.5
v-514zM400 466q-14 7 -39 12t-54 5q-36 0 -67 -11t-54 -35.5t-36.5 -63t-13.5 -93.5q0 -97 45 -145.5t116 -48.5q27 0 56 5.5t47 15.5v359zM391 598l-99 88l-100 -88l-36 31l100 101q17 17 36 17q18 0 35 -17l100 -101z" />
    <glyph glyph-name="Gbreve" unicode="&#x11e;" horiz-adv-x="644" 
d="M569 27q-27 -16 -77 -27t-115 -11q-68 0 -126.5 24t-101.5 71.5t-67.5 117t-24.5 160.5t25 160.5t69 117t103 71.5t128 24q54 0 101 -10.5t74 -27.5l-30 -68q-22 13 -59 22t-84 9q-48 0 -92 -17.5t-77 -54t-52.5 -93t-19.5 -133.5t19 -133.5t51 -93.5t73 -54.5t86 -17.5
q39 0 70.5 5.5t43.5 12.5v260h-154v68h237v-382zM480 918q-4 -62 -38.5 -98t-96.5 -36t-97 36t-39 98l52 9q7 -43 26.5 -65t57.5 -22t57 22t26 65z" />
    <glyph glyph-name="gbreve" unicode="&#x11f;" horiz-adv-x="555" 
d="M482 -2q0 -107 -58 -165t-164 -58q-54 0 -101.5 12t-78.5 28l26 66q26 -14 66 -24.5t82 -10.5q73 0 109.5 39.5t36.5 112.5v46q-22 -11 -53 -17.5t-63 -6.5q-51 0 -93 17t-73 50t-48 80.5t-17 109.5q0 71 19.5 122.5t54 85t82 49.5t103.5 16q50 0 94.5 -10.5t75.5 -27.5
v-514zM400 466q-14 7 -39 12t-54 5q-36 0 -67 -11t-54 -35.5t-36.5 -63t-13.5 -93.5q0 -97 45 -145.5t116 -48.5q27 0 56 5.5t47 15.5v359zM425 733q-4 -62 -38.5 -98t-96.5 -36t-97 36t-39 98l52 9q7 -43 26.5 -65t57.5 -22t57 22t26 65z" />
    <glyph glyph-name="Gdotaccent" unicode="&#x120;" horiz-adv-x="644" 
d="M569 27q-27 -16 -77 -27t-115 -11q-68 0 -126.5 24t-101.5 71.5t-67.5 117t-24.5 160.5t25 160.5t69 117t103 71.5t128 24q54 0 101 -10.5t74 -27.5l-30 -68q-22 13 -59 22t-84 9q-48 0 -92 -17.5t-77 -54t-52.5 -93t-19.5 -133.5t19 -133.5t51 -93.5t73 -54.5t86 -17.5
q39 0 70.5 5.5t43.5 12.5v260h-154v68h237v-382zM409 859q0 -21 -15 -35.5t-37 -14.5t-37.5 14.5t-15.5 35.5t15.5 35.5t37.5 14.5t37 -14.5t15 -35.5z" />
    <glyph glyph-name="gdotaccent" unicode="&#x121;" horiz-adv-x="555" 
d="M482 -2q0 -107 -58 -165t-164 -58q-54 0 -101.5 12t-78.5 28l26 66q26 -14 66 -24.5t82 -10.5q73 0 109.5 39.5t36.5 112.5v46q-22 -11 -53 -17.5t-63 -6.5q-51 0 -93 17t-73 50t-48 80.5t-17 109.5q0 71 19.5 122.5t54 85t82 49.5t103.5 16q50 0 94.5 -10.5t75.5 -27.5
v-514zM400 466q-14 7 -39 12t-54 5q-36 0 -67 -11t-54 -35.5t-36.5 -63t-13.5 -93.5q0 -97 45 -145.5t116 -48.5q27 0 56 5.5t47 15.5v359zM344 674q0 -21 -15 -35.5t-37 -14.5t-37.5 14.5t-15.5 35.5t15.5 35.5t37.5 14.5t37 -14.5t15 -35.5z" />
    <glyph glyph-name="Gcommaaccent" unicode="&#x122;" horiz-adv-x="644" 
d="M569 27q-27 -16 -77 -27t-115 -11q-68 0 -126.5 24t-101.5 71.5t-67.5 117t-24.5 160.5t25 160.5t69 117t103 71.5t128 24q54 0 101 -10.5t74 -27.5l-30 -68q-22 13 -59 22t-84 9q-48 0 -92 -17.5t-77 -54t-52.5 -93t-19.5 -133.5t19 -133.5t51 -93.5t73 -54.5t86 -17.5
q39 0 70.5 5.5t43.5 12.5v260h-154v68h237v-382zM318 -215h-62l50 137q20 22 50 22q14 0 25 -6.5t13 -15.5z" />
    <glyph glyph-name="gcommaaccent" unicode="&#x123;" horiz-adv-x="555" 
d="M482 -2q0 -107 -58 -165t-164 -58q-54 0 -101.5 12t-78.5 28l26 66q26 -14 66 -24.5t82 -10.5q73 0 109.5 39.5t36.5 112.5v46q-22 -11 -53 -17.5t-63 -6.5q-51 0 -93 17t-73 50t-48 80.5t-17 109.5q0 71 19.5 122.5t54 85t82 49.5t103.5 16q50 0 94.5 -10.5t75.5 -27.5
v-514zM400 466q-14 7 -39 12t-54 5q-36 0 -67 -11t-54 -35.5t-36.5 -63t-13.5 -93.5q0 -97 45 -145.5t116 -48.5q27 0 56 5.5t47 15.5v359zM342 620q-20 -21 -50 -21q-14 0 -25 6t-13 15l76 138h62z" />
    <glyph glyph-name="Hcircumflex" unicode="&#x124;" horiz-adv-x="639" 
d="M473 0v336h-307v-336h-87v724h87v-316h307v316h87v-724h-87zM419 783l-99 88l-100 -88l-36 31l100 101q17 17 36 17q18 0 35 -17l100 -101z" />
    <glyph glyph-name="hcircumflex" unicode="&#x125;" horiz-adv-x="559" 
d="M403 0v363q0 60 -36 88.5t-98 28.5q-29 0 -59 -8t-53 -22v-450h-84v785h84v-269q26 14 60 23t68 9q94 0 147.5 -45.5t53.5 -133.5v-369h-83zM215 820l-99 88l-100 -88l-36 31l100 101q17 17 36 17q18 0 35 -17l100 -101z" />
    <glyph glyph-name="Hbar" unicode="&#x126;" horiz-adv-x="639" 
d="M560 534v-534h-86v336h-309v-336h-86v534h-65v52h65v138h86v-138h309v138h86v-138h65v-52h-65zM474 534h-309v-127h309v127z" />
    <glyph glyph-name="hbar" unicode="&#x127;" horiz-adv-x="559" 
d="M403 0v363q0 60 -36 88.5t-98 28.5q-29 0 -59.5 -8t-53.5 -22v-450h-81v633h-78v52h78v100h81v-100h163v-52h-163v-117q26 14 60.5 23t68.5 9q94 0 147.5 -45.5t53.5 -133.5v-369h-83z" />
    <glyph glyph-name="Itilde" unicode="&#x128;" horiz-adv-x="248" 
d="M81 0v724h86v-724h-86zM262 884q-5 -35 -25 -60t-55 -25q-20 0 -33.5 8t-24.5 17t-22 17t-24 8q-19 0 -30.5 -15t-15.5 -37l-43 26q5 35 25 59.5t55 24.5q19 0 33 -7.5t25 -17t21.5 -17t24.5 -7.5q19 0 30.5 15t15.5 37z" />
    <glyph glyph-name="itilde" unicode="&#x129;" horiz-adv-x="238" 
d="M78 0v539h83v-539h-83zM257 699q-5 -35 -25 -60t-55 -25q-20 0 -33.5 8t-24.5 17t-22 17t-24 8q-19 0 -30.5 -15t-15.5 -37l-43 26q5 35 25 59.5t55 24.5q19 0 33 -7.5t25 -17t21.5 -17t24.5 -7.5q19 0 30.5 15t15.5 37z" />
    <glyph glyph-name="Imacron" unicode="&#x12a;" horiz-adv-x="248" 
d="M81 0v724h86v-724h-86zM0 818v57h249v-57h-249z" />
    <glyph glyph-name="imacron" unicode="&#x12b;" horiz-adv-x="238" 
d="M78 0v539h83v-539h-83zM-4 632v57h249v-57h-249z" />
    <glyph glyph-name="Ibreve" unicode="&#x12c;" horiz-adv-x="248" 
d="M81 0v724h86v-724h-86zM260 918q-4 -62 -38.5 -98t-96.5 -36t-97 36t-39 98l52 9q7 -43 26.5 -65t57.5 -22t57 22t26 65z" />
    <glyph glyph-name="ibreve" unicode="&#x12d;" horiz-adv-x="238" 
d="M78 0v539h83v-539h-83zM256 733q-4 -62 -38.5 -98t-96.5 -36t-97 36t-39 98l52 9q7 -43 26.5 -65t57.5 -22t57 22t26 65z" />
    <glyph glyph-name="Iogonek" unicode="&#x12e;" horiz-adv-x="248" 
d="M188 -175q-18 -10 -41.5 -16t-47.5 -6q-47 0 -76.5 23.5t-29.5 63.5q0 31 23 60.5t65 53.5v720h86v-724h-28q-44 -25 -62.5 -51.5t-18.5 -47.5q0 -20 14.5 -33t37.5 -13q15 0 31 4t30 10z" />
    <glyph glyph-name="iogonek" unicode="&#x12f;" horiz-adv-x="238" 
d="M172 699q0 -21 -15.5 -36t-37.5 -15t-37.5 15t-15.5 36t15.5 36.5t37.5 15.5t37.5 -15.5t15.5 -36.5zM184 -175q-18 -10 -42 -16t-48 -6q-47 0 -76 23.5t-29 63.5q0 32 23.5 60.5t65.5 53.5v535h83v-539h-26q-44 -25 -62.5 -51.5t-18.5 -47.5q0 -20 14 -33t37 -13
q15 0 31 4t30 10z" />
    <glyph glyph-name="Idotaccent" unicode="&#x130;" horiz-adv-x="248" 
d="M81 0v724h86v-724h-86zM177 859q0 -21 -15 -35.5t-37 -14.5t-37.5 14.5t-15.5 35.5t15.5 35.5t37.5 14.5t37 -14.5t15 -35.5z" />
    <glyph glyph-name="dotlessi" unicode="&#x131;" horiz-adv-x="238" 
d="M78 0v539h83v-539h-83z" />
    <glyph glyph-name="IJ" unicode="&#x132;" horiz-adv-x="496" 
d="M415 80q0 -134 -63 -205.5t-172 -93.5v77q34 10 61.5 27.5t46.5 44.5t29.5 64t10.5 86v644h87v-644zM81 0v724h86v-724h-86z" />
    <glyph glyph-name="ij" unicode="&#x133;" horiz-adv-x="477" 
d="M411 699q0 -21 -16 -36t-38 -15t-37.5 15t-15.5 36t15.5 36.5t37.5 15.5t38 -15.5t16 -36.5zM172 699q0 -21 -15.5 -36t-37.5 -15t-37.5 15t-15.5 36t15.5 36.5t37.5 15.5t37.5 -15.5t15.5 -36.5zM399 57q0 -67 -17.5 -115.5t-46.5 -82t-68 -52.5t-81 -28v71
q26 9 49.5 25t41.5 41t28.5 60t10.5 81v482h83v-482zM78 0v539h83v-539h-83z" />
    <glyph glyph-name="Jcircumflex" unicode="&#x134;" horiz-adv-x="248" 
d="M167 80q0 -134 -62.5 -205.5t-171.5 -93.5v77q34 10 61.5 27.5t46.5 44.5t29.5 64t10.5 86v644h86v-644zM224 783l-99 88l-100 -88l-36 31l100 101q17 17 36 17q18 0 35 -17l100 -101z" />
    <glyph glyph-name="jcircumflex" unicode="&#x135;" horiz-adv-x="238" 
d="M161 57q0 -67 -17.5 -115.5t-46.5 -82t-68 -52.5t-81 -28v71q26 9 49.5 25t41.5 41t28.5 60t10.5 81v482h83v-482zM220 598l-99 88l-100 -88l-36 31l100 101q17 17 36 17q18 0 35 -17l100 -101z" />
    <glyph glyph-name="Kcommaaccent" unicode="&#x136;" horiz-adv-x="576" 
d="M459 0l-290 371h-2v-371h-86v724h86v-335h2l284 335h101l-293 -344l300 -380h-102zM266 -215h-62l50 137q20 22 50 22q14 0 25 -6.5t13 -15.5z" />
    <glyph glyph-name="kcommaaccent" unicode="&#x137;" horiz-adv-x="520" 
d="M408 0l-248 277h-2v-277h-82v785h82v-493h2l233 247h100l-242 -255l256 -284h-99zM240 -215h-62l50 137q20 22 50 22q14 0 25 -6.5t13 -15.5z" />
    <glyph glyph-name="kgreenlandic" unicode="&#x138;" horiz-adv-x="520" 
d="M408 0l-248 277h-2v-277h-82v539h82v-247h2l233 247h100l-242 -255l256 -284h-99z" />
    <glyph glyph-name="Lacute" unicode="&#x139;" horiz-adv-x="474" 
d="M81 0v724h86v-650h272v-74h-358zM146 788h-62l74 130q11 11 24.5 17t26.5 6q14 0 24 -6t13 -17z" />
    <glyph glyph-name="lacute" unicode="&#x13a;" horiz-adv-x="238" 
d="M78 0v785h83v-785h-83zM144 831h-62l74 130q11 11 24.5 17t26.5 6q14 0 24 -6t13 -17z" />
    <glyph glyph-name="Lcommaaccent" unicode="&#x13b;" horiz-adv-x="474" 
d="M81 0v724h86v-650h272v-74h-358zM229 -215h-62l50 137q20 22 50 22q14 0 25 -6.5t13 -15.5z" />
    <glyph glyph-name="lcommaaccent" unicode="&#x13c;" horiz-adv-x="238" 
d="M78 0v785h83v-785h-83zM83 -215h-62l50 137q20 22 50 22q14 0 25 -6.5t13 -15.5z" />
    <glyph glyph-name="Lcaron" unicode="&#x13d;" horiz-adv-x="474" 
d="M81 0v724h86v-650h272v-74h-358zM314 553h-52v157q15 21 39 21q25 0 38 -21z" />
    <glyph glyph-name="lcaron" unicode="&#x13e;" horiz-adv-x="238" 
d="M78 0v785h83v-785h-83zM308 614h-52v157q15 21 39 21q25 0 38 -21z" />
    <glyph glyph-name="Ldot" unicode="&#x13f;" horiz-adv-x="474" 
d="M81 0v724h86v-650h272v-74h-358zM364.031 414.254q0 -20.79 -14.1426 -35.1455q-14.1436 -14.3545 -34.8867 -14.3545t-35.3574 14.3545q-14.6152 14.3555 -14.6152 35.1455q0 20.7891 14.6152 35.1445q14.6143 14.3545 35.3574 14.3545t34.8867 -14.3545
q14.1426 -14.3555 14.1426 -35.1445z" />
    <glyph glyph-name="ldot" unicode="&#x140;" horiz-adv-x="308" 
d="M78 0v785h83v-785h-83zM330.031 414.254q0 -20.79 -14.1426 -35.1455q-14.1436 -14.3545 -34.8867 -14.3545t-35.3574 14.3545q-14.6152 14.3555 -14.6152 35.1455q0 20.7891 14.6152 35.1445q14.6143 14.3545 35.3574 14.3545t34.8867 -14.3545
q14.1426 -14.3555 14.1426 -35.1445z" />
    <glyph glyph-name="Lslash" unicode="&#x141;" horiz-adv-x="492" 
d="M98 0v361l-73 -42v67l73 42v296h87v-249l130 74v-67l-130 -74v-334h272v-74h-359z" />
    <glyph glyph-name="lslash" unicode="&#x142;" horiz-adv-x="254" 
d="M168 442v-442h-83v397l-73 -41v64l73 42v323h83v-278l75 42v-64z" />
    <glyph glyph-name="Nacute" unicode="&#x143;" horiz-adv-x="688" 
d="M528 0l-331 531q-15 24 -26.5 47.5t-15.5 31.5h-2q1 -11 1.5 -37t0.5 -51v-522h-76v724h85l326 -521q17 -26 27.5 -48.5t14.5 -30.5h2q0 7 -0.5 33t-0.5 58v509h76v-724h-81zM360 788h-62l74 130q11 11 24.5 17t26.5 6q14 0 24 -6t13 -17z" />
    <glyph glyph-name="nacute" unicode="&#x144;" horiz-adv-x="559" 
d="M403 0v364q0 54 -32.5 86t-98.5 32q-35 0 -65 -5.5t-50 -13.5v-463h-84v512q39 17 88.5 27.5t109.5 10.5q107 0 161 -47t54 -132v-371h-83zM283 603h-62l74 130q11 11 24.5 17t26.5 6q14 0 24 -6t13 -17z" />
    <glyph glyph-name="Ncommaaccent" unicode="&#x145;" horiz-adv-x="688" 
d="M528 0l-331 531q-15 24 -26.5 47.5t-15.5 31.5h-2q1 -11 1.5 -37t0.5 -51v-522h-76v724h85l326 -521q17 -26 27.5 -48.5t14.5 -30.5h2q0 7 -0.5 33t-0.5 58v509h76v-724h-81zM311 -215h-62l50 137q20 22 50 22q14 0 25 -6.5t13 -15.5z" />
    <glyph glyph-name="ncommaaccent" unicode="&#x146;" horiz-adv-x="559" 
d="M403 0v364q0 54 -32.5 86t-98.5 32q-35 0 -65 -5.5t-50 -13.5v-463h-84v512q39 17 88.5 27.5t109.5 10.5q107 0 161 -47t54 -132v-371h-83zM251 -215h-62l50 137q20 22 50 22q14 0 25 -6.5t13 -15.5z" />
    <glyph glyph-name="Ncaron" unicode="&#x147;" horiz-adv-x="688" 
d="M528 0l-331 531q-15 24 -26.5 47.5t-15.5 31.5h-2q1 -11 1.5 -37t0.5 -51v-522h-76v724h85l326 -521q17 -26 27.5 -48.5t14.5 -30.5h2q0 7 -0.5 33t-0.5 58v509h76v-724h-81zM380 802q-17 -17 -35 -17q-19 0 -36 17l-100 101l36 31l100 -88l99 88l36 -31z" />
    <glyph glyph-name="ncaron" unicode="&#x148;" horiz-adv-x="559" 
d="M403 0v364q0 54 -32.5 86t-98.5 32q-35 0 -65 -5.5t-50 -13.5v-463h-84v512q39 17 88.5 27.5t109.5 10.5q107 0 161 -47t54 -132v-371h-83zM302 617q-17 -17 -35 -17q-19 0 -36 17l-100 101l36 31l100 -88l99 88l36 -31z" />
    <glyph glyph-name="napostrophe" unicode="&#x149;" horiz-adv-x="559" 
d="M403 0v364q0 54 -32.5 86t-98.5 32q-35 0 -65 -5.5t-50 -13.5v-463h-84v512q39 17 88.5 27.5t109.5 10.5q107 0 161 -47t54 -132v-371h-83zM53 615h-52v157q15 21 39 21q25 0 38 -21z" />
    <glyph glyph-name="Eng" unicode="&#x14a;" horiz-adv-x="688" 
d="M609 50q0 -60 -15.5 -106t-42 -79.5t-62 -54.5t-76.5 -30l-20 65q50 14 88 51t48 103l-332 532q-17 27 -28.5 50.5t-13.5 28.5h-2q0 -3 1 -29.5t1 -58.5v-522h-76v724h85l326 -521q17 -26 25.5 -44t16.5 -35h2q0 6 -0.5 32.5t-0.5 58.5v509h76v-674z" />
    <glyph glyph-name="eng" unicode="&#x14b;" horiz-adv-x="559" 
d="M486 39q0 -57 -15 -101t-40.5 -75.5t-59 -51.5t-70.5 -30l-29 63q26 9 49.5 24.5t41.5 39.5t29 56.5t11 74.5v325q0 54 -32.5 86t-98.5 32q-35 0 -65 -5.5t-50 -13.5v-463h-84v512q39 17 88.5 27.5t109.5 10.5q107 0 161 -47t54 -132v-332z" />
    <glyph glyph-name="Omacron" unicode="&#x14c;" horiz-adv-x="668" 
d="M611 362q0 -77 -17.5 -145t-52 -118.5t-86.5 -80t-121 -29.5t-121 29.5t-86.5 80t-52 118.5t-17.5 145t17.5 145t52 118.5t86.5 80t121 29.5t121 -29.5t86.5 -80t52 -118.5t17.5 -145zM525 362q0 63 -12 117t-36 93.5t-60 62.5t-83 23t-83 -23t-60 -62.5t-36 -93.5
t-12 -117t12 -117t36 -93.5t60 -62.5t83 -23t83 23t60 62.5t36 93.5t12 117zM208 818v57h249v-57h-249z" />
    <glyph glyph-name="omacron" unicode="&#x14d;" horiz-adv-x="564" 
d="M511 270q0 -60 -15 -111.5t-44 -89t-71.5 -59t-98.5 -21.5t-98.5 21.5t-71.5 59t-44 89t-15 111.5t15 111t44 88.5t71.5 59t98.5 21.5t98.5 -21.5t71.5 -59t44 -88.5t15 -111zM428 271q0 46 -9 85t-27 67t-45.5 43.5t-64.5 15.5t-64.5 -15.5t-45.5 -43.5t-27 -67t-9 -85
q0 -47 9 -86t27 -67t45.5 -44t64.5 -16t64.5 16t45.5 44t27 67t9 86zM158 632v57h249v-57h-249z" />
    <glyph glyph-name="Obreve" unicode="&#x14e;" horiz-adv-x="668" 
d="M611 362q0 -77 -17.5 -145t-52 -118.5t-86.5 -80t-121 -29.5t-121 29.5t-86.5 80t-52 118.5t-17.5 145t17.5 145t52 118.5t86.5 80t121 29.5t121 -29.5t86.5 -80t52 -118.5t17.5 -145zM525 362q0 63 -12 117t-36 93.5t-60 62.5t-83 23t-83 -23t-60 -62.5t-36 -93.5
t-12 -117t12 -117t36 -93.5t60 -62.5t83 -23t83 23t60 62.5t36 93.5t12 117zM469 918q-4 -62 -38.5 -98t-96.5 -36t-97 36t-39 98l52 9q7 -43 26.5 -65t57.5 -22t57 22t26 65z" />
    <glyph glyph-name="obreve" unicode="&#x14f;" horiz-adv-x="564" 
d="M511 270q0 -60 -15 -111.5t-44 -89t-71.5 -59t-98.5 -21.5t-98.5 21.5t-71.5 59t-44 89t-15 111.5t15 111t44 88.5t71.5 59t98.5 21.5t98.5 -21.5t71.5 -59t44 -88.5t15 -111zM428 271q0 46 -9 85t-27 67t-45.5 43.5t-64.5 15.5t-64.5 -15.5t-45.5 -43.5t-27 -67t-9 -85
q0 -47 9 -86t27 -67t45.5 -44t64.5 -16t64.5 16t45.5 44t27 67t9 86zM417 733q-4 -62 -38.5 -98t-96.5 -36t-97 36t-39 98l52 9q7 -43 26.5 -65t57.5 -22t57 22t26 65z" />
    <glyph glyph-name="Ohungarumlaut" unicode="&#x150;" horiz-adv-x="668" 
d="M611 362q0 -77 -17.5 -145t-52 -118.5t-86.5 -80t-121 -29.5t-121 29.5t-86.5 80t-52 118.5t-17.5 145t17.5 145t52 118.5t86.5 80t121 29.5t121 -29.5t86.5 -80t52 -118.5t17.5 -145zM525 362q0 63 -12 117t-36 93.5t-60 62.5t-83 23t-83 -23t-60 -62.5t-36 -93.5
t-12 -117t12 -117t36 -93.5t60 -62.5t83 -23t83 23t60 62.5t36 93.5t12 117zM419 788h-53l77 130q20 23 45 23q23 0 30 -23zM274 788h-53l77 130q20 23 45 23q23 0 30 -23z" />
    <glyph glyph-name="ohungarumlaut" unicode="&#x151;" horiz-adv-x="564" 
d="M511 270q0 -60 -15 -111.5t-44 -89t-71.5 -59t-98.5 -21.5t-98.5 21.5t-71.5 59t-44 89t-15 111.5t15 111t44 88.5t71.5 59t98.5 21.5t98.5 -21.5t71.5 -59t44 -88.5t15 -111zM428 271q0 46 -9 85t-27 67t-45.5 43.5t-64.5 15.5t-64.5 -15.5t-45.5 -43.5t-27 -67t-9 -85
q0 -47 9 -86t27 -67t45.5 -44t64.5 -16t64.5 16t45.5 44t27 67t9 86zM368 603h-53l77 130q20 23 45 23q23 0 30 -23zM223 603h-53l77 130q20 23 45 23q23 0 30 -23z" />
    <glyph glyph-name="OE" unicode="&#x152;" horiz-adv-x="897" 
d="M488 0q-26 -5 -53.5 -8t-53.5 -3q-78 0 -138 25.5t-101.5 73.5t-63 117.5t-21.5 156.5t21.5 156.5t63 117.5t101.5 73.5t138 25.5q52 0 107 -11h359v-74h-289v-242h266v-72h-266v-262h289v-74h-359zM473 652q-48 9 -90 9q-117 0 -178.5 -77t-61.5 -222t61.5 -222
t178.5 -77q42 0 90 9v580z" />
    <glyph glyph-name="oe" unicode="&#x153;" horiz-adv-x="925" 
d="M873 298q0 -7 -1 -15l-367 -53q8 -87 55.5 -130t125.5 -43q40 0 80 9t66 24l25 -63q-29 -16 -75 -27t-100 -11q-78 0 -132.5 33t-81.5 99q-23 -60 -69 -96t-117 -36q-56 0 -98.5 21.5t-71.5 59t-44 89t-15 111.5t15 111t44 88.5t71.5 59t98.5 21.5q70 0 115.5 -35
t68.5 -95q24 61 73 95.5t118 34.5q101 0 158.5 -62.5t57.5 -173.5v-16zM428 271q0 46 -9 85t-27 67t-45.5 43.5t-64.5 15.5t-64.5 -15.5t-45.5 -43.5t-27 -67t-9 -85q0 -47 9 -86t27 -67t45.5 -44t64.5 -16t64.5 16t45.5 44t27 67t9 86zM791 330q-1 80 -38 118t-98 38
q-72 0 -113 -53t-43 -145z" />
    <glyph glyph-name="Racute" unicode="&#x154;" horiz-adv-x="603" 
d="M475 0l-113 236q-19 40 -48 61t-75 21h-74v-318h-84v696q38 18 89.5 28.5t105.5 10.5q63 0 110.5 -15t80 -42t48.5 -65t16 -83q0 -43 -12.5 -75.5t-35 -55t-53 -36.5t-66.5 -20v-2q28 -14 48 -39t37 -59l118 -243h-92zM447 527q0 64 -41.5 102t-128.5 38q-32 0 -62 -5
t-50 -13v-266h95q87 0 137 32.5t50 111.5zM309 788h-62l74 130q11 11 24.5 17t26.5 6q14 0 24 -6t13 -17z" />
    <glyph glyph-name="racute" unicode="&#x155;" horiz-adv-x="353" 
d="M307 476q-11 2 -23 3t-25 1q-28 0 -55.5 -4.5t-46.5 -12.5v-463h-84v512q37 17 89 27.5t108 10.5q15 0 28.5 -1t24.5 -3zM197 603h-62l74 130q11 11 24.5 17t26.5 6q14 0 24 -6t13 -17z" />
    <glyph glyph-name="Rcommaaccent" unicode="&#x156;" horiz-adv-x="603" 
d="M475 0l-113 236q-19 40 -48 61t-75 21h-74v-318h-84v696q38 18 89.5 28.5t105.5 10.5q63 0 110.5 -15t80 -42t48.5 -65t16 -83q0 -43 -12.5 -75.5t-35 -55t-53 -36.5t-66.5 -20v-2q28 -14 48 -39t37 -59l118 -243h-92zM447 527q0 64 -41.5 102t-128.5 38q-32 0 -62 -5
t-50 -13v-266h95q87 0 137 32.5t50 111.5zM274 -215h-62l50 137q20 22 50 22q14 0 25 -6.5t13 -15.5z" />
    <glyph glyph-name="rcommaaccent" unicode="&#x157;" horiz-adv-x="353" 
d="M307 476q-11 2 -23 3t-25 1q-28 0 -55.5 -4.5t-46.5 -12.5v-463h-84v512q37 17 89 27.5t108 10.5q15 0 28.5 -1t24.5 -3zM85 -215h-62l50 137q20 22 50 22q14 0 25 -6.5t13 -15.5z" />
    <glyph glyph-name="Rcaron" unicode="&#x158;" horiz-adv-x="603" 
d="M475 0l-113 236q-19 40 -48 61t-75 21h-74v-318h-84v696q38 18 89.5 28.5t105.5 10.5q63 0 110.5 -15t80 -42t48.5 -65t16 -83q0 -43 -12.5 -75.5t-35 -55t-53 -36.5t-66.5 -20v-2q28 -14 48 -39t37 -59l118 -243h-92zM447 527q0 64 -41.5 102t-128.5 38q-32 0 -62 -5
t-50 -13v-266h95q87 0 137 32.5t50 111.5zM321 802q-17 -17 -35 -17q-19 0 -36 17l-100 101l36 31l100 -88l99 88l36 -31z" />
    <glyph glyph-name="rcaron" unicode="&#x159;" horiz-adv-x="353" 
d="M307 476q-11 2 -23 3t-25 1q-28 0 -55.5 -4.5t-46.5 -12.5v-463h-84v512q37 17 89 27.5t108 10.5q15 0 28.5 -1t24.5 -3zM228 617q-17 -17 -35 -17q-19 0 -36 17l-100 101l36 31l100 -88l99 88l36 -31z" />
    <glyph glyph-name="Sacute" unicode="&#x15a;" horiz-adv-x="519" 
d="M464 197q0 -48 -17.5 -86.5t-49.5 -65.5t-76.5 -41.5t-98.5 -14.5q-93 0 -174 38l30 74q31 -16 66.5 -25t74.5 -9q69 0 113 33t44 93q0 40 -24 66.5t-59.5 46.5t-77 38.5t-77 43t-59.5 60.5t-24 91q0 45 16.5 81.5t45.5 62t70 39t91 13.5q46 0 85.5 -10t72.5 -28l-29 -70
q-28 16 -59 24.5t-67 8.5q-61 0 -100 -30.5t-39 -86.5q0 -40 24 -65.5t59.5 -45.5t77.5 -38.5t77.5 -44t59.5 -61.5t24 -91zM277 788h-62l74 130q11 11 24.5 17t26.5 6q14 0 24 -6t13 -17z" />
    <glyph glyph-name="sacute" unicode="&#x15b;" horiz-adv-x="453" 
d="M403 144q0 -70 -52.5 -112.5t-148.5 -42.5q-42 0 -83 9.5t-77 28.5l30 64q27 -15 62 -24.5t67 -9.5q52 0 83.5 23.5t31.5 63.5q0 21 -8 36.5t-22.5 27t-34.5 20.5t-44 18q-29 10 -56 23t-48 31t-34 43.5t-13 61.5q0 63 46.5 104t132.5 41q42 0 80.5 -10t69.5 -28l-29 -59
q-23 14 -52 23t-61 9q-49 0 -75.5 -23t-26.5 -57q0 -22 8.5 -37.5t23 -27t34 -19.5t40.5 -16q30 -11 58 -23.5t50 -30.5t35 -43.5t13 -63.5zM244 603h-62l74 130q11 11 24.5 17t26.5 6q14 0 24 -6t13 -17z" />
    <glyph glyph-name="Scircumflex" unicode="&#x15c;" horiz-adv-x="519" 
d="M464 197q0 -48 -17.5 -86.5t-49.5 -65.5t-76.5 -41.5t-98.5 -14.5q-93 0 -174 38l30 74q31 -16 66.5 -25t74.5 -9q69 0 113 33t44 93q0 40 -24 66.5t-59.5 46.5t-77 38.5t-77 43t-59.5 60.5t-24 91q0 45 16.5 81.5t45.5 62t70 39t91 13.5q46 0 85.5 -10t72.5 -28l-29 -70
q-28 16 -59 24.5t-67 8.5q-61 0 -100 -30.5t-39 -86.5q0 -40 24 -65.5t59.5 -45.5t77.5 -38.5t77.5 -44t59.5 -61.5t24 -91zM356 783l-99 88l-100 -88l-36 31l100 101q17 17 36 17q18 0 35 -17l100 -101z" />
    <glyph glyph-name="scircumflex" unicode="&#x15d;" horiz-adv-x="453" 
d="M403 144q0 -70 -52.5 -112.5t-148.5 -42.5q-42 0 -83 9.5t-77 28.5l30 64q27 -15 62 -24.5t67 -9.5q52 0 83.5 23.5t31.5 63.5q0 21 -8 36.5t-22.5 27t-34.5 20.5t-44 18q-29 10 -56 23t-48 31t-34 43.5t-13 61.5q0 63 46.5 104t132.5 41q42 0 80.5 -10t69.5 -28l-29 -59
q-23 14 -52 23t-61 9q-49 0 -75.5 -23t-26.5 -57q0 -22 8.5 -37.5t23 -27t34 -19.5t40.5 -16q30 -11 58 -23.5t50 -30.5t35 -43.5t13 -63.5zM328 598l-99 88l-100 -88l-36 31l100 101q17 17 36 17q18 0 35 -17l100 -101z" />
    <glyph glyph-name="Scedilla" unicode="&#x15e;" horiz-adv-x="519" 
d="M464 197q0 -48 -17.5 -86.5t-49.5 -65.5t-76.5 -41.5t-98.5 -14.5q-93 0 -174 38l30 74q31 -16 66.5 -25t74.5 -9q69 0 113 33t44 93q0 40 -24 66.5t-59.5 46.5t-77 38.5t-77 43t-59.5 60.5t-24 91q0 45 16.5 81.5t45.5 62t70 39t91 13.5q46 0 85.5 -10t72.5 -28l-29 -70
q-28 16 -59 24.5t-67 8.5q-61 0 -100 -30.5t-39 -86.5q0 -40 24 -65.5t59.5 -45.5t77.5 -38.5t77.5 -44t59.5 -61.5t24 -91zM344 -125q0 -40 -42 -60t-119 -20q-17 0 -36.5 1t-39.5 3l22 41q27 -3 52 -3q43 0 70 9t27 29q0 17 -15.5 23.5t-46.5 6.5q-24 0 -54 -3l20 39
q28 3 51 3q62 0 86.5 -20t24.5 -49z" />
    <glyph glyph-name="scedilla" unicode="&#x15f;" horiz-adv-x="453" 
d="M403 144q0 -70 -52.5 -112.5t-148.5 -42.5q-42 0 -83 9.5t-77 28.5l30 64q27 -15 62 -24.5t67 -9.5q52 0 83.5 23.5t31.5 63.5q0 21 -8 36.5t-22.5 27t-34.5 20.5t-44 18q-29 10 -56 23t-48 31t-34 43.5t-13 61.5q0 63 46.5 104t132.5 41q42 0 80.5 -10t69.5 -28l-29 -59
q-23 14 -52 23t-61 9q-49 0 -75.5 -23t-26.5 -57q0 -22 8.5 -37.5t23 -27t34 -19.5t40.5 -16q30 -11 58 -23.5t50 -30.5t35 -43.5t13 -63.5zM318 -125q0 -40 -42 -60t-119 -20q-17 0 -36.5 1t-39.5 3l22 41q27 -3 52 -3q43 0 70 9t27 29q0 17 -15.5 23.5t-46.5 6.5
q-24 0 -54 -3l20 39q28 3 51 3q62 0 86.5 -20t24.5 -49z" />
    <glyph glyph-name="Scaron" unicode="&#x160;" horiz-adv-x="519" 
d="M464 197q0 -48 -17.5 -86.5t-49.5 -65.5t-76.5 -41.5t-98.5 -14.5q-93 0 -174 38l30 74q31 -16 66.5 -25t74.5 -9q69 0 113 33t44 93q0 40 -24 66.5t-59.5 46.5t-77 38.5t-77 43t-59.5 60.5t-24 91q0 45 16.5 81.5t45.5 62t70 39t91 13.5q46 0 85.5 -10t72.5 -28l-29 -70
q-28 16 -59 24.5t-67 8.5q-61 0 -100 -30.5t-39 -86.5q0 -40 24 -65.5t59.5 -45.5t77.5 -38.5t77.5 -44t59.5 -61.5t24 -91zM292 802q-17 -17 -35 -17q-19 0 -36 17l-100 101l36 31l100 -88l99 88l36 -31z" />
    <glyph glyph-name="scaron" unicode="&#x161;" horiz-adv-x="453" 
d="M403 144q0 -70 -52.5 -112.5t-148.5 -42.5q-42 0 -83 9.5t-77 28.5l30 64q27 -15 62 -24.5t67 -9.5q52 0 83.5 23.5t31.5 63.5q0 21 -8 36.5t-22.5 27t-34.5 20.5t-44 18q-29 10 -56 23t-48 31t-34 43.5t-13 61.5q0 63 46.5 104t132.5 41q42 0 80.5 -10t69.5 -28l-29 -59
q-23 14 -52 23t-61 9q-49 0 -75.5 -23t-26.5 -57q0 -22 8.5 -37.5t23 -27t34 -19.5t40.5 -16q30 -11 58 -23.5t50 -30.5t35 -43.5t13 -63.5zM264 617q-17 -17 -35 -17q-19 0 -36 17l-100 101l36 31l100 -88l99 88l36 -31z" />
    <glyph glyph-name="Tcommaaccent" unicode="&#x162;" horiz-adv-x="512" 
d="M299 650v-650h-86v650h-180v74h446v-74h-180zM372 -125q0 -40 -42 -60t-119 -20q-17 0 -36.5 1t-39.5 3l22 41q27 -3 52 -3q43 0 70 9t27 29q0 17 -15.5 23.5t-46.5 6.5q-24 0 -54 -3l20 39q28 3 51 3q62 0 86.5 -20t24.5 -49z" />
    <glyph glyph-name="tcommaaccent" unicode="&#x163;" horiz-adv-x="347" 
d="M308 3q-8 -4 -23 -6.5t-32 -2.5q-66 0 -104 36t-38 110v336h-78v63h78v130l81 27v-157h116v-63h-116v-332q0 -42 24 -59t57 -17q22 0 35 5v-70zM306 -125q0 -40 -42 -60t-119 -20q-17 0 -36.5 1t-39.5 3l22 41q27 -3 52 -3q43 0 70 9t27 29q0 17 -15.5 23.5t-46.5 6.5
q-24 0 -54 -3l20 39q28 3 51 3q62 0 86.5 -20t24.5 -49z" />
    <glyph glyph-name="Tcaron" unicode="&#x164;" horiz-adv-x="512" 
d="M299 650v-650h-86v650h-180v74h446v-74h-180zM291 802q-17 -17 -35 -17q-19 0 -36 17l-100 101l36 31l100 -88l99 88l36 -31z" />
    <glyph glyph-name="tcaron" unicode="&#x165;" horiz-adv-x="347" 
d="M308 3q-8 -4 -23 -6.5t-32 -2.5q-66 0 -104 36t-38 110v336h-78v63h78v130l81 27v-157h116v-63h-116v-332q0 -42 24 -59t57 -17q22 0 35 5v-70zM340 614h-52v157q15 21 39 21q25 0 38 -21z" />
    <glyph glyph-name="Tbar" unicode="&#x166;" horiz-adv-x="512" 
d="M299 650v-218h146v-60h-146v-372h-86v372h-147v60h147v218h-180v74h446v-74h-180z" />
    <glyph glyph-name="tbar" unicode="&#x167;" horiz-adv-x="347" 
d="M308 3q-8 -4 -23 -6.5t-32 -2.5q-66 0 -104 36t-38 110v156h-78v50h78v132h-78v61h78v130l81 27v-157h116v-61h-116v-132h116v-50h-116v-152q0 -42 24 -59t57 -17q22 0 35 5v-70z" />
    <glyph glyph-name="Utilde" unicode="&#x168;" horiz-adv-x="628" 
d="M549 207q0 -51 -18 -91.5t-50 -68t-75 -42.5t-92 -15q-50 0 -92.5 15t-74.5 42.5t-50 68t-18 91.5v517h87v-517q0 -33 11.5 -59.5t31.5 -45t47 -28t58 -9.5t58 9.5t47 28t31.5 45t11.5 59.5v517h87v-517zM450 884q-5 -35 -25 -60t-55 -25q-20 0 -33.5 8t-24.5 17t-22 17
t-24 8q-19 0 -30.5 -15t-15.5 -37l-43 26q5 35 25 59.5t55 24.5q19 0 33 -7.5t25 -17t21.5 -17t24.5 -7.5q19 0 30.5 15t15.5 37z" />
    <glyph glyph-name="utilde" unicode="&#x169;" horiz-adv-x="551" 
d="M478 27q-31 -16 -84 -27t-113 -11q-101 0 -154.5 45.5t-53.5 143.5v361h84v-362q0 -118 124 -118q37 0 67.5 5.5t46.5 12.5v462h83v-512zM411 699q-5 -35 -25 -60t-55 -25q-20 0 -33.5 8t-24.5 17t-22 17t-24 8q-19 0 -30.5 -15t-15.5 -37l-43 26q5 35 25 59.5t55 24.5
q19 0 33 -7.5t25 -17t21.5 -17t24.5 -7.5q19 0 30.5 15t15.5 37z" />
    <glyph glyph-name="Umacron" unicode="&#x16a;" horiz-adv-x="628" 
d="M549 207q0 -51 -18 -91.5t-50 -68t-75 -42.5t-92 -15q-50 0 -92.5 15t-74.5 42.5t-50 68t-18 91.5v517h87v-517q0 -33 11.5 -59.5t31.5 -45t47 -28t58 -9.5t58 9.5t47 28t31.5 45t11.5 59.5v517h87v-517zM190 818v57h249v-57h-249z" />
    <glyph glyph-name="umacron" unicode="&#x16b;" horiz-adv-x="551" 
d="M478 27q-31 -16 -84 -27t-113 -11q-101 0 -154.5 45.5t-53.5 143.5v361h84v-362q0 -118 124 -118q37 0 67.5 5.5t46.5 12.5v462h83v-512zM151 632v57h249v-57h-249z" />
    <glyph glyph-name="Ubreve" unicode="&#x16c;" horiz-adv-x="628" 
d="M549 207q0 -51 -18 -91.5t-50 -68t-75 -42.5t-92 -15q-50 0 -92.5 15t-74.5 42.5t-50 68t-18 91.5v517h87v-517q0 -33 11.5 -59.5t31.5 -45t47 -28t58 -9.5t58 9.5t47 28t31.5 45t11.5 59.5v517h87v-517zM450 918q-4 -62 -38.5 -98t-96.5 -36t-97 36t-39 98l52 9
q7 -43 26.5 -65t57.5 -22t57 22t26 65z" />
    <glyph glyph-name="ubreve" unicode="&#x16d;" horiz-adv-x="551" 
d="M478 27q-31 -16 -84 -27t-113 -11q-101 0 -154.5 45.5t-53.5 143.5v361h84v-362q0 -118 124 -118q37 0 67.5 5.5t46.5 12.5v462h83v-512zM411 733q-4 -62 -38.5 -98t-96.5 -36t-97 36t-39 98l52 9q7 -43 26.5 -65t57.5 -22t57 22t26 65z" />
    <glyph glyph-name="Uring" unicode="&#x16e;" horiz-adv-x="628" 
d="M549 207q0 -51 -18 -91.5t-50 -68t-75 -42.5t-92 -15q-50 0 -92.5 15t-74.5 42.5t-50 68t-18 91.5v517h87v-517q0 -33 11.5 -59.5t31.5 -45t47 -28t58 -9.5t58 9.5t47 28t31.5 45t11.5 59.5v517h87v-517zM407 871q0 -19 -7 -35.5t-20 -28.5t-30 -19t-36 -7q-20 0 -37 7
t-29.5 19t-20 28.5t-7.5 35.5q0 38 27.5 63.5t66.5 25.5t66 -25.5t27 -63.5zM365 871q0 21 -15 35.5t-36 14.5t-36.5 -14.5t-15.5 -35.5t15.5 -36t36.5 -15t36 15t15 36z" />
    <glyph glyph-name="uring" unicode="&#x16f;" horiz-adv-x="551" 
d="M478 27q-31 -16 -84 -27t-113 -11q-101 0 -154.5 45.5t-53.5 143.5v361h84v-362q0 -118 124 -118q37 0 67.5 5.5t46.5 12.5v462h83v-512zM369 686q0 -19 -7 -35.5t-20 -28.5t-30 -19t-36 -7q-20 0 -37 7t-29.5 19t-20 28.5t-7.5 35.5q0 38 27.5 63.5t66.5 25.5t66 -25.5
t27 -63.5zM327 686q0 21 -15 35.5t-36 14.5t-36.5 -14.5t-15.5 -35.5t15.5 -36t36.5 -15t36 15t15 36z" />
    <glyph glyph-name="Uhungarumlaut" unicode="&#x170;" horiz-adv-x="628" 
d="M549 207q0 -51 -18 -91.5t-50 -68t-75 -42.5t-92 -15q-50 0 -92.5 15t-74.5 42.5t-50 68t-18 91.5v517h87v-517q0 -33 11.5 -59.5t31.5 -45t47 -28t58 -9.5t58 9.5t47 28t31.5 45t11.5 59.5v517h87v-517zM395 788h-53l77 130q20 23 45 23q23 0 30 -23zM250 788h-53
l77 130q20 23 45 23q23 0 30 -23z" />
    <glyph glyph-name="uhungarumlaut" unicode="&#x171;" horiz-adv-x="551" 
d="M478 27q-31 -16 -84 -27t-113 -11q-101 0 -154.5 45.5t-53.5 143.5v361h84v-362q0 -118 124 -118q37 0 67.5 5.5t46.5 12.5v462h83v-512zM361 603h-53l77 130q20 23 45 23q23 0 30 -23zM216 603h-53l77 130q20 23 45 23q23 0 30 -23z" />
    <glyph glyph-name="Uogonek" unicode="&#x172;" horiz-adv-x="628" 
d="M549 207q0 -41 -12 -75.5t-34 -61t-52 -44.5t-66 -27q-42 -25 -61 -51t-19 -47q0 -20 14.5 -33t37.5 -13q15 0 31 4t30 10l17 -44q-18 -10 -41.5 -16t-47.5 -6q-47 0 -76.5 23.5t-29.5 63.5q0 27 17.5 52t49.5 48q-48 1 -90 16t-72.5 43t-48 68t-17.5 90v517h87v-517
q0 -33 11.5 -59.5t31.5 -45t47 -28t58 -9.5t58 9.5t47 28t31.5 45t11.5 59.5v517h87v-517z" />
    <glyph glyph-name="uogonek" unicode="&#x173;" horiz-adv-x="551" 
d="M478 27q-17 -8 -39 -15q-56 -27 -79.5 -57t-23.5 -54q0 -20 14.5 -33t37.5 -13q15 0 31 4t30 10l17 -44q-18 -10 -42 -16t-48 -6q-47 0 -76 23.5t-29 63.5q0 28 18.5 53.5t52.5 48.5q-29 -3 -61 -3q-101 0 -154.5 45.5t-53.5 143.5v361h84v-362q0 -118 124 -118
q37 0 67.5 5.5t46.5 12.5v462h83v-512z" />
    <glyph glyph-name="Wcircumflex" unicode="&#x174;" horiz-adv-x="908" 
d="M687 0h-87l-127 512q-8 35 -12 59.5t-6 38.5h-2q-2 -14 -6 -40t-12 -58l-127 -512h-87l-183 724h87l124 -527q6 -26 11 -53.5t7 -42.5h2q2 16 7 43t11 53l129 527h76l129 -527q6 -25 10.5 -51t7.5 -45h2q3 20 7.5 45t10.5 51l124 527h87zM554 783l-99 88l-100 -88l-36 31
l100 101q17 17 36 17q18 0 35 -17l100 -101z" />
    <glyph glyph-name="wcircumflex" unicode="&#x175;" horiz-adv-x="827" 
d="M626 0h-85l-110 376q-5 18 -9.5 40.5t-6.5 33.5h-2q-3 -14 -6 -31t-11 -43l-110 -376h-85l-164 539h84l106 -381q8 -27 11.5 -48t5.5 -34h2q2 13 6.5 35.5t11.5 46.5l110 381h80l109 -381q8 -27 12.5 -49t6.5 -33h2q2 12 6.5 37t9.5 45l107 381h83zM513 598l-99 88
l-100 -88l-36 31l100 101q17 17 36 17q18 0 35 -17l100 -101z" />
    <glyph glyph-name="Ycircumflex" unicode="&#x176;" horiz-adv-x="593" 
d="M340 290v-290h-87v290l-230 434h94l179 -347h2l178 347h94zM396 783l-99 88l-100 -88l-36 31l100 101q17 17 36 17q18 0 35 -17l100 -101z" />
    <glyph glyph-name="ycircumflex" unicode="&#x177;" horiz-adv-x="550" 
d="M238 -215h-87l81 215l-202 539h91l134 -392q6 -17 11 -38.5t8 -38.5h2q2 8 6.5 31t12.5 46l133 392h92zM374 598l-99 88l-100 -88l-36 31l100 101q17 17 36 17q18 0 35 -17l100 -101z" />
    <glyph glyph-name="Ydieresis" unicode="&#x178;" horiz-adv-x="593" 
d="M340 290v-290h-87v290l-230 434h94l179 -347h2l178 347h94zM253 854q0 -19 -14 -32.5t-34 -13.5t-34 13.5t-14 32.5t14 32.5t34 13.5t34 -13.5t14 -32.5zM437 854q0 -19 -14 -32.5t-34 -13.5t-34 13.5t-14 32.5t14 32.5t34 13.5t34 -13.5t14 -32.5z" />
    <glyph glyph-name="Zacute" unicode="&#x179;" horiz-adv-x="516" 
d="M29 0l316 650h-297v74h420l-316 -650h318v-74h-441zM269 788h-62l74 130q11 11 24.5 17t26.5 6q14 0 24 -6t13 -17z" />
    <glyph glyph-name="zacute" unicode="&#x17a;" horiz-adv-x="463" 
d="M32 0l260 471h-244v68h364l-259 -471h267v-68h-388zM244 603h-62l74 130q11 11 24.5 17t26.5 6q14 0 24 -6t13 -17z" />
    <glyph glyph-name="Zdotaccent" unicode="&#x17b;" horiz-adv-x="516" 
d="M29 0l316 650h-297v74h420l-316 -650h318v-74h-441zM308 859q0 -21 -15 -35.5t-37 -14.5t-37.5 14.5t-15.5 35.5t15.5 35.5t37.5 14.5t37 -14.5t15 -35.5z" />
    <glyph glyph-name="zdotaccent" unicode="&#x17c;" horiz-adv-x="463" 
d="M32 0l260 471h-244v68h364l-259 -471h267v-68h-388zM278 674q0 -21 -15 -35.5t-37 -14.5t-37.5 14.5t-15.5 35.5t15.5 35.5t37.5 14.5t37 -14.5t15 -35.5z" />
    <glyph glyph-name="Zcaron" unicode="&#x17d;" horiz-adv-x="516" 
d="M29 0l316 650h-297v74h420l-316 -650h318v-74h-441zM284 802q-17 -17 -35 -17q-19 0 -36 17l-100 101l36 31l100 -88l99 88l36 -31z" />
    <glyph glyph-name="zcaron" unicode="&#x17e;" horiz-adv-x="463" 
d="M32 0l260 471h-244v68h364l-259 -471h267v-68h-388zM260 617q-17 -17 -35 -17q-19 0 -36 17l-100 101l36 31l100 -88l99 88l36 -31z" />
    <glyph glyph-name="longs" unicode="&#x17f;" horiz-adv-x="269" 
d="M323 717q-7 2 -16 2h-16q-69 0 -99.5 -33t-30.5 -109v-792h-83v792q0 109 51.5 159.5t150.5 50.5q11 0 23 -0.5t20 -2.5v-67z" />
    <glyph glyph-name="uni018F" unicode="&#x18f;" horiz-adv-x="667" 
d="M610 371q0 -77 -17.5 -146t-53.5 -121.5t-90 -83.5t-126 -31q-69 0 -119.5 29t-83.5 77.5t-49 111t-16 128.5v9q0 6 1 14l465 68q-6 56 -25 100t-49.5 74t-71.5 46t-90 16q-42 0 -83.5 -7.5t-75.5 -23.5l-31 66q42 19 93 28.5t105 9.5q76 0 135 -28t99.5 -76.5t61.5 -115
t21 -144.5zM142 299q2 -47 14.5 -89.5t35 -74.5t55.5 -51.5t76 -19.5q51 0 89 24t63 64.5t37.5 93t12.5 110.5z" />
    <glyph glyph-name="florin" unicode="&#x192;" horiz-adv-x="557" 
d="M499 649q-8 4 -21 7t-27 3q-47 0 -70.5 -26t-31.5 -82l-17 -132h132v-69h-141l-52 -400q-11 -85 -54.5 -129t-123.5 -44q-22 0 -44 4t-38 12l26 71q8 -4 21 -7t27 -3q47 0 70.5 26t31.5 82l50 388h-113v69h122l18 140q11 85 55 129t124 44q22 0 43.5 -4t37.5 -12z" />
    <glyph glyph-name="uni01B5" unicode="&#x1b5;" horiz-adv-x="516" 
d="M29 0l166 342h-130v60h159l121 248h-297v74h420l-157 -322h135v-60h-164l-130 -268h318v-74h-441z" />
    <glyph glyph-name="uni01B6" unicode="&#x1b6;" horiz-adv-x="463" 
d="M32 0l137 249h-100v53h130l93 169h-244v68h364l-130 -237h105v-53h-134l-100 -181h267v-68h-388z" />
    <glyph glyph-name="uni01C4" unicode="&#x1c4;" horiz-adv-x="1134" 
d="M580 362q0 -93 -23.5 -163t-65 -116.5t-99 -70t-125.5 -23.5q-58 0 -108.5 11t-79.5 27v670q33 17 82 27.5t106 10.5q68 0 125.5 -23.5t99 -70t65 -116.5t23.5 -163zM493 362q0 78 -17.5 134.5t-47.5 93t-70.5 54t-86.5 17.5q-31 0 -59.5 -4.5t-45.5 -12.5v-564
q14 -8 42.5 -12.5t62.5 -4.5q46 0 86.5 17.5t70.5 54t47.5 93t17.5 134.5zM647 0l316 650h-297v74h420l-316 -650h318v-74h-441zM902 802q-17 -17 -35 -17q-19 0 -36 17l-100 101l36 31l100 -88l99 88l36 -31z" />
    <glyph glyph-name="uni01C5" unicode="&#x1c5;" horiz-adv-x="1094" 
d="M580 362q0 -93 -23.5 -163t-65 -116.5t-99 -70t-125.5 -23.5q-58 0 -108.5 11t-79.5 27v670q33 17 82 27.5t106 10.5q68 0 125.5 -23.5t99 -70t65 -116.5t23.5 -163zM493 362q0 78 -17.5 134.5t-47.5 93t-70.5 54t-86.5 17.5q-31 0 -59.5 -4.5t-45.5 -12.5v-564
q14 -8 42.5 -12.5t62.5 -4.5q46 0 86.5 17.5t70.5 54t47.5 93t17.5 134.5zM663 0l260 471h-244v68h364l-259 -471h267v-68h-388zM891 617q-17 -17 -35 -17q-19 0 -36 17l-100 101l36 31l100 -88l99 88l36 -31z" />
    <glyph glyph-name="uni01C6" unicode="&#x1c6;" horiz-adv-x="1018" 
d="M482 27q-12 -7 -30.5 -14t-41.5 -12t-48.5 -8.5t-52.5 -3.5q-62 0 -109.5 19.5t-80 55t-49.5 86t-17 113.5q0 62 16.5 113.5t48 89t78 58t106.5 20.5q28 0 55 -4.5t42 -9.5v255h83v-758zM399 465q-12 5 -39 9t-52 4q-42 0 -74.5 -16t-54 -45t-32.5 -68.5t-11 -85.5
q0 -94 44 -150t128 -56q13 0 26.5 1.5t26 4t22.5 5.5t16 6v391zM587 0l260 471h-244v68h364l-259 -471h267v-68h-388zM815 617q-17 -17 -35 -17q-19 0 -36 17l-100 101l36 31l100 -88l99 88l36 -31z" />
    <glyph glyph-name="uni01C7" unicode="&#x1c7;" horiz-adv-x="763" 
d="M81 0v724h86v-650h272v-74h-358zM682 80q0 -134 -62.5 -205.5t-171.5 -93.5v77q34 10 61.5 27.5t46.5 44.5t29.5 64t10.5 86v644h86v-644z" />
    <glyph glyph-name="uni01C8" unicode="&#x1c8;" horiz-adv-x="747" 
d="M81 0v724h86v-650h272v-74h-358zM681 699q0 -21 -15.5 -36t-37.5 -15t-37.5 15t-15.5 36t15.5 36.5t37.5 15.5t37.5 -15.5t15.5 -36.5zM670 57q0 -67 -17.5 -115.5t-46.5 -82t-68 -52.5t-81 -28v71q26 9 49.5 25t41.5 41t28.5 60t10.5 81v482h83v-482z" />
    <glyph glyph-name="uni01C9" unicode="&#x1c9;" horiz-adv-x="490" 
d="M78 0v785h83v-785h-83zM424 699q0 -21 -15.5 -36t-37.5 -15t-37.5 15t-15.5 36t15.5 36.5t37.5 15.5t37.5 -15.5t15.5 -36.5zM413 57q0 -67 -17.5 -115.5t-46.5 -82t-68 -52.5t-81 -28v71q26 9 49.5 25t41.5 41t28.5 60t10.5 81v482h83v-482z" />
    <glyph glyph-name="uni01CA" unicode="&#x1ca;" horiz-adv-x="936" 
d="M528 0l-331 531q-15 24 -26.5 47.5t-15.5 31.5h-2q1 -11 1.5 -37t0.5 -51v-522h-76v724h85l326 -521q17 -26 27.5 -48.5t14.5 -30.5h2q0 7 -0.5 33t-0.5 58v509h76v-724h-81zM855 80q0 -134 -62.5 -205.5t-171.5 -93.5v77q34 10 61.5 27.5t46.5 44.5t29.5 64t10.5 86v644
h86v-644z" />
    <glyph glyph-name="uni01CB" unicode="&#x1cb;" horiz-adv-x="926" 
d="M528 0l-331 531q-15 24 -26.5 47.5t-15.5 31.5h-2q1 -11 1.5 -37t0.5 -51v-522h-76v724h85l326 -521q17 -26 27.5 -48.5t14.5 -30.5h2q0 7 -0.5 33t-0.5 58v509h76v-724h-81zM860 699q0 -21 -15.5 -36t-37.5 -15t-37.5 15t-15.5 36t15.5 36.5t37.5 15.5t37.5 -15.5
t15.5 -36.5zM849 57q0 -67 -17.5 -115.5t-46.5 -82t-68 -52.5t-81 -28v71q26 9 49.5 25t41.5 41t28.5 60t10.5 81v482h83v-482z" />
    <glyph glyph-name="uni01CC" unicode="&#x1cc;" horiz-adv-x="811" 
d="M403 0v364q0 54 -32.5 86t-98.5 32q-35 0 -65 -5.5t-50 -13.5v-463h-84v512q39 17 88.5 27.5t109.5 10.5q107 0 161 -47t54 -132v-371h-83zM745 699q0 -21 -15.5 -36t-37.5 -15t-37.5 15t-15.5 36t15.5 36.5t37.5 15.5t37.5 -15.5t15.5 -36.5zM734 57q0 -67 -17.5 -115.5
t-46.5 -82t-68 -52.5t-81 -28v71q26 9 49.5 25t41.5 41t28.5 60t10.5 81v482h83v-482z" />
    <glyph glyph-name="uni01F1" unicode="&#x1f1;" horiz-adv-x="1134" 
d="M580 362q0 -93 -23.5 -163t-65 -116.5t-99 -70t-125.5 -23.5q-58 0 -108.5 11t-79.5 27v670q33 17 82 27.5t106 10.5q68 0 125.5 -23.5t99 -70t65 -116.5t23.5 -163zM493 362q0 78 -17.5 134.5t-47.5 93t-70.5 54t-86.5 17.5q-31 0 -59.5 -4.5t-45.5 -12.5v-564
q14 -8 42.5 -12.5t62.5 -4.5q46 0 86.5 17.5t70.5 54t47.5 93t17.5 134.5zM647 0l316 650h-297v74h420l-316 -650h318v-74h-441z" />
    <glyph glyph-name="uni01F2" unicode="&#x1f2;" horiz-adv-x="1094" 
d="M580 362q0 -93 -23.5 -163t-65 -116.5t-99 -70t-125.5 -23.5q-58 0 -108.5 11t-79.5 27v670q33 17 82 27.5t106 10.5q68 0 125.5 -23.5t99 -70t65 -116.5t23.5 -163zM493 362q0 78 -17.5 134.5t-47.5 93t-70.5 54t-86.5 17.5q-31 0 -59.5 -4.5t-45.5 -12.5v-564
q14 -8 42.5 -12.5t62.5 -4.5q46 0 86.5 17.5t70.5 54t47.5 93t17.5 134.5zM663 0l260 471h-244v68h364l-259 -471h267v-68h-388z" />
    <glyph glyph-name="uni01F3" unicode="&#x1f3;" horiz-adv-x="1018" 
d="M482 27q-12 -7 -30.5 -14t-41.5 -12t-48.5 -8.5t-52.5 -3.5q-62 0 -109.5 19.5t-80 55t-49.5 86t-17 113.5q0 62 16.5 113.5t48 89t78 58t106.5 20.5q28 0 55 -4.5t42 -9.5v255h83v-758zM399 465q-12 5 -39 9t-52 4q-42 0 -74.5 -16t-54 -45t-32.5 -68.5t-11 -85.5
q0 -94 44 -150t128 -56q13 0 26.5 1.5t26 4t22.5 5.5t16 6v391zM587 0l260 471h-244v68h364l-259 -471h267v-68h-388z" />
    <glyph glyph-name="Aringacute" unicode="&#x1fa;" horiz-adv-x="656" 
d="M407 817q-29 -37 -88 -37q-39 0 -66.5 25.5t-27.5 63.5q0 19 7.5 35.5t20 28.5t29.5 19t37 7q29 0 50.5 -16t30.5 -39l27 48q9 11 22 16t26 5t23 -5.5t13 -17.5zM370 869q0 21 -15 36t-36 15t-36.5 -15t-15.5 -36t15.5 -35.5t36.5 -14.5t36 14.5t15 35.5zM546 0l-72 211
h-291l-72 -211h-91l259 724h99l258 -724h-90zM351 570q-8 25 -13.5 46.5t-8.5 36.5h-2q-3 -15 -8.5 -36.5t-13.5 -46.5l-100 -293h247z" />
    <glyph glyph-name="aringacute" unicode="&#x1fb;" horiz-adv-x="528" 
d="M345 633q-29 -37 -89 -37q-20 0 -37 7t-29.5 19t-20 28.5t-7.5 35.5q0 38 27.5 63.5t66.5 25.5q29 0 50.5 -16t30.5 -39l27 48q9 11 22 16t26 5t23.5 -5.5t13.5 -17.5zM455 27q-29 -16 -80.5 -27t-105.5 -11q-112 0 -167 44t-55 121q0 58 28.5 93t75 54.5t105.5 27.5
t120 11v41q0 30 -9.5 50t-26.5 32.5t-40.5 17.5t-51.5 5q-19 0 -39.5 -3t-40 -7.5t-37 -10.5t-30.5 -12l-22 59q31 14 78 26t98 12q45 0 82 -9.5t63.5 -30.5t40.5 -54.5t14 -81.5v-347zM307 686q0 21 -15 35.5t-36 14.5t-36 -14.5t-15 -35.5t15 -36t36 -15t36 15t15 36z
M376 282q-45 -3 -89.5 -7t-80.5 -16.5t-58 -36.5t-22 -66q0 -48 35 -76t106 -28q15 0 31.5 1.5t31.5 3.5t27 5.5t19 6.5v213z" />
    <glyph glyph-name="AEacute" unicode="&#x1fc;" horiz-adv-x="899" 
d="M524 0l-43 211h-290l-101 -211h-93l356 724h432v-74h-318l55 -242h253v-72h-237l59 -262h262v-74h-335zM408 570q-5 26 -8 50t-4 33h-2q-3 -11 -11.5 -34.5t-20.5 -48.5l-140 -293h246zM542 788h-62l74 130q11 11 24.5 17t26.5 6q14 0 24 -6t13 -17z" />
    <glyph glyph-name="aeacute" unicode="&#x1fd;" horiz-adv-x="872" 
d="M819 298q0 -7 -1 -15l-367 -53q8 -87 55.5 -130t125.5 -43q40 0 80 9t66 24l26 -63q-29 -16 -75 -27t-100 -11q-78 0 -130 31t-74 78q-7 -22 -21.5 -42t-36 -35t-50 -23.5t-62.5 -8.5q-102 0 -155 45t-53 120q0 58 28.5 93t75 54.5t105.5 27.5t120 11v41q0 30 -9.5 50
t-26.5 32.5t-40.5 17.5t-51.5 5q-19 0 -39.5 -3t-40 -7.5t-37 -10.5t-30.5 -12l-22 59q31 14 78 26t95 12q149 0 174 -104q26 50 71 77t108 27q100 0 157 -62.5t57 -173.5v-16zM376 282q-45 -3 -89.5 -7t-80.5 -16.5t-58 -36.5t-22 -66q0 -47 32 -75.5t99 -28.5
q56 0 87.5 31.5t31.5 79.5v119zM738 330q-1 80 -38.5 118t-98.5 38q-72 0 -113 -53t-43 -145zM451 603h-62l74 130q11 11 24.5 17t26.5 6q14 0 24 -6t13 -17z" />
    <glyph glyph-name="Oslashacute" unicode="&#x1fe;" horiz-adv-x="668" 
d="M611 362q0 -77 -17.5 -145t-52 -118.5t-86.5 -80t-121 -29.5q-51 0 -92.5 16.5t-73.5 46.5l-66 -102l-44 29l74 114q-37 51 -56 120.5t-19 148.5q0 77 17.5 145t52 118.5t86.5 80t121 29.5q52 0 94.5 -17.5t75.5 -49.5l63 98l43 -29l-71 -110q36 -51 54 -119t18 -146z
M462 604q-24 29 -56 44.5t-72 15.5q-49 0 -86 -23.5t-61.5 -64t-37 -95.5t-12.5 -119q0 -118 41 -198zM531 362q0 56 -9.5 105t-28.5 88l-284 -439q48 -56 125 -56q49 0 85.5 23.5t61.5 64t37.5 95.5t12.5 119zM348 788h-62l74 130q11 11 24.5 17t26.5 6q14 0 24 -6t13 -17z
" />
    <glyph glyph-name="oslashacute" unicode="&#x1ff;" horiz-adv-x="564" 
d="M511 270q0 -60 -15 -111.5t-44 -89t-71.5 -59t-98.5 -21.5q-40 0 -73.5 11.5t-59.5 32.5l-57 -85l-38 28l62 90q-31 38 -47 90.5t-16 113.5q0 60 15 111t44 88.5t71.5 59t98.5 21.5q40 0 73.5 -11.5t59.5 -32.5l57 84l37 -28l-60 -89q31 -38 46.5 -90t15.5 -113zM377 451
q-37 37 -95 37q-39 0 -68 -16.5t-47.5 -46t-28 -69t-9.5 -85.5q0 -41 7 -77t22 -65zM435 271q0 41 -7.5 76.5t-21.5 63.5l-218 -322q18 -17 41.5 -27t52.5 -10q39 0 68 17t47.5 46.5t28 69.5t9.5 86zM290 603h-62l74 130q11 11 24.5 17t26.5 6q14 0 24 -6t13 -17z" />
    <glyph glyph-name="Scommaaccent" unicode="&#x218;" horiz-adv-x="519" 
d="M464 197q0 -48 -17.5 -86.5t-49.5 -65.5t-76.5 -41.5t-98.5 -14.5q-93 0 -174 38l30 74q31 -16 66.5 -25t74.5 -9q69 0 113 33t44 93q0 40 -24 66.5t-59.5 46.5t-77 38.5t-77 43t-59.5 60.5t-24 91q0 45 16.5 81.5t45.5 62t70 39t91 13.5q46 0 85.5 -10t72.5 -28l-29 -70
q-28 16 -59 24.5t-67 8.5q-61 0 -100 -30.5t-39 -86.5q0 -40 24 -65.5t59.5 -45.5t77.5 -38.5t77.5 -44t59.5 -61.5t24 -91zM223 -215h-62l50 137q20 22 50 22q14 0 25 -6.5t13 -15.5z" />
    <glyph glyph-name="scommaaccent" unicode="&#x219;" horiz-adv-x="453" 
d="M403 144q0 -70 -52.5 -112.5t-148.5 -42.5q-42 0 -83 9.5t-77 28.5l30 64q27 -15 62 -24.5t67 -9.5q52 0 83.5 23.5t31.5 63.5q0 21 -8 36.5t-22.5 27t-34.5 20.5t-44 18q-29 10 -56 23t-48 31t-34 43.5t-13 61.5q0 63 46.5 104t132.5 41q42 0 80.5 -10t69.5 -28l-29 -59
q-23 14 -52 23t-61 9q-49 0 -75.5 -23t-26.5 -57q0 -22 8.5 -37.5t23 -27t34 -19.5t40.5 -16q30 -11 58 -23.5t50 -30.5t35 -43.5t13 -63.5zM192 -215h-62l50 137q20 22 50 22q14 0 25 -6.5t13 -15.5z" />
    <glyph glyph-name="uni021A" unicode="&#x21a;" horiz-adv-x="512" 
d="M299 650v-650h-86v650h-180v74h446v-74h-180zM223 -215h-62l50 137q20 22 50 22q14 0 25 -6.5t13 -15.5z" />
    <glyph glyph-name="uni021B" unicode="&#x21b;" horiz-adv-x="347" 
d="M308 3q-8 -4 -23 -6.5t-32 -2.5q-66 0 -104 36t-38 110v336h-78v63h78v130l81 27v-157h116v-63h-116v-332q0 -42 24 -59t57 -17q22 0 35 5v-70zM169 -215h-62l50 137q20 22 50 22q14 0 25 -6.5t13 -15.5z" />
    <glyph glyph-name="dotlessj" unicode="&#x237;" horiz-adv-x="238" 
d="M161 57q0 -67 -17.5 -115.5t-46.5 -82t-68 -52.5t-81 -28v71q26 9 49.5 25t41.5 41t28.5 60t10.5 81v482h83v-482z" />
    <glyph glyph-name="uni0259" unicode="&#x259;" horiz-adv-x="556" 
d="M503 269q0 -62 -16 -113.5t-46 -88.5t-73 -57.5t-97 -20.5q-51 0 -91.5 17.5t-68.5 50.5t-43 79t-15 103v11q0 6 1 14l367 53q-7 81 -54.5 124.5t-125.5 43.5q-40 0 -78.5 -9t-68.5 -25l-26 61q34 17 80 27.5t98 10.5q121 0 189 -74t68 -207zM133 215q3 -78 40 -120
t100 -42q70 0 112 54t42 150z" />
    <glyph glyph-name="uni02BB" unicode="&#x2bb;" horiz-adv-x="78" 
d="M82 575q-8 -14 -21 -21t-27 -7t-24 7t-12 21l100 210h59z" />
    <glyph glyph-name="afii57929" unicode="&#x2bc;" horiz-adv-x="78" 
d="M62 552h-59l75 210q8 14 21.5 21t27.5 7t23.5 -7t11.5 -21z" />
    <glyph glyph-name="circumflex" unicode="&#x2c6;" 
d="M254 598l-99 88l-100 -88l-36 31l100 101q17 17 36 17q18 0 35 -17l100 -101z" />
    <glyph glyph-name="caron" unicode="&#x2c7;" 
d="M190 617q-17 -17 -35 -17q-19 0 -36 17l-100 101l36 31l100 -88l99 88l36 -31z" />
    <glyph glyph-name="breve" unicode="&#x2d8;" 
d="M290 733q-4 -62 -38.5 -98t-96.5 -36t-97 36t-39 98l52 9q7 -43 26.5 -65t57.5 -22t57 22t26 65z" />
    <glyph glyph-name="dotaccent" unicode="&#x2d9;" 
d="M207 674q0 -21 -15 -35.5t-37 -14.5t-37.5 14.5t-15.5 35.5t15.5 35.5t37.5 14.5t37 -14.5t15 -35.5z" />
    <glyph glyph-name="ring" unicode="&#x2da;" 
d="M248 686q0 -19 -7 -35.5t-20 -28.5t-30 -19t-36 -7q-20 0 -37 7t-29.5 19t-20 28.5t-7.5 35.5q0 38 27.5 63.5t66.5 25.5t66 -25.5t27 -63.5zM206 686q0 21 -15 35.5t-36 14.5t-36.5 -14.5t-15.5 -35.5t15.5 -36t36.5 -15t36 15t15 36z" />
    <glyph glyph-name="ogonek" unicode="&#x2db;" 
d="M287 -175q-18 -10 -42 -16t-48 -6q-47 0 -76 23.5t-29 63.5q0 35 29 67t80 58h67q-60 -27 -85.5 -58t-25.5 -56q0 -20 14.5 -33t37.5 -13q15 0 31 4t30 10z" />
    <glyph glyph-name="tilde" unicode="&#x2dc;" 
d="M291 699q-5 -35 -25 -60t-55 -25q-20 0 -33.5 8t-24.5 17t-22 17t-24 8q-19 0 -30.5 -15t-15.5 -37l-43 26q5 35 25 59.5t55 24.5q19 0 33 -7.5t25 -17t21.5 -17t24.5 -7.5q19 0 30.5 15t15.5 37z" />
    <glyph glyph-name="hungarumlaut" unicode="&#x2dd;" 
d="M221 603h-53l77 130q20 23 45 23q23 0 30 -23zM76 603h-53l77 130q20 23 45 23q23 0 30 -23z" />
    <glyph glyph-name="uni030F" unicode="&#x30f;" horiz-adv-x="1" 
d="M-77 603l-99 130q7 23 30 23q25 0 45 -23l77 -130h-53zM-222 603l-99 130q7 23 30 23q25 0 45 -23l77 -130h-53z" />
    <glyph glyph-name="uni0311" unicode="&#x311;" horiz-adv-x="1" 
d="M-72 599q-7 43 -26 65t-57 22t-57.5 -22t-26.5 -65l-52 8q4 62 39 98.5t97 36.5t96.5 -36.5t38.5 -98.5z" />
    <glyph glyph-name="uni037E" unicode="&#x37e;" horiz-adv-x="280" 
d="M200 374q0 -24 -17 -41t-41 -17t-41 17t-17 41t17 41t41 17t41 -17t17 -41zM80 -169h-61l86 248q9 13 22.5 21.5t33.5 8.5t29.5 -9t11.5 -21z" />
    <glyph glyph-name="tonos" unicode="&#x384;" horiz-adv-x="286" 
d="M154 603h-55l46 134q7 11 19 16.5t25 5.5q12 0 22.5 -5t15.5 -17z" />
    <glyph glyph-name="dieresistonos" unicode="&#x385;" horiz-adv-x="288" 
d="M281 669q0 -19 -11.5 -32.5t-28.5 -13.5t-29 13.5t-12 32.5t12 32.5t29 13.5t28.5 -13.5t11.5 -32.5zM131 603h-44l20 137q5 11 14.5 17t20.5 6q23 0 31 -23zM51 669q0 -19 -12 -32.5t-29 -13.5t-28.5 13.5t-11.5 32.5t11.5 32.5t28.5 13.5t29 -13.5t12 -32.5z" />
    <glyph glyph-name="Alphatonos" unicode="&#x386;" horiz-adv-x="656" 
d="M546 0l-72 211h-291l-72 -211h-91l259 724h99l258 -724h-90zM351 570q-8 25 -13.5 46.5t-8.5 36.5h-2q-3 -15 -8.5 -36.5t-13.5 -46.5l-100 -293h247zM132 551h-52v160q14 20 40 20q12 0 22.5 -5t16.5 -15z" />
    <glyph glyph-name="anoteleia" unicode="&#x387;" horiz-adv-x="258" 
d="M194 325q0 -27 -19 -46t-46 -19t-46 19t-19 46t19 46t46 19t46 -19t19 -46z" />
    <glyph glyph-name="Epsilontonos" unicode="&#x388;" horiz-adv-x="579" 
d="M154 0v724h375v-74h-290v-242h267v-72h-267v-262h290v-74h-375zM52 551h-52v160q14 20 40 20q12 0 22.5 -5t16.5 -15z" />
    <glyph glyph-name="Etatonos" unicode="&#x389;" horiz-adv-x="714" 
d="M548 0v336h-307v-336h-87v724h87v-316h307v316h87v-724h-87zM52 551h-52v160q14 20 40 20q12 0 22.5 -5t16.5 -15z" />
    <glyph glyph-name="Iotatonos" unicode="&#x38a;" horiz-adv-x="322" 
d="M155 0v724h86v-724h-86zM52 551h-52v160q14 20 40 20q12 0 22.5 -5t16.5 -15z" />
    <glyph glyph-name="Omicrontonos" unicode="&#x38c;" horiz-adv-x="709" 
d="M652 362q0 -77 -17.5 -145t-52 -118.5t-86.5 -80t-121 -29.5t-121 29.5t-86.5 80t-52 118.5t-17.5 145t17.5 145t52 118.5t86.5 80t121 29.5t121 -29.5t86.5 -80t52 -118.5t17.5 -145zM566 362q0 63 -12 117t-36 93.5t-60 62.5t-83 23t-83 -23t-60 -62.5t-36 -93.5
t-12 -117t12 -117t36 -93.5t60 -62.5t83 -23t83 23t60 62.5t36 93.5t12 117zM52 551h-52v160q14 20 40 20q12 0 22.5 -5t16.5 -15z" />
    <glyph glyph-name="Upsilontonos" unicode="&#x38e;" horiz-adv-x="707" 
d="M679 653q-53 -26 -95.5 -65.5t-72.5 -93.5t-46.5 -124t-16.5 -156v-214h-86v214q0 86 -16.5 156t-46.5 124t-73 93.5t-95 65.5l20 82q67 -32 113 -74t76 -89.5t45 -96.5t19 -95h2q4 46 19 95t45 96.5t76 89.5t113 74zM52 551h-52v160q14 20 40 20q12 0 22.5 -5t16.5 -15z
" />
    <glyph glyph-name="Omegatonos" unicode="&#x38f;" horiz-adv-x="720" 
d="M52 551h-52v160q14 20 40 20q12 0 22.5 -5t16.5 -15zM435 0v69q75 78 106.5 166.5t31.5 174.5q0 50 -12 95t-36 79t-60 54t-85 20t-85 -20t-60 -54t-36 -79t-12 -95q0 -86 31.5 -174.5t106.5 -166.5v-69h-235v73h149q-72 79 -105 166t-33 179q0 63 17.5 120.5t52.5 101
t87 69.5t122 26t122 -26t87 -69.5t52.5 -101t17.5 -120.5q0 -92 -33 -179t-105 -166h149v-73h-235z" />
    <glyph glyph-name="iotadieresistonos" unicode="&#x390;" horiz-adv-x="256" 
d="M221 -11q-143 7 -143 144v406h83v-406q0 -64 60 -71v-73zM283 669q0 -19 -11.5 -32.5t-28.5 -13.5t-29 13.5t-12 32.5t12 32.5t29 13.5t28.5 -13.5t11.5 -32.5zM133 603h-44l20 137q5 11 14.5 17t20.5 6q23 0 31 -23zM53 669q0 -19 -12 -32.5t-29 -13.5t-28.5 13.5
t-11.5 32.5t11.5 32.5t28.5 13.5t29 -13.5t12 -32.5z" />
    <glyph glyph-name="Alpha" unicode="&#x391;" horiz-adv-x="656" 
d="M546 0l-72 211h-291l-72 -211h-91l259 724h99l258 -724h-90zM351 570q-8 25 -13.5 46.5t-8.5 36.5h-2q-3 -15 -8.5 -36.5t-13.5 -46.5l-100 -293h247z" />
    <glyph glyph-name="Beta" unicode="&#x392;" horiz-adv-x="607" 
d="M555 192q0 -95 -71 -149t-202 -54q-27 0 -55.5 3t-55 8t-50 12t-40.5 15v670q36 17 88.5 27.5t109.5 10.5q124 0 187.5 -52.5t63.5 -136.5q0 -35 -11 -63.5t-29 -50t-40 -35t-43 -18.5v-2q23 -6 49 -19t48 -35.5t36.5 -55t14.5 -75.5zM447 540q0 60 -43.5 93.5
t-124.5 33.5q-34 0 -65 -5t-51 -13v-245h106q26 0 45 1.5t34 5t27 9t24 14.5q22 16 35 44t13 62zM469 196q0 82 -67 119q-13 7 -25.5 11.5t-27 7.5t-33 4.5t-43.5 1.5h-110v-265q21 -8 54 -13t65 -5q91 0 139 35.5t48 103.5z" />
    <glyph glyph-name="Gamma" unicode="&#x393;" horiz-adv-x="480" 
d="M169 650v-650h-87v724h366v-74h-279z" />
    <glyph glyph-name="uni0394" unicode="&#x394;" horiz-adv-x="656" 
d="M20 0l258 724h100l258 -724h-616zM350 570q-2 5 -5 14.5t-6 20.5t-5.5 23t-4.5 22h-2q-2 -11 -8 -35.5t-13 -44.5l-175 -501h394z" />
    <glyph glyph-name="Epsilon" unicode="&#x395;" horiz-adv-x="504" 
d="M79 0v724h375v-74h-290v-242h267v-72h-267v-262h290v-74h-375z" />
    <glyph glyph-name="Zeta" unicode="&#x396;" horiz-adv-x="516" 
d="M29 0l316 650h-297v74h420l-316 -650h318v-74h-441z" />
    <glyph glyph-name="Eta" unicode="&#x397;" horiz-adv-x="639" 
d="M473 0v336h-307v-336h-87v724h87v-316h307v316h87v-724h-87z" />
    <glyph glyph-name="Theta" unicode="&#x398;" horiz-adv-x="699" 
d="M642 362q0 -76 -19 -144t-56 -119t-92 -80.5t-127 -29.5t-126.5 29.5t-91 80.5t-55 119t-18.5 144t18.5 144t55 119t91 80.5t126.5 29.5t127 -29.5t92 -80.5t56 -119t19 -144zM559 362q0 62 -13.5 116.5t-40 95.5t-66 64.5t-91.5 23.5t-91 -23.5t-65 -64.5t-39 -95.5
t-13 -116.5t13 -116.5t39 -95.5t65 -64.5t91 -23.5t91.5 23.5t66 64.5t40 95.5t13.5 116.5zM211 336v72h277v-72h-277z" />
    <glyph glyph-name="Iota" unicode="&#x399;" horiz-adv-x="248" 
d="M81 0v724h86v-724h-86z" />
    <glyph glyph-name="Kappa" unicode="&#x39a;" horiz-adv-x="576" 
d="M459 0l-290 371h-2v-371h-86v724h86v-335h2l284 335h101l-293 -344l300 -380h-102z" />
    <glyph glyph-name="Lambda" unicode="&#x39b;" horiz-adv-x="656" 
d="M542 0l-192 557q-14 41 -21 82h-2q-7 -41 -21 -82l-192 -557h-94l258 724h100l258 -724h-94z" />
    <glyph glyph-name="Mu" unicode="&#x39c;" horiz-adv-x="868" 
d="M734 0l-68 543q-4 31 -6 55t-3 33h-2q-2 -11 -7.5 -34t-14.5 -54l-167 -543h-64l-167 543q-9 31 -14.5 54t-7.5 34h-2q-1 -12 -2.5 -34.5t-5.5 -53.5l-69 -543h-81l96 724h103l160 -520q3 -10 6 -22.5t6 -24.5t5.5 -23t3.5 -17h2q2 11 7.5 36.5t13.5 50.5l160 520h103
l96 -724h-81z" />
    <glyph glyph-name="Nu" unicode="&#x39d;" horiz-adv-x="688" 
d="M528 0l-331 531q-15 24 -26.5 47.5t-15.5 31.5h-2q1 -11 1.5 -37t0.5 -51v-522h-76v724h85l326 -521q17 -26 27.5 -48.5t14.5 -30.5h2q0 7 -0.5 33t-0.5 58v509h76v-724h-81z" />
    <glyph glyph-name="Xi" unicode="&#x39e;" horiz-adv-x="550" 
d="M58 650v74h434v-74h-434zM92 336v72h366v-72h-366zM50 0v74h450v-74h-450z" />
    <glyph glyph-name="Omicron" unicode="&#x39f;" horiz-adv-x="668" 
d="M611 362q0 -77 -17.5 -145t-52 -118.5t-86.5 -80t-121 -29.5t-121 29.5t-86.5 80t-52 118.5t-17.5 145t17.5 145t52 118.5t86.5 80t121 29.5t121 -29.5t86.5 -80t52 -118.5t17.5 -145zM525 362q0 63 -12 117t-36 93.5t-60 62.5t-83 23t-83 -23t-60 -62.5t-36 -93.5
t-12 -117t12 -117t36 -93.5t60 -62.5t83 -23t83 23t60 62.5t36 93.5t12 117z" />
    <glyph glyph-name="Pi" unicode="&#x3a0;" horiz-adv-x="639" 
d="M473 0v651h-307v-651h-87v724h481v-724h-87z" />
    <glyph glyph-name="Rho" unicode="&#x3a1;" horiz-adv-x="569" 
d="M527 514q0 -48 -18 -88t-53.5 -69t-87.5 -45t-119 -16q-23 0 -46 1.5t-38 4.5v-302h-86v697q38 18 86 28t104 10q125 0 191.5 -59.5t66.5 -161.5zM442 515q0 75 -44 113t-128 38q-32 0 -59.5 -4.5t-45.5 -12.5v-278q15 -3 36.5 -4.5t44.5 -1.5q96 0 146 40.5t50 109.5z
" />
    <glyph glyph-name="Sigma" unicode="&#x3a3;" horiz-adv-x="541" 
d="M45 0v56l245 315l-240 297v56h436v-74h-326l229 -278l-235 -298h340v-74h-449z" />
    <glyph glyph-name="Tau" unicode="&#x3a4;" horiz-adv-x="512" 
d="M299 650v-650h-86v650h-180v74h446v-74h-180z" />
    <glyph glyph-name="Upsilon" unicode="&#x3a5;" horiz-adv-x="604" 
d="M576 653q-53 -26 -95.5 -65.5t-72.5 -93.5t-46.5 -124t-16.5 -156v-214h-86v214q0 86 -16.5 156t-46.5 124t-73 93.5t-95 65.5l20 82q67 -32 113 -74t76 -89.5t45 -96.5t19 -95h2q4 46 19 95t45 96.5t76 89.5t113 74z" />
    <glyph glyph-name="Phi" unicode="&#x3a6;" horiz-adv-x="821" 
d="M768 363q0 -64 -22 -120.5t-63 -99.5t-100 -69t-134 -27v-69h-77v69q-75 1 -134 27t-100 69t-63 99.5t-22 120.5t22 120.5t63 99.5t100 68.5t134 27.5v67h77v-67q75 -2 134 -27.5t100 -68.5t63 -99.5t22 -120.5zM683 363q0 51 -16 95.5t-46 78.5t-73.5 53.5t-98.5 20.5
v-496q55 0 98.5 20t73.5 53.5t46 78.5t16 96zM372 611q-56 -1 -99.5 -20.5t-73.5 -53.5t-45.5 -78.5t-15.5 -95.5t15.5 -96t45.5 -78.5t73.5 -53.5t99.5 -20v496z" />
    <glyph glyph-name="Chi" unicode="&#x3a7;" horiz-adv-x="585" 
d="M466 0l-172 305h-2l-173 -305h-95l218 375l-203 349h94l159 -280h2l158 280h95l-203 -349l217 -375h-95z" />
    <glyph glyph-name="Psi" unicode="&#x3a8;" horiz-adv-x="780" 
d="M711 470q0 -126 -67.5 -197.5t-213.5 -75.5v-197h-80v197q-146 4 -213.5 75.5t-67.5 197.5v254h81v-254q0 -97 45.5 -148.5t154.5 -55.5v458h80v-458q109 4 154.5 55.5t45.5 148.5v254h81v-254z" />
    <glyph glyph-name="uni03A9" unicode="&#x3a9;" horiz-adv-x="680" 
d="M395 0v69q75 78 106.5 166.5t31.5 174.5q0 50 -12 95t-36 79t-60 54t-85 20t-85 -20t-60 -54t-36 -79t-12 -95q0 -86 31.5 -174.5t106.5 -166.5v-69h-235v73h149q-72 79 -105 166t-33 179q0 63 17.5 120.5t52.5 101t87 69.5t122 26t122 -26t87 -69.5t52.5 -101
t17.5 -120.5q0 -92 -33 -179t-105 -166h149v-73h-235z" />
    <glyph glyph-name="Iotadieresis" unicode="&#x3aa;" horiz-adv-x="248" 
d="M81 0v724h86v-724h-86zM81 854q0 -19 -14 -32.5t-34 -13.5t-34 13.5t-14 32.5t14 32.5t34 13.5t34 -13.5t14 -32.5zM265 854q0 -19 -14 -32.5t-34 -13.5t-34 13.5t-14 32.5t14 32.5t34 13.5t34 -13.5t14 -32.5z" />
    <glyph glyph-name="Upsilondieresis" unicode="&#x3ab;" horiz-adv-x="604" 
d="M576 653q-53 -26 -95.5 -65.5t-72.5 -93.5t-46.5 -124t-16.5 -156v-214h-86v214q0 86 -16.5 156t-46.5 124t-73 93.5t-95 65.5l20 82q67 -32 113 -74t76 -89.5t45 -96.5t19 -95h2q4 46 19 95t45 96.5t76 89.5t113 74zM258 836q0 -19 -14 -32.5t-34 -13.5t-34 13.5
t-14 32.5t14 32.5t34 13.5t34 -13.5t14 -32.5zM441 836q0 -19 -14 -32.5t-34 -13.5t-34 13.5t-14 32.5t14 32.5t34 13.5t34 -13.5t14 -32.5z" />
    <glyph glyph-name="alphatonos" unicode="&#x3ac;" horiz-adv-x="650" 
d="M519 0q-8 40 -21.5 90.5t-26.5 92.5h-2q-16 -40 -35.5 -75t-44.5 -61.5t-57 -42t-74 -15.5q-50 0 -88 23t-64 61.5t-39.5 89.5t-13.5 107t13.5 106.5t39.5 89t64 61.5t88 23q40 0 72 -15.5t57.5 -42t45 -61.5t36.5 -74h2q13 43 25 92.5t20 89.5h79q-14 -63 -35 -134.5
t-43 -133.5q22 -63 44 -135.5t37 -135.5h-79zM442 270q-15 43 -32.5 81.5t-38.5 67.5t-46.5 46t-57.5 17q-33 0 -58 -18t-41 -48t-24 -68t-8 -78t8 -78t24 -68t41 -48t58 -18q32 0 58.5 17t48 46t38 67.5t30.5 81.5zM358 603h-55l46 134q7 11 19 16.5t25 5.5q12 0 22.5 -5
t15.5 -17z" />
    <glyph glyph-name="epsilontonos" unicode="&#x3ad;" horiz-adv-x="493" 
d="M461 27q-36 -17 -85.5 -27.5t-101.5 -10.5q-47 0 -88 10t-71 30t-47.5 49t-17.5 68q0 29 10.5 52t27.5 40t39.5 28t46.5 16v2q-47 11 -75 43t-28 77q0 35 14.5 62t40.5 46t62.5 28.5t80.5 9.5q49 0 96.5 -10.5t82.5 -27.5l-26 -57q-28 14 -66.5 22.5t-75.5 8.5
q-26 0 -48.5 -5.5t-39.5 -16.5t-27 -27.5t-10 -39.5q0 -42 34.5 -66t105.5 -24h70v-57h-73q-81 0 -118.5 -28t-37.5 -70q0 -25 11.5 -43.5t31 -30.5t46 -18t56.5 -6q42 0 83.5 8.5t68.5 22.5zM283 603h-55l46 134q7 11 19 16.5t25 5.5q12 0 22.5 -5t15.5 -17z" />
    <glyph glyph-name="etatonos" unicode="&#x3ae;" horiz-adv-x="560" 
d="M404 -215v579q0 54 -32.5 86t-99.5 32q-36 0 -66 -5.5t-50 -13.5v-463h-83v512q39 17 88.5 27.5t109.5 10.5q108 0 162 -50t54 -136v-579h-83zM295 603h-55l46 134q7 11 19 16.5t25 5.5q12 0 22.5 -5t15.5 -17z" />
    <glyph glyph-name="iotatonos" unicode="&#x3af;" horiz-adv-x="256" 
d="M221 -11q-143 7 -143 144v406h83v-406q0 -64 60 -71v-73zM144 603h-55l46 134q7 11 19 16.5t25 5.5q12 0 22.5 -5t15.5 -17z" />
    <glyph glyph-name="upsilondieresistonos" unicode="&#x3b0;" horiz-adv-x="550" 
d="M432 669q0 -19 -11.5 -32.5t-28.5 -13.5t-29 13.5t-12 32.5t12 32.5t29 13.5t28.5 -13.5t11.5 -32.5zM282 603h-44l20 137q5 11 14.5 17t20.5 6q23 0 31 -23zM202 669q0 -19 -12 -32.5t-29 -13.5t-28.5 13.5t-11.5 32.5t11.5 32.5t28.5 13.5t29 -13.5t12 -32.5zM477 174
q0 -42 -14.5 -76t-41 -58.5t-63.5 -37.5t-83 -13t-83 13t-63.5 37.5t-41 58.5t-14.5 76v365h83v-366q0 -54 32.5 -85t86.5 -31t86.5 31t32.5 85v366h83v-365z" />
    <glyph glyph-name="alpha" unicode="&#x3b1;" horiz-adv-x="650" 
d="M519 0q-8 40 -21.5 90.5t-26.5 92.5h-2q-16 -40 -35.5 -75t-44.5 -61.5t-57 -42t-74 -15.5q-50 0 -88 23t-64 61.5t-39.5 89.5t-13.5 107t13.5 106.5t39.5 89t64 61.5t88 23q40 0 72 -15.5t57.5 -42t45 -61.5t36.5 -74h2q13 43 25 92.5t20 89.5h79q-14 -63 -35 -134.5
t-43 -133.5q22 -63 44 -135.5t37 -135.5h-79zM442 270q-15 43 -32.5 81.5t-38.5 67.5t-46.5 46t-57.5 17q-33 0 -58 -18t-41 -48t-24 -68t-8 -78t8 -78t24 -68t41 -48t58 -18q32 0 58.5 17t48 46t38 67.5t30.5 81.5z" />
    <glyph glyph-name="beta" unicode="&#x3b2;" horiz-adv-x="584" 
d="M535 212q0 -45 -16.5 -85.5t-48.5 -70.5t-79 -47.5t-108 -17.5q-32 0 -64.5 6t-61.5 19v-231h-81v742q0 61 13 110.5t39.5 84.5t67 54t95.5 19q48 0 84 -16t60 -42.5t36 -59.5t12 -67q0 -60 -34 -108.5t-97 -69.5v-2q46 -11 80.5 -33t57.5 -51t34 -63.5t11 -70.5z
M450 219q0 38 -15 70t-41.5 54.5t-62 35t-75.5 12.5h-22v60q87 8 129 49t42 104q0 24 -7 46.5t-21.5 40t-36 28t-51.5 10.5q-36 0 -61 -14t-40.5 -40t-23 -62t-7.5 -80v-450q27 -13 56.5 -20t58.5 -7q45 0 78 13.5t55.5 36t33.5 52t11 61.5z" />
    <glyph glyph-name="gamma" unicode="&#x3b3;" horiz-adv-x="558" 
d="M509 539q-3 -68 -18.5 -135t-41.5 -134t-60.5 -134.5t-74.5 -135.5v-215h-82v110q0 67 -12 136.5t-37.5 147t-64.5 166t-94 194.5h95q64 -128 104 -240t54 -224h2q59 108 99 223.5t45 240.5h86z" />
    <glyph glyph-name="delta" unicode="&#x3b4;" horiz-adv-x="575" 
d="M522 251q0 -52 -14.5 -99.5t-43.5 -83.5t-72.5 -57.5t-101.5 -21.5q-56 0 -100 21.5t-74.5 58t-46.5 84.5t-16 101q0 45 12 86.5t36.5 76t62.5 59.5t91 37q-20 18 -38.5 36.5t-32 39t-21.5 43.5t-8 50q0 29 8.5 54.5t22.5 48.5h284v-68h-226q-7 -9 -10 -22.5t-3 -24.5
q0 -21 11 -41.5t28.5 -39.5t38.5 -36.5t41 -32.5q30 -23 60.5 -49t55 -58.5t40.5 -72t16 -89.5zM439 251q0 38 -11.5 68t-30.5 55.5t-42.5 47t-48.5 41.5q-47 -8 -80 -28.5t-53 -48.5t-29 -62t-9 -70q0 -39 10.5 -74.5t30.5 -62.5t48.5 -43t64.5 -16q37 0 65.5 14.5t47 40.5
t28 61.5t9.5 76.5z" />
    <glyph glyph-name="epsilon" unicode="&#x3b5;" horiz-adv-x="493" 
d="M461 27q-36 -17 -85.5 -27.5t-101.5 -10.5q-47 0 -88 10t-71 30t-47.5 49t-17.5 68q0 29 10.5 52t27.5 40t39.5 28t46.5 16v2q-47 11 -75 43t-28 77q0 35 14.5 62t40.5 46t62.5 28.5t80.5 9.5q49 0 96.5 -10.5t82.5 -27.5l-26 -57q-28 14 -66.5 22.5t-75.5 8.5
q-26 0 -48.5 -5.5t-39.5 -16.5t-27 -27.5t-10 -39.5q0 -42 34.5 -66t105.5 -24h70v-57h-73q-81 0 -118.5 -28t-37.5 -70q0 -25 11.5 -43.5t31 -30.5t46 -18t56.5 -6q42 0 83.5 8.5t68.5 22.5z" />
    <glyph glyph-name="zeta" unicode="&#x3b6;" horiz-adv-x="446" 
d="M294 561q-31 -41 -59 -80t-49.5 -78.5t-34.5 -79.5t-13 -83q0 -53 18.5 -89t53.5 -58t87 -31.5t119 -9.5l-32 -223l-66 10l15 151q-63 4 -114.5 18.5t-89 43t-58 72t-20.5 105.5q0 50 14 95t36.5 87t51.5 81.5t60 79.5l112 145h-236v68h330v-58z" />
    <glyph glyph-name="eta" unicode="&#x3b7;" horiz-adv-x="560" 
d="M404 -215v579q0 54 -32.5 86t-99.5 32q-36 0 -66 -5.5t-50 -13.5v-463h-83v512q39 17 88.5 27.5t109.5 10.5q108 0 162 -50t54 -136v-579h-83z" />
    <glyph glyph-name="theta" unicode="&#x3b8;" horiz-adv-x="590" 
d="M532 393q0 -83 -13 -156t-41 -128.5t-73.5 -87.5t-109.5 -32q-65 0 -110 32t-73 87.5t-41 128.5t-13 156q0 82 13 155.5t41 128.5t73 87t110 32q64 0 109.5 -32t73.5 -87t41 -128.5t13 -155.5zM452 430q-2 62 -11 117t-28 96t-48 64.5t-70 23.5t-70.5 -23.5t-48 -64.5
t-28 -96t-10.5 -117h314zM138 363q1 -63 10 -119t28 -97.5t48 -66t71 -24.5t71 24.5t48 66t27.5 97.5t10.5 119h-314z" />
    <glyph glyph-name="iota" unicode="&#x3b9;" horiz-adv-x="256" 
d="M221 -11q-143 7 -143 144v406h83v-406q0 -64 60 -71v-73z" />
    <glyph glyph-name="kappa" unicode="&#x3ba;" horiz-adv-x="511" 
d="M400 0l-97 166q-23 38 -59 66.5t-87 28.5v-261h-82v539h82v-246h2l227 246h101l-238 -245q48 -14 80 -43.5t58 -72.5l106 -178h-93z" />
    <glyph glyph-name="lambda" unicode="&#x3bb;" horiz-adv-x="558" 
d="M438 0l-136 391q-12 37 -20 74h-2q-3 -18 -7.5 -37t-11.5 -37l-141 -391h-91l211 539l-96 246h88l297 -785h-91z" />
    <glyph glyph-name="uni03BC" unicode="&#x3bc;" horiz-adv-x="551" 
d="M478 43q-35 -26 -81.5 -40t-97.5 -14q-39 0 -77 9t-66 24v-237h-83v754h83v-449q23 -16 58 -24.5t68 -8.5q32 0 62.5 9t50.5 23v450h83v-496z" />
    <glyph glyph-name="nu" unicode="&#x3bd;" horiz-adv-x="558" 
d="M509 539q-3 -68 -18.5 -135t-41.5 -134t-60.5 -134.5t-74.5 -135.5h-91l-193 539h91l152 -464h2q60 109 101.5 223.5t46.5 240.5h86z" />
    <glyph glyph-name="xi" unicode="&#x3be;" horiz-adv-x="478" 
d="M414 -171l-66 10l15 151q-66 5 -123 19t-99 41t-66 68.5t-24 102.5q0 48 15 84.5t40.5 62.5t58.5 43t70 26v2q-66 20 -106.5 69t-40.5 126q0 84 52 151h288v-68h-229q-30 -38 -30 -93q0 -79 56 -119t156 -44v-65h-41q-35 0 -71 -9t-65 -29t-47.5 -52.5t-18.5 -78.5
q0 -49 22.5 -82.5t63.5 -54t97.5 -29.5t124.5 -9z" />
    <glyph glyph-name="omicron" unicode="&#x3bf;" horiz-adv-x="564" 
d="M511 270q0 -60 -15 -111.5t-44 -89t-71.5 -59t-98.5 -21.5t-98.5 21.5t-71.5 59t-44 89t-15 111.5t15 111t44 88.5t71.5 59t98.5 21.5t98.5 -21.5t71.5 -59t44 -88.5t15 -111zM428 271q0 46 -9 85t-27 67t-45.5 43.5t-64.5 15.5t-64.5 -15.5t-45.5 -43.5t-27 -67t-9 -85
q0 -47 9 -86t27 -67t45.5 -44t64.5 -16t64.5 16t45.5 44t27 67t9 86z" />
    <glyph glyph-name="pi" unicode="&#x3c0;" horiz-adv-x="622" 
d="M499 471v-471h-82v473h-187l-55 -473h-81l54 471h-111v68h549v-68h-87z" />
    <glyph glyph-name="rho" unicode="&#x3c1;" horiz-adv-x="573" 
d="M520 274q0 -53 -13.5 -104t-42.5 -90.5t-74 -64t-109 -24.5q-30 0 -61 7.5t-56 20.5q11 -60 26.5 -120t32.5 -114h-84q-16 49 -30 104t-24.5 112.5t-17 117t-6.5 117.5q0 64 12.5 121.5t40.5 100t72 67.5t106 25q56 0 98.5 -22t71.5 -60t43.5 -88t14.5 -106zM437 275
q0 43 -9 81t-27 66t-45.5 44.5t-64.5 16.5q-42 0 -70.5 -19t-46 -52t-24.5 -78t-7 -97q0 -39 2.5 -75.5t7.5 -71.5q23 -15 55.5 -24t65.5 -9q46 0 77.5 18.5t50.5 49.5t27 70t8 80z" />
    <glyph glyph-name="sigma1" unicode="&#x3c2;" horiz-adv-x="479" 
d="M409 452q-22 14 -50 21t-58 7q-36 0 -66 -14.5t-51 -40.5t-33 -62t-12 -80q0 -120 77 -174.5t217 -57.5l-32 -222l-66 10l16 151q-68 9 -123 29.5t-94 56t-60 85.5t-21 118q0 63 18 113t49.5 85t75.5 54t95 19q41 0 77.5 -8.5t68.5 -28.5z" />
    <glyph glyph-name="sigma" unicode="&#x3c3;" horiz-adv-x="612" 
d="M521 471q-27 0 -53 1.5t-44 5.5v-2q37 -31 61 -85t24 -130q0 -56 -13.5 -105t-41.5 -86.5t-71 -59t-101 -21.5q-56 0 -98.5 21.5t-71.5 59t-44 89t-15 111.5t15 111t44 88.5t71.5 59t98.5 21.5q18 0 33.5 -1.5t31 -4t34 -4t42.5 -1.5h158v-68h-60zM428 271
q0 54 -10.5 93.5t-30 65.5t-46.5 39t-59 13q-37 0 -64.5 -15.5t-45.5 -43.5t-27 -67t-9 -85q0 -47 9 -86t27 -67t45.5 -44t64.5 -16t64.5 16t45.5 44t27 67t9 86z" />
    <glyph glyph-name="tau" unicode="&#x3c4;" horiz-adv-x="448" 
d="M266 471v-471h-83v471h-153v68h388v-68h-152z" />
    <glyph glyph-name="upsilon" unicode="&#x3c5;" horiz-adv-x="550" 
d="M477 174q0 -42 -14.5 -76t-41 -58.5t-63.5 -37.5t-83 -13t-83 13t-63.5 37.5t-41 58.5t-14.5 76v365h83v-366q0 -54 32.5 -85t86.5 -31t86.5 31t32.5 85v366h83v-365z" />
    <glyph glyph-name="phi" unicode="&#x3c6;" horiz-adv-x="762" 
d="M709 287q0 -65 -19 -118t-56.5 -92t-93 -61.5t-128.5 -24.5v-206h-78v206q-71 3 -123.5 26.5t-87.5 62.5t-52.5 91t-17.5 111q0 49 13 91.5t35.5 77t53.5 59.5t66 40l34 -61q-24 -10 -46 -28t-39 -44.5t-27.5 -60t-10.5 -73.5q0 -47 12 -87.5t37 -71t63 -49t90 -19.5v456
q31 17 67.5 27.5t79.5 10.5q55 0 97.5 -18.5t71.5 -53t44 -83t15 -108.5zM631 284q0 93 -38 147t-109 54q-18 0 -37.5 -4t-34.5 -12v-413q109 3 164 62.5t55 165.5z" />
    <glyph glyph-name="chi" unicode="&#x3c7;" horiz-adv-x="551" 
d="M441 -215l-171 332h-2q-25 -32 -49 -67.5t-45.5 -76t-39 -87.5t-29.5 -101h-85q15 65 38 121t51 104t59 90t61 79l-193 360h91l151 -304h2q46 60 84 133.5t58 170.5h85q-12 -59 -32.5 -110.5t-45.5 -96t-53.5 -84t-56.5 -74.5l213 -389h-91z" />
    <glyph glyph-name="psi" unicode="&#x3c8;" horiz-adv-x="762" 
d="M693 267q0 -128 -67.5 -199.5t-205.5 -76.5v-206h-78v206q-138 5 -205.5 76.5t-67.5 199.5v272h78v-272q0 -96 45.5 -151.5t149.5 -58.5v591h78v-591q104 3 149.5 58.5t45.5 151.5v272h78v-272z" />
    <glyph glyph-name="omega" unicode="&#x3c9;" horiz-adv-x="785" 
d="M730 268q0 -55 -11.5 -105.5t-35.5 -89t-61.5 -61.5t-88.5 -23q-33 0 -57.5 11.5t-42 31t-27 44.5t-12.5 52h-2q-3 -27 -13 -52t-27 -44.5t-42 -31t-58 -11.5q-51 0 -88.5 23t-61.5 61.5t-35.5 89t-11.5 105.5q0 37 5.5 75t16.5 73.5t26.5 67t35.5 55.5h91
q-23 -27 -40.5 -59.5t-29 -68.5t-17.5 -73t-6 -72q0 -41 7 -78t21.5 -65t37 -44t53.5 -16q45 0 71.5 42.5t26.5 127.5v189h77v-189q0 -85 26.5 -127.5t71.5 -42.5q31 0 53.5 16t37 44t21.5 65t7 78q0 35 -6 72t-17.5 73t-29 68.5t-40.5 59.5h91q20 -24 35.5 -55.5t26.5 -67
t16.5 -73.5t5.5 -75z" />
    <glyph glyph-name="iotadieresis" unicode="&#x3ca;" horiz-adv-x="256" 
d="M221 -11q-143 7 -143 144v406h83v-406q0 -64 60 -71v-73zM262 669q0 -19 -14 -32.5t-34 -13.5t-34 13.5t-14 32.5t14 32.5t34 13.5t34 -13.5t14 -32.5zM77 669q0 -19 -14 -32.5t-34 -13.5t-34 13.5t-14 32.5t14 32.5t34 13.5t34 -13.5t14 -32.5z" />
    <glyph glyph-name="upsilondieresis" unicode="&#x3cb;" horiz-adv-x="550" 
d="M416 669q0 -19 -14 -32.5t-34 -13.5t-34 13.5t-14 32.5t14 32.5t34 13.5t34 -13.5t14 -32.5zM231 669q0 -19 -14 -32.5t-34 -13.5t-34 13.5t-14 32.5t14 32.5t34 13.5t34 -13.5t14 -32.5zM477 174q0 -42 -14.5 -76t-41 -58.5t-63.5 -37.5t-83 -13t-83 13t-63.5 37.5
t-41 58.5t-14.5 76v365h83v-366q0 -54 32.5 -85t86.5 -31t86.5 31t32.5 85v366h83v-365z" />
    <glyph glyph-name="omicrontonos" unicode="&#x3cc;" horiz-adv-x="564" 
d="M511 270q0 -60 -15 -111.5t-44 -89t-71.5 -59t-98.5 -21.5t-98.5 21.5t-71.5 59t-44 89t-15 111.5t15 111t44 88.5t71.5 59t98.5 21.5t98.5 -21.5t71.5 -59t44 -88.5t15 -111zM428 271q0 46 -9 85t-27 67t-45.5 43.5t-64.5 15.5t-64.5 -15.5t-45.5 -43.5t-27 -67t-9 -85
q0 -47 9 -86t27 -67t45.5 -44t64.5 -16t64.5 16t45.5 44t27 67t9 86zM300 603h-55l46 134q7 11 19 16.5t25 5.5q12 0 22.5 -5t15.5 -17z" />
    <glyph glyph-name="upsilontonos" unicode="&#x3cd;" horiz-adv-x="550" 
d="M287 603h-55l46 134q7 11 19 16.5t25 5.5q12 0 22.5 -5t15.5 -17zM477 174q0 -42 -14.5 -76t-41 -58.5t-63.5 -37.5t-83 -13t-83 13t-63.5 37.5t-41 58.5t-14.5 76v365h83v-366q0 -54 32.5 -85t86.5 -31t86.5 31t32.5 85v366h83v-365z" />
    <glyph glyph-name="omegatonos" unicode="&#x3ce;" horiz-adv-x="785" 
d="M730 268q0 -55 -11.5 -105.5t-35.5 -89t-61.5 -61.5t-88.5 -23q-33 0 -57.5 11.5t-42 31t-27 44.5t-12.5 52h-2q-3 -27 -13 -52t-27 -44.5t-42 -31t-58 -11.5q-51 0 -88.5 23t-61.5 61.5t-35.5 89t-11.5 105.5q0 37 5.5 75t16.5 73.5t26.5 67t35.5 55.5h91
q-23 -27 -40.5 -59.5t-29 -68.5t-17.5 -73t-6 -72q0 -41 7 -78t21.5 -65t37 -44t53.5 -16q45 0 71.5 42.5t26.5 127.5v189h77v-189q0 -85 26.5 -127.5t71.5 -42.5q31 0 53.5 16t37 44t21.5 65t7 78q0 35 -6 72t-17.5 73t-29 68.5t-40.5 59.5h91q20 -24 35.5 -55.5t26.5 -67
t16.5 -73.5t5.5 -75zM406 603h-55l46 134q7 11 19 16.5t25 5.5q12 0 22.5 -5t15.5 -17z" />
    <glyph glyph-name="uni0400" unicode="&#x400;" horiz-adv-x="504" 
d="M79 0v724h375v-74h-290v-242h267v-72h-267v-262h290v-74h-375zM249 788l-100 130q3 11 13 17t24 6q13 0 26.5 -6t24.5 -17l74 -130h-62z" />
    <glyph glyph-name="afii10023" unicode="&#x401;" horiz-adv-x="504" 
d="M79 0v724h375v-74h-290v-242h267v-72h-267v-262h290v-74h-375zM407 854q0 -19 -14 -32.5t-34 -13.5t-34 13.5t-14 32.5t14 32.5t34 13.5t34 -13.5t14 -32.5zM222 854q0 -19 -14 -32.5t-34 -13.5t-34 13.5t-14 32.5t14 32.5t34 13.5t34 -13.5t14 -32.5z" />
    <glyph glyph-name="afii10051" unicode="&#x402;" horiz-adv-x="704" 
d="M648 185q0 -62 -14.5 -119t-42.5 -106t-69.5 -87t-94.5 -63l-37 65q87 43 129.5 125t42.5 185q0 47 -9.5 87t-30 69t-52.5 45.5t-77 16.5q-29 0 -62.5 -8.5t-57.5 -22.5v-372h-85v650h-155v74h488v-74h-248v-209q29 15 65.5 23.5t71.5 8.5q61 0 106 -21t74 -59.5
t43.5 -91.5t14.5 -116z" />
    <glyph glyph-name="afii10052" unicode="&#x403;" horiz-adv-x="480" 
d="M169 650v-650h-87v724h366v-74h-279zM277 788h-62l74 130q11 11 24.5 17t26.5 6q14 0 24 -6t13 -17z" />
    <glyph glyph-name="afii10053" unicode="&#x404;" horiz-adv-x="565" 
d="M519 27q-38 -20 -76.5 -29t-83.5 -9q-65 0 -120 24t-95.5 71t-63.5 116.5t-23 161.5t23 161.5t63.5 116.5t95.5 71t120 24q45 0 83.5 -9t76.5 -29l-28 -68q-29 15 -60.5 23t-69.5 8q-42 0 -79 -15t-66.5 -45.5t-48.5 -78t-23 -112.5h296v-73h-297q2 -71 20 -122.5
t47.5 -84.5t68 -49t82.5 -16q38 0 69.5 8t60.5 23z" />
    <glyph glyph-name="afii10054" unicode="&#x405;" horiz-adv-x="519" 
d="M464 197q0 -48 -17.5 -86.5t-49.5 -65.5t-76.5 -41.5t-98.5 -14.5q-93 0 -174 38l30 74q31 -16 66.5 -25t74.5 -9q69 0 113 33t44 93q0 40 -24 66.5t-59.5 46.5t-77 38.5t-77 43t-59.5 60.5t-24 91q0 45 16.5 81.5t45.5 62t70 39t91 13.5q46 0 85.5 -10t72.5 -28l-29 -70
q-28 16 -59 24.5t-67 8.5q-61 0 -100 -30.5t-39 -86.5q0 -40 24 -65.5t59.5 -45.5t77.5 -38.5t77.5 -44t59.5 -61.5t24 -91z" />
    <glyph glyph-name="afii10055" unicode="&#x406;" horiz-adv-x="248" 
d="M81 0v724h86v-724h-86z" />
    <glyph glyph-name="afii10056" unicode="&#x407;" horiz-adv-x="248" 
d="M81 0v724h86v-724h-86zM81 854q0 -19 -14 -32.5t-34 -13.5t-34 13.5t-14 32.5t14 32.5t34 13.5t34 -13.5t14 -32.5zM265 854q0 -19 -14 -32.5t-34 -13.5t-34 13.5t-14 32.5t14 32.5t34 13.5t34 -13.5t14 -32.5z" />
    <glyph glyph-name="afii10057" unicode="&#x408;" horiz-adv-x="248" 
d="M167 80q0 -134 -62.5 -205.5t-171.5 -93.5v77q34 10 61.5 27.5t46.5 44.5t29.5 64t10.5 86v644h86v-644z" />
    <glyph glyph-name="afii10058" unicode="&#x409;" horiz-adv-x="971" 
d="M920 213q0 -51 -17 -92t-50 -70.5t-81 -45.5t-110 -16q-56 0 -104 10t-86 28v624h-176l-17 -163q-8 -80 -20.5 -153.5t-37 -138.5t-65.5 -118.5t-106 -92.5l-30 73q50 34 80.5 80t49 101.5t28 120.5t17.5 137l24 227h338v-302q15 5 42 8.5t53 3.5q64 0 114 -16.5
t84.5 -45.5t52 -69.5t17.5 -89.5zM835 212q0 72 -48.5 112.5t-137.5 40.5q-23 0 -50 -3.5t-42 -8.5v-278q18 -8 45.5 -12.5t59.5 -4.5q85 0 129 39.5t44 114.5z" />
    <glyph glyph-name="afii10059" unicode="&#x40a;" horiz-adv-x="942" 
d="M891 213q0 -51 -17 -92t-50 -70.5t-81 -45.5t-110 -16q-56 0 -104 10t-86 28v309h-278v-336h-86v724h86v-316h278v316h85v-302q15 5 42 8.5t53 3.5q64 0 114 -16.5t84.5 -45.5t52 -69.5t17.5 -89.5zM806 212q0 72 -48.5 112.5t-137.5 40.5q-23 0 -50 -3.5t-42 -8.5v-278
q18 -8 45.5 -12.5t59.5 -4.5q85 0 129 39.5t44 114.5z" />
    <glyph glyph-name="afii10060" unicode="&#x40b;" horiz-adv-x="700" 
d="M539 0v272q0 68 -38.5 100t-104.5 32q-30 0 -64 -8t-59 -22v-374h-85v650h-155v74h488v-74h-248v-209q29 15 66 23.5t73 8.5q98 0 155 -50t57 -147v-276h-85z" />
    <glyph glyph-name="afii10061" unicode="&#x40c;" horiz-adv-x="593" 
d="M303 788h-62l74 130q11 11 24.5 17t26.5 6q14 0 24 -6t13 -17zM474 0l-117 227q-27 53 -75.5 87.5t-114.5 34.5v-349h-86v724h86v-337h2l286 337h105l-295 -334q116 -32 178 -148l129 -242h-98z" />
    <glyph glyph-name="uni040D" unicode="&#x40d;" horiz-adv-x="691" 
d="M534 0v522q0 32 1 57.5t1 30.5h-2q-3 -7 -14 -29.5t-28 -49.5l-332 -531h-81v724h79v-509q0 -32 -1 -57.5t-1 -33.5h2l14 29q12 23 29 50l326 521h85v-724h-78zM331 788l-100 130q3 11 13 17t24 6q13 0 26.5 -6t24.5 -17l74 -130h-62z" />
    <glyph glyph-name="afii10062" unicode="&#x40e;" horiz-adv-x="599" 
d="M557 724q-19 -133 -71.5 -260.5t-116.5 -242.5l-122 -221h-97l118 206q-39 60 -75 122.5t-66 127.5t-52 132t-34 136h90q21 -118 69 -229.5t110 -214.5h2q54 103 95 213t59 231h91zM434 918q-4 -62 -38.5 -98t-96.5 -36t-97 36t-39 98l52 9q7 -43 26.5 -65t57.5 -22
t57 22t26 65z" />
    <glyph glyph-name="afii10145" unicode="&#x40f;" horiz-adv-x="632" 
d="M352 0l-4 -146h-63l-5 146h-201v724h87v-650h301v650h86v-724h-201z" />
    <glyph glyph-name="afii10017" unicode="&#x410;" horiz-adv-x="656" 
d="M546 0l-72 211h-291l-72 -211h-91l259 724h99l258 -724h-90zM351 570q-8 25 -13.5 46.5t-8.5 36.5h-2q-3 -15 -8.5 -36.5t-13.5 -46.5l-100 -293h247z" />
    <glyph glyph-name="afii10018" unicode="&#x411;" horiz-adv-x="590" 
d="M537 208q0 -99 -66 -159t-195 -60q-54 0 -106.5 10.5t-88.5 27.5v697h382v-74h-299v-234q17 5 46 8.5t58 3.5q131 0 200 -59.5t69 -160.5zM451 210q0 72 -48.5 111.5t-141.5 39.5q-25 0 -52.5 -3.5t-44.5 -8.5v-274q18 -8 48.5 -12.5t63.5 -4.5q87 0 131 40t44 112z" />
    <glyph glyph-name="afii10019" unicode="&#x412;" horiz-adv-x="607" 
d="M555 192q0 -95 -71 -149t-202 -54q-27 0 -55.5 3t-55 8t-50 12t-40.5 15v670q36 17 88.5 27.5t109.5 10.5q124 0 187.5 -52.5t63.5 -136.5q0 -35 -11 -63.5t-29 -50t-40 -35t-43 -18.5v-2q23 -6 49 -19t48 -35.5t36.5 -55t14.5 -75.5zM447 540q0 60 -43.5 93.5
t-124.5 33.5q-34 0 -65 -5t-51 -13v-245h106q26 0 45 1.5t34 5t27 9t24 14.5q22 16 35 44t13 62zM469 196q0 82 -67 119q-13 7 -25.5 11.5t-27 7.5t-33 4.5t-43.5 1.5h-110v-265q21 -8 54 -13t65 -5q91 0 139 35.5t48 103.5z" />
    <glyph glyph-name="afii10020" unicode="&#x413;" horiz-adv-x="480" 
d="M169 650v-650h-87v724h366v-74h-279z" />
    <glyph glyph-name="afii10021" unicode="&#x414;" horiz-adv-x="748" 
d="M689 -146h-63l-4 146h-512l-4 -146h-63l-5 202q50 41 84 100.5t56.5 125.5t35 133.5t19.5 126.5l21 182h321l74 -650l45 -18zM500 651h-172l-13 -117q-6 -57 -18 -122t-31.5 -128t-46.5 -119t-64 -96h410z" />
    <glyph glyph-name="afii10022" unicode="&#x415;" horiz-adv-x="504" 
d="M79 0v724h375v-74h-290v-242h267v-72h-267v-262h290v-74h-375z" />
    <glyph glyph-name="afii10024" unicode="&#x416;" horiz-adv-x="876" 
d="M761 0l-117 236q-24 49 -65.5 82t-99.5 33v-351h-82v351q-58 0 -99 -33t-65 -82l-118 -236h-93l127 250q27 54 67 89t88 51l-269 334h102l258 -339h2v339h82v-339h2l258 339h102l-268 -334q48 -16 87.5 -51t66.5 -89l127 -250h-93z" />
    <glyph glyph-name="afii10025" unicode="&#x417;" horiz-adv-x="560" 
d="M508 200q0 -48 -19 -87t-54 -66.5t-86 -42.5t-115 -15q-51 0 -98 9.5t-92 28.5l28 68q37 -15 77.5 -23.5t84.5 -8.5q88 0 137 36.5t49 102.5q0 71 -65.5 104.5t-184.5 33.5h-35v67h35q48 0 89 9t71 27t46.5 44t16.5 60q0 53 -41.5 83.5t-116.5 30.5q-42 0 -80 -7t-76 -24
l-29 67q85 38 192 38q56 0 100 -13.5t75 -37.5t47 -57.5t16 -74.5q0 -65 -40.5 -108.5t-106.5 -60.5v-2q36 -7 67.5 -21t55.5 -36t38 -53t14 -71z" />
    <glyph glyph-name="afii10026" unicode="&#x418;" horiz-adv-x="691" 
d="M534 0v522q0 32 1 57.5t1 30.5h-2q-3 -7 -14 -29.5t-28 -49.5l-332 -531h-81v724h79v-509q0 -32 -1 -57.5t-1 -33.5h2l14 29q12 23 29 50l326 521h85v-724h-78z" />
    <glyph glyph-name="afii10027" unicode="&#x419;" horiz-adv-x="691" 
d="M534 0v522q0 32 1 57.5t1 30.5h-2q-3 -7 -14 -29.5t-28 -49.5l-332 -531h-81v724h79v-509q0 -32 -1 -57.5t-1 -33.5h2l14 29q12 23 29 50l326 521h85v-724h-78zM479 918q-4 -62 -38.5 -98t-96.5 -36t-97 36t-39 98l52 9q7 -43 26.5 -65t57.5 -22t57 22t26 65z" />
    <glyph glyph-name="afii10028" unicode="&#x41a;" horiz-adv-x="593" 
d="M474 0l-117 227q-27 53 -75.5 87.5t-114.5 34.5v-349h-86v724h86v-337h2l286 337h105l-295 -334q116 -32 178 -148l129 -242h-98z" />
    <glyph glyph-name="afii10029" unicode="&#x41b;" horiz-adv-x="695" 
d="M548 0l-71 651h-172l-17 -163q-8 -80 -20.5 -154t-38 -138.5t-68 -118.5t-110.5 -93l-30 75q52 34 84.5 80t51.5 101.5t28.5 120t17.5 136.5l25 227h327l81 -724h-88z" />
    <glyph glyph-name="afii10030" unicode="&#x41c;" horiz-adv-x="868" 
d="M734 0l-68 543q-4 31 -6 55t-3 33h-2q-2 -11 -7.5 -34t-14.5 -54l-167 -543h-64l-167 543q-9 31 -14.5 54t-7.5 34h-2q-1 -12 -2.5 -34.5t-5.5 -53.5l-69 -543h-81l96 724h103l160 -520q3 -10 6 -22.5t6 -24.5t5.5 -23t3.5 -17h2q2 11 7.5 36.5t13.5 50.5l160 520h103
l96 -724h-81z" />
    <glyph glyph-name="afii10031" unicode="&#x41d;" horiz-adv-x="639" 
d="M473 0v336h-307v-336h-87v724h87v-316h307v316h87v-724h-87z" />
    <glyph glyph-name="afii10032" unicode="&#x41e;" horiz-adv-x="668" 
d="M611 362q0 -77 -17.5 -145t-52 -118.5t-86.5 -80t-121 -29.5t-121 29.5t-86.5 80t-52 118.5t-17.5 145t17.5 145t52 118.5t86.5 80t121 29.5t121 -29.5t86.5 -80t52 -118.5t17.5 -145zM525 362q0 63 -12 117t-36 93.5t-60 62.5t-83 23t-83 -23t-60 -62.5t-36 -93.5
t-12 -117t12 -117t36 -93.5t60 -62.5t83 -23t83 23t60 62.5t36 93.5t12 117z" />
    <glyph glyph-name="afii10033" unicode="&#x41f;" horiz-adv-x="639" 
d="M473 0v651h-307v-651h-87v724h481v-724h-87z" />
    <glyph glyph-name="afii10034" unicode="&#x420;" horiz-adv-x="569" 
d="M527 514q0 -48 -18 -88t-53.5 -69t-87.5 -45t-119 -16q-23 0 -46 1.5t-38 4.5v-302h-86v697q38 18 86 28t104 10q125 0 191.5 -59.5t66.5 -161.5zM442 515q0 75 -44 113t-128 38q-32 0 -59.5 -4.5t-45.5 -12.5v-278q15 -3 36.5 -4.5t44.5 -1.5q96 0 146 40.5t50 109.5z
" />
    <glyph glyph-name="afii10035" unicode="&#x421;" horiz-adv-x="540" 
d="M495 27q-67 -38 -155 -38q-58 0 -109.5 22.5t-90 68.5t-61 116.5t-22.5 165.5t22.5 165.5t61 116.5t90 68.5t109.5 22.5q88 0 155 -38l-29 -69q-24 14 -53.5 22.5t-64.5 8.5q-42 0 -78.5 -17.5t-64 -54t-43.5 -92.5t-16 -132t16 -132t43.5 -92.5t64 -54.5t78.5 -18
q35 0 64.5 8.5t53.5 22.5z" />
    <glyph glyph-name="afii10036" unicode="&#x422;" horiz-adv-x="512" 
d="M299 650v-650h-86v650h-180v74h446v-74h-180z" />
    <glyph glyph-name="afii10037" unicode="&#x423;" horiz-adv-x="599" 
d="M557 724q-19 -133 -71.5 -260.5t-116.5 -242.5l-122 -221h-97l118 206q-39 60 -75 122.5t-66 127.5t-52 132t-34 136h90q21 -118 69 -229.5t110 -214.5h2q54 103 95 213t59 231h91z" />
    <glyph glyph-name="afii10038" unicode="&#x424;" horiz-adv-x="821" 
d="M768 363q0 -64 -22 -120.5t-63 -99.5t-100 -69t-134 -27v-69h-77v69q-75 1 -134 27t-100 69t-63 99.5t-22 120.5t22 120.5t63 99.5t100 68.5t134 27.5v67h77v-67q75 -2 134 -27.5t100 -68.5t63 -99.5t22 -120.5zM683 363q0 51 -16 95.5t-46 78.5t-73.5 53.5t-98.5 20.5
v-496q55 0 98.5 20t73.5 53.5t46 78.5t16 96zM372 611q-56 -1 -99.5 -20.5t-73.5 -53.5t-45.5 -78.5t-15.5 -95.5t15.5 -96t45.5 -78.5t73.5 -53.5t99.5 -20v496z" />
    <glyph glyph-name="afii10039" unicode="&#x425;" horiz-adv-x="585" 
d="M466 0l-172 305h-2l-173 -305h-95l218 375l-203 349h94l159 -280h2l158 280h95l-203 -349l217 -375h-95z" />
    <glyph glyph-name="afii10040" unicode="&#x426;" horiz-adv-x="651" 
d="M592 -146h-63l-4 146h-446v724h87v-650h301v650h86v-650l44 -18z" />
    <glyph glyph-name="afii10041" unicode="&#x427;" horiz-adv-x="620" 
d="M454 0v298q-13 -7 -31.5 -12.5t-39 -10t-41.5 -7t-38 -2.5q-53 0 -95.5 15.5t-72 45t-45.5 71t-16 93.5v233h87v-228q0 -75 41.5 -114.5t115.5 -39.5q15 0 33.5 2.5t37.5 6.5t36 9.5t28 12.5v351h86v-724h-86z" />
    <glyph glyph-name="afii10042" unicode="&#x428;" horiz-adv-x="928" 
d="M79 0v724h84v-651h259v651h84v-651h260v651h83v-724h-770z" />
    <glyph glyph-name="afii10043" unicode="&#x429;" horiz-adv-x="947" 
d="M888 -146h-63l-4 146h-742v724h84v-651h259v651h84v-651h260v651h83v-650l44 -18z" />
    <glyph glyph-name="afii10044" unicode="&#x42a;" horiz-adv-x="686" 
d="M636 213q0 -51 -17 -92t-50 -70.5t-81.5 -45.5t-110.5 -16q-56 0 -103.5 10t-85.5 28v623h-155v74h240v-302q15 5 41.5 8.5t52.5 3.5q64 0 114.5 -16.5t84.5 -45.5t52 -69.5t18 -89.5zM550 212q0 72 -48.5 112.5t-137.5 40.5q-23 0 -49.5 -3.5t-41.5 -8.5v-278
q18 -8 45.5 -12.5t59.5 -4.5q85 0 128.5 39.5t43.5 114.5z" />
    <glyph glyph-name="afii10045" unicode="&#x42b;" horiz-adv-x="788" 
d="M620 0v724h87v-724h-87zM527 213q0 -51 -17 -92t-50 -70.5t-81 -45.5t-110 -16q-56 0 -104 10t-86 28v697h85v-302q15 5 42 8.5t53 3.5q64 0 114 -16.5t84.5 -45.5t52 -69.5t17.5 -89.5zM442 212q0 72 -48.5 112.5t-137.5 40.5q-23 0 -50 -3.5t-42 -8.5v-278
q18 -8 45.5 -12.5t59.5 -4.5q85 0 129 39.5t44 114.5z" />
    <glyph glyph-name="afii10046" unicode="&#x42c;" horiz-adv-x="578" 
d="M527 213q0 -51 -17 -92t-50 -70.5t-81 -45.5t-110 -16q-56 0 -104 10t-86 28v697h85v-302q15 5 42 8.5t53 3.5q64 0 114 -16.5t84.5 -45.5t52 -69.5t17.5 -89.5zM442 212q0 72 -48.5 112.5t-137.5 40.5q-23 0 -50 -3.5t-42 -8.5v-278q18 -8 45.5 -12.5t59.5 -4.5
q85 0 129 39.5t44 114.5z" />
    <glyph glyph-name="afii10047" unicode="&#x42d;" horiz-adv-x="565" 
d="M508 362q0 -92 -23 -161.5t-63.5 -116.5t-95.5 -71t-120 -24q-45 0 -83.5 9t-76.5 29l28 68q29 -15 60.5 -23t69.5 -8q43 0 82 16t68.5 49t47.5 84.5t20 122.5h-297v73h296q-5 65 -23.5 112.5t-48 78t-66.5 45.5t-79 15q-38 0 -69.5 -8t-60.5 -23l-28 68q38 20 76.5 29
t83.5 9q65 0 120 -24t95.5 -71t63.5 -116.5t23 -161.5z" />
    <glyph glyph-name="afii10048" unicode="&#x42e;" horiz-adv-x="892" 
d="M834 362q0 -76 -14 -143.5t-44 -118.5t-77.5 -81t-114.5 -30q-64 0 -110 28t-76 75t-45.5 110t-17.5 134h-170v-336h-86v724h86v-316h171q4 67 20 127t46 104t75 70t107 26q67 0 114.5 -30t77.5 -81t44 -118.5t14 -143.5zM749 363q0 62 -9 117t-29 96.5t-51.5 65.5
t-75.5 24t-75.5 -24t-51.5 -65.5t-29.5 -96.5t-9.5 -117t9.5 -117.5t29.5 -97t51.5 -65.5t75.5 -24t75.5 24t51.5 65.5t29 97t9 117.5z" />
    <glyph glyph-name="afii10049" unicode="&#x42f;" horiz-adv-x="615" 
d="M450 0v318h-86q-46 0 -75 -21t-48 -61l-113 -236h-93l119 243q17 34 37 59t48 39v2q-36 6 -67 20t-53.5 36.5t-35 55t-12.5 75.5q0 93 66.5 149t196.5 56q57 0 110 -10.5t91 -28.5v-696h-85zM450 649q-20 8 -52 13t-66 5q-90 0 -133 -37t-43 -103q0 -79 50 -111.5
t137 -32.5h107v266z" />
    <glyph glyph-name="afii10065" unicode="&#x430;" horiz-adv-x="528" 
d="M455 27q-29 -16 -80.5 -27t-105.5 -11q-112 0 -167 44t-55 121q0 58 28.5 93t75 54.5t105.5 27.5t120 11v41q0 30 -9.5 50t-26.5 32.5t-40.5 17.5t-51.5 5q-19 0 -39.5 -3t-40 -7.5t-37 -10.5t-30.5 -12l-22 59q31 14 78 26t98 12q45 0 82 -9.5t63.5 -30.5t40.5 -54.5
t14 -81.5v-347zM376 282q-45 -3 -89.5 -7t-80.5 -16.5t-58 -36.5t-22 -66q0 -48 35 -76t106 -28q15 0 31.5 1.5t31.5 3.5t27 5.5t19 6.5v213z" />
    <glyph glyph-name="afii10066" unicode="&#x431;" horiz-adv-x="567" 
d="M515 271q0 -60 -15 -111.5t-43.5 -89.5t-70.5 -59.5t-96 -21.5q-58 0 -101.5 24.5t-72 69t-42.5 107t-14 138.5q0 105 21 185.5t68.5 138.5t124.5 93.5t190 49.5v-70q-131 -18 -202 -67t-99 -140q26 12 55.5 20t67.5 8q56 0 99 -21t72 -58t43.5 -87.5t14.5 -108.5z
M432 271q0 45 -10 84t-29.5 67.5t-48.5 45t-68 16.5q-34 0 -66 -7.5t-61 -21.5q-9 -57 -9 -130q0 -60 9.5 -109.5t28.5 -84.5t47.5 -54t65.5 -19q35 0 61.5 16.5t44 45t26.5 67.5t9 84z" />
    <glyph glyph-name="afii10067" unicode="&#x432;" horiz-adv-x="531" 
d="M479 143q0 -75 -60 -114.5t-167 -39.5q-48 0 -95 10t-82 28v485q36 18 82 28t93 10q100 0 155.5 -38.5t55.5 -104.5q0 -26 -9 -47t-24 -37t-33.5 -26.5t-36.5 -14.5v-1q19 -4 40.5 -14t39.5 -27t29.5 -41t11.5 -56zM381 402q0 44 -34 68t-97 24q-26 0 -53 -5.5t-43 -13.5
v-171h93q38 0 59 4t39 17q17 11 26.5 31.5t9.5 45.5zM397 147q0 60 -51 86q-19 10 -39 14t-57 4h-96v-187q17 -8 44.5 -13.5t53.5 -5.5q68 0 106.5 26.5t38.5 75.5z" />
    <glyph glyph-name="afii10068" unicode="&#x433;" horiz-adv-x="409" 
d="M159 472v-472h-83v539h303v-67h-220z" />
    <glyph glyph-name="afii10069" unicode="&#x434;" horiz-adv-x="636" 
d="M582 -146h-61l-4 146h-411l-5 -146h-60l-7 197q44 29 72 71t45.5 89.5t27 97t16.5 94.5l20 136h277l53 -471l42 -17zM424 474h-142l-13 -86q-6 -40 -14 -84.5t-22 -88t-35.5 -83t-54.5 -68.5h325z" />
    <glyph glyph-name="afii10070" unicode="&#x435;" horiz-adv-x="556" 
d="M503 302q0 -9 -1 -19l-368 -53q7 -87 55 -130t126 -43q41 0 80.5 9t66.5 24l26 -63q-29 -17 -76 -27.5t-101 -10.5q-121 0 -189.5 74t-68.5 207q0 62 16 113.5t46.5 88.5t74 57.5t98.5 20.5q100 0 157.5 -61.5t57.5 -169.5v-17zM423 330q-1 80 -38 118t-98 38
q-72 0 -114 -53t-44 -145z" />
    <glyph glyph-name="afii10072" unicode="&#x436;" horiz-adv-x="741" 
d="M633 0l-86 166q-20 39 -54.5 68.5t-83.5 29.5v-264h-77v264q-49 0 -83.5 -29.5t-54.5 -68.5l-86 -166h-88l95 177q23 44 54.5 74t73.5 44l-217 244h96l208 -249h2v249h77v-249h2l209 249h95l-217 -244q42 -14 73.5 -44t54.5 -74l95 -177h-88z" />
    <glyph glyph-name="afii10073" unicode="&#x437;" horiz-adv-x="491" 
d="M440 145q0 -39 -17 -68t-47 -48.5t-71 -29.5t-88 -10q-49 0 -91 9.5t-84 28.5l26 59q67 -32 144 -32q30 0 56 6t45 18t30 30t11 43q0 42 -37.5 69.5t-118.5 27.5h-73v58h71q71 0 106 24.5t35 66.5q0 46 -36 67.5t-87 21.5q-36 0 -71 -8.5t-66 -23.5l-25 58q41 20 84 29
t88 9q44 0 80 -9.5t62 -28.5t40.5 -46t14.5 -62q0 -45 -29.5 -77.5t-76.5 -43.5v-2q24 -5 46.5 -16t40 -28t28 -40t10.5 -52z" />
    <glyph glyph-name="afii10074" unicode="&#x438;" horiz-adv-x="583" 
d="M436 0v378q0 24 1 44t1 25h-2q-4 -8 -11.5 -25t-21.5 -37l-247 -385h-83v539h75v-368q0 -24 -1 -45t-1 -26h2q1 3 4 10l8 16q5 9 10.5 18.5t10.5 17.5l242 377h87v-539h-74z" />
    <glyph glyph-name="afii10075" unicode="&#x439;" horiz-adv-x="583" 
d="M436 0v378q0 24 1 44t1 25h-2q-4 -8 -11.5 -25t-21.5 -37l-247 -385h-83v539h75v-368q0 -24 -1 -45t-1 -26h2q1 3 4 10l8 16q5 9 10.5 18.5t10.5 17.5l242 377h87v-539h-74zM425 733q-4 -62 -38.5 -98t-96.5 -36t-97 36t-39 98l52 9q7 -43 26.5 -65t57.5 -22t57 22t26 65
z" />
    <glyph glyph-name="afii10076" unicode="&#x43a;" horiz-adv-x="511" 
d="M400 0l-97 166q-23 38 -59 66.5t-87 28.5v-261h-82v539h82v-246h2l227 246h101l-238 -245q48 -14 80 -43.5t58 -72.5l106 -178h-93z" />
    <glyph glyph-name="afii10077" unicode="&#x43b;" horiz-adv-x="601" 
d="M465 0l-52 472h-140l-16 -111q-8 -53 -19 -110t-34 -108.5t-60.5 -93.5t-97.5 -64l-29 68q43 19 71 52.5t45 76.5t26.5 91.5t16.5 96.5l24 169h288l60 -539h-83z" />
    <glyph glyph-name="afii10078" unicode="&#x43c;" horiz-adv-x="743" 
d="M616 0l-49 394q-3 25 -4 43t-2 29h-2q-3 -14 -7.5 -33t-11.5 -39l-135 -394h-67l-135 394q-8 24 -12.5 45t-6.5 27h-2q0 -4 -0.5 -12.5t-1 -19t-1.5 -21t-2 -19.5l-50 -394h-79l76 539h101l129 -378q6 -17 10.5 -36.5t6.5 -30.5h2q2 11 6.5 30.5t10.5 36.5l128 378h102
l75 -539h-79z" />
    <glyph glyph-name="afii10079" unicode="&#x43d;" horiz-adv-x="563" 
d="M397 0v241h-241v-241h-83v539h83v-230h241v230h83v-539h-83z" />
    <glyph glyph-name="afii10080" unicode="&#x43e;" horiz-adv-x="564" 
d="M511 270q0 -60 -15 -111.5t-44 -89t-71.5 -59t-98.5 -21.5t-98.5 21.5t-71.5 59t-44 89t-15 111.5t15 111t44 88.5t71.5 59t98.5 21.5t98.5 -21.5t71.5 -59t44 -88.5t15 -111zM428 271q0 46 -9 85t-27 67t-45.5 43.5t-64.5 15.5t-64.5 -15.5t-45.5 -43.5t-27 -67t-9 -85
q0 -47 9 -86t27 -67t45.5 -44t64.5 -16t64.5 16t45.5 44t27 67t9 86z" />
    <glyph glyph-name="afii10081" unicode="&#x43f;" horiz-adv-x="553" 
d="M397 0v472h-240v-472h-84v539h407v-539h-83z" />
    <glyph glyph-name="afii10082" unicode="&#x440;" horiz-adv-x="555" 
d="M503 275q0 -62 -16.5 -113.5t-48 -89t-78.5 -58t-107 -20.5q-28 0 -54.5 4.5t-41.5 9.5v-223h-84v727q13 7 32.5 14t42.5 12t48 8.5t51 3.5q61 0 109 -19.5t80.5 -55.5t49.5 -86.5t17 -113.5zM419 275q0 94 -43.5 151t-127.5 57q-27 0 -52.5 -5.5t-38.5 -12.5v-391
q12 -5 38.5 -9.5t51.5 -4.5q42 0 74.5 16t54 45t32.5 68t11 86z" />
    <glyph glyph-name="afii10083" unicode="&#x441;" horiz-adv-x="460" 
d="M418 26q-27 -19 -61.5 -28t-72.5 -9q-43 0 -84.5 16t-74 50t-52.5 87.5t-20 127.5t20 127t52.5 87t74 50t84.5 16q38 0 72.5 -9t61.5 -28l-29 -61q-40 28 -96 28q-29 0 -56.5 -11.5t-49.5 -36.5t-35 -64.5t-13 -96.5t13.5 -97t35 -65.5t49 -37t56.5 -11.5q28 0 52 7.5
t44 21.5z" />
    <glyph glyph-name="afii10084" unicode="&#x442;" horiz-adv-x="448" 
d="M266 471v-471h-83v471h-153v68h388v-68h-152z" />
    <glyph glyph-name="afii10085" unicode="&#x443;" horiz-adv-x="544" 
d="M504 539q-18 -139 -65.5 -271t-107.5 -253l-113 -230h-88l109 215q-34 63 -65.5 128.5t-57.5 133t-46 137t-30 140.5h87q19 -122 59 -236.5t93 -226.5h2q49 109 84 222.5t52 240.5h87z" />
    <glyph glyph-name="afii10086" unicode="&#x444;" horiz-adv-x="771" 
d="M717 270q0 -53 -11.5 -103t-36 -89t-63 -63t-92.5 -24q-24 0 -48 7t-41 19v-232h-79v232q-17 -12 -40.5 -19t-47.5 -7q-54 0 -93 24t-63.5 63t-36 89t-11.5 103t11.5 103t36 89t63.5 62.5t93 23.5q24 0 47.5 -7t40.5 -19v263h79v-263q17 12 41 19t48 7q54 0 92.5 -23.5
t63 -62.5t36 -89t11.5 -103zM638 270q0 38 -6 76.5t-21.5 70t-42 51t-66.5 19.5q-21 0 -41.5 -6.5t-35.5 -16.5v-389q15 -10 35.5 -16t41.5 -6q40 0 66.5 19.5t42 51t21.5 70t6 76.5zM346 464q-15 10 -35.5 16.5t-41.5 6.5q-40 0 -66.5 -19.5t-42 -51t-21.5 -70t-6 -76.5
t6 -76.5t21.5 -70t42 -51t66.5 -19.5q21 0 41.5 6t35.5 16v389z" />
    <glyph glyph-name="afii10087" unicode="&#x445;" horiz-adv-x="518" 
d="M400 0l-140 222h-2l-140 -222h-95l185 280l-171 259h94l127 -203h2l127 203h94l-171 -259l185 -280h-95z" />
    <glyph glyph-name="afii10088" unicode="&#x446;" horiz-adv-x="565" 
d="M510 -146h-61l-4 146h-372v539h84v-472h234v472h84v-471l40 -17z" />
    <glyph glyph-name="afii10089" unicode="&#x447;" horiz-adv-x="547" 
d="M391 0v221q-26 -14 -59 -23t-67 -9q-96 0 -146.5 47.5t-50.5 138.5v164h84v-158q0 -124 129 -124q29 0 58 8.5t52 22.5v251h83v-539h-83z" />
    <glyph glyph-name="afii10090" unicode="&#x448;" horiz-adv-x="829" 
d="M73 0v539h84v-473h216v473h83v-473h217v473h83v-539h-683z" />
    <glyph glyph-name="afii10091" unicode="&#x449;" horiz-adv-x="846" 
d="M791 -146h-61l-4 146h-653v539h84v-473h216v473h83v-473h217v473h83v-471l40 -17z" />
    <glyph glyph-name="afii10092" unicode="&#x44a;" horiz-adv-x="597" 
d="M547 162q0 -81 -55 -127t-158 -46q-45 0 -91 10.5t-79 27.5v445h-134v67h216v-216q16 5 41.5 8.5t45.5 3.5q107 0 160.5 -47t53.5 -126zM465 162q0 54 -33 84.5t-105 30.5q-19 0 -43 -3.5t-38 -8.5v-200q14 -7 39 -12.5t49 -5.5q66 0 98.5 29.5t32.5 85.5z" />
    <glyph glyph-name="afii10093" unicode="&#x44b;" horiz-adv-x="699" 
d="M543 0v539h83v-539h-83zM457 162q0 -81 -55.5 -127t-158.5 -46q-45 0 -91 10.5t-79 27.5v512h82v-216q16 5 42 8.5t46 3.5q107 0 160.5 -47t53.5 -126zM375 162q0 54 -33 84.5t-105 30.5q-19 0 -43.5 -3.5t-38.5 -8.5v-200q14 -7 39 -12.5t49 -5.5q66 0 99 29.5t33 85.5z
" />
    <glyph glyph-name="afii10094" unicode="&#x44c;" horiz-adv-x="506" 
d="M457 162q0 -81 -55.5 -127t-158.5 -46q-45 0 -91 10.5t-79 27.5v512h82v-216q16 5 42 8.5t46 3.5q107 0 160.5 -47t53.5 -126zM375 162q0 54 -33 84.5t-105 30.5q-19 0 -43.5 -3.5t-38.5 -8.5v-200q14 -7 39 -12.5t49 -5.5q66 0 99 29.5t33 85.5z" />
    <glyph glyph-name="afii10095" unicode="&#x44d;" horiz-adv-x="488" 
d="M436 270q0 -71 -19.5 -123.5t-54 -87.5t-80.5 -52.5t-99 -17.5q-81 0 -140 38l26 59q23 -14 50.5 -23t58.5 -9q33 0 63.5 11.5t54 35t38.5 60t18 86.5h-245v59h244q-4 47 -19.5 81t-38.5 55.5t-53 32t-62 10.5q-31 0 -58.5 -8.5t-50.5 -22.5l-26 58q59 38 140 38
q53 0 99 -17t80.5 -52t54 -87.5t19.5 -123.5z" />
    <glyph glyph-name="afii10096" unicode="&#x44e;" horiz-adv-x="760" 
d="M704 270q0 -60 -13.5 -111.5t-40.5 -89t-67 -59t-93 -21.5q-50 0 -88 19t-64.5 53t-41.5 80.5t-18 101.5h-123v-243h-82v539h82v-230h124q4 52 19.5 96.5t42 76.5t64 50t85.5 18q53 0 93 -21.5t67 -59t40.5 -88.5t13.5 -111zM624 271q0 46 -8.5 85t-25 67.5t-42 44
t-58.5 15.5q-34 0 -59 -15.5t-41.5 -44t-25 -67.5t-8.5 -85q0 -47 8.5 -86t25 -67.5t41.5 -44.5t59 -16q33 0 58.5 16t42 44.5t25 67.5t8.5 86z" />
    <glyph glyph-name="afii10097" unicode="&#x44f;" horiz-adv-x="535" 
d="M379 0v227h-84q-34 0 -57 -17.5t-37 -46.5l-76 -163h-88l81 170q11 24 30 45t40 32v2q-53 11 -88.5 47t-35.5 94q0 72 56.5 116t159.5 44q53 0 100.5 -10.5t79.5 -27.5v-512h-81zM379 475q-17 8 -42.5 13t-57.5 5q-66 0 -100 -29t-34 -77q0 -49 33 -77t104 -28h97v193z
" />
    <glyph glyph-name="uni0450" unicode="&#x450;" horiz-adv-x="556" 
d="M503 302q0 -9 -1 -19l-368 -53q7 -87 55 -130t126 -43q41 0 80.5 9t66.5 24l26 -63q-29 -17 -76 -27.5t-101 -10.5q-121 0 -189.5 74t-68.5 207q0 62 16 113.5t46.5 88.5t74 57.5t98.5 20.5q100 0 157.5 -61.5t57.5 -169.5v-17zM423 330q-1 80 -38 118t-98 38
q-72 0 -114 -53t-44 -145zM274 603l-100 130q3 11 13 17t24 6q13 0 26.5 -6t24.5 -17l74 -130h-62z" />
    <glyph glyph-name="afii10071" unicode="&#x451;" horiz-adv-x="556" 
d="M503 302q0 -9 -1 -19l-368 -53q7 -87 55 -130t126 -43q41 0 80.5 9t66.5 24l26 -63q-29 -17 -76 -27.5t-101 -10.5q-121 0 -189.5 74t-68.5 207q0 62 16 113.5t46.5 88.5t74 57.5t98.5 20.5q100 0 157.5 -61.5t57.5 -169.5v-17zM423 330q-1 80 -38 118t-98 38
q-72 0 -114 -53t-44 -145zM423 669q0 -19 -14 -32.5t-34 -13.5t-34 13.5t-14 32.5t14 32.5t34 13.5t34 -13.5t14 -32.5zM238 669q0 -19 -14 -32.5t-34 -13.5t-34 13.5t-14 32.5t14 32.5t34 13.5t34 -13.5t14 -32.5z" />
    <glyph glyph-name="afii10099" unicode="&#x452;" horiz-adv-x="561" 
d="M505 225q0 -69 -14.5 -132t-42.5 -116.5t-68 -95.5t-91 -68l-42 58q89 50 132 142t43 212q0 53 -9.5 99.5t-29.5 81t-51 54.5t-75 20q-26 0 -52 -8t-49 -22v-450h-81v633h-78v52h78v100h81v-100h173v-52h-173v-116q24 14 53 22.5t61 8.5q61 0 105 -24.5t73 -67.5t43 -102
t14 -129z" />
    <glyph glyph-name="afii10100" unicode="&#x453;" horiz-adv-x="409" 
d="M159 472v-472h-83v539h303v-67h-220zM237 603h-62l74 130q11 11 24.5 17t26.5 6q14 0 24 -6t13 -17z" />
    <glyph glyph-name="afii10101" unicode="&#x454;" horiz-adv-x="488" 
d="M446 27q-59 -38 -140 -38q-53 0 -99 17.5t-80.5 52.5t-54 87.5t-19.5 123.5t19.5 123.5t54 87.5t80.5 52t99 17q81 0 140 -38l-27 -58q-23 14 -50.5 22.5t-58.5 8.5q-32 0 -61.5 -10.5t-53 -32t-38.5 -55.5t-19 -81h244v-59h-245q3 -50 17.5 -86.5t38 -60t54 -35
t63.5 -11.5q31 0 58.5 9t50.5 23z" />
    <glyph glyph-name="afii10102" unicode="&#x455;" horiz-adv-x="453" 
d="M403 144q0 -70 -52.5 -112.5t-148.5 -42.5q-42 0 -83 9.5t-77 28.5l30 64q27 -15 62 -24.5t67 -9.5q52 0 83.5 23.5t31.5 63.5q0 21 -8 36.5t-22.5 27t-34.5 20.5t-44 18q-29 10 -56 23t-48 31t-34 43.5t-13 61.5q0 63 46.5 104t132.5 41q42 0 80.5 -10t69.5 -28l-29 -59
q-23 14 -52 23t-61 9q-49 0 -75.5 -23t-26.5 -57q0 -22 8.5 -37.5t23 -27t34 -19.5t40.5 -16q30 -11 58 -23.5t50 -30.5t35 -43.5t13 -63.5z" />
    <glyph glyph-name="afii10103" unicode="&#x456;" horiz-adv-x="238" 
d="M78 0v539h83v-539h-83zM173 674q0 -21 -15 -35.5t-37 -14.5t-37.5 14.5t-15.5 35.5t15.5 35.5t37.5 14.5t37 -14.5t15 -35.5z" />
    <glyph glyph-name="afii10104" unicode="&#x457;" horiz-adv-x="238" 
d="M78 0v539h83v-539h-83zM261 669q0 -19 -14 -32.5t-34 -13.5t-34 13.5t-14 32.5t14 32.5t34 13.5t34 -13.5t14 -32.5zM76 669q0 -19 -14 -32.5t-34 -13.5t-34 13.5t-14 32.5t14 32.5t34 13.5t34 -13.5t14 -32.5z" />
    <glyph glyph-name="afii10105" unicode="&#x458;" horiz-adv-x="238" 
d="M161 57q0 -67 -17.5 -115.5t-46.5 -82t-68 -52.5t-81 -28v71q26 9 49.5 25t41.5 41t28.5 60t10.5 81v482h83v-482zM174 674q0 -21 -15 -35.5t-37 -14.5t-37.5 14.5t-15.5 35.5t15.5 35.5t37.5 14.5t37 -14.5t15 -35.5z" />
    <glyph glyph-name="afii10106" unicode="&#x459;" horiz-adv-x="839" 
d="M789 162q0 -44 -16 -76t-44.5 -54t-67.5 -32.5t-85 -10.5q-45 0 -91 10.5t-79 27.5v445h-140l-15 -111q-7 -53 -18.5 -110t-33.5 -108.5t-58.5 -93t-93.5 -63.5l-30 67q41 19 68 52.5t43.5 76.5t26 91.5t15.5 96.5l23 169h295v-216q16 5 41.5 8.5t45.5 3.5
q107 0 160.5 -47t53.5 -126zM707 162q0 54 -32.5 84.5t-104.5 30.5q-19 0 -43.5 -3.5t-38.5 -8.5v-200q14 -7 39 -12.5t49 -5.5q66 0 98.5 29.5t32.5 85.5z" />
    <glyph glyph-name="afii10107" unicode="&#x45a;" horiz-adv-x="815" 
d="M765 162q0 -81 -55.5 -127t-158.5 -46q-45 0 -91 10.5t-79 27.5v216h-226v-243h-82v539h82v-230h226v230h83v-216q16 5 41.5 8.5t45.5 3.5q107 0 160.5 -47t53.5 -126zM683 162q0 54 -33 84.5t-105 30.5q-19 0 -43 -3.5t-38 -8.5v-200q14 -7 39 -12.5t49 -5.5
q66 0 98.5 29.5t32.5 85.5z" />
    <glyph glyph-name="afii10108" unicode="&#x45b;" horiz-adv-x="555" 
d="M399 0v363q0 60 -35 88.5t-97 28.5q-29 0 -58.5 -8t-52.5 -22v-450h-81v633h-78v52h78v100h81v-100h173v-52h-173v-117q26 14 59.5 23t67.5 9q94 0 146.5 -45.5t52.5 -133.5v-369h-83z" />
    <glyph glyph-name="afii10109" unicode="&#x45c;" horiz-adv-x="511" 
d="M400 0l-97 166q-23 38 -59 66.5t-87 28.5v-261h-82v539h82v-246h2l227 246h101l-238 -245q48 -14 80 -43.5t58 -72.5l106 -178h-93zM269 603h-62l74 130q11 11 24.5 17t26.5 6q14 0 24 -6t13 -17z" />
    <glyph glyph-name="uni045D" unicode="&#x45d;" horiz-adv-x="583" 
d="M436 0v378q0 24 1 44t1 25h-2q-4 -8 -11.5 -25t-21.5 -37l-247 -385h-83v539h75v-368q0 -24 -1 -45t-1 -26h2q1 3 4 10l8 16q5 9 10.5 18.5t10.5 17.5l242 377h87v-539h-74zM281 603l-100 130q3 11 13 17t24 6q13 0 26.5 -6t24.5 -17l74 -130h-62z" />
    <glyph glyph-name="afii10110" unicode="&#x45e;" horiz-adv-x="544" 
d="M504 539q-18 -139 -65.5 -271t-107.5 -253l-113 -230h-88l109 215q-34 63 -65.5 128.5t-57.5 133t-46 137t-30 140.5h87q19 -122 59 -236.5t93 -226.5h2q49 109 84 222.5t52 240.5h87zM408 733q-4 -62 -38.5 -98t-96.5 -36t-97 36t-39 98l52 9q7 -43 26.5 -65t57.5 -22
t57 22t26 65z" />
    <glyph glyph-name="afii10193" unicode="&#x45f;" horiz-adv-x="552" 
d="M311 0l-5 -146h-60l-4 146h-169v539h84v-472h239v472h83v-539h-168z" />
    <glyph glyph-name="afii10050" unicode="&#x490;" horiz-adv-x="490" 
d="M169 650v-650h-87v724h304v130h72v-204h-289z" />
    <glyph glyph-name="afii10098" unicode="&#x491;" horiz-adv-x="422" 
d="M159 472v-472h-83v539h247v123h69v-190h-233z" />
    <glyph glyph-name="uni0492" unicode="&#x492;" horiz-adv-x="492" 
d="M180 650v-242h150v-72h-150v-336h-86v336h-75v72h75v316h365v-74h-279z" />
    <glyph glyph-name="uni0493" unicode="&#x493;" horiz-adv-x="419" 
d="M169 472v-172h113v-64h-113v-236h-83v236h-65v64h65v239h303v-67h-220z" />
    <glyph glyph-name="uni0496" unicode="&#x496;" horiz-adv-x="899" 
d="M862 -146h-63l-4 146h-34l-117 236q-24 49 -65.5 82t-99.5 33v-351h-82v351q-58 0 -99 -33t-65 -82l-118 -236h-93l127 250q27 54 67 89t88 51l-269 334h102l258 -339h2v339h82v-339h2l258 339h102l-268 -334q48 -16 87.5 -51t66.5 -89l88 -172l52 -22z" />
    <glyph glyph-name="uni0497" unicode="&#x497;" horiz-adv-x="769" 
d="M729 -146h-61l-4 146h-31l-86 166q-20 39 -54.5 68.5t-83.5 29.5v-264h-77v264q-49 0 -83.5 -29.5t-54.5 -68.5l-86 -166h-88l95 177q23 44 54.5 74t73.5 44l-217 244h96l208 -249h2v249h77v-249h2l209 249h95l-217 -244q42 -14 73.5 -44t54.5 -74l58 -107l50 -19z" />
    <glyph glyph-name="uni049A" unicode="&#x49a;" horiz-adv-x="618" 
d="M581 -146h-63l-4 146h-40l-117 227q-27 53 -75.5 87.5t-114.5 34.5v-349h-86v724h86v-337h2l286 337h105l-295 -334q116 -32 178 -148l88 -165l55 -21z" />
    <glyph glyph-name="uni049B" unicode="&#x49b;" horiz-adv-x="539" 
d="M499 -146h-61l-4 146h-34l-97 166q-23 38 -59 66.5t-87 28.5v-261h-82v539h82v-246h2l227 246h101l-238 -245q48 -14 80 -43.5t58 -72.5l64 -108l53 -19z" />
    <glyph glyph-name="uni04A2" unicode="&#x4a2;" horiz-adv-x="658" 
d="M598 -146h-63l-4 146h-58v336h-307v-336h-87v724h87v-316h307v316h87v-649l43 -19z" />
    <glyph glyph-name="uni04A3" unicode="&#x4a3;" horiz-adv-x="571" 
d="M516 -146h-61l-4 146h-53v241h-241v-241h-84v539h84v-230h241v230h83v-471l40 -17z" />
    <glyph glyph-name="uni04AE" unicode="&#x4ae;" horiz-adv-x="593" 
d="M340 290v-290h-87v290l-230 434h94l179 -347h2l178 347h94z" />
    <glyph glyph-name="uni04AF" unicode="&#x4af;" horiz-adv-x="550" 
d="M317 0v-215h-84v215l-203 539h92l129 -369q8 -22 13 -41.5t10 -38.5h2q5 19 10 38.5t13 41.5l129 369h92z" />
    <glyph glyph-name="uni04B0" unicode="&#x4b0;" horiz-adv-x="593" 
d="M340 290h147v-62h-147v-228h-87v228h-147v62h147l-230 434h94l179 -347h2l178 347h94z" />
    <glyph glyph-name="uni04B1" unicode="&#x4b1;" horiz-adv-x="550" 
d="M317 0h137v-59h-137v-156h-84v156h-137v59h137l-203 539h92l129 -369q8 -22 13 -41.5t10 -38.5h2q5 19 10 38.5t13 41.5l129 369h92z" />
    <glyph glyph-name="uni04B2" unicode="&#x4b2;" horiz-adv-x="600" 
d="M563 -146h-63l-4 146h-30l-172 305h-2l-173 -305h-95l218 375l-203 349h94l159 -280h2l158 280h95l-203 -349l175 -298l49 -21z" />
    <glyph glyph-name="uni04B3" unicode="&#x4b3;" horiz-adv-x="531" 
d="M490 -146h-61l-4 146h-25l-140 222h-2l-140 -222h-95l185 280l-171 259h94l127 -203h2l127 203h94l-171 -259l139 -210l46 -19z" />
    <glyph glyph-name="uni04B6" unicode="&#x4b6;" horiz-adv-x="639" 
d="M579 -146h-63l-4 146h-58v298q-13 -7 -31.5 -12.5t-39 -10t-41.5 -7t-38 -2.5q-53 0 -95.5 15.5t-72 45t-45.5 71t-16 93.5v233h87v-228q0 -75 41.5 -114.5t115.5 -39.5q15 0 33.5 2.5t37.5 6.5t36 9.5t28 12.5v351h86v-649l44 -19z" />
    <glyph glyph-name="uni04B7" unicode="&#x4b7;" horiz-adv-x="564" 
d="M509 -146h-60l-5 146h-53v221q-26 -14 -59 -23t-67 -9q-96 0 -146.5 47.5t-50.5 138.5v164h84v-158q0 -124 129 -124q29 0 58 8.5t52 22.5v251h83v-471l40 -17z" />
    <glyph glyph-name="uni04BA" unicode="&#x4ba;" horiz-adv-x="591" 
d="M430 0v272q0 68 -38 100t-104 32q-30 0 -64 -8t-59 -22v-374h-86v724h86v-283q29 15 65.5 23.5t72.5 8.5q98 0 155 -50t57 -147v-276h-85z" />
    <glyph glyph-name="uni04BB" unicode="&#x4bb;" horiz-adv-x="554" 
d="M398 0v363q0 60 -35 88.5t-97 28.5q-29 0 -58.5 -8t-52.5 -22v-450h-82v785h82v-269q26 14 59.5 23t67.5 9q94 0 146.5 -45.5t52.5 -133.5v-369h-83z" />
    <glyph glyph-name="uni04C0" unicode="&#x4c0;" horiz-adv-x="248" 
d="M81 0v724h86v-724h-86z" />
    <glyph glyph-name="uni04CF" unicode="&#x4cf;" horiz-adv-x="238" 
d="M78 0v785h83v-785h-83z" />
    <glyph glyph-name="uni04D8" unicode="&#x4d8;" horiz-adv-x="667" 
d="M610 371q0 -77 -17.5 -146t-53.5 -121.5t-90 -83.5t-126 -31q-69 0 -119.5 29t-83.5 77.5t-49 111t-16 128.5v9q0 6 1 14l465 68q-6 56 -25 100t-49.5 74t-71.5 46t-90 16q-42 0 -83.5 -7.5t-75.5 -23.5l-31 66q42 19 93 28.5t105 9.5q76 0 135 -28t99.5 -76.5t61.5 -115
t21 -144.5zM142 299q2 -47 14.5 -89.5t35 -74.5t55.5 -51.5t76 -19.5q51 0 89 24t63 64.5t37.5 93t12.5 110.5z" />
    <glyph glyph-name="afii10846" unicode="&#x4d9;" horiz-adv-x="556" 
d="M503 269q0 -62 -16 -113.5t-46 -88.5t-73 -57.5t-97 -20.5q-51 0 -91.5 17.5t-68.5 50.5t-43 79t-15 103v11q0 6 1 14l367 53q-7 81 -54.5 124.5t-125.5 43.5q-40 0 -78.5 -9t-68.5 -25l-26 61q34 17 80 27.5t98 10.5q121 0 189 -74t68 -207zM133 215q3 -78 40 -120
t100 -42q70 0 112 54t42 150z" />
    <glyph glyph-name="uni04E2" unicode="&#x4e2;" horiz-adv-x="691" 
d="M534 0v522q0 32 1 57.5t1 30.5h-2q-3 -7 -14 -29.5t-28 -49.5l-332 -531h-81v724h79v-509q0 -32 -1 -57.5t-1 -33.5h2l14 29q12 23 29 50l326 521h85v-724h-78zM220 817v57h249v-57h-249z" />
    <glyph glyph-name="uni04E3" unicode="&#x4e3;" horiz-adv-x="583" 
d="M436 0v378q0 24 1 44t1 25h-2q-4 -8 -11.5 -25t-21.5 -37l-247 -385h-83v539h75v-368q0 -24 -1 -45t-1 -26h2q1 3 4 10l8 16q5 9 10.5 18.5t10.5 17.5l242 377h87v-539h-74zM167 632v57h249v-57h-249z" />
    <glyph glyph-name="uni04E8" unicode="&#x4e8;" horiz-adv-x="669" 
d="M612 362q0 -77 -17.5 -145t-52.5 -118.5t-87.5 -80t-121.5 -29.5t-121 29.5t-86.5 80t-51.5 118.5t-17 145t17 145t51.5 118.5t86.5 80t121 29.5t121.5 -29.5t87.5 -80t52.5 -118.5t17.5 -145zM528 405q-4 55 -18.5 102t-39 81.5t-59 54t-78.5 19.5t-78.5 -19.5
t-58.5 -54t-37.5 -81.5t-17.5 -102h387zM140 339q2 -58 15.5 -108.5t37.5 -88t59 -59t81 -21.5t81.5 21.5t60.5 59t38.5 88t15.5 108.5h-389z" />
    <glyph glyph-name="uni04E9" unicode="&#x4e9;" horiz-adv-x="564" 
d="M511 270q0 -60 -15 -111.5t-44 -89t-71.5 -59t-98.5 -21.5t-98.5 21.5t-71.5 59t-44 89t-15 111.5t15 111t44 88.5t71.5 59t98.5 21.5t98.5 -21.5t71.5 -59t44 -88.5t15 -111zM432 303q-3 40 -13.5 74t-29 58.5t-45 38.5t-62.5 14t-62.5 -14t-45.5 -38.5t-29.5 -58.5
t-13.5 -74h301zM131 247q2 -42 12 -77.5t29 -62t46 -41t64 -14.5t64 14.5t46 41t29 62t12 77.5h-302z" />
    <glyph glyph-name="uni04EE" unicode="&#x4ee;" horiz-adv-x="599" 
d="M557 724q-19 -133 -71.5 -260.5t-116.5 -242.5l-122 -221h-97l118 206q-39 60 -75 122.5t-66 127.5t-52 132t-34 136h90q21 -118 69 -229.5t110 -214.5h2q54 103 95 213t59 231h91zM174 817v57h249v-57h-249z" />
    <glyph glyph-name="uni04EF" unicode="&#x4ef;" horiz-adv-x="544" 
d="M504 539q-18 -139 -65.5 -271t-107.5 -253l-113 -230h-88l109 215q-34 63 -65.5 128.5t-57.5 133t-46 137t-30 140.5h87q19 -122 59 -236.5t93 -226.5h2q49 109 84 222.5t52 240.5h87zM148 632v57h249v-57h-249z" />
    <glyph glyph-name="Wgrave" unicode="&#x1e80;" horiz-adv-x="908" 
d="M687 0h-87l-127 512q-8 35 -12 59.5t-6 38.5h-2q-2 -14 -6 -40t-12 -58l-127 -512h-87l-183 724h87l124 -527q6 -26 11 -53.5t7 -42.5h2q2 16 7 43t11 53l129 527h76l129 -527q6 -25 10.5 -51t7.5 -45h2q3 20 7.5 45t10.5 51l124 527h87zM436 788l-100 130q3 11 13 17
t24 6q13 0 26.5 -6t24.5 -17l74 -130h-62z" />
    <glyph glyph-name="wgrave" unicode="&#x1e81;" horiz-adv-x="827" 
d="M626 0h-85l-110 376q-5 18 -9.5 40.5t-6.5 33.5h-2q-3 -14 -6 -31t-11 -43l-110 -376h-85l-164 539h84l106 -381q8 -27 11.5 -48t5.5 -34h2q2 13 6.5 35.5t11.5 46.5l110 381h80l109 -381q8 -27 12.5 -49t6.5 -33h2q2 12 6.5 37t9.5 45l107 381h83zM381 603l-100 130
q3 11 13 17t24 6q13 0 26.5 -6t24.5 -17l74 -130h-62z" />
    <glyph glyph-name="Wacute" unicode="&#x1e82;" horiz-adv-x="908" 
d="M687 0h-87l-127 512q-8 35 -12 59.5t-6 38.5h-2q-2 -14 -6 -40t-12 -58l-127 -512h-87l-183 724h87l124 -527q6 -26 11 -53.5t7 -42.5h2q2 16 7 43t11 53l129 527h76l129 -527q6 -25 10.5 -51t7.5 -45h2q3 20 7.5 45t10.5 51l124 527h87zM472 788h-62l74 130
q11 11 24.5 17t26.5 6q14 0 24 -6t13 -17z" />
    <glyph glyph-name="wacute" unicode="&#x1e83;" horiz-adv-x="827" 
d="M626 0h-85l-110 376q-5 18 -9.5 40.5t-6.5 33.5h-2q-3 -14 -6 -31t-11 -43l-110 -376h-85l-164 539h84l106 -381q8 -27 11.5 -48t5.5 -34h2q2 13 6.5 35.5t11.5 46.5l110 381h80l109 -381q8 -27 12.5 -49t6.5 -33h2q2 12 6.5 37t9.5 45l107 381h83zM432 603h-62l74 130
q11 11 24.5 17t26.5 6q14 0 24 -6t13 -17z" />
    <glyph glyph-name="Wdieresis" unicode="&#x1e84;" horiz-adv-x="908" 
d="M687 0h-87l-127 512q-8 35 -12 59.5t-6 38.5h-2q-2 -14 -6 -40t-12 -58l-127 -512h-87l-183 724h87l124 -527q6 -26 11 -53.5t7 -42.5h2q2 16 7 43t11 53l129 527h76l129 -527q6 -25 10.5 -51t7.5 -45h2q3 20 7.5 45t10.5 51l124 527h87zM595 854q0 -19 -14 -32.5
t-34 -13.5t-34 13.5t-14 32.5t14 32.5t34 13.5t34 -13.5t14 -32.5zM410 854q0 -19 -14 -32.5t-34 -13.5t-34 13.5t-14 32.5t14 32.5t34 13.5t34 -13.5t14 -32.5z" />
    <glyph glyph-name="wdieresis" unicode="&#x1e85;" horiz-adv-x="827" 
d="M626 0h-85l-110 376q-5 18 -9.5 40.5t-6.5 33.5h-2q-3 -14 -6 -31t-11 -43l-110 -376h-85l-164 539h84l106 -381q8 -27 11.5 -48t5.5 -34h2q2 13 6.5 35.5t11.5 46.5l110 381h80l109 -381q8 -27 12.5 -49t6.5 -33h2q2 12 6.5 37t9.5 45l107 381h83zM555 669
q0 -19 -14 -32.5t-34 -13.5t-34 13.5t-14 32.5t14 32.5t34 13.5t34 -13.5t14 -32.5zM370 669q0 -19 -14 -32.5t-34 -13.5t-34 13.5t-14 32.5t14 32.5t34 13.5t34 -13.5t14 -32.5z" />
    <glyph glyph-name="uni1E8A" unicode="&#x1e8a;" horiz-adv-x="585" 
d="M466 0l-172 305h-2l-173 -305h-95l218 375l-203 349h94l159 -280h2l158 280h95l-203 -349l217 -375h-95zM346 859q0 -21 -15 -35.5t-37 -14.5t-37.5 14.5t-15.5 35.5t15.5 35.5t37.5 14.5t37 -14.5t15 -35.5z" />
    <glyph glyph-name="uni1E8B" unicode="&#x1e8b;" horiz-adv-x="518" 
d="M400 0l-140 222h-2l-140 -222h-95l185 280l-171 259h94l127 -203h2l127 203h94l-171 -259l185 -280h-95zM312 674q0 -21 -15 -35.5t-37 -14.5t-37.5 14.5t-15.5 35.5t15.5 35.5t37.5 14.5t37 -14.5t15 -35.5z" />
    <glyph glyph-name="Ygrave" unicode="&#x1ef2;" horiz-adv-x="593" 
d="M340 290v-290h-87v290l-230 434h94l179 -347h2l178 347h94zM293 788l-100 130q3 11 13 17t24 6q13 0 26.5 -6t24.5 -17l74 -130h-62z" />
    <glyph glyph-name="ygrave" unicode="&#x1ef3;" horiz-adv-x="550" 
d="M238 -215h-87l81 215l-202 539h91l134 -392q6 -17 11 -38.5t8 -38.5h2q2 8 6.5 31t12.5 46l133 392h92zM269 603l-100 130q3 11 13 17t24 6q13 0 26.5 -6t24.5 -17l74 -130h-62z" />
    <glyph glyph-name="uni2007" unicode="&#x2007;" horiz-adv-x="589" 
 />
    <glyph glyph-name="uni2008" unicode="&#x2008;" horiz-adv-x="252" 
 />
    <glyph glyph-name="uni200B" unicode="&#x200b;" horiz-adv-x="0" 
 />
    <glyph glyph-name="endash" unicode="&#x2013;" horiz-adv-x="409" 
d="M-4 291v68h417v-68h-417z" />
    <glyph glyph-name="emdash" unicode="&#x2014;" horiz-adv-x="817" 
d="M81 291v68h655v-68h-655z" />
    <glyph glyph-name="afii00208" unicode="&#x2015;" horiz-adv-x="817" 
d="M0 291v68h817v-68h-817z" />
    <glyph glyph-name="quoteleft" unicode="&#x2018;" horiz-adv-x="276" 
d="M140 537q-9 -13 -21.5 -21.5t-30.5 -8.5t-28 9.5t-12 20.5l119 248h61z" />
    <glyph glyph-name="quoteright" unicode="&#x2019;" horiz-adv-x="276" 
d="M108 513h-60l87 247q9 13 22 21.5t31 8.5t28 -9.5t12 -20.5z" />
    <glyph glyph-name="quotesinglbase" unicode="&#x201a;" horiz-adv-x="276" 
d="M108 -169h-60l87 248q9 13 22 21.5t31 8.5t28 -9.5t12 -20.5z" />
    <glyph glyph-name="quotedblleft" unicode="&#x201c;" horiz-adv-x="461" 
d="M325 537q-9 -13 -21.5 -21.5t-30.5 -8.5t-28 9.5t-12 20.5l119 248h61zM140 537q-9 -13 -21.5 -21.5t-30.5 -8.5t-28 9.5t-12 20.5l119 248h61z" />
    <glyph glyph-name="quotedblright" unicode="&#x201d;" horiz-adv-x="461" 
d="M293 513h-60l87 247q9 13 22 21.5t31 8.5t28 -9.5t12 -20.5zM108 513h-60l87 247q9 13 22 21.5t31 8.5t28 -9.5t12 -20.5z" />
    <glyph glyph-name="quotedblbase" unicode="&#x201e;" horiz-adv-x="461" 
d="M293 -169h-60l87 248q9 13 22 21.5t31 8.5t28 -9.5t12 -20.5zM108 -169h-60l87 248q9 13 22 21.5t31 8.5t28 -9.5t12 -20.5z" />
    <glyph glyph-name="dagger" unicode="&#x2020;" horiz-adv-x="629" 
d="M356 463v-678h-83v678h-209v76h209v246h83v-246h209v-76h-209z" />
    <glyph glyph-name="daggerdbl" unicode="&#x2021;" horiz-adv-x="629" 
d="M356 143v-358h-83v358h-209v76h209v244h-209v76h209v246h83v-246h209v-76h-209v-244h209v-76h-209z" />
    <glyph glyph-name="bullet" unicode="&#x2022;" horiz-adv-x="352" 
d="M274 325q0 -41 -28.5 -69.5t-69.5 -28.5t-69.5 28.5t-28.5 69.5t28.5 69.5t69.5 28.5t69.5 -28.5t28.5 -69.5z" />
    <glyph glyph-name="ellipsis" unicode="&#x2026;" horiz-adv-x="754" 
d="M686 51q0 -24 -16.5 -41t-40.5 -17t-41 17t-17 41t17 41t41 17t40.5 -17t16.5 -41zM435 51q0 -24 -17 -41t-41 -17t-40.5 17t-16.5 41t16.5 41t40.5 17t41 -17t17 -41zM184 51q0 -24 -17 -41t-41 -17t-41 17t-17 41t17 41t41 17t41 -17t17 -41z" />
    <glyph glyph-name="perthousand" unicode="&#x2030;" horiz-adv-x="1299" 
d="M1231 190q0 -45 -10.5 -82t-30.5 -63.5t-48.5 -41t-64.5 -14.5t-64.5 14.5t-48.5 41t-30.5 63.5t-10.5 82t10.5 82t30.5 63.5t48.5 41t64.5 14.5t64.5 -14.5t48.5 -41t30.5 -63.5t10.5 -82zM846 190q0 -45 -10.5 -82t-30.5 -63.5t-48.5 -41t-64.5 -14.5t-64.5 14.5
t-48.5 41t-30.5 63.5t-10.5 82t10.5 82t30.5 63.5t48.5 41t64.5 14.5t64.5 -14.5t48.5 -41t30.5 -63.5t10.5 -82zM351 -9l-57 18l268 724l56 -18zM376 534q0 -45 -10.5 -82t-30.5 -63.5t-48.5 -41t-64.5 -14.5t-64.5 14.5t-48.5 41t-30.5 63.5t-10.5 82t10.5 82t30.5 63.5
t48.5 41t64.5 14.5t64.5 -14.5t48.5 -41t30.5 -63.5t10.5 -82zM1164 191q0 66 -22.5 104t-64.5 38t-64.5 -38t-22.5 -104t22.5 -104.5t64.5 -38.5t64.5 38.5t22.5 104.5zM779 191q0 66 -22.5 104t-64.5 38t-64.5 -38t-22.5 -104t22.5 -104.5t64.5 -38.5t64.5 38.5
t22.5 104.5zM309 535q0 66 -22.5 104t-64.5 38t-64.5 -38t-22.5 -104t22.5 -104.5t64.5 -38.5t64.5 38.5t22.5 104.5z" />
    <glyph glyph-name="guilsinglleft" unicode="&#x2039;" horiz-adv-x="368" 
d="M244 63l-183 242l183 242l52 -40l-154 -202l154 -202z" />
    <glyph glyph-name="guilsinglright" unicode="&#x203a;" horiz-adv-x="368" 
d="M124 63l-52 40l154 202l-154 202l52 40l183 -242z" />
    <glyph glyph-name="fraction" unicode="&#x2044;" horiz-adv-x="151" 
d="M-92 -13l-48 27l383 723l48 -27z" />
    <glyph glyph-name="uni2070" unicode="&#x2070;" horiz-adv-x="368" 
d="M330 712q0 -46 -8.5 -86t-26.5 -70t-45.5 -47t-65.5 -17t-65.5 17t-45.5 47t-26.5 70t-8.5 86t8.5 86t26.5 70t45.5 47t65.5 17t65.5 -17t45.5 -47t26.5 -70t8.5 -86zM270 712q0 36 -5 67.5t-15.5 54.5t-26.5 36t-39 13t-39 -13t-26.5 -36t-15.5 -54.5t-5 -67.5t5 -67.5
t15.5 -54t26.5 -35.5t39 -13t39 13t26.5 35.5t15.5 54t5 67.5z" />
    <glyph glyph-name="uni2074" unicode="&#x2074;" horiz-adv-x="368" 
d="M285 609v-109h-55v109h-200v44l192 271h63v-271h49v-44h-49zM232 871q-3 -6 -9.5 -18.5t-14.5 -23.5l-123 -176h147v169q0 11 0.5 26t1.5 23h-2z" />
    <glyph glyph-name="uni2075" unicode="&#x2075;" horiz-adv-x="368" 
d="M321 626q0 -31 -12.5 -56t-35 -42t-53 -26.5t-66.5 -9.5q-31 0 -62 6.5t-58 17.5l20 47q22 -10 48.5 -15t50.5 -5q49 0 78 22t29 60q0 39 -29 62.5t-99 23.5q-16 0 -33.5 -1t-37.5 -4l26 218h225v-51h-174l-14 -117q2 0 10.5 0.5t14.5 0.5q85 0 128.5 -34t43.5 -97z" />
    <glyph glyph-name="uni2076" unicode="&#x2076;" horiz-adv-x="368" 
d="M332 626q0 -27 -10.5 -51.5t-29.5 -42.5t-45.5 -29t-59.5 -11q-38 0 -65.5 13t-46.5 35.5t-28 51.5t-9 62q0 46 16.5 90t47 80.5t75 64.5t101.5 43l17 -50q-63 -17 -110 -52.5t-70 -86.5q16 5 33.5 9t34.5 4q66 0 107.5 -34t41.5 -96zM273 626q0 42 -27 63.5t-69 21.5
q-18 0 -38 -4.5t-38 -11.5q-5 -22 -5 -42q0 -49 23.5 -80t67.5 -31q39 0 62.5 25t23.5 59z" />
    <glyph glyph-name="uni2077" unicode="&#x2077;" horiz-adv-x="368" 
d="M144 500h-67l180 373h-221v51h304z" />
    <glyph glyph-name="uni2078" unicode="&#x2078;" horiz-adv-x="368" 
d="M331 604q0 -26 -11 -46.5t-31 -35t-47 -22.5t-58 -8q-32 0 -58.5 7.5t-46.5 22t-31 35t-11 47.5q0 23 8 41t20.5 32t29.5 24.5t35 18.5q-32 16 -56.5 40t-24.5 64q0 49 37.5 78.5t97.5 29.5q59 0 97 -30t38 -78q0 -40 -24.5 -64t-56.5 -40q18 -8 35 -18.5t29.5 -24.5
t20.5 -32t8 -41zM262 824q0 26 -20 44.5t-58 18.5t-58 -18.5t-20 -44.5q0 -31 23 -49t55 -32q32 14 55 32t23 49zM273 605q0 36 -26 56t-63 36q-37 -16 -63 -36t-26 -56q0 -31 24.5 -49t64.5 -18t64.5 18t24.5 49z" />
    <glyph glyph-name="uni2079" unicode="&#x2079;" horiz-adv-x="368" 
d="M330 770q0 -46 -16.5 -90t-47 -80.5t-75 -64.5t-101.5 -43l-17 50q63 17 110 52.5t70 86.5q-16 -5 -33.5 -9t-34.5 -4q-66 0 -107.5 34t-41.5 96q0 27 10.5 51.5t29.5 42.5t45.5 29t59.5 11q37 0 65 -13t47 -35.5t28 -51.5t9 -62zM272 771q0 49 -23.5 80.5t-67.5 31.5
q-39 0 -62.5 -25.5t-23.5 -59.5q0 -42 27 -63t69 -21q18 0 38 4t38 11q5 22 5 42z" />
    <glyph glyph-name="uni207A" unicode="&#x207a;" horiz-adv-x="368" 
d="M210 689v-107h-52v107h-105v51h105v107h52v-107h105v-51h-105z" />
    <glyph glyph-name="uni207B" unicode="&#x207b;" horiz-adv-x="368" 
d="M53 689v51h262v-51h-262z" />
    <glyph glyph-name="uni207C" unicode="&#x207c;" horiz-adv-x="368" 
d="M53 749v50h262v-50h-262zM53 629v51h262v-51h-262z" />
    <glyph glyph-name="uni207D" unicode="&#x207d;" horiz-adv-x="258" 
d="M185 403q-26 31 -49 66t-40 73t-26.5 80.5t-9.5 89.5t9.5 89.5t26.5 80.5t40 72.5t49 66.5l45 -26q-44 -57 -75 -127t-31 -156t31 -156t75 -127z" />
    <glyph glyph-name="uni207E" unicode="&#x207e;" horiz-adv-x="258" 
d="M198 712q0 -94 -35.5 -170t-88.5 -139l-46 26q22 28 41.5 60t34 67t23 74t8.5 82t-8.5 82t-23 74t-34 66.5t-41.5 60.5l46 26q53 -63 88.5 -139t35.5 -170z" />
    <glyph glyph-name="uni207F" unicode="&#x207f;" horiz-adv-x="409" 
d="M292 500v261q0 39 -22.5 61t-70.5 22q-26 0 -46.5 -4t-35.5 -10v-330h-60v364q29 14 65.5 22t76.5 8q76 0 114.5 -34.5t38.5 -98.5v-261h-60z" />
    <glyph glyph-name="uni2080" unicode="&#x2080;" horiz-adv-x="368" 
d="M330 -3q0 -46 -8.5 -86t-26.5 -70t-45.5 -47t-65.5 -17t-65.5 17t-45.5 47t-26.5 70t-8.5 86t8.5 86t26.5 70t45.5 47t65.5 17t65.5 -17t45.5 -47t26.5 -70t8.5 -86zM270 -3q0 36 -5 67.5t-15.5 54.5t-26.5 36t-39 13t-39 -13t-26.5 -36t-15.5 -54.5t-5 -67.5t5 -67.5
t15.5 -54t26.5 -35.5t39 -13t39 13t26.5 35.5t15.5 54t5 67.5z" />
    <glyph glyph-name="uni2081" unicode="&#x2081;" horiz-adv-x="368" 
d="M200 -215v352q-21 -13 -57 -24.5t-68 -17.5l-11 48q20 3 41.5 9.5t41.5 14.5t37.5 19t29.5 23h46v-424h-60z" />
    <glyph glyph-name="uni2082" unicode="&#x2082;" horiz-adv-x="368" 
d="M15 -215l188 214q18 21 32 42t14 47q0 35 -23 57t-69 22q-23 0 -50 -6t-49 -15l-18 47q27 11 59 17.5t61 6.5q74 0 112.5 -34.5t38.5 -91.5q0 -37 -19.5 -68t-41.5 -54l-125 -133h195v-51h-305z" />
    <glyph glyph-name="uni2083" unicode="&#x2083;" horiz-adv-x="368" 
d="M317 -95q0 -59 -44 -93.5t-119 -34.5q-32 0 -64 6t-59 18l20 47q20 -9 47.5 -14.5t55.5 -5.5q49 0 76 19.5t27 57.5t-35.5 59.5t-95.5 21.5h-15v44q62 4 95.5 25t33.5 52q0 60 -83 60q-23 0 -48.5 -5.5t-47.5 -15.5l-21 47q27 11 58.5 17.5t63.5 6.5q66 0 102 -28t36 -79
q0 -34 -24 -57.5t-54 -35.5v-2q17 -5 34 -14t30.5 -22.5t22 -31.5t8.5 -42z" />
    <glyph glyph-name="uni2084" unicode="&#x2084;" horiz-adv-x="368" 
d="M285 -106v-109h-55v109h-200v44l192 271h63v-271h49v-44h-49zM232 156q-3 -6 -9.5 -18.5t-14.5 -23.5l-123 -176h147v169q0 11 0.5 26t1.5 23h-2z" />
    <glyph glyph-name="uni2085" unicode="&#x2085;" horiz-adv-x="368" 
d="M321 -89q0 -31 -12.5 -56t-35 -42t-53 -26.5t-66.5 -9.5q-31 0 -62 6.5t-58 17.5l20 47q22 -10 48.5 -15t50.5 -5q49 0 78 22t29 60q0 39 -29 62.5t-99 23.5q-16 0 -33.5 -1t-37.5 -4l26 218h225v-51h-174l-14 -117q2 0 10.5 0.5t14.5 0.5q85 0 128.5 -34t43.5 -97z" />
    <glyph glyph-name="uni2086" unicode="&#x2086;" horiz-adv-x="368" 
d="M332 -89q0 -27 -10.5 -51.5t-29.5 -42.5t-45.5 -29t-59.5 -11q-38 0 -65.5 13t-46.5 35.5t-28 51.5t-9 62q0 46 16.5 90t47 80.5t75 64.5t101.5 43l17 -50q-63 -17 -110 -52.5t-70 -86.5q16 5 33.5 9t34.5 4q66 0 107.5 -34t41.5 -96zM273 -89q0 42 -27 63.5t-69 21.5
q-18 0 -38 -4.5t-38 -11.5q-5 -22 -5 -42q0 -49 23.5 -80t67.5 -31q39 0 62.5 25t23.5 59z" />
    <glyph glyph-name="uni2087" unicode="&#x2087;" horiz-adv-x="368" 
d="M144 -215h-67l180 373h-221v51h304z" />
    <glyph glyph-name="uni2088" unicode="&#x2088;" horiz-adv-x="368" 
d="M331 -111q0 -26 -11 -46.5t-31 -35t-47 -22.5t-58 -8q-32 0 -58.5 7.5t-46.5 22t-31 35t-11 47.5q0 23 8 41t20.5 32t29.5 24.5t35 18.5q-32 16 -56.5 40t-24.5 64q0 49 37.5 78.5t97.5 29.5q59 0 97 -30t38 -78q0 -40 -24.5 -64t-56.5 -40q18 -8 35 -18.5t29.5 -24.5
t20.5 -32t8 -41zM262 109q0 26 -20 44.5t-58 18.5t-58 -18.5t-20 -44.5q0 -31 23 -49t55 -32q32 14 55 32t23 49zM273 -110q0 36 -26 56t-63 36q-37 -16 -63 -36t-26 -56q0 -31 24.5 -49t64.5 -18t64.5 18t24.5 49z" />
    <glyph glyph-name="uni2089" unicode="&#x2089;" horiz-adv-x="368" 
d="M330 55q0 -46 -16.5 -90t-47 -80.5t-75 -64.5t-101.5 -43l-17 50q63 17 110 52.5t70 86.5q-16 -5 -33.5 -9t-34.5 -4q-66 0 -107.5 34t-41.5 96q0 27 10.5 51.5t29.5 42.5t45.5 29t59.5 11q37 0 65 -13t47 -35.5t28 -51.5t9 -62zM272 56q0 49 -23.5 80.5t-67.5 31.5
q-39 0 -62.5 -25.5t-23.5 -59.5q0 -42 27 -63t69 -21q18 0 38 4t38 11q5 22 5 42z" />
    <glyph glyph-name="uni208A" unicode="&#x208a;" horiz-adv-x="368" 
d="M210 -26v-107h-52v107h-105v51h105v107h52v-107h105v-51h-105z" />
    <glyph glyph-name="uni208B" unicode="&#x208b;" horiz-adv-x="368" 
d="M53 -26v51h262v-51h-262z" />
    <glyph glyph-name="uni208C" unicode="&#x208c;" horiz-adv-x="368" 
d="M53 34v50h262v-50h-262zM53 -86v51h262v-51h-262z" />
    <glyph glyph-name="uni208D" unicode="&#x208d;" horiz-adv-x="258" 
d="M185 -312q-26 31 -49 66t-40 73t-26.5 80.5t-9.5 89.5t9.5 89.5t26.5 80.5t40 72.5t49 66.5l45 -26q-44 -57 -75 -127t-31 -156t31 -156t75 -127z" />
    <glyph glyph-name="uni208E" unicode="&#x208e;" horiz-adv-x="258" 
d="M198 -3q0 -94 -35.5 -170t-88.5 -139l-46 26q22 28 41.5 60t34 67t23 74t8.5 82t-8.5 82t-23 74t-34 66.5t-41.5 60.5l46 26q53 -63 88.5 -139t35.5 -170z" />
    <glyph glyph-name="Euro" unicode="&#x20ac;" horiz-adv-x="705" 
d="M660 27q-28 -17 -72.5 -27.5t-100.5 -10.5t-106 16.5t-91 49.5t-70.5 83t-42.5 117h-113v50h106q-3 27 -3 57q0 34 3 64h-106v49h114q14 66 43.5 114.5t70 81t90.5 48.5t105 16t100 -10.5t73 -27.5l-31 -64q-23 14 -60 22t-80 8q-39 0 -75 -11t-66 -34t-52 -58.5
t-34 -84.5h288v-49h-298q-2 -15 -3 -30.5t-1 -32.5q0 -15 1 -29.5t3 -28.5h298v-50h-289q11 -51 33.5 -87.5t52.5 -60t66.5 -34.5t75.5 -11q43 0 80 8t60 22z" />
    <glyph glyph-name="uni20B4" unicode="&#x20b4;" horiz-adv-x="589" 
d="M199 255q-9 -14 -14.5 -29.5t-5.5 -34.5q0 -61 43.5 -94.5t113.5 -33.5q37 0 74 8.5t65 22.5l28 -68q-35 -18 -79 -27.5t-91 -9.5q-54 0 -97.5 14t-74 40.5t-47.5 64t-17 84.5q0 36 10 63h-56v50h85q18 21 40.5 37.5t47.5 30.5t50.5 26.5t48.5 26.5h-272v49h334
q11 14 18 31.5t7 38.5q0 57 -38 88t-100 31q-69 0 -125 -31l-27 65q33 19 73 28t82 9q49 0 88.5 -13t68 -38t44 -60t15.5 -80q0 -37 -13 -69h59v-49h-90q-19 -21 -43 -37t-49.5 -30t-51.5 -27t-48 -27h282v-50h-338z" />
    <glyph glyph-name="afii61289" unicode="&#x2113;" horiz-adv-x="315" 
d="M275 3q-8 -4 -22.5 -6.5t-31.5 -2.5q-66 0 -105.5 36t-39.5 110v645h84v-641q0 -42 23.5 -59t56.5 -17q22 0 35 5v-70z" />
    <glyph glyph-name="afii61352" unicode="&#x2116;" horiz-adv-x="1124" 
d="M528 0l-331 531q-11 18 -22.5 40t-19.5 39h-2q1 -19 1.5 -43.5t0.5 -44.5v-522h-76v724h85l326 -521q13 -20 23.5 -41t18.5 -38h2q-1 20 -1 44v556h76v-724h-81zM1072 360q0 -41 -11.5 -75.5t-34 -60t-56 -40t-76.5 -14.5t-76.5 14.5t-56 40t-34 60t-11.5 75.5
q0 40 11.5 75t34 60.5t56 40t76.5 14.5t76.5 -14.5t56 -40t34 -60.5t11.5 -75zM1003 361q0 59 -27.5 96.5t-81.5 37.5t-82 -37.5t-28 -96.5t28 -97.5t82 -38.5t81.5 38.5t27.5 97.5zM726 0v61h335v-61h-335z" />
    <glyph glyph-name="uni2117" unicode="&#x2117;" horiz-adv-x="872" 
d="M811 362q0 -78 -29 -146t-79 -118.5t-119 -79.5t-148 -29q-80 0 -148.5 29t-118.5 79.5t-79 118.5t-29 146t29 146t79 118.5t118.5 79.5t148.5 29q79 0 148 -29t119 -79.5t79 -118.5t29 -146zM751 362q0 66 -24 124.5t-66.5 101.5t-100 68t-124.5 25t-124.5 -25t-100 -68
t-66.5 -101.5t-24 -124.5t24 -124.5t66.5 -101.5t100 -68t124.5 -25t124.5 25t100 68t66.5 101.5t24 124.5zM597 450q0 -56 -45 -91.5t-129 -35.5h-25q-13 0 -23 2v-168h-58v396q23 11 54 18t65 7q77 0 119 -34.5t42 -93.5zM538 450q0 81 -101 81q-17 0 -33.5 -3t-28.5 -8
v-148q9 -2 21.5 -2.5t25.5 -0.5q58 0 87 22t29 59z" />
    <glyph glyph-name="trademark" unicode="&#x2122;" horiz-adv-x="951" 
d="M829 294l-42 315q-2 11 -3 29.5t-1 23.5h-2q-2 -7 -5 -21t-9 -32l-102 -315h-55l-102 315q-6 18 -9.5 33.5t-4.5 19.5h-2q0 -6 -1 -23t-3 -30l-41 -315h-60l59 430h81l97 -301q5 -14 8 -29t5 -23h2q2 9 5.5 25t7.5 27l96 301h81l59 -430h-59zM238 670v-376h-65v376h-119
v54h303v-54h-119z" />
    <glyph glyph-name="Omega" unicode="&#x2126;" horiz-adv-x="680" 
d="M395 0v69q75 78 106.5 166.5t31.5 174.5q0 50 -12 95t-36 79t-60 54t-85 20t-85 -20t-60 -54t-36 -79t-12 -95q0 -86 31.5 -174.5t106.5 -166.5v-69h-235v73h149q-72 79 -105 166t-33 179q0 63 17.5 120.5t52.5 101t87 69.5t122 26t122 -26t87 -69.5t52.5 -101
t17.5 -120.5q0 -92 -33 -179t-105 -166h149v-73h-235z" />
    <glyph glyph-name="estimated" unicode="&#x212e;" horiz-adv-x="980" 
d="M243 347q2 -70 21 -128t53.5 -99t84.5 -64t113 -23q46 0 92 11t86.5 33t74.5 54t57 74l38 -24q-23 -42 -58 -77.5t-82 -61.5t-105 -40.5t-128 -14.5q-105 0 -184 32.5t-131.5 85t-78.5 120t-26 137.5t26 137.5t78.5 120t131.5 85t184 32.5t183.5 -32.5t131 -85t79 -120
t26.5 -137.5v-15h-667zM736 390q-4 65 -23.5 121t-51.5 97.5t-75.5 65t-95.5 23.5t-95.5 -23.5t-75.5 -65t-51.5 -97.5t-23.5 -121h492z" />
    <glyph glyph-name="uni2150" unicode="&#x2150;" horiz-adv-x="887" 
d="M200 300v352q-21 -13 -57 -24.5t-68 -17.5l-11 48q20 3 41.5 9.5t41.5 14.5t37.5 19t29.5 23h46v-424h-60zM276 -13l-48 27l383 723l48 -27zM663 0h-67l180 373h-221v51h304z" />
    <glyph glyph-name="uni2151" unicode="&#x2151;" horiz-adv-x="887" 
d="M200 300v352q-21 -13 -57 -24.5t-68 -17.5l-11 48q20 3 41.5 9.5t41.5 14.5t37.5 19t29.5 23h46v-424h-60zM276 -13l-48 27l383 723l48 -27zM849 270q0 -46 -16.5 -90t-47 -80.5t-75 -64.5t-101.5 -43l-17 50q63 17 110 52.5t70 86.5q-16 -5 -33.5 -9t-34.5 -4
q-66 0 -107.5 34t-41.5 96q0 27 10.5 51.5t29.5 42.5t45.5 29t59.5 11q37 0 65 -13t47 -35.5t28 -51.5t9 -62zM791 271q0 49 -23.5 80.5t-67.5 31.5q-39 0 -62.5 -25.5t-23.5 -59.5q0 -42 27 -63t69 -21q18 0 38 4t38 11q5 22 5 42z" />
    <glyph glyph-name="uni2152" unicode="&#x2152;" horiz-adv-x="1255" 
d="M200 300v352q-21 -13 -57 -24.5t-68 -17.5l-11 48q20 3 41.5 9.5t41.5 14.5t37.5 19t29.5 23h46v-424h-60zM276 -13l-48 27l383 723l48 -27zM719 0v352q-21 -13 -57 -24.5t-68 -17.5l-11 48q20 3 41.5 9.5t41.5 14.5t37.5 19t29.5 23h46v-424h-60zM1217 212
q0 -46 -8.5 -86t-26.5 -70t-45.5 -47t-65.5 -17t-65.5 17t-45.5 47t-26.5 70t-8.5 86t8.5 86t26.5 70t45.5 47t65.5 17t65.5 -17t45.5 -47t26.5 -70t8.5 -86zM1157 212q0 36 -5 67.5t-15.5 54.5t-26.5 36t-39 13t-39 -13t-26.5 -36t-15.5 -54.5t-5 -67.5t5 -67.5t15.5 -54
t26.5 -35.5t39 -13t39 13t26.5 35.5t15.5 54t5 67.5z" />
    <glyph glyph-name="onethird" unicode="&#x2153;" horiz-adv-x="837" 
d="M217 -13l-48 27l384 723l47 -27zM159 300v352q-21 -13 -57 -24.5t-68 -17.5l-11 48q20 3 41.5 9.5t41.5 14.5t37.5 19t29.5 23h46v-424h-60zM789 120q0 -59 -44 -93.5t-119 -34.5q-32 0 -64 6t-59 18l20 47q20 -9 47.5 -14.5t55.5 -5.5q49 0 76 19.5t27 57.5t-35.5 59.5
t-95.5 21.5h-15v44q62 4 95.5 25t33.5 52q0 60 -83 60q-23 0 -48.5 -5.5t-47.5 -15.5l-21 47q27 11 58.5 17.5t63.5 6.5q66 0 102 -28t36 -79q0 -34 -24 -57.5t-54 -35.5v-2q17 -5 34 -14t30.5 -22.5t22 -31.5t8.5 -42z" />
    <glyph glyph-name="twothirds" unicode="&#x2154;" horiz-adv-x="837" 
d="M256 -13l-48 27l383 723l48 -27zM13 300l188 214q18 21 32 42t14 47q0 35 -23 57t-69 22q-23 0 -50.5 -6t-49.5 -15l-18 47q27 11 59 17.5t61 6.5q74 0 112.5 -34.5t38.5 -91.5q0 -37 -19.5 -68t-41.5 -54l-125 -133h194v-51h-303zM798 120q0 -59 -44 -93.5t-119 -34.5
q-32 0 -64 6t-59 18l20 47q20 -9 47.5 -14.5t55.5 -5.5q49 0 76 19.5t27 57.5t-35.5 59.5t-95.5 21.5h-15v44q62 4 95.5 25t33.5 52q0 60 -83 60q-23 0 -48.5 -5.5t-47.5 -15.5l-21 47q27 11 58.5 17.5t63.5 6.5q66 0 102 -28t36 -79q0 -34 -24 -57.5t-54 -35.5v-2
q17 -5 34 -14t30.5 -22.5t22 -31.5t8.5 -42z" />
    <glyph glyph-name="uni2155" unicode="&#x2155;" horiz-adv-x="837" 
d="M789 126q0 -31 -12.5 -56t-35 -42t-53 -26.5t-66.5 -9.5q-31 0 -62 6.5t-58 17.5l20 47q22 -10 48.5 -15t50.5 -5q49 0 78 22t29 60q0 39 -29 62.5t-99 23.5q-16 0 -33.5 -1t-37.5 -4l26 218h225v-51h-174l-14 -117q2 0 10.5 0.5t14.5 0.5q85 0 128.5 -34t43.5 -97z
M219 -13l-48 27l383 723l48 -27zM159 300v352q-21 -13 -57 -24.5t-68 -17.5l-11 48q20 3 41.5 9.5t41.5 14.5t37.5 19t29.5 23h46v-424h-60z" />
    <glyph glyph-name="uni2156" unicode="&#x2156;" horiz-adv-x="837" 
d="M798 126q0 -31 -12.5 -56t-35 -42t-53 -26.5t-66.5 -9.5q-31 0 -62 6.5t-58 17.5l20 47q22 -10 48.5 -15t50.5 -5q49 0 78 22t29 60q0 39 -29 62.5t-99 23.5q-16 0 -33.5 -1t-37.5 -4l26 218h225v-51h-174l-14 -117q2 0 10.5 0.5t14.5 0.5q85 0 128.5 -34t43.5 -97z
M269 -13l-48 27l383 723l48 -27zM13 300l188 214q18 21 32 42t14 47q0 35 -23 57t-69 22q-23 0 -50.5 -6t-49.5 -15l-18 47q27 11 59 17.5t61 6.5q74 0 112.5 -34.5t38.5 -91.5q0 -37 -19.5 -68t-41.5 -54l-125 -133h194v-51h-303z" />
    <glyph glyph-name="uni2157" unicode="&#x2157;" horiz-adv-x="837" 
d="M789 126q0 -31 -12.5 -56t-35 -42t-53 -26.5t-66.5 -9.5q-31 0 -62 6.5t-58 17.5l20 47q22 -10 48.5 -15t50.5 -5q49 0 78 22t29 60q0 39 -29 62.5t-99 23.5q-16 0 -33.5 -1t-37.5 -4l26 218h225v-51h-174l-14 -117q2 0 10.5 0.5t14.5 0.5q85 0 128.5 -34t43.5 -97z
M247 -13l-48 27l383 723l48 -27zM315 420q0 -59 -44 -93.5t-119 -34.5q-32 0 -64 6t-59 18l20 47q20 -9 47.5 -14.5t55.5 -5.5q49 0 76 19.5t27 57.5t-35.5 59.5t-95.5 21.5h-15v44q62 4 95.5 25t33.5 52q0 60 -83 60q-23 0 -48.5 -5.5t-47.5 -15.5l-21 47q27 11 58.5 17.5
t63.5 6.5q66 0 102 -28t36 -79q0 -34 -24 -57.5t-54 -35.5v-2q17 -5 34 -14t30.5 -22.5t22 -31.5t8.5 -42z" />
    <glyph glyph-name="uni2158" unicode="&#x2158;" horiz-adv-x="837" 
d="M285 409v-109h-55v109h-200v44l191 271h64v-271h49v-44h-49zM789 126q0 -31 -12.5 -56t-35 -42t-53 -26.5t-66.5 -9.5q-31 0 -62 6.5t-58 17.5l20 47q22 -10 48.5 -15t50.5 -5q49 0 78 22t29 60q0 39 -29 62.5t-99 23.5q-16 0 -33.5 -1t-37.5 -4l26 218h225v-51h-174
l-14 -117q2 0 10.5 0.5t14.5 0.5q85 0 128.5 -34t43.5 -97zM256 -13l-48 27l384 723l47 -27zM232 671l-9 -17q-5 -11 -15 -25l-123 -176h147v169q0 15 0.5 28t1.5 21h-2z" />
    <glyph glyph-name="uni2159" unicode="&#x2159;" horiz-adv-x="837" 
d="M788 126q0 -27 -10.5 -51.5t-29 -42.5t-45 -29t-59.5 -11q-38 0 -65.5 13t-46.5 35.5t-28 51.5t-9 62q0 46 16.5 90t47 80.5t75 64.5t101.5 43l17 -50q-63 -17 -110 -52.5t-70 -86.5q16 5 33.5 9t34.5 4q66 0 107 -34t41 -96zM232 -13l-48 27l383 723l48 -27zM159 300
v352q-21 -13 -57 -24.5t-68 -17.5l-11 48q20 3 41.5 9.5t41.5 14.5t37.5 19t29.5 23h46v-424h-60zM730 126q0 42 -27 63.5t-69 21.5q-18 0 -38.5 -4.5t-38.5 -11.5q-2 -10 -3 -20.5t-1 -21.5q0 -49 23.5 -80t67.5 -31q39 0 62.5 25t23.5 59z" />
    <glyph glyph-name="uni215A" unicode="&#x215a;" horiz-adv-x="837" 
d="M788 126q0 -27 -10.5 -51.5t-29 -42.5t-45 -29t-59.5 -11q-38 0 -65.5 13t-46.5 35.5t-28 51.5t-9 62q0 46 16.5 90t47 80.5t75 64.5t101.5 43l17 -50q-63 -17 -110 -52.5t-70 -86.5q16 5 33.5 9t34.5 4q66 0 107 -34t41 -96zM265 -13l-48 27l383 723l48 -27zM320 426
q0 -31 -12.5 -56t-35 -42t-53 -26.5t-66.5 -9.5q-31 0 -62 6.5t-58 17.5l20 47q22 -10 48.5 -15t50.5 -5q49 0 78 22t29 60q0 39 -29 62.5t-99 23.5q-16 0 -33.5 -1t-37.5 -4l26 218h225v-51h-174l-14 -117q2 0 10.5 0.5t14.5 0.5q85 0 128.5 -34t43.5 -97zM730 126
q0 42 -27 63.5t-69 21.5q-18 0 -38.5 -4.5t-38.5 -11.5q-2 -10 -3 -20.5t-1 -21.5q0 -49 23.5 -80t67.5 -31q39 0 62.5 25t23.5 59z" />
    <glyph glyph-name="oneeighth" unicode="&#x215b;" horiz-adv-x="837" 
d="M789 104q0 -52 -41.5 -82t-104.5 -30q-32 0 -58.5 7.5t-46.5 22t-31 35t-11 47.5q0 23 7.5 41t20.5 32t29.5 24.5t34.5 18.5q-32 16 -56 40t-24 64q0 49 37.5 78.5t97.5 29.5q59 0 97 -30t38 -78q0 -40 -24.5 -64t-56.5 -40q18 -8 34.5 -18.5t29.5 -24.5t20.5 -32
t7.5 -41zM214 -13l-48 27l383 723l48 -27zM159 300v352q-21 -13 -57 -24.5t-68 -17.5l-11 48q20 3 41.5 9.5t41.5 14.5t37.5 19t29.5 23h46v-424h-60zM721 324q0 26 -20 44.5t-58 18.5t-58 -18.5t-20 -44.5q0 -31 23 -48.5t55 -31.5q32 14 55 31.5t23 48.5zM731 105
q0 36 -25.5 55.5t-62.5 35.5q-37 -16 -63 -35.5t-26 -55.5q0 -31 24.5 -49t64.5 -18t64 18t24 49z" />
    <glyph glyph-name="threeeighths" unicode="&#x215c;" horiz-adv-x="837" 
d="M789 104q0 -52 -41.5 -82t-104.5 -30q-32 0 -58.5 7.5t-46.5 22t-31 35t-11 47.5q0 23 7.5 41t20.5 32t29.5 24.5t34.5 18.5q-32 16 -56 40t-24 64q0 49 37.5 78.5t97.5 29.5q59 0 97 -30t38 -78q0 -40 -24.5 -64t-56.5 -40q18 -8 34.5 -18.5t29.5 -24.5t20.5 -32
t7.5 -41zM240 -13l-49 27l384 723l48 -27zM721 324q0 26 -20 44.5t-58 18.5t-58 -18.5t-20 -44.5q0 -31 23 -48.5t55 -31.5q32 14 55 31.5t23 48.5zM731 105q0 36 -25.5 55.5t-62.5 35.5q-37 -16 -63 -35.5t-26 -55.5q0 -31 24.5 -49t64.5 -18t64 18t24 49zM315 420
q0 -59 -44 -93.5t-119 -34.5q-32 0 -64 6t-59 18l20 47q20 -9 47.5 -14.5t55.5 -5.5q49 0 76 19.5t27 57.5t-35.5 59.5t-95.5 21.5h-15v44q62 4 95.5 25t33.5 52q0 60 -83 60q-23 0 -48.5 -5.5t-47.5 -15.5l-21 47q27 11 58.5 17.5t63.5 6.5q66 0 102 -28t36 -79
q0 -34 -24 -57.5t-54 -35.5v-2q17 -5 34 -14t30.5 -22.5t22 -31.5t8.5 -42z" />
    <glyph glyph-name="fiveeighths" unicode="&#x215d;" horiz-adv-x="837" 
d="M789 104q0 -52 -41.5 -82t-104.5 -30q-32 0 -58.5 7.5t-46.5 22t-31 35t-11 47.5q0 23 7.5 41t20.5 32t29.5 24.5t34.5 18.5q-32 16 -56 40t-24 64q0 49 37.5 78.5t97.5 29.5q59 0 97 -30t38 -78q0 -40 -24.5 -64t-56.5 -40q18 -8 34.5 -18.5t29.5 -24.5t20.5 -32
t7.5 -41zM242 -13l-48 27l384 723l47 -27zM318 426q0 -31 -12.5 -56t-35 -42t-53 -26.5t-66.5 -9.5q-31 0 -62 6.5t-58 17.5l20 47q22 -10 48.5 -15t50.5 -5q49 0 78 22t29 60q0 39 -29 62.5t-99 23.5q-16 0 -33.5 -1t-37.5 -4l26 218h225v-51h-174l-14 -117q2 0 10.5 0.5
t14.5 0.5q85 0 128.5 -34t43.5 -97zM721 324q0 26 -20 44.5t-58 18.5t-58 -18.5t-20 -44.5q0 -31 23 -48.5t55 -31.5q32 14 55 31.5t23 48.5zM731 105q0 36 -25.5 55.5t-62.5 35.5q-37 -16 -63 -35.5t-26 -55.5q0 -31 24.5 -49t64.5 -18t64 18t24 49z" />
    </font>
</defs>
</svg>
