<?xml version="1.0" standalone="no"?>
<!DOCTYPE svg PUBLIC "-//W3C//DTD SVG 1.1//EN" "http://www.w3.org/Graphics/SVG/1.1/DTD/svg11.dtd" >
<svg xmlns="http://www.w3.org/2000/svg" xmlns:xlink="http://www.w3.org/1999/xlink" version="1.1">
<metadata>
Created by FontForge 20161013 at Wed Feb 16 16:57:18 2011
 By ,,,
2010 Hans Reichel published by FSI FontShop International GmbH
</metadata>
<defs>
<font id="DaxlineScOffcPro-Black" horiz-adv-x="368" >
  <font-face 
    font-family="Daxline SC Offc Pro Black"
    font-weight="900"
    font-stretch="normal"
    units-per-em="1000"
    panose-1="2 11 10 4 2 1 1 2 1 2"
    ascent="785"
    descent="-215"
    x-height="539"
    cap-height="724"
    bbox="-418 -317 1306 1026"
    underline-thickness="126"
    underline-position="-299"
    unicode-range="U+0020-FB02"
  />
<missing-glyph horiz-adv-x="500" 
d="M0 700h500v-700h-500v700zM420 650h-340l170 -255zM450 95v510l-170 -255zM420 50l-170 255l-170 -255h340zM50 95l170 255l-170 255v-510z" />
    <glyph glyph-name=".notdef" horiz-adv-x="500" 
d="M0 700h500v-700h-500v700zM420 650h-340l170 -255zM450 95v510l-170 -255zM420 50l-170 255l-170 -255h340zM50 95l170 255l-170 255v-510z" />
    <glyph glyph-name=".null" horiz-adv-x="0" 
 />
    <glyph glyph-name="nonmarkingreturn" horiz-adv-x="224" 
 />
    <glyph glyph-name="space" unicode=" " horiz-adv-x="224" 
 />
    <glyph glyph-name="exclam" unicode="!" horiz-adv-x="312" 
d="M240 274h-168l-30 450h228zM272 105q0 -24 -9 -45t-25 -37t-37 -25t-45 -9t-45 9t-37 25t-25 37t-9 45t9 45t25 37t37 25t45 9t45 -9t37 -25t25 -37t9 -45z" />
    <glyph glyph-name="quotedbl" unicode="&#x22;" horiz-adv-x="500" 
d="M418 384h-106l-34 308q16 22 39 32.5t48 10.5t48 -10.5t39 -32.5zM188 384h-106l-34 308q16 22 39 32.5t48 10.5t48 -10.5t39 -32.5z" />
    <glyph glyph-name="numbersign" unicode="#" horiz-adv-x="746" 
d="M584 428l-18 -124h92v-131h-110l-25 -173h-146l25 173h-122l-25 -173h-146l25 173h-94v131h112l18 124h-92v131h111l23 165h146l-23 -165h122l23 165h146l-23 -165h93v-131h-112zM316 428l-18 -124h122l18 124h-122z" />
    <glyph glyph-name="dollar" unicode="$" horiz-adv-x="558" 
d="M518 225q0 -86 -47 -148t-140 -82l13 -154h-154l20 147q-48 4 -96.5 14.5t-75.5 24.5l68 172q26 -14 61.5 -24t70.5 -10q75 0 75 46q0 21 -20 36.5t-49 29.5q-28 13 -62 31t-64 44.5t-50 63.5t-20 88q0 87 47 146.5t138 78.5l-13 147h150l-20 -140q48 -3 86.5 -14
t65.5 -25l-64 -158q-20 10 -51.5 19.5t-65.5 9.5q-40 0 -56.5 -13.5t-16.5 -35.5q0 -20 20 -37t47 -31l24 -12q29 -14 60.5 -32t58 -43.5t43.5 -59t17 -79.5z" />
    <glyph glyph-name="percent" unicode="%" horiz-adv-x="1000" 
d="M962 215q0 -49 -12 -90.5t-36 -72t-59.5 -48t-82.5 -17.5t-82.5 17.5t-59.5 48t-36 72t-12 90.5t12 90.5t36 72t59.5 48t82.5 17.5t82.5 -17.5t59.5 -48t36 -72t12 -90.5zM425 -15l-116 35l266 719l116 -35zM418 509q0 -49 -12 -90.5t-36 -72t-59.5 -48t-82.5 -17.5
t-82.5 17.5t-59.5 48t-36 72t-12 90.5t12 90.5t36 72t59.5 48t82.5 17.5t82.5 -17.5t59.5 -48t36 -72t12 -90.5zM818 217q0 57 -11.5 81t-34.5 24t-34.5 -24t-11.5 -81t11.5 -81t34.5 -24t34.5 24t11.5 81zM274 511q0 57 -11.5 81t-34.5 24t-34.5 -24t-11.5 -81t11.5 -81
t34.5 -24t34.5 24t11.5 81z" />
    <glyph glyph-name="ampersand" unicode="&#x26;" horiz-adv-x="704" 
d="M576 347v-320q-37 -17 -98.5 -28.5t-142.5 -11.5q-146 0 -223.5 56t-77.5 159q0 69 35 114t83 65v2q-47 22 -70.5 63t-23.5 88q0 37 15 73.5t45.5 65t77 46.5t108.5 18q60 0 109.5 -11.5t81.5 -28.5l-59 -148q-20 11 -47 17.5t-58 6.5q-39 0 -59.5 -15.5t-20.5 -42.5
t19 -43t56 -16q11 0 25 1t31 4l270 47l24 -145zM387 316l-66 -11q-41 -7 -65 -28.5t-24 -58.5q0 -40 27 -61.5t82 -21.5q11 0 25 1.5t21 3.5v176z" />
    <glyph glyph-name="quotesingle" unicode="'" horiz-adv-x="270" 
d="M188 384h-106l-34 308q16 22 39 32.5t48 10.5t48 -10.5t39 -32.5z" />
    <glyph glyph-name="parenleft" unicode="(" horiz-adv-x="428" 
d="M267 -225q-111 105 -170 238.5t-59 284.5t59 284.5t170 238.5l143 -75q-76 -90 -118 -203.5t-42 -244.5t42 -244.5t118 -203.5z" />
    <glyph glyph-name="parenright" unicode=")" horiz-adv-x="428" 
d="M390 298q0 -151 -59 -284.5t-170 -238.5l-143 75q76 90 118 203.5t42 244.5t-42 244.5t-118 203.5l143 75q111 -105 170 -238.5t59 -284.5z" />
    <glyph glyph-name="asterisk" unicode="*" horiz-adv-x="568" 
d="M532 691q0 -27 -13 -47l-140 -24l100 -104q-1 -20 -10.5 -37t-24 -30.5t-33 -21t-37.5 -7.5q-11 0 -21 3l-64 122l-64 -122q-11 -3 -21 -3q-19 0 -37.5 7.5t-33 21t-24 30.5t-10.5 37l100 104l-140 24q-13 20 -13 47q0 30 15 56.5t44 39.5l124 -60l-20 138q14 17 35 26
t45 9t45 -9t35 -26l-20 -138l124 60q29 -13 44 -39.5t15 -56.5z" />
    <glyph glyph-name="plus" unicode="+" horiz-adv-x="530" 
d="M344 252v-141h-158v141h-136v146h136v141h158v-141h136v-146h-136z" />
    <glyph glyph-name="comma" unicode="," horiz-adv-x="292" 
d="M107 -169h-131l98 323q18 29 48.5 48t74.5 19t63 -19.5t24 -47.5z" />
    <glyph glyph-name="hyphen" unicode="-" horiz-adv-x="388" 
d="M44 245v160h300v-160h-300z" />
    <glyph glyph-name="period" unicode="." horiz-adv-x="292" 
d="M262 105q0 -24 -9 -45t-25 -37t-37 -25t-45 -9t-45 9t-37 25t-25 37t-9 45t9 45t25 37t37 25t45 9t45 -9t37 -25t25 -37t9 -45z" />
    <glyph glyph-name="slash" unicode="/" horiz-adv-x="510" 
d="M162 -209l-182 51l328 968l182 -51z" />
    <glyph glyph-name="zero" unicode="0" horiz-adv-x="610" 
d="M574 270q0 -61 -17 -112.5t-51 -89.5t-84.5 -59.5t-116.5 -21.5t-116.5 21.5t-84.5 59.5t-51 89.5t-17 112.5t17 112.5t51 89t84.5 59t116.5 21.5t116.5 -21.5t84.5 -59t51 -89t17 -112.5zM378 272q0 68 -19 99t-54 31t-54 -31t-19 -99t19 -99t54 -31t54 31t19 99z" />
    <glyph glyph-name="one" unicode="1" horiz-adv-x="446" 
d="M194 0v331q-13 -6 -32.5 -12.5t-40.5 -12t-41.5 -9t-35.5 -4.5l-28 145q33 5 67 15.5t63.5 24.5t52.5 30t36 31h155v-539h-196z" />
    <glyph glyph-name="two" unicode="2" horiz-adv-x="496" 
d="M14 0l214 292q8 11 16 26.5t8 27.5q0 20 -12.5 33t-41.5 13q-14 0 -30 -2.5t-32 -7t-31 -9.5t-27 -11l-50 150q18 8 42.5 15.5t52 13t56 8.5t55.5 3q59 0 100.5 -13.5t68 -37t38.5 -56t12 -70.5q0 -34 -17 -66t-40 -60l-77 -91h143v-158h-448z" />
    <glyph glyph-name="three" unicode="3" horiz-adv-x="516" 
d="M488 46q0 -48 -18.5 -88t-54 -69t-86.5 -45t-116 -16q-56 0 -112.5 10.5t-100.5 29.5l59 149q27 -11 61.5 -18.5t68.5 -7.5q47 0 75 13.5t28 44.5q0 38 -43.5 56t-109.5 18v139q70 5 104.5 26.5t34.5 52.5q0 20 -15 36t-55 16q-32 0 -69 -8t-69 -23l-52 150q48 20 107 30
t113 10q63 0 107 -14.5t72 -40.5t40.5 -61t12.5 -75q0 -21 -7 -43t-19 -41.5t-28.5 -35.5t-35.5 -27v-2q52 -24 80 -65.5t28 -100.5z" />
    <glyph glyph-name="four" unicode="4" horiz-adv-x="618" 
d="M521 0v-159h-179v159h-302v135l268 404h213v-404h57v-135h-57zM349 373q-8 -17 -20.5 -40.5t-26.5 -46.5l-97 -151h143v140q0 31 1 57.5t2 40.5h-2z" />
    <glyph glyph-name="five" unicode="5" horiz-adv-x="516" 
d="M488 58q0 -65 -23.5 -109t-62.5 -71t-89 -38.5t-103 -11.5q-57 0 -111 11t-99 29l59 149q26 -11 65 -18.5t76 -7.5q44 0 68 16t24 45q0 17 -7 32t-23.5 26t-44 17.5t-67.5 6.5q-22 0 -47.5 -1.5t-55.5 -6.5l45 413h371v-158h-208l-12 -106q118 -3 181.5 -60.5
t63.5 -156.5z" />
    <glyph glyph-name="six" unicode="6" horiz-adv-x="610" 
d="M576 226q0 -52 -19 -95.5t-54 -75.5t-84 -50t-109 -18q-73 0 -125 23.5t-85 63t-48.5 91t-15.5 107.5q0 101 37 177t98 129.5t140 86t163 46.5l46 -154q-93 -16 -157.5 -44t-99.5 -80q16 5 35 6t34 1q120 0 182 -57t62 -157zM387 227q0 40 -24.5 62.5t-66.5 22.5
q-20 0 -39 -1.5t-34 -6.5q-1 -8 -1 -16v-16q0 -61 22.5 -96.5t65.5 -35.5q36 0 56.5 26t20.5 61z" />
    <glyph glyph-name="seven" unicode="7" horiz-adv-x="562" 
d="M271 -159h-217l225 540h-251v158h512z" />
    <glyph glyph-name="eight" unicode="8" horiz-adv-x="610" 
d="M576 186q0 -44 -18.5 -80.5t-53 -62.5t-85 -41t-114.5 -15t-114.5 15t-85 41t-53 62.5t-18.5 80.5q0 62 32 103t89 74q-50 32 -77.5 69.5t-27.5 88.5q0 40 17.5 75t50 60.5t80 40t107.5 14.5t107.5 -14.5t80 -40t50 -60.5t17.5 -75q0 -51 -27.5 -88.5t-77.5 -69.5
q57 -33 89 -74t32 -103zM380 516q0 27 -18.5 45t-56.5 18t-56.5 -18t-18.5 -45q0 -26 18.5 -45t56.5 -43q38 24 56.5 43t18.5 45zM388 196q0 30 -21 51.5t-62 45.5q-41 -24 -62 -45.5t-21 -51.5q0 -29 22.5 -48t60.5 -19t60.5 19t22.5 48z" />
    <glyph glyph-name="nine" unicode="9" horiz-adv-x="610" 
d="M574 267q0 -101 -37 -177t-98 -129.5t-140 -86t-163 -46.5l-46 154q93 16 157.5 44t99.5 80q-16 -5 -35 -6t-34 -1q-120 0 -182 57t-62 157q0 52 19 95.5t54 75.5t84 50t109 18q73 0 125 -23.5t85 -63t48.5 -91t15.5 -107.5zM388 269q0 61 -22.5 96.5t-65.5 35.5
q-36 0 -56.5 -26t-20.5 -61q0 -40 24.5 -62.5t66.5 -22.5q20 0 39 1.5t34 6.5q1 8 1 16v16z" />
    <glyph glyph-name="colon" unicode=":" horiz-adv-x="320" 
d="M276 435q0 -24 -9 -45t-25 -37t-37 -25t-45 -9t-45 9t-37 25t-25 37t-9 45t9 45t25 37t37 25t45 9t45 -9t37 -25t25 -37t9 -45zM276 105q0 -24 -9 -45t-25 -37t-37 -25t-45 -9t-45 9t-37 25t-25 37t-9 45t9 45t25 37t37 25t45 9t45 -9t37 -25t25 -37t9 -45z" />
    <glyph glyph-name="semicolon" unicode=";" horiz-adv-x="320" 
d="M282 435q0 -24 -9 -45t-25 -37t-37 -25t-45 -9t-45 9t-37 25t-25 37t-9 45t9 45t25 37t37 25t45 9t45 -9t37 -25t25 -37t9 -45zM107 -169h-131l98 323q18 29 48.5 48t74.5 19t63 -19.5t24 -47.5z" />
    <glyph glyph-name="less" unicode="&#x3c;" horiz-adv-x="530" 
d="M50 262v126l430 203v-172l-257 -94l257 -94v-172z" />
    <glyph glyph-name="equal" unicode="=" horiz-adv-x="530" 
d="M50 372v146h430v-146h-430zM50 132v146h430v-146h-430z" />
    <glyph glyph-name="greater" unicode="&#x3e;" horiz-adv-x="530" 
d="M50 59v172l257 94l-257 94v172l430 -203v-126z" />
    <glyph glyph-name="question" unicode="?" horiz-adv-x="526" 
d="M496 540q0 -38 -14 -67t-37 -51t-52 -38t-58 -27l-10 -83h-159l-16 175q30 6 55.5 13.5t45 17t30.5 22t11 28.5q0 26 -19.5 38.5t-68.5 12.5q-31 0 -65.5 -9t-59.5 -20l-59 145q44 18 100 29t114 11q127 0 194.5 -47.5t67.5 -149.5zM362 105q0 -24 -9 -45t-25 -37
t-37 -25t-45 -9t-45 9t-37 25t-25 37t-9 45t9 45t25 37t37 25t45 9t45 -9t37 -25t25 -37t9 -45z" />
    <glyph glyph-name="at" unicode="@" horiz-adv-x="1024" 
d="M986 333q0 -92 -31.5 -157.5t-85.5 -107t-125.5 -61t-151.5 -19.5q-148 0 -227.5 72t-79.5 203q0 127 66.5 194.5t185.5 67.5q70 0 115.5 -19.5t72.5 -42.5v-319q18 11 35.5 26t30.5 37t21 52.5t8 73.5q0 60 -18.5 108.5t-54 83.5t-87.5 54t-119 19q-78 0 -140.5 -24
t-106 -68.5t-66.5 -108.5t-23 -144q0 -77 26.5 -139.5t76.5 -106.5t121.5 -68t161.5 -24q42 0 83 5.5t78.5 15.5t70 23.5t56.5 30.5l82 -120q-63 -43 -156 -70.5t-214 -27.5q-122 0 -223.5 33.5t-175 96t-114 151.5t-40.5 200q0 106 35 195t100.5 153t158.5 100t209 36
q102 0 184.5 -30.5t140.5 -84.5t89 -128t31 -161zM564 388q-12 7 -34 7q-41 0 -60 -31.5t-19 -100.5q0 -71 31 -103t82 -34v262z" />
    <glyph glyph-name="A" unicode="A" horiz-adv-x="672" 
d="M471 0l-31 124h-208l-31 -124h-209l225 724h238l225 -724h-209zM354 466q-6 24 -10.5 49t-6.5 44h-2q-2 -19 -6.5 -44t-10.5 -49l-50 -198h136z" />
    <glyph glyph-name="B" unicode="B" horiz-adv-x="625" 
d="M595 202q0 -101 -74.5 -158t-228.5 -57q-71 0 -134.5 11.5t-104.5 28.5v670q46 18 108 29t131 11q77 0 132 -15.5t90 -43.5t51.5 -65.5t16.5 -82.5q0 -27 -8 -51.5t-22 -44.5t-32.5 -35t-40.5 -22v-2q20 -8 41 -23.5t37.5 -37.5t27 -50.5t10.5 -61.5zM392 508
q0 37 -21.5 59t-79.5 22q-29 0 -49 -5v-152h71q20 0 36 5.5t23 12.5q20 20 20 58zM397 216q0 18 -5.5 33.5t-15.5 24.5t-25 14.5t-38 5.5h-71v-154q8 -2 21.5 -3.5t27.5 -1.5q57 0 81.5 18t24.5 63z" />
    <glyph glyph-name="C" unicode="C" horiz-adv-x="506" 
d="M486 27q-33 -20 -72.5 -30t-87.5 -10q-62 0 -115.5 23.5t-92.5 70.5t-61.5 117t-22.5 164t22.5 164t61.5 117t92.5 70.5t115.5 23.5q48 0 87.5 -10t72.5 -30l-61 -158q-13 10 -31.5 17t-40.5 7q-55 0 -84 -53t-29 -146t29 -146t84 -53q22 0 40.5 7t31.5 17z" />
    <glyph glyph-name="D" unicode="D" horiz-adv-x="627" 
d="M593 362q0 -177 -80 -276t-248 -99q-64 0 -119.5 11.5t-92.5 28.5v670q34 16 91.5 28t120.5 12q168 0 248 -99t80 -276zM393 362q0 111 -29.5 159.5t-85.5 48.5q-16 0 -25 -3v-411q5 -1 11.5 -1.5t13.5 -0.5q56 0 85.5 48.5t29.5 159.5z" />
    <glyph glyph-name="E" unicode="E" horiz-adv-x="489" 
d="M53 0v724h396v-166h-200v-115h176v-162h-176v-115h200v-166h-396z" />
    <glyph glyph-name="F" unicode="F" horiz-adv-x="481" 
d="M250 558v-115h175v-162h-175v-281h-197v724h396v-166h-199z" />
    <glyph glyph-name="G" unicode="G" horiz-adv-x="630" 
d="M580 27q-32 -17 -87.5 -28.5t-119.5 -11.5q-84 0 -147.5 28.5t-106 78.5t-64 119t-21.5 149q0 81 23.5 149.5t69 118.5t112.5 78.5t153 28.5q57 0 108 -11.5t80 -28.5l-60 -156q-21 11 -50.5 19t-69.5 8q-74 0 -120 -50.5t-46 -154.5q0 -51 10.5 -90.5t27.5 -65.5
t39.5 -39.5t46.5 -13.5t36 4v140h-64v148h250v-419z" />
    <glyph glyph-name="H" unicode="H" horiz-adv-x="636" 
d="M383 0v281h-130v-281h-200v724h200v-281h130v281h200v-724h-200z" />
    <glyph glyph-name="I" unicode="I" horiz-adv-x="306" 
d="M53 0v724h200v-724h-200z" />
    <glyph glyph-name="J" unicode="J" horiz-adv-x="306" 
d="M253 80q0 -142 -81.5 -216t-222.5 -84v170q45 7 74.5 38.5t29.5 91.5v644h200v-644z" />
    <glyph glyph-name="K" unicode="K" horiz-adv-x="646" 
d="M421 0l-166 347h-2v-347h-200v724h200v-321h2l165 321h221l-189 -349l193 -375h-224z" />
    <glyph glyph-name="L" unicode="L" horiz-adv-x="454" 
d="M53 0v724h200v-558h174v-166h-374z" />
    <glyph glyph-name="M" unicode="M" horiz-adv-x="874" 
d="M668 0l-32 373q-1 14 -2 30t-2 31t-2 27.5t-1 19.5h-2q-6 -30 -11.5 -53.5t-13.5 -54.5l-106 -373h-118l-106 373q-9 33 -15 60.5t-10 47.5h-2q-1 -19 -2.5 -44.5t-4.5 -63.5l-32 -373h-184l84 724h221l88 -320q8 -29 13.5 -56.5t7.5 -41.5h2q2 9 7.5 37.5t13.5 60.5
l88 320h221l84 -724h-184z" />
    <glyph glyph-name="N" unicode="N" horiz-adv-x="654" 
d="M446 0l-180 320q-18 32 -28.5 55.5t-15.5 34.5h-2q0 -8 1 -36.5t1 -63.5v-310h-169v724h161l174 -308q12 -21 24 -46.5t20 -43.5h2q-1 13 -1.5 40.5t-0.5 62.5v295h169v-724h-155z" />
    <glyph glyph-name="O" unicode="O" horiz-adv-x="636" 
d="M602 362q0 -81 -17 -149.5t-51.5 -119t-88.5 -78.5t-127 -28q-74 0 -127.5 28t-88 78.5t-51.5 119t-17 149.5t17 149.5t51.5 119t88 78.5t127.5 28q73 0 127 -28t88.5 -78.5t51.5 -119t17 -149.5zM402 362q0 98 -21 148.5t-63 50.5t-63 -50.5t-21 -148.5t21 -148.5
t63 -50.5t63 50.5t21 148.5z" />
    <glyph glyph-name="P" unicode="P" horiz-adv-x="611" 
d="M585 493q0 -51 -17.5 -94.5t-53.5 -75.5t-90.5 -50t-127.5 -18q-13 0 -26 0.5t-21 2.5v-258h-196v697q46 19 104 29.5t127 10.5q73 0 129 -17.5t94.5 -49.5t58 -77t19.5 -100zM389 494q0 50 -25.5 72t-77.5 22q-11 0 -20.5 -1t-16.5 -3v-178q12 -3 37 -3q103 0 103 91z
" />
    <glyph glyph-name="Q" unicode="Q" horiz-adv-x="636" 
d="M450 -206l-105 194q-7 -1 -14 -1h-13q-74 0 -127.5 28t-88 78.5t-51.5 119t-17 149.5t17 149.5t51.5 119t88 78.5t127.5 28q73 0 127 -28t88.5 -78.5t51.5 -119t17 -149.5q0 -97 -23.5 -176t-74.5 -129l98 -141zM402 362q0 98 -21 148.5t-63 50.5t-63 -50.5t-21 -148.5
t21 -148.5t63 -50.5t63 50.5t21 148.5z" />
    <glyph glyph-name="R" unicode="R" horiz-adv-x="638" 
d="M420 0l-67 208q-8 26 -26 43t-47 17h-31v-268h-196v697q48 20 109.5 30t129.5 10q146 0 219.5 -60t73.5 -173q0 -35 -10 -62.5t-26 -48.5t-36 -36t-40 -25v-2q29 -18 49 -48t33 -67l74 -215h-209zM389 492q0 49 -21 72.5t-71 23.5q-13 0 -26 -1t-22 -3v-177h54
q45 0 65.5 22.5t20.5 62.5z" />
    <glyph glyph-name="S" unicode="S" horiz-adv-x="506" 
d="M477 225q0 -52 -16 -95.5t-47.5 -75t-79.5 -49.5t-111 -18q-54 0 -105 10t-93 30l64 174q26 -14 59 -24t65 -10q30 0 44.5 13.5t14.5 32.5q0 20 -17.5 34.5t-44 29t-57.5 32t-57.5 43t-44 62t-17.5 90.5q0 52 16 94.5t47.5 73.5t78 48t106.5 17q54 0 99 -10.5t81 -29.5
l-60 -160q-23 13 -51 21t-59 8q-29 0 -43.5 -14.5t-14.5 -34.5q0 -21 18 -36.5t45 -30.5t58.5 -33t58.5 -43.5t45 -61.5t18 -87z" />
    <glyph glyph-name="T" unicode="T" horiz-adv-x="506" 
d="M353 558v-558h-200v558h-123v166h446v-166h-123z" />
    <glyph glyph-name="U" unicode="U" horiz-adv-x="628" 
d="M575 222q0 -57 -19.5 -100t-54.5 -72.5t-83 -44.5t-104 -15t-104 15t-83 44.5t-54.5 72.5t-19.5 100v502h200v-504q0 -29 17.5 -44.5t43.5 -15.5t43.5 15.5t17.5 44.5v504h200v-502z" />
    <glyph glyph-name="V" unicode="V" horiz-adv-x="624" 
d="M417 0h-210l-211 724h218l80 -400q7 -33 11 -62.5t6 -49.5h2q2 17 5.5 46t11.5 66l80 400h218z" />
    <glyph glyph-name="W" unicode="W" horiz-adv-x="918" 
d="M737 0h-191l-68 320q-8 34 -12 63t-6 47h-2q-3 -22 -6.5 -48t-11.5 -62l-68 -320h-191l-175 724h202l62 -377q5 -29 8 -52t5 -45h2q2 15 5 41.5t9 55.5l79 377h162l79 -377q5 -27 8.5 -53.5t5.5 -43.5h2q2 19 5 42t8 55l62 377h202z" />
    <glyph glyph-name="X" unicode="X" horiz-adv-x="618" 
d="M408 0l-98 218h-2l-98 -218h-220l200 376l-184 348h218l84 -191h2l84 191h218l-184 -348l200 -376h-220z" />
    <glyph glyph-name="Y" unicode="Y" horiz-adv-x="576" 
d="M388 278v-278h-200v278l-198 446h214l83 -245h2l83 245h214z" />
    <glyph glyph-name="Z" unicode="Z" horiz-adv-x="522" 
d="M12 0l204 558h-174v166h444l-203 -558h203v-166h-474z" />
    <glyph glyph-name="bracketleft" unicode="[" horiz-adv-x="400" 
d="M60 -195v980h304v-148h-116v-684h116v-148h-304z" />
    <glyph glyph-name="backslash" unicode="\" horiz-adv-x="510" 
d="M348 -209l-328 968l182 51l328 -968z" />
    <glyph glyph-name="bracketright" unicode="]" horiz-adv-x="400" 
d="M36 -195v148h116v684h-116v148h304v-980h-304z" />
    <glyph glyph-name="asciicircum" unicode="^" horiz-adv-x="630" 
d="M461 334l-146 184l-146 -184l-117 94l180 223q14 18 35.5 28.5t47.5 10.5t47.5 -10.5t35.5 -28.5l180 -223z" />
    <glyph glyph-name="underscore" unicode="_" horiz-adv-x="600" 
d="M-4 -236v126h608v-126h-608z" />
    <glyph glyph-name="grave" unicode="`" horiz-adv-x="380" 
d="M152 600l-116 132q5 17 26.5 27.5t48.5 10.5q26 0 53.5 -8.5t48.5 -29.5l67 -132h-128z" />
    <glyph glyph-name="a" unicode="a" horiz-adv-x="598" 
d="M399 0l-23 92h-154l-23 -92h-207l193 539h228l193 -539h-207zM312 343q-4 15 -7 31.5t-5 30.5h-2q-2 -14 -5 -30.5t-7 -31.5l-37 -144h100z" />
    <glyph glyph-name="b" unicode="b" horiz-adv-x="566" 
d="M539 148q0 -88 -67.5 -124.5t-203.5 -36.5q-64 0 -121 10.5t-100 29.5v485q43 19 100 29.5t121 10.5q130 0 195.5 -40t65.5 -116q0 -20 -8.5 -38.5t-23 -34.5t-34.5 -27.5t-43 -16.5v-1q22 -6 43 -16.5t38 -26t27.5 -37.5t10.5 -50zM344 380q0 29 -15.5 44t-60.5 15
q-11 0 -20.5 -1t-16.5 -3v-112h54q15 0 27 4t17 9q15 15 15 44zM348 160q0 14 -4 25.5t-12 18.5t-19 11t-28 4h-54v-115q6 -2 16 -3t21 -1q43 0 61.5 13.5t18.5 46.5z" />
    <glyph glyph-name="c" unicode="c" horiz-adv-x="454" 
d="M436 24q-34 -20 -70.5 -28.5t-83.5 -8.5q-52 0 -97.5 18t-80 54t-54.5 89t-20 122t20 122t54.5 88.5t80 53.5t97.5 18q47 0 83.5 -8.5t70.5 -28.5l-59 -138q-25 18 -63 18q-42 0 -62.5 -35t-20.5 -88t22 -88t61 -35q38 0 63 18z" />
    <glyph glyph-name="d" unicode="d" horiz-adv-x="577" 
d="M547 270q0 -137 -75.5 -210t-211.5 -73q-59 0 -113.5 10t-99.5 30v485q45 20 99.5 30t113.5 10q136 0 211.5 -72.5t75.5 -209.5zM353 270q0 83 -24.5 116t-66.5 33h-11q-5 0 -10 -2v-295q10 -2 21 -2q42 0 66.5 33.5t24.5 116.5z" />
    <glyph glyph-name="e" unicode="e" horiz-adv-x="430" 
d="M47 0v539h348v-127h-158v-80h141v-124h-141v-81h158v-127h-348z" />
    <glyph glyph-name="f" unicode="f" horiz-adv-x="424" 
d="M237 412v-80h141v-124h-141v-208h-190v539h348v-127h-158z" />
    <glyph glyph-name="g" unicode="g" horiz-adv-x="572" 
d="M528 27q-35 -19 -88.5 -29.5t-110.5 -10.5q-142 0 -220.5 70t-78.5 213q0 68 21 120.5t60 88.5t95 54.5t127 18.5q55 0 105 -10.5t87 -29.5l-49 -129q-53 29 -121 29q-36 0 -60.5 -10.5t-40.5 -30t-23 -46.5t-7 -59q0 -66 25.5 -106.5t69.5 -40.5q21 0 30 3v96h-53v114
h232v-305z" />
    <glyph glyph-name="h" unicode="h" horiz-adv-x="586" 
d="M345 0v196h-104v-196h-194v539h194v-195h104v195h194v-539h-194z" />
    <glyph glyph-name="i" unicode="i" horiz-adv-x="288" 
d="M47 0v539h194v-539h-194z" />
    <glyph glyph-name="j" unicode="j" horiz-adv-x="288" 
d="M241 80q0 -84 -22.5 -140.5t-61 -91t-90 -51.5t-109.5 -22v158q17 4 33 14t28.5 27t20 43t7.5 63v459h194v-459z" />
    <glyph glyph-name="k" unicode="k" horiz-adv-x="590" 
d="M373 0l-132 256h-2v-256h-192v539h192v-235h2l122 235h216l-150 -256l162 -283h-218z" />
    <glyph glyph-name="l" unicode="l" horiz-adv-x="403" 
d="M47 0v539h194v-389h139v-150h-333z" />
    <glyph glyph-name="m" unicode="m" horiz-adv-x="806" 
d="M605 0l-24 278q-2 26 -3 46.5t-2 34.5h-2q-3 -16 -6.5 -35.5t-11.5 -45.5l-79 -278h-148l-79 278q-7 25 -11 44.5t-7 36.5h-2q-1 -14 -2 -35.5t-3 -45.5l-24 -278h-181l71 539h230l66 -238q5 -20 9 -41t6 -32h2l6 33q4 22 9 40l66 238h230l71 -539h-181z" />
    <glyph glyph-name="n" unicode="n" horiz-adv-x="612" 
d="M380 0l-134 239q-11 19 -19.5 37.5t-13.5 29.5h-2q1 -20 1.5 -35t0.5 -40v-231h-166v539h190l129 -229q9 -15 17.5 -33t15.5 -34h2q-1 15 -1.5 32t-0.5 45v219h166v-539h-185z" />
    <glyph glyph-name="o" unicode="o" horiz-adv-x="582" 
d="M552 270q0 -61 -17.5 -112.5t-51 -89.5t-82 -59.5t-110.5 -21.5t-110.5 21.5t-82 59.5t-51 89.5t-17.5 112.5t17.5 112.5t51 89t82 59t110.5 21.5t110.5 -21.5t82 -59t51 -89t17.5 -112.5zM358 272q0 68 -17.5 99t-49.5 31t-49.5 -31t-17.5 -99t17.5 -99t49.5 -31
t49.5 31t17.5 99z" />
    <glyph glyph-name="p" unicode="p" horiz-adv-x="554" 
d="M532 362q0 -88 -64.5 -138t-189.5 -50q-13 0 -24 1t-17 2v-177h-190v512q21 10 46.5 17.5t53.5 12.5t57.5 7.5t58.5 2.5q134 0 201.5 -49.5t67.5 -140.5zM342 362q0 35 -18.5 51.5t-59.5 16.5q-17 0 -27 -3v-129q5 -1 12 -2t15 -1q78 0 78 67z" />
    <glyph glyph-name="q" unicode="q" horiz-adv-x="582" 
d="M552 270q0 -70 -23 -127.5t-67 -95.5l89 -125l-145 -116l-98 181h-17q-62 0 -110.5 21.5t-82 59.5t-51 89.5t-17.5 112.5t17.5 112.5t51 89t82 59t110.5 21.5t110.5 -21.5t82 -59t51 -89t17.5 -112.5zM358 272q0 68 -17.5 99t-49.5 31t-49.5 -31t-17.5 -99t17.5 -99
t49.5 -31t49.5 31t17.5 99z" />
    <glyph glyph-name="r" unicode="r" horiz-adv-x="582" 
d="M373 0l-47 146q-14 44 -62 44h-27v-190h-190v512q22 10 50 17.5t58.5 12.5t62 7.5t60.5 2.5q126 0 194 -47t68 -133q0 -48 -25.5 -82.5t-58.5 -50.5v-2q22 -14 38.5 -36t24.5 -44l54 -157h-200zM351 364q0 35 -16.5 53t-54.5 18q-11 0 -22 -1t-21 -3v-130h47
q34 0 50.5 16.5t16.5 46.5z" />
    <glyph glyph-name="s" unicode="s" horiz-adv-x="474" 
d="M448 167q0 -83 -58.5 -131.5t-181.5 -48.5q-54 0 -100.5 10t-89.5 30l60 146q27 -15 62 -25t62 -10q20 0 31.5 8.5t11.5 21.5q0 17 -15.5 26t-38.5 17t-50.5 19t-51.5 29.5t-40.5 47.5t-16.5 72q0 81 57.5 127t161.5 46q50 0 96.5 -10t87.5 -30l-56 -129q-23 13 -49 21
t-52 8q-22 0 -34.5 -8.5t-12.5 -22.5q0 -11 6.5 -18.5t16 -13.5t20 -9.5t18.5 -6.5q23 -8 50.5 -19t51 -29.5t39 -46.5t15.5 -71z" />
    <glyph glyph-name="t" unicode="t" horiz-adv-x="470" 
d="M332 389v-389h-194v389h-112v150h418v-150h-112z" />
    <glyph glyph-name="u" unicode="u" horiz-adv-x="578" 
d="M531 184q0 -92 -63.5 -144.5t-178.5 -52.5t-178.5 52.5t-63.5 144.5v355h194v-357q0 -21 14.5 -33t33.5 -12t33.5 12t14.5 33v357h194v-355z" />
    <glyph glyph-name="v" unicode="v" horiz-adv-x="596" 
d="M411 0h-226l-185 539h220l60 -285q6 -28 10 -51t7 -43h2q5 26 8 45.5t9 48.5l60 285h220z" />
    <glyph glyph-name="w" unicode="w" horiz-adv-x="860" 
d="M701 0h-202l-53 233q-6 27 -9.5 49.5t-5.5 38.5h-2q-2 -12 -6 -38t-9 -50l-53 -233h-202l-149 539h195l46 -275q4 -22 6.5 -49.5t4.5 -44.5h2q2 16 6.5 42t10.5 52l62 275h174l62 -275q2 -8 4.5 -20t5 -25.5t4.5 -26.5t3 -22h2q2 16 4 41.5t7 52.5l46 275h195z" />
    <glyph glyph-name="x" unicode="x" horiz-adv-x="586" 
d="M373 0l-79 150h-2l-79 -150h-223l182 279l-166 260h218l68 -139h2l68 139h218l-166 -260l182 -279h-223z" />
    <glyph glyph-name="y" unicode="y" horiz-adv-x="568" 
d="M381 195v-195h-194v195l-197 344h222l71 -176h2l71 176h222z" />
    <glyph glyph-name="z" unicode="z" horiz-adv-x="486" 
d="M18 0l170 389h-150v150h416l-170 -389h170v-150h-436z" />
    <glyph glyph-name="braceleft" unicode="{" horiz-adv-x="406" 
d="M313 -195q-117 0 -170 56t-53 153q0 19 2 35t5 31.5t5 31.5t2 35q0 34 -22 53t-56 19v152q34 0 56 19t22 53q0 19 -2 35t-5 31.5t-5 31.5t-2 35q0 97 53 153t170 56h53v-148h-20q-32 0 -50 -14.5t-18 -46.5q0 -19 2 -35t5 -31.5t5 -31.5t2 -35q0 -57 -28 -94.5t-82 -52.5
v-2q54 -15 82 -52.5t28 -94.5q0 -19 -2 -35t-5 -31.5t-5 -31.5t-2 -35q0 -32 18 -46.5t50 -14.5h20v-148h-53z" />
    <glyph glyph-name="bar" unicode="|" horiz-adv-x="294" 
d="M50 -215v1000h194v-1000h-194z" />
    <glyph glyph-name="braceright" unicode="}" horiz-adv-x="406" 
d="M380 219q-34 0 -56 -19t-22 -53q0 -19 2 -35t5 -31.5t5 -31.5t2 -35q0 -97 -53 -153t-170 -56h-53v148h20q32 0 50 14.5t18 46.5q0 19 -2 35t-5 31.5t-5 31.5t-2 35q0 57 28 94.5t82 52.5v2q-54 15 -82 52.5t-28 94.5q0 19 2 35t5 31.5t5 31.5t2 35q0 32 -18 46.5
t-50 14.5h-20v148h53q117 0 170 -56t53 -153q0 -19 -2 -35t-5 -31.5t-5 -31.5t-2 -35q0 -34 22 -53t56 -19v-152z" />
    <glyph glyph-name="asciitilde" unicode="~" horiz-adv-x="630" 
d="M576 407q-4 -31 -17 -58t-33 -47.5t-47.5 -32t-60.5 -11.5q-30 0 -53 8.5t-43 19t-40 19.5t-44 9q-31 0 -56 -18t-35 -47l-93 69q4 31 17 58t33 47.5t47.5 32t60.5 11.5q30 0 53 -9t43 -19.5t40 -19t44 -8.5q31 0 56 18t35 47z" />
    <glyph glyph-name="uni00A0" unicode="&#xa0;" horiz-adv-x="224" 
 />
    <glyph glyph-name="exclamdown" unicode="&#xa1;" horiz-adv-x="312" 
d="M272 404q0 -24 -9 -45t-25 -37t-37 -25t-45 -9t-45 9t-37 25t-25 37t-9 45t9 45t25 37t37 25t45 9t45 -9t37 -25t25 -37t9 -45zM42 -215l30 450h168l30 -450h-228z" />
    <glyph glyph-name="cent" unicode="&#xa2;" horiz-adv-x="472" 
d="M446 168q-20 -12 -44.5 -20t-57.5 -12l16 -136h-146l17 140q-41 9 -76 29.5t-60.5 53t-40 76t-14.5 97.5t14.5 97.5t40 75.5t60 52.5t75.5 29.5l-16 134h146l-16 -130q33 -4 57.5 -12t44.5 -20l-59 -129q-23 17 -63 17q-42 0 -62.5 -32.5t-20.5 -80.5t22 -80.5t61 -32.5
q19 0 35.5 4t27.5 12z" />
    <glyph glyph-name="sterling" unicode="&#xa3;" horiz-adv-x="610" 
d="M40 0q57 61 88 130t31 136v18q0 9 -1 17h-104v138h77q-6 31 -6 72q0 112 67.5 169t181.5 57q62 0 106.5 -11.5t75.5 -28.5l-62 -154q-16 10 -39.5 17.5t-52.5 7.5q-39 0 -60.5 -20t-21.5 -51q0 -16 1 -30t3 -28h142v-138h-123q1 -8 1 -17v-18q0 -25 -5.5 -52.5
t-14.5 -47.5h236v-166h-520z" />
    <glyph glyph-name="currency" unicode="&#xa4;" horiz-adv-x="740" 
d="M573 -15l-99 102q-47 -21 -104 -21q-58 0 -104 21l-99 -102l-127 108l108 113q-11 25 -16.5 52t-5.5 55t5.5 55t16.5 52l-108 113l127 108l99 -102q46 21 104 21q57 0 104 -21l99 102l127 -108l-108 -113q11 -25 16.5 -52t5.5 -55t-5.5 -55t-16.5 -52l108 -113zM448 313
q0 54 -23 78.5t-55 24.5t-55 -24.5t-23 -78.5t23 -78.5t55 -24.5t55 24.5t23 78.5z" />
    <glyph glyph-name="yen" unicode="&#xa5;" horiz-adv-x="676" 
d="M513 470h103v-92h-148l-34 -70h182v-92h-182v-216h-192v216h-182v92h182l-34 70h-148v92h103l-123 254h214l83 -225h2l83 225h214z" />
    <glyph glyph-name="brokenbar" unicode="&#xa6;" horiz-adv-x="294" 
d="M50 385v400h194v-400h-194zM50 -215v400h194v-400h-194z" />
    <glyph glyph-name="section" unicode="&#xa7;" horiz-adv-x="588" 
d="M558 241q0 -26 -8.5 -50t-22 -45.5t-31.5 -39.5t-37 -32q17 -23 27.5 -51t10.5 -63q0 -40 -15.5 -74.5t-44 -59.5t-69 -39.5t-89.5 -14.5q-57 0 -111.5 10.5t-91.5 29.5l56 151q10 -6 25 -11.5t31.5 -10t32.5 -7t29 -2.5q22 0 36.5 8.5t14.5 31.5q0 21 -20 38t-50 34.5
t-65.5 38t-65.5 48t-50 65t-20 89.5q0 54 29.5 97t70.5 71q-13 20 -20 43t-7 52q0 42 16 77t44.5 59.5t68 38.5t87.5 14q59 0 106 -11t80 -29l-53 -141q-18 10 -47.5 19t-56.5 9q-23 0 -39 -9.5t-16 -32.5q0 -22 19.5 -40t49 -35.5t64 -37.5t64 -46t49 -60.5t19.5 -81.5z
M385 223q0 24 -13.5 42.5t-35.5 35t-49 31.5t-55 32q-14 -11 -24 -27t-10 -36q0 -22 13.5 -39.5t35 -34t49 -32t56.5 -32.5q14 13 23.5 28.5t9.5 31.5z" />
    <glyph glyph-name="dieresis" unicode="&#xa8;" horiz-adv-x="380" 
d="M389 672q0 -33 -25.5 -56.5t-61.5 -23.5t-61.5 23.5t-25.5 56.5t25.5 56.5t61.5 23.5t61.5 -23.5t25.5 -56.5zM165 672q0 -33 -25.5 -56.5t-61.5 -23.5t-61.5 23.5t-25.5 56.5t25.5 56.5t61.5 23.5t61.5 -23.5t25.5 -56.5z" />
    <glyph glyph-name="copyright" unicode="&#xa9;" horiz-adv-x="846" 
d="M808 362q0 -80 -28 -148.5t-79 -118.5t-122 -79t-156 -29t-156 29t-122 79t-79 118.5t-28 148.5q0 79 28 148t79 119t122 79t156 29t156 -29t122 -79t79 -119t28 -148zM694 362q0 58 -19.5 108t-54.5 86.5t-85.5 57.5t-111.5 21q-62 0 -112 -21t-85 -57.5t-54.5 -86.5
t-19.5 -108t19.5 -108t54.5 -86.5t85 -57.5t112 -21q61 0 111.5 21t85.5 57.5t54.5 86.5t19.5 108zM543 189q-17 -11 -44.5 -18t-58.5 -7q-39 0 -73 12.5t-59 38t-39.5 63t-14.5 88.5t14.5 88.5t39.5 62t59 37t73 12.5q31 0 58.5 -7t44.5 -18l-40 -82q-23 15 -52 15
q-30 0 -52.5 -25.5t-22.5 -81.5t22.5 -81.5t52.5 -25.5q29 0 52 15z" />
    <glyph glyph-name="ordfeminine" unicode="&#xaa;" horiz-adv-x="464" 
d="M305 333l-18 67h-110l-18 -67h-159l140 391h184l140 -391h-159zM242 583q-6 23 -9 46h-2q-1 -6 -3 -19t-6 -27l-26 -99h72z" />
    <glyph glyph-name="guillemotleft" unicode="&#xab;" horiz-adv-x="630" 
d="M482 41l-192 264l192 264l110 -81l-132 -183l132 -183zM216 41l-192 264l192 264l110 -81l-132 -183l132 -183z" />
    <glyph glyph-name="logicalnot" unicode="&#xac;" horiz-adv-x="530" 
d="M322 91v161h-272v146h430v-307h-158z" />
    <glyph glyph-name="uni00AD" unicode="&#xad;" horiz-adv-x="388" 
d="M44 245v160h300v-160h-300z" />
    <glyph glyph-name="registered" unicode="&#xae;" horiz-adv-x="638" 
d="M604 459q0 -59 -21 -109.5t-58.5 -88t-90 -59t-115.5 -21.5t-115.5 21.5t-90 59t-58.5 88t-21 109.5t21 109.5t58.5 88t90 59t115.5 21.5t115.5 -21.5t90 -59t58.5 -88t21 -109.5zM520 459q0 43 -14.5 80t-40.5 64t-63.5 42.5t-82.5 15.5t-82.5 -15.5t-63.5 -42.5
t-40.5 -64t-14.5 -80t14.5 -80t40.5 -64t63.5 -42.5t82.5 -15.5t82.5 15.5t63.5 42.5t40.5 64t14.5 80zM364 321l-28 83q-8 23 -28 23h-16v-106h-84v278q43 16 101 16q63 0 95.5 -24t32.5 -69q0 -26 -15 -43.5t-33 -25.5v-2q23 -12 32 -38l33 -92h-90zM352 517q0 38 -40 38
h-11q-5 0 -9 -1v-71h23q37 0 37 34z" />
    <glyph glyph-name="macron" unicode="&#xaf;" horiz-adv-x="380" 
d="M30 614v110h320v-110h-320z" />
    <glyph glyph-name="degree" unicode="&#xb0;" horiz-adv-x="486" 
d="M452 534q0 -42 -16 -79t-44 -64.5t-66 -43.5t-83 -16t-83 16t-66 43.5t-44 64.5t-16 79t16 79t44 64.5t66 43.5t83 16t83 -16t66 -43.5t44 -64.5t16 -79zM317 534q0 31 -21.5 53t-52.5 22t-52.5 -22t-21.5 -53t21.5 -53t52.5 -22t52.5 22t21.5 53z" />
    <glyph glyph-name="plusminus" unicode="&#xb1;" horiz-adv-x="530" 
d="M342 327v-138h-154v138h-138v131h138v138h154v-138h138v-131h-138zM50 0v131h430v-131h-430z" />
    <glyph glyph-name="twosuperior" unicode="&#xb2;" 
d="M8 500l182 241q8 11 13.5 23t5.5 26q0 20 -15 34.5t-44 14.5q-22 0 -46 -5t-45 -13l-30 88q29 11 63 17t68 6q84 0 126.5 -36t42.5 -99q0 -32 -15 -58.5t-31 -45.5l-88 -101h141v-92h-328z" />
    <glyph glyph-name="threesuperior" unicode="&#xb3;" 
d="M330 624q0 -60 -44.5 -96t-127.5 -36q-37 0 -74 6t-66 17l35 88q43 -16 104 -16q29 0 42.5 10.5t13.5 27.5q0 22 -31 35t-77 13v81q51 3 74.5 17.5t23.5 34.5q0 14 -12 23.5t-37 9.5q-22 0 -47.5 -5t-46.5 -13l-31 88q32 11 68.5 17t74.5 6q77 0 112 -32t35 -84
q0 -27 -16 -51t-42 -38v-2q32 -14 50.5 -39.5t18.5 -61.5z" />
    <glyph glyph-name="acute" unicode="&#xb4;" horiz-adv-x="380" 
d="M228 600h-128l67 132q21 21 48.5 29.5t53.5 8.5q27 0 48.5 -10.5t26.5 -27.5z" />
    <glyph glyph-name="mu" unicode="&#xb5;" horiz-adv-x="806" 
d="M605 0l-24 278q-2 26 -3 46.5t-2 34.5h-2q-3 -16 -6.5 -35.5t-11.5 -45.5l-79 -278h-148l-79 278q-7 25 -11 44.5t-7 36.5h-2q-1 -14 -2 -35.5t-3 -45.5l-24 -278h-181l71 539h230l66 -238q5 -20 9 -41t6 -32h2l6 33q4 22 9 40l66 238h230l71 -539h-181z" />
    <glyph glyph-name="paragraph" unicode="&#xb6;" horiz-adv-x="630" 
d="M438 -215v815q-16 4 -40.5 6t-49.5 2v-823h-132v477q-82 19 -132 79t-50 150q0 63 22 109.5t61.5 77t93.5 45t118 14.5q81 0 142 -12t99 -28v-912h-132z" />
    <glyph glyph-name="periodcentered" unicode="&#xb7;" horiz-adv-x="292" 
d="M262 325q0 -24 -9 -45t-25 -37t-37 -25t-45 -9t-45 9t-37 25t-25 37t-9 45t9 45t25 37t37 25t45 9t45 -9t37 -25t25 -37t9 -45z" />
    <glyph glyph-name="cedilla" unicode="&#xb8;" horiz-adv-x="380" 
d="M344 -127q0 -49 -55.5 -73.5t-152.5 -24.5q-23 0 -46.5 1t-49.5 4l36 67q28 -3 50 -3q42 0 63.5 8.5t21.5 20.5q0 21 -53 21q-23 0 -59 -3l31 59q37 3 67 3q41 0 69 -5.5t45.5 -16t25 -25t7.5 -33.5z" />
    <glyph glyph-name="onesuperior" unicode="&#xb9;" 
d="M174 500v302q-20 -9 -49.5 -16t-53.5 -9l-17 85q44 6 84.5 23t60.5 39h91v-424h-116z" />
    <glyph glyph-name="ordmasculine" unicode="&#xba;" horiz-adv-x="468" 
d="M438 528q0 -45 -13.5 -83t-40 -65.5t-64.5 -43.5t-86 -16t-86 16t-64.5 43.5t-40 65.5t-13.5 83t13.5 82.5t40 65.5t64.5 43.5t86 15.5t86 -15.5t64.5 -43.5t40 -65.5t13.5 -82.5zM287 529q0 50 -13.5 73t-39.5 23t-39.5 -23t-13.5 -73t13.5 -73t39.5 -23t39.5 23
t13.5 73z" />
    <glyph glyph-name="guillemotright" unicode="&#xbb;" horiz-adv-x="630" 
d="M414 41l-110 81l132 183l-132 183l110 81l192 -264zM148 41l-110 81l132 183l-132 183l110 81l192 -264z" />
    <glyph glyph-name="onequarter" unicode="&#xbc;" horiz-adv-x="880" 
d="M805 99v-99h-105v99h-182v79l163 246h124v-246h37v-79h-37zM296 -20l-88 47l380 717l88 -47zM140 300v302q-20 -9 -49.5 -16t-53.5 -9l-17 85q44 6 84.5 23t60.5 39h91v-424h-116zM704 326q-4 -8 -10.5 -21.5t-15.5 -27.5l-64 -99h90v91q0 14 0.5 31.5t1.5 25.5h-2z" />
    <glyph glyph-name="onehalf" unicode="&#xbd;" horiz-adv-x="880" 
d="M518 0l182 241q8 11 13.5 23t5.5 26q0 20 -15 34.5t-44 14.5q-22 0 -46 -5t-45 -13l-30 88q29 11 63 17t68 6q84 0 126.5 -36t42.5 -99q0 -32 -15 -58.5t-31 -45.5l-88 -101h141v-92h-328zM274 -20l-88 47l380 717l88 -47zM140 300v302q-20 -9 -49.5 -16t-53.5 -9l-17 85
q44 6 84.5 23t60.5 39h91v-424h-116z" />
    <glyph glyph-name="threequarters" unicode="&#xbe;" horiz-adv-x="880" 
d="M312 -20l-88 47l380 717l88 -47zM332 424q0 -60 -44.5 -96t-127.5 -36q-37 0 -74 6t-66 17l35 88q43 -16 104 -16q29 0 42.5 10.5t13.5 27.5q0 22 -31 35t-77 13v81q51 3 74.5 17.5t23.5 34.5q0 14 -12 23.5t-37 9.5q-22 0 -47.5 -5t-46.5 -13l-31 88q32 11 68.5 17
t74.5 6q77 0 112 -32t35 -84q0 -27 -16 -51t-42 -38v-2q32 -14 50.5 -39.5t18.5 -61.5zM805 99v-99h-105v99h-182v79l163 246h124v-246h37v-79h-37zM704 326q-4 -8 -10.5 -21.5t-15.5 -27.5l-64 -99h90v91q0 14 0.5 31.5t1.5 25.5h-2z" />
    <glyph glyph-name="questiondown" unicode="&#xbf;" horiz-adv-x="526" 
d="M396 404q0 -24 -9 -45t-25 -37t-37 -25t-45 -9t-45 9t-37 25t-25 37t-9 45t9 45t25 37t37 25t45 9t45 -9t37 -25t25 -37t9 -45zM506 -188q-44 -18 -100 -29t-114 -11q-127 0 -194.5 47.5t-67.5 149.5q0 37 14 66.5t37 51.5t52 38t58 27l10 83h159l16 -175
q-30 -6 -55.5 -13.5t-45 -17t-30.5 -22t-11 -28.5q0 -26 19.5 -38.5t68.5 -12.5q31 0 65.5 9t59.5 20z" />
    <glyph glyph-name="Agrave" unicode="&#xc0;" horiz-adv-x="672" 
d="M471 0l-31 124h-208l-31 -124h-209l225 724h238l225 -724h-209zM354 466q-6 24 -10.5 49t-6.5 44h-2q-2 -19 -6.5 -44t-10.5 -49l-50 -198h136zM281 785l-116 132q5 17 26.5 27.5t48.5 10.5q26 0 53.5 -8.5t48.5 -29.5l67 -132h-128z" />
    <glyph glyph-name="Aacute" unicode="&#xc1;" horiz-adv-x="672" 
d="M471 0l-31 124h-208l-31 -124h-209l225 724h238l225 -724h-209zM354 466q-6 24 -10.5 49t-6.5 44h-2q-2 -19 -6.5 -44t-10.5 -49l-50 -198h136zM391 785h-128l67 132q21 21 48.5 29.5t53.5 8.5q27 0 48.5 -10.5t26.5 -27.5z" />
    <glyph glyph-name="Acircumflex" unicode="&#xc2;" horiz-adv-x="672" 
d="M471 0l-31 124h-208l-31 -124h-209l225 724h238l225 -724h-209zM354 466q-6 24 -10.5 49t-6.5 44h-2q-2 -19 -6.5 -44t-10.5 -49l-50 -198h136zM426 769l-90 76l-90 -76l-72 59l107 108q23 23 55 23t55 -23l107 -108z" />
    <glyph glyph-name="Atilde" unicode="&#xc3;" horiz-adv-x="672" 
d="M471 0l-31 124h-208l-31 -124h-209l225 724h238l225 -724h-209zM354 466q-6 24 -10.5 49t-6.5 44h-2q-2 -19 -6.5 -44t-10.5 -49l-50 -198h136zM498 900q-5 -54 -31 -86t-68 -32q-20 0 -34 6.5t-25.5 14t-23 14t-24.5 6.5q-37 0 -45 -49l-81 48q5 54 31 86t68 32
q19 0 33.5 -6.5t26 -14t22.5 -14t25 -6.5q37 0 45 49z" />
    <glyph glyph-name="Adieresis" unicode="&#xc4;" horiz-adv-x="672" 
d="M471 0l-31 124h-208l-31 -124h-209l225 724h238l225 -724h-209zM354 466q-6 24 -10.5 49t-6.5 44h-2q-2 -19 -6.5 -44t-10.5 -49l-50 -198h136zM311 857q0 -33 -25.5 -56.5t-61.5 -23.5t-61.5 23.5t-25.5 56.5t25.5 56.5t61.5 23.5t61.5 -23.5t25.5 -56.5zM535 857
q0 -33 -25.5 -56.5t-61.5 -23.5t-61.5 23.5t-25.5 56.5t25.5 56.5t61.5 23.5t61.5 -23.5t25.5 -56.5z" />
    <glyph glyph-name="Aring" unicode="&#xc5;" horiz-adv-x="672" 
d="M471 0l-31 124h-208l-31 -124h-209l225 724h238l225 -724h-209zM354 466q-6 24 -10.5 49t-6.5 44h-2q-2 -19 -6.5 -44t-10.5 -49l-50 -198h136zM452 874q0 -23 -9 -42t-24.5 -33.5t-36.5 -22.5t-46 -8t-46 8t-36.5 22.5t-24.5 33.5t-9 42q0 22 9 41.5t24.5 34t36.5 22.5
t46 8t46 -8t36.5 -22.5t24.5 -34t9 -41.5zM376 874q0 16 -11.5 27t-28.5 11t-28.5 -11t-11.5 -27t11.5 -27t28.5 -11t28.5 11t11.5 27z" />
    <glyph glyph-name="AE" unicode="&#xc6;" horiz-adv-x="848" 
d="M462 0l-16 124h-208l-46 -124h-212l313 724h479v-166h-210l22 -115h178v-162h-147l22 -115h179v-166h-354zM402 466q-4 28 -5 53.5t-1 39.5h-2q-2 -10 -9.5 -36.5t-18.5 -56.5l-75 -198h136z" />
    <glyph glyph-name="Ccedilla" unicode="&#xc7;" horiz-adv-x="506" 
d="M486 27q-27 -17 -68 -28.5t-92 -11.5q-62 0 -115.5 23.5t-92.5 70.5t-61.5 117t-22.5 164t22.5 164t61.5 117t92.5 70.5t115.5 23.5q48 0 90.5 -11.5t69.5 -28.5l-61 -159q-13 10 -31.5 17.5t-40.5 7.5q-55 0 -84 -53t-29 -146t29 -146t84 -53q22 0 40.5 7.5t31.5 17.5z
M414 -127q0 -49 -55.5 -73.5t-152.5 -24.5q-23 0 -46.5 1t-49.5 4l36 67q28 -3 50 -3q42 0 63.5 8.5t21.5 20.5q0 21 -53 21q-23 0 -59 -3l31 59q37 3 67 3q41 0 69 -5.5t45.5 -16t25 -25t7.5 -33.5z" />
    <glyph glyph-name="Egrave" unicode="&#xc8;" horiz-adv-x="489" 
d="M53 0v724h396v-166h-200v-115h176v-162h-176v-115h200v-166h-396zM200 785l-116 132q5 17 26.5 27.5t48.5 10.5q26 0 53.5 -8.5t48.5 -29.5l67 -132h-128z" />
    <glyph glyph-name="Eacute" unicode="&#xc9;" horiz-adv-x="489" 
d="M53 0v724h396v-166h-200v-115h176v-162h-176v-115h200v-166h-396zM290 785h-128l67 132q21 21 48.5 29.5t53.5 8.5q27 0 48.5 -10.5t26.5 -27.5z" />
    <glyph glyph-name="Ecircumflex" unicode="&#xca;" horiz-adv-x="489" 
d="M53 0v724h396v-166h-200v-115h176v-162h-176v-115h200v-166h-396zM332 769l-90 76l-90 -76l-72 59l107 108q23 23 55 23t55 -23l107 -108z" />
    <glyph glyph-name="Edieresis" unicode="&#xcb;" horiz-adv-x="489" 
d="M53 0v724h396v-166h-200v-115h176v-162h-176v-115h200v-166h-396zM227 857q0 -33 -25.5 -56.5t-61.5 -23.5t-61.5 23.5t-25.5 56.5t25.5 56.5t61.5 23.5t61.5 -23.5t25.5 -56.5zM450 857q0 -33 -25.5 -56.5t-61.5 -23.5t-61.5 23.5t-25.5 56.5t25.5 56.5t61.5 23.5
t61.5 -23.5t25.5 -56.5z" />
    <glyph glyph-name="Igrave" unicode="&#xcc;" horiz-adv-x="306" 
d="M53 0v724h200v-724h-200zM108 785l-116 132q5 17 26.5 27.5t48.5 10.5q26 0 53.5 -8.5t48.5 -29.5l67 -132h-128z" />
    <glyph glyph-name="Iacute" unicode="&#xcd;" horiz-adv-x="306" 
d="M53 0v724h200v-724h-200zM200 785h-128l67 132q21 21 48.5 29.5t53.5 8.5q27 0 48.5 -10.5t26.5 -27.5z" />
    <glyph glyph-name="Icircumflex" unicode="&#xce;" horiz-adv-x="306" 
d="M53 0v724h200v-724h-200zM244 769l-90 76l-90 -76l-72 59l107 108q23 23 55 23t55 -23l107 -108z" />
    <glyph glyph-name="Idieresis" unicode="&#xcf;" horiz-adv-x="306" 
d="M53 0v724h200v-724h-200zM129 857q0 -33 -25.5 -56.5t-61.5 -23.5t-61.5 23.5t-25.5 56.5t25.5 56.5t61.5 23.5t61.5 -23.5t25.5 -56.5zM352 857q0 -33 -25.5 -56.5t-61.5 -23.5t-61.5 23.5t-25.5 56.5t25.5 56.5t61.5 23.5t61.5 -23.5t25.5 -56.5z" />
    <glyph glyph-name="Eth" unicode="&#xd0;" horiz-adv-x="637" 
d="M603 362q0 -177 -80 -276t-248 -99q-64 0 -119.5 11.5t-92.5 28.5v270h-40v140h40v260q34 16 91.5 28t120.5 12q168 0 248 -99t80 -276zM407 362q0 111 -30.5 160.5t-88.5 49.5q-19 0 -29 -3v-132h67v-140h-67v-143q5 -1 12.5 -1.5t16.5 -0.5q58 0 88.5 49.5t30.5 160.5z
" />
    <glyph glyph-name="Ntilde" unicode="&#xd1;" horiz-adv-x="654" 
d="M446 0l-180 320q-18 32 -28.5 55.5t-15.5 34.5h-2q0 -8 1 -36.5t1 -63.5v-310h-169v724h161l174 -308q12 -21 24 -46.5t20 -43.5h2q-1 13 -1.5 40.5t-0.5 62.5v295h169v-724h-155zM482 900q-5 -54 -31 -86t-68 -32q-20 0 -34 6.5t-25.5 14t-23 14t-24.5 6.5
q-37 0 -45 -49l-81 48q5 54 31 86t68 32q19 0 33.5 -6.5t26 -14t22.5 -14t25 -6.5q37 0 45 49z" />
    <glyph glyph-name="Ograve" unicode="&#xd2;" horiz-adv-x="636" 
d="M602 362q0 -81 -17 -149.5t-51.5 -119t-88.5 -78.5t-127 -28q-74 0 -127.5 28t-88 78.5t-51.5 119t-17 149.5t17 149.5t51.5 119t88 78.5t127.5 28q73 0 127 -28t88.5 -78.5t51.5 -119t17 -149.5zM402 362q0 98 -21 148.5t-63 50.5t-63 -50.5t-21 -148.5t21 -148.5
t63 -50.5t63 50.5t21 148.5zM270 785l-116 132q5 17 26.5 27.5t48.5 10.5q26 0 53.5 -8.5t48.5 -29.5l67 -132h-128z" />
    <glyph glyph-name="Oacute" unicode="&#xd3;" horiz-adv-x="636" 
d="M602 362q0 -81 -17 -149.5t-51.5 -119t-88.5 -78.5t-127 -28q-74 0 -127.5 28t-88 78.5t-51.5 119t-17 149.5t17 149.5t51.5 119t88 78.5t127.5 28q73 0 127 -28t88.5 -78.5t51.5 -119t17 -149.5zM402 362q0 98 -21 148.5t-63 50.5t-63 -50.5t-21 -148.5t21 -148.5
t63 -50.5t63 50.5t21 148.5zM366 785h-128l67 132q21 21 48.5 29.5t53.5 8.5q27 0 48.5 -10.5t26.5 -27.5z" />
    <glyph glyph-name="Ocircumflex" unicode="&#xd4;" horiz-adv-x="636" 
d="M602 362q0 -81 -17 -149.5t-51.5 -119t-88.5 -78.5t-127 -28q-74 0 -127.5 28t-88 78.5t-51.5 119t-17 149.5t17 149.5t51.5 119t88 78.5t127.5 28q73 0 127 -28t88.5 -78.5t51.5 -119t17 -149.5zM402 362q0 98 -21 148.5t-63 50.5t-63 -50.5t-21 -148.5t21 -148.5
t63 -50.5t63 50.5t21 148.5zM408 769l-90 76l-90 -76l-72 59l107 108q23 23 55 23t55 -23l107 -108z" />
    <glyph glyph-name="Otilde" unicode="&#xd5;" horiz-adv-x="636" 
d="M602 362q0 -81 -17 -149.5t-51.5 -119t-88.5 -78.5t-127 -28q-74 0 -127.5 28t-88 78.5t-51.5 119t-17 149.5t17 149.5t51.5 119t88 78.5t127.5 28q73 0 127 -28t88.5 -78.5t51.5 -119t17 -149.5zM402 362q0 98 -21 148.5t-63 50.5t-63 -50.5t-21 -148.5t21 -148.5
t63 -50.5t63 50.5t21 148.5zM480 900q-5 -54 -31 -86t-68 -32q-20 0 -34 6.5t-25.5 14t-23 14t-24.5 6.5q-37 0 -45 -49l-81 48q5 54 31 86t68 32q19 0 33.5 -6.5t26 -14t22.5 -14t25 -6.5q37 0 45 49z" />
    <glyph glyph-name="Odieresis" unicode="&#xd6;" horiz-adv-x="636" 
d="M602 362q0 -81 -17 -149.5t-51.5 -119t-88.5 -78.5t-127 -28q-74 0 -127.5 28t-88 78.5t-51.5 119t-17 149.5t17 149.5t51.5 119t88 78.5t127.5 28q73 0 127 -28t88.5 -78.5t51.5 -119t17 -149.5zM402 362q0 98 -21 148.5t-63 50.5t-63 -50.5t-21 -148.5t21 -148.5
t63 -50.5t63 50.5t21 148.5zM293 857q0 -33 -25.5 -56.5t-61.5 -23.5t-61.5 23.5t-25.5 56.5t25.5 56.5t61.5 23.5t61.5 -23.5t25.5 -56.5zM517 857q0 -33 -25.5 -56.5t-61.5 -23.5t-61.5 23.5t-25.5 56.5t25.5 56.5t61.5 23.5t61.5 -23.5t25.5 -56.5z" />
    <glyph glyph-name="multiply" unicode="&#xd7;" horiz-adv-x="530" 
d="M387 98l-122 122l-122 -122l-105 105l122 122l-122 122l105 105l122 -122l122 122l105 -105l-122 -122l122 -122z" />
    <glyph glyph-name="Oslash" unicode="&#xd8;" horiz-adv-x="636" 
d="M602 362q0 -81 -17 -149.5t-51.5 -119t-88.5 -78.5t-127 -28q-87 0 -148 43l-52 -84l-83 54l64 104q-33 51 -49 116.5t-16 141.5q0 81 17 149.5t51.5 119t88 78.5t127.5 28q87 0 148 -43l52 84l83 -54l-64 -104q33 -51 49 -116.5t16 -141.5zM377 552q-24 27 -59 27
q-52 0 -77.5 -56t-25.5 -161q0 -37 3 -67zM421 362q0 37 -3 67l-159 -257q24 -27 59 -27q52 0 77.5 56t25.5 161z" />
    <glyph glyph-name="Ugrave" unicode="&#xd9;" horiz-adv-x="628" 
d="M575 222q0 -57 -19.5 -100t-54.5 -72.5t-83 -44.5t-104 -15t-104 15t-83 44.5t-54.5 72.5t-19.5 100v502h200v-504q0 -29 17.5 -44.5t43.5 -15.5t43.5 15.5t17.5 44.5v504h200v-502zM270 785l-116 132q5 17 26.5 27.5t48.5 10.5q26 0 53.5 -8.5t48.5 -29.5l67 -132h-128z
" />
    <glyph glyph-name="Uacute" unicode="&#xda;" horiz-adv-x="628" 
d="M575 222q0 -57 -19.5 -100t-54.5 -72.5t-83 -44.5t-104 -15t-104 15t-83 44.5t-54.5 72.5t-19.5 100v502h200v-504q0 -29 17.5 -44.5t43.5 -15.5t43.5 15.5t17.5 44.5v504h200v-502zM358 785h-128l67 132q21 21 48.5 29.5t53.5 8.5q27 0 48.5 -10.5t26.5 -27.5z" />
    <glyph glyph-name="Ucircumflex" unicode="&#xdb;" horiz-adv-x="628" 
d="M575 222q0 -57 -19.5 -100t-54.5 -72.5t-83 -44.5t-104 -15t-104 15t-83 44.5t-54.5 72.5t-19.5 100v502h200v-504q0 -29 17.5 -44.5t43.5 -15.5t43.5 15.5t17.5 44.5v504h200v-502zM404 769l-90 76l-90 -76l-72 59l107 108q23 23 55 23t55 -23l107 -108z" />
    <glyph glyph-name="Udieresis" unicode="&#xdc;" horiz-adv-x="628" 
d="M575 222q0 -57 -19.5 -100t-54.5 -72.5t-83 -44.5t-104 -15t-104 15t-83 44.5t-54.5 72.5t-19.5 100v502h200v-504q0 -29 17.5 -44.5t43.5 -15.5t43.5 15.5t17.5 44.5v504h200v-502zM290 857q0 -33 -25.5 -56.5t-61.5 -23.5t-61.5 23.5t-25.5 56.5t25.5 56.5t61.5 23.5
t61.5 -23.5t25.5 -56.5zM512 857q0 -33 -25.5 -56.5t-61.5 -23.5t-61.5 23.5t-25.5 56.5t25.5 56.5t61.5 23.5t61.5 -23.5t25.5 -56.5z" />
    <glyph glyph-name="Yacute" unicode="&#xdd;" horiz-adv-x="576" 
d="M388 278v-278h-200v278l-198 446h214l83 -245h2l83 245h214zM336 785h-128l67 132q21 21 48.5 29.5t53.5 8.5q27 0 48.5 -10.5t26.5 -27.5z" />
    <glyph glyph-name="Thorn" unicode="&#xde;" horiz-adv-x="615" 
d="M585 363q0 -51 -17.5 -94.5t-53.5 -75.5t-90.5 -50t-127.5 -18q-13 0 -26 0.5t-21 2.5v-128h-196v724h196v-120q16 3 35 3q151 0 226 -65.5t75 -178.5zM389 364q0 50 -25.5 72t-77.5 22q-11 0 -20.5 -1t-16.5 -3v-178q12 -3 37 -3q103 0 103 91z" />
    <glyph glyph-name="germandbls" unicode="&#xdf;" horiz-adv-x="938" 
d="M448 167q0 -83 -58.5 -131.5t-181.5 -48.5q-54 0 -100.5 10t-89.5 30l60 146q27 -15 62 -25t62 -10q20 0 31.5 8.5t11.5 21.5q0 17 -15.5 26t-38.5 17t-50.5 19t-51.5 29.5t-40.5 47.5t-16.5 72q0 81 57.5 127t161.5 46q50 0 96.5 -10t87.5 -30l-56 -129q-23 13 -49 21
t-52 8q-22 0 -34.5 -8.5t-12.5 -22.5q0 -11 6.5 -18.5t16 -13.5t20 -9.5t18.5 -6.5q23 -8 50.5 -19t51 -29.5t39 -46.5t15.5 -71zM912 167q0 -83 -58.5 -131.5t-181.5 -48.5q-54 0 -100.5 10t-89.5 30l60 146q27 -15 62 -25t62 -10q20 0 31.5 8.5t11.5 21.5q0 17 -15.5 26
t-38.5 17t-50.5 19t-51.5 29.5t-40.5 47.5t-16.5 72q0 81 57.5 127t161.5 46q50 0 96.5 -10t87.5 -30l-56 -129q-23 13 -49 21t-52 8q-22 0 -34.5 -8.5t-12.5 -22.5q0 -11 6.5 -18.5t16 -13.5t20 -9.5t18.5 -6.5q23 -8 50.5 -19t51 -29.5t39 -46.5t15.5 -71z" />
    <glyph glyph-name="agrave" unicode="&#xe0;" horiz-adv-x="598" 
d="M399 0l-23 92h-154l-23 -92h-207l193 539h228l193 -539h-207zM312 343q-4 15 -7 31.5t-5 30.5h-2q-2 -14 -5 -30.5t-7 -31.5l-37 -144h100zM252 600l-116 132q5 17 26.5 27.5t48.5 10.5q26 0 53.5 -8.5t48.5 -29.5l67 -132h-128z" />
    <glyph glyph-name="aacute" unicode="&#xe1;" horiz-adv-x="598" 
d="M399 0l-23 92h-154l-23 -92h-207l193 539h228l193 -539h-207zM312 343q-4 15 -7 31.5t-5 30.5h-2q-2 -14 -5 -30.5t-7 -31.5l-37 -144h100zM346 600h-128l67 132q21 21 48.5 29.5t53.5 8.5q27 0 48.5 -10.5t26.5 -27.5z" />
    <glyph glyph-name="acircumflex" unicode="&#xe2;" horiz-adv-x="598" 
d="M399 0l-23 92h-154l-23 -92h-207l193 539h228l193 -539h-207zM312 343q-4 15 -7 31.5t-5 30.5h-2q-2 -14 -5 -30.5t-7 -31.5l-37 -144h100zM389 584l-90 76l-90 -76l-72 59l107 108q23 23 55 23t55 -23l107 -108z" />
    <glyph glyph-name="atilde" unicode="&#xe3;" horiz-adv-x="598" 
d="M399 0l-23 92h-154l-23 -92h-207l193 539h228l193 -539h-207zM312 343q-4 15 -7 31.5t-5 30.5h-2q-2 -14 -5 -30.5t-7 -31.5l-37 -144h100zM460 715q-5 -54 -31 -86t-68 -32q-20 0 -34 6.5t-25.5 14t-23 14t-24.5 6.5q-37 0 -45 -49l-81 48q5 54 31 86t68 32
q19 0 33.5 -6.5t26 -14t22.5 -14t25 -6.5q37 0 45 49z" />
    <glyph glyph-name="adieresis" unicode="&#xe4;" horiz-adv-x="598" 
d="M399 0l-23 92h-154l-23 -92h-207l193 539h228l193 -539h-207zM312 343q-4 15 -7 31.5t-5 30.5h-2q-2 -14 -5 -30.5t-7 -31.5l-37 -144h100zM275 672q0 -33 -25.5 -56.5t-61.5 -23.5t-61.5 23.5t-25.5 56.5t25.5 56.5t61.5 23.5t61.5 -23.5t25.5 -56.5zM498 672
q0 -33 -25.5 -56.5t-61.5 -23.5t-61.5 23.5t-25.5 56.5t25.5 56.5t61.5 23.5t61.5 -23.5t25.5 -56.5z" />
    <glyph glyph-name="aring" unicode="&#xe5;" horiz-adv-x="598" 
d="M399 0l-23 92h-154l-23 -92h-207l193 539h228l193 -539h-207zM312 343q-4 15 -7 31.5t-5 30.5h-2q-2 -14 -5 -30.5t-7 -31.5l-37 -144h100zM415 692q0 -23 -9 -42t-24.5 -33.5t-36.5 -22.5t-46 -8t-46 8t-36.5 22.5t-24.5 33.5t-9 42q0 22 9 41.5t24.5 34t36.5 22.5t46 8
t46 -8t36.5 -22.5t24.5 -34t9 -41.5zM339 692q0 16 -11.5 27t-28.5 11t-28.5 -11t-11.5 -27t11.5 -27t28.5 -11t28.5 11t11.5 27z" />
    <glyph glyph-name="ae" unicode="&#xe6;" horiz-adv-x="747" 
d="M386 0l-9 92h-154l-37 -92h-210l274 539h439v-127h-185l17 -80h156v-124h-130l17 -81h155v-127h-333zM350 343q-2 12 -2 32v30h-2q-3 -9 -8 -24.5t-14 -37.5l-58 -144h100z" />
    <glyph glyph-name="ccedilla" unicode="&#xe7;" horiz-adv-x="454" 
d="M436 24q-34 -20 -70.5 -28.5t-83.5 -8.5q-52 0 -97.5 18t-80 54t-54.5 89t-20 122t20 122t54.5 88.5t80 53.5t97.5 18q47 0 83.5 -8.5t70.5 -28.5l-59 -138q-25 18 -63 18q-42 0 -62.5 -35t-20.5 -88t22 -88t61 -35q38 0 63 18zM382 -127q0 -49 -55.5 -73.5t-152.5 -24.5
q-23 0 -46.5 1t-49.5 4l36 67q28 -3 50 -3q42 0 63.5 8.5t21.5 20.5q0 21 -53 21q-23 0 -59 -3l31 59q37 3 67 3q41 0 69 -5.5t45.5 -16t25 -25t7.5 -33.5z" />
    <glyph glyph-name="egrave" unicode="&#xe8;" horiz-adv-x="430" 
d="M47 0v539h348v-127h-158v-80h141v-124h-141v-81h158v-127h-348zM174 600l-116 132q5 17 26.5 27.5t48.5 10.5q26 0 53.5 -8.5t48.5 -29.5l67 -132h-128z" />
    <glyph glyph-name="eacute" unicode="&#xe9;" horiz-adv-x="430" 
d="M47 0v539h348v-127h-158v-80h141v-124h-141v-81h158v-127h-348zM244 600h-128l67 132q21 21 48.5 29.5t53.5 8.5q27 0 48.5 -10.5t26.5 -27.5z" />
    <glyph glyph-name="ecircumflex" unicode="&#xea;" horiz-adv-x="430" 
d="M47 0v539h348v-127h-158v-80h141v-124h-141v-81h158v-127h-348zM310 584l-90 76l-90 -76l-72 59l107 108q23 23 55 23t55 -23l107 -108z" />
    <glyph glyph-name="edieresis" unicode="&#xeb;" horiz-adv-x="430" 
d="M47 0v539h348v-127h-158v-80h141v-124h-141v-81h158v-127h-348zM197 672q0 -33 -25.5 -56.5t-61.5 -23.5t-61.5 23.5t-25.5 56.5t25.5 56.5t61.5 23.5t61.5 -23.5t25.5 -56.5zM420 672q0 -33 -25.5 -56.5t-61.5 -23.5t-61.5 23.5t-25.5 56.5t25.5 56.5t61.5 23.5
t61.5 -23.5t25.5 -56.5z" />
    <glyph glyph-name="igrave" unicode="&#xec;" horiz-adv-x="288" 
d="M47 0v539h194v-539h-194zM101 600l-116 132q5 17 26.5 27.5t48.5 10.5q26 0 53.5 -8.5t48.5 -29.5l67 -132h-128z" />
    <glyph glyph-name="iacute" unicode="&#xed;" horiz-adv-x="288" 
d="M47 0v539h194v-539h-194zM189 600h-128l67 132q21 21 48.5 29.5t53.5 8.5q27 0 48.5 -10.5t26.5 -27.5z" />
    <glyph glyph-name="icircumflex" unicode="&#xee;" horiz-adv-x="288" 
d="M47 0v539h194v-539h-194zM235 584l-90 76l-90 -76l-72 59l107 108q23 23 55 23t55 -23l107 -108z" />
    <glyph glyph-name="idieresis" unicode="&#xef;" horiz-adv-x="288" 
d="M47 0v539h194v-539h-194zM120 672q0 -33 -25.5 -56.5t-61.5 -23.5t-61.5 23.5t-25.5 56.5t25.5 56.5t61.5 23.5t61.5 -23.5t25.5 -56.5zM343 672q0 -33 -25.5 -56.5t-61.5 -23.5t-61.5 23.5t-25.5 56.5t25.5 56.5t61.5 23.5t61.5 -23.5t25.5 -56.5z" />
    <glyph glyph-name="eth" unicode="&#xf0;" horiz-adv-x="587" 
d="M557 270q0 -137 -75.5 -210t-211.5 -73q-59 0 -113.5 10t-99.5 30v191h-36v106h36v188q45 20 99.5 30t113.5 10q136 0 211.5 -72.5t75.5 -209.5zM363 270q0 83 -24.5 117t-66.5 34h-14q-6 0 -11 -2v-95h55v-106h-55v-98q10 -2 25 -2q42 0 66.5 34.5t24.5 117.5z" />
    <glyph glyph-name="ntilde" unicode="&#xf1;" horiz-adv-x="612" 
d="M380 0l-134 239q-11 19 -19.5 37.5t-13.5 29.5h-2q1 -20 1.5 -35t0.5 -40v-231h-166v539h190l129 -229q9 -15 17.5 -33t15.5 -34h2q-1 15 -1.5 32t-0.5 45v219h166v-539h-185zM463 715q-5 -54 -31 -86t-68 -32q-20 0 -34 6.5t-25.5 14t-23 14t-24.5 6.5q-37 0 -45 -49
l-81 48q5 54 31 86t68 32q19 0 33.5 -6.5t26 -14t22.5 -14t25 -6.5q37 0 45 49z" />
    <glyph glyph-name="ograve" unicode="&#xf2;" horiz-adv-x="582" 
d="M552 270q0 -61 -17.5 -112.5t-51 -89.5t-82 -59.5t-110.5 -21.5t-110.5 21.5t-82 59.5t-51 89.5t-17.5 112.5t17.5 112.5t51 89t82 59t110.5 21.5t110.5 -21.5t82 -59t51 -89t17.5 -112.5zM358 272q0 68 -17.5 99t-49.5 31t-49.5 -31t-17.5 -99t17.5 -99t49.5 -31
t49.5 31t17.5 99zM242 600l-116 132q5 17 26.5 27.5t48.5 10.5q26 0 53.5 -8.5t48.5 -29.5l67 -132h-128z" />
    <glyph glyph-name="oacute" unicode="&#xf3;" horiz-adv-x="582" 
d="M552 270q0 -61 -17.5 -112.5t-51 -89.5t-82 -59.5t-110.5 -21.5t-110.5 21.5t-82 59.5t-51 89.5t-17.5 112.5t17.5 112.5t51 89t82 59t110.5 21.5t110.5 -21.5t82 -59t51 -89t17.5 -112.5zM358 272q0 68 -17.5 99t-49.5 31t-49.5 -31t-17.5 -99t17.5 -99t49.5 -31
t49.5 31t17.5 99zM338 600h-128l67 132q21 21 48.5 29.5t53.5 8.5q27 0 48.5 -10.5t26.5 -27.5z" />
    <glyph glyph-name="ocircumflex" unicode="&#xf4;" horiz-adv-x="582" 
d="M552 270q0 -61 -17.5 -112.5t-51 -89.5t-82 -59.5t-110.5 -21.5t-110.5 21.5t-82 59.5t-51 89.5t-17.5 112.5t17.5 112.5t51 89t82 59t110.5 21.5t110.5 -21.5t82 -59t51 -89t17.5 -112.5zM358 272q0 68 -17.5 99t-49.5 31t-49.5 -31t-17.5 -99t17.5 -99t49.5 -31
t49.5 31t17.5 99zM381 584l-90 76l-90 -76l-72 59l107 108q23 23 55 23t55 -23l107 -108z" />
    <glyph glyph-name="otilde" unicode="&#xf5;" horiz-adv-x="582" 
d="M552 270q0 -61 -17.5 -112.5t-51 -89.5t-82 -59.5t-110.5 -21.5t-110.5 21.5t-82 59.5t-51 89.5t-17.5 112.5t17.5 112.5t51 89t82 59t110.5 21.5t110.5 -21.5t82 -59t51 -89t17.5 -112.5zM358 272q0 68 -17.5 99t-49.5 31t-49.5 -31t-17.5 -99t17.5 -99t49.5 -31
t49.5 31t17.5 99zM451 715q-5 -54 -31 -86t-68 -32q-20 0 -34 6.5t-25.5 14t-23 14t-24.5 6.5q-37 0 -45 -49l-81 48q5 54 31 86t68 32q19 0 33.5 -6.5t26 -14t22.5 -14t25 -6.5q37 0 45 49z" />
    <glyph glyph-name="odieresis" unicode="&#xf6;" horiz-adv-x="582" 
d="M552 270q0 -61 -17.5 -112.5t-51 -89.5t-82 -59.5t-110.5 -21.5t-110.5 21.5t-82 59.5t-51 89.5t-17.5 112.5t17.5 112.5t51 89t82 59t110.5 21.5t110.5 -21.5t82 -59t51 -89t17.5 -112.5zM358 272q0 68 -17.5 99t-49.5 31t-49.5 -31t-17.5 -99t17.5 -99t49.5 -31
t49.5 31t17.5 99zM267 672q0 -33 -25.5 -56.5t-61.5 -23.5t-61.5 23.5t-25.5 56.5t25.5 56.5t61.5 23.5t61.5 -23.5t25.5 -56.5zM490 672q0 -33 -25.5 -56.5t-61.5 -23.5t-61.5 23.5t-25.5 56.5t25.5 56.5t61.5 23.5t61.5 -23.5t25.5 -56.5z" />
    <glyph glyph-name="divide" unicode="&#xf7;" horiz-adv-x="530" 
d="M355 521q0 -38 -26 -64t-64 -26t-64 26t-26 64t26 64t64 26t64 -26t26 -64zM50 261v128h430v-128h-430zM355 129q0 -38 -26 -64t-64 -26t-64 26t-26 64t26 64t64 26t64 -26t26 -64z" />
    <glyph glyph-name="oslash" unicode="&#xf8;" horiz-adv-x="582" 
d="M552 270q0 -61 -17.5 -112.5t-51 -89.5t-82 -59.5t-110.5 -21.5q-38 0 -70.5 8.5t-60.5 24.5l-61 -84l-68 53l63 86q-32 38 -48 88t-16 107q0 61 17.5 112.5t51 89t82 59t110.5 21.5q74 0 130 -32l62 84l68 -53l-64 -86q32 -38 48.5 -88t16.5 -107zM335 403
q-19 14 -44 14q-45 0 -67 -40.5t-22 -104.5q0 -25 3 -46zM380 272q0 23 -3 43l-128 -175q19 -13 42 -13q45 0 67 40.5t22 104.5z" />
    <glyph glyph-name="ugrave" unicode="&#xf9;" horiz-adv-x="578" 
d="M531 184q0 -92 -63.5 -144.5t-178.5 -52.5t-178.5 52.5t-63.5 144.5v355h194v-357q0 -21 14.5 -33t33.5 -12t33.5 12t14.5 33v357h194v-355zM242 600l-116 132q5 17 26.5 27.5t48.5 10.5q26 0 53.5 -8.5t48.5 -29.5l67 -132h-128z" />
    <glyph glyph-name="uacute" unicode="&#xfa;" horiz-adv-x="578" 
d="M531 184q0 -92 -63.5 -144.5t-178.5 -52.5t-178.5 52.5t-63.5 144.5v355h194v-357q0 -21 14.5 -33t33.5 -12t33.5 12t14.5 33v357h194v-355zM336 600h-128l67 132q21 21 48.5 29.5t53.5 8.5q27 0 48.5 -10.5t26.5 -27.5z" />
    <glyph glyph-name="ucircumflex" unicode="&#xfb;" horiz-adv-x="578" 
d="M531 184q0 -92 -63.5 -144.5t-178.5 -52.5t-178.5 52.5t-63.5 144.5v355h194v-357q0 -21 14.5 -33t33.5 -12t33.5 12t14.5 33v357h194v-355zM379 584l-90 76l-90 -76l-72 59l107 108q23 23 55 23t55 -23l107 -108z" />
    <glyph glyph-name="udieresis" unicode="&#xfc;" horiz-adv-x="578" 
d="M531 184q0 -92 -63.5 -144.5t-178.5 -52.5t-178.5 52.5t-63.5 144.5v355h194v-357q0 -21 14.5 -33t33.5 -12t33.5 12t14.5 33v357h194v-355zM265 672q0 -33 -25.5 -56.5t-61.5 -23.5t-61.5 23.5t-25.5 56.5t25.5 56.5t61.5 23.5t61.5 -23.5t25.5 -56.5zM488 672
q0 -33 -25.5 -56.5t-61.5 -23.5t-61.5 23.5t-25.5 56.5t25.5 56.5t61.5 23.5t61.5 -23.5t25.5 -56.5z" />
    <glyph glyph-name="yacute" unicode="&#xfd;" horiz-adv-x="568" 
d="M381 195v-195h-194v195l-197 344h222l71 -176h2l71 176h222zM336 600h-128l67 132q21 21 48.5 29.5t53.5 8.5q27 0 48.5 -10.5t26.5 -27.5z" />
    <glyph glyph-name="thorn" unicode="&#xfe;" horiz-adv-x="558" 
d="M532 271q0 -88 -63.5 -139t-190.5 -51q-13 0 -24 1t-17 2v-84h-190v539h190v-77q6 1 16.5 1.5t22.5 0.5q134 0 195 -50.5t61 -142.5zM342 275q0 69 -74 69q-9 0 -17.5 -0.5t-13.5 -2.5v-132q5 -1 13 -2t18 -1q74 0 74 69z" />
    <glyph glyph-name="ydieresis" unicode="&#xff;" horiz-adv-x="568" 
d="M381 195v-195h-194v195l-197 344h222l71 -176h2l71 176h222zM260 672q0 -33 -25.5 -56.5t-61.5 -23.5t-61.5 23.5t-25.5 56.5t25.5 56.5t61.5 23.5t61.5 -23.5t25.5 -56.5zM483 672q0 -33 -25.5 -56.5t-61.5 -23.5t-61.5 23.5t-25.5 56.5t25.5 56.5t61.5 23.5t61.5 -23.5
t25.5 -56.5z" />
    <glyph glyph-name="Amacron" unicode="&#x100;" horiz-adv-x="672" 
d="M471 0l-31 124h-208l-31 -124h-209l225 724h238l225 -724h-209zM354 466q-6 24 -10.5 49t-6.5 44h-2q-2 -19 -6.5 -44t-10.5 -49l-50 -198h136zM176 799v110h320v-110h-320z" />
    <glyph glyph-name="amacron" unicode="&#x101;" horiz-adv-x="598" 
d="M399 0l-23 92h-154l-23 -92h-207l193 539h228l193 -539h-207zM312 343q-4 15 -7 31.5t-5 30.5h-2q-2 -14 -5 -30.5t-7 -31.5l-37 -144h100zM139 614v110h320v-110h-320z" />
    <glyph glyph-name="Abreve" unicode="&#x102;" horiz-adv-x="672" 
d="M471 0l-31 124h-208l-31 -124h-209l225 724h238l225 -724h-209zM354 466q-6 24 -10.5 49t-6.5 44h-2q-2 -19 -6.5 -44t-10.5 -49l-50 -198h136zM500 944q-4 -77 -43.5 -123.5t-120.5 -46.5t-120.5 46.5t-43.5 123.5l103 17q2 -38 16 -58.5t45 -20.5t45 20.5t16 58.5z" />
    <glyph glyph-name="abreve" unicode="&#x103;" horiz-adv-x="598" 
d="M399 0l-23 92h-154l-23 -92h-207l193 539h228l193 -539h-207zM312 343q-4 15 -7 31.5t-5 30.5h-2q-2 -14 -5 -30.5t-7 -31.5l-37 -144h100zM463 759q-4 -77 -43.5 -123.5t-120.5 -46.5t-120.5 46.5t-43.5 123.5l103 17q2 -38 16 -58.5t45 -20.5t45 20.5t16 58.5z" />
    <glyph glyph-name="Aogonek" unicode="&#x104;" horiz-adv-x="672" 
d="M580 0q-34 -21 -50 -44.5t-16 -42.5q0 -14 9.5 -23t28.5 -9q11 0 24 3.5t25 8.5l30 -79q-23 -15 -54.5 -24t-63.5 -9q-60 0 -95 26.5t-35 68.5q0 28 20 61.5t68 62.5l-31 124h-208l-31 -124h-209l225 724h238l225 -724h-100zM354 466q-6 25 -10.5 52t-6.5 41h-2
q-2 -13 -5.5 -38.5t-11.5 -54.5l-50 -198h136z" />
    <glyph glyph-name="aogonek" unicode="&#x105;" horiz-adv-x="598" 
d="M508 0q-34 -21 -50 -44.5t-16 -42.5q0 -14 9.5 -23t28.5 -9q11 0 24 3.5t25 8.5l30 -79q-23 -15 -54.5 -24t-63.5 -9q-60 0 -95 26.5t-35 68.5q0 28 20 61.5t68 62.5l-23 92h-154l-23 -92h-207l193 539h228l193 -539h-98zM312 343q-5 22 -7.5 38t-4.5 24h-2l-5 -30
q-3 -18 -7 -32l-37 -144h100z" />
    <glyph glyph-name="Cacute" unicode="&#x106;" horiz-adv-x="506" 
d="M486 27q-33 -20 -72.5 -30t-87.5 -10q-62 0 -115.5 23.5t-92.5 70.5t-61.5 117t-22.5 164t22.5 164t61.5 117t92.5 70.5t115.5 23.5q48 0 87.5 -10t72.5 -30l-61 -158q-13 10 -31.5 17t-40.5 7q-55 0 -84 -53t-29 -146t29 -146t84 -53q22 0 40.5 7t31.5 17zM346 785h-128
l67 132q21 21 48.5 29.5t53.5 8.5q27 0 48.5 -10.5t26.5 -27.5z" />
    <glyph glyph-name="cacute" unicode="&#x107;" horiz-adv-x="454" 
d="M436 24q-34 -20 -70.5 -28.5t-83.5 -8.5q-52 0 -97.5 18t-80 54t-54.5 89t-20 122t20 122t54.5 88.5t80 53.5t97.5 18q47 0 83.5 -8.5t70.5 -28.5l-59 -138q-25 18 -63 18q-42 0 -62.5 -35t-20.5 -88t22 -88t61 -35q38 0 63 18zM309 600h-128l67 132q21 21 48.5 29.5
t53.5 8.5q27 0 48.5 -10.5t26.5 -27.5z" />
    <glyph glyph-name="Ccircumflex" unicode="&#x108;" horiz-adv-x="506" 
d="M486 27q-33 -20 -72.5 -30t-87.5 -10q-62 0 -115.5 23.5t-92.5 70.5t-61.5 117t-22.5 164t22.5 164t61.5 117t92.5 70.5t115.5 23.5q48 0 87.5 -10t72.5 -30l-61 -158q-13 10 -31.5 17t-40.5 7q-55 0 -84 -53t-29 -146t29 -146t84 -53q22 0 40.5 7t31.5 17zM383 769
l-90 76l-90 -76l-72 59l107 108q23 23 55 23t55 -23l107 -108z" />
    <glyph glyph-name="ccircumflex" unicode="&#x109;" horiz-adv-x="454" 
d="M436 24q-34 -20 -70.5 -28.5t-83.5 -8.5q-52 0 -97.5 18t-80 54t-54.5 89t-20 122t20 122t54.5 88.5t80 53.5t97.5 18q47 0 83.5 -8.5t70.5 -28.5l-59 -138q-25 18 -63 18q-42 0 -62.5 -35t-20.5 -88t22 -88t61 -35q38 0 63 18zM351 584l-90 76l-90 -76l-72 59l107 108
q23 23 55 23t55 -23l107 -108z" />
    <glyph glyph-name="Cdotaccent" unicode="&#x10a;" horiz-adv-x="506" 
d="M486 27q-33 -20 -72.5 -30t-87.5 -10q-62 0 -115.5 23.5t-92.5 70.5t-61.5 117t-22.5 164t22.5 164t61.5 117t92.5 70.5t115.5 23.5q48 0 87.5 -10t72.5 -30l-61 -158q-13 10 -31.5 17t-40.5 7q-55 0 -84 -53t-29 -146t29 -146t84 -53q22 0 40.5 7t31.5 17zM399 873
q0 -20 -8 -37t-21.5 -29.5t-32 -20t-39.5 -7.5t-39.5 7.5t-32 20t-21.5 29.5t-8 37q0 19 8 36.5t21.5 30t32 20t39.5 7.5t39.5 -7.5t32 -20t21.5 -30t8 -36.5z" />
    <glyph glyph-name="cdotaccent" unicode="&#x10b;" horiz-adv-x="454" 
d="M436 24q-34 -20 -70.5 -28.5t-83.5 -8.5q-52 0 -97.5 18t-80 54t-54.5 89t-20 122t20 122t54.5 88.5t80 53.5t97.5 18q47 0 83.5 -8.5t70.5 -28.5l-59 -138q-25 18 -63 18q-42 0 -62.5 -35t-20.5 -88t22 -88t61 -35q38 0 63 18zM363 688q0 -20 -8 -37t-21.5 -29.5
t-32 -20t-39.5 -7.5t-39.5 7.5t-32 20t-21.5 29.5t-8 37q0 19 8 36.5t21.5 30t32 20t39.5 7.5t39.5 -7.5t32 -20t21.5 -30t8 -36.5z" />
    <glyph glyph-name="Ccaron" unicode="&#x10c;" horiz-adv-x="506" 
d="M486 27q-33 -20 -72.5 -30t-87.5 -10q-62 0 -115.5 23.5t-92.5 70.5t-61.5 117t-22.5 164t22.5 164t61.5 117t92.5 70.5t115.5 23.5q48 0 87.5 -10t72.5 -30l-61 -158q-13 10 -31.5 17t-40.5 7q-55 0 -84 -53t-29 -146t29 -146t84 -53q22 0 40.5 7t31.5 17zM349 794
q-11 -11 -25 -17t-30 -6t-30 6t-25 17l-107 108l72 59l90 -76l90 76l72 -59z" />
    <glyph glyph-name="ccaron" unicode="&#x10d;" horiz-adv-x="454" 
d="M436 24q-34 -20 -70.5 -28.5t-83.5 -8.5q-52 0 -97.5 18t-80 54t-54.5 89t-20 122t20 122t54.5 88.5t80 53.5t97.5 18q47 0 83.5 -8.5t70.5 -28.5l-59 -138q-25 18 -63 18q-42 0 -62.5 -35t-20.5 -88t22 -88t61 -35q38 0 63 18zM313 609q-11 -11 -25 -17t-30 -6t-30 6
t-25 17l-107 108l72 59l90 -76l90 76l72 -59z" />
    <glyph glyph-name="Dcaron" unicode="&#x10e;" horiz-adv-x="627" 
d="M593 362q0 -177 -80 -276t-248 -99q-64 0 -119.5 11.5t-92.5 28.5v670q34 16 91.5 28t120.5 12q168 0 248 -99t80 -276zM393 362q0 111 -29.5 159.5t-85.5 48.5q-16 0 -25 -3v-411q5 -1 11.5 -1.5t13.5 -0.5q56 0 85.5 48.5t29.5 159.5zM340 794q-11 -11 -25 -17t-30 -6
t-30 6t-25 17l-107 108l72 59l90 -76l90 76l72 -59z" />
    <glyph glyph-name="dcaron" unicode="&#x10f;" horiz-adv-x="577" 
d="M547 270q0 -137 -75.5 -210t-211.5 -73q-59 0 -113.5 10t-99.5 30v485q45 20 99.5 30t113.5 10q136 0 211.5 -72.5t75.5 -209.5zM353 270q0 83 -24.5 116t-66.5 33h-11q-5 0 -10 -2v-295q10 -2 21 -2q42 0 66.5 33.5t24.5 116.5zM324 609q-11 -11 -25 -17t-30 -6t-30 6
t-25 17l-107 108l72 59l90 -76l90 76l72 -59z" />
    <glyph glyph-name="Dcroat" unicode="&#x110;" horiz-adv-x="637" 
d="M603 362q0 -177 -80 -276t-248 -99q-64 0 -119.5 11.5t-92.5 28.5v270h-40v140h40v260q34 16 91.5 28t120.5 12q168 0 248 -99t80 -276zM407 362q0 111 -30.5 160.5t-88.5 49.5q-19 0 -29 -3v-132h67v-140h-67v-143q5 -1 12.5 -1.5t16.5 -0.5q58 0 88.5 49.5t30.5 160.5z
" />
    <glyph glyph-name="dcroat" unicode="&#x111;" horiz-adv-x="587" 
d="M557 270q0 -137 -75.5 -210t-211.5 -73q-59 0 -113.5 10t-99.5 30v191h-36v106h36v188q45 20 99.5 30t113.5 10q136 0 211.5 -72.5t75.5 -209.5zM363 270q0 83 -24.5 117t-66.5 34h-14q-6 0 -11 -2v-95h55v-106h-55v-98q10 -2 25 -2q42 0 66.5 34.5t24.5 117.5z" />
    <glyph glyph-name="Emacron" unicode="&#x112;" horiz-adv-x="489" 
d="M53 0v724h396v-166h-200v-115h176v-162h-176v-115h200v-166h-396zM88 799v110h320v-110h-320z" />
    <glyph glyph-name="emacron" unicode="&#x113;" horiz-adv-x="430" 
d="M47 0v539h348v-127h-158v-80h141v-124h-141v-81h158v-127h-348zM61 614v110h320v-110h-320z" />
    <glyph glyph-name="Ebreve" unicode="&#x114;" horiz-adv-x="489" 
d="M53 0v724h396v-166h-200v-115h176v-162h-176v-115h200v-166h-396zM414 944q-4 -77 -43.5 -123.5t-120.5 -46.5t-120.5 46.5t-43.5 123.5l103 17q2 -38 16 -58.5t45 -20.5t45 20.5t16 58.5z" />
    <glyph glyph-name="ebreve" unicode="&#x115;" horiz-adv-x="430" 
d="M47 0v539h348v-127h-158v-80h141v-124h-141v-81h158v-127h-348zM385 759q-4 -77 -43.5 -123.5t-120.5 -46.5t-120.5 46.5t-43.5 123.5l103 17q2 -38 16 -58.5t45 -20.5t45 20.5t16 58.5z" />
    <glyph glyph-name="Edotaccent" unicode="&#x116;" horiz-adv-x="489" 
d="M53 0v724h396v-166h-200v-115h176v-162h-176v-115h200v-166h-396zM349 873q0 -20 -8 -37t-21.5 -29.5t-32 -20t-39.5 -7.5t-39.5 7.5t-32 20t-21.5 29.5t-8 37q0 19 8 36.5t21.5 30t32 20t39.5 7.5t39.5 -7.5t32 -20t21.5 -30t8 -36.5z" />
    <glyph glyph-name="edotaccent" unicode="&#x117;" horiz-adv-x="430" 
d="M47 0v539h348v-127h-158v-80h141v-124h-141v-81h158v-127h-348zM321 688q0 -20 -8 -37t-21.5 -29.5t-32 -20t-39.5 -7.5t-39.5 7.5t-32 20t-21.5 29.5t-8 37q0 19 8 36.5t21.5 30t32 20t39.5 7.5t39.5 -7.5t32 -20t21.5 -30t8 -36.5z" />
    <glyph glyph-name="Eogonek" unicode="&#x118;" horiz-adv-x="489" 
d="M469 -186q-23 -15 -54.5 -24t-63.5 -9q-60 0 -95 26.5t-35 68.5q0 28 20 61.5t68 62.5h-256v724h396v-166h-200v-115h176v-162h-176v-115h200v-166h-31q-34 -21 -50 -44.5t-16 -42.5q0 -14 9.5 -23t28.5 -9q11 0 24 3.5t25 8.5z" />
    <glyph glyph-name="eogonek" unicode="&#x119;" horiz-adv-x="430" 
d="M413 -186q-23 -15 -54.5 -24t-63.5 -9q-60 0 -95 26.5t-35 68.5q0 28 20 61.5t68 62.5h-206v539h348v-127h-158v-80h141v-124h-141v-81h158v-127h-33q-34 -21 -50 -44.5t-16 -42.5q0 -14 9.5 -23t28.5 -9q11 0 24 3.5t25 8.5z" />
    <glyph glyph-name="Ecaron" unicode="&#x11a;" horiz-adv-x="489" 
d="M53 0v724h396v-166h-200v-115h176v-162h-176v-115h200v-166h-396zM301 794q-11 -11 -25 -17t-30 -6t-30 6t-25 17l-107 108l72 59l90 -76l90 76l72 -59z" />
    <glyph glyph-name="ecaron" unicode="&#x11b;" horiz-adv-x="430" 
d="M47 0v539h348v-127h-158v-80h141v-124h-141v-81h158v-127h-348zM274 609q-11 -11 -25 -17t-30 -6t-30 6t-25 17l-107 108l72 59l90 -76l90 76l72 -59z" />
    <glyph glyph-name="Gcircumflex" unicode="&#x11c;" horiz-adv-x="630" 
d="M580 27q-32 -17 -87.5 -28.5t-119.5 -11.5q-84 0 -147.5 28.5t-106 78.5t-64 119t-21.5 149q0 81 23.5 149.5t69 118.5t112.5 78.5t153 28.5q57 0 108 -11.5t80 -28.5l-60 -156q-21 11 -50.5 19t-69.5 8q-74 0 -120 -50.5t-46 -154.5q0 -51 10.5 -90.5t27.5 -65.5
t39.5 -39.5t46.5 -13.5t36 4v140h-64v148h250v-419zM436 769l-90 76l-90 -76l-72 59l107 108q23 23 55 23t55 -23l107 -108z" />
    <glyph glyph-name="gcircumflex" unicode="&#x11d;" horiz-adv-x="572" 
d="M528 27q-35 -19 -88.5 -29.5t-110.5 -10.5q-142 0 -220.5 70t-78.5 213q0 68 21 120.5t60 88.5t95 54.5t127 18.5q55 0 105 -10.5t87 -29.5l-49 -129q-53 29 -121 29q-36 0 -60.5 -10.5t-40.5 -30t-23 -46.5t-7 -59q0 -66 25.5 -106.5t69.5 -40.5q21 0 30 3v96h-53v114
h232v-305zM386 584l-90 76l-90 -76l-72 59l107 108q23 23 55 23t55 -23l107 -108z" />
    <glyph glyph-name="Gbreve" unicode="&#x11e;" horiz-adv-x="630" 
d="M580 27q-32 -17 -87.5 -28.5t-119.5 -11.5q-84 0 -147.5 28.5t-106 78.5t-64 119t-21.5 149q0 81 23.5 149.5t69 118.5t112.5 78.5t153 28.5q57 0 108 -11.5t80 -28.5l-60 -156q-21 11 -50.5 19t-69.5 8q-74 0 -120 -50.5t-46 -154.5q0 -51 10.5 -90.5t27.5 -65.5
t39.5 -39.5t46.5 -13.5t36 4v140h-64v148h250v-419zM502 944q-4 -77 -43.5 -123.5t-120.5 -46.5t-120.5 46.5t-43.5 123.5l103 17q2 -38 16 -58.5t45 -20.5t45 20.5t16 58.5z" />
    <glyph glyph-name="gbreve" unicode="&#x11f;" horiz-adv-x="572" 
d="M528 27q-35 -19 -88.5 -29.5t-110.5 -10.5q-142 0 -220.5 70t-78.5 213q0 68 21 120.5t60 88.5t95 54.5t127 18.5q55 0 105 -10.5t87 -29.5l-49 -129q-53 29 -121 29q-36 0 -60.5 -10.5t-40.5 -30t-23 -46.5t-7 -59q0 -66 25.5 -106.5t69.5 -40.5q21 0 30 3v96h-53v114
h232v-305zM462 759q-4 -77 -43.5 -123.5t-120.5 -46.5t-120.5 46.5t-43.5 123.5l103 17q2 -38 16 -58.5t45 -20.5t45 20.5t16 58.5z" />
    <glyph glyph-name="Gdotaccent" unicode="&#x120;" horiz-adv-x="630" 
d="M580 27q-32 -17 -87.5 -28.5t-119.5 -11.5q-84 0 -147.5 28.5t-106 78.5t-64 119t-21.5 149q0 81 23.5 149.5t69 118.5t112.5 78.5t153 28.5q57 0 108 -11.5t80 -28.5l-60 -156q-21 11 -50.5 19t-69.5 8q-74 0 -120 -50.5t-46 -154.5q0 -51 10.5 -90.5t27.5 -65.5
t39.5 -39.5t46.5 -13.5t36 4v140h-64v148h250v-419zM457 873q0 -20 -8 -37t-21.5 -29.5t-32 -20t-39.5 -7.5t-39.5 7.5t-32 20t-21.5 29.5t-8 37q0 19 8 36.5t21.5 30t32 20t39.5 7.5t39.5 -7.5t32 -20t21.5 -30t8 -36.5z" />
    <glyph glyph-name="gdotaccent" unicode="&#x121;" horiz-adv-x="572" 
d="M528 27q-35 -19 -88.5 -29.5t-110.5 -10.5q-142 0 -220.5 70t-78.5 213q0 68 21 120.5t60 88.5t95 54.5t127 18.5q55 0 105 -10.5t87 -29.5l-49 -129q-53 29 -121 29q-36 0 -60.5 -10.5t-40.5 -30t-23 -46.5t-7 -59q0 -66 25.5 -106.5t69.5 -40.5q21 0 30 3v96h-53v114
h232v-305zM403 688q0 -20 -8 -37t-21.5 -29.5t-32 -20t-39.5 -7.5t-39.5 7.5t-32 20t-21.5 29.5t-8 37q0 19 8 36.5t21.5 30t32 20t39.5 7.5t39.5 -7.5t32 -20t21.5 -30t8 -36.5z" />
    <glyph glyph-name="Gcommaaccent" unicode="&#x122;" horiz-adv-x="630" 
d="M580 27q-32 -17 -87.5 -28.5t-119.5 -11.5q-84 0 -147.5 28.5t-106 78.5t-64 119t-21.5 149q0 81 23.5 149.5t69 118.5t112.5 78.5t153 28.5q57 0 108 -11.5t80 -28.5l-60 -156q-21 11 -50.5 19t-69.5 8q-74 0 -120 -50.5t-46 -154.5q0 -51 10.5 -90.5t27.5 -65.5
t39.5 -39.5t46.5 -13.5t36 4v140h-64v148h250v-419zM337 -215h-126l45 138q20 21 46.5 29.5t52.5 8.5t47.5 -10.5t26.5 -27.5z" />
    <glyph glyph-name="gcommaaccent" unicode="&#x123;" horiz-adv-x="572" 
d="M528 27q-35 -19 -88.5 -29.5t-110.5 -10.5q-142 0 -220.5 70t-78.5 213q0 68 21 120.5t60 88.5t95 54.5t127 18.5q55 0 105 -10.5t87 -29.5l-49 -129q-53 29 -121 29q-36 0 -60.5 -10.5t-40.5 -30t-23 -46.5t-7 -59q0 -66 25.5 -106.5t69.5 -40.5q21 0 30 3v96h-53v114
h232v-305zM307 -215h-126l45 138q20 21 46.5 29.5t52.5 8.5t47.5 -10.5t26.5 -27.5z" />
    <glyph glyph-name="Hcircumflex" unicode="&#x124;" horiz-adv-x="636" 
d="M383 0v281h-130v-281h-200v724h200v-281h130v281h200v-724h-200zM408 769l-90 76l-90 -76l-72 59l107 108q23 23 55 23t55 -23l107 -108z" />
    <glyph glyph-name="hcircumflex" unicode="&#x125;" horiz-adv-x="586" 
d="M345 0v196h-104v-196h-194v539h194v-195h104v195h194v-539h-194zM383 584l-90 76l-90 -76l-72 59l107 108q23 23 55 23t55 -23l107 -108z" />
    <glyph glyph-name="Hbar" unicode="&#x126;" horiz-adv-x="636" 
d="M583 523v-523h-200v281h-130v-281h-200v523h-53v100h53v101h200v-101h130v101h200v-101h53v-100h-53zM383 523h-130v-80h130v80z" />
    <glyph glyph-name="hbar" unicode="&#x127;" horiz-adv-x="586" 
d="M539 392v-392h-190v208h-112v-208h-190v392h-53v80h53v67h190v-67h112v67h190v-67h53v-80h-53zM349 392h-112v-64h112v64z" />
    <glyph glyph-name="Itilde" unicode="&#x128;" horiz-adv-x="306" 
d="M53 0v724h200v-724h-200zM320 900q-5 -54 -31 -86t-68 -32q-20 0 -34 6.5t-25.5 14t-23 14t-24.5 6.5q-37 0 -45 -49l-81 48q5 54 31 86t68 32q19 0 33.5 -6.5t26 -14t22.5 -14t25 -6.5q37 0 45 49z" />
    <glyph glyph-name="itilde" unicode="&#x129;" horiz-adv-x="288" 
d="M47 0v539h194v-539h-194zM311 715q-5 -54 -31 -86t-68 -32q-20 0 -34 6.5t-25.5 14t-23 14t-24.5 6.5q-37 0 -45 -49l-81 48q5 54 31 86t68 32q19 0 33.5 -6.5t26 -14t22.5 -14t25 -6.5q37 0 45 49z" />
    <glyph glyph-name="Imacron" unicode="&#x12a;" horiz-adv-x="306" 
d="M53 0v724h200v-724h-200zM-6 799v110h320v-110h-320z" />
    <glyph glyph-name="imacron" unicode="&#x12b;" horiz-adv-x="288" 
d="M47 0v539h194v-539h-194zM-16 614v110h320v-110h-320z" />
    <glyph glyph-name="Ibreve" unicode="&#x12c;" horiz-adv-x="306" 
d="M53 0v724h200v-724h-200zM318 944q-4 -77 -43.5 -123.5t-120.5 -46.5t-120.5 46.5t-43.5 123.5l103 17q2 -38 16 -58.5t45 -20.5t45 20.5t16 58.5z" />
    <glyph glyph-name="ibreve" unicode="&#x12d;" horiz-adv-x="288" 
d="M47 0v539h194v-539h-194zM308 759q-4 -77 -43.5 -123.5t-120.5 -46.5t-120.5 46.5t-43.5 123.5l103 17q2 -38 16 -58.5t45 -20.5t45 20.5t16 58.5z" />
    <glyph glyph-name="Iogonek" unicode="&#x12e;" horiz-adv-x="306" 
d="M162 0q-34 -21 -50 -44.5t-16 -42.5q0 -14 9.5 -23t28.5 -9q11 0 24 3.5t25 8.5l30 -79q-23 -15 -54.5 -24t-63.5 -9q-60 0 -95 26.5t-35 68.5q0 28 20 61.5t68 62.5v724h200v-724h-91z" />
    <glyph glyph-name="iogonek" unicode="&#x12f;" horiz-adv-x="288" 
d="M156 0q-34 -21 -50 -44.5t-16 -42.5q0 -14 9.5 -23t28.5 -9q11 0 24 3.5t25 8.5l30 -79q-23 -15 -54.5 -24t-63.5 -9q-60 0 -95 26.5t-35 68.5q0 28 20 61.5t68 62.5v539h194v-539h-85z" />
    <glyph glyph-name="Idotaccent" unicode="&#x130;" horiz-adv-x="306" 
d="M53 0v724h200v-724h-200zM255 873q0 -20 -8 -37t-21.5 -29.5t-32 -20t-39.5 -7.5t-39.5 7.5t-32 20t-21.5 29.5t-8 37q0 19 8 36.5t21.5 30t32 20t39.5 7.5t39.5 -7.5t32 -20t21.5 -30t8 -36.5z" />
    <glyph glyph-name="dotlessi" unicode="&#x131;" horiz-adv-x="288" 
d="M47 0v539h194v-539h-194z" />
    <glyph glyph-name="IJ" unicode="&#x132;" horiz-adv-x="612" 
d="M559 80q0 -142 -81.5 -216t-222.5 -84v170q45 7 74.5 38.5t29.5 91.5v644h200v-644zM53 0v724h200v-724h-200z" />
    <glyph glyph-name="ij" unicode="&#x133;" horiz-adv-x="576" 
d="M47 0v539h194v-539h-194zM529 80q0 -84 -22.5 -140.5t-61 -91t-90 -51.5t-109.5 -22v158q17 4 33 14t28.5 27t20 43t7.5 63v459h194v-459z" />
    <glyph glyph-name="Jcircumflex" unicode="&#x134;" horiz-adv-x="306" 
d="M253 80q0 -142 -81.5 -216t-222.5 -84v170q45 7 74.5 38.5t29.5 91.5v644h200v-644zM244 769l-90 76l-90 -76l-72 59l107 108q23 23 55 23t55 -23l107 -108z" />
    <glyph glyph-name="jcircumflex" unicode="&#x135;" horiz-adv-x="288" 
d="M241 80q0 -84 -22.5 -140.5t-61 -91t-90 -51.5t-109.5 -22v158q17 4 33 14t28.5 27t20 43t7.5 63v459h194v-459zM235 584l-90 76l-90 -76l-72 59l107 108q23 23 55 23t55 -23l107 -108z" />
    <glyph glyph-name="Kcommaaccent" unicode="&#x136;" horiz-adv-x="646" 
d="M421 0l-166 347h-2v-347h-200v724h200v-321h2l165 321h221l-189 -349l193 -375h-224zM325 -215h-126l45 138q20 21 46.5 29.5t52.5 8.5t47.5 -10.5t26.5 -27.5z" />
    <glyph glyph-name="kcommaaccent" unicode="&#x137;" horiz-adv-x="590" 
d="M373 0l-132 256h-2v-256h-192v539h192v-235h2l122 235h216l-150 -256l162 -283h-218zM293 -215h-126l45 138q20 21 46.5 29.5t52.5 8.5t47.5 -10.5t26.5 -27.5z" />
    <glyph glyph-name="kgreenlandic" unicode="&#x138;" horiz-adv-x="590" 
d="M373 0l-132 256h-2v-256h-192v539h192v-235h2l122 235h216l-150 -256l162 -283h-218z" />
    <glyph glyph-name="Lacute" unicode="&#x139;" horiz-adv-x="454" 
d="M53 0v724h200v-558h174v-166h-374zM211 785h-128l67 132q21 21 48.5 29.5t53.5 8.5q27 0 48.5 -10.5t26.5 -27.5z" />
    <glyph glyph-name="lacute" unicode="&#x13a;" horiz-adv-x="403" 
d="M47 0v539h194v-389h139v-150h-333zM201 601h-128l67 132q21 21 48.5 29.5t53.5 8.5q27 0 48.5 -10.5t26.5 -27.5z" />
    <glyph glyph-name="Lcommaaccent" unicode="&#x13b;" horiz-adv-x="454" 
d="M53 0v724h200v-558h174v-166h-374zM227 -215h-126l45 138q20 21 46.5 29.5t52.5 8.5t47.5 -10.5t26.5 -27.5z" />
    <glyph glyph-name="lcommaaccent" unicode="&#x13c;" horiz-adv-x="403" 
d="M47 0v539h194v-389h139v-150h-333zM202 -215h-126l45 138q20 21 46.5 29.5t52.5 8.5t47.5 -10.5t26.5 -27.5z" />
    <glyph glyph-name="Lcaron" unicode="&#x13d;" horiz-adv-x="454" 
d="M53 0v724h200v-558h174v-166h-374zM416 523h-103v172q14 19 35 28.5t43 9.5t42.5 -9.5t31.5 -28.5z" />
    <glyph glyph-name="lcaron" unicode="&#x13e;" horiz-adv-x="403" 
d="M47 0v539h194v-389h139v-150h-333zM404 341h-103v172q14 19 35 28.5t43 9.5t42.5 -9.5t31.5 -28.5z" />
    <glyph glyph-name="Ldot" unicode="&#x13f;" horiz-adv-x="488" 
d="M53 0v724h200v-558h174v-166h-374zM491 438q0 -19 -7 -36t-19.5 -29.5t-29.5 -19.5t-36 -7t-36 7t-29.5 19.5t-19.5 29.5t-7 36t7 36t19.5 29.5t29.5 19.5t36 7t36 -7t29.5 -19.5t19.5 -29.5t7 -36z" />
    <glyph glyph-name="ldot" unicode="&#x140;" horiz-adv-x="469" 
d="M47 0v539h194v-389h139v-150h-333zM473 328q0 -19 -7 -36t-19.5 -29.5t-29.5 -19.5t-36 -7t-36 7t-29.5 19.5t-19.5 29.5t-7 36t7 36t19.5 29.5t29.5 19.5t36 7t36 -7t29.5 -19.5t19.5 -29.5t7 -36z" />
    <glyph glyph-name="Lslash" unicode="&#x141;" horiz-adv-x="466" 
d="M65 0v245l-57 -32v138l57 32v341h200v-233l103 58v-138l-103 -58v-187h174v-166h-374z" />
    <glyph glyph-name="lslash" unicode="&#x142;" horiz-adv-x="413" 
d="M57 0v171l-55 -31v108l55 31v260h194v-156l77 44v-108l-77 -44v-125h139v-150h-333z" />
    <glyph glyph-name="Nacute" unicode="&#x143;" horiz-adv-x="654" 
d="M446 0l-180 320q-18 32 -28.5 55.5t-15.5 34.5h-2q0 -8 1 -36.5t1 -63.5v-310h-169v724h161l174 -308q12 -21 24 -46.5t20 -43.5h2q-1 13 -1.5 40.5t-0.5 62.5v295h169v-724h-155zM372 785h-128l67 132q21 21 48.5 29.5t53.5 8.5q27 0 48.5 -10.5t26.5 -27.5z" />
    <glyph glyph-name="nacute" unicode="&#x144;" horiz-adv-x="612" 
d="M380 0l-134 239q-11 19 -19.5 37.5t-13.5 29.5h-2q1 -20 1.5 -35t0.5 -40v-231h-166v539h190l129 -229q9 -15 17.5 -33t15.5 -34h2q-1 15 -1.5 32t-0.5 45v219h166v-539h-185zM348 600h-128l67 132q21 21 48.5 29.5t53.5 8.5q27 0 48.5 -10.5t26.5 -27.5z" />
    <glyph glyph-name="Ncommaaccent" unicode="&#x145;" horiz-adv-x="654" 
d="M446 0l-180 320q-18 32 -28.5 55.5t-15.5 34.5h-2q0 -8 1 -36.5t1 -63.5v-310h-169v724h161l174 -308q12 -21 24 -46.5t20 -43.5h2q-1 13 -1.5 40.5t-0.5 62.5v295h169v-724h-155zM329 -215h-126l45 138q20 21 46.5 29.5t52.5 8.5t47.5 -10.5t26.5 -27.5z" />
    <glyph glyph-name="ncommaaccent" unicode="&#x146;" horiz-adv-x="612" 
d="M380 0l-134 239q-11 19 -19.5 37.5t-13.5 29.5h-2q1 -20 1.5 -35t0.5 -40v-231h-166v539h190l129 -229q9 -15 17.5 -33t15.5 -34h2q-1 15 -1.5 32t-0.5 45v219h166v-539h-185zM303 -215h-126l45 138q20 21 46.5 29.5t52.5 8.5t47.5 -10.5t26.5 -27.5z" />
    <glyph glyph-name="Ncaron" unicode="&#x147;" horiz-adv-x="654" 
d="M446 0l-180 320q-18 32 -28.5 55.5t-15.5 34.5h-2q0 -8 1 -36.5t1 -63.5v-310h-169v724h161l174 -308q12 -21 24 -46.5t20 -43.5h2q-1 13 -1.5 40.5t-0.5 62.5v295h169v-724h-155zM379 794q-11 -11 -25 -17t-30 -6t-30 6t-25 17l-107 108l72 59l90 -76l90 76l72 -59z" />
    <glyph glyph-name="ncaron" unicode="&#x148;" horiz-adv-x="612" 
d="M380 0l-134 239q-11 19 -19.5 37.5t-13.5 29.5h-2q1 -20 1.5 -35t0.5 -40v-231h-166v539h190l129 -229q9 -15 17.5 -33t15.5 -34h2q-1 15 -1.5 32t-0.5 45v219h166v-539h-185zM361 609q-11 -11 -25 -17t-30 -6t-30 6t-25 17l-107 108l72 59l90 -76l90 76l72 -59z" />
    <glyph glyph-name="napostrophe" unicode="&#x149;" horiz-adv-x="612" 
d="M380 0l-134 239q-11 19 -19.5 37.5t-13.5 29.5h-2q1 -20 1.5 -35t0.5 -40v-231h-166v539h190l129 -229q9 -15 17.5 -33t15.5 -34h2q-1 15 -1.5 32t-0.5 45v219h166v-539h-185zM104 586h-103v172q14 19 35 28.5t43 9.5t42.5 -9.5t31.5 -28.5z" />
    <glyph glyph-name="Eng" unicode="&#x14a;" horiz-adv-x="654" 
d="M601 56q0 -116 -58.5 -189t-164.5 -87l-47 143q45 8 73 35.5t28 66.5l-166 295q-19 33 -28.5 55t-15.5 35h-2q1 -20 1.5 -41.5t0.5 -58.5v-310h-169v724h161l174 -308q9 -16 15.5 -28t11 -22.5t8.5 -20t9 -19.5h2q0 12 -0.5 22.5t-1 22t-0.5 25.5v328h169v-668z" />
    <glyph glyph-name="eng" unicode="&#x14b;" horiz-adv-x="612" 
d="M565 56q0 -112 -57 -185.5t-166 -90.5l-45 137q32 8 56.5 27t33.5 48l-141 247q-10 17 -19 35.5t-14 31.5h-2q1 -14 1.5 -31t0.5 -44v-231h-166v539h190l129 -229q11 -18 18 -34t15 -33h2q-1 16 -1.5 34.5t-0.5 42.5v219h166v-483z" />
    <glyph glyph-name="Omacron" unicode="&#x14c;" horiz-adv-x="636" 
d="M602 362q0 -81 -17 -149.5t-51.5 -119t-88.5 -78.5t-127 -28q-74 0 -127.5 28t-88 78.5t-51.5 119t-17 149.5t17 149.5t51.5 119t88 78.5t127.5 28q73 0 127 -28t88.5 -78.5t51.5 -119t17 -149.5zM402 362q0 98 -21 148.5t-63 50.5t-63 -50.5t-21 -148.5t21 -148.5
t63 -50.5t63 50.5t21 148.5zM158 799v110h320v-110h-320z" />
    <glyph glyph-name="omacron" unicode="&#x14d;" horiz-adv-x="582" 
d="M552 270q0 -61 -17.5 -112.5t-51 -89.5t-82 -59.5t-110.5 -21.5t-110.5 21.5t-82 59.5t-51 89.5t-17.5 112.5t17.5 112.5t51 89t82 59t110.5 21.5t110.5 -21.5t82 -59t51 -89t17.5 -112.5zM358 272q0 68 -17.5 99t-49.5 31t-49.5 -31t-17.5 -99t17.5 -99t49.5 -31
t49.5 31t17.5 99zM131 614v110h320v-110h-320z" />
    <glyph glyph-name="Obreve" unicode="&#x14e;" horiz-adv-x="636" 
d="M602 362q0 -81 -17 -149.5t-51.5 -119t-88.5 -78.5t-127 -28q-74 0 -127.5 28t-88 78.5t-51.5 119t-17 149.5t17 149.5t51.5 119t88 78.5t127.5 28q73 0 127 -28t88.5 -78.5t51.5 -119t17 -149.5zM402 362q0 98 -21 148.5t-63 50.5t-63 -50.5t-21 -148.5t21 -148.5
t63 -50.5t63 50.5t21 148.5zM482 944q-4 -77 -43.5 -123.5t-120.5 -46.5t-120.5 46.5t-43.5 123.5l103 17q2 -38 16 -58.5t45 -20.5t45 20.5t16 58.5z" />
    <glyph glyph-name="obreve" unicode="&#x14f;" horiz-adv-x="582" 
d="M552 270q0 -61 -17.5 -112.5t-51 -89.5t-82 -59.5t-110.5 -21.5t-110.5 21.5t-82 59.5t-51 89.5t-17.5 112.5t17.5 112.5t51 89t82 59t110.5 21.5t110.5 -21.5t82 -59t51 -89t17.5 -112.5zM358 272q0 68 -17.5 99t-49.5 31t-49.5 -31t-17.5 -99t17.5 -99t49.5 -31
t49.5 31t17.5 99zM455 759q-4 -77 -43.5 -123.5t-120.5 -46.5t-120.5 46.5t-43.5 123.5l103 17q2 -38 16 -58.5t45 -20.5t45 20.5t16 58.5z" />
    <glyph glyph-name="Ohungarumlaut" unicode="&#x150;" horiz-adv-x="636" 
d="M602 362q0 -81 -17 -149.5t-51.5 -119t-88.5 -78.5t-127 -28q-74 0 -127.5 28t-88 78.5t-51.5 119t-17 149.5t17 149.5t51.5 119t88 78.5t127.5 28q73 0 127 -28t88.5 -78.5t51.5 -119t17 -149.5zM402 362q0 98 -21 148.5t-63 50.5t-63 -50.5t-21 -148.5t21 -148.5
t63 -50.5t63 50.5t21 148.5zM442 785h-99l72 132q20 20 39.5 29t43.5 9t36.5 -11t17.5 -27zM260 785h-99l72 132q20 20 39.5 29t43.5 9t36.5 -11t17.5 -27z" />
    <glyph glyph-name="ohungarumlaut" unicode="&#x151;" horiz-adv-x="582" 
d="M552 270q0 -61 -17.5 -112.5t-51 -89.5t-82 -59.5t-110.5 -21.5t-110.5 21.5t-82 59.5t-51 89.5t-17.5 112.5t17.5 112.5t51 89t82 59t110.5 21.5t110.5 -21.5t82 -59t51 -89t17.5 -112.5zM358 272q0 68 -17.5 99t-49.5 31t-49.5 -31t-17.5 -99t17.5 -99t49.5 -31
t49.5 31t17.5 99zM418 600h-99l72 132q20 20 39.5 29t43.5 9t36.5 -11t17.5 -27zM236 600h-99l72 132q20 20 39.5 29t43.5 9t36.5 -11t17.5 -27z" />
    <glyph glyph-name="OE" unicode="&#x152;" horiz-adv-x="816" 
d="M434 0q-18 -5 -47 -9t-55 -4q-74 0 -129.5 28t-93 78.5t-56.5 119t-19 149.5t19 149.5t56.5 119t93 78.5t129.5 28q26 0 53.5 -3.5t48.5 -9.5h342v-166h-196v-115h172v-162h-172v-115h196v-166h-342zM384 563q-21 7 -46 7q-51 0 -77.5 -55t-26.5 -153t26.5 -153t77.5 -55
q25 0 46 7v402z" />
    <glyph glyph-name="oe" unicode="&#x153;" horiz-adv-x="707" 
d="M375 0q-17 -5 -42.5 -9t-45.5 -4q-126 0 -191.5 75t-65.5 207t65.5 207t191.5 75q20 0 45.5 -3.5t42.5 -8.5h297v-127h-148v-80h130v-124h-130v-81h148v-127h-297zM341 412q-14 5 -36 5q-38 0 -59.5 -37t-21.5 -111t21.5 -110.5t59.5 -36.5q10 0 18.5 1t17.5 4v285z" />
    <glyph glyph-name="Racute" unicode="&#x154;" horiz-adv-x="638" 
d="M420 0l-67 208q-8 26 -26 43t-47 17h-31v-268h-196v697q48 20 109.5 30t129.5 10q146 0 219.5 -60t73.5 -173q0 -35 -10 -62.5t-26 -48.5t-36 -36t-40 -25v-2q29 -18 49 -48t33 -67l74 -215h-209zM389 492q0 49 -21 72.5t-71 23.5q-13 0 -26 -1t-22 -3v-177h54
q45 0 65.5 22.5t20.5 62.5zM350 785h-128l67 132q21 21 48.5 29.5t53.5 8.5q27 0 48.5 -10.5t26.5 -27.5z" />
    <glyph glyph-name="racute" unicode="&#x155;" horiz-adv-x="582" 
d="M373 0l-47 146q-14 44 -62 44h-27v-190h-190v512q22 10 50 17.5t58.5 12.5t62 7.5t60.5 2.5q126 0 194 -47t68 -133q0 -48 -25.5 -82.5t-58.5 -50.5v-2q22 -14 38.5 -36t24.5 -44l54 -157h-200zM351 364q0 35 -16.5 53t-54.5 18q-11 0 -22 -1t-21 -3v-130h47
q34 0 50.5 16.5t16.5 46.5zM328 600h-128l67 132q21 21 48.5 29.5t53.5 8.5q27 0 48.5 -10.5t26.5 -27.5z" />
    <glyph glyph-name="Rcommaaccent" unicode="&#x156;" horiz-adv-x="638" 
d="M420 0l-67 208q-8 26 -26 43t-47 17h-31v-268h-196v697q48 20 109.5 30t129.5 10q146 0 219.5 -60t73.5 -173q0 -35 -10 -62.5t-26 -48.5t-36 -36t-40 -25v-2q29 -18 49 -48t33 -67l74 -215h-209zM389 492q0 49 -21 72.5t-71 23.5q-13 0 -26 -1t-22 -3v-177h54
q45 0 65.5 22.5t20.5 62.5zM327 -215h-126l45 138q20 21 46.5 29.5t52.5 8.5t47.5 -10.5t26.5 -27.5z" />
    <glyph glyph-name="rcommaaccent" unicode="&#x157;" horiz-adv-x="582" 
d="M373 0l-47 146q-14 44 -62 44h-27v-190h-190v512q22 10 50 17.5t58.5 12.5t62 7.5t60.5 2.5q126 0 194 -47t68 -133q0 -48 -25.5 -82.5t-58.5 -50.5v-2q22 -14 38.5 -36t24.5 -44l54 -157h-200zM351 364q0 35 -16.5 53t-54.5 18q-11 0 -22 -1t-21 -3v-130h47
q34 0 50.5 16.5t16.5 46.5zM297 -215h-126l45 138q20 21 46.5 29.5t52.5 8.5t47.5 -10.5t26.5 -27.5z" />
    <glyph glyph-name="Rcaron" unicode="&#x158;" horiz-adv-x="638" 
d="M420 0l-67 208q-8 26 -26 43t-47 17h-31v-268h-196v697q48 20 109.5 30t129.5 10q146 0 219.5 -60t73.5 -173q0 -35 -10 -62.5t-26 -48.5t-36 -36t-40 -25v-2q29 -18 49 -48t33 -67l74 -215h-209zM389 492q0 49 -21 72.5t-71 23.5q-13 0 -26 -1t-22 -3v-177h54
q45 0 65.5 22.5t20.5 62.5zM353 794q-11 -11 -25 -17t-30 -6t-30 6t-25 17l-107 108l72 59l90 -76l90 76l72 -59z" />
    <glyph glyph-name="rcaron" unicode="&#x159;" horiz-adv-x="582" 
d="M373 0l-47 146q-14 44 -62 44h-27v-190h-190v512q22 10 50 17.5t58.5 12.5t62 7.5t60.5 2.5q126 0 194 -47t68 -133q0 -48 -25.5 -82.5t-58.5 -50.5v-2q22 -14 38.5 -36t24.5 -44l54 -157h-200zM351 364q0 35 -16.5 53t-54.5 18q-11 0 -22 -1t-21 -3v-130h47
q34 0 50.5 16.5t16.5 46.5zM334 609q-11 -11 -25 -17t-30 -6t-30 6t-25 17l-107 108l72 59l90 -76l90 76l72 -59z" />
    <glyph glyph-name="Sacute" unicode="&#x15a;" horiz-adv-x="506" 
d="M477 225q0 -52 -16 -95.5t-47.5 -75t-79.5 -49.5t-111 -18q-54 0 -105 10t-93 30l64 174q26 -14 59 -24t65 -10q30 0 44.5 13.5t14.5 32.5q0 20 -17.5 34.5t-44 29t-57.5 32t-57.5 43t-44 62t-17.5 90.5q0 52 16 94.5t47.5 73.5t78 48t106.5 17q54 0 99 -10.5t81 -29.5
l-60 -160q-23 13 -51 21t-59 8q-29 0 -43.5 -14.5t-14.5 -34.5q0 -21 18 -36.5t45 -30.5t58.5 -33t58.5 -43.5t45 -61.5t18 -87zM310 785h-128l67 132q21 21 48.5 29.5t53.5 8.5q27 0 48.5 -10.5t26.5 -27.5z" />
    <glyph glyph-name="sacute" unicode="&#x15b;" horiz-adv-x="474" 
d="M448 167q0 -83 -58.5 -131.5t-181.5 -48.5q-54 0 -100.5 10t-89.5 30l60 146q27 -15 62 -25t62 -10q20 0 31.5 8.5t11.5 21.5q0 17 -15.5 26t-38.5 17t-50.5 19t-51.5 29.5t-40.5 47.5t-16.5 72q0 81 57.5 127t161.5 46q50 0 96.5 -10t87.5 -30l-56 -129q-23 13 -49 21
t-52 8q-22 0 -34.5 -8.5t-12.5 -22.5q0 -11 6.5 -18.5t16 -13.5t20 -9.5t18.5 -6.5q23 -8 50.5 -19t51 -29.5t39 -46.5t15.5 -71zM289 600h-128l67 132q21 21 48.5 29.5t53.5 8.5q27 0 48.5 -10.5t26.5 -27.5z" />
    <glyph glyph-name="Scircumflex" unicode="&#x15c;" horiz-adv-x="506" 
d="M477 225q0 -52 -16 -95.5t-47.5 -75t-79.5 -49.5t-111 -18q-54 0 -105 10t-93 30l64 174q26 -14 59 -24t65 -10q30 0 44.5 13.5t14.5 32.5q0 20 -17.5 34.5t-44 29t-57.5 32t-57.5 43t-44 62t-17.5 90.5q0 52 16 94.5t47.5 73.5t78 48t106.5 17q54 0 99 -10.5t81 -29.5
l-60 -160q-23 13 -51 21t-59 8q-29 0 -43.5 -14.5t-14.5 -34.5q0 -21 18 -36.5t45 -30.5t58.5 -33t58.5 -43.5t45 -61.5t18 -87zM347 769l-90 76l-90 -76l-72 59l107 108q23 23 55 23t55 -23l107 -108z" />
    <glyph glyph-name="scircumflex" unicode="&#x15d;" horiz-adv-x="474" 
d="M448 167q0 -83 -58.5 -131.5t-181.5 -48.5q-54 0 -100.5 10t-89.5 30l60 146q27 -15 62 -25t62 -10q20 0 31.5 8.5t11.5 21.5q0 17 -15.5 26t-38.5 17t-50.5 19t-51.5 29.5t-40.5 47.5t-16.5 72q0 81 57.5 127t161.5 46q50 0 96.5 -10t87.5 -30l-56 -129q-23 13 -49 21
t-52 8q-22 0 -34.5 -8.5t-12.5 -22.5q0 -11 6.5 -18.5t16 -13.5t20 -9.5t18.5 -6.5q23 -8 50.5 -19t51 -29.5t39 -46.5t15.5 -71zM331 584l-90 76l-90 -76l-72 59l107 108q23 23 55 23t55 -23l107 -108z" />
    <glyph glyph-name="Scedilla" unicode="&#x15e;" horiz-adv-x="506" 
d="M477 225q0 -52 -16 -95.5t-47.5 -75t-79.5 -49.5t-111 -18q-54 0 -105 10t-93 30l64 174q26 -14 59 -24t65 -10q30 0 44.5 13.5t14.5 32.5q0 20 -17.5 34.5t-44 29t-57.5 32t-57.5 43t-44 62t-17.5 90.5q0 52 16 94.5t47.5 73.5t78 48t106.5 17q54 0 99 -10.5t81 -29.5
l-60 -160q-23 13 -51 21t-59 8q-29 0 -43.5 -14.5t-14.5 -34.5q0 -21 18 -36.5t45 -30.5t58.5 -33t58.5 -43.5t45 -61.5t18 -87zM374 -127q0 -49 -55.5 -73.5t-152.5 -24.5q-23 0 -46.5 1t-49.5 4l36 67q28 -3 50 -3q42 0 63.5 8.5t21.5 20.5q0 21 -53 21q-23 0 -59 -3
l31 59q37 3 67 3q41 0 69 -5.5t45.5 -16t25 -25t7.5 -33.5z" />
    <glyph glyph-name="scedilla" unicode="&#x15f;" horiz-adv-x="474" 
d="M448 167q0 -83 -58.5 -131.5t-181.5 -48.5q-54 0 -100.5 10t-89.5 30l60 146q27 -15 62 -25t62 -10q20 0 31.5 8.5t11.5 21.5q0 17 -15.5 26t-38.5 17t-50.5 19t-51.5 29.5t-40.5 47.5t-16.5 72q0 81 57.5 127t161.5 46q50 0 96.5 -10t87.5 -30l-56 -129q-23 13 -49 21
t-52 8q-22 0 -34.5 -8.5t-12.5 -22.5q0 -11 6.5 -18.5t16 -13.5t20 -9.5t18.5 -6.5q23 -8 50.5 -19t51 -29.5t39 -46.5t15.5 -71zM354 -127q0 -49 -55.5 -73.5t-152.5 -24.5q-23 0 -46.5 1t-49.5 4l36 67q28 -3 50 -3q42 0 63.5 8.5t21.5 20.5q0 21 -53 21q-23 0 -59 -3
l31 59q37 3 67 3q41 0 69 -5.5t45.5 -16t25 -25t7.5 -33.5z" />
    <glyph glyph-name="Scaron" unicode="&#x160;" horiz-adv-x="506" 
d="M477 225q0 -52 -16 -95.5t-47.5 -75t-79.5 -49.5t-111 -18q-54 0 -105 10t-93 30l64 174q26 -14 59 -24t65 -10q30 0 44.5 13.5t14.5 32.5q0 20 -17.5 34.5t-44 29t-57.5 32t-57.5 43t-44 62t-17.5 90.5q0 52 16 94.5t47.5 73.5t78 48t106.5 17q54 0 99 -10.5t81 -29.5
l-60 -160q-23 13 -51 21t-59 8q-29 0 -43.5 -14.5t-14.5 -34.5q0 -21 18 -36.5t45 -30.5t58.5 -33t58.5 -43.5t45 -61.5t18 -87zM315 794q-11 -11 -25 -17t-30 -6t-30 6t-25 17l-107 108l72 59l90 -76l90 76l72 -59z" />
    <glyph glyph-name="scaron" unicode="&#x161;" horiz-adv-x="474" 
d="M448 167q0 -83 -58.5 -131.5t-181.5 -48.5q-54 0 -100.5 10t-89.5 30l60 146q27 -15 62 -25t62 -10q20 0 31.5 8.5t11.5 21.5q0 17 -15.5 26t-38.5 17t-50.5 19t-51.5 29.5t-40.5 47.5t-16.5 72q0 81 57.5 127t161.5 46q50 0 96.5 -10t87.5 -30l-56 -129q-23 13 -49 21
t-52 8q-22 0 -34.5 -8.5t-12.5 -22.5q0 -11 6.5 -18.5t16 -13.5t20 -9.5t18.5 -6.5q23 -8 50.5 -19t51 -29.5t39 -46.5t15.5 -71zM297 609q-11 -11 -25 -17t-30 -6t-30 6t-25 17l-107 108l72 59l90 -76l90 76l72 -59z" />
    <glyph glyph-name="Tcommaaccent" unicode="&#x162;" horiz-adv-x="506" 
d="M353 558v-558h-200v558h-123v166h446v-166h-123zM367 -127q0 -49 -55.5 -73.5t-152.5 -24.5q-23 0 -46.5 1t-49.5 4l36 67q28 -3 50 -3q42 0 63.5 8.5t21.5 20.5q0 21 -53 21q-23 0 -59 -3l31 59q37 3 67 3q41 0 69 -5.5t45.5 -16t25 -25t7.5 -33.5z" />
    <glyph glyph-name="tcommaaccent" unicode="&#x163;" horiz-adv-x="470" 
d="M332 389v-389h-194v389h-112v150h418v-150h-112zM351 -127q0 -49 -55.5 -73.5t-152.5 -24.5q-23 0 -46.5 1t-49.5 4l36 67q28 -3 50 -3q42 0 63.5 8.5t21.5 20.5q0 21 -53 21q-23 0 -59 -3l31 59q37 3 67 3q41 0 69 -5.5t45.5 -16t25 -25t7.5 -33.5z" />
    <glyph glyph-name="Tcaron" unicode="&#x164;" horiz-adv-x="506" 
d="M353 558v-558h-200v558h-123v166h446v-166h-123zM308 794q-11 -11 -25 -17t-30 -6t-30 6t-25 17l-107 108l72 59l90 -76l90 76l72 -59z" />
    <glyph glyph-name="tcaron" unicode="&#x165;" horiz-adv-x="470" 
d="M332 389v-389h-194v389h-112v150h418v-150h-112zM290 609q-11 -11 -25 -17t-30 -6t-30 6t-25 17l-107 108l72 59l90 -76l90 76l72 -59z" />
    <glyph glyph-name="Tbar" unicode="&#x166;" horiz-adv-x="506" 
d="M353 558v-135h105v-130h-105v-293h-200v293h-105v130h105v135h-123v166h446v-166h-123z" />
    <glyph glyph-name="tbar" unicode="&#x167;" horiz-adv-x="470" 
d="M329 389v-87h91v-105h-91v-197h-188v197h-91v105h91v87h-115v150h418v-150h-115z" />
    <glyph glyph-name="Utilde" unicode="&#x168;" horiz-adv-x="628" 
d="M575 222q0 -57 -19.5 -100t-54.5 -72.5t-83 -44.5t-104 -15t-104 15t-83 44.5t-54.5 72.5t-19.5 100v502h200v-504q0 -29 17.5 -44.5t43.5 -15.5t43.5 15.5t17.5 44.5v504h200v-502zM478 900q-5 -54 -31 -86t-68 -32q-20 0 -34 6.5t-25.5 14t-23 14t-24.5 6.5
q-37 0 -45 -49l-81 48q5 54 31 86t68 32q19 0 33.5 -6.5t26 -14t22.5 -14t25 -6.5q37 0 45 49z" />
    <glyph glyph-name="utilde" unicode="&#x169;" horiz-adv-x="578" 
d="M531 184q0 -92 -63.5 -144.5t-178.5 -52.5t-178.5 52.5t-63.5 144.5v355h194v-357q0 -21 14.5 -33t33.5 -12t33.5 12t14.5 33v357h194v-355zM452 715q-5 -54 -31 -86t-68 -32q-20 0 -34 6.5t-25.5 14t-23 14t-24.5 6.5q-37 0 -45 -49l-81 48q5 54 31 86t68 32
q19 0 33.5 -6.5t26 -14t22.5 -14t25 -6.5q37 0 45 49z" />
    <glyph glyph-name="Umacron" unicode="&#x16a;" horiz-adv-x="628" 
d="M575 222q0 -57 -19.5 -100t-54.5 -72.5t-83 -44.5t-104 -15t-104 15t-83 44.5t-54.5 72.5t-19.5 100v502h200v-504q0 -29 17.5 -44.5t43.5 -15.5t43.5 15.5t17.5 44.5v504h200v-502zM154 799v110h320v-110h-320z" />
    <glyph glyph-name="umacron" unicode="&#x16b;" horiz-adv-x="578" 
d="M531 184q0 -92 -63.5 -144.5t-178.5 -52.5t-178.5 52.5t-63.5 144.5v355h194v-357q0 -21 14.5 -33t33.5 -12t33.5 12t14.5 33v357h194v-355zM129 614v110h320v-110h-320z" />
    <glyph glyph-name="Ubreve" unicode="&#x16c;" horiz-adv-x="628" 
d="M575 222q0 -57 -19.5 -100t-54.5 -72.5t-83 -44.5t-104 -15t-104 15t-83 44.5t-54.5 72.5t-19.5 100v502h200v-504q0 -29 17.5 -44.5t43.5 -15.5t43.5 15.5t17.5 44.5v504h200v-502zM478 944q-4 -77 -43.5 -123.5t-120.5 -46.5t-120.5 46.5t-43.5 123.5l103 17
q2 -38 16 -58.5t45 -20.5t45 20.5t16 58.5z" />
    <glyph glyph-name="ubreve" unicode="&#x16d;" horiz-adv-x="578" 
d="M531 184q0 -92 -63.5 -144.5t-178.5 -52.5t-178.5 52.5t-63.5 144.5v355h194v-357q0 -21 14.5 -33t33.5 -12t33.5 12t14.5 33v357h194v-355zM453 759q-4 -77 -43.5 -123.5t-120.5 -46.5t-120.5 46.5t-43.5 123.5l103 17q2 -38 16 -58.5t45 -20.5t45 20.5t16 58.5z" />
    <glyph glyph-name="Uring" unicode="&#x16e;" horiz-adv-x="628" 
d="M575 222q0 -57 -19.5 -100t-54.5 -72.5t-83 -44.5t-104 -15t-104 15t-83 44.5t-54.5 72.5t-19.5 100v502h200v-504q0 -29 17.5 -44.5t43.5 -15.5t43.5 15.5t17.5 44.5v504h200v-502zM430 874q0 -23 -9 -42t-24.5 -33.5t-36.5 -22.5t-46 -8t-46 8t-36.5 22.5t-24.5 33.5
t-9 42q0 22 9 41.5t24.5 34t36.5 22.5t46 8t46 -8t36.5 -22.5t24.5 -34t9 -41.5zM354 874q0 16 -11.5 27t-28.5 11t-28.5 -11t-11.5 -27t11.5 -27t28.5 -11t28.5 11t11.5 27z" />
    <glyph glyph-name="uring" unicode="&#x16f;" horiz-adv-x="578" 
d="M531 184q0 -92 -63.5 -144.5t-178.5 -52.5t-178.5 52.5t-63.5 144.5v355h194v-357q0 -21 14.5 -33t33.5 -12t33.5 12t14.5 33v357h194v-355zM405 692q0 -23 -9 -42t-24.5 -33.5t-36.5 -22.5t-46 -8t-46 8t-36.5 22.5t-24.5 33.5t-9 42q0 22 9 41.5t24.5 34t36.5 22.5
t46 8t46 -8t36.5 -22.5t24.5 -34t9 -41.5zM329 692q0 16 -11.5 27t-28.5 11t-28.5 -11t-11.5 -27t11.5 -27t28.5 -11t28.5 11t11.5 27z" />
    <glyph glyph-name="Uhungarumlaut" unicode="&#x170;" horiz-adv-x="628" 
d="M575 222q0 -57 -19.5 -100t-54.5 -72.5t-83 -44.5t-104 -15t-104 15t-83 44.5t-54.5 72.5t-19.5 100v502h200v-504q0 -29 17.5 -44.5t43.5 -15.5t43.5 15.5t17.5 44.5v504h200v-502zM442 785h-99l72 132q20 20 39.5 29t43.5 9t36.5 -11t17.5 -27zM260 785h-99l72 132
q20 20 39.5 29t43.5 9t36.5 -11t17.5 -27z" />
    <glyph glyph-name="uhungarumlaut" unicode="&#x171;" horiz-adv-x="578" 
d="M531 184q0 -92 -63.5 -144.5t-178.5 -52.5t-178.5 52.5t-63.5 144.5v355h194v-357q0 -21 14.5 -33t33.5 -12t33.5 12t14.5 33v357h194v-355zM418 600h-99l72 132q20 20 39.5 29t43.5 9t36.5 -11t17.5 -27zM236 600h-99l72 132q20 20 39.5 29t43.5 9t36.5 -11t17.5 -27z
" />
    <glyph glyph-name="Uogonek" unicode="&#x172;" horiz-adv-x="628" 
d="M575 222q0 -81 -39.5 -135t-105.5 -78q-42 -22 -62 -49t-20 -47q0 -14 9.5 -23t28.5 -9q11 0 24 3.5t25 8.5l30 -79q-23 -15 -54.5 -24t-63.5 -9q-60 0 -95 26.5t-35 68.5q0 26 17 56.5t56 58.5q-52 3 -95.5 19.5t-75 45.5t-49 70.5t-17.5 95.5v502h200v-504
q0 -29 17.5 -44.5t43.5 -15.5t43.5 15.5t17.5 44.5v504h200v-502z" />
    <glyph glyph-name="uogonek" unicode="&#x173;" horiz-adv-x="578" 
d="M531 184q0 -63 -30 -108t-87 -68q-42 -22 -61.5 -48.5t-19.5 -46.5q0 -14 9.5 -23t28.5 -9q11 0 24 3.5t25 8.5l30 -79q-23 -15 -54.5 -24t-63.5 -9q-60 0 -95 26.5t-35 68.5q0 25 16 54.5t53 56.5q-107 5 -165.5 57t-58.5 140v355h194v-357q0 -21 14.5 -33t33.5 -12
t33.5 12t14.5 33v357h194v-355z" />
    <glyph glyph-name="Wcircumflex" unicode="&#x174;" horiz-adv-x="918" 
d="M737 0h-191l-68 320q-8 34 -12 63t-6 47h-2q-3 -22 -6.5 -48t-11.5 -62l-68 -320h-191l-175 724h202l62 -377q5 -29 8 -52t5 -45h2q2 15 5 41.5t9 55.5l79 377h162l79 -377q5 -27 8.5 -53.5t5.5 -43.5h2q2 19 5 42t8 55l62 377h202zM550 769l-90 76l-90 -76l-72 59
l107 108q23 23 55 23t55 -23l107 -108z" />
    <glyph glyph-name="wcircumflex" unicode="&#x175;" horiz-adv-x="860" 
d="M701 0h-202l-53 233q-6 27 -9.5 49.5t-5.5 38.5h-2q-2 -12 -6 -38t-9 -50l-53 -233h-202l-149 539h195l46 -275q4 -22 6.5 -49.5t4.5 -44.5h2q2 16 6.5 42t10.5 52l62 275h174l62 -275q2 -8 4.5 -20t5 -25.5t4.5 -26.5t3 -22h2q2 16 4 41.5t7 52.5l46 275h195zM520 584
l-90 76l-90 -76l-72 59l107 108q23 23 55 23t55 -23l107 -108z" />
    <glyph glyph-name="Ycircumflex" unicode="&#x176;" horiz-adv-x="576" 
d="M388 278v-278h-200v278l-198 446h214l83 -245h2l83 245h214zM378 769l-90 76l-90 -76l-72 59l107 108q23 23 55 23t55 -23l107 -108z" />
    <glyph glyph-name="ycircumflex" unicode="&#x177;" horiz-adv-x="568" 
d="M381 195v-195h-194v195l-197 344h222l71 -176h2l71 176h222zM374 584l-90 76l-90 -76l-72 59l107 108q23 23 55 23t55 -23l107 -108z" />
    <glyph glyph-name="Ydieresis" unicode="&#x178;" horiz-adv-x="576" 
d="M388 278v-278h-200v278l-198 446h214l83 -245h2l83 245h214zM264 857q0 -33 -25.5 -56.5t-61.5 -23.5t-61.5 23.5t-25.5 56.5t25.5 56.5t61.5 23.5t61.5 -23.5t25.5 -56.5zM487 857q0 -33 -25.5 -56.5t-61.5 -23.5t-61.5 23.5t-25.5 56.5t25.5 56.5t61.5 23.5t61.5 -23.5
t25.5 -56.5z" />
    <glyph glyph-name="Zacute" unicode="&#x179;" horiz-adv-x="522" 
d="M12 0l204 558h-174v166h444l-203 -558h203v-166h-474zM308 785h-128l67 132q21 21 48.5 29.5t53.5 8.5q27 0 48.5 -10.5t26.5 -27.5z" />
    <glyph glyph-name="zacute" unicode="&#x17a;" horiz-adv-x="486" 
d="M18 0l170 389h-150v150h416l-170 -389h170v-150h-436zM293 600h-128l67 132q21 21 48.5 29.5t53.5 8.5q27 0 48.5 -10.5t26.5 -27.5z" />
    <glyph glyph-name="Zdotaccent" unicode="&#x17b;" horiz-adv-x="522" 
d="M12 0l204 558h-174v166h444l-203 -558h203v-166h-474zM367 873q0 -20 -8 -37t-21.5 -29.5t-32 -20t-39.5 -7.5t-39.5 7.5t-32 20t-21.5 29.5t-8 37q0 19 8 36.5t21.5 30t32 20t39.5 7.5t39.5 -7.5t32 -20t21.5 -30t8 -36.5z" />
    <glyph glyph-name="zdotaccent" unicode="&#x17c;" horiz-adv-x="486" 
d="M18 0l170 389h-150v150h416l-170 -389h170v-150h-436zM348 688q0 -20 -8 -37t-21.5 -29.5t-32 -20t-39.5 -7.5t-39.5 7.5t-32 20t-21.5 29.5t-8 37q0 19 8 36.5t21.5 30t32 20t39.5 7.5t39.5 -7.5t32 -20t21.5 -30t8 -36.5z" />
    <glyph glyph-name="Zcaron" unicode="&#x17d;" horiz-adv-x="522" 
d="M12 0l204 558h-174v166h444l-203 -558h203v-166h-474zM308 794q-11 -11 -25 -17t-30 -6t-30 6t-25 17l-107 108l72 59l90 -76l90 76l72 -59z" />
    <glyph glyph-name="zcaron" unicode="&#x17e;" horiz-adv-x="486" 
d="M18 0l170 389h-150v150h416l-170 -389h170v-150h-436zM291 609q-11 -11 -25 -17t-30 -6t-30 6t-25 17l-107 108l72 59l90 -76l90 76l72 -59z" />
    <glyph glyph-name="longs" unicode="&#x17f;" horiz-adv-x="474" 
d="M448 167q0 -83 -58.5 -131.5t-181.5 -48.5q-54 0 -100.5 10t-89.5 30l60 146q27 -15 62 -25t62 -10q20 0 31.5 8.5t11.5 21.5q0 17 -15.5 26t-38.5 17t-50.5 19t-51.5 29.5t-40.5 47.5t-16.5 72q0 81 57.5 127t161.5 46q50 0 96.5 -10t87.5 -30l-56 -129q-23 13 -49 21
t-52 8q-22 0 -34.5 -8.5t-12.5 -22.5q0 -11 6.5 -18.5t16 -13.5t20 -9.5t18.5 -6.5q23 -8 50.5 -19t51 -29.5t39 -46.5t15.5 -71z" />
    <glyph glyph-name="uni018F" unicode="&#x18f;" horiz-adv-x="640" 
d="M606 362q0 -82 -20 -150.5t-58.5 -118.5t-94 -78t-125.5 -28q-80 0 -133 33t-84.5 86.5t-45 119.5t-13.5 132q0 30 3 60l361 45q-9 49 -46.5 79.5t-99.5 30.5q-35 0 -70 -6.5t-65 -19.5l-67 149q49 22 107 31.5t121 9.5q80 0 141.5 -28t103.5 -78.5t63.5 -119
t21.5 -149.5zM235 288q0 -27 5 -51t15 -42t23.5 -28.5t31.5 -10.5q44 0 69.5 42.5t25.5 110.5z" />
    <glyph glyph-name="florin" unicode="&#x192;" horiz-adv-x="514" 
d="M443 404q-18 9 -36 9q-19 0 -32.5 -11t-16.5 -35l-6 -51h83v-126h-99l-24 -191q-11 -85 -61 -128.5t-127 -43.5q-35 0 -68.5 6.5t-55.5 17.5l46 131q19 -10 37 -10q19 0 31.5 11.5t15.5 35.5l22 171h-79v126h95l8 65q11 88 60 129.5t132 41.5q38 0 67.5 -6.5t52.5 -17.5z
" />
    <glyph glyph-name="uni01B5" unicode="&#x1b5;" horiz-adv-x="522" 
d="M12 0l109 297h-77v130h124l48 131h-174v166h444l-108 -297h84v-130h-131l-48 -131h203v-166h-474z" />
    <glyph glyph-name="uni01B6" unicode="&#x1b6;" horiz-adv-x="486" 
d="M18 0l95 217h-63v108h110l28 64h-150v150h416l-94 -214h70v-108h-117l-29 -67h170v-150h-436z" />
    <glyph glyph-name="uni01C4" unicode="&#x1c4;" horiz-adv-x="1124" 
d="M593 362q0 -177 -80 -276t-248 -99q-64 0 -119.5 11.5t-92.5 28.5v670q34 16 91.5 28t120.5 12q168 0 248 -99t80 -276zM393 362q0 111 -29.5 159.5t-85.5 48.5q-16 0 -25 -3v-411q5 -1 11.5 -1.5t13.5 -0.5q56 0 85.5 48.5t29.5 159.5zM614 0l204 558h-174v166h444
l-203 -558h203v-166h-474zM910 794q-11 -11 -25 -17t-30 -6t-30 6t-25 17l-107 108l72 59l90 -76l90 76l72 -59z" />
    <glyph glyph-name="uni01C5" unicode="&#x1c5;" horiz-adv-x="1113" 
d="M593 362q0 -177 -80 -276t-248 -99q-64 0 -119.5 11.5t-92.5 28.5v670q34 16 91.5 28t120.5 12q168 0 248 -99t80 -276zM393 362q0 111 -29.5 159.5t-85.5 48.5q-16 0 -25 -3v-411q5 -1 11.5 -1.5t13.5 -0.5q56 0 85.5 48.5t29.5 159.5zM645 0l170 389h-150v150h416
l-170 -389h170v-150h-436zM918 609q-11 -11 -25 -17t-30 -6t-30 6t-25 17l-107 108l72 59l90 -76l90 76l72 -59zM645 0l170 389h-150v150h416l-170 -389h170v-150h-436zM918 609q-11 -11 -25 -17t-30 -6t-30 6t-25 17l-107 108l72 59l90 -76l90 76l72 -59z" />
    <glyph glyph-name="uni01C6" unicode="&#x1c6;" horiz-adv-x="1046" 
d="M547 270q0 -137 -75.5 -210t-211.5 -73q-59 0 -113.5 10t-99.5 30v485q45 20 99.5 30t113.5 10q136 0 211.5 -72.5t75.5 -209.5zM353 270q0 83 -24.5 116t-66.5 33h-11q-5 0 -10 -2v-295q10 -2 21 -2q42 0 66.5 33.5t24.5 116.5zM578 0l170 389h-150v150h416l-170 -389
h170v-150h-436zM851 609q-11 -11 -25 -17t-30 -6t-30 6t-25 17l-107 108l72 59l90 -76l90 76l72 -59z" />
    <glyph glyph-name="uni01C7" unicode="&#x1c7;" horiz-adv-x="785" 
d="M53 0v724h200v-558h174v-166h-374zM732 80q0 -142 -81.5 -216t-222.5 -84v170q45 7 74.5 38.5t29.5 91.5v644h200v-644z" />
    <glyph glyph-name="uni01C8" unicode="&#x1c8;" horiz-adv-x="767" 
d="M53 0v724h200v-558h174v-166h-374zM720 80q0 -84 -22.5 -140.5t-61 -91t-90 -51.5t-109.5 -22v158q17 4 33 14t28.5 27t20 43t7.5 63v459h194v-459z" />
    <glyph glyph-name="uni01C9" unicode="&#x1c9;" horiz-adv-x="715" 
d="M47 0v539h194v-389h139v-150h-333zM668 80q0 -84 -22.5 -140.5t-61 -91t-90 -51.5t-109.5 -22v158q17 4 33 14t28.5 27t20 43t7.5 63v459h194v-459z" />
    <glyph glyph-name="uni01CA" unicode="&#x1ca;" horiz-adv-x="960" 
d="M446 0l-180 320q-18 32 -28.5 55.5t-15.5 34.5h-2q0 -8 1 -36.5t1 -63.5v-310h-169v724h161l174 -308q12 -21 24 -46.5t20 -43.5h2q-1 13 -1.5 40.5t-0.5 62.5v295h169v-724h-155zM907 80q0 -142 -81.5 -216t-222.5 -84v170q45 7 74.5 38.5t29.5 91.5v644h200v-644z" />
    <glyph glyph-name="uni01CB" unicode="&#x1cb;" horiz-adv-x="942" 
d="M446 0l-180 320q-18 32 -28.5 55.5t-15.5 34.5h-2q0 -8 1 -36.5t1 -63.5v-310h-169v724h161l174 -308q12 -21 24 -46.5t20 -43.5h2q-1 13 -1.5 40.5t-0.5 62.5v295h169v-724h-155zM895 80q0 -84 -22.5 -140.5t-61 -91t-90 -51.5t-109.5 -22v158q17 4 33 14t28.5 27t20 43
t7.5 63v459h194v-459z" />
    <glyph glyph-name="uni01CC" unicode="&#x1cc;" horiz-adv-x="910" 
d="M380 0l-134 239q-11 19 -19.5 37.5t-13.5 29.5h-2q1 -20 1.5 -35t0.5 -40v-231h-166v539h190l129 -229q9 -15 17.5 -33t15.5 -34h2q-1 15 -1.5 32t-0.5 45v219h166v-539h-185zM863 80q0 -84 -22.5 -140.5t-61 -91t-90 -51.5t-109.5 -22v158q17 4 33 14t28.5 27t20 43
t7.5 63v459h194v-459z" />
    <glyph glyph-name="uni01F1" unicode="&#x1f1;" horiz-adv-x="1124" 
d="M593 362q0 -177 -80 -276t-248 -99q-64 0 -119.5 11.5t-92.5 28.5v670q34 16 91.5 28t120.5 12q168 0 248 -99t80 -276zM393 362q0 111 -29.5 159.5t-85.5 48.5q-16 0 -25 -3v-411q5 -1 11.5 -1.5t13.5 -0.5q56 0 85.5 48.5t29.5 159.5zM614 0l204 558h-174v166h444
l-203 -558h203v-166h-474z" />
    <glyph glyph-name="uni01F2" unicode="&#x1f2;" horiz-adv-x="1113" 
d="M593 362q0 -177 -80 -276t-248 -99q-64 0 -119.5 11.5t-92.5 28.5v670q34 16 91.5 28t120.5 12q168 0 248 -99t80 -276zM393 362q0 111 -29.5 159.5t-85.5 48.5q-16 0 -25 -3v-411q5 -1 11.5 -1.5t13.5 -0.5q56 0 85.5 48.5t29.5 159.5zM645 0l170 389h-150v150h416
l-170 -389h170v-150h-436z" />
    <glyph glyph-name="uni01F3" unicode="&#x1f3;" horiz-adv-x="1046" 
d="M547 270q0 -137 -75.5 -210t-211.5 -73q-59 0 -113.5 10t-99.5 30v485q45 20 99.5 30t113.5 10q136 0 211.5 -72.5t75.5 -209.5zM353 270q0 83 -24.5 116t-66.5 33h-11q-5 0 -10 -2v-295q10 -2 21 -2q42 0 66.5 33.5t24.5 116.5zM578 0l170 389h-150v150h416l-170 -389
h170v-150h-436z" />
    <glyph glyph-name="Aringacute" unicode="&#x1fa;" horiz-adv-x="672" 
d="M462 823q-51 -56 -139 -56q-25 0 -46 8t-36.5 22.5t-24.5 33.5t-9 42q0 22 9 41.5t24.5 34t36.5 22.5t46 8q29 0 49.5 -12.5t31.5 -30.5l25 37q17 16 42 24.5t50 8.5q26 0 46 -10t26 -30zM363 873q0 16 -11.5 27t-28.5 11t-28.5 -11t-11.5 -27t11.5 -27t28.5 -11t28.5 11
t11.5 27zM471 0l-31 124h-208l-31 -124h-209l225 724h238l225 -724h-209zM354 466q-6 24 -10.5 49t-6.5 44h-2q-2 -19 -6.5 -44t-10.5 -49l-50 -198h136z" />
    <glyph glyph-name="aringacute" unicode="&#x1fb;" horiz-adv-x="598" 
d="M428 642q-51 -56 -139 -56q-25 0 -46 8t-36.5 22.5t-24.5 33.5t-9 42q0 22 9 41.5t24.5 34t36.5 22.5t46 8q29 0 49.5 -12.5t31.5 -30.5l25 37q17 16 42 24.5t50 8.5q26 0 46 -10t26 -30zM329 692q0 16 -11.5 27t-28.5 11t-28.5 -11t-11.5 -27t11.5 -27t28.5 -11t28.5 11
t11.5 27zM399 0l-23 92h-154l-23 -92h-207l193 539h228l193 -539h-207zM312 343q-4 15 -7 31.5t-5 30.5h-2q-2 -14 -5 -30.5t-7 -31.5l-37 -144h100z" />
    <glyph glyph-name="AEacute" unicode="&#x1fc;" horiz-adv-x="848" 
d="M462 0l-16 124h-208l-46 -124h-212l313 724h479v-166h-210l22 -115h178v-162h-147l22 -115h179v-166h-354zM402 466q-4 28 -5 53.5t-1 39.5h-2q-2 -10 -9.5 -36.5t-18.5 -56.5l-75 -198h136zM561 785h-128l67 132q21 21 48.5 29.5t53.5 8.5q27 0 48.5 -10.5t26.5 -27.5z
" />
    <glyph glyph-name="aeacute" unicode="&#x1fd;" horiz-adv-x="747" 
d="M386 0l-9 92h-154l-37 -92h-210l274 539h439v-127h-185l17 -80h156v-124h-130l17 -81h155v-127h-333zM350 343q-2 12 -2 32v30h-2q-3 -9 -8 -24.5t-14 -37.5l-58 -144h100zM494 600h-128l67 132q21 21 48.5 29.5t53.5 8.5q27 0 48.5 -10.5t26.5 -27.5z" />
    <glyph glyph-name="Oslashacute" unicode="&#x1fe;" horiz-adv-x="636" 
d="M602 362q0 -81 -17 -149.5t-51.5 -119t-88.5 -78.5t-127 -28q-87 0 -148 43l-52 -84l-83 54l64 104q-33 51 -49 116.5t-16 141.5q0 81 17 149.5t51.5 119t88 78.5t127.5 28q87 0 148 -43l52 84l83 -54l-64 -104q33 -51 49 -116.5t16 -141.5zM377 552q-24 27 -59 27
q-52 0 -77.5 -56t-25.5 -161q0 -37 3 -67zM421 362q0 37 -3 67l-159 -257q24 -27 59 -27q52 0 77.5 56t25.5 161zM366 785h-128l67 132q21 21 48.5 29.5t53.5 8.5q27 0 48.5 -10.5t26.5 -27.5z" />
    <glyph glyph-name="oslashacute" unicode="&#x1ff;" horiz-adv-x="582" 
d="M552 270q0 -61 -17.5 -112.5t-51 -89.5t-82 -59.5t-110.5 -21.5q-38 0 -70.5 8.5t-60.5 24.5l-61 -84l-68 53l63 86q-32 38 -48 88t-16 107q0 61 17.5 112.5t51 89t82 59t110.5 21.5q74 0 130 -32l62 84l68 -53l-64 -86q32 -38 48.5 -88t16.5 -107zM335 403
q-19 14 -44 14q-45 0 -67 -40.5t-22 -104.5q0 -25 3 -46zM380 272q0 23 -3 43l-128 -175q19 -13 42 -13q45 0 67 40.5t22 104.5zM326 600h-128l67 132q21 21 48.5 29.5t53.5 8.5q27 0 48.5 -10.5t26.5 -27.5z" />
    <glyph glyph-name="Scommaaccent" unicode="&#x218;" horiz-adv-x="506" 
d="M477 225q0 -52 -16 -95.5t-47.5 -75t-79.5 -49.5t-111 -18q-54 0 -105 10t-93 30l64 174q26 -14 59 -24t65 -10q30 0 44.5 13.5t14.5 32.5q0 20 -17.5 34.5t-44 29t-57.5 32t-57.5 43t-44 62t-17.5 90.5q0 52 16 94.5t47.5 73.5t78 48t106.5 17q54 0 99 -10.5t81 -29.5
l-60 -160q-23 13 -51 21t-59 8q-29 0 -43.5 -14.5t-14.5 -34.5q0 -21 18 -36.5t45 -30.5t58.5 -33t58.5 -43.5t45 -61.5t18 -87zM246 -215h-126l45 138q20 21 46.5 29.5t52.5 8.5t47.5 -10.5t26.5 -27.5z" />
    <glyph glyph-name="scommaaccent" unicode="&#x219;" horiz-adv-x="474" 
d="M448 167q0 -83 -58.5 -131.5t-181.5 -48.5q-54 0 -100.5 10t-89.5 30l60 146q27 -15 62 -25t62 -10q20 0 31.5 8.5t11.5 21.5q0 17 -15.5 26t-38.5 17t-50.5 19t-51.5 29.5t-40.5 47.5t-16.5 72q0 81 57.5 127t161.5 46q50 0 96.5 -10t87.5 -30l-56 -129q-23 13 -49 21
t-52 8q-22 0 -34.5 -8.5t-12.5 -22.5q0 -11 6.5 -18.5t16 -13.5t20 -9.5t18.5 -6.5q23 -8 50.5 -19t51 -29.5t39 -46.5t15.5 -71zM229 -215h-126l45 138q20 21 46.5 29.5t52.5 8.5t47.5 -10.5t26.5 -27.5z" />
    <glyph glyph-name="uni021A" unicode="&#x21a;" horiz-adv-x="506" 
d="M353 558v-558h-200v558h-123v166h446v-166h-123zM245 -215h-126l45 138q20 21 46.5 29.5t52.5 8.5t47.5 -10.5t26.5 -27.5z" />
    <glyph glyph-name="uni021B" unicode="&#x21b;" horiz-adv-x="470" 
d="M332 389v-389h-194v389h-112v150h418v-150h-112zM225 -215h-126l45 138q20 21 46.5 29.5t52.5 8.5t47.5 -10.5t26.5 -27.5z" />
    <glyph glyph-name="dotlessj" unicode="&#x237;" horiz-adv-x="288" 
d="M241 80q0 -84 -22.5 -140.5t-61 -91t-90 -51.5t-109.5 -22v158q17 4 33 14t28.5 27t20 43t7.5 63v459h194v-459z" />
    <glyph glyph-name="uni0259" unicode="&#x259;" horiz-adv-x="576" 
d="M546 269q0 -62 -18 -113.5t-52 -89t-83.5 -58.5t-112.5 -21q-67 0 -114.5 21.5t-77.5 58.5t-44 86.5t-14 105.5q0 26 3 53l323 41q-11 29 -41.5 43t-71.5 14t-81.5 -9t-72.5 -24l-52 135q39 18 98.5 29t123.5 11q73 0 127.5 -22.5t89.5 -61t52.5 -90t17.5 -109.5z
M217 211q0 -41 18 -64.5t50 -23.5q34 0 59 24t26 82z" />
    <glyph glyph-name="uni02BB" unicode="&#x2bb;" horiz-adv-x="158" 
d="M168 591q-16 -29 -43.5 -43.5t-54.5 -14.5q-26 0 -46.5 14.5t-23.5 43.5l104 194h123z" />
    <glyph glyph-name="afii57929" unicode="&#x2bc;" horiz-adv-x="158" 
d="M133 539h-123l59 194q16 29 43.5 43.5t54.5 14.5q26 0 46.5 -14.5t23.5 -43.5z" />
    <glyph glyph-name="circumflex" unicode="&#x2c6;" horiz-adv-x="380" 
d="M280 584l-90 76l-90 -76l-72 59l107 108q23 23 55 23t55 -23l107 -108z" />
    <glyph glyph-name="caron" unicode="&#x2c7;" horiz-adv-x="380" 
d="M245 609q-11 -11 -25 -17t-30 -6t-30 6t-25 17l-107 108l72 59l90 -76l90 76l72 -59z" />
    <glyph glyph-name="breve" unicode="&#x2d8;" horiz-adv-x="380" 
d="M354 759q-4 -77 -43.5 -123.5t-120.5 -46.5t-120.5 46.5t-43.5 123.5l103 17q2 -38 16 -58.5t45 -20.5t45 20.5t16 58.5z" />
    <glyph glyph-name="dotaccent" unicode="&#x2d9;" horiz-adv-x="380" 
d="M291 688q0 -20 -8 -37t-21.5 -29.5t-32 -20t-39.5 -7.5t-39.5 7.5t-32 20t-21.5 29.5t-8 37q0 19 8 36.5t21.5 30t32 20t39.5 7.5t39.5 -7.5t32 -20t21.5 -30t8 -36.5z" />
    <glyph glyph-name="ring" unicode="&#x2da;" horiz-adv-x="380" 
d="M306 692q0 -23 -9 -42t-24.5 -33.5t-36.5 -22.5t-46 -8t-46 8t-36.5 22.5t-24.5 33.5t-9 42q0 22 9 41.5t24.5 34t36.5 22.5t46 8t46 -8t36.5 -22.5t24.5 -34t9 -41.5zM230 692q0 16 -11.5 27t-28.5 11t-28.5 -11t-11.5 -27t11.5 -27t28.5 -11t28.5 11t11.5 27z" />
    <glyph glyph-name="ogonek" unicode="&#x2db;" horiz-adv-x="380" 
d="M380 -186q-23 -15 -54.5 -24t-63.5 -9q-60 0 -95 26.5t-35 68.5q0 16 6.5 34t20 36.5t35.5 36t53 32.5h110q-48 -23 -71 -51.5t-23 -50.5q0 -14 9.5 -23t28.5 -9q11 0 24 3.5t25 8.5z" />
    <glyph glyph-name="tilde" unicode="&#x2dc;" horiz-adv-x="380" 
d="M356 715q-5 -54 -31 -86t-68 -32q-20 0 -34 6.5t-25.5 14t-23 14t-24.5 6.5q-37 0 -45 -49l-81 48q5 54 31 86t68 32q19 0 33.5 -6.5t26 -14t22.5 -14t25 -6.5q37 0 45 49z" />
    <glyph glyph-name="hungarumlaut" unicode="&#x2dd;" horiz-adv-x="380" 
d="M309 600h-99l72 132q20 20 39.5 29t43.5 9t36.5 -11t17.5 -27zM127 600h-99l72 132q20 20 39.5 29t43.5 9t36.5 -11t17.5 -27z" />
    <glyph glyph-name="uni030F" unicode="&#x30f;" horiz-adv-x="1" 
d="M-126 600l-110 132q5 16 17.5 27t36.5 11t43.5 -9t39.5 -29l72 -132h-99zM-308 600l-110 132q5 16 17.5 27t36.5 11t43.5 -9t39.5 -29l72 -132h-99z" />
    <glyph glyph-name="uni0311" unicode="&#x311;" horiz-adv-x="1" 
d="M-128 589q-2 38 -16 58.5t-45 20.5t-45 -20.5t-16 -58.5l-103 17q4 77 43.5 123.5t120.5 46.5t120.5 -46.5t43.5 -123.5z" />
    <glyph glyph-name="uni037E" unicode="&#x37e;" horiz-adv-x="280" 
d="M282 435q0 -24 -9 -45t-25 -37t-37 -25t-45 -9t-45 9t-37 25t-25 37t-9 45t9 45t25 37t37 25t45 9t45 -9t37 -25t25 -37t9 -45zM107 -169h-131l98 323q18 29 48.5 48t74.5 19t63 -19.5t24 -47.5z" />
    <glyph glyph-name="tonos" unicode="&#x384;" horiz-adv-x="300" 
d="M190 599h-108l37 148q11 17 36 27.5t52 10.5q23 0 42 -9t29 -29z" />
    <glyph glyph-name="dieresistonos" unicode="&#x385;" horiz-adv-x="308" 
d="M367 672q0 -33 -19.5 -56.5t-48.5 -23.5t-48.5 23.5t-19.5 56.5t19.5 56.5t48.5 23.5t48.5 -23.5t19.5 -56.5zM165 599h-79l15 157q8 20 25.5 30.5t36.5 10.5t35.5 -10.5t21.5 -30.5zM60 672q0 -33 -19.5 -56.5t-48.5 -23.5t-48.5 23.5t-19.5 56.5t19.5 56.5t48.5 23.5
t48.5 -23.5t19.5 -56.5z" />
    <glyph glyph-name="Alphatonos" unicode="&#x386;" horiz-adv-x="672" 
d="M471 0l-31 124h-208l-31 -124h-209l225 724h238l225 -724h-209zM354 466q-6 25 -10.5 52t-6.5 41h-2q-2 -13 -5.5 -38.5t-11.5 -54.5l-50 -198h136z" />
    <glyph glyph-name="anoteleia" unicode="&#x387;" horiz-adv-x="312" 
d="M282 325q0 -26 -10 -49t-27 -40t-40 -27t-49 -10t-49 10t-40 27t-27 40t-10 49t10 49t27 40t40 27t49 10t49 -10t40 -27t27 -40t10 -49z" />
    <glyph glyph-name="Epsilontonos" unicode="&#x388;" horiz-adv-x="489" 
d="M53 0v724h396v-166h-200v-115h176v-162h-176v-115h200v-166h-396z" />
    <glyph glyph-name="Etatonos" unicode="&#x389;" horiz-adv-x="636" 
d="M383 0v281h-130v-281h-200v724h200v-281h130v281h200v-724h-200z" />
    <glyph glyph-name="Iotatonos" unicode="&#x38a;" horiz-adv-x="306" 
d="M53 0v724h200v-724h-200z" />
    <glyph glyph-name="Omicrontonos" unicode="&#x38c;" horiz-adv-x="636" 
d="M602 362q0 -81 -17 -149.5t-51.5 -119t-88.5 -78.5t-127 -28q-74 0 -127.5 28t-88 78.5t-51.5 119t-17 149.5t17 149.5t51.5 119t88 78.5t127.5 28q73 0 127 -28t88.5 -78.5t51.5 -119t17 -149.5zM402 362q0 98 -21 148.5t-63 50.5t-63 -50.5t-21 -148.5t21 -148.5
t63 -50.5t63 50.5t21 148.5z" />
    <glyph glyph-name="Upsilontonos" unicode="&#x38e;" horiz-adv-x="612" 
d="M594 546q-45 -17 -80 -48t-59 -72t-36.5 -89.5t-12.5 -100.5v-236h-200v236q0 52 -12.5 100.5t-36.5 89.5t-59 72t-80 48l26 191q50 -10 94 -32.5t78.5 -55t57.5 -73.5t31 -86h2q8 45 31 86t57.5 73.5t78.5 55t94 32.5z" />
    <glyph glyph-name="Omegatonos" unicode="&#x38f;" horiz-adv-x="664" 
d="M366 0v142q13 22 23.5 51t18 62t12 68.5t4.5 68.5q0 34 -5 65t-16 54t-28.5 36.5t-42.5 13.5t-42.5 -13.5t-28.5 -36.5t-16 -54t-5 -65q0 -33 4.5 -68.5t12 -68.5t18 -62t23.5 -51v-142h-268v152h100q-45 57 -68 129t-23 145q0 60 17 116.5t53 99.5t91 69t132 26
q76 0 131.5 -26t91.5 -69t53 -99.5t17 -116.5q0 -73 -23 -145t-68 -129h100v-152h-268z" />
    <glyph glyph-name="iotadieresistonos" unicode="&#x390;" horiz-adv-x="288" 
d="M47 0v539h194v-539h-194zM119 672q0 -33 -25.5 -56.5t-61.5 -23.5t-61.5 23.5t-25.5 56.5t25.5 56.5t61.5 23.5t61.5 -23.5t25.5 -56.5zM343 672q0 -33 -25.5 -56.5t-61.5 -23.5t-61.5 23.5t-25.5 56.5t25.5 56.5t61.5 23.5t61.5 -23.5t25.5 -56.5z" />
    <glyph glyph-name="Alpha" unicode="&#x391;" horiz-adv-x="672" 
d="M471 0l-31 124h-208l-31 -124h-209l225 724h238l225 -724h-209zM354 466q-6 25 -10.5 52t-6.5 41h-2q-2 -13 -5.5 -38.5t-11.5 -54.5l-50 -198h136z" />
    <glyph glyph-name="Beta" unicode="&#x392;" horiz-adv-x="625" 
d="M595 202q0 -101 -74.5 -158t-228.5 -57q-71 0 -134.5 11.5t-104.5 28.5v670q46 18 108 29t131 11q77 0 132 -15.5t90 -43.5t51.5 -65.5t16.5 -82.5q0 -27 -8 -51.5t-22 -44.5t-32.5 -35t-40.5 -22v-2q20 -8 41 -23.5t37.5 -37.5t27 -50.5t10.5 -61.5zM392 508
q0 37 -21.5 59t-79.5 22q-29 0 -49 -5v-152h71q20 0 36 5.5t23 12.5q20 20 20 58zM397 216q0 18 -5.5 33.5t-15.5 24.5t-25 14.5t-38 5.5h-71v-154q8 -2 21.5 -3.5t27.5 -1.5q57 0 81.5 18t24.5 63z" />
    <glyph glyph-name="Gamma" unicode="&#x393;" horiz-adv-x="481" 
d="M253 558v-558h-200v724h400v-166h-200z" />
    <glyph glyph-name="uni0394" unicode="&#x394;" horiz-adv-x="672" 
d="M-8 0l225 724h238l225 -724h-688zM354 466q-7 26 -11 51t-6 42h-2q-2 -17 -5.5 -40t-11.5 -53l-79 -316h194z" />
    <glyph glyph-name="Epsilon" unicode="&#x395;" horiz-adv-x="489" 
d="M53 0v724h396v-166h-200v-115h176v-162h-176v-115h200v-166h-396z" />
    <glyph glyph-name="Zeta" unicode="&#x396;" horiz-adv-x="522" 
d="M12 0l204 558h-174v166h444l-203 -558h203v-166h-474z" />
    <glyph glyph-name="Eta" unicode="&#x397;" horiz-adv-x="636" 
d="M383 0v281h-130v-281h-200v724h200v-281h130v281h200v-724h-200z" />
    <glyph glyph-name="Theta" unicode="&#x398;" horiz-adv-x="716" 
d="M682 362q0 -77 -20.5 -145.5t-61 -119.5t-101.5 -80.5t-141 -29.5t-141 29.5t-101.5 80.5t-61 119.5t-20.5 145.5t20.5 145.5t61 119.5t101.5 80.5t141 29.5t141 -29.5t101.5 -80.5t61 -119.5t20.5 -145.5zM494 362q0 46 -8 85t-24.5 67t-42.5 43.5t-61 15.5t-61 -15.5
t-42.5 -43.5t-24.5 -67t-8 -85t8 -85t24.5 -67t42.5 -43.5t61 -15.5t61 15.5t42.5 43.5t24.5 67t8 85zM273 281v162h170v-162h-170z" />
    <glyph glyph-name="Iota" unicode="&#x399;" horiz-adv-x="306" 
d="M53 0v724h200v-724h-200z" />
    <glyph glyph-name="Kappa" unicode="&#x39a;" horiz-adv-x="646" 
d="M421 0l-166 347h-2v-347h-200v724h200v-321h2l165 321h221l-189 -349l193 -375h-224z" />
    <glyph glyph-name="Lambda" unicode="&#x39b;" horiz-adv-x="672" 
d="M460 0l-106 422q-8 29 -12 57l-5 44h-2q-2 -20 -5.5 -46t-11.5 -55l-106 -422h-220l225 724h238l225 -724h-220z" />
    <glyph glyph-name="Mu" unicode="&#x39c;" horiz-adv-x="874" 
d="M668 0l-32 373q-1 14 -2 30t-2 31t-2 27.5t-1 19.5h-2q-6 -30 -11.5 -53.5t-13.5 -54.5l-106 -373h-118l-106 373q-9 33 -15 60.5t-10 47.5h-2q-1 -19 -2.5 -44.5t-4.5 -63.5l-32 -373h-184l84 724h221l88 -320q8 -29 13.5 -56.5t7.5 -41.5h2q2 9 7.5 37.5t13.5 60.5
l88 320h221l84 -724h-184z" />
    <glyph glyph-name="Nu" unicode="&#x39d;" horiz-adv-x="654" 
d="M446 0l-180 320q-18 32 -28.5 55.5t-15.5 34.5h-2q0 -8 1 -36.5t1 -63.5v-310h-169v724h161l174 -308q12 -21 24 -46.5t20 -43.5h2q-1 13 -1.5 40.5t-0.5 62.5v295h169v-724h-155z" />
    <glyph glyph-name="Xi" unicode="&#x39e;" horiz-adv-x="548" 
d="M46 558v166h456v-166h-456zM76 281v162h396v-162h-396zM40 0v166h468v-166h-468z" />
    <glyph glyph-name="Omicron" unicode="&#x39f;" horiz-adv-x="636" 
d="M602 362q0 -81 -17 -149.5t-51.5 -119t-88.5 -78.5t-127 -28q-74 0 -127.5 28t-88 78.5t-51.5 119t-17 149.5t17 149.5t51.5 119t88 78.5t127.5 28q73 0 127 -28t88.5 -78.5t51.5 -119t17 -149.5zM402 362q0 98 -21 148.5t-63 50.5t-63 -50.5t-21 -148.5t21 -148.5
t63 -50.5t63 50.5t21 148.5z" />
    <glyph glyph-name="Pi" unicode="&#x3a0;" horiz-adv-x="636" 
d="M383 0v562h-130v-562h-200v724h530v-724h-200z" />
    <glyph glyph-name="Rho" unicode="&#x3a1;" horiz-adv-x="611" 
d="M585 493q0 -51 -17.5 -94.5t-53.5 -75.5t-90.5 -50t-127.5 -18q-13 0 -26 0.5t-21 2.5v-258h-196v697q46 19 104 29.5t127 10.5q73 0 129 -17.5t94.5 -49.5t58 -77t19.5 -100zM389 494q0 50 -25.5 72t-77.5 22q-11 0 -20.5 -1t-16.5 -3v-178q12 -3 37 -3q103 0 103 91z
" />
    <glyph glyph-name="Sigma" unicode="&#x3a3;" horiz-adv-x="534" 
d="M32 0v128l185 236l-185 232v128h466v-166h-226l169 -194l-169 -198h226v-166h-466z" />
    <glyph glyph-name="Tau" unicode="&#x3a4;" horiz-adv-x="506" 
d="M353 558v-558h-200v558h-123v166h446v-166h-123z" />
    <glyph glyph-name="Upsilon" unicode="&#x3a5;" horiz-adv-x="612" 
d="M594 546q-45 -17 -80 -48t-59 -72t-36.5 -89.5t-12.5 -100.5v-236h-200v236q0 52 -12.5 100.5t-36.5 89.5t-59 72t-80 48l26 191q50 -10 94 -32.5t78.5 -55t57.5 -73.5t31 -86h2q8 45 31 86t57.5 73.5t78.5 55t94 32.5z" />
    <glyph glyph-name="Phi" unicode="&#x3a6;" horiz-adv-x="858" 
d="M828 365q0 -60 -21 -115.5t-60.5 -99.5t-97.5 -72t-133 -33v-72h-174v72q-75 5 -133 33t-97.5 72t-60.5 99.5t-21 115.5t21 115.5t60.5 99.5t97.5 72t133 33v66h174v-66q75 -5 133 -33t97.5 -72t60.5 -99.5t21 -115.5zM632 366q0 30 -7 59t-21.5 52.5t-36 38.5t-51.5 18
v-336q30 2 51.5 17t36 38.5t21.5 53t7 59.5zM342 534q-30 -3 -51.5 -18t-36 -38.5t-21.5 -52.5t-7 -59t7 -59.5t21.5 -53t36 -38.5t51.5 -17v336z" />
    <glyph glyph-name="Chi" unicode="&#x3a7;" horiz-adv-x="618" 
d="M408 0l-98 218h-2l-98 -218h-220l200 376l-184 348h218l84 -191h2l84 191h218l-184 -348l200 -376h-220z" />
    <glyph glyph-name="Psi" unicode="&#x3a8;" horiz-adv-x="846" 
d="M798 442q0 -59 -19.5 -107.5t-56 -84t-89.5 -56t-119 -22.5v-172h-182v172q-66 2 -119 22.5t-89.5 56t-56 84t-19.5 107.5v282h182v-282q0 -58 25.5 -85.5t76.5 -31.5v399h182v-399q51 4 76.5 31.5t25.5 85.5v282h182v-282z" />
    <glyph glyph-name="uni03A9" unicode="&#x3a9;" horiz-adv-x="664" 
d="M366 0v142q13 22 23.5 51t18 62t12 68.5t4.5 68.5q0 34 -5 65t-16 54t-28.5 36.5t-42.5 13.5t-42.5 -13.5t-28.5 -36.5t-16 -54t-5 -65q0 -33 4.5 -68.5t12 -68.5t18 -62t23.5 -51v-142h-268v152h100q-45 57 -68 129t-23 145q0 60 17 116.5t53 99.5t91 69t132 26
q76 0 131.5 -26t91.5 -69t53 -99.5t17 -116.5q0 -73 -23 -145t-68 -129h100v-152h-268z" />
    <glyph glyph-name="Iotadieresis" unicode="&#x3aa;" horiz-adv-x="306" 
d="M53 0v724h200v-724h-200zM353 857q0 -33 -25.5 -56.5t-61.5 -23.5t-61.5 23.5t-25.5 56.5t25.5 56.5t61.5 23.5t61.5 -23.5t25.5 -56.5zM129 857q0 -33 -25.5 -56.5t-61.5 -23.5t-61.5 23.5t-25.5 56.5t25.5 56.5t61.5 23.5t61.5 -23.5t25.5 -56.5z" />
    <glyph glyph-name="Upsilondieresis" unicode="&#x3ab;" horiz-adv-x="612" 
d="M594 546q-45 -17 -80 -48t-59 -72t-36.5 -89.5t-12.5 -100.5v-236h-200v236q0 52 -12.5 100.5t-36.5 89.5t-59 72t-80 48l26 191q50 -10 94 -32.5t78.5 -55t57.5 -73.5t31 -86h2q8 45 31 86t57.5 73.5t78.5 55t94 32.5zM505 832q0 -33 -25.5 -56.5t-61.5 -23.5
t-61.5 23.5t-25.5 56.5t25.5 56.5t61.5 23.5t61.5 -23.5t25.5 -56.5zM281 832q0 -33 -25.5 -56.5t-61.5 -23.5t-61.5 23.5t-25.5 56.5t25.5 56.5t61.5 23.5t61.5 -23.5t25.5 -56.5z" />
    <glyph glyph-name="alphatonos" unicode="&#x3ac;" horiz-adv-x="598" 
d="M399 0l-23 92h-154l-23 -92h-207l193 539h228l193 -539h-207zM312 343q-5 22 -7.5 38t-4.5 24h-2l-5 -30q-3 -18 -7 -32l-37 -144h100z" />
    <glyph glyph-name="epsilontonos" unicode="&#x3ad;" horiz-adv-x="430" 
d="M47 0v539h348v-127h-158v-80h141v-124h-141v-81h158v-127h-348z" />
    <glyph glyph-name="etatonos" unicode="&#x3ae;" horiz-adv-x="586" 
d="M345 0v196h-104v-196h-194v539h194v-195h104v195h194v-539h-194z" />
    <glyph glyph-name="iotatonos" unicode="&#x3af;" horiz-adv-x="288" 
d="M47 0v539h194v-539h-194z" />
    <glyph glyph-name="upsilondieresistonos" unicode="&#x3b0;" horiz-adv-x="566" 
d="M550 372q-82 -16 -126.5 -72.5t-44.5 -137.5v-162h-192v162q0 81 -44.5 137.5t-126.5 72.5l24 180q45 -8 86 -25t73 -41t53.5 -54t29.5 -63h2q7 33 29 63t54 54t73 41t86 25zM483 672q0 -33 -25.5 -56.5t-61.5 -23.5t-61.5 23.5t-25.5 56.5t25.5 56.5t61.5 23.5
t61.5 -23.5t25.5 -56.5zM259 672q0 -33 -25.5 -56.5t-61.5 -23.5t-61.5 23.5t-25.5 56.5t25.5 56.5t61.5 23.5t61.5 -23.5t25.5 -56.5z" />
    <glyph glyph-name="alpha" unicode="&#x3b1;" horiz-adv-x="598" 
d="M399 0l-23 92h-154l-23 -92h-207l193 539h228l193 -539h-207zM312 343q-5 22 -7.5 38t-4.5 24h-2l-5 -30q-3 -18 -7 -32l-37 -144h100z" />
    <glyph glyph-name="beta" unicode="&#x3b2;" horiz-adv-x="566" 
d="M539 148q0 -88 -67.5 -124.5t-203.5 -36.5q-64 0 -121 10.5t-100 29.5v485q43 19 100 29.5t121 10.5q130 0 195.5 -40t65.5 -116q0 -20 -8.5 -38.5t-23 -34.5t-34.5 -27.5t-43 -16.5v-1q22 -6 43 -16.5t38 -26t27.5 -37.5t10.5 -50zM344 380q0 29 -15.5 44t-60.5 15
q-11 0 -20.5 -1t-16.5 -3v-112h54q15 0 27 4t17 9q15 15 15 44zM348 160q0 14 -4 25.5t-12 18.5t-19 11t-28 4h-54v-115q6 -2 16 -3t21 -1q43 0 61.5 13.5t18.5 46.5z" />
    <glyph glyph-name="gamma" unicode="&#x3b3;" horiz-adv-x="406" 
d="M241 391v-391h-194v539h335v-148h-141z" />
    <glyph glyph-name="delta" unicode="&#x3b4;" horiz-adv-x="598" 
d="M-8 0l193 539h228l193 -539h-614zM314 340q-6 22 -9 37.5t-5 27.5h-2q-2 -13 -5.5 -29.5t-8.5 -35.5l-60 -220h150z" />
    <glyph glyph-name="epsilon" unicode="&#x3b5;" horiz-adv-x="430" 
d="M47 0v539h348v-127h-158v-80h141v-124h-141v-81h158v-127h-348z" />
    <glyph glyph-name="zeta" unicode="&#x3b6;" horiz-adv-x="486" 
d="M18 0l170 389h-150v150h416l-170 -389h170v-150h-436z" />
    <glyph glyph-name="eta" unicode="&#x3b7;" horiz-adv-x="586" 
d="M345 0v196h-104v-196h-194v539h194v-195h104v195h194v-539h-194z" />
    <glyph glyph-name="theta" unicode="&#x3b8;" horiz-adv-x="596" 
d="M566 270q0 -58 -17 -109.5t-50.5 -90t-84 -61t-116.5 -22.5t-116.5 22.5t-84 61t-50.5 90t-17 109.5t17 109.5t50.5 89.5t84 60.5t116.5 22.5t116.5 -22.5t84 -60.5t50.5 -89.5t17 -109.5zM402 270q0 66 -25 107.5t-79 41.5t-79 -41.5t-25 -107.5q0 -33 6 -60.5t19 -47.5
t32.5 -31t46.5 -11t46.5 11t32.5 31t19 47.5t6 60.5zM237 203v134h122v-134h-122z" />
    <glyph glyph-name="iota" unicode="&#x3b9;" horiz-adv-x="288" 
d="M47 0v539h194v-539h-194z" />
    <glyph glyph-name="kappa" unicode="&#x3ba;" horiz-adv-x="590" 
d="M373 0l-132 256h-2v-256h-192v539h192v-235h2l122 235h216l-150 -256l162 -283h-218z" />
    <glyph glyph-name="lambda" unicode="&#x3bb;" horiz-adv-x="594" 
d="M383 0l-76 324q-5 24 -7 40.5t-4 27.5h-2q-2 -11 -4 -27.5t-7 -40.5l-72 -324h-219l182 539h242l186 -539h-219z" />
    <glyph glyph-name="uni03BC" unicode="&#x3bc;" horiz-adv-x="806" 
d="M605 0l-24 278q-2 26 -3 46.5t-2 34.5h-2q-3 -16 -6.5 -35.5t-11.5 -45.5l-79 -278h-148l-79 278q-7 25 -11 44.5t-7 36.5h-2q-1 -14 -2 -35.5t-3 -45.5l-24 -278h-181l71 539h230l66 -238q5 -20 9 -41t6 -32h2l6 33q4 22 9 40l66 238h230l71 -539h-181z" />
    <glyph glyph-name="nu" unicode="&#x3bd;" horiz-adv-x="612" 
d="M380 0l-134 239q-11 20 -20 39t-13 28h-2q1 -14 1.5 -32.5t0.5 -42.5v-231h-166v539h190l129 -229q8 -13 18 -33.5t15 -33.5h2q-1 11 -1.5 32.5t-0.5 44.5v219h166v-539h-185z" />
    <glyph glyph-name="xi" unicode="&#x3be;" horiz-adv-x="482" 
d="M39 395v144h404v-144h-404zM73 199v141h336v-141h-336zM35 0v144h412v-144h-412z" />
    <glyph glyph-name="omicron" unicode="&#x3bf;" horiz-adv-x="582" 
d="M552 270q0 -61 -17.5 -112.5t-51 -89.5t-82 -59.5t-110.5 -21.5t-110.5 21.5t-82 59.5t-51 89.5t-17.5 112.5t17.5 112.5t51 89t82 59t110.5 21.5t110.5 -21.5t82 -59t51 -89t17.5 -112.5zM358 272q0 68 -17.5 99t-49.5 31t-49.5 -31t-17.5 -99t17.5 -99t49.5 -31
t49.5 31t17.5 99z" />
    <glyph glyph-name="pi" unicode="&#x3c0;" horiz-adv-x="586" 
d="M345 0v391h-104v-391h-194v539h492v-539h-194z" />
    <glyph glyph-name="rho" unicode="&#x3c1;" horiz-adv-x="554" 
d="M532 362q0 -88 -64.5 -138t-189.5 -50q-13 0 -24 1t-17 2v-177h-190v512q21 10 46.5 17.5t53.5 12.5t57.5 7.5t58.5 2.5q134 0 201.5 -49.5t67.5 -140.5zM342 362q0 35 -18.5 51.5t-59.5 16.5q-17 0 -27 -3v-129q5 -1 12 -2t15 -1q78 0 78 67z" />
    <glyph glyph-name="sigma1" unicode="&#x3c2;" horiz-adv-x="472" 
d="M26 0v102l137 172l-134 165v100h409v-150h-177l102 -114l-107 -125h186v-150h-416z" />
    <glyph glyph-name="sigma" unicode="&#x3c3;" horiz-adv-x="472" 
d="M26 0v102l137 172l-134 165v100h409v-150h-177l102 -114l-107 -125h186v-150h-416z" />
    <glyph glyph-name="tau" unicode="&#x3c4;" horiz-adv-x="470" 
d="M332 389v-389h-194v389h-112v150h418v-150h-112z" />
    <glyph glyph-name="upsilon" unicode="&#x3c5;" horiz-adv-x="566" 
d="M550 372q-82 -16 -126.5 -72.5t-44.5 -137.5v-162h-192v162q0 81 -44.5 137.5t-126.5 72.5l24 180q45 -8 86 -25t73 -41t53.5 -54t29.5 -63h2q7 33 29 63t54 54t73 41t86 25z" />
    <glyph glyph-name="phi" unicode="&#x3c6;" horiz-adv-x="750" 
d="M724 270q0 -50 -17.5 -93t-51.5 -74.5t-84 -51t-115 -23.5v-55h-162v55q-65 4 -115 23.5t-84 51t-51.5 74.5t-17.5 93t17.5 93t51.5 74.5t84 51t115 23.5v54h162v-54q65 -4 115 -23.5t84 -51t51.5 -74.5t17.5 -93zM549 271q0 47 -21.5 77.5t-71.5 30.5v-218
q50 0 71.5 31.5t21.5 78.5zM294 379q-50 0 -71.5 -30.5t-21.5 -77.5t21.5 -78.5t71.5 -31.5v218z" />
    <glyph glyph-name="chi" unicode="&#x3c7;" horiz-adv-x="586" 
d="M373 0l-79 150h-2l-79 -150h-223l182 279l-166 260h218l68 -139h2l68 139h218l-166 -260l182 -279h-223z" />
    <glyph glyph-name="psi" unicode="&#x3c8;" horiz-adv-x="738" 
d="M698 322q0 -88 -62.5 -141.5t-182.5 -56.5v-124h-168v124q-120 3 -182.5 56.5t-62.5 141.5v217h168v-213q0 -38 16.5 -55t60.5 -19v287h168v-287q44 2 60.5 19t16.5 55v213h168v-217z" />
    <glyph glyph-name="omega" unicode="&#x3c9;" horiz-adv-x="598" 
d="M327 0v121q10 15 19.5 34.5t16 42t10.5 46t4 46.5t-4.5 44t-13.5 36.5t-24 24.5t-36 9t-36 -9t-24 -24.5t-13.5 -36.5t-4.5 -44t4 -46.5t10.5 -46t15.5 -42t20 -34.5v-121h-247v138h74q-30 40 -46.5 87t-16.5 95q0 45 15.5 87t48 74.5t82 51.5t118.5 19t118.5 -19
t82 -51.5t48 -74.5t15.5 -87q0 -48 -16.5 -95t-46.5 -87h74v-138h-247z" />
    <glyph glyph-name="iotadieresis" unicode="&#x3ca;" horiz-adv-x="288" 
d="M47 0v539h194v-539h-194zM119 672q0 -33 -25.5 -56.5t-61.5 -23.5t-61.5 23.5t-25.5 56.5t25.5 56.5t61.5 23.5t61.5 -23.5t25.5 -56.5zM343 672q0 -33 -25.5 -56.5t-61.5 -23.5t-61.5 23.5t-25.5 56.5t25.5 56.5t61.5 23.5t61.5 -23.5t25.5 -56.5z" />
    <glyph glyph-name="upsilondieresis" unicode="&#x3cb;" horiz-adv-x="566" 
d="M550 372q-82 -16 -126.5 -72.5t-44.5 -137.5v-162h-192v162q0 81 -44.5 137.5t-126.5 72.5l24 180q45 -8 86 -25t73 -41t53.5 -54t29.5 -63h2q7 33 29 63t54 54t73 41t86 25zM258 672q0 -33 -25.5 -56.5t-61.5 -23.5t-61.5 23.5t-25.5 56.5t25.5 56.5t61.5 23.5
t61.5 -23.5t25.5 -56.5zM482 672q0 -33 -25.5 -56.5t-61.5 -23.5t-61.5 23.5t-25.5 56.5t25.5 56.5t61.5 23.5t61.5 -23.5t25.5 -56.5z" />
    <glyph glyph-name="omicrontonos" unicode="&#x3cc;" horiz-adv-x="582" 
d="M552 270q0 -61 -17.5 -112.5t-51 -89.5t-82 -59.5t-110.5 -21.5t-110.5 21.5t-82 59.5t-51 89.5t-17.5 112.5t17.5 112.5t51 89t82 59t110.5 21.5t110.5 -21.5t82 -59t51 -89t17.5 -112.5zM358 272q0 68 -17.5 99t-49.5 31t-49.5 -31t-17.5 -99t17.5 -99t49.5 -31
t49.5 31t17.5 99z" />
    <glyph glyph-name="upsilontonos" unicode="&#x3cd;" horiz-adv-x="566" 
d="M550 372q-82 -16 -126.5 -72.5t-44.5 -137.5v-162h-192v162q0 81 -44.5 137.5t-126.5 72.5l24 180q45 -8 86 -25t73 -41t53.5 -54t29.5 -63h2q7 33 29 63t54 54t73 41t86 25z" />
    <glyph glyph-name="omegatonos" unicode="&#x3ce;" horiz-adv-x="598" 
d="M327 0v121q10 15 19.5 34.5t16 42t10.5 46t4 46.5t-4.5 44t-13.5 36.5t-24 24.5t-36 9t-36 -9t-24 -24.5t-13.5 -36.5t-4.5 -44t4 -46.5t10.5 -46t15.5 -42t20 -34.5v-121h-247v138h74q-30 40 -46.5 87t-16.5 95q0 45 15.5 87t48 74.5t82 51.5t118.5 19t118.5 -19
t82 -51.5t48 -74.5t15.5 -87q0 -48 -16.5 -95t-46.5 -87h74v-138h-247z" />
    <glyph glyph-name="uni0400" unicode="&#x400;" horiz-adv-x="489" 
d="M53 0v724h396v-166h-200v-115h176v-162h-176v-115h200v-166h-396zM200 785l-116 132q5 17 26.5 27.5t48.5 10.5q26 0 53.5 -8.5t48.5 -29.5l67 -132h-128z" />
    <glyph glyph-name="afii10023" unicode="&#x401;" horiz-adv-x="489" 
d="M53 0v724h396v-166h-200v-115h176v-162h-176v-115h200v-166h-396zM450 857q0 -33 -25.5 -56.5t-61.5 -23.5t-61.5 23.5t-25.5 56.5t25.5 56.5t61.5 23.5t61.5 -23.5t25.5 -56.5zM226 857q0 -33 -25.5 -56.5t-61.5 -23.5t-61.5 23.5t-25.5 56.5t25.5 56.5t61.5 23.5
t61.5 -23.5t25.5 -56.5z" />
    <glyph glyph-name="afii10051" unicode="&#x402;" horiz-adv-x="700" 
d="M666 172q0 -59 -14.5 -113.5t-43 -101.5t-69.5 -84.5t-94 -61.5l-82 142q28 17 48 41.5t32.5 53t18.5 60t6 64.5q0 61 -23 97.5t-75 36.5q-22 0 -40 -8v-298h-196v558h-104v166h503v-166h-203v-114q21 8 49 13t51 5q116 0 176 -74.5t60 -215.5z" />
    <glyph glyph-name="afii10052" unicode="&#x403;" horiz-adv-x="481" 
d="M253 558v-558h-200v724h400v-166h-200zM299 785h-128l67 132q21 21 48.5 29.5t53.5 8.5q27 0 48.5 -10.5t26.5 -27.5z" />
    <glyph glyph-name="afii10053" unicode="&#x404;" horiz-adv-x="538" 
d="M516 27q-38 -20 -77 -30t-86 -10q-81 0 -140.5 27.5t-99.5 77t-59.5 118.5t-19.5 152t19.5 152t59.5 118.5t99.5 77t140.5 27.5q47 0 86 -10t77 -30l-59 -153q-44 24 -96 24t-82.5 -31.5t-41.5 -91.5h185v-162h-186q11 -61 41.5 -93t83.5 -32q52 0 96 24z" />
    <glyph glyph-name="afii10054" unicode="&#x405;" horiz-adv-x="506" 
d="M477 225q0 -52 -16 -95.5t-47.5 -75t-79.5 -49.5t-111 -18q-54 0 -105 10t-93 30l64 174q26 -14 59 -24t65 -10q30 0 44.5 13.5t14.5 32.5q0 20 -17.5 34.5t-44 29t-57.5 32t-57.5 43t-44 62t-17.5 90.5q0 52 16 94.5t47.5 73.5t78 48t106.5 17q54 0 99 -10.5t81 -29.5
l-60 -160q-23 13 -51 21t-59 8q-29 0 -43.5 -14.5t-14.5 -34.5q0 -21 18 -36.5t45 -30.5t58.5 -33t58.5 -43.5t45 -61.5t18 -87z" />
    <glyph glyph-name="afii10055" unicode="&#x406;" horiz-adv-x="306" 
d="M53 0v724h200v-724h-200z" />
    <glyph glyph-name="afii10056" unicode="&#x407;" horiz-adv-x="306" 
d="M53 0v724h200v-724h-200zM352 857q0 -33 -25.5 -56.5t-61.5 -23.5t-61.5 23.5t-25.5 56.5t25.5 56.5t61.5 23.5t61.5 -23.5t25.5 -56.5zM128 857q0 -33 -25.5 -56.5t-61.5 -23.5t-61.5 23.5t-25.5 56.5t25.5 56.5t61.5 23.5t61.5 -23.5t25.5 -56.5z" />
    <glyph glyph-name="afii10057" unicode="&#x408;" horiz-adv-x="306" 
d="M253 80q0 -142 -81.5 -216t-222.5 -84v170q45 7 74.5 38.5t29.5 91.5v644h200v-644z" />
    <glyph glyph-name="afii10058" unicode="&#x409;" horiz-adv-x="958" 
d="M930 231q0 -55 -19.5 -100t-58 -77t-94.5 -49.5t-129 -17.5q-69 0 -126 10.5t-103 29.5v535h-73l-18 -198q-6 -68 -23.5 -131t-48 -114.5t-76 -88.5t-107.5 -52l-54 174q53 23 80 84t36 150l34 338h444v-258q8 2 21 2.5t26 0.5q73 0 127.5 -18t90.5 -50t53.5 -75.5
t17.5 -94.5zM734 230q0 91 -103 91q-25 0 -37 -3v-178q7 -2 16.5 -3t20.5 -1q52 0 77.5 22t25.5 72z" />
    <glyph glyph-name="afii10059" unicode="&#x40a;" horiz-adv-x="936" 
d="M908 231q0 -55 -19.5 -100t-58 -77t-94.5 -49.5t-129 -17.5q-69 0 -126 10.5t-103 29.5v254h-129v-281h-196v724h196v-281h129v281h194v-258q8 2 21 2.5t26 0.5q73 0 127.5 -18t90.5 -50t53.5 -75.5t17.5 -94.5zM712 230q0 91 -103 91q-25 0 -37 -3v-178q7 -2 16.5 -3
t20.5 -1q52 0 77.5 22t25.5 72z" />
    <glyph glyph-name="afii10060" unicode="&#x40b;" horiz-adv-x="695" 
d="M448 0v253q0 28 -15.5 43.5t-50.5 15.5q-13 0 -27 -2t-25 -6v-304h-196v558h-104v166h503v-166h-203v-114q22 8 50.5 13t56.5 5q98 0 152.5 -51t54.5 -145v-266h-196z" />
    <glyph glyph-name="afii10061" unicode="&#x40c;" horiz-adv-x="650" 
d="M424 0l-73 238q-11 36 -36 62t-62 26v-326h-200v724h200v-314h2l162 314h226l-195 -323q41 -23 66.5 -59.5t42.5 -84.5l90 -257h-223zM381 785h-128l67 132q21 21 48.5 29.5t53.5 8.5q27 0 48.5 -10.5t26.5 -27.5z" />
    <glyph glyph-name="uni040D" unicode="&#x40d;" horiz-adv-x="660" 
d="M432 0v310q0 26 0.5 52.5t1.5 47.5h-2q-8 -20 -19 -43t-25 -47l-180 -320h-155v724h175v-295q0 -29 -0.5 -54t-1.5 -49h2q11 25 21 46t23 44l174 308h161v-724h-175zM288 785l-116 132q5 17 26.5 27.5t48.5 10.5q26 0 53.5 -8.5t48.5 -29.5l67 -132h-128z" />
    <glyph glyph-name="afii10062" unicode="&#x40e;" horiz-adv-x="620" 
d="M602 724q-3 -65 -18.5 -133.5t-38 -136t-51 -131t-58.5 -117.5l-113 -206h-224l118 204q-82 114 -136.5 247t-62.5 273h212q7 -105 29.5 -192t56.5 -162h2q27 72 46.5 161.5t25.5 192.5h212zM474 944q-4 -77 -43.5 -123.5t-120.5 -46.5t-120.5 46.5t-43.5 123.5l103 17
q2 -38 16 -58.5t45 -20.5t45 20.5t16 58.5z" />
    <glyph glyph-name="afii10145" unicode="&#x40f;" horiz-adv-x="628" 
d="M387 0l-4 -146h-138l-4 146h-188v724h200v-558h122v558h200v-724h-188z" />
    <glyph glyph-name="afii10017" unicode="&#x410;" horiz-adv-x="672" 
d="M471 0l-31 124h-208l-31 -124h-209l225 724h238l225 -724h-209zM354 466q-6 25 -10.5 52t-6.5 41h-2q-2 -13 -5.5 -38.5t-11.5 -54.5l-50 -198h136z" />
    <glyph glyph-name="afii10018" unicode="&#x411;" horiz-adv-x="618" 
d="M588 216q0 -51 -17.5 -93.5t-53.5 -72.5t-92 -46.5t-133 -16.5q-71 0 -134.5 11.5t-104.5 28.5v697h456v-166h-267v-113q12 2 29.5 3.5t37.5 1.5q69 0 121.5 -17t87.5 -47.5t52.5 -74t17.5 -95.5zM390 221q0 38 -25 61.5t-78 23.5q-14 0 -24.5 -1t-20.5 -3v-162
q8 -2 20.5 -3.5t26.5 -1.5q49 0 75 22t26 64z" />
    <glyph glyph-name="afii10019" unicode="&#x412;" horiz-adv-x="625" 
d="M595 202q0 -101 -74.5 -158t-228.5 -57q-71 0 -134.5 11.5t-104.5 28.5v670q46 18 108 29t131 11q77 0 132 -15.5t90 -43.5t51.5 -65.5t16.5 -82.5q0 -27 -8 -51.5t-22 -44.5t-32.5 -35t-40.5 -22v-2q20 -8 41 -23.5t37.5 -37.5t27 -50.5t10.5 -61.5zM392 508
q0 37 -21.5 59t-79.5 22q-29 0 -49 -5v-152h71q20 0 36 5.5t23 12.5q20 20 20 58zM397 216q0 18 -5.5 33.5t-15.5 24.5t-25 14.5t-38 5.5h-71v-154q8 -2 21.5 -3.5t27.5 -1.5q57 0 81.5 18t24.5 63z" />
    <glyph glyph-name="afii10020" unicode="&#x413;" horiz-adv-x="481" 
d="M253 558v-558h-200v724h400v-166h-200z" />
    <glyph glyph-name="afii10021" unicode="&#x414;" horiz-adv-x="772" 
d="M734 -146h-134l-4 146h-424l-4 -146h-134l-10 285q44 30 74 73.5t49.5 96t31 112t19.5 121.5l22 182h407l59 -558l58 -27zM455 562h-68l-5 -41q-6 -51 -15.5 -104.5t-23 -102t-31.5 -90t-43 -68.5h224z" />
    <glyph glyph-name="afii10022" unicode="&#x415;" horiz-adv-x="489" 
d="M53 0v724h396v-166h-200v-115h176v-162h-176v-115h200v-166h-396z" />
    <glyph glyph-name="afii10024" unicode="&#x416;" horiz-adv-x="956" 
d="M744 0l-79 242q-12 36 -33 60t-59 24v-326h-190v326q-38 0 -59 -24t-33 -60l-79 -242h-209l90 258q16 46 42.5 82.5t66.5 60.5l-195 323h223l151 -315h2v315h190v-315h2l151 315h223l-195 -323q40 -24 66.5 -60.5t42.5 -82.5l90 -258h-209z" />
    <glyph glyph-name="afii10025" unicode="&#x417;" horiz-adv-x="542" 
d="M512 213q0 -103 -75.5 -164.5t-217.5 -61.5q-54 0 -102 10t-97 30l59 155q67 -27 140 -27q48 0 68.5 18.5t20.5 44.5q0 19 -15 33t-40.5 23t-59.5 13t-73 4h-6v147h6q34 0 65 5.5t55 16t38 25.5t14 34q0 23 -18.5 38t-61.5 15q-69 0 -131 -28l-58 153q98 40 214 40
q64 0 112 -14.5t80 -41t48 -63t16 -80.5q0 -46 -26.5 -87t-70.5 -65v-2q52 -24 84 -66.5t32 -104.5z" />
    <glyph glyph-name="afii10026" unicode="&#x418;" horiz-adv-x="660" 
d="M432 0v310q0 26 0.5 52.5t1.5 47.5h-2q-8 -20 -19 -43t-25 -47l-180 -320h-155v724h175v-295q0 -29 -0.5 -54t-1.5 -49h2q11 25 21 46t23 44l174 308h161v-724h-175z" />
    <glyph glyph-name="afii10027" unicode="&#x419;" horiz-adv-x="660" 
d="M432 0v310q0 26 0.5 52.5t1.5 47.5h-2q-8 -20 -19 -43t-25 -47l-180 -320h-155v724h175v-295q0 -29 -0.5 -54t-1.5 -49h2q11 25 21 46t23 44l174 308h161v-724h-175zM495 944q-4 -77 -43.5 -123.5t-120.5 -46.5t-120.5 46.5t-43.5 123.5l103 17q2 -38 16 -58.5t45 -20.5
t45 20.5t16 58.5z" />
    <glyph glyph-name="afii10028" unicode="&#x41a;" horiz-adv-x="650" 
d="M424 0l-73 238q-11 36 -36 62t-62 26v-326h-200v724h200v-314h2l162 314h226l-195 -323q41 -23 66.5 -59.5t42.5 -84.5l90 -257h-223z" />
    <glyph glyph-name="afii10029" unicode="&#x41b;" horiz-adv-x="678" 
d="M448 0l-53 562h-68l-18 -198q-6 -68 -23.5 -131t-48 -114.5t-76 -88.5t-107.5 -52l-54 174q53 23 80 84t36 150l34 338h424l78 -724h-204z" />
    <glyph glyph-name="afii10030" unicode="&#x41c;" horiz-adv-x="874" 
d="M668 0l-32 373q-1 14 -2 30t-2 31t-2 27.5t-1 19.5h-2q-6 -30 -11.5 -53.5t-13.5 -54.5l-106 -373h-118l-106 373q-9 33 -15 60.5t-10 47.5h-2q-1 -19 -2.5 -44.5t-4.5 -63.5l-32 -373h-184l84 724h221l88 -320q8 -29 13.5 -56.5t7.5 -41.5h2q2 9 7.5 37.5t13.5 60.5
l88 320h221l84 -724h-184z" />
    <glyph glyph-name="afii10031" unicode="&#x41d;" horiz-adv-x="636" 
d="M383 0v281h-130v-281h-200v724h200v-281h130v281h200v-724h-200z" />
    <glyph glyph-name="afii10032" unicode="&#x41e;" horiz-adv-x="636" 
d="M602 362q0 -81 -17 -149.5t-51.5 -119t-88.5 -78.5t-127 -28q-74 0 -127.5 28t-88 78.5t-51.5 119t-17 149.5t17 149.5t51.5 119t88 78.5t127.5 28q73 0 127 -28t88.5 -78.5t51.5 -119t17 -149.5zM402 362q0 98 -21 148.5t-63 50.5t-63 -50.5t-21 -148.5t21 -148.5
t63 -50.5t63 50.5t21 148.5z" />
    <glyph glyph-name="afii10033" unicode="&#x41f;" horiz-adv-x="636" 
d="M383 0v562h-130v-562h-200v724h530v-724h-200z" />
    <glyph glyph-name="afii10034" unicode="&#x420;" horiz-adv-x="611" 
d="M585 493q0 -51 -17.5 -94.5t-53.5 -75.5t-90.5 -50t-127.5 -18q-13 0 -26 0.5t-21 2.5v-258h-196v697q46 19 104 29.5t127 10.5q73 0 129 -17.5t94.5 -49.5t58 -77t19.5 -100zM389 494q0 50 -25.5 72t-77.5 22q-11 0 -20.5 -1t-16.5 -3v-178q12 -3 37 -3q103 0 103 91z
" />
    <glyph glyph-name="afii10035" unicode="&#x421;" horiz-adv-x="506" 
d="M486 27q-33 -20 -72.5 -30t-87.5 -10q-62 0 -115.5 23.5t-92.5 70.5t-61.5 117t-22.5 164t22.5 164t61.5 117t92.5 70.5t115.5 23.5q48 0 87.5 -10t72.5 -30l-61 -158q-13 10 -31.5 17t-40.5 7q-55 0 -84 -53t-29 -146t29 -146t84 -53q22 0 40.5 7t31.5 17z" />
    <glyph glyph-name="afii10036" unicode="&#x422;" horiz-adv-x="506" 
d="M353 558v-558h-200v558h-123v166h446v-166h-123z" />
    <glyph glyph-name="afii10037" unicode="&#x423;" horiz-adv-x="620" 
d="M602 724q-3 -65 -18.5 -133.5t-38 -136t-51 -131t-58.5 -117.5l-113 -206h-224l118 204q-82 114 -136.5 247t-62.5 273h212q7 -105 29.5 -192t56.5 -162h2q27 72 46.5 161.5t25.5 192.5h212z" />
    <glyph glyph-name="afii10038" unicode="&#x424;" horiz-adv-x="858" 
d="M828 365q0 -60 -21 -115.5t-60.5 -99.5t-97.5 -72t-133 -33v-72h-174v72q-75 5 -133 33t-97.5 72t-60.5 99.5t-21 115.5t21 115.5t60.5 99.5t97.5 72t133 33v66h174v-66q75 -5 133 -33t97.5 -72t60.5 -99.5t21 -115.5zM632 366q0 30 -7 59t-21.5 52.5t-36 38.5t-51.5 18
v-336q30 2 51.5 17t36 38.5t21.5 53t7 59.5zM342 534q-30 -3 -51.5 -18t-36 -38.5t-21.5 -52.5t-7 -59t7 -59.5t21.5 -53t36 -38.5t51.5 -17v336z" />
    <glyph glyph-name="afii10039" unicode="&#x425;" horiz-adv-x="618" 
d="M408 0l-98 218h-2l-98 -218h-220l200 376l-184 348h218l84 -191h2l84 191h218l-184 -348l200 -376h-220z" />
    <glyph glyph-name="afii10040" unicode="&#x426;" horiz-adv-x="664" 
d="M623 -146h-134l-4 146h-432v724h200v-558h122v558h200v-558l58 -27z" />
    <glyph glyph-name="afii10041" unicode="&#x427;" horiz-adv-x="624" 
d="M371 0v238q-21 -8 -46.5 -13t-53.5 -5q-51 0 -92 15.5t-70 44t-44.5 68t-15.5 88.5v288h200v-269q0 -33 20 -47t51 -14q14 0 28.5 2.5t22.5 6.5v321h200v-724h-200z" />
    <glyph glyph-name="afii10042" unicode="&#x428;" horiz-adv-x="900" 
d="M53 0v724h190v-558h112v558h190v-558h112v558h190v-724h-794z" />
    <glyph glyph-name="afii10043" unicode="&#x429;" horiz-adv-x="936" 
d="M895 -146h-134l-4 146h-704v724h190v-558h112v558h190v-558h112v558h190v-558l58 -27z" />
    <glyph glyph-name="afii10044" unicode="&#x42a;" horiz-adv-x="692" 
d="M664 231q0 -55 -19.5 -100t-58 -77t-94.5 -49.5t-129 -17.5q-69 0 -126 10.5t-103 29.5v531h-104v166h298v-258q8 2 21 2.5t26 0.5q73 0 127.5 -18t90.5 -50t53.5 -75.5t17.5 -94.5zM468 230q0 91 -103 91q-25 0 -37 -3v-178q7 -2 16.5 -3t20.5 -1q52 0 77.5 22t25.5 72z
" />
    <glyph glyph-name="afii10045" unicode="&#x42b;" horiz-adv-x="894" 
d="M641 0v724h200v-724h-200zM583 231q0 -55 -19.5 -100t-58 -77t-94.5 -49.5t-129 -17.5q-69 0 -126 10.5t-103 29.5v697h194v-258q8 2 21 2.5t26 0.5q73 0 127.5 -18t90.5 -50t53.5 -75.5t17.5 -94.5zM387 230q0 91 -103 91q-25 0 -37 -3v-178q7 -2 16.5 -3t20.5 -1
q52 0 77.5 22t25.5 72z" />
    <glyph glyph-name="afii10046" unicode="&#x42c;" horiz-adv-x="611" 
d="M583 231q0 -55 -19.5 -100t-58 -77t-94.5 -49.5t-129 -17.5q-69 0 -126 10.5t-103 29.5v697h194v-258q8 2 21 2.5t26 0.5q73 0 127.5 -18t90.5 -50t53.5 -75.5t17.5 -94.5zM387 230q0 91 -103 91q-25 0 -37 -3v-178q7 -2 16.5 -3t20.5 -1q52 0 77.5 22t25.5 72z" />
    <glyph glyph-name="afii10047" unicode="&#x42d;" horiz-adv-x="538" 
d="M504 362q0 -83 -19.5 -152t-59.5 -118.5t-99.5 -77t-140.5 -27.5q-47 0 -86 10t-77 30l59 155q43 -24 96 -24t83.5 32t41.5 93h-186v162h185q-11 60 -41.5 91.5t-82.5 31.5q-53 0 -96 -24l-59 153q38 20 77 30t86 10q81 0 140.5 -27.5t99.5 -77t59.5 -118.5t19.5 -152z
" />
    <glyph glyph-name="afii10048" unicode="&#x42e;" horiz-adv-x="898" 
d="M862 362q0 -84 -15.5 -153t-48.5 -118.5t-84 -76.5t-121 -27q-61 0 -107.5 21t-79.5 59.5t-52 92.5t-26 121h-79v-281h-196v724h196v-281h79q7 67 26 121t52 92.5t79.5 59.5t107.5 21q70 0 121 -27t84 -76.5t48.5 -118.5t15.5 -153zM668 364q0 112 -18 167.5t-57 55.5
t-57 -55.5t-18 -167.5t18 -167.5t57 -55.5t57 55.5t18 167.5z" />
    <glyph glyph-name="afii10049" unicode="&#x42f;" horiz-adv-x="638" 
d="M389 0v268h-31q-29 0 -47 -17t-26 -43l-67 -208h-209l74 215q13 37 33 67t49 48v2q-20 10 -40 25t-36 36t-26 48.5t-10 62.5q0 113 73.5 173t219.5 60q68 0 129.5 -10t109.5 -30v-697h-196zM389 584q-8 2 -21.5 3t-26.5 1q-50 0 -71 -23.5t-21 -72.5q0 -40 20.5 -62.5
t65.5 -22.5h54v177z" />
    <glyph glyph-name="afii10065" unicode="&#x430;" horiz-adv-x="598" 
d="M399 0l-23 92h-154l-23 -92h-207l193 539h228l193 -539h-207zM312 343q-4 15 -7 31.5t-5 30.5h-2q-2 -14 -5 -30.5t-7 -31.5l-37 -144h100z" />
    <glyph glyph-name="afii10066" unicode="&#x431;" horiz-adv-x="556" 
d="M530 168q0 -93 -68 -137t-199 -44q-29 0 -58.5 2.5t-57.5 7.5t-53.5 12.5t-46.5 17.5v512h424v-127h-240v-70q8 2 22 2.5t28 0.5q120 0 184.5 -43.5t64.5 -133.5zM340 166q0 34 -19 48t-59 14q-22 0 -31 -3v-119q10 -3 31 -3q39 0 58.5 14t19.5 49z" />
    <glyph glyph-name="afii10067" unicode="&#x432;" horiz-adv-x="566" 
d="M539 148q0 -88 -67.5 -124.5t-203.5 -36.5q-64 0 -121 10.5t-100 29.5v485q43 19 100 29.5t121 10.5q130 0 195.5 -40t65.5 -116q0 -20 -8.5 -38.5t-23 -34.5t-34.5 -27.5t-43 -16.5v-1q22 -6 43 -16.5t38 -26t27.5 -37.5t10.5 -50zM344 380q0 29 -15.5 44t-60.5 15
q-11 0 -20.5 -1t-16.5 -3v-112h54q15 0 27 4t17 9q15 15 15 44zM348 160q0 14 -4 25.5t-12 18.5t-19 11t-28 4h-54v-115q6 -2 16 -3t21 -1q43 0 61.5 13.5t18.5 46.5z" />
    <glyph glyph-name="afii10068" unicode="&#x433;" horiz-adv-x="406" 
d="M241 391v-391h-194v539h335v-148h-141z" />
    <glyph glyph-name="afii10069" unicode="&#x434;" horiz-adv-x="660" 
d="M628 -146h-131l-5 146h-328l-5 -146h-131l-10 270q32 17 55.5 45.5t41 65t28.5 79.5t17 89l19 136h368l40 -391l51 -24zM393 397h-64l-5 -32q-5 -28 -11.5 -58t-16 -59.5t-23.5 -57t-33 -48.5h172z" />
    <glyph glyph-name="afii10070" unicode="&#x435;" horiz-adv-x="430" 
d="M47 0v539h348v-127h-158v-80h141v-124h-141v-81h158v-127h-348z" />
    <glyph glyph-name="afii10072" unicode="&#x436;" horiz-adv-x="842" 
d="M642 0l-53 162q-11 32 -31 56.5t-49 24.5v-243h-176v243q-29 0 -49 -24.5t-31 -56.5l-53 -162h-199l67 181q30 81 96 122l-153 236h205l115 -228h2v228h176v-228h2l115 228h205l-153 -236q66 -41 96 -122l67 -181h-199z" />
    <glyph glyph-name="afii10073" unicode="&#x437;" horiz-adv-x="500" 
d="M473 149q0 -77 -68.5 -119.5t-188.5 -42.5q-57 0 -104.5 10t-93.5 30l52 129q29 -14 61.5 -21.5t64.5 -7.5q37 0 56 11.5t19 29.5q0 22 -23.5 34t-79.5 12h-56v116h56q51 0 73 12.5t22 33.5q0 16 -15 28t-50 12q-32 0 -64.5 -8.5t-60.5 -22.5l-51 127q50 21 102 30.5
t107 9.5q61 0 104.5 -12t71.5 -33t40.5 -49t12.5 -59q0 -38 -26.5 -68.5t-64.5 -47.5v-2q44 -18 74 -50t30 -82z" />
    <glyph glyph-name="afii10074" unicode="&#x438;" horiz-adv-x="612" 
d="M396 0v231q0 20 0.5 39t1.5 36h-2q-7 -17 -14.5 -32.5t-18.5 -34.5l-134 -239h-182v539h169v-219q0 -22 -0.5 -41t-1.5 -36h2q8 17 15.5 33.5t17.5 33.5l129 229h187v-539h-169z" />
    <glyph glyph-name="afii10075" unicode="&#x439;" horiz-adv-x="612" 
d="M396 0v231q0 20 0.5 39t1.5 36h-2q-7 -17 -14.5 -32.5t-18.5 -34.5l-134 -239h-182v539h169v-219q0 -22 -0.5 -41t-1.5 -36h2q8 17 15.5 33.5t17.5 33.5l129 229h187v-539h-169zM469 759q-4 -77 -43.5 -123.5t-120.5 -46.5t-120.5 46.5t-43.5 123.5l103 17
q2 -38 16 -58.5t45 -20.5t45 20.5t16 58.5z" />
    <glyph glyph-name="afii10076" unicode="&#x43a;" horiz-adv-x="588" 
d="M376 0l-53 162q-11 35 -31.5 58t-54.5 23v-243h-190v539h190v-228h2l121 228h217l-153 -236q66 -39 97 -123l66 -180h-211z" />
    <glyph glyph-name="afii10077" unicode="&#x43b;" horiz-adv-x="622" 
d="M403 0l-36 391h-63l-16 -119q-6 -47 -21.5 -94.5t-42.5 -87.5t-67 -69t-96 -41l-61 154q39 14 65 55.5t34 99.5l34 250h410l55 -539h-195z" />
    <glyph glyph-name="afii10078" unicode="&#x43c;" horiz-adv-x="806" 
d="M605 0l-24 278q-2 26 -3 46.5t-2 34.5h-2q-3 -16 -6.5 -35.5t-11.5 -45.5l-79 -278h-148l-79 278q-7 25 -11 44.5t-7 36.5h-2q-1 -14 -2 -35.5t-3 -45.5l-24 -278h-181l71 539h230l66 -238q5 -20 9 -41t6 -32h2l6 33q4 22 9 40l66 238h230l71 -539h-181z" />
    <glyph glyph-name="afii10079" unicode="&#x43d;" horiz-adv-x="586" 
d="M345 0v196h-104v-196h-194v539h194v-195h104v195h194v-539h-194z" />
    <glyph glyph-name="afii10080" unicode="&#x43e;" horiz-adv-x="582" 
d="M552 270q0 -61 -17.5 -112.5t-51 -89.5t-82 -59.5t-110.5 -21.5t-110.5 21.5t-82 59.5t-51 89.5t-17.5 112.5t17.5 112.5t51 89t82 59t110.5 21.5t110.5 -21.5t82 -59t51 -89t17.5 -112.5zM358 272q0 68 -17.5 99t-49.5 31t-49.5 -31t-17.5 -99t17.5 -99t49.5 -31
t49.5 31t17.5 99z" />
    <glyph glyph-name="afii10081" unicode="&#x43f;" horiz-adv-x="586" 
d="M345 0v391h-104v-391h-194v539h492v-539h-194z" />
    <glyph glyph-name="afii10082" unicode="&#x440;" horiz-adv-x="554" 
d="M532 362q0 -88 -64.5 -138t-189.5 -50q-13 0 -24 1t-17 2v-177h-190v512q21 10 46.5 17.5t53.5 12.5t57.5 7.5t58.5 2.5q134 0 201.5 -49.5t67.5 -140.5zM342 362q0 35 -18.5 51.5t-59.5 16.5q-17 0 -27 -3v-129q5 -1 12 -2t15 -1q78 0 78 67z" />
    <glyph glyph-name="afii10083" unicode="&#x441;" horiz-adv-x="454" 
d="M436 24q-34 -20 -70.5 -28.5t-83.5 -8.5q-52 0 -97.5 18t-80 54t-54.5 89t-20 122t20 122t54.5 88.5t80 53.5t97.5 18q47 0 83.5 -8.5t70.5 -28.5l-59 -138q-25 18 -63 18q-42 0 -62.5 -35t-20.5 -88t22 -88t61 -35q38 0 63 18z" />
    <glyph glyph-name="afii10084" unicode="&#x442;" horiz-adv-x="470" 
d="M332 389v-389h-194v389h-112v150h418v-150h-112z" />
    <glyph glyph-name="afii10085" unicode="&#x443;" horiz-adv-x="566" 
d="M552 539q-3 -48 -16.5 -97.5t-33.5 -97.5t-45 -94t-50 -87l-101 -163h-220l104 160q-71 89 -120 182t-56 197h204q6 -72 23 -128.5t47 -112.5h2q25 51 39 110t19 131h204z" />
    <glyph glyph-name="afii10086" unicode="&#x444;" horiz-adv-x="750" 
d="M724 270q0 -50 -17.5 -93t-51.5 -74.5t-84 -51t-115 -23.5v-55h-162v55q-65 4 -115 23.5t-84 51t-51.5 74.5t-17.5 93t17.5 93t51.5 74.5t84 51t115 23.5v54h162v-54q65 -4 115 -23.5t84 -51t51.5 -74.5t17.5 -93zM549 271q0 47 -21.5 77.5t-71.5 30.5v-218
q50 0 71.5 31.5t21.5 78.5zM294 379q-50 0 -71.5 -30.5t-21.5 -77.5t21.5 -78.5t71.5 -31.5v218z" />
    <glyph glyph-name="afii10087" unicode="&#x445;" horiz-adv-x="586" 
d="M373 0l-79 150h-2l-79 -150h-223l182 279l-166 260h218l68 -139h2l68 139h218l-166 -260l182 -279h-223z" />
    <glyph glyph-name="afii10088" unicode="&#x446;" horiz-adv-x="610" 
d="M576 -146h-131l-5 146h-393v539h194v-391h100v391h194v-391l51 -24z" />
    <glyph glyph-name="afii10089" unicode="&#x447;" horiz-adv-x="580" 
d="M339 0v177q-21 -8 -45.5 -13t-50.5 -5q-98 0 -148 47.5t-50 138.5v194h194v-171q0 -57 59 -57q23 0 41 8v220h194v-539h-194z" />
    <glyph glyph-name="afii10090" unicode="&#x448;" horiz-adv-x="876" 
d="M47 0v539h194v-391h100v391h194v-391h100v391h194v-539h-782z" />
    <glyph glyph-name="afii10091" unicode="&#x449;" horiz-adv-x="904" 
d="M870 -146h-131l-5 146h-687v539h194v-391h100v391h194v-391h100v391h194v-391l51 -24z" />
    <glyph glyph-name="afii10092" unicode="&#x44a;" horiz-adv-x="630" 
d="M604 173q0 -93 -69 -139.5t-200 -46.5q-29 0 -58.5 2.5t-57.5 7.5t-53.5 12.5t-46.5 17.5v364h-93v148h283v-185q8 2 21 2.5t25 0.5q120 0 184.5 -47t64.5 -137zM414 173q0 67 -78 67q-18 0 -27 -3v-129q10 -3 27 -3q39 0 58.5 15t19.5 53z" />
    <glyph glyph-name="afii10093" unicode="&#x44b;" horiz-adv-x="824" 
d="M583 0v539h194v-539h-194zM532 173q0 -93 -69 -139.5t-200 -46.5q-29 0 -58.5 2.5t-57.5 7.5t-53.5 12.5t-46.5 17.5v512h190v-185q8 2 21 2.5t25 0.5q120 0 184.5 -47t64.5 -137zM342 173q0 67 -78 67q-18 0 -27 -3v-129q10 -3 27 -3q39 0 58.5 15t19.5 53z" />
    <glyph glyph-name="afii10094" unicode="&#x44c;" horiz-adv-x="556" 
d="M532 173q0 -93 -69 -139.5t-200 -46.5q-29 0 -58.5 2.5t-57.5 7.5t-53.5 12.5t-46.5 17.5v512h190v-185q8 2 21 2.5t25 0.5q120 0 184.5 -47t64.5 -137zM342 173q0 67 -78 67q-18 0 -27 -3v-129q10 -3 27 -3q39 0 58.5 15t19.5 53z" />
    <glyph glyph-name="afii10095" unicode="&#x44d;" horiz-adv-x="504" 
d="M474 270q0 -68 -20.5 -121t-58 -89t-91 -54.5t-119.5 -18.5q-48 0 -91 10t-74 30l54 129q20 -12 43.5 -19.5t51.5 -7.5q85 0 109 81h-187v122h186q-11 38 -39 59t-69 21q-28 0 -51.5 -7.5t-43.5 -19.5l-54 127q32 20 74.5 30t90.5 10q66 0 119.5 -18.5t91 -54.5t58 -88.5
t20.5 -120.5z" />
    <glyph glyph-name="afii10096" unicode="&#x44e;" horiz-adv-x="818" 
d="M788 270q0 -61 -15 -112.5t-45.5 -89.5t-76.5 -59.5t-108 -21.5q-52 0 -93 15.5t-71 43t-48.5 66.5t-26.5 86h-67v-198h-190v539h190v-197h67q8 46 26.5 85t48.5 66.5t71 43t93 15.5q62 0 108 -21.5t76.5 -59t45.5 -89t15 -112.5zM604 272q0 134 -61 134t-61 -134
t61 -134t61 134z" />
    <glyph glyph-name="afii10097" unicode="&#x44f;" horiz-adv-x="582" 
d="M345 0v190h-27q-48 0 -62 -44l-47 -146h-200l54 157q8 22 24.5 44t38.5 36v2q-33 16 -58.5 50.5t-25.5 82.5q0 86 68 133t194 47q29 0 60.5 -2.5t62 -7.5t58.5 -12.5t50 -17.5v-512h-190zM345 431q-10 2 -21 3t-22 1q-71 0 -71 -71q0 -30 16.5 -46.5t50.5 -16.5h47v130z
" />
    <glyph glyph-name="uni0450" unicode="&#x450;" horiz-adv-x="430" 
d="M47 0v539h348v-127h-158v-80h141v-124h-141v-81h158v-127h-348zM174 600l-116 132q5 17 26.5 27.5t48.5 10.5q26 0 53.5 -8.5t48.5 -29.5l67 -132h-128z" />
    <glyph glyph-name="afii10071" unicode="&#x451;" horiz-adv-x="430" 
d="M420 672q0 -33 -25.5 -56.5t-61.5 -23.5t-61.5 23.5t-25.5 56.5t25.5 56.5t61.5 23.5t61.5 -23.5t25.5 -56.5zM196 672q0 -33 -25.5 -56.5t-61.5 -23.5t-61.5 23.5t-25.5 56.5t25.5 56.5t61.5 23.5t61.5 -23.5t25.5 -56.5zM47 0v539h348v-127h-158v-80h141v-124h-141v-81
h158v-127h-348z" />
    <glyph glyph-name="afii10099" unicode="&#x452;" horiz-adv-x="654" 
d="M624 114q0 -98 -49 -169.5t-141 -129.5l-84 138q45 42 62.5 79.5t17.5 81.5q0 38 -15.5 60.5t-58.5 22.5q-25 0 -43 -8v-189h-194v412h-93v127h432v-127h-145v-83q16 8 42 13t48 5q110 0 165.5 -62t55.5 -171z" />
    <glyph glyph-name="afii10100" unicode="&#x453;" horiz-adv-x="406" 
d="M241 391v-391h-194v539h335v-148h-141zM246 600h-128l67 132q21 21 48.5 29.5t53.5 8.5q27 0 48.5 -10.5t26.5 -27.5z" />
    <glyph glyph-name="afii10101" unicode="&#x454;" horiz-adv-x="504" 
d="M484 27q-31 -20 -74 -30t-91 -10q-66 0 -119.5 18.5t-91 54.5t-58 89t-20.5 121t20.5 120.5t58 88.5t91 54.5t119.5 18.5q48 0 90.5 -10t74.5 -30l-54 -127q-20 12 -43.5 19.5t-51.5 7.5q-41 0 -69 -21t-39 -59h186v-122h-187q24 -81 109 -81q28 0 51.5 7.5t43.5 19.5z
" />
    <glyph glyph-name="afii10102" unicode="&#x455;" horiz-adv-x="474" 
d="M448 167q0 -83 -58.5 -131.5t-181.5 -48.5q-54 0 -100.5 10t-89.5 30l60 146q27 -15 62 -25t62 -10q20 0 31.5 8.5t11.5 21.5q0 17 -15.5 26t-38.5 17t-50.5 19t-51.5 29.5t-40.5 47.5t-16.5 72q0 81 57.5 127t161.5 46q50 0 96.5 -10t87.5 -30l-56 -129q-23 13 -49 21
t-52 8q-22 0 -34.5 -8.5t-12.5 -22.5q0 -11 6.5 -18.5t16 -13.5t20 -9.5t18.5 -6.5q23 -8 50.5 -19t51 -29.5t39 -46.5t15.5 -71z" />
    <glyph glyph-name="afii10103" unicode="&#x456;" horiz-adv-x="288" 
d="M47 0v539h194v-539h-194z" />
    <glyph glyph-name="afii10104" unicode="&#x457;" horiz-adv-x="288" 
d="M47 0v539h194v-539h-194zM343 672q0 -33 -25.5 -56.5t-61.5 -23.5t-61.5 23.5t-25.5 56.5t25.5 56.5t61.5 23.5t61.5 -23.5t25.5 -56.5zM119 672q0 -33 -25.5 -56.5t-61.5 -23.5t-61.5 23.5t-25.5 56.5t25.5 56.5t61.5 23.5t61.5 -23.5t25.5 -56.5z" />
    <glyph glyph-name="afii10105" unicode="&#x458;" horiz-adv-x="288" 
d="M241 80q0 -84 -22.5 -140.5t-61 -91t-90 -51.5t-109.5 -22v158q17 4 33 14t28.5 27t20 43t7.5 63v459h194v-459z" />
    <glyph glyph-name="afii10106" unicode="&#x459;" horiz-adv-x="880" 
d="M856 173q0 -57 -24.5 -93.5t-63.5 -57t-87 -28t-94 -7.5q-29 0 -58.5 2.5t-57.5 7.5t-53.5 12.5t-46.5 17.5v364h-67l-16 -119q-6 -47 -21.5 -94.5t-42.5 -87.5t-67 -69t-96 -41l-61 154q39 14 65 55.5t34 99.5l34 250h428v-185q8 2 21 2.5t25 0.5q120 0 184.5 -47
t64.5 -137zM666 173q0 67 -78 67q-18 0 -27 -3v-129q10 -3 27 -3q39 0 58.5 15t19.5 53z" />
    <glyph glyph-name="afii10107" unicode="&#x45a;" horiz-adv-x="850" 
d="M826 173q0 -93 -69 -139.5t-200 -46.5q-29 0 -58.5 2.5t-57.5 7.5t-53.5 12.5t-46.5 17.5v171h-104v-198h-190v539h190v-197h104v197h190v-185q8 2 21 2.5t25 0.5q120 0 184.5 -47t64.5 -137zM636 173q0 67 -78 67q-18 0 -27 -3v-129q10 -3 27 -3q39 0 58.5 15t19.5 53z
" />
    <glyph glyph-name="afii10108" unicode="&#x45b;" horiz-adv-x="654" 
d="M415 0v140q0 57 -60 57q-24 0 -42 -8v-189h-194v412h-93v127h432v-127h-145v-83q21 8 46 13t51 5q98 0 148.5 -47.5t50.5 -138.5v-161h-194z" />
    <glyph glyph-name="afii10109" unicode="&#x45c;" horiz-adv-x="588" 
d="M376 0l-53 162q-11 35 -31.5 58t-54.5 23v-243h-190v539h190v-228h2l121 228h217l-153 -236q66 -39 97 -123l66 -180h-211zM346 600h-128l67 132q21 21 48.5 29.5t53.5 8.5q27 0 48.5 -10.5t26.5 -27.5z" />
    <glyph glyph-name="uni045D" unicode="&#x45d;" horiz-adv-x="612" 
d="M396 0v231q0 20 0.5 39t1.5 36h-2q-7 -17 -14.5 -32.5t-18.5 -34.5l-134 -239h-182v539h169v-219q0 -22 -0.5 -41t-1.5 -36h2q8 17 15.5 33.5t17.5 33.5l129 229h187v-539h-169zM260 600l-116 132q5 17 26.5 27.5t48.5 10.5q26 0 53.5 -8.5t48.5 -29.5l67 -132h-128z" />
    <glyph glyph-name="afii10110" unicode="&#x45e;" horiz-adv-x="566" 
d="M552 539q-3 -48 -16.5 -97.5t-33.5 -97.5t-45 -94t-50 -87l-101 -163h-220l104 160q-71 89 -120 182t-56 197h204q6 -72 23 -128.5t47 -112.5h2q25 51 39 110t19 131h204zM447 759q-4 -77 -43.5 -123.5t-120.5 -46.5t-120.5 46.5t-43.5 123.5l103 17q2 -38 16 -58.5
t45 -20.5t45 20.5t16 58.5z" />
    <glyph glyph-name="afii10193" unicode="&#x45f;" horiz-adv-x="582" 
d="M361 0l-4 -146h-132l-4 146h-174v539h194v-391h100v391h194v-539h-174z" />
    <glyph glyph-name="afii10050" unicode="&#x490;" horiz-adv-x="501" 
d="M253 558v-558h-200v724h270v130h150v-296h-220z" />
    <glyph glyph-name="afii10098" unicode="&#x491;" horiz-adv-x="436" 
d="M241 391v-391h-194v539h221v123h144v-271h-171z" />
    <glyph glyph-name="uni0492" unicode="&#x492;" horiz-adv-x="491" 
d="M263 558v-115h107v-162h-107v-281h-200v281h-51v162h51v281h400v-166h-200z" />
    <glyph glyph-name="uni0493" unicode="&#x493;" horiz-adv-x="416" 
d="M251 391v-77h79v-138h-79v-176h-194v176h-45v138h45v225h335v-148h-141z" />
    <glyph glyph-name="uni0496" unicode="&#x496;" horiz-adv-x="986" 
d="M949 -146h-134l-4 146h-67l-79 242q-12 36 -33 60t-59 24v-326h-190v326q-38 0 -59 -24t-33 -60l-79 -242h-209l90 258q16 46 42.5 82.5t66.5 60.5l-195 323h223l151 -315h2v315h190v-315h2l151 315h223l-195 -323q40 -24 66.5 -60.5t42.5 -82.5l31 -88l65 -31z" />
    <glyph glyph-name="uni0497" unicode="&#x497;" horiz-adv-x="870" 
d="M836 -146h-131l-5 146h-58l-53 162q-11 32 -31 56.5t-49 24.5v-243h-176v243q-29 0 -49 -24.5t-31 -56.5l-53 -162h-199l67 181q30 81 96 122l-153 236h205l115 -228h2v228h176v-228h2l115 228h205l-153 -236q66 -41 96 -122l11 -29l61 -28z" />
    <glyph glyph-name="uni049A" unicode="&#x49a;" horiz-adv-x="680" 
d="M643 -146h-134l-4 146h-81l-73 238q-11 36 -36 62t-62 26v-326h-200v724h200v-314h2l162 314h226l-195 -323q41 -23 66.5 -59.5t42.5 -84.5l30 -87l66 -31z" />
    <glyph glyph-name="uni049B" unicode="&#x49b;" horiz-adv-x="616" 
d="M582 -146h-131l-5 146h-70l-53 162q-11 35 -31.5 58t-54.5 23v-243h-190v539h190v-228h2l121 228h217l-153 -236q66 -39 97 -123l10 -28l61 -28z" />
    <glyph glyph-name="uni04A2" unicode="&#x4a2;" horiz-adv-x="672" 
d="M631 -146h-134l-4 146h-110v281h-130v-281h-200v724h200v-281h130v281h200v-557l58 -28z" />
    <glyph glyph-name="uni04A3" unicode="&#x4a3;" horiz-adv-x="614" 
d="M580 -146h-131l-5 146h-99v196h-104v-196h-194v539h194v-195h104v195h194v-391l51 -24z" />
    <glyph glyph-name="uni04AE" unicode="&#x4ae;" horiz-adv-x="576" 
d="M388 278v-278h-200v278l-198 446h214l83 -245h2l83 245h214z" />
    <glyph glyph-name="uni04AF" unicode="&#x4af;" horiz-adv-x="568" 
d="M381 195v-195h-194v195l-197 344h222l71 -176h2l71 176h222z" />
    <glyph glyph-name="uni04B0" unicode="&#x4b0;" horiz-adv-x="576" 
d="M388 278h100v-127h-100v-151h-200v151h-100v127h100l-198 446h214l83 -245h2l83 245h214z" />
    <glyph glyph-name="uni04B1" unicode="&#x4b1;" horiz-adv-x="568" 
d="M381 195h100v-105h-100v-90h-194v90h-100v105h100l-197 344h222l71 -176h2l71 176h222z" />
    <glyph glyph-name="uni04B2" unicode="&#x4b2;" horiz-adv-x="640" 
d="M603 -146h-134l-4 146h-57l-98 218h-2l-98 -218h-220l200 376l-184 348h218l84 -191h2l84 191h218l-184 -348l107 -200l78 -37z" />
    <glyph glyph-name="uni04B3" unicode="&#x4b3;" horiz-adv-x="592" 
d="M414 279l79 -121l73 -34l-10 -270h-131l-5 146h-47l-79 150h-2l-79 -150h-223l182 279l-166 260h218l68 -139h2l68 139h218z" />
    <glyph glyph-name="uni04B6" unicode="&#x4b6;" horiz-adv-x="660" 
d="M619 -146h-134l-4 146h-110v238q-21 -8 -46.5 -13t-53.5 -5q-51 0 -92 15.5t-70 44t-44.5 68t-15.5 88.5v288h200v-269q0 -33 20 -47t51 -14q14 0 28.5 2.5t22.5 6.5v321h200v-557l58 -28z" />
    <glyph glyph-name="uni04B7" unicode="&#x4b7;" horiz-adv-x="608" 
d="M574 -146h-131l-5 146h-99v177q-21 -8 -45.5 -13t-50.5 -5q-98 0 -148 47.5t-50 138.5v194h194v-171q0 -57 59 -57q23 0 41 8v220h194v-391l51 -24z" />
    <glyph glyph-name="uni04BA" unicode="&#x4ba;" horiz-adv-x="614" 
d="M367 0v253q0 28 -15.5 43.5t-50.5 15.5q-13 0 -27 -2t-25 -6v-304h-196v724h196v-280q22 8 50.5 13t56.5 5q98 0 152.5 -51t54.5 -145v-266h-196z" />
    <glyph glyph-name="uni04BB" unicode="&#x4bb;" horiz-adv-x="582" 
d="M343 0v140q0 57 -60 57q-24 0 -42 -8v-189h-194v539h194v-210q21 8 46 13t51 5q98 0 148.5 -47.5t50.5 -138.5v-161h-194z" />
    <glyph glyph-name="uni04C0" unicode="&#x4c0;" horiz-adv-x="306" 
d="M53 0v724h200v-724h-200z" />
    <glyph glyph-name="uni04CF" unicode="&#x4cf;" horiz-adv-x="288" 
d="M47 0v539h194v-539h-194z" />
    <glyph glyph-name="uni04D8" unicode="&#x4d8;" horiz-adv-x="640" 
d="M606 362q0 -82 -20 -150.5t-58.5 -118.5t-94 -78t-125.5 -28q-80 0 -133 33t-84.5 86.5t-45 119.5t-13.5 132q0 30 3 60l361 45q-9 49 -46.5 79.5t-99.5 30.5q-35 0 -70 -6.5t-65 -19.5l-67 149q49 22 107 31.5t121 9.5q80 0 141.5 -28t103.5 -78.5t63.5 -119
t21.5 -149.5zM235 288q0 -27 5 -51t15 -42t23.5 -28.5t31.5 -10.5q44 0 69.5 42.5t25.5 110.5z" />
    <glyph glyph-name="afii10846" unicode="&#x4d9;" horiz-adv-x="576" 
d="M546 269q0 -62 -18 -113.5t-52 -89t-83.5 -58.5t-112.5 -21q-67 0 -114.5 21.5t-77.5 58.5t-44 86.5t-14 105.5q0 26 3 53l323 41q-11 29 -41.5 43t-71.5 14t-81.5 -9t-72.5 -24l-52 135q39 18 98.5 29t123.5 11q73 0 127.5 -22.5t89.5 -61t52.5 -90t17.5 -109.5z
M217 211q0 -41 18 -64.5t50 -23.5q34 0 59 24t26 82z" />
    <glyph glyph-name="uni04E2" unicode="&#x4e2;" horiz-adv-x="660" 
d="M432 0v310q0 26 0.5 52.5t1.5 47.5h-2q-8 -20 -19 -43t-25 -47l-180 -320h-155v724h175v-295q0 -29 -0.5 -54t-1.5 -49h2q11 25 21 46t23 44l174 308h161v-724h-175zM170 799v110h320v-110h-320z" />
    <glyph glyph-name="uni04E3" unicode="&#x4e3;" horiz-adv-x="612" 
d="M396 0v231q0 20 0.5 39t1.5 36h-2q-7 -17 -14.5 -32.5t-18.5 -34.5l-134 -239h-182v539h169v-219q0 -22 -0.5 -41t-1.5 -36h2q8 17 15.5 33.5t17.5 33.5l129 229h187v-539h-169zM146 614v110h320v-110h-320z" />
    <glyph glyph-name="uni04E8" unicode="&#x4e8;" horiz-adv-x="636" 
d="M602 362q0 -81 -17 -149.5t-51.5 -119t-88.5 -78.5t-127 -28q-74 0 -127.5 28t-88 78.5t-51.5 119t-17 149.5t17 149.5t51.5 119t88 78.5t127.5 28q73 0 127 -28t88.5 -78.5t51.5 -119t17 -149.5zM409 433q-7 65 -28.5 101.5t-62.5 36.5t-62.5 -36.5t-28.5 -101.5h182z
M227 291q7 -65 28.5 -101.5t62.5 -36.5t62.5 36.5t28.5 101.5h-182z" />
    <glyph glyph-name="uni04E9" unicode="&#x4e9;" horiz-adv-x="582" 
d="M552 270q0 -61 -17.5 -112.5t-51 -89.5t-82 -59.5t-110.5 -21.5t-110.5 21.5t-82 59.5t-51 89.5t-17.5 112.5t17.5 112.5t51 89t82 59t110.5 21.5t110.5 -21.5t82 -59t51 -89t17.5 -112.5zM370 328q-7 42 -25.5 66t-53.5 24t-53.5 -24t-25.5 -66h158zM213 212
q7 -41 25.5 -63.5t52.5 -22.5t52.5 22.5t25.5 63.5h-156z" />
    <glyph glyph-name="uni04EE" unicode="&#x4ee;" horiz-adv-x="620" 
d="M602 724q-3 -65 -18.5 -133.5t-38 -136t-51 -131t-58.5 -117.5l-113 -206h-224l118 204q-82 114 -136.5 247t-62.5 273h212q7 -105 29.5 -192t56.5 -162h2q27 72 46.5 161.5t25.5 192.5h212zM150 799v110h320v-110h-320z" />
    <glyph glyph-name="uni04EF" unicode="&#x4ef;" horiz-adv-x="566" 
d="M552 539q-3 -48 -16.5 -97.5t-33.5 -97.5t-45 -94t-50 -87l-101 -163h-220l104 160q-71 89 -120 182t-56 197h204q6 -72 23 -128.5t47 -112.5h2q25 51 39 110t19 131h204zM123 614v110h320v-110h-320z" />
    <glyph glyph-name="Wgrave" unicode="&#x1e80;" horiz-adv-x="918" 
d="M737 0h-191l-68 320q-8 34 -12 63t-6 47h-2q-3 -22 -6.5 -48t-11.5 -62l-68 -320h-191l-175 724h202l62 -377q5 -29 8 -52t5 -45h2q2 15 5 41.5t9 55.5l79 377h162l79 -377q5 -27 8.5 -53.5t5.5 -43.5h2q2 19 5 42t8 55l62 377h202zM408 785l-116 132q5 17 26.5 27.5
t48.5 10.5q26 0 53.5 -8.5t48.5 -29.5l67 -132h-128z" />
    <glyph glyph-name="wgrave" unicode="&#x1e81;" horiz-adv-x="860" 
d="M701 0h-202l-53 233q-6 27 -9.5 49.5t-5.5 38.5h-2q-2 -12 -6 -38t-9 -50l-53 -233h-202l-149 539h195l46 -275q4 -22 6.5 -49.5t4.5 -44.5h2q2 16 6.5 42t10.5 52l62 275h174l62 -275q2 -8 4.5 -20t5 -25.5t4.5 -26.5t3 -22h2q2 16 4 41.5t7 52.5l46 275h195zM376 600
l-116 132q5 17 26.5 27.5t48.5 10.5q26 0 53.5 -8.5t48.5 -29.5l67 -132h-128z" />
    <glyph glyph-name="Wacute" unicode="&#x1e82;" horiz-adv-x="918" 
d="M737 0h-191l-68 320q-8 34 -12 63t-6 47h-2q-3 -22 -6.5 -48t-11.5 -62l-68 -320h-191l-175 724h202l62 -377q5 -29 8 -52t5 -45h2q2 15 5 41.5t9 55.5l79 377h162l79 -377q5 -27 8.5 -53.5t5.5 -43.5h2q2 19 5 42t8 55l62 377h202zM510 785h-128l67 132q21 21 48.5 29.5
t53.5 8.5q27 0 48.5 -10.5t26.5 -27.5z" />
    <glyph glyph-name="wacute" unicode="&#x1e83;" horiz-adv-x="860" 
d="M701 0h-202l-53 233q-6 27 -9.5 49.5t-5.5 38.5h-2q-2 -12 -6 -38t-9 -50l-53 -233h-202l-149 539h195l46 -275q4 -22 6.5 -49.5t4.5 -44.5h2q2 16 6.5 42t10.5 52l62 275h174l62 -275q2 -8 4.5 -20t5 -25.5t4.5 -26.5t3 -22h2q2 16 4 41.5t7 52.5l46 275h195zM484 600
h-128l67 132q21 21 48.5 29.5t53.5 8.5q27 0 48.5 -10.5t26.5 -27.5z" />
    <glyph glyph-name="Wdieresis" unicode="&#x1e84;" horiz-adv-x="918" 
d="M737 0h-191l-68 320q-8 34 -12 63t-6 47h-2q-3 -22 -6.5 -48t-11.5 -62l-68 -320h-191l-175 724h202l62 -377q5 -29 8 -52t5 -45h2q2 15 5 41.5t9 55.5l79 377h162l79 -377q5 -27 8.5 -53.5t5.5 -43.5h2q2 19 5 42t8 55l62 377h202zM658 857q0 -33 -25.5 -56.5
t-61.5 -23.5t-61.5 23.5t-25.5 56.5t25.5 56.5t61.5 23.5t61.5 -23.5t25.5 -56.5zM434 857q0 -33 -25.5 -56.5t-61.5 -23.5t-61.5 23.5t-25.5 56.5t25.5 56.5t61.5 23.5t61.5 -23.5t25.5 -56.5z" />
    <glyph glyph-name="wdieresis" unicode="&#x1e85;" horiz-adv-x="860" 
d="M701 0h-202l-53 233q-6 27 -9.5 49.5t-5.5 38.5h-2q-2 -12 -6 -38t-9 -50l-53 -233h-202l-149 539h195l46 -275q4 -22 6.5 -49.5t4.5 -44.5h2q2 16 6.5 42t10.5 52l62 275h174l62 -275q2 -8 4.5 -20t5 -25.5t4.5 -26.5t3 -22h2q2 16 4 41.5t7 52.5l46 275h195zM629 672
q0 -33 -25.5 -56.5t-61.5 -23.5t-61.5 23.5t-25.5 56.5t25.5 56.5t61.5 23.5t61.5 -23.5t25.5 -56.5zM405 672q0 -33 -25.5 -56.5t-61.5 -23.5t-61.5 23.5t-25.5 56.5t25.5 56.5t61.5 23.5t61.5 -23.5t25.5 -56.5z" />
    <glyph glyph-name="uni1E8A" unicode="&#x1e8a;" horiz-adv-x="618" 
d="M408 0l-98 218h-2l-98 -218h-220l200 376l-184 348h218l84 -191h2l84 191h218l-184 -348l200 -376h-220zM410 873q0 -20 -8 -37t-21.5 -29.5t-32 -20t-39.5 -7.5t-39.5 7.5t-32 20t-21.5 29.5t-8 37q0 19 8 36.5t21.5 30t32 20t39.5 7.5t39.5 -7.5t32 -20t21.5 -30
t8 -36.5z" />
    <glyph glyph-name="uni1E8B" unicode="&#x1e8b;" horiz-adv-x="586" 
d="M373 0l-79 150h-2l-79 -150h-223l182 279l-166 260h218l68 -139h2l68 139h218l-166 -260l182 -279h-223zM394 688q0 -20 -8 -37t-21.5 -29.5t-32 -20t-39.5 -7.5t-39.5 7.5t-32 20t-21.5 29.5t-8 37q0 19 8 36.5t21.5 30t32 20t39.5 7.5t39.5 -7.5t32 -20t21.5 -30
t8 -36.5z" />
    <glyph glyph-name="Ygrave" unicode="&#x1ef2;" horiz-adv-x="576" 
d="M388 278v-278h-200v278l-198 446h214l83 -245h2l83 245h214zM238 785l-116 132q5 17 26.5 27.5t48.5 10.5q26 0 53.5 -8.5t48.5 -29.5l67 -132h-128z" />
    <glyph glyph-name="ygrave" unicode="&#x1ef3;" horiz-adv-x="568" 
d="M381 195v-195h-194v195l-197 344h222l71 -176h2l71 176h222zM240 600l-116 132q5 17 26.5 27.5t48.5 10.5q26 0 53.5 -8.5t48.5 -29.5l67 -132h-128z" />
    <glyph glyph-name="uni2007" unicode="&#x2007;" horiz-adv-x="610" 
 />
    <glyph glyph-name="uni2008" unicode="&#x2008;" horiz-adv-x="292" 
 />
    <glyph glyph-name="uni200B" unicode="&#x200b;" horiz-adv-x="0" 
 />
    <glyph glyph-name="endash" unicode="&#x2013;" horiz-adv-x="430" 
d="M-4 252v146h438v-146h-438z" />
    <glyph glyph-name="emdash" unicode="&#x2014;" horiz-adv-x="860" 
d="M60 252v146h740v-146h-740z" />
    <glyph glyph-name="afii00208" unicode="&#x2015;" horiz-adv-x="860" 
d="M0 252v146h860v-146h-860z" />
    <glyph glyph-name="quoteleft" unicode="&#x2018;" horiz-adv-x="344" 
d="M220 462q-18 -29 -47 -48t-67 -19t-59 21t-23 46l169 323h127z" />
    <glyph glyph-name="quoteright" unicode="&#x2019;" horiz-adv-x="344" 
d="M151 404h-127l100 323q18 29 47 48t67 19t59 -21t23 -46z" />
    <glyph glyph-name="quotesinglbase" unicode="&#x201a;" horiz-adv-x="344" 
d="M151 -169h-127l100 323q18 29 47 48t67 19t59 -21t23 -46z" />
    <glyph glyph-name="quotedblleft" unicode="&#x201c;" horiz-adv-x="600" 
d="M476 462q-18 -29 -47 -48t-67 -19t-59 21t-23 46l169 323h127zM220 462q-18 -29 -47 -48t-67 -19t-59 21t-23 46l169 323h127z" />
    <glyph glyph-name="quotedblright" unicode="&#x201d;" horiz-adv-x="600" 
d="M407 404h-127l100 323q18 29 47 48t67 19t59 -21t23 -46zM151 404h-127l100 323q18 29 47 48t67 19t59 -21t23 -46z" />
    <glyph glyph-name="quotedblbase" unicode="&#x201e;" horiz-adv-x="600" 
d="M407 -169h-127l100 323q18 29 47 48t67 19t59 -21t23 -46zM151 -169h-127l100 323q18 29 47 48t67 19t59 -21t23 -46z" />
    <glyph glyph-name="dagger" unicode="&#x2020;" horiz-adv-x="680" 
d="M437 359v-574h-194v574h-203v180h203v246h194v-246h203v-180h-203z" />
    <glyph glyph-name="daggerdbl" unicode="&#x2021;" horiz-adv-x="680" 
d="M437 39v-254h-194v254h-203v180h203v140h-203v180h203v246h194v-246h203v-180h-203v-140h203v-180h-203z" />
    <glyph glyph-name="bullet" unicode="&#x2022;" horiz-adv-x="480" 
d="M430 325q0 -39 -15 -74t-40.5 -60.5t-60.5 -40.5t-74 -15t-74 15t-60.5 40.5t-40.5 60.5t-15 74t15 74t40.5 60.5t60.5 40.5t74 15t74 -15t60.5 -40.5t40.5 -60.5t15 -74z" />
    <glyph glyph-name="ellipsis" unicode="&#x2026;" horiz-adv-x="876" 
d="M846 105q0 -24 -9 -45t-25 -37t-37 -25t-45 -9t-45 9t-37 25t-25 37t-9 45t9 45t25 37t37 25t45 9t45 -9t37 -25t25 -37t9 -45zM554 105q0 -24 -9 -45t-25 -37t-37 -25t-45 -9t-45 9t-37 25t-25 37t-9 45t9 45t25 37t37 25t45 9t45 -9t37 -25t25 -37t9 -45zM262 105
q0 -24 -9 -45t-25 -37t-37 -25t-45 -9t-45 9t-37 25t-25 37t-9 45t9 45t25 37t37 25t45 9t45 -9t37 -25t25 -37t9 -45z" />
    <glyph glyph-name="perthousand" unicode="&#x2030;" horiz-adv-x="1344" 
d="M1306 190q0 -47 -13 -84.5t-37 -63.5t-58 -40.5t-75 -14.5t-75 14.5t-58 40.5t-37 63.5t-13 84.5q0 46 13 84t37 64t58 40.5t75 14.5t75 -14.5t58 -40.5t37 -64t13 -84zM900 190q0 -47 -13 -84.5t-37 -63.5t-58 -40.5t-75 -14.5t-75 14.5t-58 40.5t-37 63.5t-13 84.5
q0 46 13 84t37 64t58 40.5t75 14.5t75 -14.5t58 -40.5t37 -64t13 -84zM392 -15l-112 35l266 719l112 -35zM404 534q0 -47 -13 -84.5t-37 -63.5t-58 -40.5t-75 -14.5t-75 14.5t-58 40.5t-37 63.5t-13 84.5q0 46 13 84t37 64t58 40.5t75 14.5t75 -14.5t58 -40.5t37 -64t13 -84
zM1169 192q0 41 -11.5 63.5t-34.5 22.5t-34.5 -22.5t-11.5 -63.5t11.5 -63.5t34.5 -22.5t34.5 22.5t11.5 63.5zM763 192q0 41 -11.5 63.5t-34.5 22.5t-34.5 -22.5t-11.5 -63.5t11.5 -63.5t34.5 -22.5t34.5 22.5t11.5 63.5zM267 536q0 41 -11.5 63.5t-34.5 22.5t-34.5 -22.5
t-11.5 -63.5t11.5 -63.5t34.5 -22.5t34.5 22.5t11.5 63.5z" />
    <glyph glyph-name="guilsinglleft" unicode="&#x2039;" horiz-adv-x="364" 
d="M216 41l-192 264l192 264l110 -81l-132 -183l132 -183z" />
    <glyph glyph-name="guilsinglright" unicode="&#x203a;" horiz-adv-x="364" 
d="M148 41l-110 81l132 183l-132 183l110 81l192 -264z" />
    <glyph glyph-name="fraction" unicode="&#x2044;" horiz-adv-x="156" 
d="M-68 -20l-88 47l380 717l88 -47z" />
    <glyph glyph-name="uni2070" unicode="&#x2070;" 
d="M344 712q0 -49 -9.5 -89.5t-29 -69.5t-50 -45t-71.5 -16t-71.5 16t-50 45t-29 69.5t-9.5 89.5t9.5 89.5t29 69.5t50 45t71.5 16t71.5 -16t50 -45t29 -69.5t9.5 -89.5zM229 713q0 131 -45 131t-45 -131t45 -131t45 131z" />
    <glyph glyph-name="uni2074" unicode="&#x2074;" 
d="M308 599v-99h-105v99h-182v79l163 246h124v-246h37v-79h-37zM207 826q-3 -6 -9 -19t-17 -30l-64 -99h90v91q0 19 0.5 33t1.5 24h-2z" />
    <glyph glyph-name="uni2075" unicode="&#x2075;" 
d="M332 634q0 -38 -14 -64.5t-38 -44t-56.5 -25.5t-69.5 -8q-35 0 -70.5 6t-63.5 17l35 87q17 -7 45 -11.5t51 -4.5q32 0 48 12t16 32q0 23 -22.5 38t-78.5 15q-14 0 -30 -1.5t-35 -3.5l29 246h245v-92h-147l-9 -67q83 -2 124 -36.5t41 -94.5z" />
    <glyph glyph-name="uni2076" unicode="&#x2076;" 
d="M345 637q0 -32 -11.5 -58.5t-32.5 -45.5t-50 -30t-64 -11q-43 0 -73.5 14t-50 37.5t-29 54.5t-9.5 65q0 61 22 107.5t58 79.5t82.5 53t95.5 29l27 -94q-55 -10 -93 -28t-58 -51q10 2 20.5 4t19.5 2q70 0 108 -35t38 -93zM233 636q0 25 -15 39.5t-40 14.5q-11 0 -22 -2
t-20 -5q0 -5 -0.5 -10.5t-0.5 -10.5q0 -37 13.5 -58.5t38.5 -21.5q23 0 34.5 16.5t11.5 37.5z" />
    <glyph glyph-name="uni2077" unicode="&#x2077;" 
d="M180 500h-129l146 332h-171v92h324z" />
    <glyph glyph-name="uni2078" unicode="&#x2078;" 
d="M345 611q0 -27 -12 -49t-33.5 -37.5t-51 -24t-64.5 -8.5q-71 0 -116 30t-45 89q0 42 22 66.5t52 40.5q-27 16 -46 38t-19 57q0 29 11.5 51t32 37t48.5 23t60 8q31 0 58.5 -8.5t48.5 -24t33 -37.5t12 -49q0 -35 -19 -57t-46 -38q30 -16 52 -40.5t22 -66.5zM228 813
q0 16 -10.5 29t-33.5 13t-33.5 -13t-10.5 -29q0 -20 12 -32t32 -23q20 11 32 23t12 32zM233 616q0 21 -14 35t-35 25q-21 -11 -35 -25t-14 -35q0 -19 14 -31t35 -12t35 12t14 31z" />
    <glyph glyph-name="uni2079" unicode="&#x2079;" 
d="M343 761q0 -62 -22 -108t-58 -79t-82.5 -53t-95.5 -29l-27 94q55 10 93 28t58 51q-10 -2 -20.5 -4t-19.5 -2q-70 0 -108 35t-38 93q0 31 11.5 58t32.5 46t50 30t64 11q43 0 73.5 -14t50 -37.5t29 -54.5t9.5 -65zM233 763q0 37 -13.5 58.5t-38.5 21.5q-23 0 -34.5 -16.5
t-11.5 -37.5q0 -25 15 -39.5t40 -14.5q11 0 22 2t20 5q0 5 0.5 10.5t0.5 10.5z" />
    <glyph glyph-name="uni207A" unicode="&#x207a;" 
d="M230 672v-90h-92v90h-88v86h88v90h92v-90h88v-86h-88z" />
    <glyph glyph-name="uni207B" unicode="&#x207b;" 
d="M50 672v86h268v-86h-268z" />
    <glyph glyph-name="uni207C" unicode="&#x207c;" 
d="M50 743v86h268v-86h-268zM50 601v86h268v-86h-268z" />
    <glyph glyph-name="uni207D" unicode="&#x207d;" horiz-adv-x="276" 
d="M176 398q-66 63 -102 143t-36 171t36 171t102 143l86 -45q-46 -54 -71 -122.5t-25 -146.5t25 -146.5t71 -122.5z" />
    <glyph glyph-name="uni207E" unicode="&#x207e;" horiz-adv-x="276" 
d="M238 712q0 -91 -36 -171t-102 -143l-86 45q46 54 71 122.5t25 146.5t-25 146.5t-71 122.5l86 45q66 -63 102 -143t36 -171z" />
    <glyph glyph-name="uni207F" unicode="&#x207f;" horiz-adv-x="420" 
d="M260 500v256q0 49 -55 49q-26 0 -45 -8v-297h-116v362q31 14 72.5 23.5t87.5 9.5q92 0 132 -34t40 -106v-255h-116z" />
    <glyph glyph-name="uni2080" unicode="&#x2080;" 
d="M344 -3q0 -49 -9.5 -89.5t-29 -69.5t-50 -45t-71.5 -16t-71.5 16t-50 45t-29 69.5t-9.5 89.5t9.5 89.5t29 69.5t50 45t71.5 16t71.5 -16t50 -45t29 -69.5t9.5 -89.5zM229 -2q0 131 -45 131t-45 -131t45 -131t45 131z" />
    <glyph glyph-name="uni2081" unicode="&#x2081;" 
d="M174 -215v302q-20 -9 -49.5 -16t-53.5 -9l-17 85q44 6 84.5 23t60.5 39h91v-424h-116z" />
    <glyph glyph-name="uni2082" unicode="&#x2082;" 
d="M8 -215l182 241q8 11 13.5 23t5.5 26q0 20 -15 34.5t-44 14.5q-22 0 -46 -5t-45 -13l-30 88q29 11 63 17t68 6q84 0 126.5 -36t42.5 -99q0 -32 -15 -58.5t-31 -45.5l-88 -101h141v-92h-328z" />
    <glyph glyph-name="uni2083" unicode="&#x2083;" 
d="M330 -91q0 -60 -44.5 -96t-127.5 -36q-37 0 -74 6t-66 17l35 88q43 -16 104 -16q29 0 42.5 10.5t13.5 27.5q0 22 -31 35t-77 13v81q51 3 74.5 17.5t23.5 34.5q0 14 -12 23.5t-37 9.5q-22 0 -47.5 -5t-46.5 -13l-31 88q32 11 68.5 17t74.5 6q77 0 112 -32t35 -84
q0 -27 -16 -51t-42 -38v-2q32 -14 50.5 -39.5t18.5 -61.5z" />
    <glyph glyph-name="uni2084" unicode="&#x2084;" 
d="M308 -116v-99h-105v99h-182v79l163 246h124v-246h37v-79h-37zM207 111q-3 -6 -9 -19t-17 -30l-64 -99h90v91q0 19 0.5 33t1.5 24h-2z" />
    <glyph glyph-name="uni2085" unicode="&#x2085;" 
d="M332 -81q0 -38 -14 -64.5t-38 -44t-56.5 -25.5t-69.5 -8q-35 0 -70.5 6t-63.5 17l35 87q17 -7 45 -11.5t51 -4.5q32 0 48 12t16 32q0 23 -22.5 38t-78.5 15q-14 0 -30 -1.5t-35 -3.5l29 246h245v-92h-147l-9 -67q83 -2 124 -36.5t41 -94.5z" />
    <glyph glyph-name="uni2086" unicode="&#x2086;" 
d="M345 -78q0 -32 -11.5 -58.5t-32.5 -45.5t-50 -30t-64 -11q-43 0 -73.5 14t-50 37.5t-29 54.5t-9.5 65q0 61 22 107.5t58 79.5t82.5 53t95.5 29l27 -94q-55 -10 -93 -28t-58 -51q10 2 20.5 4t19.5 2q70 0 108 -35t38 -93zM233 -79q0 25 -15 39.5t-40 14.5q-11 0 -22 -2
t-20 -5q0 -5 -0.5 -10.5t-0.5 -10.5q0 -37 13.5 -58.5t38.5 -21.5q23 0 34.5 16.5t11.5 37.5z" />
    <glyph glyph-name="uni2087" unicode="&#x2087;" 
d="M180 -215h-129l146 332h-171v92h324z" />
    <glyph glyph-name="uni2088" unicode="&#x2088;" 
d="M345 -104q0 -27 -12 -49t-33.5 -37.5t-51 -24t-64.5 -8.5q-71 0 -116 30t-45 89q0 42 22 66.5t52 40.5q-27 16 -46 38t-19 57q0 29 11.5 51t32 37t48.5 23t60 8q31 0 58.5 -8.5t48.5 -24t33 -37.5t12 -49q0 -35 -19 -57t-46 -38q30 -16 52 -40.5t22 -66.5zM228 98
q0 16 -10.5 29t-33.5 13t-33.5 -13t-10.5 -29q0 -20 12 -32t32 -23q20 11 32 23t12 32zM233 -99q0 21 -14 35t-35 25q-21 -11 -35 -25t-14 -35q0 -19 14 -31t35 -12t35 12t14 31z" />
    <glyph glyph-name="uni2089" unicode="&#x2089;" 
d="M343 46q0 -62 -22 -108t-58 -79t-82.5 -53t-95.5 -29l-27 94q55 10 93 28t58 51q-10 -2 -20.5 -4t-19.5 -2q-70 0 -108 35t-38 93q0 31 11.5 58t32.5 46t50 30t64 11q43 0 73.5 -14t50 -37.5t29 -54.5t9.5 -65zM233 48q0 37 -13.5 58.5t-38.5 21.5q-23 0 -34.5 -16.5
t-11.5 -37.5q0 -25 15 -39.5t40 -14.5q11 0 22 2t20 5q0 5 0.5 10.5t0.5 10.5z" />
    <glyph glyph-name="uni208A" unicode="&#x208a;" 
d="M230 -43v-90h-92v90h-88v86h88v90h92v-90h88v-86h-88z" />
    <glyph glyph-name="uni208B" unicode="&#x208b;" 
d="M50 -43v86h268v-86h-268z" />
    <glyph glyph-name="uni208C" unicode="&#x208c;" 
d="M50 28v86h268v-86h-268zM50 -114v86h268v-86h-268z" />
    <glyph glyph-name="uni208D" unicode="&#x208d;" horiz-adv-x="276" 
d="M176 -317q-66 63 -102 143t-36 171t36 171t102 143l86 -45q-46 -54 -71 -122.5t-25 -146.5t25 -146.5t71 -122.5z" />
    <glyph glyph-name="uni208E" unicode="&#x208e;" horiz-adv-x="276" 
d="M238 -3q0 -91 -36 -171t-102 -143l-86 45q46 54 71 122.5t25 146.5t-25 146.5t-71 122.5l86 45q66 -63 102 -143t36 -171z" />
    <glyph glyph-name="Euro" unicode="&#x20ac;" horiz-adv-x="670" 
d="M644 27q-32 -17 -77 -28.5t-104 -11.5q-60 0 -112.5 16t-94.5 47.5t-72 78t-45 107.5h-99v92h85q-1 8 -1 16v36q0 9 1 18h-85v92h99q32 121 117.5 184t206.5 63q56 0 102.5 -11.5t78.5 -28.5l-67 -142q-23 13 -51.5 18.5t-54.5 5.5q-45 0 -80.5 -21.5t-55.5 -67.5h215
v-92h-236q-1 -8 -1 -17v-36q0 -9 1 -17h236v-92h-214q20 -45 55 -66t80 -21q26 0 54.5 5.5t51.5 18.5z" />
    <glyph glyph-name="uni20B4" unicode="&#x20b4;" horiz-adv-x="610" 
d="M293 236q-10 -15 -10 -30q0 -23 17.5 -38.5t49.5 -15.5q30 0 61 7.5t55 20.5l58 -157q-36 -17 -85 -26.5t-100 -9.5q-62 0 -108.5 16t-77 45.5t-46 70t-15.5 89.5q0 8 0.5 14.5t1.5 13.5h-44v92h78q14 21 32 38.5t37 31.5h-147v92h265q12 16 12 34q0 25 -16.5 40.5
t-48.5 15.5q-26 0 -52.5 -7t-49.5 -19l-55 147q35 18 78.5 27t88.5 9q58 0 103 -15.5t76 -44t46.5 -68t15.5 -88.5q0 -8 -0.5 -15.5t-1.5 -15.5h49v-92h-81q-14 -22 -31 -39t-36 -31h148v-92h-267z" />
    <glyph glyph-name="afii61289" unicode="&#x2113;" horiz-adv-x="360" 
d="M328 11q-16 -8 -47 -14.5t-64 -6.5q-91 0 -130 49t-39 146v600h194v-586q0 -23 11.5 -31t31.5 -8q11 0 23 3t20 7v-159z" />
    <glyph glyph-name="afii61352" unicode="&#x2116;" horiz-adv-x="1096" 
d="M446 0l-180 320q-12 22 -24 47l-20 43h-2q1 -20 1.5 -47t0.5 -53v-310h-169v724h161l174 -308q13 -23 24.5 -46.5t19.5 -43.5h2q-1 22 -1.5 48.5t-0.5 54.5v295h169v-724h-155zM1066 366q0 -40 -13.5 -74.5t-39 -59.5t-63 -39t-84.5 -14t-84.5 14t-63 39t-39 59.5
t-13.5 74.5t13.5 74t39 59t63 39t84.5 14t84.5 -14t63 -39t39 -59t13.5 -74zM678 0v128h376v-128h-376zM918 367q0 38 -14 57t-38 19t-38 -19t-14 -57t14 -57.5t38 -19.5t38 19.5t14 57.5z" />
    <glyph glyph-name="uni2117" unicode="&#x2117;" horiz-adv-x="846" 
d="M808 362q0 -80 -28 -148.5t-79 -118.5t-122 -79t-156 -29t-156 29t-122 79t-79 118.5t-28 148.5q0 79 28 148t79 119t122 79t156 29t156 -29t122 -79t79 -119t28 -148zM694 362q0 58 -19.5 108t-54.5 86.5t-85.5 57.5t-111.5 21q-62 0 -112 -21t-85 -57.5t-54.5 -86.5
t-19.5 -108t19.5 -108t54.5 -86.5t85 -57.5t112 -21q61 0 111.5 21t85.5 57.5t54.5 86.5t19.5 108zM601 436q0 -55 -41 -92t-126 -37q-8 0 -15.5 0.5t-12.5 1.5v-139h-113v376q26 10 60 15.5t74 5.5q85 0 129.5 -35.5t44.5 -95.5zM488 436q0 27 -15 39t-45 12q-12 0 -22 -2
v-96q10 -2 22 -2q60 0 60 49z" />
    <glyph glyph-name="trademark" unicode="&#x2122;" horiz-adv-x="940" 
d="M776 294l-21 221q-2 22 -2.5 36.5t-1.5 28.5h-2q-2 -11 -5.5 -27.5t-9.5 -37.5l-65 -221h-84l-65 221q-7 23 -10 38.5t-5 26.5h-2q0 -9 -1 -28.5t-3 -36.5l-21 -221h-118l52 430h147l54 -190q5 -20 8 -35t5 -23h2q2 8 5 23t8 35l54 190h147l52 -430h-118zM261 616v-322
h-134v322h-87v108h309v-108h-88z" />
    <glyph glyph-name="Omega" unicode="&#x2126;" horiz-adv-x="664" 
d="M366 0v142q13 22 23.5 51t18 62t12 68.5t4.5 68.5q0 34 -5 65t-16 54t-28.5 36.5t-42.5 13.5t-42.5 -13.5t-28.5 -36.5t-16 -54t-5 -65q0 -33 4.5 -68.5t12 -68.5t18 -62t23.5 -51v-142h-268v152h100q-45 57 -68 129t-23 145q0 60 17 116.5t53 99.5t91 69t132 26
q76 0 131.5 -26t91.5 -69t53 -99.5t17 -116.5q0 -73 -23 -145t-68 -129h100v-152h-268z" />
    <glyph glyph-name="estimated" unicode="&#x212e;" horiz-adv-x="980" 
d="M243 347q2 -70 21 -128t53.5 -99t84.5 -64t113 -23q46 0 92 11t86.5 33t74.5 54t57 74l38 -24q-23 -42 -58 -77.5t-82 -61.5t-105 -40.5t-128 -14.5q-105 0 -184 32.5t-131.5 85t-78.5 120t-26 137.5t26 137.5t78.5 120t131.5 85t184 32.5t183.5 -32.5t131 -85t79 -120
t26.5 -137.5v-15h-667zM736 390q-4 65 -23.5 121t-51.5 97.5t-75.5 65t-95.5 23.5t-95.5 -23.5t-75.5 -65t-51.5 -97.5t-23.5 -121h492z" />
    <glyph glyph-name="uni2150" unicode="&#x2150;" horiz-adv-x="892" 
d="M174 300v302q-20 -9 -49.5 -16t-53.5 -9l-17 85q44 6 84.5 23t60.5 39h91v-424h-116zM300 -20l-88 47l380 717l88 -47zM704 0h-129l146 332h-171v92h324z" />
    <glyph glyph-name="uni2151" unicode="&#x2151;" horiz-adv-x="892" 
d="M174 300v302q-20 -9 -49.5 -16t-53.5 -9l-17 85q44 6 84.5 23t60.5 39h91v-424h-116zM300 -20l-88 47l380 717l88 -47zM867 261q0 -62 -22 -108t-58 -79t-82.5 -53t-95.5 -29l-27 94q55 10 93 28t58 51q-10 -2 -20.5 -4t-19.5 -2q-70 0 -108 35t-38 93q0 31 11.5 58
t32.5 46t50 30t64 11q43 0 73.5 -14t50 -37.5t29 -54.5t9.5 -65zM757 263q0 37 -13.5 58.5t-38.5 21.5q-23 0 -34.5 -16.5t-11.5 -37.5q0 -25 15 -39.5t40 -14.5q11 0 22 2t20 5q0 5 0.5 10.5t0.5 10.5z" />
    <glyph glyph-name="uni2152" unicode="&#x2152;" horiz-adv-x="1260" 
d="M174 300v302q-20 -9 -49.5 -16t-53.5 -9l-17 85q44 6 84.5 23t60.5 39h91v-424h-116zM300 -20l-88 47l380 717l88 -47zM698 0v302q-20 -9 -49.5 -16t-53.5 -9l-17 85q44 6 84.5 23t60.5 39h91v-424h-116zM1236 212q0 -49 -9.5 -89.5t-29 -69.5t-50 -45t-71.5 -16
t-71.5 16t-50 45t-29 69.5t-9.5 89.5t9.5 89.5t29 69.5t50 45t71.5 16t71.5 -16t50 -45t29 -69.5t9.5 -89.5zM1121 213q0 131 -45 131t-45 -131t45 -131t45 131z" />
    <glyph glyph-name="onethird" unicode="&#x2153;" horiz-adv-x="880" 
d="M840 124q0 -60 -44.5 -96t-127.5 -36q-37 0 -74 6t-66 17l35 88q43 -16 104 -16q29 0 42.5 10.5t13.5 27.5q0 22 -31 35t-77 13v81q51 3 74.5 17.5t23.5 34.5q0 14 -12 23.5t-37 9.5q-22 0 -47.5 -5t-46.5 -13l-31 88q32 11 68.5 17t74.5 6q77 0 112 -32t35 -84
q0 -27 -16 -51t-42 -38v-2q32 -14 50.5 -39.5t18.5 -61.5zM274 -20l-88 47l380 717l88 -47zM140 300v302q-20 -9 -49.5 -16t-53.5 -9l-17 85q44 6 84.5 23t60.5 39h91v-424h-116z" />
    <glyph glyph-name="twothirds" unicode="&#x2154;" horiz-adv-x="880" 
d="M852 124q0 -60 -44.5 -96t-127.5 -36q-37 0 -74 6t-66 17l35 88q43 -16 104 -16q29 0 42.5 10.5t13.5 27.5q0 22 -31 35t-77 13v81q51 3 74.5 17.5t23.5 34.5q0 14 -12 23.5t-37 9.5q-22 0 -47.5 -5t-46.5 -13l-31 88q32 11 68.5 17t74.5 6q77 0 112 -32t35 -84
q0 -27 -16 -51t-42 -38v-2q32 -14 50.5 -39.5t18.5 -61.5zM300 -20l-88 47l380 717l88 -47zM14 300l182 241q8 11 13.5 23t5.5 26q0 20 -15 34.5t-44 14.5q-22 0 -46 -5t-45 -13l-30 88q29 11 63 17t68 6q84 0 126.5 -36t42.5 -99q0 -32 -15 -58.5t-31 -45.5l-88 -101h134
v-92h-321z" />
    <glyph glyph-name="uni2155" unicode="&#x2155;" horiz-adv-x="880" 
d="M842 134q0 -38 -14 -64.5t-38 -44t-56.5 -25.5t-69.5 -8q-35 0 -70.5 6t-63.5 17l35 87q17 -7 45 -11.5t51 -4.5q32 0 48 12t16 32q0 23 -22.5 38t-78.5 15q-14 0 -30 -1.5t-35 -3.5l29 246h245v-92h-147l-9 -67q83 -2 124 -36.5t41 -94.5zM275 -20l-88 47l380 717
l88 -47zM140 300v302q-20 -9 -49.5 -16t-53.5 -9l-17 85q44 6 84.5 23t60.5 39h91v-424h-116z" />
    <glyph glyph-name="uni2156" unicode="&#x2156;" horiz-adv-x="880" 
d="M852 134q0 -38 -14 -64.5t-38 -44t-56.5 -25.5t-69.5 -8q-35 0 -70.5 6t-63.5 17l35 87q17 -7 45 -11.5t51 -4.5q32 0 48 12t16 32q0 23 -22.5 38t-78.5 15q-14 0 -30 -1.5t-35 -3.5l29 246h245v-92h-147l-9 -67q83 -2 124 -36.5t41 -94.5zM316 -20l-88 47l380 717
l88 -47zM14 300l182 241q8 11 13.5 23t5.5 26q0 20 -15 34.5t-44 14.5q-22 0 -46 -5t-45 -13l-30 88q29 11 63 17t68 6q84 0 126.5 -36t42.5 -99q0 -32 -15 -58.5t-31 -45.5l-88 -101h134v-92h-321z" />
    <glyph glyph-name="uni2157" unicode="&#x2157;" horiz-adv-x="880" 
d="M842 134q0 -38 -14 -64.5t-38 -44t-56.5 -25.5t-69.5 -8q-35 0 -70.5 6t-63.5 17l35 87q17 -7 45 -11.5t51 -4.5q32 0 48 12t16 32q0 23 -22.5 38t-78.5 15q-14 0 -30 -1.5t-35 -3.5l29 246h245v-92h-147l-9 -67q83 -2 124 -36.5t41 -94.5zM291 -20l-88 47l380 717
l88 -47zM332 424q0 -60 -44.5 -96t-127.5 -36q-37 0 -74 6t-66 17l35 88q43 -16 104 -16q29 0 42.5 10.5t13.5 27.5q0 22 -31 35t-77 13v81q51 3 74.5 17.5t23.5 34.5q0 14 -12 23.5t-37 9.5q-22 0 -47.5 -5t-46.5 -13l-31 88q32 11 68.5 17t74.5 6q77 0 112 -32t35 -84
q0 -27 -16 -51t-42 -38v-2q32 -14 50.5 -39.5t18.5 -61.5z" />
    <glyph glyph-name="uni2158" unicode="&#x2158;" horiz-adv-x="880" 
d="M842 134q0 -38 -14 -64.5t-38 -44t-56.5 -25.5t-69.5 -8q-35 0 -70.5 6t-63.5 17l35 87q17 -7 45 -11.5t51 -4.5q32 0 48 12t16 32q0 23 -22.5 38t-78.5 15q-14 0 -30 -1.5t-35 -3.5l29 246h245v-92h-147l-9 -67q83 -2 124 -36.5t41 -94.5zM301 -20l-88 47l380 717
l88 -47zM308 399v-99h-105v99h-182v79l163 246h124v-246h37v-79h-37zM207 626q-3 -6 -9 -19t-17 -30l-64 -99h90v91q0 19 0.5 33t1.5 24h-2z" />
    <glyph glyph-name="uni2159" unicode="&#x2159;" horiz-adv-x="880" 
d="M838 137q0 -32 -11.5 -58.5t-32.5 -45.5t-50 -30t-64 -11q-43 0 -73.5 14t-50 37.5t-29 54.5t-9.5 65q0 61 22 107.5t58 79.5t82.5 53t95.5 29l27 -94q-55 -10 -93 -28t-58 -51q10 2 20.5 4t19.5 2q70 0 108 -35t38 -93zM281 -20l-88 47l380 717l88 -47zM140 300v302
q-20 -9 -49.5 -16t-53.5 -9l-17 85q44 6 84.5 23t60.5 39h91v-424h-116zM726 136q0 25 -15 39.5t-40 14.5q-11 0 -22 -2t-20 -5q0 -5 -0.5 -10.5t-0.5 -10.5q0 -37 13.5 -58.5t38.5 -21.5q23 0 34.5 16.5t11.5 37.5z" />
    <glyph glyph-name="uni215A" unicode="&#x215a;" horiz-adv-x="880" 
d="M838 137q0 -32 -11.5 -58.5t-32.5 -45.5t-50 -30t-64 -11q-43 0 -73.5 14t-50 37.5t-29 54.5t-9.5 65q0 61 22 107.5t58 79.5t82.5 53t95.5 29l27 -94q-55 -10 -93 -28t-58 -51q10 2 20.5 4t19.5 2q70 0 108 -35t38 -93zM301 -20l-88 47l380 717l88 -47zM338 434
q0 -38 -14 -64.5t-38 -44t-56.5 -25.5t-69.5 -8q-35 0 -70.5 6t-63.5 17l35 87q17 -7 45 -11.5t51 -4.5q32 0 48 12t16 32q0 23 -22.5 38t-78.5 15q-14 0 -30 -1.5t-35 -3.5l29 246h245v-92h-147l-9 -67q83 -2 124 -36.5t41 -94.5zM726 136q0 25 -15 39.5t-40 14.5
q-11 0 -22 -2t-20 -5q0 -5 -0.5 -10.5t-0.5 -10.5q0 -37 13.5 -58.5t38.5 -21.5q23 0 34.5 16.5t11.5 37.5z" />
    <glyph glyph-name="oneeighth" unicode="&#x215b;" horiz-adv-x="880" 
d="M842 111q0 -27 -12 -49t-33.5 -37.5t-51 -24t-64.5 -8.5q-71 0 -116 30t-45 89q0 42 22 66.5t52 40.5q-27 16 -46 38t-19 57q0 29 11.5 51t32 37t48.5 23t60 8q31 0 58.5 -8.5t48.5 -24t33 -37.5t12 -49q0 -35 -19 -57t-46 -38q30 -16 52 -40.5t22 -66.5zM268 -20l-88 47
l380 717l88 -47zM140 300v302q-20 -9 -49.5 -16t-53.5 -9l-17 85q44 6 84.5 23t60.5 39h91v-424h-116zM725 313q0 16 -10.5 29t-33.5 13t-33.5 -13t-10.5 -29q0 -20 12 -32t32 -23q20 11 32 23t12 32zM730 116q0 21 -14 35t-35 25q-21 -11 -35 -25t-14 -35q0 -19 14 -31
t35 -12t35 12t14 31z" />
    <glyph glyph-name="threeeighths" unicode="&#x215c;" horiz-adv-x="880" 
d="M842 111q0 -27 -12 -49t-33.5 -37.5t-51 -24t-64.5 -8.5q-71 0 -116 30t-45 89q0 42 22 66.5t52 40.5q-27 16 -46 38t-19 57q0 29 11.5 51t32 37t48.5 23t60 8q31 0 58.5 -8.5t48.5 -24t33 -37.5t12 -49q0 -35 -19 -57t-46 -38q30 -16 52 -40.5t22 -66.5zM283 -20l-88 47
l380 717l88 -47zM332 424q0 -60 -44.5 -96t-127.5 -36q-37 0 -74 6t-66 17l35 88q43 -16 104 -16q29 0 42.5 10.5t13.5 27.5q0 22 -31 35t-77 13v81q51 3 74.5 17.5t23.5 34.5q0 14 -12 23.5t-37 9.5q-22 0 -47.5 -5t-46.5 -13l-31 88q32 11 68.5 17t74.5 6q77 0 112 -32
t35 -84q0 -27 -16 -51t-42 -38v-2q32 -14 50.5 -39.5t18.5 -61.5zM725 313q0 16 -10.5 29t-33.5 13t-33.5 -13t-10.5 -29q0 -20 12 -32t32 -23q20 11 32 23t12 32zM730 116q0 21 -14 35t-35 25q-21 -11 -35 -25t-14 -35q0 -19 14 -31t35 -12t35 12t14 31z" />
    <glyph glyph-name="fiveeighths" unicode="&#x215d;" horiz-adv-x="880" 
d="M842 111q0 -27 -12 -49t-33.5 -37.5t-51 -24t-64.5 -8.5q-71 0 -116 30t-45 89q0 42 22 66.5t52 40.5q-27 16 -46 38t-19 57q0 29 11.5 51t32 37t48.5 23t60 8q31 0 58.5 -8.5t48.5 -24t33 -37.5t12 -49q0 -35 -19 -57t-46 -38q30 -16 52 -40.5t22 -66.5zM282 -20l-88 47
l380 717l88 -47zM332 434q0 -38 -14 -64.5t-38 -44t-56.5 -25.5t-69.5 -8q-35 0 -70.5 6t-63.5 17l35 87q17 -7 45 -11.5t51 -4.5q32 0 48 12t16 32q0 23 -22.5 38t-78.5 15q-14 0 -30 -1.5t-35 -3.5l29 246h245v-92h-147l-9 -67q83 -2 124 -36.5t41 -94.5zM725 313
q0 16 -10.5 29t-33.5 13t-33.5 -13t-10.5 -29q0 -20 12 -32t32 -23q20 11 32 23t12 32zM730 116q0 21 -14 35t-35 25q-21 -11 -35 -25t-14 -35q0 -19 14 -31t35 -12t35 12t14 31z" />
    <glyph glyph-name="seveneighths" unicode="&#x215e;" horiz-adv-x="880" 
d="M842 111q0 -27 -12 -49t-33.5 -37.5t-51 -24t-64.5 -8.5q-71 0 -116 30t-45 89q0 42 22 66.5t52 40.5q-27 16 -46 38t-19 57q0 29 11.5 51t32 37t48.5 23t60 8q31 0 58.5 -8.5t48.5 -24t33 -37.5t12 -49q0 -35 -19 -57t-46 -38q30 -16 52 -40.5t22 -66.5zM258 -20l-88 47
l380 717l88 -47zM206 300h-129l146 332h-171v92h324zM725 313q0 16 -10.5 29t-33.5 13t-33.5 -13t-10.5 -29q0 -20 12 -32t32 -23q20 11 32 23t12 32zM730 116q0 21 -14 35t-35 25q-21 -11 -35 -25t-14 -35q0 -19 14 -31t35 -12t35 12t14 31z" />
    <glyph glyph-name="uni215F" unicode="&#x215f;" horiz-adv-x="498" 
d="M274 -20l-88 47l380 717l88 -47zM140 300v302q-20 -9 -49.5 -16t-53.5 -9l-17 85q44 6 84.5 23t60.5 39h91v-424h-116z" />
    <glyph glyph-name="uni2189" unicode="&#x2189;" horiz-adv-x="892" 
d="M344 512q0 -49 -9.5 -89.5t-29 -69.5t-50 -45t-71.5 -16t-71.5 16t-50 45t-29 69.5t-9.5 89.5t9.5 89.5t29 69.5t50 45t71.5 16t71.5 -16t50 -45t29 -69.5t9.5 -89.5zM229 513q0 131 -45 131t-45 -131t45 -131t45 131zM300 -20l-88 47l380 717l88 -47zM854 124
q0 -60 -44.5 -96t-127.5 -36q-37 0 -74 6t-66 17l35 88q43 -16 104 -16q29 0 42.5 10.5t13.5 27.5q0 22 -31 35t-77 13v81q51 3 74.5 17.5t23.5 34.5q0 14 -12 23.5t-37 9.5q-22 0 -47.5 -5t-46.5 -13l-31 88q32 11 68.5 17t74.5 6q77 0 112 -32t35 -84q0 -27 -16 -51
t-42 -38v-2q32 -14 50.5 -39.5t18.5 -61.5z" />
    <glyph glyph-name="arrowleft" unicode="&#x2190;" horiz-adv-x="1000" 
d="M375 252l135 -113l-112 -112l-298 298l298 298l112 -112l-135 -113h629v-146h-629z" />
    <glyph glyph-name="arrowup" unicode="&#x2191;" horiz-adv-x="800" 
d="M586 388l-103 123v-511h-166v511l-103 -123l-112 112l298 298l298 -298z" />
    <glyph glyph-name="arrowright" unicode="&#x2192;" horiz-adv-x="1000" 
d="M602 27l-112 112l135 113h-629v146h629l-135 113l112 112l298 -298z" />
    <glyph glyph-name="arrowdown" unicode="&#x2193;" horiz-adv-x="800" 
d="M400 -13l-298 298l112 112l103 -123v511h166v-511l103 123l112 -112z" />
    <glyph glyph-name="arrowboth" unicode="&#x2194;" horiz-adv-x="1400" 
d="M1002 27l-112 112l135 113h-650l135 -113l-112 -112l-298 298l298 298l112 -112l-135 -113h650l-135 113l112 112l298 -298z" />
    <glyph glyph-name="uni2196" unicode="&#x2196;" horiz-adv-x="800" 
d="M599 187l-335 335l13 -159h-165v422h422v-153l-172 14l348 -348z" />
    <glyph glyph-name="uni2197" unicode="&#x2197;" horiz-adv-x="800" 
d="M523 363l13 159l-335 -335l-111 111l348 348l-172 -14v153h422v-422h-165z" />
    <glyph glyph-name="uni2198" unicode="&#x2198;" horiz-adv-x="800" 
d="M266 -215v153l172 -14l-348 348l111 111l335 -335l-13 159h165v-422h-422z" />
    <glyph glyph-name="uni2199" unicode="&#x2199;" horiz-adv-x="800" 
d="M362 -76l172 14v-153h-422v422h165l-13 -159l335 335l111 -111z" />
    <glyph glyph-name="carriagereturn" unicode="&#x21b5;" horiz-adv-x="950" 
d="M319 0l135 -113l-112 -112l-298 298l298 298l112 -112l-135 -113h391v164h-100v146h260v-456h-551z" />
    <glyph glyph-name="uni21E6" unicode="&#x21e6;" horiz-adv-x="952" 
d="M539 185v-185h-133l-362 362l362 362h133v-185h333v-354h-333zM727 416h-321v116l-170 -170l170 -170v116h321v108z" />
    <glyph glyph-name="uni21E7" unicode="&#x21e7;" horiz-adv-x="864" 
d="M633 310v-310h-402v310h-161v123l362 362l362 -362v-123h-161zM432 603l-170 -170h110v-305h120v305h110z" />
    <glyph glyph-name="uni21E8" unicode="&#x21e8;" horiz-adv-x="952" 
d="M546 0h-133v185h-333v354h333v185h133l362 -362zM546 532v-116h-321v-108h321v-116l170 170z" />
    <glyph glyph-name="uni21E9" unicode="&#x21e9;" horiz-adv-x="864" 
d="M432 -71l-362 362v123h161v310h402v-310h161v-123zM492 291v305h-120v-305h-110l170 -170l170 170h-110z" />
    <glyph glyph-name="partialdiff" unicode="&#x2202;" horiz-adv-x="582" 
d="M552 274q0 -58 -17.5 -110t-53 -91.5t-88.5 -62.5t-123 -23q-62 0 -107 19.5t-74.5 52t-44 74t-14.5 85.5q0 47 16.5 92.5t48.5 81t78.5 57.5t107.5 22h17q-32 40 -78.5 69t-112.5 48l64 151q95 -27 166.5 -78t119 -114.5t71.5 -134.5t24 -138zM360 274q0 20 -2 38t-5 35
q-7 1 -14 1h-18q-23 0 -40.5 -10t-30.5 -27t-19.5 -40t-6.5 -49q0 -13 2.5 -28t9 -27.5t17.5 -20.5t28 -8q18 0 33 10.5t25 29t15.5 43t5.5 53.5z" />
    <glyph glyph-name="Delta" unicode="&#x2206;" horiz-adv-x="672" 
d="M-8 0l225 724h238l225 -724h-688zM354 466q-7 26 -11 51t-6 42h-2q-2 -17 -5.5 -40t-11.5 -53l-79 -316h194z" />
    <glyph glyph-name="product" unicode="&#x220f;" horiz-adv-x="790" 
d="M660 558v-773h-200v773h-130v-773h-200v773h-90v166h710v-166h-90z" />
    <glyph glyph-name="summation" unicode="&#x2211;" horiz-adv-x="550" 
d="M0 -215v128l225 363l-195 320v128h486v-166h-259l179 -282l-209 -325h289v-166h-516z" />
    <glyph glyph-name="minus" unicode="&#x2212;" horiz-adv-x="530" 
d="M50 252v146h430v-146h-430z" />
    <glyph glyph-name="uni2215" unicode="&#x2215;" horiz-adv-x="148" 
d="M-68 -20l-88 47l380 717l88 -47z" />
    <glyph glyph-name="uni2219" unicode="&#x2219;" horiz-adv-x="530" 
d="M381 325q0 -24 -9 -45t-25 -37t-37 -25t-45 -9t-45 9t-37 25t-25 37t-9 45t9 45t25 37t37 25t45 9t45 -9t37 -25t25 -37t9 -45z" />
    <glyph glyph-name="radical" unicode="&#x221a;" horiz-adv-x="790" 
d="M458 -215h-201l-152 467h-85v146h230l83 -293q4 -12 7 -27l6 -30q3 -15 4 -29l3 -22h2q3 21 6.5 46.5t11.5 61.5l160 680h217z" />
    <glyph glyph-name="infinity" unicode="&#x221e;" horiz-adv-x="944" 
d="M904 325q0 -53 -16 -97t-46 -76t-72.5 -50t-95.5 -18q-72 0 -118.5 29.5t-83.5 79.5q-19 -25 -39.5 -45t-44.5 -34.5t-53 -22t-65 -7.5q-53 0 -95.5 18t-72.5 50t-46 76t-16 97t16 97t46 76t72.5 50t95.5 18q36 0 65 -8t53 -22t44.5 -34t39.5 -45q37 49 83.5 79t118.5 30
q53 0 95.5 -18t72.5 -50t46 -76t16 -97zM736 325q0 38 -21 60.5t-53 22.5q-33 0 -56.5 -21t-49.5 -62q26 -41 49.5 -62t56.5 -21q32 0 53 22.5t21 60.5zM388 325q-26 41 -49.5 62t-56.5 21q-32 0 -53 -22.5t-21 -60.5t21 -60.5t53 -22.5q33 0 56.5 21t49.5 62z" />
    <glyph glyph-name="integral" unicode="&#x222b;" horiz-adv-x="452" 
d="M415 625q-8 4 -16.5 5.5t-16.5 1.5q-26 0 -42 -17t-16 -49v-562q0 -108 -57 -168t-163 -60q-32 0 -63 6.5t-51 16.5l47 146q8 -4 16.5 -5.5t16.5 -1.5q26 0 42 17t16 49v562q0 108 57 168t163 60q32 0 63 -6.5t51 -16.5z" />
    <glyph glyph-name="approxequal" unicode="&#x2248;" horiz-adv-x="530" 
d="M490 425q-20 -35 -57 -57t-75 -22q-26 0 -47.5 8t-42 17.5t-41.5 17.5t-46 8q-27 0 -50 -11.5t-40 -31.5l-51 110q20 35 57 57t75 22q26 0 47.5 -8t42 -17.5t41.5 -17.5t46 -8q27 0 50 11.5t40 31.5zM490 185q-20 -35 -57 -57t-75 -22q-26 0 -47.5 8t-42 17.5t-41.5 17.5
t-46 8q-27 0 -50 -11.5t-40 -31.5l-51 110q20 35 57 57t75 22q26 0 47.5 -8t42 -17.5t41.5 -17.5t46 -8q27 0 50 11.5t40 31.5z" />
    <glyph glyph-name="notequal" unicode="&#x2260;" horiz-adv-x="530" 
d="M233 132l-51 -117l-87 39l34 78h-79v146h143l41 94h-184v146h248l49 112l87 -39l-32 -73h78v-146h-142l-41 -94h183v-146h-247z" />
    <glyph glyph-name="lessequal" unicode="&#x2264;" horiz-adv-x="530" 
d="M50 336v113l430 165v-142l-261 -80l261 -79v-142zM50 0v131h430v-131h-430z" />
    <glyph glyph-name="greaterequal" unicode="&#x2265;" horiz-adv-x="530" 
d="M50 171v142l261 79l-261 80v142l430 -165v-113zM50 0v131h430v-131h-430z" />
    <glyph glyph-name="dotmath" unicode="&#x22c5;" horiz-adv-x="530" 
d="M381 325q0 -24 -9 -45t-25 -37t-37 -25t-45 -9t-45 9t-37 25t-25 37t-9 45t9 45t25 37t37 25t45 9t45 -9t37 -25t25 -37t9 -45z" />
    <glyph glyph-name="uni2300" unicode="&#x2300;" horiz-adv-x="922" 
d="M780 567q29 -45 45.5 -96.5t16.5 -108.5q0 -78 -30 -146t-82 -119t-121 -80.5t-148 -29.5q-56 0 -107 15t-96 42l-99 -99l-115 114l98 98q-29 45 -45.5 96.5t-16.5 108.5q0 78 30 146t81.5 119t121 80.5t148.5 29.5q57 0 107.5 -15t95.5 -43l100 100l114 -114zM547 562
q-41 19 -86 19q-44 0 -83 -17t-68 -47t-45.5 -70t-16.5 -85q0 -22 4 -42.5t12 -40.5zM674 362q0 22 -4 42.5t-12 40.5l-283 -284q39 -18 86 -18q44 0 83 17t68 47t45.5 70t16.5 85z" />
    <glyph glyph-name="uni2318" unicode="&#x2318;" horiz-adv-x="900" 
d="M832 145q0 -34 -12.5 -62.5t-34 -49.5t-50.5 -33t-62 -12q-86 0 -128 47t-42 132v43h-106v-43q0 -85 -42 -132t-128 -47q-33 0 -62 12t-50.5 33t-34 49.5t-12.5 62.5q0 81 47.5 122t133.5 41h38v108h-38q-86 0 -133.5 41t-47.5 122q0 34 12.5 62.5t34 49.5t50.5 33t62 12
q86 0 128 -47t42 -132v-43h106v43q0 85 42 132t128 47q33 0 62 -12t50.5 -33t34 -49.5t12.5 -62.5q0 -81 -47.5 -122t-133.5 -41h-38v-108h38q86 0 133.5 -41t47.5 -122zM722 579q0 24 -13.5 41.5t-36.5 17.5q-59 0 -59 -81v-43h38q41 0 56 17.5t15 47.5zM722 145
q0 30 -15 47.5t-56 17.5h-38v-43q0 -81 59 -81q23 0 36.5 17.5t13.5 41.5zM503 416h-106v-108h106v108zM287 557q0 81 -59 81q-23 0 -36.5 -17.5t-13.5 -41.5q0 -30 15 -47.5t56 -17.5h38v43zM287 210h-38q-41 0 -56 -17.5t-15 -47.5q0 -24 13.5 -41.5t36.5 -17.5
q59 0 59 81v43z" />
    <glyph glyph-name="uni2324" unicode="&#x2324;" horiz-adv-x="900" 
d="M80 578v146h740v-146h-740zM679 131l-229 229l-229 -229l-108 108l337 337l337 -337z" />
    <glyph glyph-name="uni2325" unicode="&#x2325;" horiz-adv-x="900" 
d="M477 310v146h345v-146h-345zM365 0l-139 310h-164v146h276l139 -310h345v-146h-457z" />
    <glyph glyph-name="uni2326" unicode="&#x2326;" horiz-adv-x="1220" 
d="M814 0h-734v724h734l362 -362zM751 598h-531v-472h531l237 236zM642 155l-107 108l-107 -108l-100 100l108 107l-108 107l100 100l107 -108l107 108l100 -100l-108 -107l108 -107z" />
    <glyph glyph-name="uni232B" unicode="&#x232b;" horiz-adv-x="1220" 
d="M406 0l-362 362l362 362h734v-724h-734zM1000 598h-531l-237 -236l237 -236h531v472zM792 155l-107 108l-107 -108l-100 100l108 107l-108 107l100 100l107 -108l107 108l100 -100l-108 -107l108 -107z" />
    <glyph glyph-name="uni2460" unicode="&#x2460;" horiz-adv-x="900" 
d="M860 393q0 -84 -32.5 -158t-88 -129t-130 -87t-159.5 -32t-159.5 32t-130 87t-88 129t-32.5 158t32.5 158t88 128.5t130 86.5t159.5 32t159.5 -32t130 -86.5t88 -128.5t32.5 -158zM764 393q0 66 -24.5 123.5t-67.5 100.5t-100 68t-122 25t-122 -25t-100 -68t-67.5 -100.5
t-24.5 -123.5t24.5 -123.5t67.5 -101t100 -68.5t122 -25t122 25t100 68.5t67.5 101t24.5 123.5zM424 184v302q-20 -9 -49.5 -16t-53.5 -9l-17 85q44 6 84.5 23t60.5 39h91v-424h-116z" />
    <glyph glyph-name="uni2461" unicode="&#x2461;" horiz-adv-x="900" 
d="M860 393q0 -84 -32.5 -158t-88 -129t-130 -87t-159.5 -32t-159.5 32t-130 87t-88 129t-32.5 158t32.5 158t88 128.5t130 86.5t159.5 32t159.5 -32t130 -86.5t88 -128.5t32.5 -158zM764 393q0 66 -24.5 123.5t-67.5 100.5t-100 68t-122 25t-122 -25t-100 -68t-67.5 -100.5
t-24.5 -123.5t24.5 -123.5t67.5 -101t100 -68.5t122 -25t122 25t100 68.5t67.5 101t24.5 123.5zM290 184l182 241q8 11 13.5 23t5.5 26q0 20 -15 34.5t-44 14.5q-22 0 -46 -5t-45 -13l-30 88q29 11 63 17t68 6q84 0 126.5 -36t42.5 -99q0 -32 -15 -58.5t-31 -45.5l-88 -101
h141v-92h-328z" />
    <glyph glyph-name="uni2462" unicode="&#x2462;" horiz-adv-x="900" 
d="M860 393q0 -84 -32.5 -158t-88 -129t-130 -87t-159.5 -32t-159.5 32t-130 87t-88 129t-32.5 158t32.5 158t88 128.5t130 86.5t159.5 32t159.5 -32t130 -86.5t88 -128.5t32.5 -158zM764 393q0 66 -24.5 123.5t-67.5 100.5t-100 68t-122 25t-122 -25t-100 -68t-67.5 -100.5
t-24.5 -123.5t24.5 -123.5t67.5 -101t100 -68.5t122 -25t122 25t100 68.5t67.5 101t24.5 123.5zM619 308q0 -60 -44.5 -96t-127.5 -36q-37 0 -74 6t-66 17l35 88q43 -16 104 -16q29 0 42.5 10.5t13.5 27.5q0 22 -31 35t-77 13v81q51 3 74.5 17.5t23.5 34.5q0 14 -12 23.5
t-37 9.5q-22 0 -47.5 -5t-46.5 -13l-31 88q32 11 68.5 17t74.5 6q77 0 112 -32t35 -84q0 -27 -16 -51t-42 -38v-2q32 -14 50.5 -39.5t18.5 -61.5z" />
    <glyph glyph-name="uni2463" unicode="&#x2463;" horiz-adv-x="900" 
d="M860 393q0 -84 -32.5 -158t-88 -129t-130 -87t-159.5 -32t-159.5 32t-130 87t-88 129t-32.5 158t32.5 158t88 128.5t130 86.5t159.5 32t159.5 -32t130 -86.5t88 -128.5t32.5 -158zM764 393q0 66 -24.5 123.5t-67.5 100.5t-100 68t-122 25t-122 -25t-100 -68t-67.5 -100.5
t-24.5 -123.5t24.5 -123.5t67.5 -101t100 -68.5t122 -25t122 25t100 68.5t67.5 101t24.5 123.5zM561 283v-99h-105v99h-182v79l163 246h124v-246h37v-79h-37zM460 510q-3 -6 -9 -19t-17 -30l-64 -99h90v91q0 19 0.5 33t1.5 24h-2z" />
    <glyph glyph-name="uni2464" unicode="&#x2464;" horiz-adv-x="900" 
d="M860 393q0 -84 -32.5 -158t-88 -129t-130 -87t-159.5 -32t-159.5 32t-130 87t-88 129t-32.5 158t32.5 158t88 128.5t130 86.5t159.5 32t159.5 -32t130 -86.5t88 -128.5t32.5 -158zM764 393q0 66 -24.5 123.5t-67.5 100.5t-100 68t-122 25t-122 -25t-100 -68t-67.5 -100.5
t-24.5 -123.5t24.5 -123.5t67.5 -101t100 -68.5t122 -25t122 25t100 68.5t67.5 101t24.5 123.5zM603 318q0 -38 -14 -64.5t-38 -44t-56.5 -25.5t-69.5 -8q-35 0 -70.5 6t-63.5 17l35 87q17 -7 45 -11.5t51 -4.5q32 0 48 12t16 32q0 23 -23 38t-79 15q-14 0 -30 -1.5
t-34 -3.5l29 246h245v-92h-147l-9 -67q83 -2 124 -36.5t41 -94.5z" />
    <glyph glyph-name="uni2465" unicode="&#x2465;" horiz-adv-x="900" 
d="M860 393q0 -84 -32.5 -158t-88 -129t-130 -87t-159.5 -32t-159.5 32t-130 87t-88 129t-32.5 158t32.5 158t88 128.5t130 86.5t159.5 32t159.5 -32t130 -86.5t88 -128.5t32.5 -158zM764 393q0 66 -24.5 123.5t-67.5 100.5t-100 68t-122 25t-122 -25t-100 -68t-67.5 -100.5
t-24.5 -123.5t24.5 -123.5t67.5 -101t100 -68.5t122 -25t122 25t100 68.5t67.5 101t24.5 123.5zM603 321q0 -32 -11.5 -58.5t-32.5 -45.5t-50 -30t-64 -11q-43 0 -73.5 14t-50 37.5t-29 54.5t-9.5 65q0 61 22 107.5t58 79.5t82.5 53t95.5 29l27 -94q-55 -10 -93 -28t-58 -51
q10 2 20.5 4t19.5 2q70 0 108 -35t38 -93zM491 320q0 25 -15 39.5t-40 14.5q-11 0 -22 -2t-20 -5q0 -5 -0.5 -10.5t-0.5 -10.5q0 -37 13.5 -58.5t38.5 -21.5q23 0 34.5 16.5t11.5 37.5z" />
    <glyph glyph-name="uni2466" unicode="&#x2466;" horiz-adv-x="900" 
d="M860 393q0 -84 -32.5 -158t-88 -129t-130 -87t-159.5 -32t-159.5 32t-130 87t-88 129t-32.5 158t32.5 158t88 128.5t130 86.5t159.5 32t159.5 -32t130 -86.5t88 -128.5t32.5 -158zM764 393q0 66 -24.5 123.5t-67.5 100.5t-100 68t-122 25t-122 -25t-100 -68t-67.5 -100.5
t-24.5 -123.5t24.5 -123.5t67.5 -101t100 -68.5t122 -25t122 25t100 68.5t67.5 101t24.5 123.5zM456 184h-129l146 332h-171v92h324z" />
    <glyph glyph-name="uni2467" unicode="&#x2467;" horiz-adv-x="900" 
d="M860 393q0 -84 -32.5 -158t-88 -129t-130 -87t-159.5 -32t-159.5 32t-130 87t-88 129t-32.5 158t32.5 158t88 128.5t130 86.5t159.5 32t159.5 -32t130 -86.5t88 -128.5t32.5 -158zM764 393q0 66 -24.5 123.5t-67.5 100.5t-100 68t-122 25t-122 -25t-100 -68t-67.5 -100.5
t-24.5 -123.5t24.5 -123.5t67.5 -101t100 -68.5t122 -25t122 25t100 68.5t67.5 101t24.5 123.5zM611 295q0 -27 -12 -49t-33.5 -37.5t-51 -24t-64.5 -8.5q-71 0 -116 30t-45 89q0 42 22 66.5t52 40.5q-27 16 -46 38t-19 57q0 29 11.5 51t32 37t48.5 23t60 8q31 0 58.5 -8.5
t48.5 -24t33 -37.5t12 -49q0 -35 -19 -57t-46 -38q30 -16 52 -40.5t22 -66.5zM494 497q0 16 -10.5 29t-33.5 13t-33.5 -13t-10.5 -29q0 -20 12 -32t32 -23q20 11 32 23t12 32zM499 300q0 21 -14 35t-35 25q-21 -11 -35 -25t-14 -35q0 -19 14 -31t35 -12t35 12t14 31z" />
    <glyph glyph-name="uni2468" unicode="&#x2468;" horiz-adv-x="900" 
d="M860 393q0 -84 -32.5 -158t-88 -129t-130 -87t-159.5 -32t-159.5 32t-130 87t-88 129t-32.5 158t32.5 158t88 128.5t130 86.5t159.5 32t159.5 -32t130 -86.5t88 -128.5t32.5 -158zM764 393q0 66 -24.5 123.5t-67.5 100.5t-100 68t-122 25t-122 -25t-100 -68t-67.5 -100.5
t-24.5 -123.5t24.5 -123.5t67.5 -101t100 -68.5t122 -25t122 25t100 68.5t67.5 101t24.5 123.5zM615 445q0 -62 -22 -108t-58 -79t-82.5 -53t-95.5 -29l-27 94q55 10 93 28t58 51q-10 -2 -20.5 -4t-19.5 -2q-70 0 -108 35t-38 93q0 31 11.5 58t32.5 46t50 30t64 11
q43 0 73.5 -14t50 -37.5t29 -54.5t9.5 -65zM505 447q0 37 -13.5 58.5t-38.5 21.5q-23 0 -34.5 -16.5t-11.5 -37.5q0 -25 15 -39.5t40 -14.5q11 0 22 2t20 5q0 5 0.5 10.5t0.5 10.5z" />
    <glyph glyph-name="uni2469" unicode="&#x2469;" horiz-adv-x="1200" 
d="M1160 393q0 -84 -32.5 -158t-88 -129t-130 -87t-159.5 -32h-300q-85 0 -159.5 32t-130 87t-88 129t-32.5 158t32.5 158t88 128.5t130 86.5t159.5 32h300q85 0 159.5 -32t130 -86.5t88 -128.5t32.5 -158zM1064 393q0 66 -24.5 123.5t-67.5 100.5t-100 68t-122 25h-300
q-65 0 -122 -25t-100 -68t-67.5 -100.5t-24.5 -123.5t24.5 -123.5t67.5 -101t100 -68.5t122 -25h300q65 0 122 25t100 68.5t67.5 101t24.5 123.5zM920 396q0 -49 -11 -89.5t-32 -69.5t-52.5 -45t-72.5 -16t-71.5 16t-50 45t-29 69.5t-9.5 89.5t9.5 89.5t29 69.5t50 45
t71.5 16t72.5 -16t52.5 -45t32 -69.5t11 -89.5zM399 184v302q-20 -9 -49.5 -16t-53.5 -9l-17 85q44 6 84.5 23t60.5 39h91v-424h-116zM797 397q0 131 -45 131t-45 -131t45 -131t45 131z" />
    <glyph glyph-name="uni246A" unicode="&#x246a;" horiz-adv-x="1200" 
d="M1160 393q0 -84 -32.5 -158t-88 -129t-130 -87t-159.5 -32h-300q-85 0 -159.5 32t-130 87t-88 129t-32.5 158t32.5 158t88 128.5t130 86.5t159.5 32h300q85 0 159.5 -32t130 -86.5t88 -128.5t32.5 -158zM1064 393q0 66 -24.5 123.5t-67.5 100.5t-100 68t-122 25h-300
q-65 0 -122 -25t-100 -68t-67.5 -100.5t-24.5 -123.5t24.5 -123.5t67.5 -101t100 -68.5t122 -25h300q65 0 122 25t100 68.5t67.5 101t24.5 123.5zM729 184v302q-20 -9 -49.5 -16t-53.5 -9l-17 85q44 6 84.5 23t60.5 39h91v-424h-116zM421 184v302q-20 -9 -49.5 -16t-53.5 -9
l-17 85q44 6 84.5 23t60.5 39h91v-424h-116z" />
    </font>
</defs>
</svg>
