<?xml version="1.0" standalone="no"?>
<!DOCTYPE svg PUBLIC "-//W3C//DTD SVG 1.1//EN" "http://www.w3.org/Graphics/SVG/1.1/DTD/svg11.dtd" >
<svg xmlns="http://www.w3.org/2000/svg" xmlns:xlink="http://www.w3.org/1999/xlink" version="1.1">
<metadata>
Created by FontForge 20161013 at Fri Dec 13 02:24:00 2013
 By ,,,
Copyright (c) 2008 by Hubert Jocham. All rights reserved.
</metadata>
<defs>
<font id="NarzissProCyrillic" horiz-adv-x="500" >
  <font-face 
    font-family="Narziss Pro Cyrillic"
    font-weight="400"
    font-stretch="normal"
    units-per-em="1000"
    panose-1="2 0 5 6 2 0 0 2 0 4"
    ascent="812"
    descent="-188"
    x-height="507"
    cap-height="700"
    bbox="-100 -245 1059 929"
    underline-thickness="50"
    underline-position="-200"
    unicode-range="U+000D-25CA"
  />
<missing-glyph horiz-adv-x="260" 
 />
    <glyph glyph-name=".notdef" horiz-adv-x="260" 
 />
    <glyph glyph-name=".null" horiz-adv-x="0" 
 />
    <glyph glyph-name="nonmarkingreturn" horiz-adv-x="333" 
 />
    <glyph glyph-name="CR" unicode="&#xd;" horiz-adv-x="260" 
 />
    <glyph glyph-name="space" unicode=" " horiz-adv-x="260" 
 />
    <glyph glyph-name="exclam" unicode="!" horiz-adv-x="222" 
d="M116 227h-4q0 87 -23 230t-23 187q-2 38 23 54t50 0t23 -54q0 -44 -23 -187t-23 -230zM114 96q22 0 35.5 -14t13.5 -37q0 -22 -14.5 -36.5t-34.5 -14.5q-21 0 -34.5 14t-13.5 36t14 37t34 15z" />
    <glyph glyph-name="quotedbl" unicode="&#x22;" horiz-adv-x="368" 
d="M113 506h-3q0 34 -20 85t-20 68q0 21 11.5 33.5t29.5 12.5t29.5 -12.5t11.5 -33.5q0 -17 -20 -68q-19 -48 -19 -85zM259 506h-3q0 34 -20 85t-20 68q0 21 11.5 33.5t29.5 12.5t29.5 -12.5t11.5 -33.5q0 -17 -20 -68q-19 -48 -19 -85z" />
    <glyph glyph-name="numbersign" unicode="#" 
d="M464 337v-3q-43 0 -113 -2q-2 -21 -9 -74q-6 -41 -11 -65q70 -2 113 -2v-3q-43 0 -115 -2q-22 -135 -29 -186h-3q9 74 14 118l8 67q-72 -2 -77 -2q-10 0 -72 2q-22 -134 -29 -185h-3l15 122q7 57 7 64q-70 2 -116 2v3q46 0 116 2q2 19 9 65l12 74q-70 2 -117 2v3
q79 0 118 3q14 64 28 172h3q-13 -99 -20 -172q56 2 69 2q38 0 79 -3q14 68 28 173h3q-12 -95 -20 -173q70 -2 112 -2zM242 196q7 0 77 -2q2 25 9 64q4 31 12 73q-72 -2 -78 -2q-12 0 -70 2l-9 -73q-10 -59 -11 -64q58 2 70 2z" />
    <glyph glyph-name="dollar" unicode="$" horiz-adv-x="513" 
d="M266 706v-312q2 0 6 -2t12 -5t15 -6q29 -11 36 -15l32 -14q25 -11 32 -18q43 -29 51 -43q37 -50 33 -101q0 -86 -62 -142q-63 -57 -155 -58v-71h-3v71q-60 2 -114 27q-54 27 -80 27q-35 0 -35 -36h-4v209h4q17 -100 78 -161q60 -60 151 -62v313l-31 12l-32 12
q-3 2 -29 13q-24 11 -56 32q-21 15 -43 43q-28 35 -28 97q0 88 59 140.5t160 53.5v90h3v-90q47 -2 92 -19q48 -18 68 -18q16 0 25.5 10t9.5 27h3v-209h-3q-22 101 -67.5 152.5t-127.5 52.5zM263 395v311q-71 -1 -112 -40.5t-41 -101.5q0 -63 36.5 -100t116.5 -69zM266 306
v-312q71 1 110.5 41.5t39.5 105.5q0 62 -35.5 97.5t-114.5 67.5z" />
    <glyph glyph-name="percent" unicode="%" horiz-adv-x="744" 
d="M369 349l160 374h3l-148 -374l-63 -141q-54 -123 -99 -233h-3zM202 709q69 0 114 -51t45 -127t-48 -130t-114 -54q-67 0 -114 51q-45 52 -45 128q0 75 48 129t114 54zM202 705q-45 0 -69 -47t-24 -128q0 -80 24 -129.5t66 -49.5q45 0 69 47.5t24 128.5q0 80 -24 129
t-66 49zM545 353q69 0 114 -51t45 -127t-48 -130t-114 -54q-68 0 -114 51q-45 52 -45 128q0 75 48 129t114 54zM545 349q-45 0 -69 -47t-24 -128q0 -80 24 -129.5t66 -49.5q45 0 69 47.5t24 128.5q0 80 -24 129t-66 49z" />
    <glyph glyph-name="ampersand" unicode="&#x26;" horiz-adv-x="759" 
d="M352 389v-3h-17q-89 0 -147 -54q-57 -54 -57 -141q0 -80 65 -140q67 -59 190 -59q122 0 184 53q63 54 63 133q0 134 -126 136q-63 0 -102.5 -24t-39.5 -54q0 -5 5 -5l4 2q5 2 12.5 4t13.5 2q21 0 35.5 -14t14.5 -37q0 -22 -15 -36.5t-38 -14.5q-22 0 -36.5 16t-14.5 41
q0 55 43.5 89t117.5 34q62 0 100 25t38 55q0 5 -5 5l-4 -2q-5 -2 -12.5 -4t-13.5 -2q-21 0 -35.5 14t-14.5 37q0 21 15 36t38 15q22 0 36.5 -16t14.5 -41q0 -50 -34.5 -84t-95.5 -40q79 -6 125.5 -40.5t46.5 -88.5q0 -81 -82 -139q-80 -58 -238 -58q-164 0 -250 54.5
t-86 149.5q0 82 71 135t176 62q-168 28 -168 141q0 74 59 119q60 45 150 45q89 0 133 -40q46 -40 46 -92q0 -25 -15 -41t-37 -16q-24 0 -38 13.5t-14 34.5q0 23 14.5 37t35.5 14q6 0 13.5 -2t11.5 -4l5 -2q5 0 5 5q0 28 -36 56q-37 29 -110 29q-66 0 -107 -41t-41 -109
q0 -69 37 -108.5t102 -39.5h9z" />
    <glyph glyph-name="quotesingle" unicode="'" horiz-adv-x="222" 
d="M113 506h-3q0 34 -20 85t-20 68q0 21 11.5 33.5t29.5 12.5t29.5 -12.5t11.5 -33.5q0 -17 -20 -68q-19 -48 -19 -85z" />
    <glyph glyph-name="parenleft" unicode="(" horiz-adv-x="317" 
d="M307 761v-4q-80 -24 -123 -124q-42 -99 -42 -302q0 -383 165 -432v-4q-104 30 -176 144q-71 115 -71 285t72 289q72 118 175 148z" />
    <glyph glyph-name="parenright" unicode=")" horiz-adv-x="317" 
d="M10 757v4q103 -30 175 -148t72 -289t-72 -285q-70 -114 -175 -144v4q165 49 165 432q0 204 -43 302q-42 100 -122 124z" />
    <glyph glyph-name="asterisk" unicode="*" horiz-adv-x="367" 
d="M216 668q0 -16 -16 -55q-15 -39 -15 -67q25 9 57 36q32 28 47 32q6 2 14 2q25 0 32 -22q1 -2 1 -9q0 -25 -26 -34q-9 -4 -27 -4q-3 0 -25 1.5t-41 1t-31 -5.5q14 -19 52 -44q36 -24 44 -34q8 -14 8 -24q0 -16 -13 -26q-9 -6 -19 -6q-17 0 -30 16q-9 14 -18 53
q-9 41 -26 64q-15 -20 -26 -64q-10 -40 -19 -53q-13 -16 -30 -16q-10 0 -19 6q-13 10 -13 26q0 10 8 24q8 10 44 34q38 24 53 44q-18 6 -44 6q-7 0 -28 -1.5t-26 -1.5q-18 0 -27 4q-26 9 -26 34q0 7 1 9q7 22 32 22q22 0 56 -31q36 -30 63 -39q-2 31 -17 67q-16 38 -16 55
q0 23 16.5 32.5t33 0t16.5 -32.5z" />
    <glyph glyph-name="plus" unicode="+" 
d="M249 463h3q0 -50 2 -126q3 -56 3 -68q11 0 68 -3q76 -2 125 -2v-3q-51 0 -118.5 -2.5t-74.5 -2.5q0 -16 -3 -72q-2 -74 -2 -121h-3q0 48 -2.5 115.5t-2.5 77.5q-10 0 -78 2.5t-116 2.5v3q47 0 121 2q55 3 73 3q0 7 2.5 75t2.5 119z" />
    <glyph glyph-name="comma" unicode="," horiz-adv-x="222" 
d="M70 -94v3q36 10 58 39t22 55q0 5 -5 5l-5 -2q-4 -2 -11.5 -4t-13.5 -2q-21 0 -35.5 14t-14.5 37q0 21 14.5 36t35.5 15q24 0 39 -17.5t15 -42.5q0 -41 -26 -82q-25 -40 -73 -54z" />
    <glyph glyph-name="hyphen" unicode="-" horiz-adv-x="397" 
d="M50 282v3q37 0 87.5 2.5t59.5 2.5q7 0 59 -2.5t91 -2.5v-3q-39 0 -91 -2.5t-59 -2.5q-9 0 -59.5 2.5t-87.5 2.5z" />
    <glyph glyph-name="period" unicode="." horiz-adv-x="222" 
d="M114 96q22 0 35.5 -14t13.5 -37q0 -22 -14.5 -36.5t-34.5 -14.5q-21 0 -34.5 14t-13.5 36t14 37t34 15z" />
    <glyph glyph-name="slash" unicode="/" horiz-adv-x="312" 
d="M269 723h3l-109 -374l-120 -374h-3l110 374q15 49 48 150q38 115 71 224z" />
    <glyph glyph-name="zero" unicode="0" horiz-adv-x="600" 
d="M295 708q105 0 176 -102q70 -100 70 -252q0 -150 -74 -257q-73 -106 -177 -106q-105 0 -176 102q-69 103 -69 253t73 256t177 106zM295 703q-83 0 -125 -96t-42 -254q0 -156 41 -258q42 -100 121 -100q82 0 124.5 97.5t42.5 254.5t-42 256q-40 100 -120 100z" />
    <glyph glyph-name="one" unicode="1" horiz-adv-x="247" 
d="M165 708v-705h62v-3h-207v3h63v686l-63 -12v3z" />
    <glyph glyph-name="two" unicode="2" horiz-adv-x="529" 
d="M454 1h-414l221 245q65 72 95.5 140t30.5 150q0 77 -36.5 121.5t-106.5 44.5q-80 0 -123 -42t-43 -73q0 -5 5 -5l5 2q4 2 11.5 4t13.5 2q21 0 35.5 -14t14.5 -37q0 -21 -14.5 -36t-38.5 -15q-22 0 -36.5 16t-14.5 41q0 60 53 111q53 52 149 52q97 0 155 -48t58 -131
q0 -43 -15 -88q-6 -18 -41 -73q-8 -13 -30 -35l-32 -32l-38 -36l-39 -36l-171 -162h199q92 0 135 16t60 62h3z" />
    <glyph glyph-name="three" unicode="3" horiz-adv-x="529" 
d="M75 549v159h3q0 -27 28 -27q17 0 62 13q48 14 85 14q102 0 160.5 -44t58.5 -126q0 -70 -56 -120q-57 -51 -142 -61q102 -5 161 -50.5t59 -119.5q0 -86 -68 -143q-68 -56 -179 -56q-97 0 -149 42t-52 94q0 25 14.5 42.5t36.5 17.5q23 0 38 -15t15 -36q0 -23 -14.5 -37
t-35.5 -14q-6 0 -13.5 2t-12.5 4l-4 2q-5 0 -5 -5q0 -27 43 -58t119 -31q85 0 134 52t49 129q0 80 -48 129t-131 49h-71v3h70q78 2 116.5 49t38.5 128q0 85 -31 127t-101 42q-69 0 -114 -41.5t-61 -113.5h-3z" />
    <glyph glyph-name="four" unicode="4" horiz-adv-x="529" 
d="M18 159l375 565v-501q54 2 80 17.5t41 54.5h3l-51 -136h-73v-156h62v-3h-198v3h63v156h-302zM320 608l-256 -386h256v386z" />
    <glyph glyph-name="five" unicode="5" horiz-adv-x="529" 
d="M496 768l-51 -144h-316l-49 -282q8 11 28 27q65 52 154 52q107 0 168.5 -53.5t61.5 -147.5t-69 -160q-70 -65 -183 -65q-97 0 -149 46t-52 100q0 25 14.5 42.5t36.5 17.5q24 0 38.5 -14.5t14.5 -36.5q0 -23 -14.5 -37t-35.5 -14q-6 0 -13.5 2t-11.5 4l-5 2q-5 0 -5 -5
q0 -28 44 -64q44 -35 118 -35q88 0 138 60q50 62 50 149q0 93 -44 146t-127 53q-44 0 -84 -17.5t-57 -37.5l-16 -18h-3l61 352h160q92 0 135 16t60 62h3z" />
    <glyph glyph-name="six" unicode="6" horiz-adv-x="548" 
d="M375 713v-4q-82 -26 -147 -98q-77 -83 -95 -256q71 57 157 57q100 0 158 -53.5t58 -148.5q0 -93 -67 -157q-65 -64 -161 -64q-108 0 -169 68.5t-61 200.5q0 92 30.5 174.5t81.5 137.5q103 111 215 143zM265 402q-73 0 -132 -51q-4 -32 -4 -88q0 -125 42 -198
q43 -73 107 -73q69 0 106 60q38 62 38 150q0 95 -40 147.5t-117 52.5z" />
    <glyph glyph-name="seven" unicode="7" horiz-adv-x="529" 
d="M85 700h421l-179 -335q-17 -30 -34 -80q-8 -22 -17 -75q-4 -28 -4 -36l-2 -32q0 -16 -1 -33v-29q-2 -89 -54 -89q-16 0 -26.5 10.5t-10.5 30.5q0 38 32 110q29 65 115 226l142 266h-235q-92 0 -135 -16t-60 -62h-3z" />
    <glyph glyph-name="eight" unicode="8" horiz-adv-x="572" 
d="M286 708q96 0 154 -46q60 -45 60 -126q0 -71 -52 -119.5t-139 -59.5q100 -5 159 -51.5t59 -121.5q0 -86 -65 -139t-176 -53t-176 50.5t-65 135.5q0 75 59 125q60 49 159 54q-88 11 -139.5 57.5t-51.5 115.5q0 80 60 129q61 49 154 49zM286 705q-63 0 -95 -47t-32 -130
q0 -78 32 -124t95 -46t95 50q32 52 32 125q0 81 -31.5 126.5t-95.5 45.5zM282 355q-72 0 -112.5 -49.5t-40.5 -127.5q0 -84 40.5 -133.5t116.5 -49.5t116.5 48t40.5 131q0 80 -43.5 130.5t-117.5 50.5z" />
    <glyph glyph-name="nine" unicode="9" horiz-adv-x="548" 
d="M172 -9v4q80 24 147 97q77 85 95 257q-70 -57 -157 -57q-100 0 -158 53.5t-58 148.5q0 94 66 155q67 63 162 63q108 0 169 -68t61 -198q0 -92 -30.5 -174.5t-82.5 -138.5q-102 -110 -214 -142zM269 709q-70 0 -107 -60q-37 -58 -37 -147q0 -95 40 -147.5t117 -52.5
q72 0 132 51q4 32 4 88q0 125 -43 196q-42 72 -106 72z" />
    <glyph glyph-name="colon" unicode=":" horiz-adv-x="222" 
d="M114 507q22 0 35.5 -14t13.5 -37q0 -22 -14.5 -36.5t-34.5 -14.5q-21 0 -34.5 14t-13.5 36t14 37t34 15zM114 96q22 0 35.5 -14t13.5 -37q0 -22 -14.5 -36.5t-34.5 -14.5q-21 0 -34.5 14t-13.5 36t14 37t34 15z" />
    <glyph glyph-name="semicolon" unicode=";" horiz-adv-x="222" 
d="M70 -94v3q36 10 58 39t22 55q0 5 -5 5l-5 -2q-4 -2 -11.5 -4t-13.5 -2q-21 0 -35.5 14t-14.5 37q0 21 14.5 36t35.5 15q24 0 39 -17.5t15 -42.5q0 -41 -26 -82q-25 -40 -73 -54zM114 507q22 0 35.5 -14t13.5 -37q0 -22 -14.5 -36.5t-34.5 -14.5q-21 0 -34.5 14t-13.5 36
t14 37t34 15z" />
    <glyph glyph-name="less" unicode="&#x3c;" 
d="M449 389l1 -3l-375 -124l375 -124l-1 -3q-121 38 -236 72q-86 25 -155 47q-5 2 -7 5t0 6t7 5l155 46q60 18 236 73z" />
    <glyph glyph-name="equal" unicode="=" 
d="M50 321v3q50 0 118 2.5t80 2.5q9 0 79 -2.5t123 -2.5v-3q-53 0 -123 -2.5t-79 -2.5q-12 0 -80 2.5t-118 2.5zM50 201v3q50 0 118 2.5t80 2.5q9 0 79 -2.5t123 -2.5v-3q-53 0 -123 -2.5t-79 -2.5q-12 0 -80 2.5t-118 2.5z" />
    <glyph glyph-name="greater" unicode="&#x3e;" 
d="M425 262l-375 124l1 3q176 -55 236 -73l155 -46q5 -2 7 -5t0 -6t-7 -5q-69 -22 -155 -47q-115 -34 -236 -72l-1 3z" />
    <glyph glyph-name="question" unicode="?" horiz-adv-x="373" 
d="M163 218h-4q-13 42 -13 77t13 65t31.5 52l37 44t31.5 53t13 67q0 55 -30.5 88.5t-81.5 33.5q-58 0 -90 -32q-31 -31 -31 -60q0 -5 5 -5l4 2q5 2 12.5 4t13.5 2q21 0 35.5 -14t14.5 -37q0 -22 -15 -36.5t-38 -14.5q-22 0 -36.5 16t-14.5 41q0 56 40 97q40 43 116 43
q77 0 122 -38.5t45 -103.5q0 -82 -66 -144q-9 -9 -32 -29.5t-34 -32t-26 -29.5t-21.5 -35.5t-6.5 -36.5q0 -17 6 -37zM174 96q22 0 35.5 -14t13.5 -37q0 -22 -14.5 -36.5t-34.5 -14.5q-21 0 -34.5 14t-13.5 36t14 37t34 15z" />
    <glyph glyph-name="at" unicode="@" horiz-adv-x="842" 
d="M731 44l10 13h4q-9 -16 -43 -43q-24 -20 -57 -37q-84 -43 -196 -43q-172 0 -285 109q-114 109 -114 273t114 274q116 110 286 110q164 0 264 -97q101 -98 101 -241q0 -116 -57 -187q-56 -71 -136 -71q-39 0 -65 19.5t-28 56.5q-16 -33 -51 -56t-78 -23q-49 0 -83 27.5
t-34 72.5q0 77 89 106q3 1 22 7t23.5 7.5t21.5 7.5t22.5 9.5t19.5 10.5t19 12.5t14 15t12.5 18.5t6.5 21t3 25q0 89 -106 89q-46 0 -80 -26q-32 -26 -32 -43q0 -4 5 -4l3 1q4 2 10 3.5t12 1.5q16 0 28 -12t12 -29q0 -18 -12 -30t-30 -12q-19 0 -31 13t-12 33q0 40 38 75
q38 34 102 34q69 0 110 -43t41 -115v-211q0 -53 53 -53q62 0 113 69q52 68 52 180q0 142 -101 238q-100 97 -261 97q-164 0 -255 -109q-92 -109 -92 -271q0 -163 91 -272q92 -108 255 -108q120 0 193 43q65 35 89 64zM528 208v180q-26 -41 -104 -76q-29 -13 -48 -41t-19 -65
t22 -59t58 -22q40 0 65.5 24t25.5 59z" />
    <glyph glyph-name="A" unicode="A" horiz-adv-x="675" 
d="M347 700l272 -697h56v-3h-210v3h66l-116 297h-247l-68 -188q-10 -27 -10 -47q0 -62 73 -62h7v-3h-170v3h4q31 0 51.5 26.5t40.5 83.5l214 587h37zM288 628l-119 -325h245z" />
    <glyph glyph-name="B" unicode="B" horiz-adv-x="563" 
d="M20 697v3h269q104 0 162 -46.5t58 -127.5q0 -69 -51.5 -116t-136.5 -58q102 -3 162 -49.5t60 -122.5q0 -79 -72 -130q-71 -50 -178 -50h-273v3h63v694h-63zM267 697h-102v-345h98q159 0 159 171q0 82 -38.5 128t-116.5 46zM285 349h-120v-346h116q87 0 131 46t44 128
q0 79 -44 125.5t-127 46.5z" />
    <glyph glyph-name="C" unicode="C" horiz-adv-x="581" 
d="M542 167h4q-9 -82 -67.5 -129.5t-156.5 -47.5q-128 0 -210 103t-82 253q0 157 88 260q89 104 225 104q49 0 93 -19q46 -18 66 -18q16 0 25.5 10t9.5 27h3v-209h-3q-22 105 -66 155t-128 50q-112 0 -168 -98q-54 -98 -54 -256q0 -150 67 -247t176 -97q72 0 120.5 42.5
t57.5 116.5z" />
    <glyph glyph-name="D" unicode="D" horiz-adv-x="637" 
d="M20 697v3h252q155 0 245 -95t90 -251q0 -154 -96 -254q-94 -100 -239 -100h-252v3h63v694h-63zM263 697h-98v-694h99q122 0 186 96q66 96 66 249q0 147 -69 248t-184 101z" />
    <glyph glyph-name="E" unicode="E" horiz-adv-x="564" 
d="M494 700v-174h-2q-17 97 -53 133q-38 38 -123 38h-151v-345h96q65 0 96 26.5t38 81.5h3v-219h-3q-7 55 -38 81.5t-96 26.5h-96v-346h161q85 0 123 38q36 36 53 133h2v-174h-484v3h63v694h-63v3h474z" />
    <glyph glyph-name="F" unicode="F" horiz-adv-x="529" 
d="M494 700v-174h-2q-17 97 -53 133q-38 38 -123 38h-151v-352h96q65 0 96 26.5t38 81.5h3v-219h-3q-7 55 -38 81.5t-96 26.5h-96v-339h63v-3h-208v3h63v694h-63v3h474z" />
    <glyph glyph-name="G" unicode="G" horiz-adv-x="646" 
d="M568 -17h-4v13q0 39 -8.5 55.5t-29.5 16.5q-13 1 -33.5 -11.5t-41 -27.5t-53 -27.5t-66.5 -11.5q-129 0 -216 103q-86 104 -86 253q0 157 88 260q89 104 225 104q49 0 93 -19q46 -18 66 -18q16 0 25.5 10t9.5 27h3v-209h-3q-22 105 -66 155t-128 50q-112 0 -168 -98
q-54 -98 -54 -256q0 -156 54.5 -257t156.5 -101q72 0 113.5 39.5t41.5 111.5v142h-74v3h213v-3h-58v-304z" />
    <glyph glyph-name="H" unicode="H" horiz-adv-x="671" 
d="M507 697h-63v3h207v-3h-62v-694h62v-3h-207v3h63v343h-342v-343h62v-3h-207v3h63v694h-63v3h207v-3h-62v-348h342v348z" />
    <glyph glyph-name="I" unicode="I" horiz-adv-x="247" 
d="M227 700v-3h-62v-694h62v-3h-207v3h63v694h-63v3h207z" />
    <glyph glyph-name="J" unicode="J" horiz-adv-x="333" 
d="M313 700v-3h-62v-499q0 -96 -30.5 -151t-93.5 -55q-49 0 -78 30t-29 77q0 29 16.5 48.5t40.5 19.5t38.5 -14.5t14.5 -38.5t-15.5 -39t-37.5 -15q-12 0 -21 4l-11 4q-5 0 -5 -5q0 -24 24.5 -46.5t62.5 -22.5q42 0 67.5 26t25.5 72q0 38 -26 125q-25 85 -25 176v304h-63v3
h207z" />
    <glyph glyph-name="K" unicode="K" horiz-adv-x="625" 
d="M580 700v-3h-4q-23 0 -49 -19q-27 -18 -43 -34q-3 -3 -49 -53l-131 -153l264 -435h52v-3h-215v3h67l-223 370l-84 -99v-271h62v-3h-207v3h63v694h-63v3h207v-3h-62v-418l266 313q38 41 38 71q0 34 -52 34h-7v3h170z" />
    <glyph glyph-name="L" unicode="L" horiz-adv-x="534" 
d="M228 700v-3h-63v-694h161q85 0 123 38q36 36 53 133h2v-174h-484v3h63v694h-63v3h208z" />
    <glyph glyph-name="M" unicode="M" horiz-adv-x="744" 
d="M724 700v-3h-62v-694h62v-3h-205v3h63v684l-217 -687h-34l-244 686v-558q0 -63 19.5 -94t53.5 -31v-3h-140v3q29 0 46 32t17 93v569h-63v3h148l218 -622l196 622h142z" />
    <glyph glyph-name="N" unicode="N" horiz-adv-x="643" 
d="M488 700h140v-3q-63 0 -63 -125v-572h-70l-408 690v-562q0 -63 19.5 -94t53.5 -31v-3h-140v3q63 0 63 125v569h-63v3h154l387 -663v535q0 63 -19.5 94t-53.5 31v3z" />
    <glyph glyph-name="O" unicode="O" horiz-adv-x="704" 
d="M352 710q153 0 237 -99q85 -97 85 -257q0 -158 -91 -261q-90 -104 -231 -104q-152 0 -238 99q-84 99 -84 258q0 156 90 260q92 104 232 104zM352 706q-118 0 -175 -98q-56 -98 -56 -256q0 -152 59 -256q60 -103 172 -103q118 0 174 98q57 99 57 257q0 152 -60 255
q-58 103 -171 103z" />
    <glyph glyph-name="P" unicode="P" horiz-adv-x="563" 
d="M20 697v3h287q107 0 172 -50q64 -49 64 -129q0 -79 -72 -133t-178 -54h-128v-331h62v-3h-207v3h63v694h-63zM285 697h-120v-360h116q85 0 130 49t45 132q0 80 -44.5 129.5t-126.5 49.5z" />
    <glyph glyph-name="Q" unicode="Q" horiz-adv-x="704" 
d="M426 -22v24q-40 -8 -74 -8q-152 0 -238 98q-84 99 -84 257q0 156 90 258q90 103 232 103q153 0 237 -98q85 -97 85 -255q0 -108 -47 -196q-47 -87 -126 -130q3 -24 3 -53q0 -48 8.5 -69t29.5 -21q16 0 26 14.5t10 35.5v21h3v-21q0 -39 -19.5 -65t-56.5 -26
q-44 0 -61.5 31.5t-17.5 99.5zM350 -2v22q0 39 19.5 65t56.5 26q55 0 70 -55q87 90 87 295q0 98 -24 176q-25 81 -79 130t-128 49q-61 0 -106.5 -27t-72 -76t-39.5 -110.5t-13 -137.5q0 -151 59 -253t170 -104zM353 20v-22q40 0 73 12q0 60 -36 60q-16 0 -26.5 -14.5
t-10.5 -35.5z" />
    <glyph glyph-name="R" unicode="R" horiz-adv-x="610" 
d="M20 697v3h287q108 0 172 -48.5t64 -127.5q0 -72 -60 -123q-61 -50 -153 -59q92 -7 137.5 -63.5t45.5 -157.5q0 -48 8.5 -69t29.5 -21q16 0 26 14.5t10 35.5v21h3v-21q0 -39 -19.5 -65t-56.5 -26q-44 0 -61.5 31.5t-17.5 99.5q0 105 -28 158q-31 61 -125 61h-117v-337h62
v-3h-207v3h63v694h-63zM285 697h-120v-354h116q87 0 131 47.5t44 130.5q0 80 -44.5 128t-126.5 48z" />
    <glyph glyph-name="S" unicode="S" horiz-adv-x="513" 
d="M464 710v-209h-3q-22 102 -69 153.5t-131 51.5q-71 0 -112.5 -40t-41.5 -102q0 -45 20.5 -77.5t54 -52t73.5 -35t80 -32t73.5 -37.5t54 -56.5t20.5 -83.5q0 -87 -64 -144q-64 -56 -155 -56q-61 0 -115 27t-80 27q-35 0 -35 -36h-4v209h4q17 -100 78 -161q62 -62 152 -62
q72 0 112 40t40 107q0 44 -20.5 76.5t-54 52t-73.5 35.5t-79.5 32.5t-73 37.5t-54 57t-20.5 84q0 88 60 141q61 53 160 53q49 0 96 -19q49 -18 69 -18q16 0 25.5 10t9.5 27h3z" />
    <glyph glyph-name="T" unicode="T" horiz-adv-x="604" 
d="M569 737v-209h-3q-7 92 -49.5 130.5t-135.5 38.5h-38v-694h62v-3h-207v3h63v694h-38q-93 0 -135.5 -38.5t-49.5 -130.5h-3v209h3q0 -17 9.5 -27t25.5 -10h458q16 0 25.5 10t9.5 27h3z" />
    <glyph glyph-name="U" unicode="U" horiz-adv-x="671" 
d="M656 700v-3h-4q-80 0 -80 -110v-350q0 -108 -72 -177t-176 -69q-105 0 -173 67q-68 68 -68 170v469h-63v3h207v-3h-62v-464q0 -87 58 -141q59 -53 147 -53q89 0 143.5 53.5t54.5 145.5v349q0 110 -78 110h-4v3h170z" />
    <glyph glyph-name="V" unicode="V" horiz-adv-x="655" 
d="M485 700h170v-3q-34 0 -55.5 -27t-40.5 -83l-204 -587h-37l-262 697h-56v3h210v-3h-66l232 -623l179 514q10 23 10 48q0 61 -80 61v3z" />
    <glyph glyph-name="W" unicode="W" horiz-adv-x="930" 
d="M755 700h170v-3q-68 0 -98 -110l-164 -587h-37l-162 550l-165 -550h-37l-201 697h-56v3h208v-3h-66l173 -612l142 473l-41 139h-56v3h203v-3h-66l180 -614l141 505q8 30 8 49q0 60 -76 60v3z" />
    <glyph glyph-name="X" unicode="X" horiz-adv-x="644" 
d="M452 700h170v-3q-34 0 -64.5 -26t-71.5 -84l-140 -204l241 -380h52v-3h-213v3h67l-199 319l-144 -210q-32 -46 -32 -72q0 -37 61 -37v-3h-169v3q25 0 50 18q27 19 40 35l46 57l146 212l-235 372h-52v3h213v-3h-67l193 -310l138 201q31 46 31 72q0 37 -61 37v3z" />
    <glyph glyph-name="Y" unicode="Y" horiz-adv-x="649" 
d="M479 700h170v-3q-34 0 -64.5 -26t-71.5 -84l-155 -234v-350h62v-3h-207v3h63v339l-224 355h-52v3h213v-3h-67l212 -338l151 229q31 46 31 72q0 37 -61 37v3z" />
    <glyph glyph-name="Z" unicode="Z" horiz-adv-x="608" 
d="M557 700l-424 -697h247q85 0 123 38q36 36 53 133h2v-174h-518l424 697h-224q-85 0 -123 -38q-36 -36 -53 -133h-2v174h495z" />
    <glyph glyph-name="bracketleft" unicode="[" horiz-adv-x="317" 
d="M307 750v-3h-153v-838h153v-3h-224v844h224z" />
    <glyph glyph-name="backslash" unicode="\" horiz-adv-x="312" 
d="M149 349l-109 374h3q33 -109 71 -224q33 -101 48 -150l110 -374h-3z" />
    <glyph glyph-name="bracketright" unicode="]" horiz-adv-x="317" 
d="M234 750v-844h-224v3h153v838h-153v3h224z" />
    <glyph glyph-name="asciicircum" unicode="^" 
d="M250 437l-124 -375l-3 1l119 391q2 5 5 7t6 0t5 -7l119 -391l-3 -1z" />
    <glyph glyph-name="underscore" unicode="_" 
d="M502 -101v-3h-504v3h504z" />
    <glyph glyph-name="grave" unicode="`" 
d="M340 631l-1 -3q-29 13 -67 28.5t-75.5 30t-44.5 17.5q-12 4 -12 12q0 9 9 9q2 0 10 -2q20 -9 79 -41q58 -32 102 -51z" />
    <glyph glyph-name="a" unicode="a" horiz-adv-x="509" 
d="M501 70h3q-3 -31 -25.5 -55.5t-58.5 -24.5q-76 0 -84 96q-17 -39 -60 -67q-43 -29 -97 -29q-58 0 -96 33t-38 88q0 95 106 131q8 3 32 10.5t34.5 11.5t31.5 12.5t31.5 16t25 19.5t21.5 24.5t12.5 30.5t5.5 38q0 109 -132 109q-58 0 -96 -32q-37 -31 -37 -53q0 -5 5 -5
l5 2q4 2 11.5 4t13.5 2q21 0 35.5 -14t14.5 -37q0 -21 -14.5 -36t-38.5 -15q-22 0 -36.5 16t-14.5 41q0 51 46 91q47 41 121 41q86 0 135 -52.5t49 -141.5v-255q0 -23 11.5 -35t30.5 -12t32 13t15 34zM335 120v219q-23 -39 -98 -78q-52 -25 -81.5 -56t-29.5 -87
q0 -46 27 -73t72 -27q48 0 79 29.5t31 72.5z" />
    <glyph glyph-name="b" unicode="b" horiz-adv-x="547" 
d="M0 700h139v-269q18 41 56.5 65t89.5 24q98 0 157 -74q60 -74 60 -185q0 -110 -68 -190q-67 -79 -163 -79q-39 0 -75.5 16.5t-62 33t-37.5 16.5q-20 0 -31 -18q-9 -14 -26 -72h-5l11 36l11 37q9 34 9 72v584h-65v3zM139 378v-254q0 -61 33 -93.5t89 -32.5q76 0 117 71
q41 73 41 187q0 113 -41.5 181t-113.5 68q-57 0 -91 -34t-34 -93z" />
    <glyph glyph-name="c" unicode="c" horiz-adv-x="471" 
d="M437 121h4q-6 -60 -51.5 -95.5t-118.5 -35.5q-98 0 -162 76t-64 187q0 109 68 188q67 79 168 79q75 0 116 -38t41 -87q0 -25 -14.5 -42.5t-36.5 -17.5q-23 0 -38 14.5t-15 36.5q0 23 14.5 37t35.5 14q6 0 13.5 -2t12.5 -4l4 -2q5 0 5 5q0 24 -33 52q-32 29 -90 29
q-78 0 -123 -69t-45 -188q0 -112 49 -183q50 -71 129 -71q50 0 87 32t44 85z" />
    <glyph glyph-name="d" unicode="d" horiz-adv-x="577" 
d="M343 700h139v-630q0 -22 12 -34.5t31 -12.5q18 0 30.5 13t13.5 34h3q-2 -31 -25.5 -55.5t-60.5 -24.5q-69 0 -78 90q-18 -41 -56.5 -65.5t-89.5 -24.5q-98 0 -158 73q-59 74 -59 186q0 111 65 191t161 80q47 0 83 -22t54 -60v259h-65v3zM408 132v254q0 56 -33 89.5
t-87 33.5q-76 0 -118 -71q-42 -70 -42 -184q0 -111 41 -181q41 -69 114 -69q57 0 91 34.5t34 93.5z" />
    <glyph glyph-name="e" unicode="e" 
d="M442 121h4q-6 -59 -52.5 -95t-119.5 -36q-100 0 -164 76q-65 77 -65 187q0 112 64 189q65 78 162 78q88 0 139.5 -61.5t48.5 -164.5h-329q-1 -10 -1 -46q0 -100 44 -171q45 -71 134 -71q54 0 91 31t44 84zM130 297h239q3 220 -98 220q-59 0 -97 -62q-37 -63 -44 -158z
" />
    <glyph glyph-name="f" unicode="f" horiz-adv-x="287" 
d="M15 507h63v24q0 88 35 138.5t97 50.5q51 0 79 -28.5t28 -74.5q0 -26 -15.5 -44t-37.5 -18q-23 0 -37 14t-14 35q0 24 14.5 38t35.5 14q6 0 13.5 -2t11.5 -4l5 -2q5 0 5 5q0 24 -23.5 44.5t-64.5 20.5q-45 0 -73.5 -29.5t-28.5 -76.5q0 -36 20 -105h140v-3h-139
q26 -84 26 -171v-330h62v-3h-202v3h63v501h-63v3z" />
    <glyph glyph-name="g" unicode="g" horiz-adv-x="506" 
d="M393 663q24 0 39.5 -15t15.5 -39q0 -43 -33 -73t-87 -33q99 -41 99 -139q0 -69 -53 -114q-52 -45 -133 -45q-24 0 -49 4q-32 5 -39 5q-27 0 -43.5 -11.5t-16.5 -31.5q0 -46 135 -48q40 0 68 -1.5t65.5 -7.5t60 -17.5t39 -34t15.5 -54.5q0 -64 -69 -109q-67 -45 -176 -45
q-94 0 -142.5 34t-48.5 88q0 40 27 66.5t62 30.5q-62 20 -62 72q0 30 25.5 51t64.5 27q-96 41 -96 137q0 70 52 113q52 45 134 45q14 0 47 -4t45 -4q34 0 60 16.5t26 39.5q0 5 -5 5l-4 -2q-5 -2 -12.5 -4t-13.5 -2q-21 0 -35.5 13.5t-14.5 36.5q0 21 14.5 35.5t38.5 14.5z
M247 515q-109 0 -109 -152q0 -155 103 -155q109 0 109 153q0 154 -103 154zM140 65q-44 0 -70 -24.5t-26 -64.5q0 -53 47.5 -85.5t139.5 -32.5q82 0 127.5 29.5t45.5 79.5q0 37 -31 58.5t-101 29.5q-90 10 -132 10z" />
    <glyph glyph-name="h" unicode="h" horiz-adv-x="532" 
d="M15 700h140v-289q16 44 58 75t97 31q71 0 108.5 -50t37.5 -140v-324h61v-3h-202v3h63v395q0 50 -26.5 77t-72.5 27q-55 0 -89 -43q-35 -43 -35 -96v-360h62v-3h-202v3h63v694h-63v3z" />
    <glyph glyph-name="i" unicode="i" horiz-adv-x="222" 
d="M155 507v-504h62v-3h-202v3h63v501h-63v3h140zM114 705q22 0 35.5 -14t13.5 -37q0 -22 -14.5 -36.5t-34.5 -14.5q-21 0 -34.5 14t-13.5 36t14 37t34 15z" />
    <glyph glyph-name="j" unicode="j" horiz-adv-x="216" 
d="M107 705q22 0 35.5 -14t13.5 -37q0 -22 -14.5 -36.5t-34.5 -14.5q-21 0 -34.5 14t-13.5 36t14 37t34 15zM8 507h140v-475q0 -82 -34 -140q-35 -59 -94 -59q-40 0 -66.5 22.5t-26.5 60.5q0 27 16 45.5t38 18.5q23 0 36.5 -14t13.5 -36q0 -23 -14.5 -37t-35.5 -14
q-6 0 -13.5 2t-11.5 4l-5 2q-5 0 -5 -5q0 -16 22.5 -31.5t51.5 -15.5q37 0 68 27t31 70q0 36 -24 122t-24 170v280h-63v3z" />
    <glyph glyph-name="k" unicode="k" horiz-adv-x="523" 
d="M155 700v-516l189 215q39 43 39 72q0 33 -52 33h-7v3h170v-3h-4q-22 0 -49 -18t-44 -35q-5 -5 -49 -53l-68 -76l186 -319h52v-3h-207v3h67l-150 259l-73 -83v-176h62v-3h-202v3h63v694h-63v3h140z" />
    <glyph glyph-name="l" unicode="l" horiz-adv-x="232" 
d="M155 700v-697h62v-3h-202v3h63v694h-63v3h140z" />
    <glyph glyph-name="m" unicode="m" horiz-adv-x="792" 
d="M15 507h140v-89q17 43 55.5 71t90.5 28q108 0 129 -115q18 54 57 84.5t94 30.5q67 0 101 -49t34 -141v-324h61v-3h-202v3h63v395q0 50 -23 77t-65 27q-51 0 -83 -38.5t-32 -93.5v-367h62v-3h-202v3h63v395q0 50 -23 77t-65 27q-51 0 -83 -38.5t-32 -93.5v-367h62v-3h-202
v3h63v501h-63v3z" />
    <glyph glyph-name="n" unicode="n" horiz-adv-x="532" 
d="M15 507h140v-96q16 44 58 75t97 31q71 0 108.5 -50t37.5 -140v-324h61v-3h-202v3h63v395q0 50 -26.5 77t-72.5 27q-55 0 -89 -43q-35 -43 -35 -96v-360h62v-3h-202v3h63v501h-63v3z" />
    <glyph glyph-name="o" unicode="o" horiz-adv-x="557" 
d="M281 518q99 0 165 -75t66 -185t-70 -189q-69 -78 -166 -78q-99 0 -165 75q-66 76 -66 186t69 188q71 78 167 78zM281 514q-75 0 -114 -71t-39 -186t38 -189q39 -73 110 -73q75 0 114 71q39 70 39 187q0 115 -39 188q-37 73 -109 73z" />
    <glyph glyph-name="p" unicode="p" horiz-adv-x="553" 
d="M5 507h140v-77q18 41 56.5 65.5t89.5 24.5q99 0 157 -72q60 -70 60 -182q0 -110 -65 -189q-65 -77 -161 -77q-47 0 -83 22t-54 60v-225h62v-3h-202v3h63v647h-63v3zM145 378v-244q0 -56 33 -89.5t87 -33.5q76 0 118 68q42 69 42 182q0 112 -41.5 178.5t-113.5 66.5
q-57 0 -91 -34.5t-34 -93.5z" />
    <glyph glyph-name="q" unicode="q" horiz-adv-x="552" 
d="M508 542h5l-11 -37l-11 -36q-9 -34 -9 -72v-540h65v-3h-204v3h65v232q-18 -41 -56.5 -65t-89.5 -24q-98 0 -158 71q-59 73 -59 183q0 111 67 187q68 77 164 77q39 0 75.5 -16.5t62 -33t37.5 -16.5q19 0 30 17q11 19 27 73zM408 142v244q0 61 -33 93.5t-89 32.5
q-75 0 -116.5 -68.5t-41.5 -184.5q0 -112 41.5 -178t113.5 -66q57 0 91 34t34 93z" />
    <glyph glyph-name="r" unicode="r" horiz-adv-x="421" 
d="M373 515v-160h-3q-11 73 -33.5 102t-64.5 29q-46 0 -82 -51q-35 -50 -35 -126v-306h62v-3h-202v3h63v501h-63v3h140v-129q27 66 74 101q47 36 144 36z" />
    <glyph glyph-name="s" unicode="s" horiz-adv-x="442" 
d="M38 3v159h3q14 -75 64 -121.5t121 -46.5q54 0 85 29.5t31 77.5q0 78 -104 114q-8 3 -32 11.5t-34 12.5t-31 13t-31 16t-24.5 19t-21 24t-12 28t-5.5 35q0 66 48 105.5t129 39.5q37 0 77 -14q38 -13 55 -13q28 0 28 27h3v-159h-3q-18 76 -56 115.5t-104 39.5
q-53 0 -85 -29t-32 -74q0 -40 29 -69.5t75 -45.5q4 -1 28 -9.5t30.5 -11t27.5 -10.5t28.5 -13.5t23.5 -15t22.5 -19t15.5 -21.5t12 -26.5t3 -31.5q0 -63 -51 -107q-51 -42 -125 -42q-48 0 -93 20t-64 20q-28 0 -28 -27h-3z" />
    <glyph glyph-name="t" unicode="t" horiz-adv-x="326" 
d="M141 649v-142h165v-3h-165v-372q0 -112 94 -112q29 0 51.5 18t26.5 46h3q-5 -37 -39 -65q-35 -29 -81 -29q-65 0 -98 39.5t-33 111.5v363h-65v3h65v104z" />
    <glyph glyph-name="u" unicode="u" horiz-adv-x="539" 
d="M306 507h138v-437q0 -22 12 -34.5t31 -12.5q18 0 30.5 13t13.5 34h3q-2 -31 -25.5 -55.5t-60.5 -24.5q-33 0 -54.5 27.5t-25.5 73.5q-16 -43 -58 -72t-97 -29q-71 0 -108.5 50t-37.5 140v324h-62v3h140v-398q0 -50 26.5 -77t72.5 -27q55 0 89 40q35 41 35 94v365h-62v3z
" />
    <glyph glyph-name="v" unicode="v" horiz-adv-x="533" 
d="M363 507h170v-3q-34 0 -55.5 -27t-40.5 -83l-145 -394h-37l-199 504h-56v3h203v-3h-66l173 -444l123 335q10 23 10 48q0 61 -80 61v3z" />
    <glyph glyph-name="w" unicode="w" horiz-adv-x="752" 
d="M582 507h170v-3q-34 0 -55.5 -27t-40.5 -83l-125 -394h-37l-115 356l-121 -356h-37l-165 504h-56v3h202v-3h-66l140 -439l101 298l-45 141h-56v3h198v-3h-66l140 -436l104 327q10 23 10 48q0 61 -80 61v3z" />
    <glyph glyph-name="x" unicode="x" horiz-adv-x="543" 
d="M344 507h170v-3q-34 0 -70 -34q-17 -17 -25 -27l-12 -15q-2 -4 -13.5 -18t-12.5 -16l-84 -114l189 -277h52v-3h-207v3h67l-155 227l-86 -118q-31 -43 -31 -70q0 -39 63 -39v-3h-169v3q44 0 95 62q3 3 38 48l88 120l-184 271h-52v3h207v-3h-67l150 -221l82 112
q30 43 30 70q0 39 -63 39v3z" />
    <glyph glyph-name="y" unicode="y" horiz-adv-x="533" 
d="M363 507h170v-3q-26 0 -46 -19q-19 -16 -28.5 -33.5t-26.5 -57.5l-142 -386q-31 -85 -62 -119.5t-76 -34.5q-46 0 -71 27.5t-25 73.5q0 27 16 45.5t38 18.5q23 0 36.5 -14t13.5 -36q0 -23 -14.5 -37t-35.5 -14q-6 0 -13.5 2t-12.5 4l-4 2q-5 0 -5 -5q0 -24 20.5 -44
t56.5 -20q44 0 74 34.5t60 116.5l5 13l-235 483h-56v3h204v-3h-69l190 -389l103 280q11 31 11 52q0 57 -76 57v3z" />
    <glyph glyph-name="z" unicode="z" horiz-adv-x="486" 
d="M442 507l-326 -504h170q71 0 106 36t51 112h3v-151h-416l327 504h-145q-71 0 -106 -36t-51 -112h-3v151h390z" />
    <glyph glyph-name="braceleft" unicode="{" horiz-adv-x="317" 
d="M307 761v-4q-88 0 -135 -35.5t-47 -97.5q0 -48 39 -111q40 -61 40 -96q0 -34 -31.5 -59.5t-74.5 -29.5q43 -4 74.5 -29.5t31.5 -59.5q0 -35 -40 -97q-39 -62 -39 -110q0 -62 47 -97.5t135 -35.5v-4q-114 0 -184 50q-68 50 -68 120q0 32 14.5 63t34.5 51q50 50 50 89
q0 58 -77 58v4q77 0 77 58q0 40 -50 88q-49 51 -49 115q0 70 68 120q70 50 184 50z" />
    <glyph glyph-name="bar" unicode="|" horiz-adv-x="213" 
d="M105 731h3q0 -110 2 -268q3 -119 3 -172q0 -61 -3 -180q-2 -158 -2 -260h-3q0 141 -3 260q-2 158 -2 180q0 14 2 172q3 118 3 268z" />
    <glyph glyph-name="braceright" unicode="}" horiz-adv-x="317" 
d="M10 757v4q115 0 183 -50q69 -49 69 -120q0 -65 -50 -115q-49 -49 -49 -88q0 -58 77 -58v-4q-77 0 -77 -58q0 -38 49 -89q20 -20 35 -51t15 -63q0 -71 -69 -120q-68 -50 -183 -50v4q88 0 135 35.5t47 97.5q0 49 -40 110q-39 63 -39 97t31.5 59.5t74.5 29.5
q-43 4 -74.5 29.5t-31.5 59.5q0 35 39 96q40 62 40 111q0 62 -47 97.5t-135 35.5z" />
    <glyph glyph-name="asciitilde" unicode="~" 
d="M53 230h-3q21 43 46 61.5t66 18.5q38 0 88 -37q52 -37 98 -37q66 0 100 67h3q-21 -43 -46 -61.5t-66 -18.5q-63 0 -104 37q-39 37 -82 37q-66 0 -100 -67z" />
    <glyph glyph-name="exclamdown" unicode="&#xa1;" horiz-adv-x="222" 
d="M115 507q21 0 34.5 -14t13.5 -36t-14 -37t-34 -15q-22 0 -35.5 14t-13.5 37q0 22 14.5 36.5t34.5 14.5zM113 274h4q0 -87 23 -230t23 -187q2 -38 -23 -54t-50 0t-23 54q0 44 23 187t23 230z" />
    <glyph glyph-name="cent" unicode="&#xa2;" horiz-adv-x="471" 
d="M437 121h4q-6 -59 -50.5 -94.5t-115.5 -36.5v-71h-3l-1 71q-98 0 -162 76t-64 187q0 108 65 185q64 77 162 82v82h3v-82h6q75 0 116 -38t41 -87q0 -25 -14.5 -42.5t-36.5 -17.5q-23 0 -38 14.5t-15 36.5q0 23 14.5 37t35.5 14q6 0 13.5 -2t12.5 -4l4 -2q5 0 5 5
q0 24 -33 52q-32 29 -90 29q-16 0 -21 -1v-507q15 -3 31 -3q50 0 87 32t44 85zM272 8v505q-68 -11 -106 -78.5t-38 -176.5q0 -98 39 -167q39 -68 105 -83z" />
    <glyph glyph-name="sterling" unicode="&#xa3;" horiz-adv-x="545" 
d="M530 148h3l-67 -168h-26q-93 0 -164 55q-12 9 -41 34t-43.5 35.5t-37 21.5t-41.5 11q-31 0 -49 -13.5t-18 -31.5q0 -5 5 -5l5 2q4 2 11.5 4t13.5 2q21 0 35.5 -14t14.5 -37q0 -21 -14.5 -34.5t-38.5 -13.5q-22 0 -36.5 16t-14.5 41q0 40 26 64.5t70 24.5q41 0 67.5 23.5
t26.5 64.5q0 30 -11 58h-131v3h129q-16 37 -66 100q-42 58 -42 147q0 72 52 118q53 47 136 47q36 0 83 -14q45 -13 62 -13q28 0 28 27h3v-171h-3q-14 85 -56 126t-117 41q-59 0 -93.5 -35.5t-34.5 -93.5t39 -147q41 -89 45 -132h176v-3h-176q1 -5 1 -21q0 -52 -26.5 -85.5
t-70.5 -40.5q44 -5 129 -45q86 -40 144 -40q78 3 113 92z" />
    <glyph glyph-name="yen" unicode="&#xa5;" horiz-adv-x="649" 
d="M439 700h170v-3q-34 0 -64.5 -26t-71.5 -84l-115 -167h203v-3h-203v-116h203v-3h-203v-295h62v-3h-207v3h63v295h-194v3h194v116h-194v3h192l-182 277h-52v3h213v-3h-67l172 -273l111 164q31 46 31 72q0 37 -61 37v3z" />
    <glyph glyph-name="brokenbar" unicode="&#xa6;" horiz-adv-x="213" 
d="M105 730h3q0 -53 2.5 -122t2.5 -78q0 -12 -2.5 -81t-2.5 -119h-3q0 50 -2.5 119t-2.5 81q0 9 2.5 78t2.5 122zM105 251h3q0 -53 2.5 -122t2.5 -78q0 -12 -2.5 -81t-2.5 -119h-3q0 50 -2.5 119t-2.5 81q0 9 2.5 78t2.5 122z" />
    <glyph glyph-name="section" unicode="&#xa7;" horiz-adv-x="545" 
d="M444 703v-159h-3q-18 76 -56 115.5t-104 39.5q-53 0 -85 -29t-32 -74q0 -94 118 -165q104 -57 140 -87q79 -66 78 -150q0 -102 -69 -145q10 -27 10 -55q0 -66 -48 -105.5t-129 -39.5q-37 0 -77 14q-38 13 -55 13q-28 0 -28 -27h-3v159h3q18 -76 56 -115.5t104 -39.5
q53 0 85 29t32 74q0 98 -119 164q-5 3 -35.5 20.5t-39 23t-35 23t-36 27t-27.5 28.5t-25 34.5t-13 37t-6 44.5q0 99 68 144q-9 26 -9 56q0 66 48 105.5t129 39.5q37 0 77 -14q38 -13 55 -13q28 0 28 27h3zM114 499q-45 -31 -45 -91q0 -90 110 -158q43 -26 97 -55
q125 -66 154 -143q46 33 46 92q0 93 -111 157q-51 32 -97 55q-124 69 -154 143z" />
    <glyph glyph-name="dieresis" unicode="&#xa8;" 
d="M170 705q22 0 35.5 -14t13.5 -37q0 -22 -14.5 -36.5t-34.5 -14.5q-21 0 -34.5 14t-13.5 36t14 37t34 15zM329 705q22 0 35.5 -14t13.5 -37q0 -22 -14.5 -36.5t-34.5 -14.5q-21 0 -34.5 14t-13.5 36t14 37t34 15z" />
    <glyph glyph-name="copyright" unicode="&#xa9;" horiz-adv-x="842" 
d="M792 351q0 -156 -106 -259q-104 -103 -265 -103q-159 0 -266 102q-105 103 -105 258q0 156 105 259q106 103 266 103q161 0 265 -103q106 -102 106 -257zM421 708q-157 0 -244 -97q-86 -98 -86 -261t86 -261q87 -97 244 -97q159 0 244 97q86 98 86 261t-86 261
q-85 97 -244 97zM590 244h4q-6 -49 -48 -78.5t-109 -29.5q-92 0 -151 62q-58 62 -58 155q0 91 63 155q63 65 155 65q69 0 107 -30t38 -77q0 -22 -13.5 -37.5t-33.5 -15.5q-22 0 -35.5 13t-13.5 33t14 33t33 13q8 0 18 -3l9 -4q4 0 4 4q0 20 -30 42q-29 24 -84 24
q-71 0 -112.5 -56.5t-41.5 -154.5q0 -91 45 -150t119 -59q47 0 81 26.5t40 69.5z" />
    <glyph glyph-name="ordfeminine" unicode="&#xaa;" 
d="M443 392h2q-3 -23 -19 -40t-43 -17q-57 0 -64 64q-13 -27 -44.5 -45.5t-71.5 -18.5q-44 0 -72.5 23.5t-28.5 62.5q0 36 23 58t56 32.5l66 21t56 33t23 59.5q0 76 -97 76q-35 0 -62.5 -15.5t-27.5 -31.5q0 -9 16 -9t27.5 -10.5t11.5 -27.5t-11.5 -28t-29.5 -11
q-17 0 -28 12.5t-11 30.5q0 35 34 65t92 30q65 0 101.5 -37t36.5 -100v-177q0 -15 8.5 -23.5t21.5 -8.5q30 0 35 32zM318 427v147q-21 -25 -95 -61q-25 -11 -42 -33.5t-17 -53.5t20.5 -50t53.5 -19q35 0 57.5 20t22.5 50z" />
    <glyph glyph-name="guillemotleft" unicode="&#xab;" horiz-adv-x="520" 
d="M343 488v-5l-273 -222l273 -221v-5l-285 212q-8 6 -8 14q0 9 8 15zM469 465v-4l-273 -200l273 -199v-4l-285 190q-8 6 -8 13q0 8 8 14z" />
    <glyph glyph-name="logicalnot" unicode="&#xac;" 
d="M50 322v3q126 0 233 3t158 3q14 0 14 -13q0 -14 -3.5 -103t-3.5 -152h-3q0 63 -3.5 151t-3.5 102q-51 0 -156 3t-232 3z" />
    <glyph glyph-name="registered" unicode="&#xae;" horiz-adv-x="842" 
d="M792 351q0 -156 -106 -259q-104 -103 -265 -103q-159 0 -266 102q-105 103 -105 258q0 156 105 259q106 103 266 103q161 0 265 -103q106 -102 106 -257zM421 708q-157 0 -244 -97q-86 -98 -86 -261t86 -261q87 -97 244 -97q159 0 244 97q86 98 86 261t-86 261
q-85 97 -244 97zM239 560v3h201q76 0 120.5 -29t44.5 -77q0 -43 -42 -73.5t-107 -35.5q132 -9 132 -132q0 -44 6 -50q5 -4 13 -4q24 0 24 30v12h3v-12q0 -23 -13.5 -39t-39.5 -16q-64 0 -64 79q0 55 -8 80q-14 52 -87 52h-72v-202h44v-3h-155v3h44v414h-44zM424 560h-74
v-209h72q112 0 112 105q0 104 -110 104z" />
    <glyph glyph-name="overscore" unicode="&#xaf;" 
d="M103 669v3q37 0 87.5 2.5t59.5 2.5q6 0 58 -2.5t92 -2.5v-3q-40 0 -92 -2.5t-58 -2.5q-9 0 -59.5 2.5t-87.5 2.5z" />
    <glyph glyph-name="degree" unicode="&#xb0;" horiz-adv-x="358" 
d="M178 709q46 0 78 -32t32 -78q0 -45 -32 -76.5t-78 -31.5q-45 0 -76.5 31.5t-31.5 76.5q0 46 31.5 78t76.5 32zM178 706q-41 0 -65 -30t-24 -77q0 -46 24 -75.5t65 -29.5q42 0 66.5 29.5t24.5 75.5q0 47 -24.5 77t-66.5 30z" />
    <glyph glyph-name="plusminus" unicode="&#xb1;" 
d="M249 493h3q0 -45 2 -113q3 -51 3 -61q11 0 68 -3q76 -2 125 -2v-3q-51 0 -118.5 -2.5t-74.5 -2.5q0 -14 -3 -65q-2 -66 -2 -108h-3q0 43 -2.5 103.5t-2.5 69.5q-10 0 -78 2.5t-116 2.5v3q47 0 121 2q55 3 73 3q0 6 2.5 67t2.5 107zM50 95v3q50 0 118 2.5t80 2.5
q9 0 79 -2.5t123 -2.5v-3q-53 0 -123 -2.5t-79 -2.5q-12 0 -80 2.5t-118 2.5z" />
    <glyph glyph-name="acute" unicode="&#xb4;" 
d="M161 628l-1 3q44 19 102 51q59 32 79 41q8 2 10 2q9 0 9 -9q0 -8 -12 -12q-7 -3 -44.5 -17.5t-75.5 -30t-67 -28.5z" />
    <glyph glyph-name="paragraph" unicode="&#xb6;" horiz-adv-x="563" 
d="M533 700v-3h-66v-697h-3v697h-143v-697h-3v334h-28q-106 0 -178 54t-72 133q0 80 64 129q65 50 172 50h257zM318 337v360h-20q-82 0 -126.5 -49.5t-44.5 -129.5q0 -83 45 -132t130 -49h16z" />
    <glyph glyph-name="middot" unicode="&#xb7;" horiz-adv-x="397" 
d="M195 335q22 0 35.5 -14t13.5 -37q0 -22 -14.5 -36.5t-34.5 -14.5q-21 0 -34.5 14t-13.5 36t14 37t34 15z" />
    <glyph glyph-name="cedilla" unicode="&#xb8;" 
d="M248 -10h3l-73 -68q21 15 63 15q40 0 64 -15t24 -43q0 -30 -27.5 -49.5t-68.5 -19.5q-36 0 -59 15t-23 34q0 8 6 14.5t14 6.5q13 0 18 -9t0 -18.5t-16 -9.5q-5 0 -11 3l-1 1q-2 0 -2 -2q0 -5 7 -12t23 -13.5t35 -6.5q39 0 60 16.5t21 46.5q0 58 -74 58q-31 0 -48 -12
l-5 -3h-6z" />
    <glyph glyph-name="ordmasculine" unicode="&#xba;" 
d="M426 524q0 -77 -52 -132t-125 -55q-76 0 -125 52t-49 130t52 133t126 55q73 0 123 -53t50 -130zM253 702q-55 0 -84.5 -48.5t-29.5 -130.5q0 -81 29 -131.5t81 -50.5q54 0 83.5 49t29.5 130t-29 131.5t-80 50.5z" />
    <glyph glyph-name="guillemotright" unicode="&#xbb;" horiz-adv-x="520" 
d="M177 483v5l285 -212q8 -6 8 -15q0 -8 -8 -14l-285 -212v5l273 221zM51 461v4l285 -190q8 -6 8 -14q0 -7 -8 -13l-285 -190v4l273 199z" />
    <glyph glyph-name="questiondown" unicode="&#xbf;" horiz-adv-x="373" 
d="M189 507q21 0 34.5 -14t13.5 -36t-14 -37t-34 -15q-22 0 -35.5 14t-13.5 37q0 22 14.5 36.5t34.5 14.5zM200 283h4q13 -42 13 -77t-13 -65t-31.5 -52l-37 -44t-31.5 -53t-13 -67q0 -55 30.5 -88.5t81.5 -33.5q57 0 89 32t32 60q0 5 -5 5l-5 -2q-4 -2 -11.5 -4t-13.5 -2
q-21 0 -35.5 14t-14.5 37q0 21 14.5 36t38.5 15q22 0 36.5 -16t14.5 -41q0 -54 -41 -97q-40 -43 -115 -43q-77 0 -122 38.5t-45 103.5q0 81 65 144q5 5 31.5 28.5t35.5 33t25.5 29t22.5 36.5t6 36q0 18 -6 37z" />
    <glyph glyph-name="Agrave" unicode="&#xc0;" horiz-adv-x="675" 
d="M619 3h56v-3h-210v3h66l-116 297h-247l-68 -188q-10 -27 -10 -47q0 -62 73 -62h7v-3h-170v3h4q31 0 51.5 26.5t40.5 83.5l214 587h37zM169 303h245l-126 325zM432 784l-1 -3q-29 13 -67 28.5t-75.5 30t-44.5 17.5q-12 5 -12 12q0 9 9 9q2 0 10 -2q20 -9 79 -41
q58 -31 102 -51z" />
    <glyph glyph-name="Aacute" unicode="&#xc1;" horiz-adv-x="675" 
d="M619 3h56v-3h-210v3h66l-116 297h-247l-68 -188q-10 -27 -10 -47q0 -62 73 -62h7v-3h-170v3h4q31 0 51.5 26.5t40.5 83.5l214 587h37zM169 303h245l-126 325zM233 781l-1 3q44 20 102 51q59 32 79 41q8 2 10 2q9 0 9 -9q0 -7 -12 -12q-7 -3 -44.5 -17.5t-75.5 -30
t-67 -28.5z" />
    <glyph glyph-name="Acircumflex" unicode="&#xc2;" horiz-adv-x="675" 
d="M619 3h56v-3h-210v3h66l-116 297h-247l-68 -188q-10 -27 -10 -47q0 -62 73 -62h7v-3h-170v3h4q31 0 51.5 26.5t40.5 83.5l214 587h37zM169 303h245l-126 325zM332 867l-118 -89l-1 4q28 23 64 58.5t45 42.5q4 4 10 4q7 0 10 -4q8 -6 45 -42t64 -59l-1 -4z" />
    <glyph glyph-name="Atilde" unicode="&#xc3;" horiz-adv-x="675" 
d="M160 802h-3q18 42 40.5 60.5t57.5 18.5q32 0 77 -36q46 -35 85 -35q59 0 87 64h3q-18 -42 -40.5 -60.5t-57.5 -18.5q-31 -1 -61 17.5t-55.5 36.5t-45.5 17q-59 0 -87 -64zM619 3h56v-3h-210v3h66l-116 297h-247l-68 -188q-10 -27 -10 -47q0 -62 73 -62h7v-3h-170v3h4
q31 0 51.5 26.5t40.5 83.5l214 587h37zM169 303h245l-126 325z" />
    <glyph glyph-name="Adieresis" unicode="&#xc4;" horiz-adv-x="675" 
d="M252 858q22 0 35.5 -14t13.5 -37q0 -22 -14.5 -36.5t-34.5 -14.5q-21 0 -34.5 14t-13.5 36t14 37t34 15zM411 858q22 0 35.5 -14t13.5 -37q0 -22 -14.5 -36.5t-34.5 -14.5q-21 0 -34.5 14t-13.5 36t14 37t34 15zM619 3h56v-3h-210v3h66l-116 297h-247l-68 -188
q-10 -27 -10 -47q0 -62 73 -62h7v-3h-170v3h4q31 0 51.5 26.5t40.5 83.5l214 587h37zM169 303h245l-126 325z" />
    <glyph glyph-name="Aring" unicode="&#xc5;" horiz-adv-x="675" 
d="M619 3h56v-3h-210v3h66l-116 297h-247l-68 -188q-10 -27 -10 -47q0 -62 73 -62h7v-3h-170v3h4q31 0 51.5 26.5t40.5 83.5l214 587h37zM169 303h245l-126 325zM265 901q27 28 66 28t66 -28q28 -27 28 -66t-28 -66q-27 -27 -66 -27t-66 27t-27 66t27 66zM388 900
q-20 26 -57 26t-57 -26t-20 -65t20 -65q19 -25 57 -25t57 25q21 26 21 65t-21 65z" />
    <glyph glyph-name="AE" unicode="&#xc6;" horiz-adv-x="983" 
d="M913 700v-174h-2q-17 97 -53 133q-38 38 -123 38h-151v-345h96q65 0 96 26.5t38 81.5h3v-219h-3q-7 55 -38 81.5t-96 26.5h-96v-346h161q85 0 123 38q36 36 53 133h2v-174h-484v3h63v346h-215l-146 -237q-25 -38 -25 -67q0 -42 58 -42h7v-3h-169v3h4q55 0 121 110
l361 584h-88v3h503zM502 697l-213 -345h213v345z" />
    <glyph glyph-name="Ccedilla" unicode="&#xc7;" horiz-adv-x="581" 
d="M326 -10h3l-73 -68q21 15 63 15q40 0 64 -15t24 -43q0 -30 -27.5 -49.5t-68.5 -19.5q-36 0 -59 15t-23 34q0 8 6 14.5t14 6.5q13 0 18 -9t0 -18.5t-16 -9.5q-5 0 -11 3l-1 1q-2 0 -2 -2q0 -5 7 -12t23 -13.5t35 -6.5q39 0 60 16.5t21 46.5q0 58 -74 58q-31 0 -48 -12
l-5 -3h-6zM542 167h4q-9 -82 -67.5 -129.5t-156.5 -47.5q-128 0 -210 103t-82 253q0 157 88 260q89 104 225 104q49 0 93 -19q46 -18 66 -18q16 0 25.5 10t9.5 27h3v-209h-3q-22 105 -66 155t-128 50q-112 0 -168 -98q-54 -98 -54 -256q0 -150 67 -247t176 -97
q72 0 120.5 42.5t57.5 116.5z" />
    <glyph glyph-name="Egrave" unicode="&#xc8;" horiz-adv-x="564" 
d="M494 700v-174h-2q-17 97 -53 133q-38 38 -123 38h-151v-345h96q65 0 96 26.5t38 81.5h3v-219h-3q-7 55 -38 81.5t-96 26.5h-96v-346h161q85 0 123 38q36 36 53 133h2v-174h-484v3h63v694h-63v3h474zM378 784l-1 -3q-29 13 -67 28.5t-75.5 30t-44.5 17.5q-12 5 -12 12
q0 9 9 9q2 0 10 -2q20 -9 79 -41q58 -31 102 -51z" />
    <glyph glyph-name="Eacute" unicode="&#xc9;" horiz-adv-x="564" 
d="M494 700v-174h-2q-17 97 -53 133q-38 38 -123 38h-151v-345h96q65 0 96 26.5t38 81.5h3v-219h-3q-7 55 -38 81.5t-96 26.5h-96v-346h161q85 0 123 38q36 36 53 133h2v-174h-484v3h63v694h-63v3h474zM179 781l-1 3q44 20 102 51q59 32 79 41q8 2 10 2q9 0 9 -9
q0 -7 -12 -12q-7 -3 -44.5 -17.5t-75.5 -30t-67 -28.5z" />
    <glyph glyph-name="Ecircumflex" unicode="&#xca;" horiz-adv-x="564" 
d="M494 700v-174h-2q-17 97 -53 133q-38 38 -123 38h-151v-345h96q65 0 96 26.5t38 81.5h3v-219h-3q-7 55 -38 81.5t-96 26.5h-96v-346h161q85 0 123 38q36 36 53 133h2v-174h-484v3h63v694h-63v3h474zM278 867l-118 -89l-1 4q28 23 64 58.5t45 42.5q4 4 10 4q7 0 10 -4
q8 -6 45 -42t64 -59l-1 -4z" />
    <glyph glyph-name="Edieresis" unicode="&#xcb;" horiz-adv-x="564" 
d="M198 858q22 0 35.5 -14t13.5 -37q0 -22 -14.5 -36.5t-34.5 -14.5q-21 0 -34.5 14t-13.5 36t14 37t34 15zM357 858q22 0 35.5 -14t13.5 -37q0 -22 -14.5 -36.5t-34.5 -14.5q-21 0 -34.5 14t-13.5 36t14 37t34 15zM494 700v-174h-2q-17 97 -53 133q-38 38 -123 38h-151
v-345h96q65 0 96 26.5t38 81.5h3v-219h-3q-7 55 -38 81.5t-96 26.5h-96v-346h161q85 0 123 38q36 36 53 133h2v-174h-484v3h63v694h-63v3h474z" />
    <glyph glyph-name="Igrave" unicode="&#xcc;" horiz-adv-x="247" 
d="M227 697h-62v-694h62v-3h-207v3h63v694h-63v3h207v-3zM224 784l-1 -3q-29 13 -67 28.5t-75.5 30t-44.5 17.5q-12 5 -12 12q0 9 9 9q2 0 10 -2q20 -9 79 -41q58 -31 102 -51z" />
    <glyph glyph-name="Iacute" unicode="&#xcd;" horiz-adv-x="247" 
d="M227 697h-62v-694h62v-3h-207v3h63v694h-63v3h207v-3zM25 781l-1 3q44 20 102 51q59 32 79 41q8 2 10 2q9 0 9 -9q0 -7 -12 -12q-7 -3 -44.5 -17.5t-75.5 -30t-67 -28.5z" />
    <glyph glyph-name="Icircumflex" unicode="&#xce;" horiz-adv-x="247" 
d="M227 697h-62v-694h62v-3h-207v3h63v694h-63v3h207v-3zM124 867l-118 -89l-1 4q28 23 64 58.5t45 42.5q4 4 10 4q7 0 10 -4q8 -6 45 -42t64 -59l-1 -4z" />
    <glyph glyph-name="Idieresis" unicode="&#xcf;" horiz-adv-x="247" 
d="M44 858q22 0 35.5 -14t13.5 -37q0 -22 -14.5 -36.5t-34.5 -14.5q-21 0 -34.5 14t-13.5 36t14 37t34 15zM203 858q22 0 35.5 -14t13.5 -37q0 -22 -14.5 -36.5t-34.5 -14.5q-21 0 -34.5 14t-13.5 36t14 37t34 15zM227 697h-62v-694h62v-3h-207v3h63v694h-63v3h207v-3z" />
    <glyph glyph-name="Eth" unicode="&#xd0;" horiz-adv-x="637" 
d="M20 697v3h252q155 0 245 -95t90 -251q0 -154 -96 -254q-94 -100 -239 -100h-252v3h63v343h-61v3h61v348h-63zM165 346v-343h99q122 0 186 96q66 96 66 249q0 147 -69 248t-184 101h-98v-348h164v-3h-164z" />
    <glyph glyph-name="Ntilde" unicode="&#xd1;" horiz-adv-x="643" 
d="M153 802h-3q18 42 40.5 60.5t57.5 18.5q32 0 77 -36q46 -35 85 -35q59 0 87 64h3q-18 -42 -40.5 -60.5t-57.5 -18.5q-31 -1 -61 17.5t-55.5 36.5t-45.5 17q-59 0 -87 -64zM488 700h140v-3q-63 0 -63 -125v-572h-70l-408 690v-562q0 -63 19.5 -94t53.5 -31v-3h-140v3
q63 0 63 125v569h-63v3h154l387 -663v535q0 63 -19.5 94t-53.5 31v3z" />
    <glyph glyph-name="Ograve" unicode="&#xd2;" horiz-adv-x="704" 
d="M352 710q153 0 237 -99q85 -97 85 -257q0 -158 -91 -261q-90 -104 -231 -104q-152 0 -238 99q-84 99 -84 258q0 156 90 260q92 104 232 104zM352 706q-118 0 -175 -98q-56 -98 -56 -256q0 -152 59 -256q60 -103 172 -103q118 0 174 98q57 99 57 257q0 152 -60 255
q-58 103 -171 103zM452 784l-1 -3q-29 13 -67 28.5t-75.5 30t-44.5 17.5q-12 5 -12 12q0 9 9 9q2 0 10 -2q20 -9 79 -41q58 -31 102 -51z" />
    <glyph glyph-name="Oacute" unicode="&#xd3;" horiz-adv-x="704" 
d="M352 710q153 0 237 -99q85 -97 85 -257q0 -158 -91 -261q-90 -104 -231 -104q-152 0 -238 99q-84 99 -84 258q0 156 90 260q92 104 232 104zM352 706q-118 0 -175 -98q-56 -98 -56 -256q0 -152 59 -256q60 -103 172 -103q118 0 174 98q57 99 57 257q0 152 -60 255
q-58 103 -171 103zM253 781l-1 3q44 20 102 51q59 32 79 41q8 2 10 2q9 0 9 -9q0 -7 -12 -12q-7 -3 -44.5 -17.5t-75.5 -30t-67 -28.5z" />
    <glyph glyph-name="Ocircumflex" unicode="&#xd4;" horiz-adv-x="704" 
d="M352 710q153 0 237 -99q85 -97 85 -257q0 -158 -91 -261q-90 -104 -231 -104q-152 0 -238 99q-84 99 -84 258q0 156 90 260q92 104 232 104zM352 706q-118 0 -175 -98q-56 -98 -56 -256q0 -152 59 -256q60 -103 172 -103q118 0 174 98q57 99 57 257q0 152 -60 255
q-58 103 -171 103zM352 867l-118 -89l-1 4q28 23 64 58.5t45 42.5q4 4 10 4q7 0 10 -4q8 -6 45 -42t64 -59l-1 -4z" />
    <glyph glyph-name="Otilde" unicode="&#xd5;" horiz-adv-x="704" 
d="M180 802h-3q18 42 40.5 60.5t57.5 18.5q32 0 77 -36q46 -35 85 -35q59 0 87 64h3q-18 -42 -40.5 -60.5t-57.5 -18.5q-31 -1 -61 17.5t-55.5 36.5t-45.5 17q-59 0 -87 -64zM352 710q153 0 237 -99q85 -97 85 -257q0 -158 -91 -261q-90 -104 -231 -104q-152 0 -238 99
q-84 99 -84 258q0 156 90 260q92 104 232 104zM352 706q-118 0 -175 -98q-56 -98 -56 -256q0 -152 59 -256q60 -103 172 -103q118 0 174 98q57 99 57 257q0 152 -60 255q-58 103 -171 103z" />
    <glyph glyph-name="Odieresis" unicode="&#xd6;" horiz-adv-x="704" 
d="M272 858q22 0 35.5 -14t13.5 -37q0 -22 -14.5 -36.5t-34.5 -14.5q-21 0 -34.5 14t-13.5 36t14 37t34 15zM431 858q22 0 35.5 -14t13.5 -37q0 -22 -14.5 -36.5t-34.5 -14.5q-21 0 -34.5 14t-13.5 36t14 37t34 15zM352 710q153 0 237 -99q85 -97 85 -257q0 -158 -91 -261
q-90 -104 -231 -104q-152 0 -238 99q-84 99 -84 258q0 156 90 260q92 104 232 104zM352 706q-118 0 -175 -98q-56 -98 -56 -256q0 -152 59 -256q60 -103 172 -103q118 0 174 98q57 99 57 257q0 152 -60 255q-58 103 -171 103z" />
    <glyph glyph-name="multiply" unicode="&#xd7;" 
d="M250 271l155 148l1 -1l-148 -155l148 -155l-1 -1l-155 148l-155 -148l-1 1l148 155q-18 17 -65 67q-27 30 -83 88l1 1z" />
    <glyph glyph-name="Oslash" unicode="&#xd8;" horiz-adv-x="704" 
d="M582 740h2l-47 -82q66 -45 101.5 -124.5t35.5 -179.5q0 -158 -91 -261q-90 -104 -231 -104q-98 0 -172 45l-51 -86h-2l50 87q-71 45 -109 125.5t-38 185.5q0 156 90 260q92 104 232 104q108 0 182 -51zM121 352q0 -181 76 -281l153 273l162 277q-61 85 -160 85
q-118 0 -175 -98q-56 -98 -56 -256zM352 -7q118 0 174 98q57 99 57 257q0 172 -69 269l-153 -273l-161 -276q58 -75 152 -75z" />
    <glyph glyph-name="Ugrave" unicode="&#xd9;" horiz-adv-x="671" 
d="M656 700v-3h-4q-80 0 -80 -110v-350q0 -108 -72 -177t-176 -69q-105 0 -173 67q-68 68 -68 170v469h-63v3h207v-3h-62v-464q0 -87 58 -141q59 -53 147 -53q89 0 143.5 53.5t54.5 145.5v349q0 110 -78 110h-4v3h170zM457 784l-1 -3q-29 13 -67 28.5t-75.5 30t-44.5 17.5
q-12 5 -12 12q0 9 9 9q2 0 10 -2q20 -9 79 -41q59 -31 102 -51z" />
    <glyph glyph-name="Uacute" unicode="&#xda;" horiz-adv-x="671" 
d="M656 700v-3h-4q-80 0 -80 -110v-350q0 -108 -72 -177t-176 -69q-105 0 -173 67q-68 68 -68 170v469h-63v3h207v-3h-62v-464q0 -87 58 -141q59 -53 147 -53q89 0 143.5 53.5t54.5 145.5v349q0 110 -78 110h-4v3h170zM258 781l-1 3q43 20 102 51q59 32 79 41q8 2 10 2
q9 0 9 -9q0 -7 -12 -12q-7 -3 -44.5 -17.5t-75.5 -30t-67 -28.5z" />
    <glyph glyph-name="Ucircumflex" unicode="&#xdb;" horiz-adv-x="671" 
d="M656 700v-3h-4q-80 0 -80 -110v-350q0 -108 -72 -177t-176 -69q-105 0 -173 67q-68 68 -68 170v469h-63v3h207v-3h-62v-464q0 -87 58 -141q59 -53 147 -53q89 0 143.5 53.5t54.5 145.5v349q0 110 -78 110h-4v3h170zM357 867l-118 -89l-1 4q28 23 64 58.5t45 42.5
q4 4 10 4q7 0 10 -4q8 -6 45 -42t64 -59l-1 -4z" />
    <glyph glyph-name="Udieresis" unicode="&#xdc;" horiz-adv-x="671" 
d="M277 858q22 0 35.5 -14t13.5 -37q0 -22 -14.5 -36.5t-34.5 -14.5q-21 0 -34.5 14t-13.5 36t14 37t34 15zM436 858q22 0 35.5 -14t13.5 -37q0 -22 -14.5 -36.5t-34.5 -14.5q-21 0 -34.5 14t-13.5 36t14 37t34 15zM656 700v-3h-4q-80 0 -80 -110v-350q0 -108 -72 -177
t-176 -69q-105 0 -173 67q-68 68 -68 170v469h-63v3h207v-3h-62v-464q0 -87 58 -141q59 -53 147 -53q89 0 143.5 53.5t54.5 145.5v349q0 110 -78 110h-4v3h170z" />
    <glyph glyph-name="Yacute" unicode="&#xdd;" horiz-adv-x="649" 
d="M479 700h170v-3q-34 0 -64.5 -26t-71.5 -84l-155 -234v-350h62v-3h-207v3h63v339l-224 355h-52v3h213v-3h-67l212 -338l151 229q31 46 31 72q0 37 -61 37v3zM232 781l-1 3q43 20 102 51q59 32 79 41q8 2 10 2q9 0 9 -9q0 -7 -12 -12q-7 -3 -44.5 -17.5t-75.5 -30
t-67 -28.5z" />
    <glyph glyph-name="Thorn" unicode="&#xde;" horiz-adv-x="563" 
d="M228 700v-3h-63v-138h142q107 0 172 -50q64 -49 64 -129q0 -79 -72 -133t-178 -54h-128v-190h62v-3h-207v3h63v694h-63v3h208zM285 556h-120v-360h116q85 0 130 49t45 132q0 80 -44.5 129.5t-126.5 49.5z" />
    <glyph glyph-name="germandbls" unicode="&#xdf;" horiz-adv-x="526" 
d="M5 3h63v491q0 105 53 166q52 61 135 61q80 0 127.5 -30t47.5 -82q0 -37 -22 -62.5t-48 -38t-48 -38t-22 -62.5q0 -31 21 -54.5t51.5 -40t60.5 -35.5t51 -50.5t21 -74.5q0 -68 -50 -115q-49 -46 -122 -46q-51 0 -90 30q-38 30 -38 75q0 25 14.5 41t36.5 16q23 0 38 -15
t15 -36q0 -23 -14.5 -37t-35.5 -14q-6 0 -13.5 2t-12.5 4l-4 2q-5 0 -5 -5q0 -18 33 -39t76 -21q54 0 83 32.5t29 87.5q0 38 -20.5 66t-49.5 46t-58 34.5t-49.5 41t-20.5 56.5q0 51 43 87q26 23 38 36t26.5 46.5t14.5 76.5q0 58 -25 85.5t-79 27.5q-112 0 -112 -164v-554
h-139v3z" />
    <glyph glyph-name="agrave" unicode="&#xe0;" horiz-adv-x="509" 
d="M501 70h3q-3 -31 -25.5 -55.5t-58.5 -24.5q-76 0 -84 96q-17 -39 -60 -67q-43 -29 -97 -29q-58 0 -96 33t-38 88q0 95 106 131q8 3 32 10.5t34.5 11.5t31.5 12.5t31.5 16t25 19.5t21.5 24.5t12.5 30.5t5.5 38q0 109 -132 109q-58 0 -96 -32q-37 -31 -37 -53q0 -5 5 -5
l5 2q4 2 11.5 4t13.5 2q21 0 35.5 -14t14.5 -37q0 -21 -14.5 -36t-38.5 -15q-22 0 -36.5 16t-14.5 41q0 51 46 91q47 41 121 41q86 0 135 -52.5t49 -141.5v-255q0 -23 11.5 -35t30.5 -12t32 13t15 34zM335 120v219q-23 -39 -98 -78q-52 -25 -81.5 -56t-29.5 -87
q0 -46 27 -73t72 -27q48 0 79 29.5t31 72.5zM356 631l-1 -3q-29 13 -67 28.5t-75.5 30t-44.5 17.5q-12 4 -12 12q0 9 9 9q2 0 10 -2q20 -9 79 -41q58 -32 102 -51z" />
    <glyph glyph-name="aacute" unicode="&#xe1;" horiz-adv-x="509" 
d="M501 70h3q-3 -31 -25.5 -55.5t-58.5 -24.5q-76 0 -84 96q-17 -39 -60 -67q-43 -29 -97 -29q-58 0 -96 33t-38 88q0 95 106 131q8 3 32 10.5t34.5 11.5t31.5 12.5t31.5 16t25 19.5t21.5 24.5t12.5 30.5t5.5 38q0 109 -132 109q-58 0 -96 -32q-37 -31 -37 -53q0 -5 5 -5
l5 2q4 2 11.5 4t13.5 2q21 0 35.5 -14t14.5 -37q0 -21 -14.5 -36t-38.5 -15q-22 0 -36.5 16t-14.5 41q0 51 46 91q47 41 121 41q86 0 135 -52.5t49 -141.5v-255q0 -23 11.5 -35t30.5 -12t32 13t15 34zM335 120v219q-23 -39 -98 -78q-52 -25 -81.5 -56t-29.5 -87
q0 -46 27 -73t72 -27q48 0 79 29.5t31 72.5zM157 628l-1 3q44 19 102 51q59 32 79 41q8 2 10 2q9 0 9 -9q0 -8 -12 -12q-7 -3 -44.5 -17.5t-75.5 -30t-67 -28.5z" />
    <glyph glyph-name="acircumflex" unicode="&#xe2;" horiz-adv-x="509" 
d="M501 70h3q-3 -31 -25.5 -55.5t-58.5 -24.5q-76 0 -84 96q-17 -39 -60 -67q-43 -29 -97 -29q-58 0 -96 33t-38 88q0 95 106 131q8 3 32 10.5t34.5 11.5t31.5 12.5t31.5 16t25 19.5t21.5 24.5t12.5 30.5t5.5 38q0 109 -132 109q-58 0 -96 -32q-37 -31 -37 -53q0 -5 5 -5
l5 2q4 2 11.5 4t13.5 2q21 0 35.5 -14t14.5 -37q0 -21 -14.5 -36t-38.5 -15q-22 0 -36.5 16t-14.5 41q0 51 46 91q47 41 121 41q86 0 135 -52.5t49 -141.5v-255q0 -23 11.5 -35t30.5 -12t32 13t15 34zM335 120v219q-23 -39 -98 -78q-52 -25 -81.5 -56t-29.5 -87
q0 -46 27 -73t72 -27q48 0 79 29.5t31 72.5zM256 714l-118 -89l-1 4q28 23 64 58.5t45 42.5q4 4 10 4q7 0 10 -4q8 -6 45 -42t64 -59l-1 -4z" />
    <glyph glyph-name="atilde" unicode="&#xe3;" horiz-adv-x="509" 
d="M501 70h3q-3 -31 -25.5 -55.5t-58.5 -24.5q-76 0 -84 96q-17 -39 -60 -67q-43 -29 -97 -29q-58 0 -96 33t-38 88q0 95 106 131q8 3 32 10.5t34.5 11.5t31.5 12.5t31.5 16t25 19.5t21.5 24.5t12.5 30.5t5.5 38q0 109 -132 109q-58 0 -96 -32q-37 -31 -37 -53q0 -5 5 -5
l5 2q4 2 11.5 4t13.5 2q21 0 35.5 -14t14.5 -37q0 -21 -14.5 -36t-38.5 -15q-22 0 -36.5 16t-14.5 41q0 51 46 91q47 41 121 41q86 0 135 -52.5t49 -141.5v-255q0 -23 11.5 -35t30.5 -12t32 13t15 34zM335 120v219q-23 -39 -98 -78q-52 -25 -81.5 -56t-29.5 -87
q0 -46 27 -73t72 -27q48 0 79 29.5t31 72.5zM84 649h-3q18 42 40.5 60.5t57.5 18.5q32 0 77 -36q46 -35 85 -35q59 0 87 64h3q-18 -42 -40.5 -60.5t-57.5 -18.5q-29 0 -52.5 11t-37.5 24.5t-33 24.5t-39 11q-59 0 -87 -64z" />
    <glyph glyph-name="adieresis" unicode="&#xe4;" horiz-adv-x="509" 
d="M176 705q22 0 35.5 -14t13.5 -37q0 -22 -14.5 -36.5t-34.5 -14.5q-21 0 -34.5 14t-13.5 36t14 37t34 15zM335 705q22 0 35.5 -14t13.5 -37q0 -22 -14.5 -36.5t-34.5 -14.5q-21 0 -34.5 14t-13.5 36t14 37t34 15zM501 70h3q-3 -31 -25.5 -55.5t-58.5 -24.5q-76 0 -84 96
q-17 -39 -60 -67q-43 -29 -97 -29q-58 0 -96 33t-38 88q0 95 106 131q8 3 32 10.5t34.5 11.5t31.5 12.5t31.5 16t25 19.5t21.5 24.5t12.5 30.5t5.5 38q0 109 -132 109q-58 0 -96 -32q-37 -31 -37 -53q0 -5 5 -5l5 2q4 2 11.5 4t13.5 2q21 0 35.5 -14t14.5 -37
q0 -21 -14.5 -36t-38.5 -15q-22 0 -36.5 16t-14.5 41q0 51 46 91q47 41 121 41q86 0 135 -52.5t49 -141.5v-255q0 -23 11.5 -35t30.5 -12t32 13t15 34zM335 120v219q-23 -39 -98 -78q-52 -25 -81.5 -56t-29.5 -87q0 -46 27 -73t72 -27q48 0 79 29.5t31 72.5z" />
    <glyph glyph-name="aring" unicode="&#xe5;" horiz-adv-x="509" 
d="M501 70h3q-3 -31 -25.5 -55.5t-58.5 -24.5q-76 0 -84 96q-17 -39 -60 -67q-43 -29 -97 -29q-58 0 -96 33t-38 88q0 95 106 131q8 3 32 10.5t34.5 11.5t31.5 12.5t31.5 16t25 19.5t21.5 24.5t12.5 30.5t5.5 38q0 109 -132 109q-58 0 -96 -32q-37 -31 -37 -53q0 -5 5 -5
l5 2q4 2 11.5 4t13.5 2q21 0 35.5 -14t14.5 -37q0 -21 -14.5 -36t-38.5 -15q-22 0 -36.5 16t-14.5 41q0 51 46 91q47 41 121 41q86 0 135 -52.5t49 -141.5v-255q0 -23 11.5 -35t30.5 -12t32 13t15 34zM335 120v219q-23 -39 -98 -78q-52 -25 -81.5 -56t-29.5 -87
q0 -46 27 -73t72 -27q48 0 79 29.5t31 72.5zM189 748q27 28 66 28t66 -28q28 -27 28 -66t-28 -66q-27 -27 -66 -27t-66 27t-27 66t27 66zM312 747q-20 26 -57 26t-57 -26t-20 -65t20 -65q19 -25 57 -25t57 25q21 26 21 65t-21 65z" />
    <glyph glyph-name="ae" unicode="&#xe6;" horiz-adv-x="778" 
d="M720 121h4q-6 -59 -52.5 -95t-119.5 -36q-63 0 -116 33.5t-82 91.5q-13 -56 -59 -90.5t-116 -34.5q-58 0 -96 33t-38 88q0 95 106 131q8 3 32 10.5t34.5 11.5t31.5 12.5t31.5 16t25 19.5t21.5 24.5t12.5 30.5t5.5 38q0 109 -132 109q-58 0 -96 -32q-37 -31 -37 -53
q0 -5 5 -5l5 2q4 2 11.5 4t13.5 2q21 0 35.5 -14t14.5 -37q0 -21 -14.5 -36t-38.5 -15q-22 0 -36.5 16t-14.5 41q0 51 46 91q47 41 121 41q107 0 155 -82q65 83 166 83q88 0 139.5 -61.5t48.5 -164.5h-330v-46q0 -100 44 -171q45 -71 134 -71q54 0 91 31t44 84zM408 297h239
q3 220 -98 220q-59 0 -97 -62q-37 -63 -44 -158zM333 337q-18 -29 -56 -53q-38 -23 -70 -38q-34 -16 -57.5 -49.5t-23.5 -78.5q0 -46 28 -73.5t73 -27.5q54 0 85 28t31 79q0 6 -10 50t-10 79q0 47 10 84z" />
    <glyph glyph-name="ccedilla" unicode="&#xe7;" horiz-adv-x="471" 
d="M437 121h4q-6 -60 -51.5 -95.5t-118.5 -35.5q-98 0 -162 76t-64 187q0 109 68 188q67 79 168 79q75 0 116 -38t41 -87q0 -25 -14.5 -42.5t-36.5 -17.5q-23 0 -38 14.5t-15 36.5q0 23 14.5 37t35.5 14q6 0 13.5 -2t12.5 -4l4 -2q5 0 5 5q0 24 -33 52q-32 29 -90 29
q-78 0 -123 -69t-45 -188q0 -112 49 -183q50 -71 129 -71q50 0 87 32t44 85zM273 -10h3l-73 -68q21 15 63 15q40 0 64 -15t24 -43q0 -30 -27.5 -49.5t-68.5 -19.5q-36 0 -59 15t-23 34q0 8 6 14.5t14 6.5q13 0 18 -9t0 -18.5t-16 -9.5q-6 0 -10 3l-2 1q-2 0 -2 -2
q0 -5 7 -12t23 -13.5t35 -6.5q39 0 60 16.5t21 46.5q0 58 -74 58q-31 0 -48 -12l-5 -3h-6z" />
    <glyph glyph-name="egrave" unicode="&#xe8;" 
d="M442 121h4q-6 -59 -52.5 -95t-119.5 -36q-100 0 -164 76q-65 77 -65 187q0 112 64 189q65 78 162 78q88 0 139.5 -61.5t48.5 -164.5h-329q-1 -10 -1 -46q0 -100 44 -171q45 -71 134 -71q54 0 91 31t44 84zM130 297h239q3 220 -98 220q-59 0 -97 -62q-37 -63 -44 -158z
M371 631l-1 -3q-29 13 -67 28.5t-75.5 30t-44.5 17.5q-12 4 -12 12q0 9 9 9q2 0 10 -2q20 -9 79 -41t102 -51z" />
    <glyph glyph-name="eacute" unicode="&#xe9;" 
d="M442 121h4q-6 -59 -52.5 -95t-119.5 -36q-100 0 -164 76q-65 77 -65 187q0 112 64 189q65 78 162 78q88 0 139.5 -61.5t48.5 -164.5h-329q-1 -10 -1 -46q0 -100 44 -171q45 -71 134 -71q54 0 91 31t44 84zM130 297h239q3 220 -98 220q-59 0 -97 -62q-37 -63 -44 -158z
M172 628l-1 3q43 19 102 51t79 41q8 2 10 2q9 0 9 -9q0 -8 -12 -12q-7 -3 -44.5 -17.5t-75.5 -30t-67 -28.5z" />
    <glyph glyph-name="ecircumflex" unicode="&#xea;" 
d="M442 121h4q-6 -59 -52.5 -95t-119.5 -36q-100 0 -164 76q-65 77 -65 187q0 112 64 189q65 78 162 78q88 0 139.5 -61.5t48.5 -164.5h-329q-1 -10 -1 -46q0 -100 44 -171q45 -71 134 -71q54 0 91 31t44 84zM130 297h239q3 220 -98 220q-59 0 -97 -62q-37 -63 -44 -158z
M271 714l-118 -89l-1 4q28 23 64 58.5t45 42.5q4 4 10 4q7 0 10 -4q8 -6 45 -42t64 -59l-1 -4z" />
    <glyph glyph-name="edieresis" unicode="&#xeb;" 
d="M191 705q22 0 35.5 -14t13.5 -37q0 -22 -14.5 -36.5t-34.5 -14.5q-21 0 -34.5 14t-13.5 36t14 37t34 15zM350 705q22 0 35.5 -14t13.5 -37q0 -22 -14.5 -36.5t-34.5 -14.5q-21 0 -34.5 14t-13.5 36t14 37t34 15zM442 121h4q-6 -59 -52.5 -95t-119.5 -36q-100 0 -164 76
q-65 77 -65 187q0 112 64 189q65 78 162 78q88 0 139.5 -61.5t48.5 -164.5h-329q-1 -10 -1 -46q0 -100 44 -171q45 -71 134 -71q54 0 91 31t44 84zM130 297h239q3 220 -98 220q-59 0 -97 -62q-37 -63 -44 -158z" />
    <glyph glyph-name="igrave" unicode="&#xec;" horiz-adv-x="222" 
d="M155 3h62v-3h-202v3h63v501h-63v3h140v-504zM219 631l-1 -3q-29 13 -67 28.5t-75.5 30t-44.5 17.5q-12 4 -12 12q0 9 9 9q2 0 10 -2q20 -9 79 -41t102 -51z" />
    <glyph glyph-name="iacute" unicode="&#xed;" horiz-adv-x="222" 
d="M155 3h62v-3h-202v3h63v501h-63v3h140v-504zM20 628l-1 3q43 19 102 51t79 41q8 2 10 2q9 0 9 -9q0 -8 -12 -12q-7 -3 -44.5 -17.5t-75.5 -30t-67 -28.5z" />
    <glyph glyph-name="icircumflex" unicode="&#xee;" horiz-adv-x="222" 
d="M155 3h62v-3h-202v3h63v501h-63v3h140v-504zM119 714l-118 -89l-1 4q28 23 64 58.5t45 42.5q4 4 10 4q7 0 10 -4q8 -6 45 -42t64 -59l-1 -4z" />
    <glyph glyph-name="idieresis" unicode="&#xef;" horiz-adv-x="222" 
d="M39 705q22 0 35.5 -14t13.5 -37q0 -22 -14.5 -36.5t-34.5 -14.5q-21 0 -34.5 14t-13.5 36t14 37t34 15zM198 705q22 0 35.5 -14t13.5 -37q0 -22 -14.5 -36.5t-34.5 -14.5q-21 0 -34.5 14t-13.5 36t14 37t34 15zM155 3h62v-3h-202v3h63v501h-63v3h140v-504z" />
    <glyph glyph-name="eth" unicode="&#xf0;" horiz-adv-x="547" 
d="M449 680v-5l-117 -58q79 -65 124.5 -156.5t45.5 -196.5q0 -127 -64 -200q-63 -74 -166 -74q-101 0 -164 71t-63 178t65 184t161 77q85 0 130 -68q-30 104 -91 174l-124 -61v5l121 60q-61 69 -132 88v4q83 -24 153 -82zM286 -5q65 0 100 70t35 193q0 107 -25 165
q-28 66 -108 66q-76 0 -118 -68q-42 -67 -42 -177q0 -109 41 -180q41 -69 117 -69z" />
    <glyph glyph-name="ntilde" unicode="&#xf1;" horiz-adv-x="532" 
d="M15 507h140v-96q16 44 58 75t97 31q71 0 108.5 -50t37.5 -140v-324h61v-3h-202v3h63v395q0 50 -26.5 77t-72.5 27q-55 0 -89 -43q-35 -43 -35 -96v-360h62v-3h-202v3h63v501h-63v3zM94 649h-3q18 42 40.5 60.5t57.5 18.5q32 0 77 -36q46 -35 85 -35q59 0 87 64h3
q-18 -42 -40.5 -60.5t-57.5 -18.5q-29 0 -52.5 11t-37.5 24.5t-33 24.5t-39 11q-59 0 -87 -64z" />
    <glyph glyph-name="ograve" unicode="&#xf2;" horiz-adv-x="557" 
d="M281 518q99 0 165 -75t66 -185t-70 -189q-69 -78 -166 -78q-99 0 -165 75q-66 76 -66 186t69 188q71 78 167 78zM281 514q-75 0 -114 -71t-39 -186t38 -189q39 -73 110 -73q75 0 114 71q39 70 39 187q0 115 -39 188q-37 73 -109 73zM378 631l-1 -3q-29 13 -67 28.5
t-75.5 30t-44.5 17.5q-12 4 -12 12q0 9 9 9q2 0 10 -2q20 -9 79 -41q58 -32 102 -51z" />
    <glyph glyph-name="oacute" unicode="&#xf3;" horiz-adv-x="557" 
d="M281 518q99 0 165 -75t66 -185t-70 -189q-69 -78 -166 -78q-99 0 -165 75q-66 76 -66 186t69 188q71 78 167 78zM281 514q-75 0 -114 -71t-39 -186t38 -189q39 -73 110 -73q75 0 114 71q39 70 39 187q0 115 -39 188q-37 73 -109 73zM179 628l-1 3q44 19 102 51
q59 32 79 41q8 2 10 2q9 0 9 -9q0 -8 -12 -12q-7 -3 -44.5 -17.5t-75.5 -30t-67 -28.5z" />
    <glyph glyph-name="ocircumflex" unicode="&#xf4;" horiz-adv-x="557" 
d="M281 518q99 0 165 -75t66 -185t-70 -189q-69 -78 -166 -78q-99 0 -165 75q-66 76 -66 186t69 188q71 78 167 78zM281 514q-75 0 -114 -71t-39 -186t38 -189q39 -73 110 -73q75 0 114 71q39 70 39 187q0 115 -39 188q-37 73 -109 73zM278 714l-118 -89l-1 4q28 23 64 58.5
t45 42.5q4 4 10 4q7 0 10 -4q8 -6 45 -42t64 -59l-1 -4z" />
    <glyph glyph-name="otilde" unicode="&#xf5;" horiz-adv-x="557" 
d="M281 518q99 0 165 -75t66 -185t-70 -189q-69 -78 -166 -78q-99 0 -165 75q-66 76 -66 186t69 188q71 78 167 78zM281 514q-75 0 -114 -71t-39 -186t38 -189q39 -73 110 -73q75 0 114 71q39 70 39 187q0 115 -39 188q-37 73 -109 73zM106 649h-3q18 42 40.5 60.5
t57.5 18.5q32 0 77 -36q46 -35 85 -35q59 0 87 64h3q-18 -42 -40.5 -60.5t-57.5 -18.5q-29 0 -52.5 11t-37.5 24.5t-33 24.5t-39 11q-59 0 -87 -64z" />
    <glyph glyph-name="odieresis" unicode="&#xf6;" horiz-adv-x="557" 
d="M198 705q22 0 35.5 -14t13.5 -37q0 -22 -14.5 -36.5t-34.5 -14.5q-21 0 -34.5 14t-13.5 36t14 37t34 15zM357 705q22 0 35.5 -14t13.5 -37q0 -22 -14.5 -36.5t-34.5 -14.5q-21 0 -34.5 14t-13.5 36t14 37t34 15zM281 518q99 0 165 -75t66 -185t-70 -189q-69 -78 -166 -78
q-99 0 -165 75q-66 76 -66 186t69 188q71 78 167 78zM281 514q-75 0 -114 -71t-39 -186t38 -189q39 -73 110 -73q75 0 114 71q39 70 39 187q0 115 -39 188q-37 73 -109 73z" />
    <glyph glyph-name="divide" unicode="&#xf7;" 
d="M250 414q-19 0 -19 19q0 13 11.5 18.5t21.5 -4.5t4.5 -21.5t-18.5 -11.5zM50 261v3q50 0 119 2.5t81 2.5q9 0 78 -2.5t122 -2.5v-3q-53 0 -122 -2.5t-78 -2.5q-12 0 -81 2.5t-119 2.5zM250 72q-19 0 -19 19q0 13 11.5 18.5t21.5 -4.5t4.5 -21.5t-18.5 -11.5z" />
    <glyph glyph-name="oslash" unicode="&#xf8;" horiz-adv-x="557" 
d="M460 579h2l-55 -101q49 -34 77 -92.5t28 -127.5q0 -110 -70 -189q-69 -78 -166 -78q-68 0 -120 36l-52 -91h-2l51 93q-50 34 -79 93t-29 130q0 110 69 188q71 78 167 78q67 0 123 -38zM128 257q0 -126 43 -196l105 196l110 192q-38 65 -105 65q-75 0 -114 -71t-39 -186z
M276 -5q75 0 114 71q39 70 39 187q0 122 -40 192q-13 -24 -49 -94q-30 -57 -51 -94l-57 -99l-59 -101q38 -62 103 -62z" />
    <glyph glyph-name="ugrave" unicode="&#xf9;" horiz-adv-x="539" 
d="M306 507h138v-437q0 -22 12 -34.5t31 -12.5q18 0 30.5 13t13.5 34h3q-2 -31 -25.5 -55.5t-60.5 -24.5q-33 0 -54.5 27.5t-25.5 73.5q-16 -43 -58 -72t-97 -29q-71 0 -108.5 50t-37.5 140v324h-62v3h140v-398q0 -50 26.5 -77t72.5 -27q55 0 89 40q35 41 35 94v365h-62v3z
M362 631l-1 -3q-29 13 -67 28.5t-75.5 30t-44.5 17.5q-12 4 -12 12q0 9 9 9q2 0 10 -2q20 -9 79 -41q58 -32 102 -51z" />
    <glyph glyph-name="uacute" unicode="&#xfa;" horiz-adv-x="539" 
d="M306 507h138v-437q0 -22 12 -34.5t31 -12.5q18 0 30.5 13t13.5 34h3q-2 -31 -25.5 -55.5t-60.5 -24.5q-33 0 -54.5 27.5t-25.5 73.5q-16 -43 -58 -72t-97 -29q-71 0 -108.5 50t-37.5 140v324h-62v3h140v-398q0 -50 26.5 -77t72.5 -27q55 0 89 40q35 41 35 94v365h-62v3z
M163 628l-1 3q44 19 102 51q59 32 79 41q8 2 10 2q9 0 9 -9q0 -8 -12 -12q-7 -3 -44.5 -17.5t-75.5 -30t-67 -28.5z" />
    <glyph glyph-name="ucircumflex" unicode="&#xfb;" horiz-adv-x="539" 
d="M306 507h138v-437q0 -22 12 -34.5t31 -12.5q18 0 30.5 13t13.5 34h3q-2 -31 -25.5 -55.5t-60.5 -24.5q-33 0 -54.5 27.5t-25.5 73.5q-16 -43 -58 -72t-97 -29q-71 0 -108.5 50t-37.5 140v324h-62v3h140v-398q0 -50 26.5 -77t72.5 -27q55 0 89 40q35 41 35 94v365h-62v3z
M262 714l-118 -89l-1 4q28 23 64 58.5t45 42.5q4 4 10 4q7 0 10 -4q8 -6 45 -42t64 -59l-1 -4z" />
    <glyph glyph-name="udieresis" unicode="&#xfc;" horiz-adv-x="539" 
d="M182 705q22 0 35.5 -14t13.5 -37q0 -22 -14.5 -36.5t-34.5 -14.5q-21 0 -34.5 14t-13.5 36t14 37t34 15zM341 705q22 0 35.5 -14t13.5 -37q0 -22 -14.5 -36.5t-34.5 -14.5q-21 0 -34.5 14t-13.5 36t14 37t34 15zM306 507h138v-437q0 -22 12 -34.5t31 -12.5q18 0 30.5 13
t13.5 34h3q-2 -31 -25.5 -55.5t-60.5 -24.5q-33 0 -54.5 27.5t-25.5 73.5q-16 -43 -58 -72t-97 -29q-71 0 -108.5 50t-37.5 140v324h-62v3h140v-398q0 -50 26.5 -77t72.5 -27q55 0 89 40q35 41 35 94v365h-62v3z" />
    <glyph glyph-name="yacute" unicode="&#xfd;" horiz-adv-x="533" 
d="M363 507h170v-3q-26 0 -46 -19q-19 -16 -28.5 -33.5t-26.5 -57.5l-142 -386q-31 -85 -62 -119.5t-76 -34.5q-46 0 -71 27.5t-25 73.5q0 27 16 45.5t38 18.5q23 0 36.5 -14t13.5 -36q0 -23 -14.5 -37t-35.5 -14q-6 0 -13.5 2t-12.5 4l-4 2q-5 0 -5 -5q0 -24 20.5 -44
t56.5 -20q44 0 74 34.5t60 116.5l5 13l-235 483h-56v3h204v-3h-69l190 -389l103 280q11 31 11 52q0 57 -76 57v3zM181 628l-1 3q44 19 102 51q59 32 79 41q8 2 10 2q9 0 9 -9q0 -8 -12 -12q-7 -3 -44.5 -17.5t-75.5 -30t-67 -28.5z" />
    <glyph glyph-name="thorn" unicode="&#xfe;" horiz-adv-x="548" 
d="M0 700h140v-270q18 41 56.5 65.5t89.5 24.5q98 0 157 -72q60 -70 60 -182q0 -110 -65 -189q-65 -77 -161 -77q-47 0 -83 22t-54 60v-225h62v-3h-202v3h63v840h-63v3zM140 378v-244q0 -56 33 -89.5t87 -33.5q76 0 118 68q42 69 42 182q0 112 -41.5 178.5t-113.5 66.5
q-57 0 -91 -34.5t-34 -93.5z" />
    <glyph glyph-name="ydieresis" unicode="&#xff;" horiz-adv-x="533" 
d="M200 705q22 0 35.5 -14t13.5 -37q0 -22 -14.5 -36.5t-34.5 -14.5q-21 0 -34.5 14t-13.5 36t14 37t34 15zM359 705q22 0 35.5 -14t13.5 -37q0 -22 -14.5 -36.5t-34.5 -14.5q-21 0 -34.5 14t-13.5 36t14 37t34 15zM363 507h170v-3q-26 0 -46 -19q-19 -16 -28.5 -33.5
t-26.5 -57.5l-142 -386q-31 -85 -62 -119.5t-76 -34.5q-46 0 -71 27.5t-25 73.5q0 27 16 45.5t38 18.5q23 0 36.5 -14t13.5 -36q0 -23 -14.5 -37t-35.5 -14q-6 0 -13.5 2t-12.5 4l-4 2q-5 0 -5 -5q0 -24 20.5 -44t56.5 -20q44 0 74 34.5t60 116.5l5 13l-235 483h-56v3h204
v-3h-69l190 -389l103 280q11 31 11 52q0 57 -76 57v3z" />
    <glyph glyph-name="Amacron" unicode="&#x100;" horiz-adv-x="675" 
d="M619 3h56v-3h-210v3h66l-116 297h-247l-68 -188q-10 -27 -10 -47q0 -62 73 -62h7v-3h-170v3h4q31 0 51.5 26.5t40.5 83.5l214 587h37zM169 303h245l-126 325zM183 822v3q37 0 87.5 2.5t59.5 2.5q6 0 58 -2.5t92 -2.5v-3q-40 0 -92 -2.5t-58 -2.5q-9 0 -59.5 2.5
t-87.5 2.5z" />
    <glyph glyph-name="amacron" unicode="&#x101;" horiz-adv-x="509" 
d="M501 70h3q-3 -31 -25.5 -55.5t-58.5 -24.5q-76 0 -84 96q-17 -39 -60 -67q-43 -29 -97 -29q-58 0 -96 33t-38 88q0 95 106 131q8 3 32 10.5t34.5 11.5t31.5 12.5t31.5 16t25 19.5t21.5 24.5t12.5 30.5t5.5 38q0 109 -132 109q-58 0 -96 -32q-37 -31 -37 -53q0 -5 5 -5
l5 2q4 2 11.5 4t13.5 2q21 0 35.5 -14t14.5 -37q0 -21 -14.5 -36t-38.5 -15q-22 0 -36.5 16t-14.5 41q0 51 46 91q47 41 121 41q86 0 135 -52.5t49 -141.5v-255q0 -23 11.5 -35t30.5 -12t32 13t15 34zM335 120v219q-23 -39 -98 -78q-52 -25 -81.5 -56t-29.5 -87
q0 -46 27 -73t72 -27q48 0 79 29.5t31 72.5zM107 669v3q37 0 87.5 2.5t59.5 2.5q6 0 58 -2.5t92 -2.5v-3q-40 0 -92 -2.5t-58 -2.5q-9 0 -59.5 2.5t-87.5 2.5z" />
    <glyph glyph-name="Abreve" unicode="&#x102;" horiz-adv-x="675" 
d="M619 3h56v-3h-210v3h66l-116 297h-247l-68 -188q-10 -27 -10 -47q0 -62 73 -62h7v-3h-170v3h4q31 0 51.5 26.5t40.5 83.5l214 587h37zM169 303h245l-126 325zM485 882h3q-42 -99 -156 -99t-156 99h3q37 -85 153 -85t153 85z" />
    <glyph glyph-name="abreve" unicode="&#x103;" horiz-adv-x="509" 
d="M501 70h3q-3 -31 -25.5 -55.5t-58.5 -24.5q-76 0 -84 96q-17 -39 -60 -67q-43 -29 -97 -29q-58 0 -96 33t-38 88q0 95 106 131q8 3 32 10.5t34.5 11.5t31.5 12.5t31.5 16t25 19.5t21.5 24.5t12.5 30.5t5.5 38q0 109 -132 109q-58 0 -96 -32q-37 -31 -37 -53q0 -5 5 -5
l5 2q4 2 11.5 4t13.5 2q21 0 35.5 -14t14.5 -37q0 -21 -14.5 -36t-38.5 -15q-22 0 -36.5 16t-14.5 41q0 51 46 91q47 41 121 41q86 0 135 -52.5t49 -141.5v-255q0 -23 11.5 -35t30.5 -12t32 13t15 34zM335 120v219q-23 -39 -98 -78q-52 -25 -81.5 -56t-29.5 -87
q0 -46 27 -73t72 -27q48 0 79 29.5t31 72.5zM409 729h3q-42 -99 -156 -99t-156 99h3q37 -85 153 -85t153 85z" />
    <glyph glyph-name="Aogonek" unicode="&#x104;" horiz-adv-x="675" 
d="M675 3v-3h-60q-12 -2 -32 -11q-59 -27 -59 -84q0 -75 95 -75q23 0 41.5 7.5t26.5 16t8 14.5q0 3 -2 3l-2 -1q-4 -4 -12 -4q-13 0 -19 11t0.5 22t21.5 11q9 0 15.5 -8t6.5 -17q0 -22 -26.5 -40t-68.5 -18q-48 0 -77.5 20.5t-29.5 56.5q0 67 94 94l10 2h-141v3h66l-116 297
h-247l-68 -188q-10 -27 -10 -47q0 -62 73 -62h7v-3h-170v3h4q31 0 51.5 26.5t40.5 83.5l214 587h37l272 -697h56zM169 303h245l-126 325z" />
    <glyph glyph-name="aogonek" unicode="&#x105;" horiz-adv-x="509" 
d="M461 0h-1q-16 -8 -27 -9q-63 -28 -63 -86q0 -75 95 -75q23 0 41.5 7.5t26.5 16t8 14.5q0 3 -2 3l-2 -1q-4 -4 -12 -4q-13 0 -19 11t0.5 22t21.5 11q9 0 15.5 -8t6.5 -17q0 -22 -26.5 -40t-68.5 -18q-48 0 -77.5 20.5t-29.5 56.5q0 59 71 86q-75 1 -83 96q-17 -39 -60 -67
q-43 -29 -97 -29q-58 0 -96 33t-38 88q0 95 106 131q8 3 32 10.5t34.5 11.5t31.5 12.5t31.5 16t25 19.5t21.5 24.5t12.5 30.5t5.5 38q0 109 -132 109q-58 0 -96 -32q-37 -31 -37 -53q0 -5 5 -5l5 2q4 2 11.5 4t13.5 2q21 0 35.5 -14t14.5 -37q0 -21 -14.5 -36t-38.5 -15
q-22 0 -36.5 16t-14.5 41q0 51 46 91q47 41 121 41q86 0 135 -52.5t49 -141.5v-255q0 -23 11.5 -35t30.5 -12t32 13t15 34h3q-1 -19 -12.5 -39t-30.5 -31zM335 120v219q-23 -39 -98 -78q-52 -25 -81.5 -56t-29.5 -87q0 -46 27 -73t72 -27q48 0 79 29.5t31 72.5z" />
    <glyph glyph-name="Cacute" unicode="&#x106;" horiz-adv-x="581" 
d="M542 167h4q-9 -82 -67.5 -129.5t-156.5 -47.5q-128 0 -210 103t-82 253q0 157 88 260q89 104 225 104q49 0 93 -19q46 -18 66 -18q16 0 25.5 10t9.5 27h3v-209h-3q-22 105 -66 155t-128 50q-112 0 -168 -98q-54 -98 -54 -256q0 -150 67 -247t176 -97q72 0 120.5 42.5
t57.5 116.5zM244 781l-1 3q43 20 102 51q59 32 79 41q8 2 10 2q9 0 9 -9q0 -7 -12 -12q-7 -3 -44.5 -17.5t-75.5 -30t-67 -28.5z" />
    <glyph glyph-name="cacute" unicode="&#x107;" horiz-adv-x="471" 
d="M437 121h4q-6 -60 -51.5 -95.5t-118.5 -35.5q-98 0 -162 76t-64 187q0 109 68 188q67 79 168 79q75 0 116 -38t41 -87q0 -25 -14.5 -42.5t-36.5 -17.5q-23 0 -38 14.5t-15 36.5q0 23 14.5 37t35.5 14q6 0 13.5 -2t12.5 -4l4 -2q5 0 5 5q0 24 -33 52q-32 29 -90 29
q-78 0 -123 -69t-45 -188q0 -112 49 -183q50 -71 129 -71q50 0 87 32t44 85zM181 628l-1 3q44 19 102 51q59 32 79 41q8 2 10 2q9 0 9 -9q0 -8 -12 -12q-7 -3 -44.5 -17.5t-75.5 -30t-67 -28.5z" />
    <glyph glyph-name="Cdotaccent" unicode="&#x10a;" horiz-adv-x="581" 
d="M542 167h4q-9 -82 -67.5 -129.5t-156.5 -47.5q-128 0 -210 103t-82 253q0 157 88 260q89 104 225 104q49 0 93 -19q46 -18 66 -18q16 0 25.5 10t9.5 27h3v-209h-3q-22 105 -66 155t-128 50q-112 0 -168 -98q-54 -98 -54 -256q0 -150 67 -247t176 -97q72 0 120.5 42.5
t57.5 116.5zM342 858q22 0 35.5 -14t13.5 -37q0 -22 -14.5 -36.5t-34.5 -14.5q-21 0 -34.5 14t-13.5 36t14 37t34 15z" />
    <glyph glyph-name="cdotaccent" unicode="&#x10b;" horiz-adv-x="471" 
d="M437 121h4q-6 -60 -51.5 -95.5t-118.5 -35.5q-98 0 -162 76t-64 187q0 109 68 188q67 79 168 79q75 0 116 -38t41 -87q0 -25 -14.5 -42.5t-36.5 -17.5q-23 0 -38 14.5t-15 36.5q0 23 14.5 37t35.5 14q6 0 13.5 -2t12.5 -4l4 -2q5 0 5 5q0 24 -33 52q-32 29 -90 29
q-78 0 -123 -69t-45 -188q0 -112 49 -183q50 -71 129 -71q50 0 87 32t44 85zM279 705q22 0 35.5 -14t13.5 -37q0 -22 -14.5 -36.5t-34.5 -14.5q-21 0 -34.5 14t-13.5 36t14 37t34 15z" />
    <glyph glyph-name="Ccaron" unicode="&#x10c;" horiz-adv-x="581" 
d="M542 167h4q-9 -82 -67.5 -129.5t-156.5 -47.5q-128 0 -210 103t-82 253q0 157 88 260q89 104 225 104q49 0 93 -19q46 -18 66 -18q16 0 25.5 10t9.5 27h3v-209h-3q-22 105 -66 155t-128 50q-112 0 -168 -98q-54 -98 -54 -256q0 -150 67 -247t176 -97q72 0 120.5 42.5
t57.5 116.5zM343 806l119 88v-3q-27 -23 -64 -59t-45 -42q-4 -4 -10 -4q-5 0 -10 4q-9 7 -45 42.5t-64 58.5v3z" />
    <glyph glyph-name="ccaron" unicode="&#x10d;" horiz-adv-x="471" 
d="M437 121h4q-6 -60 -51.5 -95.5t-118.5 -35.5q-98 0 -162 76t-64 187q0 109 68 188q67 79 168 79q75 0 116 -38t41 -87q0 -25 -14.5 -42.5t-36.5 -17.5q-23 0 -38 14.5t-15 36.5q0 23 14.5 37t35.5 14q6 0 13.5 -2t12.5 -4l4 -2q5 0 5 5q0 24 -33 52q-32 29 -90 29
q-78 0 -123 -69t-45 -188q0 -112 49 -183q50 -71 129 -71q50 0 87 32t44 85zM280 653l119 88v-3q-27 -23 -64 -59t-45 -42q-4 -4 -10 -4q-5 0 -10 4q-9 7 -45 42.5t-64 58.5v3z" />
    <glyph glyph-name="Dcaron" unicode="&#x10e;" horiz-adv-x="637" 
d="M289 806l119 88v-3q-27 -23 -64 -59t-45 -42q-4 -4 -10 -4q-5 0 -10 4q-9 7 -45 42.5t-64 58.5v3zM20 697v3h252q155 0 245 -95t90 -251q0 -154 -96 -254q-94 -100 -239 -100h-252v3h63v694h-63zM165 697v-694h99q122 0 186 96q66 96 66 249q0 147 -69 248t-184 101h-98z
" />
    <glyph glyph-name="dcaron" unicode="&#x10f;" horiz-adv-x="610" 
d="M530 525v3q33 10 53 36t20 50q0 5 -5 5l-10 -4q-8 -4 -17 -4q-19 0 -32.5 13.5t-13.5 33.5q0 21 12.5 34t33.5 13q22 0 35.5 -15.5t13.5 -39.5q0 -38 -24 -76q-22 -37 -66 -49zM343 700h139v-630q0 -22 12 -34.5t31 -12.5q18 0 30.5 13t13.5 34h3q-2 -31 -25.5 -55.5
t-60.5 -24.5q-69 0 -78 90q-18 -41 -56.5 -65.5t-89.5 -24.5q-98 0 -158 73q-59 74 -59 186q0 111 65 191t161 80q47 0 83 -22t54 -60v259h-65v3zM408 132v254q0 56 -33 89.5t-87 33.5q-76 0 -118 -71q-42 -70 -42 -184q0 -111 41 -181q41 -69 114 -69q57 0 91 34.5t34 93.5
z" />
    <glyph glyph-name="Dcroat" unicode="&#x110;" horiz-adv-x="637" 
d="M20 697v3h252q155 0 245 -95t90 -251q0 -154 -96 -254q-94 -100 -239 -100h-252v3h63v343h-61v3h61v348h-63zM165 346v-343h99q122 0 186 96q66 96 66 249q0 147 -69 248t-184 101h-98v-348h164v-3h-164z" />
    <glyph glyph-name="dslash" unicode="&#x111;" horiz-adv-x="577" 
d="M569 70h3q-2 -31 -25.5 -55.5t-60.5 -24.5q-69 0 -78 90q-18 -41 -56.5 -65.5t-89.5 -24.5q-98 0 -158 73q-59 74 -59 186q0 111 65 191t161 80q47 0 83 -22t54 -60v163h-135v3h135v93h-65v3h139v-96h88v-3h-88v-531q0 -22 12 -34.5t31 -12.5q18 0 30.5 13t13.5 34z
M408 132v254q0 56 -33 89.5t-87 33.5q-76 0 -118 -71q-42 -70 -42 -184q0 -111 41 -181q41 -69 114 -69q57 0 91 34.5t34 93.5z" />
    <glyph glyph-name="Emacron" unicode="&#x112;" horiz-adv-x="564" 
d="M494 700v-174h-2q-17 97 -53 133q-38 38 -123 38h-151v-345h96q65 0 96 26.5t38 81.5h3v-219h-3q-7 55 -38 81.5t-96 26.5h-96v-346h161q85 0 123 38q36 36 53 133h2v-174h-484v3h63v694h-63v3h474zM129 822v3q37 0 87.5 2.5t59.5 2.5q6 0 58 -2.5t92 -2.5v-3
q-40 0 -92 -2.5t-58 -2.5q-9 0 -59.5 2.5t-87.5 2.5z" />
    <glyph glyph-name="emacron" unicode="&#x113;" 
d="M442 121h4q-6 -59 -52.5 -95t-119.5 -36q-100 0 -164 76q-65 77 -65 187q0 112 64 189q65 78 162 78q88 0 139.5 -61.5t48.5 -164.5h-329q-1 -10 -1 -46q0 -100 44 -171q45 -71 134 -71q54 0 91 31t44 84zM130 297h239q3 220 -98 220q-59 0 -97 -62q-37 -63 -44 -158z
M122 669v3q37 0 87.5 2.5t59.5 2.5q7 0 58.5 -2.5t91.5 -2.5v-3q-40 0 -91.5 -2.5t-58.5 -2.5q-9 0 -59.5 2.5t-87.5 2.5z" />
    <glyph glyph-name="Edotaccent" unicode="&#x116;" horiz-adv-x="564" 
d="M494 700v-174h-2q-17 97 -53 133q-38 38 -123 38h-151v-345h96q65 0 96 26.5t38 81.5h3v-219h-3q-7 55 -38 81.5t-96 26.5h-96v-346h161q85 0 123 38q36 36 53 133h2v-174h-484v3h63v694h-63v3h474zM277 858q22 0 35.5 -14t13.5 -37q0 -22 -14.5 -36.5t-34.5 -14.5
q-21 0 -34.5 14t-13.5 36t14 37t34 15z" />
    <glyph glyph-name="edotaccent" unicode="&#x117;" 
d="M442 121h4q-6 -59 -52.5 -95t-119.5 -36q-100 0 -164 76q-65 77 -65 187q0 112 64 189q65 78 162 78q88 0 139.5 -61.5t48.5 -164.5h-329q-1 -10 -1 -46q0 -100 44 -171q45 -71 134 -71q54 0 91 31t44 84zM130 297h239q3 220 -98 220q-59 0 -97 -62q-37 -63 -44 -158z
M270 705q22 0 35.5 -14t13.5 -37q0 -22 -14.5 -36.5t-34.5 -14.5q-21 0 -34.5 14t-13.5 36t14 37t34 15z" />
    <glyph glyph-name="Eogonek" unicode="&#x118;" horiz-adv-x="564" 
d="M504 174v-174h-34q-12 -2 -32 -11q-59 -27 -59 -84q0 -75 95 -75q23 0 41.5 7.5t26.5 16t8 14.5q0 3 -2 3l-2 -1q-4 -4 -12 -4q-13 0 -19 11t0.5 22t21.5 11q9 0 15.5 -8t6.5 -17q0 -22 -26.5 -40t-68.5 -18q-48 0 -77.5 20.5t-29.5 56.5q0 65 93 94l11 2h-441v3h63v694
h-63v3h474v-174h-2q-17 97 -53 133q-38 38 -123 38h-151v-345h96q65 0 96 26.5t38 81.5h3v-219h-3q-7 55 -38 81.5t-96 26.5h-96v-346h161q85 0 123 38q36 36 53 133h2z" />
    <glyph glyph-name="eogonek" unicode="&#x119;" 
d="M459 294h-329q-1 -10 -1 -46q0 -100 44 -171q45 -71 134 -71q54 0 91 31t44 84h4q-7 -75 -79 -112h-2q-18 -8 -32 -12q-57 -29 -57 -83q0 -75 95 -75q23 0 41.5 7.5t26.5 16t8 14.5q0 3 -2 3l-2 -1q-1 0 -3 -1.5t-4.5 -2t-4.5 -0.5q-13 0 -19 11t0.5 22t21.5 11
q9 0 15.5 -8t6.5 -17q0 -22 -26.5 -40t-68.5 -18q-48 0 -77.5 20.5t-29.5 56.5q0 51 56 80q-16 -3 -36 -3q-100 0 -164 76q-65 77 -65 187q0 112 64 189q65 78 162 78q88 0 139.5 -61.5t48.5 -164.5zM130 297h239q3 220 -98 220q-59 0 -97 -62q-37 -63 -44 -158z" />
    <glyph glyph-name="Ecaron" unicode="&#x11a;" horiz-adv-x="564" 
d="M494 700v-174h-2q-17 97 -53 133q-38 38 -123 38h-151v-345h96q65 0 96 26.5t38 81.5h3v-219h-3q-7 55 -38 81.5t-96 26.5h-96v-346h161q85 0 123 38q36 36 53 133h2v-174h-484v3h63v694h-63v3h474zM278 806l119 88v-3q-27 -23 -64 -59t-45 -42q-4 -4 -10 -4q-5 0 -10 4
q-9 7 -45 42.5t-64 58.5v3z" />
    <glyph glyph-name="ecaron" unicode="&#x11b;" 
d="M442 121h4q-6 -59 -52.5 -95t-119.5 -36q-100 0 -164 76q-65 77 -65 187q0 112 64 189q65 78 162 78q88 0 139.5 -61.5t48.5 -164.5h-329q-1 -10 -1 -46q0 -100 44 -171q45 -71 134 -71q54 0 91 31t44 84zM130 297h239q3 220 -98 220q-59 0 -97 -62q-37 -63 -44 -158z
M271 653l119 88v-3q-27 -23 -64 -59t-45 -42q-4 -4 -10 -4q-5 0 -10 4q-9 7 -45 42.5t-64 58.5v3z" />
    <glyph glyph-name="Gbreve" unicode="&#x11e;" horiz-adv-x="646" 
d="M568 -17h-4v13q0 39 -8.5 55.5t-29.5 16.5q-13 1 -33.5 -11.5t-41 -27.5t-53 -27.5t-66.5 -11.5q-129 0 -216 103q-86 104 -86 253q0 157 88 260q89 104 225 104q49 0 93 -19q46 -18 66 -18q16 0 25.5 10t9.5 27h3v-209h-3q-22 105 -66 155t-128 50q-112 0 -168 -98
q-54 -98 -54 -256q0 -156 54.5 -257t156.5 -101q72 0 113.5 39.5t41.5 111.5v142h-74v3h213v-3h-58v-304zM496 882h3q-42 -99 -156 -99t-156 99h3q37 -85 153 -85t153 85z" />
    <glyph glyph-name="gbreve" unicode="&#x11f;" horiz-adv-x="506" 
d="M393 663q24 0 39.5 -15t15.5 -39q0 -43 -33 -73t-87 -33q99 -41 99 -139q0 -69 -53 -114q-52 -45 -133 -45q-24 0 -49 4q-32 5 -39 5q-27 0 -43.5 -11.5t-16.5 -31.5q0 -46 135 -48q40 0 68 -1.5t65.5 -7.5t60 -17.5t39 -34t15.5 -54.5q0 -64 -69 -109q-67 -45 -176 -45
q-94 0 -142.5 34t-48.5 88q0 40 27 66.5t62 30.5q-62 20 -62 72q0 30 25.5 51t64.5 27q-96 41 -96 137q0 70 52 113q52 45 134 45q14 0 47 -4t45 -4q34 0 60 16.5t26 39.5q0 5 -5 5l-4 -2q-5 -2 -12.5 -4t-13.5 -2q-21 0 -35.5 13.5t-14.5 36.5q0 21 14.5 35.5t38.5 14.5z
M247 515q-109 0 -109 -152q0 -155 103 -155q109 0 109 153q0 154 -103 154zM140 65q-44 0 -70 -24.5t-26 -64.5q0 -53 47.5 -85.5t139.5 -32.5q82 0 127.5 29.5t45.5 79.5q0 37 -31 58.5t-101 29.5q-90 10 -132 10zM403 749h3q-42 -99 -156 -99t-156 99h3q37 -85 153 -85
t153 85z" />
    <glyph glyph-name="Gdotaccent" unicode="&#x120;" horiz-adv-x="646" 
d="M568 -17h-4v13q0 39 -8.5 55.5t-29.5 16.5q-13 1 -33.5 -11.5t-41 -27.5t-53 -27.5t-66.5 -11.5q-129 0 -216 103q-86 104 -86 253q0 157 88 260q89 104 225 104q49 0 93 -19q46 -18 66 -18q16 0 25.5 10t9.5 27h3v-209h-3q-22 105 -66 155t-128 50q-112 0 -168 -98
q-54 -98 -54 -256q0 -156 54.5 -257t156.5 -101q72 0 113.5 39.5t41.5 111.5v142h-74v3h213v-3h-58v-304zM342 858q22 0 35.5 -14t13.5 -37q0 -22 -14.5 -36.5t-34.5 -14.5q-21 0 -34.5 14t-13.5 36t14 37t34 15z" />
    <glyph glyph-name="gdotaccent" unicode="&#x121;" horiz-adv-x="506" 
d="M393 663q24 0 39.5 -15t15.5 -39q0 -43 -33 -73t-87 -33q99 -41 99 -139q0 -69 -53 -114q-52 -45 -133 -45q-24 0 -49 4q-32 5 -39 5q-27 0 -43.5 -11.5t-16.5 -31.5q0 -46 135 -48q40 0 68 -1.5t65.5 -7.5t60 -17.5t39 -34t15.5 -54.5q0 -64 -69 -109q-67 -45 -176 -45
q-94 0 -142.5 34t-48.5 88q0 40 27 66.5t62 30.5q-62 20 -62 72q0 30 25.5 51t64.5 27q-96 41 -96 137q0 70 52 113q52 45 134 45q14 0 47 -4t45 -4q34 0 60 16.5t26 39.5q0 5 -5 5l-4 -2q-5 -2 -12.5 -4t-13.5 -2q-21 0 -35.5 13.5t-14.5 36.5q0 21 14.5 35.5t38.5 14.5z
M247 515q-109 0 -109 -152q0 -155 103 -155q109 0 109 153q0 154 -103 154zM140 65q-44 0 -70 -24.5t-26 -64.5q0 -53 47.5 -85.5t139.5 -32.5q82 0 127.5 29.5t45.5 79.5q0 37 -31 58.5t-101 29.5q-90 10 -132 10zM249 725q22 0 35.5 -14t13.5 -37q0 -22 -14.5 -36.5
t-34.5 -14.5q-21 0 -34.5 14t-13.5 36t14 37t34 15z" />
    <glyph glyph-name="Gcommaaccent" unicode="&#x122;" horiz-adv-x="646" 
d="M568 -17h-4v13q0 39 -8.5 55.5t-29.5 16.5q-13 1 -33.5 -11.5t-41 -27.5t-53 -27.5t-66.5 -11.5q-129 0 -216 103q-86 104 -86 253q0 157 88 260q89 104 225 104q49 0 93 -19q46 -18 66 -18q16 0 25.5 10t9.5 27h3v-209h-3q-22 105 -66 155t-128 50q-112 0 -168 -98
q-54 -98 -54 -256q0 -156 54.5 -257t156.5 -101q72 0 113.5 39.5t41.5 111.5v142h-74v3h213v-3h-58v-304zM293 -245v4q34 10 53 35.5t19 48.5q0 5 -4 5l-9 -4q-9 -4 -18 -4q-19 0 -32.5 13t-13.5 34q0 19 13 32.5t33 13.5q23 0 36.5 -15.5t13.5 -39.5q0 -39 -25 -75t-66 -48
z" />
    <glyph glyph-name="gcommaaccent" unicode="&#x123;" horiz-adv-x="506" 
d="M287 787v-3q-33 -10 -53 -36t-20 -50q0 -5 5 -5l9 4q9 4 18 4q19 0 32.5 -13.5t13.5 -33.5q0 -21 -12.5 -34t-33.5 -13q-22 0 -35.5 15.5t-13.5 39.5q0 37 23 75q24 38 67 50zM393 663q24 0 39.5 -15t15.5 -39q0 -43 -33 -73t-87 -33q99 -41 99 -139q0 -69 -53 -114
q-52 -45 -133 -45q-24 0 -49 4q-32 5 -39 5q-27 0 -43.5 -11.5t-16.5 -31.5q0 -46 135 -48q40 0 68 -1.5t65.5 -7.5t60 -17.5t39 -34t15.5 -54.5q0 -64 -69 -109q-67 -45 -176 -45q-94 0 -142.5 34t-48.5 88q0 40 27 66.5t62 30.5q-62 20 -62 72q0 30 25.5 51t64.5 27
q-96 41 -96 137q0 70 52 113q52 45 134 45q14 0 47 -4t45 -4q34 0 60 16.5t26 39.5q0 5 -5 5l-4 -2q-5 -2 -12.5 -4t-13.5 -2q-21 0 -35.5 13.5t-14.5 36.5q0 21 14.5 35.5t38.5 14.5zM247 515q-109 0 -109 -152q0 -155 103 -155q109 0 109 153q0 154 -103 154zM140 65
q-44 0 -70 -24.5t-26 -64.5q0 -53 47.5 -85.5t139.5 -32.5q82 0 127.5 29.5t45.5 79.5q0 37 -31 58.5t-101 29.5q-90 10 -132 10z" />
    <glyph glyph-name="Hbar" unicode="&#x126;" horiz-adv-x="671" 
d="M651 697h-62v-173h61v-3h-61v-518h62v-3h-207v3h63v343h-342v-343h62v-3h-207v3h63v518h-62v3h62v173h-63v3h207v-3h-62v-173h342v173h-63v3h207v-3zM507 349v172h-342v-172h342z" />
    <glyph glyph-name="hbar" unicode="&#x127;" horiz-adv-x="532" 
d="M456 3h61v-3h-202v3h63v395q0 50 -26.5 77t-72.5 27q-55 0 -89 -43q-35 -43 -35 -96v-360h62v-3h-202v3h63v598h-62v3h62v93h-63v3h140v-96h158v-3h-158v-190q16 44 58 75t97 31q71 0 108.5 -50t37.5 -140v-324z" />
    <glyph glyph-name="Imacron" unicode="&#x12a;" horiz-adv-x="247" 
d="M227 697h-62v-694h62v-3h-207v3h63v694h-63v3h207v-3zM-25 822v3q37 0 87.5 2.5t59.5 2.5q7 0 59 -2.5t91 -2.5v-3q-39 0 -91 -2.5t-59 -2.5q-9 0 -59.5 2.5t-87.5 2.5z" />
    <glyph glyph-name="imacron" unicode="&#x12b;" horiz-adv-x="222" 
d="M155 3h62v-3h-202v3h63v501h-63v3h140v-504zM-30 669v3q37 0 87.5 2.5t59.5 2.5q7 0 59 -2.5t91 -2.5v-3q-39 0 -91 -2.5t-59 -2.5q-9 0 -59.5 2.5t-87.5 2.5z" />
    <glyph glyph-name="Iogonek" unicode="&#x12e;" horiz-adv-x="247" 
d="M227 3v-3h-42q-12 -2 -32 -11q-59 -27 -59 -84q0 -75 95 -75q23 0 41.5 7.5t26.5 16t8 14.5q0 3 -2 3l-2 -1q-4 -4 -12 -4q-13 0 -19 11t0.5 22t21.5 11q9 0 15.5 -8t6.5 -17q0 -22 -26.5 -40t-68.5 -18q-48 0 -77.5 20.5t-29.5 56.5q0 67 94 94l10 2h-156v3h63v694h-63
v3h207v-3h-62v-694h62z" />
    <glyph glyph-name="iogonek" unicode="&#x12f;" horiz-adv-x="222" 
d="M118 603q-21 0 -34.5 14t-13.5 36t14 37t34 15q22 0 35.5 -14t13.5 -37q0 -22 -14.5 -36.5t-34.5 -14.5zM217 3v-3h-56q-12 -2 -32 -11q-59 -27 -59 -84q0 -75 95 -75q23 0 41.5 7.5t26.5 16t8 14.5q0 3 -2 3l-2 -1q-4 -4 -12 -4q-13 0 -19 11t0.5 22t21.5 11
q9 0 15.5 -8t6.5 -17q0 -22 -26.5 -40t-68.5 -18q-48 0 -77.5 20.5t-29.5 56.5q0 67 94 94l10 2h-137v3h63v501h-63v3h140v-504h62z" />
    <glyph glyph-name="Idot" unicode="&#x130;" horiz-adv-x="247" 
d="M227 697h-62v-694h62v-3h-207v3h63v694h-63v3h207v-3zM123 858q22 0 35.5 -14t13.5 -37q0 -22 -14.5 -36.5t-34.5 -14.5q-21 0 -34.5 14t-13.5 36t14 37t34 15z" />
    <glyph glyph-name="dotlessi" unicode="&#x131;" horiz-adv-x="222" 
d="M155 507v-504h62v-3h-202v3h63v501h-63v3h140z" />
    <glyph glyph-name="IJ" unicode="&#x132;" horiz-adv-x="580" 
d="M560 700v-3h-62v-499q0 -96 -30.5 -151t-93.5 -55q-49 0 -78 30t-29 77q0 29 16.5 48.5t40.5 19.5t38.5 -14.5t14.5 -38.5t-15.5 -39t-37.5 -15q-12 0 -21 4l-11 4q-5 0 -5 -5q0 -24 24.5 -46.5t62.5 -22.5q42 0 67.5 26t25.5 72q0 38 -26 125q-25 85 -25 176v304h-63v3
h207zM227 697h-62v-694h62v-3h-207v3h63v694h-63v3h207v-3z" />
    <glyph glyph-name="ij" unicode="&#x133;" horiz-adv-x="438" 
d="M230 507h140v-475q0 -82 -34 -140q-35 -59 -94 -59q-40 0 -66.5 22.5t-26.5 60.5q0 27 16 45.5t38 18.5q23 0 36.5 -14t13.5 -36q0 -23 -14.5 -37t-35.5 -14q-6 0 -13.5 2t-11.5 4l-5 2q-5 0 -5 -5q0 -16 22.5 -31.5t51.5 -15.5q36 0 68 27q31 27 31 70q0 36 -24 122
q-24 85 -24 170v280h-63v3zM155 3h62v-3h-202v3h63v501h-63v3h140v-504zM114 705q22 0 35.5 -14t13.5 -37q0 -22 -14.5 -36.5t-34.5 -14.5q-21 0 -34.5 14t-13.5 36t14 37t34 15zM329 705q22 0 35.5 -14t13.5 -37q0 -22 -14.5 -36.5t-34.5 -14.5q-21 0 -34.5 14t-13.5 36
t14 37t34 15z" />
    <glyph glyph-name="jcircumflex" unicode="&#x135;" horiz-adv-x="216" 
d="M8 507h140v-475q0 -82 -34 -140q-35 -59 -94 -59q-40 0 -66.5 22.5t-26.5 60.5q0 27 16 45.5t38 18.5q23 0 36.5 -14t13.5 -36q0 -23 -14.5 -37t-35.5 -14q-6 0 -13.5 2t-11.5 4l-5 2q-5 0 -5 -5q0 -16 22.5 -31.5t51.5 -15.5q37 0 68 27t31 70q0 36 -24 122t-24 170v280
h-63v3zM111 714l-118 -89l-1 4q28 23 64 58.5t45 42.5q4 4 10 4q7 0 10 -4q8 -6 45 -42t64 -59l-1 -4z" />
    <glyph glyph-name="Kcommaaccent" unicode="&#x136;" horiz-adv-x="625" 
d="M580 700v-3h-4q-23 0 -49 -19q-27 -18 -43 -34q-3 -3 -49 -53l-131 -153l264 -435h52v-3h-215v3h67l-223 370l-84 -99v-271h62v-3h-207v3h63v694h-63v3h207v-3h-62v-418l266 313q38 41 38 71q0 34 -52 34h-7v3h170zM270 -245v4q34 10 53 35.5t19 48.5q0 5 -4 5l-10 -4
q-8 -4 -17 -4q-19 0 -32.5 13t-13.5 34q0 19 13 32.5t33 13.5q23 0 36.5 -15.5t13.5 -39.5q0 -39 -25 -75t-66 -48z" />
    <glyph glyph-name="kcommaaccent" unicode="&#x137;" horiz-adv-x="523" 
d="M155 700v-516l189 215q39 43 39 72q0 33 -52 33h-7v3h170v-3h-4q-22 0 -49 -18t-44 -35q-5 -5 -49 -53l-68 -76l186 -319h52v-3h-207v3h67l-150 259l-73 -83v-176h62v-3h-202v3h63v694h-63v3h140zM219 -245v4q34 10 53 35.5t19 48.5q0 5 -4 5l-9 -4q-9 -4 -18 -4
q-19 0 -32.5 13t-13.5 34q0 19 13 32.5t33 13.5q23 0 36.5 -15.5t13.5 -39.5q0 -39 -25 -75t-66 -48z" />
    <glyph glyph-name="Lacute" unicode="&#x139;" horiz-adv-x="534" 
d="M164 781l-1 3q43 20 102 51q59 32 79 41q8 2 10 2q9 0 9 -9q0 -7 -12 -12q-7 -3 -44.5 -17.5t-75.5 -30t-67 -28.5zM228 697h-63v-694h161q85 0 123 38q36 36 53 133h2v-174h-484v3h63v694h-63v3h208v-3z" />
    <glyph glyph-name="lacute" unicode="&#x13a;" horiz-adv-x="232" 
d="M17 781l-1 3q44 20 102 51q59 32 79 41q8 2 10 2q9 0 9 -9q0 -7 -12 -12q-7 -3 -44.5 -17.5t-75.5 -30t-67 -28.5zM155 3h62v-3h-202v3h63v694h-63v3h140v-697z" />
    <glyph glyph-name="Lcommaaccent" unicode="&#x13b;" horiz-adv-x="534" 
d="M228 697h-63v-694h161q85 0 123 38q36 36 53 133h2v-174h-484v3h63v694h-63v3h208v-3zM227 -245v4q34 10 53 35.5t19 48.5q0 5 -4 5l-9 -4q-9 -4 -18 -4q-19 0 -32.5 13t-13.5 34q0 19 13 32.5t33 13.5q23 0 36.5 -15.5t13.5 -39.5q0 -39 -25 -75t-66 -48z" />
    <glyph glyph-name="lcommaaccent" unicode="&#x13c;" horiz-adv-x="232" 
d="M155 3h62v-3h-202v3h63v694h-63v3h140v-697zM76 -245v4q34 10 53 35.5t19 48.5q0 5 -4 5l-10 -4q-8 -4 -17 -4q-19 0 -32.5 13t-13.5 34q0 19 13 32.5t33 13.5q23 0 36.5 -15.5t13.5 -39.5q0 -39 -25 -75t-66 -48z" />
    <glyph glyph-name="Lcaron" unicode="&#x13d;" horiz-adv-x="534" 
d="M292 525v3q33 10 53 36t20 50q0 5 -5 5l-10 -4q-8 -4 -17 -4q-19 0 -32.5 13.5t-13.5 33.5q0 21 12.5 34t33.5 13q22 0 35.5 -15.5t13.5 -39.5q0 -38 -24 -76q-22 -37 -66 -49zM228 697h-63v-694h161q85 0 123 38q36 36 53 133h2v-174h-484v3h63v694h-63v3h208v-3z" />
    <glyph glyph-name="lcaron" unicode="&#x13e;" horiz-adv-x="287" 
d="M202 525v3q33 10 53 36t20 50q0 5 -5 5l-10 -4q-8 -4 -17 -4q-19 0 -32.5 13.5t-13.5 33.5q0 21 12.5 34t33.5 13q22 0 35.5 -15.5t13.5 -39.5q0 -38 -24 -76q-22 -37 -66 -49zM155 3h62v-3h-202v3h63v694h-63v3h140v-697z" />
    <glyph glyph-name="Ldot" unicode="&#x13f;" horiz-adv-x="534" 
d="M228 697h-63v-694h161q85 0 123 38q36 36 53 133h2v-174h-484v3h63v694h-63v3h208v-3zM308 335q22 0 35.5 -14t13.5 -37q0 -22 -14.5 -36.5t-34.5 -14.5q-21 0 -34.5 14t-13.5 36t14 37t34 15z" />
    <glyph glyph-name="ldot" unicode="&#x140;" horiz-adv-x="271" 
d="M155 3h62v-3h-202v3h63v694h-63v3h140v-697zM252 335q22 0 35.5 -14t13.5 -37q0 -22 -14.5 -36.5t-34.5 -14.5q-21 0 -34.5 14t-13.5 36t14 37t34 15z" />
    <glyph glyph-name="Lslash" unicode="&#x141;" horiz-adv-x="534" 
d="M502 174h2v-174h-484v3h63v345l-83 -58v6l83 58v343h-63v3h208v-3h-63v-285l122 85v-6l-122 -85v-403h161q85 0 123 38q36 36 53 133z" />
    <glyph glyph-name="lslash" unicode="&#x142;" horiz-adv-x="232" 
d="M232 483l-77 -60v-420h62v-3h-202v3h63v361l-78 -61v6l78 61v327h-63v3h140v-271l77 60v-6z" />
    <glyph glyph-name="Nacute" unicode="&#x143;" horiz-adv-x="643" 
d="M488 700h140v-3q-63 0 -63 -125v-572h-70l-408 690v-562q0 -63 19.5 -94t53.5 -31v-3h-140v3q63 0 63 125v569h-63v3h154l387 -663v535q0 63 -19.5 94t-53.5 31v3zM226 781l-1 3q43 20 102 51q59 32 79 41q8 2 10 2q9 0 9 -9q0 -7 -12 -12q-7 -3 -44.5 -17.5t-75.5 -30
t-67 -28.5z" />
    <glyph glyph-name="nacute" unicode="&#x144;" horiz-adv-x="532" 
d="M15 507h140v-96q16 44 58 75t97 31q71 0 108.5 -50t37.5 -140v-324h61v-3h-202v3h63v395q0 50 -26.5 77t-72.5 27q-55 0 -89 -43q-35 -43 -35 -96v-360h62v-3h-202v3h63v501h-63v3zM167 628l-1 3q44 19 102 51q59 32 79 41q8 2 10 2q9 0 9 -9q0 -8 -12 -12
q-7 -3 -44.5 -17.5t-75.5 -30t-67 -28.5z" />
    <glyph glyph-name="Ncommaaccent" unicode="&#x145;" horiz-adv-x="643" 
d="M488 700h140v-3q-63 0 -63 -125v-572h-70l-408 690v-562q0 -63 19.5 -94t53.5 -31v-3h-140v3q63 0 63 125v569h-63v3h154l387 -663v535q0 63 -19.5 94t-53.5 31v3zM272 -245v4q34 10 53 35.5t19 48.5q0 5 -4 5l-10 -4q-8 -4 -17 -4q-19 0 -32.5 13t-13.5 34q0 19 13 32.5
t33 13.5q23 0 36.5 -15.5t13.5 -39.5q0 -39 -25 -75t-66 -48z" />
    <glyph glyph-name="ncommaaccent" unicode="&#x146;" horiz-adv-x="532" 
d="M15 507h140v-96q16 44 58 75t97 31q71 0 108.5 -50t37.5 -140v-324h61v-3h-202v3h63v395q0 50 -26.5 77t-72.5 27q-55 0 -89 -43q-35 -43 -35 -96v-360h62v-3h-202v3h63v501h-63v3zM226 -245v4q34 10 53 35.5t19 48.5q0 5 -4 5l-10 -4q-8 -4 -17 -4q-19 0 -32.5 13
t-13.5 34q0 19 13 32.5t33 13.5q23 0 36.5 -15.5t13.5 -39.5q0 -39 -25 -75t-66 -48z" />
    <glyph glyph-name="Ncaron" unicode="&#x147;" horiz-adv-x="643" 
d="M488 700h140v-3q-63 0 -63 -125v-572h-70l-408 690v-562q0 -63 19.5 -94t53.5 -31v-3h-140v3q63 0 63 125v569h-63v3h154l387 -663v535q0 63 -19.5 94t-53.5 31v3zM325 806l119 88v-3q-27 -23 -64 -59t-45 -42q-4 -4 -10 -4q-5 0 -10 4q-9 7 -45 42.5t-64 58.5v3z" />
    <glyph glyph-name="ncaron" unicode="&#x148;" horiz-adv-x="532" 
d="M15 507h140v-96q16 44 58 75t97 31q71 0 108.5 -50t37.5 -140v-324h61v-3h-202v3h63v395q0 50 -26.5 77t-72.5 27q-55 0 -89 -43q-35 -43 -35 -96v-360h62v-3h-202v3h63v501h-63v3zM266 653l119 88v-3q-27 -23 -64 -59t-45 -42q-4 -4 -10 -4q-5 0 -10 4q-9 7 -45 42.5
t-64 58.5v3z" />
    <glyph glyph-name="Eng" unicode="&#x14a;" horiz-adv-x="643" 
d="M488 700h140v-3q-63 0 -63 -125v-540q0 -87 -34 -142q-35 -57 -94 -57q-40 0 -66.5 22.5t-26.5 60.5q0 27 16 45.5t38 18.5q23 0 36.5 -14t13.5 -36q0 -23 -14.5 -37t-35.5 -14q-6 0 -13.5 2t-12.5 4l-4 2q-5 0 -5 -5q0 -16 22.5 -31.5t51.5 -15.5q42 0 70.5 28.5
t28.5 72.5q0 42 -8.5 69.5t-32.5 64.5l-408 620v-562q0 -63 19.5 -94t53.5 -31v-3h-140v3q63 0 63 125v569h-63v3h154l387 -593v465q0 63 -19.5 94t-53.5 31v3z" />
    <glyph glyph-name="eng" unicode="&#x14b;" horiz-adv-x="532" 
d="M15 507h140v-96q16 44 58 75t97 31q71 0 108 -49.5t37 -140.5v-295q0 -82 -34 -140q-35 -59 -94 -59q-40 0 -66.5 22.5t-26.5 60.5q0 27 16 45.5t38 18.5q23 0 36.5 -14t13.5 -36q0 -23 -14.5 -37t-35.5 -14q-6 0 -13.5 2t-12.5 4l-4 2q-5 0 -5 -5q0 -16 22.5 -31.5
t51.5 -15.5q37 0 68 27t31 70q0 36 -24 122q-24 85 -24 170v174q0 50 -26.5 77t-72.5 27q-55 0 -89 -43q-35 -43 -35 -96v-360h62v-3h-202v3h63v501h-63v3z" />
    <glyph glyph-name="Omacron" unicode="&#x14c;" horiz-adv-x="704" 
d="M352 710q153 0 237 -99q85 -97 85 -257q0 -158 -91 -261q-90 -104 -231 -104q-152 0 -238 99q-84 99 -84 258q0 156 90 260q92 104 232 104zM352 706q-118 0 -175 -98q-56 -98 -56 -256q0 -152 59 -256q60 -103 172 -103q118 0 174 98q57 99 57 257q0 152 -60 255
q-58 103 -171 103zM203 822v3q37 0 87.5 2.5t59.5 2.5q6 0 58 -2.5t92 -2.5v-3q-40 0 -92 -2.5t-58 -2.5q-9 0 -59.5 2.5t-87.5 2.5z" />
    <glyph glyph-name="omacron" unicode="&#x14d;" horiz-adv-x="557" 
d="M281 518q99 0 165 -75t66 -185t-70 -189q-69 -78 -166 -78q-99 0 -165 75q-66 76 -66 186t69 188q71 78 167 78zM281 514q-75 0 -114 -71t-39 -186t38 -189q39 -73 110 -73q75 0 114 71q39 70 39 187q0 115 -39 188q-37 73 -109 73zM129 669v3q37 0 87.5 2.5t59.5 2.5
q6 0 58 -2.5t92 -2.5v-3q-40 0 -92 -2.5t-58 -2.5q-9 0 -59.5 2.5t-87.5 2.5z" />
    <glyph glyph-name="Ohungarumlaut" unicode="&#x150;" horiz-adv-x="704" 
d="M249 786l-2 2q37 26 90 69q53 44 71 55q3 2 9 4h2q8 0 9 -7v-1q0 -7 -10 -13l-66 -41q-53 -32 -103 -68zM288 753l-1 3q43 20 102 51q59 32 79 41q8 2 10 2q9 0 9 -9q0 -7 -12 -12q-7 -3 -44.5 -17.5t-75.5 -30t-67 -28.5zM352 710q153 0 237 -99q85 -97 85 -257
q0 -158 -91 -261q-90 -104 -231 -104q-152 0 -238 99q-84 99 -84 258q0 156 90 260q92 104 232 104zM352 706q-118 0 -175 -98q-56 -98 -56 -256q0 -152 59 -256q60 -103 172 -103q118 0 174 98q57 99 57 257q0 152 -60 255q-58 103 -171 103z" />
    <glyph glyph-name="ohungarumlaut" unicode="&#x151;" horiz-adv-x="557" 
d="M175 633l-2 2q37 25 90 69t71 55q3 2 9 4h2q8 0 9 -7v-1q0 -7 -10 -13l-66 -41q-53 -33 -103 -68zM214 600l-1 3q43 19 102 51t79 41q8 2 10 2q9 0 9 -9q0 -8 -12 -12q-7 -3 -44.5 -17.5t-75.5 -30t-67 -28.5zM281 518q99 0 165 -75t66 -185t-70 -189q-69 -78 -166 -78
q-99 0 -165 75q-66 76 -66 186t69 188q71 78 167 78zM281 514q-75 0 -114 -71t-39 -186t38 -189q39 -73 110 -73q75 0 114 71q39 70 39 187q0 115 -39 188q-37 73 -109 73z" />
    <glyph glyph-name="OE" unicode="&#x152;" horiz-adv-x="985" 
d="M925 174v-174h-449q-14 0 -66 -5q-45 -6 -58 -6q-152 0 -238 99q-84 99 -84 258q0 156 90 260q92 104 232 104q9 0 64 -5t69 -5h430v-174h-2q-17 97 -53 133q-38 38 -123 38h-286q106 -30 164.5 -121.5t58.5 -223.5h21q65 0 96 26.5t38 81.5h3v-219h-3q-7 55 -38 81.5
t-96 26.5h-21q-1 -126 -63 -221q-62 -94 -165 -125h301q85 0 123 38q36 36 53 133h2zM352 706q-118 0 -175 -98q-56 -98 -56 -256q0 -152 59 -256q60 -103 172 -103q118 0 174 98q57 99 57 257q0 152 -60 255q-58 103 -171 103z" />
    <glyph glyph-name="oe" unicode="&#x153;" horiz-adv-x="884" 
d="M826 121h4q-6 -59 -52.5 -95t-119.5 -36q-61 0 -110.5 31t-79.5 87q-31 -54 -82 -85.5t-110 -31.5q-99 0 -165 75q-66 76 -66 186t69 188q71 78 167 78q60 0 109.5 -30t79.5 -84q30 55 78 85.5t107 30.5q88 0 139.5 -61.5t48.5 -164.5h-330v-46q0 -100 44 -171
q45 -71 134 -71q54 0 91 31t44 84zM514 297h239q3 220 -98 220q-59 0 -97 -62q-37 -63 -44 -158zM281 514q-75 0 -114 -71t-39 -186t38 -189q39 -73 110 -73q75 0 114 71q39 70 39 187q0 115 -39 188q-37 73 -109 73z" />
    <glyph glyph-name="Racute" unicode="&#x154;" horiz-adv-x="610" 
d="M201 781l-1 3q44 20 102 51q59 32 79 41q8 2 10 2q9 0 9 -9q0 -7 -12 -12q-7 -3 -44.5 -17.5t-75.5 -30t-67 -28.5zM20 697v3h287q108 0 172 -48.5t64 -127.5q0 -72 -60 -123q-61 -50 -153 -59q92 -7 137.5 -63.5t45.5 -157.5q0 -48 8.5 -69t29.5 -21q16 0 26 14.5
t10 35.5v21h3v-21q0 -39 -19.5 -65t-56.5 -26q-44 0 -61.5 31.5t-17.5 99.5q0 105 -28 158q-31 61 -125 61h-117v-337h62v-3h-207v3h63v694h-63zM165 697v-354h116q87 0 131 47.5t44 130.5q0 80 -44.5 128t-126.5 48h-120z" />
    <glyph glyph-name="racute" unicode="&#x155;" horiz-adv-x="421" 
d="M373 515v-160h-3q-11 73 -33.5 102t-64.5 29q-46 0 -82 -51q-35 -50 -35 -126v-306h62v-3h-202v3h63v501h-63v3h140v-129q27 66 74 101q47 36 144 36zM112 628l-1 3q43 19 102 51t79 41q8 2 10 2q9 0 9 -9q0 -8 -12 -12q-7 -3 -44.5 -17.5t-75.5 -30t-67 -28.5z" />
    <glyph glyph-name="Rcommaaccent" unicode="&#x156;" horiz-adv-x="610" 
d="M20 697v3h287q108 0 172 -48.5t64 -127.5q0 -72 -60 -123q-61 -50 -153 -59q92 -7 137.5 -63.5t45.5 -157.5q0 -48 8.5 -69t29.5 -21q16 0 26 14.5t10 35.5v21h3v-21q0 -39 -19.5 -65t-56.5 -26q-44 0 -61.5 31.5t-17.5 99.5q0 105 -28 158q-31 61 -125 61h-117v-337h62
v-3h-207v3h63v694h-63zM165 697v-354h116q87 0 131 47.5t44 130.5q0 80 -44.5 128t-126.5 48h-120zM265 -245v4q34 10 53 35.5t19 48.5q0 5 -4 5l-9 -4q-9 -4 -18 -4q-19 0 -32.5 13t-13.5 34q0 19 13 32.5t33 13.5q23 0 36.5 -15.5t13.5 -39.5q0 -39 -25 -75t-66 -48z" />
    <glyph glyph-name="rcommaaccent" unicode="&#x157;" horiz-adv-x="421" 
d="M373 515v-160h-3q-11 73 -33.5 102t-64.5 29q-46 0 -82 -51q-35 -50 -35 -126v-306h62v-3h-202v3h63v501h-63v3h140v-129q27 66 74 101q47 36 144 36zM78 -245v4q34 10 53 35.5t19 48.5q0 5 -4 5l-10 -4q-8 -4 -17 -4q-19 0 -32.5 13t-13.5 34q0 19 13 32.5t33 13.5
q23 0 36.5 -15.5t13.5 -39.5q0 -39 -25 -75t-66 -48z" />
    <glyph glyph-name="Rcaron" unicode="&#x158;" horiz-adv-x="610" 
d="M300 806l119 88v-3q-27 -23 -64 -59t-45 -42q-4 -4 -10 -4q-5 0 -10 4q-9 7 -45 42.5t-64 58.5v3zM20 697v3h287q108 0 172 -48.5t64 -127.5q0 -72 -60 -123q-61 -50 -153 -59q92 -7 137.5 -63.5t45.5 -157.5q0 -48 8.5 -69t29.5 -21q16 0 26 14.5t10 35.5v21h3v-21
q0 -39 -19.5 -65t-56.5 -26q-44 0 -61.5 31.5t-17.5 99.5q0 105 -28 158q-31 61 -125 61h-117v-337h62v-3h-207v3h63v694h-63zM165 697v-354h116q87 0 131 47.5t44 130.5q0 80 -44.5 128t-126.5 48h-120z" />
    <glyph glyph-name="rcaron" unicode="&#x159;" horiz-adv-x="421" 
d="M373 515v-160h-3q-11 73 -33.5 102t-64.5 29q-46 0 -82 -51q-35 -50 -35 -126v-306h62v-3h-202v3h63v501h-63v3h140v-129q27 66 74 101q47 36 144 36zM211 653l119 88v-3q-27 -23 -64 -59t-45 -42q-4 -4 -10 -4q-5 0 -10 4q-9 7 -45 42.5t-64 58.5v3z" />
    <glyph glyph-name="Sacute" unicode="&#x15a;" horiz-adv-x="513" 
d="M464 710v-209h-3q-22 102 -69 153.5t-131 51.5q-71 0 -112.5 -40t-41.5 -102q0 -45 20.5 -77.5t54 -52t73.5 -35t80 -32t73.5 -37.5t54 -56.5t20.5 -83.5q0 -87 -64 -144q-64 -56 -155 -56q-61 0 -115 27t-80 27q-35 0 -35 -36h-4v209h4q17 -100 78 -161q62 -62 152 -62
q72 0 112 40t40 107q0 44 -20.5 76.5t-54 52t-73.5 35.5t-79.5 32.5t-73 37.5t-54 57t-20.5 84q0 88 60 141q61 53 160 53q49 0 96 -19q49 -18 69 -18q16 0 25.5 10t9.5 27h3zM166 781l-1 3q43 20 102 51q59 32 79 41q8 2 10 2q9 0 9 -9q0 -7 -12 -12q-7 -3 -44.5 -17.5
t-75.5 -30t-67 -28.5z" />
    <glyph glyph-name="sacute" unicode="&#x15b;" horiz-adv-x="442" 
d="M38 3v159h3q14 -75 64 -121.5t121 -46.5q54 0 85 29.5t31 77.5q0 78 -104 114q-8 3 -32 11.5t-34 12.5t-31 13t-31 16t-24.5 19t-21 24t-12 28t-5.5 35q0 66 48 105.5t129 39.5q37 0 77 -14q38 -13 55 -13q28 0 28 27h3v-159h-3q-18 76 -56 115.5t-104 39.5
q-53 0 -85 -29t-32 -74q0 -40 29 -69.5t75 -45.5q4 -1 28 -9.5t30.5 -11t27.5 -10.5t28.5 -13.5t23.5 -15t22.5 -19t15.5 -21.5t12 -26.5t3 -31.5q0 -63 -51 -107q-51 -42 -125 -42q-48 0 -93 20t-64 20q-28 0 -28 -27h-3zM122 628l-1 3q43 19 102 51t79 41q8 2 10 2
q9 0 9 -9q0 -8 -12 -12q-7 -3 -44.5 -17.5t-75.5 -30t-67 -28.5z" />
    <glyph glyph-name="Scedilla" unicode="&#x15e;" horiz-adv-x="513" 
d="M464 710v-209h-3q-22 102 -69 153.5t-131 51.5q-71 0 -112.5 -40t-41.5 -102q0 -45 20.5 -77.5t54 -52t73.5 -35t80 -32t73.5 -37.5t54 -56.5t20.5 -83.5q0 -87 -64 -144q-64 -56 -155 -56q-61 0 -115 27t-80 27q-35 0 -35 -36h-4v209h4q17 -100 78 -161q62 -62 152 -62
q72 0 112 40t40 107q0 44 -20.5 76.5t-54 52t-73.5 35.5t-79.5 32.5t-73 37.5t-54 57t-20.5 84q0 88 60 141q61 53 160 53q49 0 96 -19q49 -18 69 -18q16 0 25.5 10t9.5 27h3zM261 -10h3l-73 -68q21 15 63 15q40 0 64 -15t24 -43q0 -30 -27.5 -49.5t-68.5 -19.5
q-36 0 -59 15t-23 34q0 8 6 14.5t14 6.5q13 0 18 -9t0 -18.5t-16 -9.5q-6 0 -10 3l-2 1q-2 0 -2 -2q0 -5 7 -12t23 -13.5t35 -6.5q39 0 60 16.5t21 46.5q0 58 -74 58q-31 0 -48 -12l-5 -3h-6z" />
    <glyph glyph-name="scedilla" unicode="&#x15f;" horiz-adv-x="442" 
d="M38 3v159h3q14 -75 64 -121.5t121 -46.5q54 0 85 29.5t31 77.5q0 78 -104 114q-8 3 -32 11.5t-34 12.5t-31 13t-31 16t-24.5 19t-21 24t-12 28t-5.5 35q0 66 48 105.5t129 39.5q37 0 77 -14q38 -13 55 -13q28 0 28 27h3v-159h-3q-18 76 -56 115.5t-104 39.5
q-53 0 -85 -29t-32 -74q0 -40 29 -69.5t75 -45.5q4 -1 28 -9.5t30.5 -11t27.5 -10.5t28.5 -13.5t23.5 -15t22.5 -19t15.5 -21.5t12 -26.5t3 -31.5q0 -63 -51 -107q-51 -42 -125 -42q-48 0 -93 20t-64 20q-28 0 -28 -27h-3zM219 -10h3l-73 -68q21 15 63 15q40 0 64 -15
t24 -43q0 -30 -27.5 -49.5t-68.5 -19.5q-36 0 -59 15t-23 34q0 8 6 14.5t14 6.5q13 0 18 -9t0 -18.5t-16 -9.5q-6 0 -10 3l-2 1q-2 0 -2 -2q0 -5 7 -12t23 -13.5t35 -6.5q39 0 60 16.5t21 46.5q0 58 -74 58q-31 0 -48 -12l-5 -3h-6z" />
    <glyph glyph-name="Scaron" unicode="&#x160;" horiz-adv-x="513" 
d="M464 710v-209h-3q-22 102 -69 153.5t-131 51.5q-71 0 -112.5 -40t-41.5 -102q0 -45 20.5 -77.5t54 -52t73.5 -35t80 -32t73.5 -37.5t54 -56.5t20.5 -83.5q0 -87 -64 -144q-64 -56 -155 -56q-61 0 -115 27t-80 27q-35 0 -35 -36h-4v209h4q17 -100 78 -161q62 -62 152 -62
q72 0 112 40t40 107q0 44 -20.5 76.5t-54 52t-73.5 35.5t-79.5 32.5t-73 37.5t-54 57t-20.5 84q0 88 60 141q61 53 160 53q49 0 96 -19q49 -18 69 -18q16 0 25.5 10t9.5 27h3zM265 806l119 88v-3q-27 -23 -64 -59t-45 -42q-4 -4 -10 -4q-5 0 -10 4q-9 7 -45 42.5t-64 58.5v3
z" />
    <glyph glyph-name="scaron" unicode="&#x161;" horiz-adv-x="442" 
d="M38 3v159h3q14 -75 64 -121.5t121 -46.5q54 0 85 29.5t31 77.5q0 78 -104 114q-8 3 -32 11.5t-34 12.5t-31 13t-31 16t-24.5 19t-21 24t-12 28t-5.5 35q0 66 48 105.5t129 39.5q37 0 77 -14q38 -13 55 -13q28 0 28 27h3v-159h-3q-18 76 -56 115.5t-104 39.5
q-53 0 -85 -29t-32 -74q0 -40 29 -69.5t75 -45.5q4 -1 28 -9.5t30.5 -11t27.5 -10.5t28.5 -13.5t23.5 -15t22.5 -19t15.5 -21.5t12 -26.5t3 -31.5q0 -63 -51 -107q-51 -42 -125 -42q-48 0 -93 20t-64 20q-28 0 -28 -27h-3zM221 653l119 88v-3q-27 -23 -64 -59t-45 -42
q-4 -4 -10 -4q-5 0 -10 4q-9 7 -45 42.5t-64 58.5v3z" />
    <glyph glyph-name="Tcedilla" unicode="&#x162;" horiz-adv-x="604" 
d="M566 737h3v-209h-3q-7 92 -49.5 130.5t-135.5 38.5h-38v-694h62v-3h-102l-73 -68q21 15 63 15q40 0 64 -15t24 -43q0 -30 -27.5 -49.5t-68.5 -19.5q-36 0 -59 15t-23 34q0 8 6 14.5t14 6.5q13 0 18 -9t0 -18.5t-16 -9.5q-5 0 -11 3l-1 1q-2 0 -2 -2q0 -5 7 -12t23 -13.5
t35 -6.5q39 0 60 16.5t21 46.5q0 58 -74 58q-31 0 -48 -12l-5 -3h-6l76 71h-102v3h63v694h-38q-93 0 -135.5 -38.5t-49.5 -130.5h-3v209h3q0 -17 9.5 -27t25.5 -10h458q16 0 25.5 10t9.5 27z" />
    <glyph glyph-name="tcedilla" unicode="&#x163;" horiz-adv-x="326" 
d="M141 507h165v-3h-165v-372q0 -112 94 -112q29 0 51.5 18t26.5 46h3q-5 -37 -39 -65q-35 -29 -81 -29q-65 0 -98 39.5t-33 111.5v363h-65v3h65v104l76 38v-142zM192 -10h3l-73 -68q21 15 63 15q40 0 64 -15t24 -43q0 -30 -27.5 -49.5t-68.5 -19.5q-36 0 -59 15t-23 34
q0 8 6 14.5t14 6.5q13 0 18 -9t0 -18.5t-16 -9.5q-5 0 -11 3l-1 1q-2 0 -2 -2q0 -5 7 -12t23 -13.5t35 -6.5q39 0 60 16.5t21 46.5q0 58 -74 58q-31 0 -48 -12l-5 -3h-6z" />
    <glyph glyph-name="Tcaron" unicode="&#x164;" horiz-adv-x="604" 
d="M569 737v-209h-3q-7 92 -49.5 130.5t-135.5 38.5h-38v-694h62v-3h-207v3h63v694h-38q-93 0 -135.5 -38.5t-49.5 -130.5h-3v209h3q0 -17 9.5 -27t25.5 -10h458q16 0 25.5 10t9.5 27h3zM302 806l119 88v-3q-27 -23 -64 -59t-45 -42q-4 -4 -10 -4q-5 0 -10 4q-9 7 -45 42.5
t-64 58.5v3z" />
    <glyph glyph-name="tcaron" unicode="&#x165;" horiz-adv-x="326" 
d="M196 534v3q34 11 53.5 33t19.5 44q0 5 -5 5l-10 -4q-8 -4 -17 -4q-19 0 -32.5 13.5t-13.5 33.5q0 21 12.5 34t33.5 13q22 0 35.5 -15.5t13.5 -39.5q0 -38 -24 -71t-66 -45zM141 507h165v-3h-165v-372q0 -112 94 -112q29 0 51.5 18t26.5 46h3q-5 -37 -39 -65
q-35 -29 -81 -29q-65 0 -98 39.5t-33 111.5v363h-65v3h65v104l76 38v-142z" />
    <glyph glyph-name="Tbar" unicode="&#x166;" horiz-adv-x="604" 
d="M569 737v-209h-3q-7 92 -49.5 130.5t-135.5 38.5h-38v-694h62v-3h-207v3h63v694h-38q-93 0 -135.5 -38.5t-49.5 -130.5h-3v209h3q0 -17 9.5 -27t25.5 -10h458q16 0 25.5 10t9.5 27h3zM153 822v3q37 0 87.5 2.5t59.5 2.5q6 0 58 -2.5t92 -2.5v-3q-40 0 -92 -2.5t-58 -2.5
q-9 0 -59.5 2.5t-87.5 2.5z" />
    <glyph glyph-name="tbar" unicode="&#x167;" horiz-adv-x="326" 
d="M313 84h3q-5 -37 -39 -65q-35 -29 -81 -29q-65 0 -98 39.5t-33 111.5v183h-65v3h65v177h-65v3h65v104l76 38v-142h165v-3h-165v-177h164v-3h-164v-192q0 -112 94 -112q29 0 51.5 18t26.5 46z" />
    <glyph glyph-name="Umacron" unicode="&#x16a;" horiz-adv-x="671" 
d="M656 700v-3h-4q-80 0 -80 -110v-350q0 -108 -72 -177t-176 -69q-105 0 -173 67q-68 68 -68 170v469h-63v3h207v-3h-62v-464q0 -87 58 -141q59 -53 147 -53q89 0 143.5 53.5t54.5 145.5v349q0 110 -78 110h-4v3h170zM208 822v3q37 0 87.5 2.5t59.5 2.5q7 0 59 -2.5
t91 -2.5v-3q-39 0 -91 -2.5t-59 -2.5q-9 0 -59.5 2.5t-87.5 2.5z" />
    <glyph glyph-name="umacron" unicode="&#x16b;" horiz-adv-x="539" 
d="M306 507h138v-437q0 -22 12 -34.5t31 -12.5q18 0 30.5 13t13.5 34h3q-2 -31 -25.5 -55.5t-60.5 -24.5q-33 0 -54.5 27.5t-25.5 73.5q-16 -43 -58 -72t-97 -29q-71 0 -108.5 50t-37.5 140v324h-62v3h140v-398q0 -50 26.5 -77t72.5 -27q55 0 89 40q35 41 35 94v365h-62v3z
M113 669v3q37 0 87.5 2.5t59.5 2.5q6 0 58 -2.5t92 -2.5v-3q-40 0 -92 -2.5t-58 -2.5q-9 0 -59.5 2.5t-87.5 2.5z" />
    <glyph glyph-name="Uring" unicode="&#x16e;" horiz-adv-x="671" 
d="M656 700v-3h-4q-80 0 -80 -110v-350q0 -108 -72 -177t-176 -69q-105 0 -173 67q-68 68 -68 170v469h-63v3h207v-3h-62v-464q0 -87 58 -141q59 -53 147 -53q89 0 143.5 53.5t54.5 145.5v349q0 110 -78 110h-4v3h170zM290 901q27 28 66 28t66 -28q28 -27 28 -66t-28 -66
q-27 -27 -66 -27t-66 27t-27 66t27 66zM413 900q-20 26 -57 26t-57 -26t-20 -65t20 -65q19 -25 57 -25t57 25q21 26 21 65t-21 65z" />
    <glyph glyph-name="uring" unicode="&#x16f;" horiz-adv-x="539" 
d="M306 507h138v-437q0 -22 12 -34.5t31 -12.5q18 0 30.5 13t13.5 34h3q-2 -31 -25.5 -55.5t-60.5 -24.5q-33 0 -54.5 27.5t-25.5 73.5q-16 -43 -58 -72t-97 -29q-71 0 -108.5 50t-37.5 140v324h-62v3h140v-398q0 -50 26.5 -77t72.5 -27q55 0 89 40q35 41 35 94v365h-62v3z
M195 748q27 28 66 28t66 -28q28 -27 28 -66t-28 -66q-27 -27 -66 -27t-66 27t-27 66t27 66zM318 747q-20 26 -57 26t-57 -26t-20 -65t20 -65q19 -25 57 -25t57 25q21 26 21 65t-21 65z" />
    <glyph glyph-name="Uhungarumlaut" unicode="&#x170;" horiz-adv-x="671" 
d="M656 700v-3h-4q-80 0 -80 -110v-350q0 -108 -72 -177t-176 -69q-105 0 -173 67q-68 68 -68 170v469h-63v3h207v-3h-62v-464q0 -87 58 -141q59 -53 147 -53q89 0 143.5 53.5t54.5 145.5v349q0 110 -78 110h-4v3h170zM254 786l-2 2q38 26 90 69q53 44 71 55q3 2 9 4h2
q8 0 9 -7v-1q0 -7 -10 -13l-66 -41q-53 -32 -103 -68zM293 753l-1 3q44 20 102 51q59 32 79 41q8 2 10 2q9 0 9 -9q0 -7 -12 -12q-7 -3 -44.5 -17.5t-75.5 -30t-67 -28.5z" />
    <glyph glyph-name="uhungarumlaut" unicode="&#x171;" horiz-adv-x="539" 
d="M306 507h138v-437q0 -22 12 -34.5t31 -12.5q18 0 30.5 13t13.5 34h3q-2 -31 -25.5 -55.5t-60.5 -24.5q-33 0 -54.5 27.5t-25.5 73.5q-16 -43 -58 -72t-97 -29q-71 0 -108.5 50t-37.5 140v324h-62v3h140v-398q0 -50 26.5 -77t72.5 -27q55 0 89 40q35 41 35 94v365h-62v3z
M159 633l-2 2q37 25 90 69t71 55q3 2 9 4h2q8 0 9 -7v-1q0 -7 -10 -13l-66 -41q-53 -33 -103 -68zM198 600l-1 3q43 19 102 51t79 41q8 2 10 2q9 0 9 -9q0 -8 -12 -12q-7 -3 -44.5 -17.5t-75.5 -30t-67 -28.5z" />
    <glyph glyph-name="Uogonek" unicode="&#x172;" horiz-adv-x="671" 
d="M486 700h170v-3h-4q-80 0 -80 -110v-350q0 -87 -50 -152q-49 -64 -129 -85q-53 -29 -53 -81q0 -75 95 -75q23 0 41.5 7.5t26.5 16t8 14.5q0 3 -2 3l-2 -1q-4 -4 -12 -4q-13 0 -19 11t0.5 22t21.5 11q9 0 15.5 -8t6.5 -17q0 -22 -26.5 -40t-68.5 -18q-48 0 -77.5 20.5
t-29.5 56.5q0 48 51 77q-17 -4 -45 -4q-105 0 -173 67q-68 68 -68 170v469h-63v3h207v-3h-62v-464q0 -87 58 -141q59 -53 147 -53q89 0 143.5 53.5t54.5 145.5v349q0 110 -78 110h-4v3z" />
    <glyph glyph-name="uogonek" unicode="&#x173;" horiz-adv-x="539" 
d="M492 2l1 -2l-7 -2l-18 -6q-66 -27 -66 -87q0 -75 95 -75q23 0 41.5 7.5t26.5 16t8 14.5q0 3 -2 3l-2 -1q-4 -4 -12 -4q-13 0 -19 11t0.5 22t21.5 11q9 0 15.5 -8t6.5 -17q0 -22 -26.5 -40t-68.5 -18q-48 0 -77.5 20.5t-29.5 56.5q0 59 71 86h-3q-33 0 -54.5 27.5
t-25.5 73.5q-16 -43 -58 -72t-97 -29q-71 0 -108.5 50t-37.5 140v324h-62v3h140v-398q0 -50 26.5 -77t72.5 -27q55 0 89 40q35 41 35 94v365h-62v3h138v-437q0 -22 12 -34.5t31 -12.5q18 0 30.5 13t13.5 34h3q-2 -42 -42 -68z" />
    <glyph glyph-name="Wcircumflex" unicode="&#x174;" horiz-adv-x="930" 
d="M755 700h170v-3q-68 0 -98 -110l-164 -587h-37l-162 550l-165 -550h-37l-201 697h-56v3h208v-3h-66l173 -612l142 473l-41 139h-56v3h203v-3h-66l180 -614l141 505q8 30 8 49q0 60 -76 60v3zM467 867l-118 -89l-1 4q28 23 64 58.5t45 42.5q4 4 10 4q7 0 10 -4
q8 -6 45 -42t64 -59l-1 -4z" />
    <glyph glyph-name="wcircumflex" unicode="&#x175;" horiz-adv-x="752" 
d="M582 507h170v-3q-34 0 -55.5 -27t-40.5 -83l-125 -394h-37l-115 356l-121 -356h-37l-165 504h-56v3h202v-3h-66l140 -439l101 298l-45 141h-56v3h198v-3h-66l140 -436l104 327q10 23 10 48q0 61 -80 61v3zM378 714l-118 -89l-1 4q28 23 64 58.5t45 42.5q4 4 10 4
q7 0 10 -4q8 -6 45 -42t64 -59l-1 -4z" />
    <glyph glyph-name="Ycircumflex" unicode="&#x176;" horiz-adv-x="649" 
d="M479 700h170v-3q-34 0 -64.5 -26t-71.5 -84l-155 -234v-350h62v-3h-207v3h63v339l-224 355h-52v3h213v-3h-67l212 -338l151 229q31 46 31 72q0 37 -61 37v3zM331 867l-118 -89l-1 4q28 23 64 58.5t45 42.5q4 4 10 4q7 0 10 -4q8 -6 45 -42t64 -59l-1 -4z" />
    <glyph glyph-name="ycircumflex" unicode="&#x177;" horiz-adv-x="533" 
d="M363 507h170v-3q-26 0 -46 -19q-19 -16 -28.5 -33.5t-26.5 -57.5l-142 -386q-31 -85 -62 -119.5t-76 -34.5q-46 0 -71 27.5t-25 73.5q0 27 16 45.5t38 18.5q23 0 36.5 -14t13.5 -36q0 -23 -14.5 -37t-35.5 -14q-6 0 -13.5 2t-12.5 4l-4 2q-5 0 -5 -5q0 -24 20.5 -44
t56.5 -20q44 0 74 34.5t60 116.5l5 13l-235 483h-56v3h204v-3h-69l190 -389l103 280q11 31 11 52q0 57 -76 57v3zM280 714l-118 -89l-1 4q28 23 64 58.5t45 42.5q4 4 10 4q7 0 10 -4q8 -6 45 -42t64 -59l-1 -4z" />
    <glyph glyph-name="Ydieresis" unicode="&#x178;" horiz-adv-x="649" 
d="M251 858q22 0 35.5 -14t13.5 -37q0 -22 -14.5 -36.5t-34.5 -14.5q-21 0 -34.5 14t-13.5 36t14 37t34 15zM410 858q22 0 35.5 -14t13.5 -37q0 -22 -14.5 -36.5t-34.5 -14.5q-21 0 -34.5 14t-13.5 36t14 37t34 15zM479 700h170v-3q-34 0 -64.5 -26t-71.5 -84l-155 -234
v-350h62v-3h-207v3h63v339l-224 355h-52v3h213v-3h-67l212 -338l151 229q31 46 31 72q0 37 -61 37v3z" />
    <glyph glyph-name="Zacute" unicode="&#x179;" horiz-adv-x="608" 
d="M557 700l-424 -697h247q85 0 123 38q36 36 53 133h2v-174h-518l424 697h-224q-85 0 -123 -38q-36 -36 -53 -133h-2v174h495zM206 781l-1 3q43 20 102 51q59 32 79 41q8 2 10 2q9 0 9 -9q0 -7 -12 -12q-7 -3 -44.5 -17.5t-75.5 -30t-67 -28.5z" />
    <glyph glyph-name="zacute" unicode="&#x17a;" horiz-adv-x="486" 
d="M442 507l-326 -504h170q71 0 106 36t51 112h3v-151h-416l327 504h-145q-71 0 -106 -36t-51 -112h-3v151h390zM149 628l-1 3q44 19 102 51q59 32 79 41q8 2 10 2q9 0 9 -9q0 -8 -12 -12q-7 -3 -44.5 -17.5t-75.5 -30t-67 -28.5z" />
    <glyph glyph-name="Zdotaccent" unicode="&#x17b;" horiz-adv-x="608" 
d="M557 700l-424 -697h247q85 0 123 38q36 36 53 133h2v-174h-518l424 697h-224q-85 0 -123 -38q-36 -36 -53 -133h-2v174h495zM304 858q22 0 35.5 -14t13.5 -37q0 -22 -14.5 -36.5t-34.5 -14.5q-21 0 -34.5 14t-13.5 36t14 37t34 15z" />
    <glyph glyph-name="zdotaccent" unicode="&#x17c;" horiz-adv-x="486" 
d="M442 507l-326 -504h170q71 0 106 36t51 112h3v-151h-416l327 504h-145q-71 0 -106 -36t-51 -112h-3v151h390zM247 705q22 0 35.5 -14t13.5 -37q0 -22 -14.5 -36.5t-34.5 -14.5q-21 0 -34.5 14t-13.5 36t14 37t34 15z" />
    <glyph glyph-name="Zcaron" unicode="&#x17d;" horiz-adv-x="608" 
d="M557 700l-424 -697h247q85 0 123 38q36 36 53 133h2v-174h-518l424 697h-224q-85 0 -123 -38q-36 -36 -53 -133h-2v174h495zM305 806l119 88v-3q-27 -23 -64 -59t-45 -42q-4 -4 -10 -4q-5 0 -10 4q-9 7 -45 42.5t-64 58.5v3z" />
    <glyph glyph-name="zcaron" unicode="&#x17e;" horiz-adv-x="486" 
d="M442 507l-326 -504h170q71 0 106 36t51 112h3v-151h-416l327 504h-145q-71 0 -106 -36t-51 -112h-3v151h390zM248 653l119 88v-3q-27 -23 -64 -59t-45 -42q-4 -4 -10 -4q-5 0 -10 4q-9 7 -45 42.5t-64 58.5v3z" />
    <glyph glyph-name="florin" unicode="&#x192;" horiz-adv-x="287" 
d="M15 507h63v24q0 88 35 138.5t97 50.5q51 0 79 -28.5t28 -74.5q0 -26 -15.5 -44t-37.5 -18q-23 0 -37 14t-14 35q0 24 14.5 38t35.5 14q6 0 13.5 -2t11.5 -4l5 -2q5 0 5 5q0 24 -23.5 44.5t-64.5 20.5q-45 0 -73.5 -29.5t-28.5 -76.5q0 -36 20 -105h140v-3h-139
q26 -84 26 -171v-301q0 -82 -34 -140q-35 -59 -94 -59q-40 0 -66.5 22.5t-26.5 60.5q0 27 16 45.5t38 18.5q23 0 36.5 -14t13.5 -36q0 -23 -14.5 -37t-35.5 -14q-6 0 -13.5 2t-12.5 4l-4 2q-5 0 -5 -5q0 -16 22.5 -31.5t51.5 -15.5q37 0 68 27t31 70q0 36 -24 122t-24 170
v280h-63v3z" />
    <glyph glyph-name="Scommaaccent" unicode="&#x218;" horiz-adv-x="513" 
d="M464 710v-209h-3q-22 102 -69 153.5t-131 51.5q-71 0 -112.5 -40t-41.5 -102q0 -45 20.5 -77.5t54 -52t73.5 -35t80 -32t73.5 -37.5t54 -56.5t20.5 -83.5q0 -87 -64 -144q-64 -56 -155 -56q-61 0 -115 27t-80 27q-35 0 -35 -36h-4v209h4q17 -100 78 -161q62 -62 152 -62
q72 0 112 40t40 107q0 44 -20.5 76.5t-54 52t-73.5 35.5t-79.5 32.5t-73 37.5t-54 57t-20.5 84q0 88 60 141q61 53 160 53q49 0 96 -19q49 -18 69 -18q16 0 25.5 10t9.5 27h3zM225 -245v4q34 10 53 35.5t19 48.5q0 5 -4 5l-9 -4q-9 -4 -18 -4q-19 0 -32.5 13t-13.5 34
q0 19 13 32.5t33 13.5q23 0 36.5 -15.5t13.5 -39.5q0 -39 -25 -75t-66 -48z" />
    <glyph glyph-name="scommaaccent" unicode="&#x219;" horiz-adv-x="442" 
d="M38 3v159h3q14 -75 64 -121.5t121 -46.5q54 0 85 29.5t31 77.5q0 78 -104 114q-8 3 -32 11.5t-34 12.5t-31 13t-31 16t-24.5 19t-21 24t-12 28t-5.5 35q0 66 48 105.5t129 39.5q37 0 77 -14q38 -13 55 -13q28 0 28 27h3v-159h-3q-18 76 -56 115.5t-104 39.5
q-53 0 -85 -29t-32 -74q0 -40 29 -69.5t75 -45.5q4 -1 28 -9.5t30.5 -11t27.5 -10.5t28.5 -13.5t23.5 -15t22.5 -19t15.5 -21.5t12 -26.5t3 -31.5q0 -63 -51 -107q-51 -42 -125 -42q-48 0 -93 20t-64 20q-28 0 -28 -27h-3zM183 -245v4q34 10 53 35.5t19 48.5q0 5 -4 5l-9 -4
q-9 -4 -18 -4q-19 0 -32.5 13t-13.5 34q0 19 13 32.5t33 13.5q23 0 36.5 -15.5t13.5 -39.5q0 -39 -25 -75t-66 -48z" />
    <glyph glyph-name="uni021A" unicode="&#x21a;" horiz-adv-x="604" 
d="M569 737v-209h-3q-7 92 -49.5 130.5t-135.5 38.5h-38v-694h62v-3h-207v3h63v694h-38q-93 0 -135.5 -38.5t-49.5 -130.5h-3v209h3q0 -17 9.5 -27t25.5 -10h458q16 0 25.5 10t9.5 27h3zM264 -235v4q34 10 53 35.5t19 48.5q0 5 -4 5l-10 -4q-8 -4 -17 -4q-19 0 -32.5 13
t-13.5 34q0 19 13 32.5t33 13.5q23 0 36.5 -15.5t13.5 -39.5q0 -39 -25 -75t-66 -48z" />
    <glyph glyph-name="uni021B" unicode="&#x21b;" horiz-adv-x="326" 
d="M141 507h165v-3h-165v-372q0 -112 94 -112q29 0 51.5 18t26.5 46h3q-5 -37 -39 -65q-35 -29 -81 -29q-65 0 -98 39.5t-33 111.5v363h-65v3h65v104l76 38v-142zM156 -245v4q34 10 53 35.5t19 48.5q0 5 -4 5l-10 -4q-8 -4 -17 -4q-19 0 -32.5 13t-13.5 34q0 19 13 32.5
t33 13.5q23 0 36.5 -15.5t13.5 -39.5q0 -39 -25 -75t-66 -48z" />
    <glyph glyph-name="dotlessj" unicode="&#x237;" horiz-adv-x="216" 
d="M8 507h140v-475q0 -82 -34 -140q-35 -59 -94 -59q-40 0 -66.5 22.5t-26.5 60.5q0 27 16 45.5t38 18.5q23 0 36.5 -14t13.5 -36q0 -23 -14.5 -37t-35.5 -14q-6 0 -13.5 2t-11.5 4l-5 2q-5 0 -5 -5q0 -16 22.5 -31.5t51.5 -15.5q37 0 68 27t31 70q0 36 -24 122t-24 170v280
h-63v3z" />
    <glyph glyph-name="circumflex" unicode="&#x2c6;" 
d="M250 714l-118 -89l-1 4q28 23 64 58.5t45 42.5q4 4 10 4q7 0 10 -4q8 -6 45 -42t64 -59l-1 -4z" />
    <glyph glyph-name="caron" unicode="&#x2c7;" 
d="M250 653l119 88v-3q-27 -23 -64 -59t-45 -42q-4 -4 -10 -4q-5 0 -10 4q-9 7 -45 42.5t-64 58.5v3z" />
    <glyph glyph-name="breve" unicode="&#x2d8;" 
d="M403 729h3q-42 -99 -156 -99t-156 99h3q37 -85 153 -85t153 85z" />
    <glyph glyph-name="dotaccent" unicode="&#x2d9;" 
d="M249 705q22 0 35.5 -14t13.5 -37q0 -22 -14.5 -36.5t-34.5 -14.5q-21 0 -34.5 14t-13.5 36t14 37t34 15z" />
    <glyph glyph-name="ring" unicode="&#x2da;" 
d="M181 748q27 28 66 28t66 -28q28 -27 28 -66t-28 -66q-27 -27 -66 -27t-66 27t-27 66t27 66zM304 747q-20 26 -57 26t-57 -26t-20 -65t20 -65q19 -25 57 -25t57 25q21 26 21 65t-21 65z" />
    <glyph glyph-name="ogonek" unicode="&#x2db;" 
d="M250 0l8 2l1 -2q-12 -2 -32 -11q-59 -27 -59 -84q0 -75 95 -75q23 0 41.5 7.5t26.5 16t8 14.5q0 3 -2 3l-2 -1q-4 -4 -12 -4q-13 0 -19 11t0.5 22t21.5 11q9 0 15.5 -8t6.5 -17q0 -22 -26.5 -40t-68.5 -18q-48 0 -77.5 20.5t-29.5 56.5q0 67 94 94z" />
    <glyph glyph-name="tilde" unicode="&#x2dc;" 
d="M78 649h-3q18 42 40.5 60.5t57.5 18.5q32 0 77 -36q46 -35 85 -35q59 0 87 64h3q-18 -42 -40.5 -60.5t-57.5 -18.5q-29 0 -52.5 11t-37.5 24.5t-33 24.5t-39 11q-59 0 -87 -64z" />
    <glyph glyph-name="hungarumlaut" unicode="&#x2dd;" 
d="M155 633l-2 2q37 25 90 69t71 55q3 2 9 4h2q8 0 9 -7v-1q0 -7 -10 -13l-66 -41q-53 -33 -103 -68zM194 600l-1 3q43 19 102 51t79 41q8 2 10 2q9 0 9 -9q0 -8 -12 -12q-7 -3 -44.5 -17.5t-75.5 -30t-67 -28.5z" />
    <glyph glyph-name="commaaccentcomb" unicode="&#x326;" horiz-adv-x="0" 
d="M206 -245v4q34 10 53 35.5t19 48.5q0 5 -4 5l-10 -4q-8 -4 -17 -4q-19 0 -32.5 13t-13.5 34q0 19 13 32.5t33 13.5q23 0 36.5 -15.5t13.5 -39.5q0 -39 -25 -75t-66 -48z" />
    <glyph glyph-name="increment" unicode="&#x394;" horiz-adv-x="675" 
d="M347 700l274 -700h-565l254 700h37zM531 3l-243 625l-188 -516q-10 -27 -10 -47q0 -60 68 -62h373z" />
    <glyph glyph-name="Omega" unicode="&#x3a9;" horiz-adv-x="704" 
d="M71 0l-51 144h3q34 -88 201 -88q-77 43 -136 123q-58 79 -58 184q0 147 90 247q91 100 232 100q152 0 237 -97q85 -95 85 -244q0 -105 -58 -187q-59 -83 -134 -126q165 0 199 88h3l-51 -144h-241v4l11 3q37 16 64 39q49 38 82.5 115t33.5 197q0 147 -60 248
q-58 100 -171 100q-118 0 -175 -95q-56 -95 -56 -249q0 -169 75 -271q25 -35 55.5 -56.5t50.5 -26.5l10 -4v-4h-241z" />
    <glyph glyph-name="mu" unicode="&#x3bc;" horiz-adv-x="539" 
d="M306 507h138v-437q0 -22 12 -34.5t31 -12.5q18 0 30.5 13t13.5 34h3q-2 -31 -25.5 -55.5t-60.5 -24.5q-33 0 -54.5 27.5t-25.5 73.5q-16 -43 -55.5 -71t-94.5 -28q-41 0 -65 15l-8 5v-155h62v-3h-202v3h63v647h-63v3h140v-398q0 -50 26.5 -77t72.5 -27q55 0 89 40
q35 41 35 94v365h-62v3z" />
    <glyph glyph-name="pi" unicode="&#x3c0;" horiz-adv-x="482" 
d="M467 507v-3h-63v-501h63v-3h-202v3h62v501h-172v-501h62v-3h-202v3h63v501h-63v3h452z" />
    <glyph glyph-name="uni0401" unicode="&#x401;" horiz-adv-x="564" 
d="M198 858q22 0 35.5 -14t13.5 -37q0 -22 -14.5 -36.5t-34.5 -14.5q-21 0 -34.5 14t-13.5 36t14 37t34 15zM357 858q22 0 35.5 -14t13.5 -37q0 -22 -14.5 -36.5t-34.5 -14.5q-21 0 -34.5 14t-13.5 36t14 37t34 15zM494 700v-174h-2q-17 97 -53 133q-38 38 -123 38h-151
v-345h96q65 0 96 26.5t38 81.5h3v-219h-3q-7 55 -38 81.5t-96 26.5h-96v-346h161q85 0 123 38q36 36 53 133h2v-174h-484v3h63v694h-63v3h474z" />
    <glyph glyph-name="uni0402" unicode="&#x402;" horiz-adv-x="734" 
d="M530 737v-209h-3q-7 92 -49.5 130.5t-135.5 38.5h-19v-360q20 49 64.5 81.5t102.5 32.5q83 0 128.5 -57t45.5 -154v-208q0 -82 -37 -140q-36 -59 -97 -59q-40 0 -66.5 22.5t-26.5 60.5q0 27 16 45.5t38 18.5q23 0 36.5 -14t13.5 -36q0 -23 -14.5 -37t-35.5 -14
q-6 0 -13.5 2t-11.5 4l-5 2q-5 0 -5 -5q0 -16 22.5 -31.5t51.5 -15.5q36 0 68 27q31 27 31 70q0 36 -24 122q-24 85 -24 170v93q0 54 -34 86t-88 32q-61 0 -98 -46q-38 -47 -38 -104v-282h62v-3h-207v3h63v694h-18q-93 0 -135.5 -38.5t-49.5 -130.5h-3v209h3q0 -17 9.5 -27
t25.5 -10h419q16 0 25.5 10t9.5 27h3z" />
    <glyph glyph-name="uni0403" unicode="&#x403;" horiz-adv-x="461" 
d="M426 737v-209h-3q-7 92 -49.5 130.5t-135.5 38.5h-73v-694h62v-3h-207v3h63v694h-63v3h368q16 0 25.5 10t9.5 27h3zM150 781l-1 3q43 20 102 51q59 32 79 41q8 2 10 2q9 0 9 -9q0 -7 -12 -12q-7 -3 -44.5 -17.5t-75.5 -30t-67 -28.5z" />
    <glyph glyph-name="uni0404" unicode="&#x404;" horiz-adv-x="581" 
d="M542 167h4q-9 -82 -67.5 -129.5t-156.5 -47.5q-128 0 -210 103t-82 253q0 157 88 260q89 104 225 104q49 0 93 -19q46 -18 66 -18q16 0 25.5 10t9.5 27h3v-209h-3q-22 105 -66 155t-128 50q-112 0 -168 -98q-54 -98 -54 -256v-3h292v-3h-292q1 -148 68 -243
q68 -95 175 -95q72 0 120.5 42.5t57.5 116.5z" />
    <glyph glyph-name="uni0405" unicode="&#x405;" horiz-adv-x="513" 
d="M464 710v-209h-3q-22 102 -69 153.5t-131 51.5q-71 0 -112.5 -40t-41.5 -102q0 -45 20.5 -77.5t54 -52t73.5 -35t80 -32t73.5 -37.5t54 -56.5t20.5 -83.5q0 -87 -64 -144q-64 -56 -155 -56q-61 0 -115 27t-80 27q-35 0 -35 -36h-4v209h4q17 -100 78 -161q62 -62 152 -62
q72 0 112 40t40 107q0 44 -20.5 76.5t-54 52t-73.5 35.5t-79.5 32.5t-73 37.5t-54 57t-20.5 84q0 88 60 141q61 53 160 53q49 0 96 -19q49 -18 69 -18q16 0 25.5 10t9.5 27h3z" />
    <glyph glyph-name="uni0406" unicode="&#x406;" horiz-adv-x="247" 
d="M227 697h-62v-694h62v-3h-207v3h63v694h-63v3h207v-3z" />
    <glyph glyph-name="uni0407" unicode="&#x407;" horiz-adv-x="247" 
d="M44 858q22 0 35.5 -14t13.5 -37q0 -22 -14.5 -36.5t-34.5 -14.5q-21 0 -34.5 14t-13.5 36t14 37t34 15zM203 858q22 0 35.5 -14t13.5 -37q0 -22 -14.5 -36.5t-34.5 -14.5q-21 0 -34.5 14t-13.5 36t14 37t34 15zM227 697h-62v-694h62v-3h-207v3h63v694h-63v3h207v-3z" />
    <glyph glyph-name="uni0408" unicode="&#x408;" horiz-adv-x="333" 
d="M313 697h-62v-499q0 -96 -30.5 -151t-93.5 -55q-49 0 -78 30t-29 77q0 29 16.5 48.5t40.5 19.5t38.5 -14.5t14.5 -38.5t-15.5 -39t-37.5 -15q-12 0 -21 4l-11 4q-5 0 -5 -5q0 -24 24.5 -46.5t62.5 -22.5q42 0 67.5 26t25.5 72q0 38 -26 125q-25 85 -25 176v304h-63v3h207
v-3z" />
    <glyph glyph-name="uni0409" unicode="&#x409;" horiz-adv-x="977" 
d="M643 700v-3h-64v-345h125q121 0 187 -46.5t66 -125.5t-72 -130q-71 -50 -178 -50h-273v3h63v694h-254v-393q0 -151 -45 -229.5t-121 -78.5q-28 0 -47.5 18t-19.5 43q0 28 16 44.5t42 16.5t41 -16t15 -40q0 -7 -2 -16t-4 -15l-3 -6q0 -8 7 -8q34 0 72 60q45 68 45 227v268
q0 59 -22 92t-54 33h-13v3h493zM699 349h-120v-346h116q87 0 131 46t44 128q0 79 -44 125.5t-127 46.5z" />
    <glyph glyph-name="uni040A" unicode="&#x40a;" horiz-adv-x="987" 
d="M653 700v-3h-64v-345h125q121 0 187 -46.5t66 -125.5t-72 -130q-71 -50 -178 -50h-273v3h63v343h-342v-343h62v-3h-207v3h63v694h-63v3h207v-3h-62v-348h342v348h-63v3h209zM709 349h-120v-346h116q87 0 131 46t44 128q0 79 -44 125.5t-127 46.5z" />
    <glyph glyph-name="uni040B" unicode="&#x40b;" horiz-adv-x="744" 
d="M530 737v-209h-3q-7 92 -49.5 130.5t-135.5 38.5h-19v-360q20 49 64.5 81.5t102.5 32.5q83 0 128.5 -57t45.5 -154v-237h65v-3h-212v3h64v314q0 54 -33.5 86t-88.5 32q-61 0 -98 -46q-38 -47 -38 -104v-282h62v-3h-207v3h63v694h-18q-93 0 -135.5 -38.5t-49.5 -130.5h-3
v209h3q0 -17 9.5 -27t25.5 -10h419q16 0 25.5 10t9.5 27h3z" />
    <glyph glyph-name="uni040C" unicode="&#x40c;" horiz-adv-x="625" 
d="M165 697v-329h27q51 0 93 18.5t68.5 50t43 65t25.5 71.5q16 70 40 102t62 32q27 0 42.5 -15t15.5 -40t-15.5 -40.5t-38.5 -15.5q-10 0 -33.5 9t-29.5 9q-26 0 -39 -46q-23 -83 -72.5 -136t-122.5 -64q105 -3 169 -73q67 -71 92 -174q12 -49 25 -69.5t34 -20.5
q16 0 26 14.5t10 35.5v21h3v-21q0 -39 -19.5 -65t-56.5 -26q-84 0 -109 131q-23 110 -57 170q-41 74 -133 74h-50v-362h62v-3h-207v3h63v694h-63v3h207v-3h-62zM215 781l-1 3q44 20 102 51q59 32 79 41q8 2 10 2q9 0 9 -9q0 -7 -12 -12q-7 -3 -44.5 -17.5t-75.5 -30
t-67 -28.5z" />
    <glyph glyph-name="uni040E" unicode="&#x40e;" horiz-adv-x="617" 
d="M617 700v-3h-4q-55 0 -114 -120l-203 -419q-45 -94 -78 -132q-31 -37 -80 -37q-50 0 -77.5 30t-27.5 79q0 29 17.5 49.5t41.5 20.5q26 0 40.5 -15t14.5 -40t-16 -40.5t-39 -15.5q-6 0 -14 2.5t-13 4.5l-5 2q-6 0 -6 -5q0 -26 22.5 -47t61.5 -21q47 0 77 36q30 34 77 130
l34 69l-274 469h-52v3h213v-3h-67l219 -387l130 268q19 39 19 67q0 52 -60 52h-7v3h170zM486 882h3q-42 -99 -156 -99t-156 99h3q37 -85 153 -85t153 85z" />
    <glyph glyph-name="uni040F" unicode="&#x40f;" horiz-adv-x="655" 
d="M635 700v-3h-62v-694h61v-3h-181q-63 0 -91 -36t-33 -126h-2q-5 90 -33 126t-91 36h-183v3h63v694h-63v3h207v-3h-62v-694h326v694h-63v3h207z" />
    <glyph glyph-name="uni0410" unicode="&#x410;" horiz-adv-x="675" 
d="M619 3h56v-3h-210v3h66l-116 297h-247l-68 -188q-10 -27 -10 -47q0 -62 73 -62h7v-3h-170v3h4q31 0 51.5 26.5t40.5 83.5l214 587h37zM169 303h245l-126 325z" />
    <glyph glyph-name="uni0411" unicode="&#x411;" horiz-adv-x="563" 
d="M489 737v-209h-3q-7 92 -49.5 130.5t-135.5 38.5h-136v-345h131q118 0 182.5 -46.5t64.5 -125.5t-72 -130q-71 -50 -178 -50h-273v3h63v694h-63v3h431q16 0 25.5 10t9.5 27h3zM285 349h-120v-346h116q87 0 131 46t44 128q0 79 -44 125.5t-127 46.5z" />
    <glyph glyph-name="uni0412" unicode="&#x412;" horiz-adv-x="563" 
d="M20 697v3h269q104 0 162 -46.5t58 -127.5q0 -69 -51.5 -116t-136.5 -58q102 -3 162 -49.5t60 -122.5q0 -79 -72 -130q-71 -50 -178 -50h-273v3h63v694h-63zM165 697v-345h98q159 0 159 171q0 82 -38.5 128t-116.5 46h-102zM165 349v-346h116q87 0 131 46t44 128
q0 79 -44 125.5t-127 46.5h-120z" />
    <glyph glyph-name="uni0413" unicode="&#x413;" horiz-adv-x="461" 
d="M426 737v-209h-3q-7 92 -49.5 130.5t-135.5 38.5h-73v-694h62v-3h-207v3h63v694h-63v3h368q16 0 25.5 10t9.5 27h3z" />
    <glyph glyph-name="uni0414" unicode="&#x414;" horiz-adv-x="633" 
d="M613 700v-3h-62v-694h62v-165h-3q-7 91 -49 127q-43 35 -136 35h-227q-93 0 -136 -35q-42 -36 -49 -127h-3v165h39q73 0 117.5 76.5t44.5 224.5v268q0 59 -22 92t-54 33h-13v3h491zM469 697h-254v-393q0 -133 -36 -209t-98 -92h388v694z" />
    <glyph glyph-name="uni0415" unicode="&#x415;" horiz-adv-x="564" 
d="M494 700v-174h-2q-17 97 -53 133q-38 38 -123 38h-151v-345h96q65 0 96 26.5t38 81.5h3v-219h-3q-7 55 -38 81.5t-96 26.5h-96v-346h161q85 0 123 38q36 36 53 133h2v-174h-484v3h63v694h-63v3h474z" />
    <glyph glyph-name="uni0416" unicode="&#x416;" horiz-adv-x="812" 
d="M799 102h3v-21q0 -39 -19.5 -65t-56.5 -26q-84 0 -109 131q-27 126 -41 158q-42 83 -129 86v-362h63v-3h-207v3h62v362q-67 0 -104 -42q-14 -16 -28 -50q-15 -40 -34 -131q0 -7 -4 -21q-25 -131 -109 -131q-37 0 -56.5 26t-19.5 65v21h3v-21q0 -21 10 -35.5t26 -14.5
q21 0 34 20.5t25 69.5q60 243 241 247q-69 11 -109.5 60.5t-65.5 139.5q-13 46 -39 46q-6 0 -29.5 -9t-33.5 -9q-23 0 -38.5 15.5t-15.5 40.5t15.5 40t42.5 15q38 0 62 -32t40 -102q18 -75 53 -129q46 -68 134 -75v328h-62v3h207v-3h-63v-328q88 7 134 75q35 54 53 129
q16 70 40 102t62 32q27 0 42.5 -15t15.5 -40t-15.5 -40.5t-38.5 -15.5q-10 0 -33.5 9t-29.5 9q-26 0 -39 -46q-25 -90 -65.5 -139.5t-109.5 -60.5q181 -4 241 -247q12 -49 25 -69.5t34 -20.5q16 0 26 14.5t10 35.5v21z" />
    <glyph glyph-name="uni0417" unicode="&#x417;" horiz-adv-x="529" 
d="M75 549v159h3q0 -27 28 -27q17 0 62 13q48 14 85 14q102 0 160.5 -44t58.5 -126q0 -70 -56 -120q-57 -51 -142 -61q102 -5 161 -50.5t59 -119.5q0 -86 -68 -143q-68 -56 -179 -56q-97 0 -149 42t-52 94q0 25 14.5 42.5t36.5 17.5q23 0 38 -15t15 -36q0 -23 -14.5 -37
t-35.5 -14q-6 0 -13.5 2t-12.5 4l-4 2q-5 0 -5 -5q0 -27 43 -58t119 -31q85 0 134 52t49 129q0 80 -48 129t-131 49h-71v3h70q78 2 116.5 49t38.5 128q0 85 -31 127t-101 42q-69 0 -114 -41.5t-61 -113.5h-3z" />
    <glyph glyph-name="uni0418" unicode="&#x418;" horiz-adv-x="671" 
d="M651 700v-3h-62v-694h62v-3h-207v3h63v643l-342 -594v-49h62v-3h-207v3h63v694h-63v3h207v-3h-62v-638l342 594v44h-63v3h207z" />
    <glyph glyph-name="uni0419" unicode="&#x419;" horiz-adv-x="671" 
d="M490 882h3q-42 -99 -156 -99t-156 99h3q37 -85 153 -85t153 85zM651 697h-62v-694h62v-3h-207v3h63v643l-342 -594v-49h62v-3h-207v3h63v694h-63v3h207v-3h-62v-638l342 594v44h-63v3h207v-3z" />
    <glyph glyph-name="uni041A" unicode="&#x41a;" horiz-adv-x="625" 
d="M165 697v-329h27q51 0 93 18.5t68.5 50t43 65t25.5 71.5q16 70 40 102t62 32q27 0 42.5 -15t15.5 -40t-15.5 -40.5t-38.5 -15.5q-10 0 -33.5 9t-29.5 9q-26 0 -39 -46q-23 -83 -72.5 -136t-122.5 -64q105 -3 169 -73q67 -71 92 -174q12 -49 25 -69.5t34 -20.5
q16 0 26 14.5t10 35.5v21h3v-21q0 -39 -19.5 -65t-56.5 -26q-84 0 -109 131q-23 110 -57 170q-41 74 -133 74h-50v-362h62v-3h-207v3h63v694h-63v3h207v-3h-62z" />
    <glyph glyph-name="uni041B" unicode="&#x41b;" horiz-adv-x="656" 
d="M636 700v-3h-62v-694h62v-3h-207v3h63v694h-254v-393q0 -151 -45 -229.5t-121 -78.5q-28 0 -47.5 18t-19.5 43q0 28 16 44.5t42 16.5t41 -16t15 -40q0 -7 -2.5 -16t-4.5 -15l-2 -6q0 -8 7 -8q35 0 72 60q45 68 45 227v268q0 59 -22 92t-54 33h-13v3h491z" />
    <glyph glyph-name="uni041C" unicode="&#x41c;" horiz-adv-x="744" 
d="M724 697h-62v-694h62v-3h-205v3h63v684l-217 -687h-34l-244 686v-558q0 -63 19.5 -94t53.5 -31v-3h-140v3q29 0 46 32t17 93v569h-63v3h148l218 -622l196 622h142v-3z" />
    <glyph glyph-name="uni041D" unicode="&#x41d;" horiz-adv-x="671" 
d="M444 697v3h207v-3h-62v-694h62v-3h-207v3h63v343h-342v-343h62v-3h-207v3h63v694h-63v3h207v-3h-62v-348h342v348h-63z" />
    <glyph glyph-name="uni041E" unicode="&#x41e;" horiz-adv-x="704" 
d="M352 710q153 0 237 -99q85 -97 85 -257q0 -158 -91 -261q-90 -104 -231 -104q-152 0 -238 99q-84 99 -84 258q0 156 90 260q92 104 232 104zM352 706q-118 0 -175 -98q-56 -98 -56 -256q0 -152 59 -256q60 -103 172 -103q118 0 174 98q57 99 57 257q0 152 -60 255
q-58 103 -171 103z" />
    <glyph glyph-name="uni041F" unicode="&#x41f;" horiz-adv-x="655" 
d="M635 700v-3h-62v-694h62v-3h-207v3h63v694h-326v-694h62v-3h-207v3h63v694h-63v3h615z" />
    <glyph glyph-name="uni0420" unicode="&#x420;" horiz-adv-x="563" 
d="M20 697v3h287q107 0 172 -50q64 -49 64 -129q0 -79 -72 -133t-178 -54h-128v-331h62v-3h-207v3h63v694h-63zM165 697v-360h116q85 0 130 49t45 132q0 80 -44.5 129.5t-126.5 49.5h-120z" />
    <glyph glyph-name="uni0421" unicode="&#x421;" horiz-adv-x="581" 
d="M542 167h4q-9 -82 -67.5 -129.5t-156.5 -47.5q-128 0 -210 103t-82 253q0 157 88 260q89 104 225 104q49 0 93 -19q46 -18 66 -18q16 0 25.5 10t9.5 27h3v-209h-3q-22 105 -66 155t-128 50q-112 0 -168 -98q-54 -98 -54 -256q0 -150 67 -247t176 -97q72 0 120.5 42.5
t57.5 116.5z" />
    <glyph glyph-name="uni0422" unicode="&#x422;" horiz-adv-x="604" 
d="M569 737v-209h-3q-7 92 -49.5 130.5t-135.5 38.5h-38v-694h62v-3h-207v3h63v694h-38q-93 0 -135.5 -38.5t-49.5 -130.5h-3v209h3q0 -17 9.5 -27t25.5 -10h458q16 0 25.5 10t9.5 27h3z" />
    <glyph glyph-name="uni0423" unicode="&#x423;" horiz-adv-x="617" 
d="M617 700v-3h-4q-55 0 -114 -120l-203 -419q-45 -94 -78 -132q-31 -37 -80 -37q-50 0 -77.5 30t-27.5 79q0 29 17.5 49.5t41.5 20.5q26 0 40.5 -15t14.5 -40t-16 -40.5t-39 -15.5q-6 0 -14 2.5t-13 4.5l-5 2q-6 0 -6 -5q0 -26 22.5 -47t61.5 -21q47 0 77 36q30 34 77 130
l34 69l-274 469h-52v3h213v-3h-67l219 -387l130 268q19 39 19 67q0 52 -60 52h-7v3h170z" />
    <glyph glyph-name="uni0424" unicode="&#x424;" horiz-adv-x="776" 
d="M492 700v-3h-63v-117h37q129 0 209 -61q81 -60 81 -157q0 -92 -75 -157t-201 -63h-51v-139h63v-3h-208v3h63v138h-37q-126 0 -209 62q-81 61 -81 158q0 93 75 155q75 63 201 63h51v118h-63v3h208zM445 577h-16v-432h20q103 -1 155 60t52 155q0 100 -53.5 158.5
t-157.5 58.5zM347 144v432h-20q-103 0 -155 -61t-52 -154q0 -100 53.5 -158.5t157.5 -58.5h16z" />
    <glyph glyph-name="uni0425" unicode="&#x425;" horiz-adv-x="644" 
d="M452 700h170v-3q-34 0 -64.5 -26t-71.5 -84l-140 -204l241 -380h52v-3h-213v3h67l-199 319l-144 -210q-32 -46 -32 -72q0 -37 61 -37v-3h-169v3q25 0 50 18q27 19 40 35l46 57l146 212l-235 372h-52v3h213v-3h-67l193 -310l138 201q31 46 31 72q0 37 -61 37v3z" />
    <glyph glyph-name="uni0426" unicode="&#x426;" horiz-adv-x="655" 
d="M635 700v-3h-62v-694h61v-165h-3q-7 91 -49 127q-43 35 -136 35h-426v3h63v694h-63v3h207v-3h-62v-694h326v694h-63v3h207z" />
    <glyph glyph-name="uni0427" unicode="&#x427;" horiz-adv-x="586" 
d="M566 700v-3h-63v-694h59v-3h-205v3h64v360q-20 -49 -64.5 -81.5t-102.5 -32.5q-83 0 -128.5 57t-45.5 154v237h-65v3h212v-3h-64v-314q0 -54 33.5 -86t88.5 -32q61 0 98 46q38 47 38 104v282h-62v3h207z" />
    <glyph glyph-name="uni0428" unicode="&#x428;" horiz-adv-x="943" 
d="M923 700v-3h-62v-694h61v-3h-902v3h63v694h-63v3h207v-3h-62v-694h266v694h-63v3h207v-3h-62v-694h266v694h-63v3h207z" />
    <glyph glyph-name="uni0429" unicode="&#x429;" horiz-adv-x="943" 
d="M923 700v-3h-62v-694h61v-165h-3q-7 91 -49 127q-43 35 -136 35h-714v3h63v694h-63v3h207v-3h-62v-694h266v694h-63v3h207v-3h-62v-694h266v694h-63v3h207z" />
    <glyph glyph-name="uni042A" unicode="&#x42a;" horiz-adv-x="703" 
d="M35 528v209h3q0 -17 9.5 -27t25.5 -10h296v-3h-64v-345h125q121 0 187 -46.5t66 -125.5t-72 -130q-71 -50 -178 -50h-273v3h63v694q-93 0 -135.5 -38.5t-49.5 -130.5h-3zM425 349h-120v-346h116q87 0 131 46t44 128q0 79 -44 125.5t-127 46.5z" />
    <glyph glyph-name="uni042B" unicode="&#x42b;" horiz-adv-x="807" 
d="M236 700v-3h-71v-345h131q118 0 182.5 -46.5t64.5 -125.5t-72 -130q-71 -50 -178 -50h-273v3h63v694h-63v3h216zM787 700v-3h-62v-694h62v-3h-207v3h63v694h-63v3h207zM285 349h-120v-346h116q87 0 131 46t44 128q0 79 -44 125.5t-127 46.5z" />
    <glyph glyph-name="uni042C" unicode="&#x42c;" horiz-adv-x="563" 
d="M229 700v-3h-64v-345h125q121 0 187 -46.5t66 -125.5t-72 -130q-71 -50 -178 -50h-273v3h63v694h-63v3h209zM285 349h-120v-346h116q87 0 131 46t44 128q0 79 -44 125.5t-127 46.5z" />
    <glyph glyph-name="uni042D" unicode="&#x42d;" horiz-adv-x="581" 
d="M45 501v209h3q0 -17 9.5 -27t25.5 -10q20 0 65 18q45 19 94 19q136 0 222 -99q87 -99 87 -255q0 -154 -81 -260t-209 -106q-98 0 -156.5 47.5t-67.5 129.5h4q9 -74 57.5 -116.5t120.5 -42.5q107 0 173 94q66 95 68 244h-290v3h290v7q0 157 -53 254q-53 96 -165 96
q-84 0 -128 -50t-66 -155h-3z" />
    <glyph glyph-name="uni042E" unicode="&#x42e;" horiz-adv-x="867" 
d="M165 697v-348h166q2 150 77 254q76 105 183 105q109 0 183 -102q73 -100 73 -252q0 -150 -77 -257q-76 -106 -184 -106q-110 0 -183 102q-72 104 -72 253h-166v-343h62v-3h-207v3h63v694h-63v3h207v-3h-62zM586 -5q86 0 129 97q44 99 44 255q0 158 -43 256
q-43 100 -125 100q-87 0 -130 -96q-43 -95 -43 -254t43 -258q43 -100 125 -100z" />
    <glyph glyph-name="uni042F" unicode="&#x42f;" horiz-adv-x="610" 
d="M590 700v-3h-63v-694h63v-3h-207v3h62v337h-117q-94 0 -125 -61q-28 -53 -28 -158q0 -68 -17.5 -99.5t-61.5 -31.5q-37 0 -56.5 26t-19.5 65v21h3v-21q0 -21 10 -35.5t26 -14.5q21 0 29.5 21t8.5 69q0 101 45.5 157.5t137.5 63.5q-93 9 -154 56q-59 48 -59 119
q0 80 64 131q64 52 172 52h287zM445 343v354h-120q-82 0 -126.5 -48t-44.5 -128q0 -83 44 -130.5t131 -47.5h116z" />
    <glyph glyph-name="uni0430" unicode="&#x430;" horiz-adv-x="509" 
d="M501 70h3q-3 -31 -25.5 -55.5t-58.5 -24.5q-76 0 -84 96q-17 -39 -60 -67q-43 -29 -97 -29q-58 0 -96 33t-38 88q0 95 106 131q8 3 32 10.5t34.5 11.5t31.5 12.5t31.5 16t25 19.5t21.5 24.5t12.5 30.5t5.5 38q0 109 -132 109q-58 0 -96 -32q-37 -31 -37 -53q0 -5 5 -5
l5 2q4 2 11.5 4t13.5 2q21 0 35.5 -14t14.5 -37q0 -21 -14.5 -36t-38.5 -15q-22 0 -36.5 16t-14.5 41q0 51 46 91q47 41 121 41q86 0 135 -52.5t49 -141.5v-255q0 -23 11.5 -35t30.5 -12t32 13t15 34zM335 120v219q-23 -39 -98 -78q-52 -25 -81.5 -56t-29.5 -87
q0 -46 27 -73t72 -27q48 0 79 29.5t31 72.5z" />
    <glyph glyph-name="uni0431" unicode="&#x431;" horiz-adv-x="547" 
d="M405 721v7q71 -20 71 -82q0 -45 -39.5 -65t-133.5 -20q-128 0 -188 -59q-66 -63 -67 -233q10 93 73 160q63 66 155 66q97 0 161 -70q65 -71 65 -176q0 -108 -64 -184q-63 -75 -163 -75q-102 0 -167 74q-63 74 -63 200q0 340 250 362q79 7 107.5 18t28.5 37
q0 18 -5.5 26.5t-20.5 13.5zM271 489q-76 0 -109.5 -58.5t-33.5 -172.5q0 -124 34.5 -193.5t98.5 -69.5q77 0 117 69q41 71 41 180q0 110 -39 177q-38 68 -109 68z" />
    <glyph glyph-name="uni0432" unicode="&#x432;" horiz-adv-x="460" 
d="M15 504v3h207q87 0 134 -33.5t47 -92.5q0 -51 -44 -85t-117 -42q87 -2 135 -35t48 -88q0 -58 -58 -95q-57 -36 -148 -36h-204v3h63v501h-63zM204 504h-49v-250h40q129 0 129 124q0 126 -120 126zM213 251h-58v-248h54q132 0 132 125q0 123 -128 123z" />
    <glyph glyph-name="uni0433" unicode="&#x433;" horiz-adv-x="406" 
d="M371 542v-199h-3q-7 88 -47 124.5t-129 36.5h-37v-501h62v-3h-202v3h63v501h-63v3h320q33 0 33 35h3z" />
    <glyph glyph-name="uni0434" unicode="&#x434;" horiz-adv-x="524" 
d="M509 507v-3h-63v-501h63v-165h-3q-7 91 -49 127q-43 35 -136 35h-128q-93 0 -136 -35q-42 -36 -49 -127h-3v165h23q69 0 111.5 71.5t42.5 212.5v98q0 56 -21 87.5t-51 31.5h-13v3h412zM369 504h-183v-217q0 -125 -34 -196.5t-92 -87.5h309v501z" />
    <glyph glyph-name="uni0435" unicode="&#x435;" 
d="M442 121h4q-6 -59 -52.5 -95t-119.5 -36q-100 0 -164 76q-65 77 -65 187q0 112 64 189q65 78 162 78q88 0 139.5 -61.5t48.5 -164.5h-329q-1 -10 -1 -46q0 -100 44 -171q45 -71 134 -71q54 0 91 31t44 84zM130 297h239q3 220 -98 220q-59 0 -97 -62q-37 -63 -44 -158z
" />
    <glyph glyph-name="uni0436" unicode="&#x436;" horiz-adv-x="696" 
d="M673 101h3v-20q0 -37 -19 -62t-54 -25q-71 0 -104 120l-7 25q-3 13 -7 25q-1 5 -7 21t-10 21q-18 25 -31 30q-29 12 -51 13v-246h62v-3h-202v3h63v246q-22 -1 -51 -13q-12 -5 -30 -30l-18 -42l-7 -25l-6 -25q-33 -120 -104 -120q-35 0 -54 25t-19 62v20h3v-20
q0 -21 9 -34.5t24 -13.5q31 0 56 88q38 128 197 130q-94 15 -132 137q-12 42 -37 42q-6 0 -28.5 -8.5t-31.5 -8.5q-22 0 -37 15t-15 39t14.5 38t40.5 14q36 0 59 -30.5t39 -97.5q34 -123 128 -138v251h-63v3h202v-3h-62v-251q94 13 129 138q16 67 39 97.5t59 30.5
q26 0 40.5 -14t14.5 -38t-15 -39t-37 -15q-9 0 -31.5 8.5t-28.5 8.5q-25 0 -37 -42q-38 -122 -132 -137q160 -1 197 -130q25 -88 56 -88q15 0 24 13.5t9 34.5v20z" />
    <glyph glyph-name="uni0437" unicode="&#x437;" horiz-adv-x="448" 
d="M62 365v152h2q0 -26 27 -26q17 0 57 13t75 13q80 0 124 -36t44 -97q0 -51 -44.5 -86.5t-116.5 -43.5q86 -2 134.5 -35.5t48.5 -90.5q0 -59 -56 -100q-55 -40 -144 -40q-90 0 -136 40q-47 41 -47 90q0 24 14 40.5t35 16.5q22 0 36 -14t14 -35t-14.5 -34.5t-33.5 -13.5
q-6 0 -12.5 2t-10.5 3.5t-5 1.5q-5 0 -5 -5q0 -25 39 -55q40 -29 107 -29q62 0 98.5 36t36.5 93q0 59 -31.5 92.5t-96.5 33.5h-28v3h15q124 0 124 127q0 130 -102 130q-60 0 -94 -36.5t-52 -109.5h-2z" />
    <glyph glyph-name="uni0438" unicode="&#x438;" horiz-adv-x="533" 
d="M518 507v-3h-63v-501h63v-3h-202v3h62v457l-223 -418v-39h62v-3h-202v3h63v501h-63v3h202v-3h-62v-455l223 419v36h-62v3h202z" />
    <glyph glyph-name="uni0439" unicode="&#x439;" horiz-adv-x="533" 
d="M420 729h3q-42 -99 -156 -99t-156 99h3q37 -85 153 -85t153 85zM518 504h-63v-501h63v-3h-202v3h62v457l-223 -418v-39h62v-3h-202v3h63v501h-63v3h202v-3h-62v-455l223 419v36h-62v3h202v-3z" />
    <glyph glyph-name="uni043A" unicode="&#x43a;" horiz-adv-x="498" 
d="M217 504h-62v-253q65 3 105.5 41.5t56.5 98.5q16 67 39 97.5t59 30.5q26 0 40.5 -14t14.5 -38t-15 -39t-37 -15q-9 0 -31.5 8.5t-28.5 8.5q-25 0 -37 -42q-37 -121 -145 -137q173 -3 210 -130q25 -88 56 -88q15 0 24 13.5t9 34.5v20h3v-20q0 -37 -19 -62t-54 -25
q-71 0 -104 120q-11 39 -16 53q-6 17 -21 39q-27 43 -101 43h-8v-246h62v-3h-202v3h63v501h-63v3h202v-3z" />
    <glyph glyph-name="uni043B" unicode="&#x43b;" horiz-adv-x="557" 
d="M542 507v-3h-63v-501h63v-3h-202v3h62v501h-184v-215q0 -146 -39.5 -219.5t-110.5 -73.5q-26 0 -44.5 17t-18.5 41q0 26 15 42t40 16q24 0 38.5 -15.5t14.5 -37.5q0 -15 -6 -29l-2 -6q0 -8 6 -8q31 0 65 57q39 68 39 216v97q0 55 -21 87t-52 32h-12v2h412z" />
    <glyph glyph-name="uni043C" unicode="&#x43c;" horiz-adv-x="604" 
d="M579 507v-3h-59v-501h59v-3h-195v3h60v491l-157 -494h-32l-176 493v-371q0 -119 69 -119v-3h-133v3q27 0 43.5 30.5t16.5 88.5v382h-60v3h141l151 -433l137 433h135z" />
    <glyph glyph-name="uni043D" unicode="&#x43d;" horiz-adv-x="533" 
d="M518 507v-3h-63v-501h63v-3h-202v3h62v247h-223v-247h62v-3h-202v3h63v501h-63v3h202v-3h-62v-251h223v251h-62v3h202z" />
    <glyph glyph-name="uni043E" unicode="&#x43e;" horiz-adv-x="557" 
d="M281 518q99 0 165 -75t66 -185t-70 -189q-69 -78 -166 -78q-99 0 -165 75q-66 76 -66 186t69 188q71 78 167 78zM281 514q-75 0 -114 -71t-39 -186t38 -189q39 -73 110 -73q75 0 114 71q39 70 39 187q0 115 -39 188q-37 73 -109 73z" />
    <glyph glyph-name="uni043F" unicode="&#x43f;" horiz-adv-x="532" 
d="M518 507v-3h-63v-501h63v-3h-202v3h62v501h-223v-501h62v-3h-202v3h63v501h-63v3h503z" />
    <glyph glyph-name="uni0440" unicode="&#x440;" horiz-adv-x="553" 
d="M5 507h140v-77q18 41 56.5 65.5t89.5 24.5q99 0 157 -72q60 -70 60 -182q0 -110 -65 -189q-65 -77 -161 -77q-47 0 -83 22t-54 60v-225h62v-3h-202v3h63v647h-63v3zM145 378v-244q0 -56 33 -89.5t87 -33.5q76 0 118 68q42 69 42 182q0 112 -41.5 178.5t-113.5 66.5
q-57 0 -91 -34.5t-34 -93.5z" />
    <glyph glyph-name="uni0441" unicode="&#x441;" horiz-adv-x="471" 
d="M437 121h4q-6 -60 -51.5 -95.5t-118.5 -35.5q-98 0 -162 76t-64 187q0 109 68 188q67 79 168 79q75 0 116 -38t41 -87q0 -25 -14.5 -42.5t-36.5 -17.5q-23 0 -38 14.5t-15 36.5q0 23 14.5 37t35.5 14q6 0 13.5 -2t12.5 -4l4 -2q5 0 5 5q0 24 -33 52q-32 29 -90 29
q-78 0 -123 -69t-45 -188q0 -112 49 -183q50 -71 129 -71q50 0 87 32t44 85z" />
    <glyph glyph-name="uni0442" unicode="&#x442;" horiz-adv-x="511" 
d="M478 542h3v-199h-3q-7 88 -47 124.5t-129 36.5h-8v-501h62v-3h-202v3h63v501h-8q-89 0 -129 -36.5t-47 -124.5h-3v199h3q0 -35 33 -35h379q33 0 33 35z" />
    <glyph glyph-name="uni0443" unicode="&#x443;" horiz-adv-x="533" 
d="M363 507h170v-3q-26 0 -46 -19q-19 -16 -28.5 -33.5t-26.5 -57.5l-142 -386q-31 -85 -62 -119.5t-76 -34.5q-46 0 -71 27.5t-25 73.5q0 27 16 45.5t38 18.5q23 0 36.5 -14t13.5 -36q0 -23 -14.5 -37t-35.5 -14q-6 0 -13.5 2t-12.5 4l-4 2q-5 0 -5 -5q0 -24 20.5 -44
t56.5 -20q44 0 74 34.5t60 116.5l5 13l-235 483h-56v3h204v-3h-69l190 -389l103 280q11 31 11 52q0 57 -76 57v3z" />
    <glyph glyph-name="uni0444" unicode="&#x444;" horiz-adv-x="817" 
d="M307 700h140v-270q17 40 54 65t79 25q87 0 139 -73q53 -74 53 -181t-59 -187q-58 -79 -142 -79q-40 0 -73 22.5t-51 59.5v-225h62v-3h-202v3h63v233q-17 -40 -54 -65t-79 -25q-87 0 -139 73q-53 74 -53 181t58 186q59 80 143 80q40 0 73 -22.5t51 -59.5v259h-63v3z
M370 142v244q0 55 -30.5 89t-76.5 34q-66 0 -100 -70q-35 -72 -35 -180q0 -109 34 -177q35 -68 96 -68q49 0 80.5 35.5t31.5 92.5zM447 378v-244q0 -55 30.5 -89t76.5 -34q66 0 100 70q35 72 35 180t-35 176q-34 69 -95 69q-49 0 -80.5 -35.5t-31.5 -92.5z" />
    <glyph glyph-name="uni0445" unicode="&#x445;" horiz-adv-x="543" 
d="M344 507h170v-3q-34 0 -70 -34q-17 -17 -25 -27l-12 -15q-2 -4 -13.5 -18t-12.5 -16l-84 -114l189 -277h52v-3h-207v3h67l-155 227l-86 -118q-31 -43 -31 -70q0 -39 63 -39v-3h-169v3q44 0 95 62q3 3 38 48l88 120l-184 271h-52v3h207v-3h-67l150 -221l82 112
q30 43 30 70q0 39 -63 39v3z" />
    <glyph glyph-name="uni0446" unicode="&#x446;" horiz-adv-x="533" 
d="M518 507v-3h-63v-501h63v-157h-3q-7 81 -39 116q-31 33 -106 38h-355v3h63v501h-63v3h202v-3h-62v-501h223v501h-62v3h202z" />
    <glyph glyph-name="uni0447" unicode="&#x447;" horiz-adv-x="532" 
d="M516 507v-3h-62v-501h63v-3h-202v3h62v255q-16 -44 -58 -75t-97 -31q-71 0 -108.5 50t-37.5 140v162h-61v3h202v-3h-63v-233q0 -50 26.5 -77t72.5 -27q55 0 89 42q35 44 35 97v198h-63v3h202z" />
    <glyph glyph-name="uni0448" unicode="&#x448;" horiz-adv-x="783" 
d="M768 507v-3h-63v-501h63v-3h-753v3h63v501h-63v3h202v-3h-62v-501h198v501h-63v3h203v-3h-63v-501h198v501h-62v3h202z" />
    <glyph glyph-name="uni0449" unicode="&#x449;" horiz-adv-x="783" 
d="M768 507v-3h-63v-501h63v-157h-3q-7 81 -39 116q-31 33 -106 38h-605v3h63v501h-63v3h202v-3h-62v-501h198v501h-63v3h203v-3h-63v-501h198v501h-62v3h202z" />
    <glyph glyph-name="uni044A" unicode="&#x44a;" horiz-adv-x="577" 
d="M30 343v199h3q0 -35 33 -35h266v-3h-60v-250h90q86 0 133 -33t47 -90q0 -58 -58 -95q-57 -36 -148 -36h-204v3h63v501q-81 -3 -118 -40t-44 -121h-3zM333 251h-61v-249h54q132 0 132 126q0 123 -125 123z" />
    <glyph glyph-name="uni044B" unicode="&#x44b;" horiz-adv-x="682" 
d="M215 504h-60v-250h90q86 0 133 -33t47 -90q0 -58 -58 -95q-57 -36 -148 -36h-204v3h63v501h-63v3h200v-3zM615 3h62v-3h-202v3h63v501h-63v3h140v-504zM155 251v-249h54q132 0 132 126q0 123 -125 123h-61z" />
    <glyph glyph-name="uni044C" unicode="&#x44c;" horiz-adv-x="460" 
d="M215 507v-3h-60v-250h90q86 0 133 -33t47 -90q0 -58 -58 -95q-57 -36 -148 -36h-204v3h63v501h-63v3h200zM216 251h-61v-249h54q132 0 132 126q0 123 -125 123z" />
    <glyph glyph-name="uni044D" unicode="&#x44d;" horiz-adv-x="471" 
d="M165 257v3h178q-1 120 -44.5 187.5t-121.5 67.5q-57 0 -91 -29q-32 -29 -32 -52q0 -5 5 -5l5 2q4 2 11.5 4t13.5 2q21 0 35.5 -14t14.5 -37q0 -22 -14.5 -36.5t-38.5 -14.5q-22 0 -36.5 17.5t-14.5 42.5q0 50 40 87q41 38 117 38q100 0 167 -75q67 -74 67 -185t-65 -191
q-64 -79 -163 -79q-73 0 -118.5 35.5t-51.5 95.5h4q7 -53 44 -85t87 -32q80 0 130 71q50 73 50 182h-178z" />
    <glyph glyph-name="uni044E" unicode="&#x44e;" horiz-adv-x="772" 
d="M155 504v-251h135q0 110 65 187q66 78 156 78q93 0 154 -75q62 -76 62 -185q0 -110 -66 -189q-65 -78 -155 -78q-92 0 -153 75q-62 75 -63 184h-135v-247h62v-3h-202v3h63v501h-63v3h202v-3h-62zM506 -5q68 0 103 71q35 72 35 187q0 113 -35 188q-34 73 -98 73
q-67 0 -102.5 -69t-35.5 -188q0 -117 34 -189q34 -73 99 -73z" />
    <glyph glyph-name="uni044F" unicode="&#x44f;" horiz-adv-x="501" 
d="M486 507v-3h-63v-501h63v-3h-200v3h60v245h-32q-39 -4 -72 -30q-9 -8 -20 -31q-3 -7 -6 -13.5t-5 -12t-3 -7.5l-11 -40q-33 -120 -104 -120q-35 0 -54 25t-19 62v20h3v-20q0 -21 9 -34.5t24 -13.5q31 0 56 88q32 111 165 127q-97 0 -145.5 34t-48.5 95q0 58 55.5 94
t145.5 36h202zM346 251v254h-47q-132 0 -132 -128q0 -126 125 -126h54z" />
    <glyph glyph-name="uni0451" unicode="&#x451;" 
d="M191 705q22 0 35.5 -14t13.5 -37q0 -22 -14.5 -36.5t-34.5 -14.5q-21 0 -34.5 14t-13.5 36t14 37t34 15zM350 705q22 0 35.5 -14t13.5 -37q0 -22 -14.5 -36.5t-34.5 -14.5q-21 0 -34.5 14t-13.5 36t14 37t34 15zM442 121h4q-6 -59 -52.5 -95t-119.5 -36q-100 0 -164 76
q-65 77 -65 187q0 112 64 189q65 78 162 78q88 0 139.5 -61.5t48.5 -164.5h-329q-1 -10 -1 -46q0 -100 44 -171q45 -71 134 -71q54 0 91 31t44 84zM130 297h239q3 220 -98 220q-59 0 -97 -62q-37 -63 -44 -158z" />
    <glyph glyph-name="uni0452" unicode="&#x452;" horiz-adv-x="520" 
d="M313 601h-158v-190q16 44 58 75t97 31q71 0 108 -49.5t37 -140.5v-295q0 -82 -34 -140q-35 -59 -94 -59q-40 0 -66.5 22.5t-26.5 60.5q0 27 16 45.5t38 18.5q23 0 36.5 -14t13.5 -36q0 -23 -14.5 -37t-35.5 -14q-6 0 -13.5 2t-12.5 4l-4 2q-5 0 -5 -5q0 -16 22.5 -31.5
t51.5 -15.5q37 0 68 27t31 70q0 36 -24 122q-24 85 -24 170v174q0 50 -26.5 77t-72.5 27q-55 0 -89 -43q-35 -43 -35 -96v-360h62v-3h-202v3h63v598h-62v3h62v93h-63v3h140v-96h158v-3z" />
    <glyph glyph-name="uni0453" unicode="&#x453;" horiz-adv-x="406" 
d="M371 542v-199h-3q-7 88 -47 124.5t-129 36.5h-37v-501h62v-3h-202v3h63v501h-63v3h320q33 0 33 35h3zM117 628l-1 3q44 19 102 51q59 32 79 41q8 2 10 2q9 0 9 -9q0 -8 -12 -12q-7 -3 -44.5 -17.5t-75.5 -30t-67 -28.5z" />
    <glyph glyph-name="uni0454" unicode="&#x454;" horiz-adv-x="471" 
d="M437 121h4q-6 -60 -51.5 -95.5t-118.5 -35.5q-98 0 -162 76t-64 187q0 109 68 188q67 79 168 79q75 0 116 -38t41 -87q0 -25 -14.5 -42.5t-36.5 -17.5q-23 0 -38 14.5t-15 36.5q0 23 14.5 37t35.5 14q6 0 13.5 -2t12.5 -4l4 -2q5 0 5 5q0 24 -33 52q-32 29 -90 29
q-78 0 -122.5 -68t-45.5 -187h169v-3h-169q0 -111 49 -182q50 -71 129 -71q50 0 87 32t44 85z" />
    <glyph glyph-name="uni0455" unicode="&#x455;" horiz-adv-x="442" 
d="M38 3v159h3q14 -75 64 -121.5t121 -46.5q54 0 85 29.5t31 77.5q0 78 -104 114q-8 3 -32 11.5t-34 12.5t-31 13t-31 16t-24.5 19t-21 24t-12 28t-5.5 35q0 66 48 105.5t129 39.5q37 0 77 -14q38 -13 55 -13q28 0 28 27h3v-159h-3q-18 76 -56 115.5t-104 39.5
q-53 0 -85 -29t-32 -74q0 -40 29 -69.5t75 -45.5q4 -1 28 -9.5t30.5 -11t27.5 -10.5t28.5 -13.5t23.5 -15t22.5 -19t15.5 -21.5t12 -26.5t3 -31.5q0 -63 -51 -107q-51 -42 -125 -42q-48 0 -93 20t-64 20q-28 0 -28 -27h-3z" />
    <glyph glyph-name="uni0456" unicode="&#x456;" horiz-adv-x="222" 
d="M155 3h62v-3h-202v3h63v501h-63v3h140v-504zM114 705q22 0 35.5 -14t13.5 -37q0 -22 -14.5 -36.5t-34.5 -14.5q-21 0 -34.5 14t-13.5 36t14 37t34 15z" />
    <glyph glyph-name="uni0457" unicode="&#x457;" horiz-adv-x="222" 
d="M39 705q22 0 35.5 -14t13.5 -37q0 -22 -14.5 -36.5t-34.5 -14.5q-21 0 -34.5 14t-13.5 36t14 37t34 15zM198 705q22 0 35.5 -14t13.5 -37q0 -22 -14.5 -36.5t-34.5 -14.5q-21 0 -34.5 14t-13.5 36t14 37t34 15zM155 3h62v-3h-202v3h63v501h-63v3h140v-504z" />
    <glyph glyph-name="uni0458" unicode="&#x458;" horiz-adv-x="216" 
d="M107 705q22 0 35.5 -14t13.5 -37q0 -22 -14.5 -36.5t-34.5 -14.5q-21 0 -34.5 14t-13.5 36t14 37t34 15zM8 507h140v-475q0 -82 -34 -140q-35 -59 -94 -59q-40 0 -66.5 22.5t-26.5 60.5q0 27 16 45.5t38 18.5q23 0 36.5 -14t13.5 -36q0 -23 -14.5 -37t-35.5 -14
q-6 0 -13.5 2t-11.5 4l-5 2q-5 0 -5 -5q0 -16 22.5 -31.5t51.5 -15.5q37 0 68 27t31 70q0 36 -24 122t-24 170v280h-63v3z" />
    <glyph glyph-name="uni0459" unicode="&#x459;" horiz-adv-x="764" 
d="M519 507v-3h-60v-250h90q86 0 133 -33t47 -90q0 -58 -58 -95q-57 -36 -148 -36h-204v3h63v501h-164v-215q0 -146 -39.5 -219.5t-110.5 -73.5q-26 0 -44.5 17t-18.5 41q0 26 15 42t40 16q24 0 38.5 -15.5t14.5 -37.5q0 -15 -6 -29l-2 -6q0 -8 6 -8q31 0 65 57
q39 68 39 216v97q0 55 -21 87t-52 32h-12v2h389zM520 251h-61v-249h54q132 0 132 126q0 123 -125 123z" />
    <glyph glyph-name="uni045A" unicode="&#x45a;" horiz-adv-x="735" 
d="M490 507v-3h-60v-250h90q86 0 133 -33t47 -90q0 -58 -58 -95q-57 -36 -148 -36h-204v3h63v247h-198v-247h62v-3h-202v3h63v501h-63v3h202v-3h-62v-251h198v251h-63v3h200zM491 251h-61v-249h54q132 0 132 126q0 123 -125 123z" />
    <glyph glyph-name="uni045B" unicode="&#x45b;" horiz-adv-x="532" 
d="M517 3v-3h-202v3h63v395q0 50 -26.5 77t-72.5 27q-55 0 -89 -43q-35 -43 -35 -96v-360h62v-3h-202v3h63v598h-62v3h62v93h-63v3h140v-96h158v-3h-158v-190q16 44 58 75t97 31q71 0 108.5 -50t37.5 -140v-324h61z" />
    <glyph glyph-name="uni045C" unicode="&#x45c;" horiz-adv-x="498" 
d="M217 504h-62v-253q65 3 105.5 41.5t56.5 98.5q16 67 39 97.5t59 30.5q26 0 40.5 -14t14.5 -38t-15 -39t-37 -15q-9 0 -31.5 8.5t-28.5 8.5q-25 0 -37 -42q-37 -121 -145 -137q173 -3 210 -130q25 -88 56 -88q15 0 24 13.5t9 34.5v20h3v-20q0 -37 -19 -62t-54 -25
q-71 0 -104 120q-11 39 -16 53q-6 17 -21 39q-27 43 -101 43h-8v-246h62v-3h-202v3h63v501h-63v3h202v-3zM201 628l-1 3q44 19 102 51q59 32 79 41q8 2 10 2q9 0 9 -9q0 -8 -12 -12q-7 -3 -44.5 -17.5t-75.5 -30t-67 -28.5z" />
    <glyph glyph-name="uni045E" unicode="&#x45e;" horiz-adv-x="533" 
d="M363 507h170v-3q-26 0 -46 -19q-19 -16 -28.5 -33.5t-26.5 -57.5l-142 -386q-31 -85 -62 -119.5t-76 -34.5q-46 0 -71 27.5t-25 73.5q0 27 16 45.5t38 18.5q23 0 36.5 -14t13.5 -36q0 -23 -14.5 -37t-35.5 -14q-6 0 -13.5 2t-12.5 4l-4 2q-5 0 -5 -5q0 -24 20.5 -44
t56.5 -20q44 0 74 34.5t60 116.5l5 13l-235 483h-56v3h204v-3h-69l190 -389l103 280q11 31 11 52q0 57 -76 57v3zM433 729h3q-42 -99 -156 -99t-156 99h3q37 -85 153 -85t153 85z" />
    <glyph glyph-name="uni045F" unicode="&#x45f;" horiz-adv-x="533" 
d="M518 507v-3h-63v-501h63v-3h-133q-60 0 -86.5 -34t-31.5 -120h-2q-5 86 -31.5 120t-86.5 34h-132v3h63v501h-63v3h202v-3h-62v-501h223v501h-62v3h202z" />
    <glyph glyph-name="uni0462" unicode="&#x462;" horiz-adv-x="721" 
d="M323 598v-246h125q121 0 187 -46.5t66 -125.5t-72 -130q-71 -50 -178 -50h-273v3h63v595h-18q-93 0 -135.5 -38.5t-49.5 -130.5h-3v209h3q0 -17 9.5 -27t25.5 -10h168v96h-63v3h209v-3h-64v-96h169q16 0 25.5 10t9.5 27h3v-209h-3q-7 92 -49.5 130.5t-135.5 38.5h-19z
M323 349v-346h116q87 0 131 46t44 128q0 79 -44 125.5t-127 46.5h-120z" />
    <glyph glyph-name="uni0463" unicode="&#x463;" horiz-adv-x="577" 
d="M272 504v-250h90q86 0 133 -33t47 -90q0 -58 -58 -95q-57 -36 -148 -36h-204v3h63v501q-81 -3 -118 -40t-44 -121h-3v199h3q0 -35 33 -35h129v190h-63v3h140v-193h126q33 0 33 35h3v-199h-3q-7 83 -43.5 120t-115.5 41zM272 251v-249h54q132 0 132 126q0 123 -125 123
h-61z" />
    <glyph glyph-name="uni0472" unicode="&#x472;" horiz-adv-x="704" 
d="M352 710q153 0 237 -99q85 -97 85 -257q0 -158 -91 -261q-90 -104 -231 -104q-152 0 -238 99q-84 99 -84 258q0 156 90 260q92 104 232 104zM352 706q-118 0 -175 -98q-56 -98 -56 -256v-24q45 68 124 68q55 0 104 -39t115 -39q78 0 118 58q-6 142 -65 236
q-58 94 -165 94zM352 -7q118 0 174 98q57 99 57 257v22q-47 -66 -124 -66q-75 0 -124 39q-47 39 -96 39q-76 0 -117 -59q5 -95 29 -165q26 -75 78.5 -120t122.5 -45z" />
    <glyph glyph-name="uni0473" unicode="&#x473;" horiz-adv-x="557" 
d="M281 518q99 0 165 -75t66 -185t-70 -189q-69 -78 -166 -78q-99 0 -165 75q-66 76 -66 186t69 188q71 78 167 78zM281 514q-75 0 -114 -71t-39 -186v-12q28 49 81 49q31 0 69 -31q40 -30 75 -30q49 0 76 42q-4 106 -42 172q-37 67 -106 67zM276 -5q75 0 114 71
q39 70 39 187v17q-29 -48 -81 -48q-27 0 -48.5 9.5t-33 21t-28 21t-34.5 9.5q-49 0 -76 -43q3 -109 41 -177t107 -68z" />
    <glyph glyph-name="uni0474" unicode="&#x474;" horiz-adv-x="705" 
d="M144 697l232 -623l153 479q25 80 53 117t65 37q27 0 42.5 -15t15.5 -40t-15.5 -40.5t-38.5 -15.5q-10 0 -32.5 9t-30.5 9q-34 0 -55 -63l-178 -551h-37l-262 697h-56v3h210v-3h-66z" />
    <glyph glyph-name="uni0475" unicode="&#x475;" horiz-adv-x="569" 
d="M134 504l171 -443l97 312q24 75 50.5 110.5t61.5 35.5q35 3 48.5 -24.5t0 -55t-44.5 -25.5q-9 0 -31 8.5t-29 8.5q-34 0 -53 -60l-116 -371h-37l-199 504h-53v3h197v-3h-63z" />
    <glyph glyph-name="uni0490" unicode="&#x490;" horiz-adv-x="461" 
d="M426 865v-205h-3q0 17 -9.5 27t-25.5 10h-223v-694h62v-3h-207v3h63v694h-63v3h218q95 0 136.5 36.5t48.5 128.5h3z" />
    <glyph glyph-name="uni0491" unicode="&#x491;" horiz-adv-x="381" 
d="M361 668v-199h-3q0 35 -33 35h-170v-501h62v-3h-202v3h63v501h-63v3h167q89 0 129 36.5t47 124.5h3z" />
    <glyph glyph-name="uni0492" unicode="&#x492;" horiz-adv-x="461" 
d="M423 737h3v-209h-3q-7 92 -49.5 130.5t-135.5 38.5h-73v-348h114v-3h-114v-343h62v-3h-207v3h63v343h-62v3h62v348h-63v3h368q16 0 25.5 10t9.5 27z" />
    <glyph glyph-name="uni0493" unicode="&#x493;" horiz-adv-x="381" 
d="M368 542h3v-199h-3q-7 88 -47 124.5t-129 36.5h-37v-251h102v-3h-102v-247h62v-3h-202v3h63v247h-63v3h63v251h-63v3h320q33 0 33 35z" />
    <glyph glyph-name="uni0496" unicode="&#x496;" horiz-adv-x="821" 
d="M749 3h62v-165h-3q-8 88 -38 123q-32 35 -109 39h-2l-34 121q-36 129 -61 171q-43 73 -116 73h-1v-362h63v-3h-207v3h62v362q-67 0 -104 -42q-14 -16 -28 -50q-15 -40 -34 -131q0 -7 -4 -21q-25 -131 -109 -131q-37 0 -56.5 26t-19.5 65v21h3v-21q0 -21 10 -35.5
t26 -14.5q21 0 34 20.5t25 69.5q60 243 241 247q-69 11 -109.5 60.5t-65.5 139.5q-13 46 -39 46q-6 0 -29.5 -9t-33.5 -9q-23 0 -38.5 15.5t-15.5 40.5t15.5 40t42.5 15q38 0 62 -32t40 -102q18 -75 53 -129q46 -68 134 -75v328h-62v3h207v-3h-63v-328q88 7 134 75
q35 54 53 129q16 70 40 102t62 32q27 0 42.5 -15t15.5 -40t-15.5 -40.5t-38.5 -15.5q-10 0 -33.5 9t-29.5 9q-26 0 -39 -46q-25 -91 -67.5 -141.5t-114.5 -59.5q93 0 160 -73q68 -73 98 -173z" />
    <glyph glyph-name="uni0497" unicode="&#x497;" horiz-adv-x="696" 
d="M630 3h61v-157h-3q-7 82 -38 118t-99 36h-5l-39 115q-7 29 -13 37l-7 18q-3 8 -18 33q-25 43 -83 46v-246h62v-3h-202v3h63v246q-22 -1 -51 -13q-12 -5 -30 -30l-18 -42l-7 -25l-6 -25q-33 -120 -104 -120q-35 0 -54 25t-19 62v20h3v-20q0 -21 9 -34.5t24 -13.5
q31 0 56 88q37 128 197 130q-94 15 -132 137q-12 42 -37 42q-6 0 -28.5 -8.5t-31.5 -8.5q-22 0 -37 15t-15 39t14.5 38t40.5 14q36 0 59 -30.5t39 -97.5q34 -123 128 -138v251h-63v3h202v-3h-62v-251q94 13 129 138q16 67 39 97.5t59 30.5q26 0 40.5 -14t14.5 -38t-15 -39
t-37 -15q-9 0 -31.5 8.5t-28.5 8.5q-25 0 -37 -42q-38 -122 -132 -137q151 -1 200 -130z" />
    <glyph glyph-name="uni049A" unicode="&#x49a;" horiz-adv-x="631" 
d="M165 697v-329h27q51 0 93 18.5t68.5 50t43 65t25.5 71.5q16 70 40 102t62 32q27 0 42.5 -15t15.5 -40t-15.5 -40.5t-38.5 -15.5q-10 0 -33.5 9t-29.5 9q-26 0 -39 -46q-23 -83 -72.5 -136t-122.5 -64q53 -2 98.5 -23.5t79 -58t57.5 -77t43 -88.5l45 -118h67v-165h-3
q-7 87 -40 124.5t-106 37.5h-6l-44 121q-43 121 -68 161q-53 83 -142 83h-47v-362h62v-3h-207v3h63v694h-63v3h207v-3h-62z" />
    <glyph glyph-name="uni049B" unicode="&#x49b;" horiz-adv-x="518" 
d="M155 504v-253h7q74 0 114 42q41 43 56 98q16 67 39 97.5t59 30.5q26 0 40.5 -14t14.5 -38t-15 -39t-37 -15q-9 0 -31.5 8.5t-28.5 8.5q-25 0 -37 -42q-38 -122 -145 -137q163 -1 210 -130l43 -118h64v-157h-3q-7 82 -37.5 118t-97.5 36h-10l-39 115q-23 70 -42 92
q-35 42 -101 42h-23v-246h62v-3h-202v3h63v501h-63v3h202v-3h-62z" />
    <glyph glyph-name="uni04A2" unicode="&#x4a2;" horiz-adv-x="671" 
d="M651 700v-3h-62v-694h62v-165h-3q-8 87 -40 122q-33 36 -112 40h-52v3h63v343h-342v-343h62v-3h-207v3h63v694h-63v3h207v-3h-62v-348h342v348h-63v3h207z" />
    <glyph glyph-name="uni04A3" unicode="&#x4a3;" horiz-adv-x="533" 
d="M518 507v-3h-63v-501h63v-157h-3q-7 81 -39 116q-31 33 -106 38h-54v3h62v247h-223v-247h62v-3h-202v3h63v501h-63v3h202v-3h-62v-251h223v251h-62v3h202z" />
    <glyph glyph-name="uni04AE" unicode="&#x4ae;" horiz-adv-x="649" 
d="M479 700h170v-3q-34 0 -64.5 -26t-71.5 -84l-155 -234v-350h62v-3h-207v3h63v339l-224 355h-52v3h213v-3h-67l212 -338l151 229q31 46 31 72q0 37 -61 37v3z" />
    <glyph glyph-name="uni04AF" unicode="&#x4af;" horiz-adv-x="527" 
d="M527 507v-3h-4q-52 0 -126 -104l-103 -147v-250h59v-3h-197v3h60v239l-166 262h-50v3h203v-3h-63l154 -245l99 142q29 43 29 68q0 35 -51 35h-6v3h162z" />
    <glyph glyph-name="uni04B0" unicode="&#x4b0;" horiz-adv-x="649" 
d="M479 700h170v-3q-34 0 -64.5 -26t-71.5 -84l-155 -234v-14h182v-3h-182v-333h62v-3h-207v3h63v333h-184v3h184v3l-224 355h-52v3h213v-3h-67l212 -338l151 229q31 46 31 72q0 37 -61 37v3z" />
    <glyph glyph-name="uni04B1" unicode="&#x4b1;" horiz-adv-x="527" 
d="M365 507h162v-3h-4q-52 0 -126 -104l-103 -147v-8h136v-3h-136v-239h59v-3h-197v3h60v239h-128v3h126l-164 259h-50v3h203v-3h-63l154 -245l99 142q29 43 29 68q0 35 -51 35h-6v3z" />
    <glyph glyph-name="uni04B2" unicode="&#x4b2;" horiz-adv-x="649" 
d="M622 700v-3h-4q-54 0 -132 -110l-140 -204l241 -380h52v-165h-3q-8 87 -40 122q-33 36 -112 40h-58v3h67l-199 319l-144 -210q-32 -46 -32 -73q0 -36 54 -36h7v-3h-169v3h4q21 0 46 18q24 17 40 36q9 10 46 56l146 212l-235 372h-52v3h213v-3h-67l193 -310l138 201
q31 43 31 72q0 37 -54 37h-7v3h170z" />
    <glyph glyph-name="uni04B3" unicode="&#x4b3;" horiz-adv-x="548" 
d="M514 507v-3h-4q-20 0 -42 -15q-20 -14 -34.5 -30t-42.5 -52q-1 -2 -5 -6.5t-5 -6.5l-84 -114l189 -277h52v-157h-3q-7 81 -39 116q-31 33 -106 38h-59v3h67l-155 227l-86 -118q-30 -44 -30 -71q0 -38 55 -38h7v-3h-169v3h4q20 0 43 17q24 16 36 30q10 11 41 52l9 11
l88 120l-184 271h-52v3h207v-3h-67l150 -221l82 112q30 40 30 70q0 39 -56 39h-7v3h170z" />
    <glyph glyph-name="uni04B6" unicode="&#x4b6;" horiz-adv-x="586" 
d="M566 700v-3h-63v-694h62v-165h-3q-8 87 -40 122q-33 36 -112 40h-53v3h64v360q-20 -49 -64.5 -81.5t-102.5 -32.5q-83 0 -128.5 57t-45.5 154v237h-65v3h212v-3h-64v-314q0 -54 33.5 -86t88.5 -32q61 0 98 46q38 47 38 104v282h-62v3h207z" />
    <glyph glyph-name="uni04B7" unicode="&#x4b7;" horiz-adv-x="532" 
d="M516 507v-3h-62v-501h63v-157h-3q-8 85 -34 117q-27 33 -100 37h-65v3h62v245q-16 -44 -58 -75t-97 -31q-71 0 -108.5 50t-37.5 140v172h-61v3h202v-3h-63v-243q0 -50 26.5 -77t72.5 -27q55 0 89 42q35 44 35 97v208h-63v3h202z" />
    <glyph glyph-name="uni04BA" unicode="&#x4ba;" horiz-adv-x="586" 
d="M229 700v-3h-64v-360q20 49 64.5 81.5t102.5 32.5q83 0 128.5 -57t45.5 -154v-237h65v-3h-212v3h64v314q0 54 -33.5 86t-88.5 32q-61 0 -98 -46q-38 -47 -38 -104v-282h62v-3h-207v3h63v694h-63v3h209z" />
    <glyph glyph-name="uni04BB" unicode="&#x4bb;" horiz-adv-x="532" 
d="M217 507v-3h-62v-255q16 44 58 75t97 31q71 0 108.5 -50t37.5 -140v-162h61v-3h-202v3h63v233q0 50 -26.5 77t-72.5 27q-55 0 -89 -43q-35 -43 -35 -96v-198h63v-3h-202v3h62v501h-63v3h202z" />
    <glyph glyph-name="uni04C0" unicode="&#x4c0;" horiz-adv-x="247" 
d="M227 697h-62v-694h62v-3h-207v3h63v694h-63v3h207v-3z" />
    <glyph glyph-name="uni04CF" unicode="&#x4cf;" horiz-adv-x="222" 
d="M155 3h62v-3h-202v3h63v501h-63v3h140v-504z" />
    <glyph glyph-name="uni04D8" unicode="&#x4d8;" horiz-adv-x="599" 
d="M71 533h-4q9 82 67.5 129.5t156.5 47.5q127 0 205 -102t78 -254q0 -151 -89 -258q-88 -106 -205 -106q-124 0 -192 96q-67 97 -63 263h458q0 151 -63 247t-171 96q-72 0 -120.5 -42.5t-57.5 -116.5zM483 345h-361q-4 -351 158 -351q94 0 148 100t55 251z" />
    <glyph glyph-name="uni04D9" unicode="&#x4d9;" horiz-adv-x="499" 
d="M60 389h-4q6 59 52.5 95t119.5 36q100 0 164 -76q65 -77 65 -187q0 -112 -64 -189q-65 -78 -162 -78q-88 0 -139.5 61.5t-48.5 164.5h329q1 10 1 46q0 100 -45 171q-44 71 -133 71q-54 0 -91 -31t-44 -84zM372 213h-239q-3 -220 98 -220q60 0 96 61q37 62 45 159z" />
    <glyph glyph-name="uni04E2" unicode="&#x4e2;" horiz-adv-x="671" 
d="M188 822v3q37 0 87.5 2.5t59.5 2.5q7 0 59 -2.5t91 -2.5v-3q-39 0 -91 -2.5t-59 -2.5q-9 0 -59.5 2.5t-87.5 2.5zM651 697h-62v-694h62v-3h-207v3h63v643l-342 -594v-49h62v-3h-207v3h63v694h-63v3h207v-3h-62v-638l342 594v44h-63v3h207v-3z" />
    <glyph glyph-name="uni04E3" unicode="&#x4e3;" horiz-adv-x="533" 
d="M518 507v-3h-63v-501h63v-3h-202v3h62v457l-223 -418v-39h62v-3h-202v3h63v501h-63v3h202v-3h-62v-455l223 419v36h-62v3h202zM118 669v3q37 0 87.5 2.5t59.5 2.5q7 0 59 -2.5t91 -2.5v-3q-39 0 -91 -2.5t-59 -2.5q-9 0 -59.5 2.5t-87.5 2.5z" />
    <glyph glyph-name="uni04E8" unicode="&#x4e8;" horiz-adv-x="704" 
d="M352 710q153 0 237 -99q85 -97 85 -257q0 -158 -91 -261q-90 -104 -231 -104q-152 0 -238 99q-84 99 -84 258q0 156 90 260q92 104 232 104zM121 352v-3h462q0 152 -60 254q-58 103 -171 103q-118 0 -175 -98q-56 -98 -56 -256zM583 346h-462q2 -99 25 -175
q26 -81 79.5 -129.5t126.5 -48.5q81 0 133 49q98 90 98 304z" />
    <glyph glyph-name="uni04E9" unicode="&#x4e9;" horiz-adv-x="557" 
d="M281 518q99 0 165 -75t66 -185t-70 -189q-69 -78 -166 -78q-99 0 -165 75q-66 76 -66 186t69 188q71 78 167 78zM128 260h301q-1 111 -40 183q-38 71 -108 71q-73 0 -112.5 -68.5t-40.5 -185.5zM429 253v4h-301q0 -115 38 -189q39 -73 110 -73q75 0 114 71q39 70 39 187z
" />
    <glyph glyph-name="uni04EE" unicode="&#x4ee;" horiz-adv-x="617" 
d="M617 700v-3h-4q-55 0 -114 -120l-203 -419q-45 -94 -78 -132q-31 -37 -80 -37q-50 0 -77.5 30t-27.5 79q0 29 17.5 49.5t41.5 20.5q26 0 40.5 -15t14.5 -40t-16 -40.5t-39 -15.5q-6 0 -14 2.5t-13 4.5l-5 2q-6 0 -6 -5q0 -26 22.5 -47t61.5 -21q47 0 77 36q30 34 77 130
l34 69l-274 469h-52v3h213v-3h-67l219 -387l130 268q19 39 19 67q0 52 -60 52h-7v3h170zM184 822v3q37 0 87.5 2.5t59.5 2.5q7 0 59 -2.5t91 -2.5v-3q-39 0 -91 -2.5t-59 -2.5q-9 0 -59.5 2.5t-87.5 2.5z" />
    <glyph glyph-name="uni04EF" unicode="&#x4ef;" horiz-adv-x="533" 
d="M363 507h170v-3q-26 0 -46 -19q-19 -16 -28.5 -33.5t-26.5 -57.5l-142 -386q-31 -85 -62 -119.5t-76 -34.5q-46 0 -71 27.5t-25 73.5q0 27 16 45.5t38 18.5q23 0 36.5 -14t13.5 -36q0 -23 -14.5 -37t-35.5 -14q-6 0 -13.5 2t-12.5 4l-4 2q-5 0 -5 -5q0 -24 20.5 -44
t56.5 -20q44 0 74 34.5t60 116.5l5 13l-235 483h-56v3h204v-3h-69l190 -389l103 280q11 31 11 52q0 57 -76 57v3zM137 669v3q37 0 87.5 2.5t59.5 2.5q6 0 58 -2.5t92 -2.5v-3q-40 0 -92 -2.5t-58 -2.5q-9 0 -59.5 2.5t-87.5 2.5z" />
    <glyph glyph-name="Wgrave" unicode="&#x1e80;" horiz-adv-x="930" 
d="M755 700h170v-3q-68 0 -98 -110l-164 -587h-37l-162 550l-165 -550h-37l-201 697h-56v3h208v-3h-66l173 -612l142 473l-41 139h-56v3h203v-3h-66l180 -614l141 505q8 30 8 49q0 60 -76 60v3zM567 784l-1 -3q-29 13 -67 28.5t-75.5 30t-44.5 17.5q-12 5 -12 12q0 9 9 9
q2 0 10 -2q20 -9 79 -41q59 -31 102 -51z" />
    <glyph glyph-name="wgrave" unicode="&#x1e81;" horiz-adv-x="752" 
d="M582 507h170v-3q-34 0 -55.5 -27t-40.5 -83l-125 -394h-37l-115 356l-121 -356h-37l-165 504h-56v3h202v-3h-66l140 -439l101 298l-45 141h-56v3h198v-3h-66l140 -436l104 327q10 23 10 48q0 61 -80 61v3zM478 631l-1 -3q-29 13 -67 28.5t-75.5 30t-44.5 17.5
q-12 4 -12 12q0 9 9 9q2 0 10 -2q20 -9 79 -41q58 -32 102 -51z" />
    <glyph glyph-name="Wacute" unicode="&#x1e82;" horiz-adv-x="930" 
d="M755 700h170v-3q-68 0 -98 -110l-164 -587h-37l-162 550l-165 -550h-37l-201 697h-56v3h208v-3h-66l173 -612l142 473l-41 139h-56v3h203v-3h-66l180 -614l141 505q8 30 8 49q0 60 -76 60v3zM368 781l-1 3q43 20 102 51q59 32 79 41q8 2 10 2q9 0 9 -9q0 -7 -12 -12
q-7 -3 -44.5 -17.5t-75.5 -30t-67 -28.5z" />
    <glyph glyph-name="wacute" unicode="&#x1e83;" horiz-adv-x="752" 
d="M582 507h170v-3q-34 0 -55.5 -27t-40.5 -83l-125 -394h-37l-115 356l-121 -356h-37l-165 504h-56v3h202v-3h-66l140 -439l101 298l-45 141h-56v3h198v-3h-66l140 -436l104 327q10 23 10 48q0 61 -80 61v3zM279 628l-1 3q44 19 102 51q59 32 79 41q8 2 10 2q9 0 9 -9
q0 -8 -12 -12q-7 -3 -44.5 -17.5t-75.5 -30t-67 -28.5z" />
    <glyph glyph-name="Wdieresis" unicode="&#x1e84;" horiz-adv-x="930" 
d="M387 858q22 0 35.5 -14t13.5 -37q0 -22 -14.5 -36.5t-34.5 -14.5q-21 0 -34.5 14t-13.5 36t14 37t34 15zM546 858q22 0 35.5 -14t13.5 -37q0 -22 -14.5 -36.5t-34.5 -14.5q-21 0 -34.5 14t-13.5 36t14 37t34 15zM755 700h170v-3q-68 0 -98 -110l-164 -587h-37l-162 550
l-165 -550h-37l-201 697h-56v3h208v-3h-66l173 -612l142 473l-41 139h-56v3h203v-3h-66l180 -614l141 505q8 30 8 49q0 60 -76 60v3z" />
    <glyph glyph-name="wdieresis" unicode="&#x1e85;" horiz-adv-x="752" 
d="M298 705q22 0 35.5 -14t13.5 -37q0 -22 -14.5 -36.5t-34.5 -14.5q-21 0 -34.5 14t-13.5 36t14 37t34 15zM457 705q22 0 35.5 -14t13.5 -37q0 -22 -14.5 -36.5t-34.5 -14.5q-21 0 -34.5 14t-13.5 36t14 37t34 15zM582 507h170v-3q-34 0 -55.5 -27t-40.5 -83l-125 -394h-37
l-115 356l-121 -356h-37l-165 504h-56v3h202v-3h-66l140 -439l101 298l-45 141h-56v3h198v-3h-66l140 -436l104 327q10 23 10 48q0 61 -80 61v3z" />
    <glyph glyph-name="Ygrave" unicode="&#x1ef2;" horiz-adv-x="649" 
d="M479 700h170v-3q-34 0 -64.5 -26t-71.5 -84l-155 -234v-350h62v-3h-207v3h63v339l-224 355h-52v3h213v-3h-67l212 -338l151 229q31 46 31 72q0 37 -61 37v3zM431 784l-1 -3q-29 13 -67 28.5t-75.5 30t-44.5 17.5q-12 5 -12 12q0 9 9 9q2 0 10 -2q20 -9 79 -41
q59 -31 102 -51z" />
    <glyph glyph-name="ygrave" unicode="&#x1ef3;" horiz-adv-x="533" 
d="M363 507h170v-3q-26 0 -46 -19q-19 -16 -28.5 -33.5t-26.5 -57.5l-142 -386q-31 -85 -62 -119.5t-76 -34.5q-46 0 -71 27.5t-25 73.5q0 27 16 45.5t38 18.5q23 0 36.5 -14t13.5 -36q0 -23 -14.5 -37t-35.5 -14q-6 0 -13.5 2t-12.5 4l-4 2q-5 0 -5 -5q0 -24 20.5 -44
t56.5 -20q44 0 74 34.5t60 116.5l5 13l-235 483h-56v3h204v-3h-69l190 -389l103 280q11 31 11 52q0 57 -76 57v3zM380 631l-1 -3q-29 13 -67 28.5t-75.5 30t-44.5 17.5q-12 4 -12 12q0 9 9 9q2 0 10 -2q20 -9 79 -41q58 -32 102 -51z" />
    <glyph glyph-name="endash" unicode="&#x2013;" 
d="M50 281v3q50 0 118 2.5t80 2.5q9 0 79 -2.5t123 -2.5v-3q-53 0 -123 -2.5t-79 -2.5q-12 0 -80 2.5t-118 2.5z" />
    <glyph glyph-name="emdash" unicode="&#x2014;" horiz-adv-x="1000" 
d="M50 281v3q46 0 252 2q155 3 197 3q36 0 192 -3q210 -2 259 -2v-3q-101 0 -259 -3q-42 0 -87.5 -0.5t-70 -1t-34.5 -0.5q-12 0 -37.5 0.5t-72.5 1t-87 0.5q-154 3 -252 3z" />
    <glyph glyph-name="quoteleft" unicode="&#x2018;" horiz-adv-x="222" 
d="M158 727v-3q-36 -10 -58 -39t-22 -55q0 -5 5 -5l5 2q4 2 11.5 4t13.5 2q21 0 35.5 -14t14.5 -37q0 -21 -14.5 -36t-35.5 -15q-24 0 -39 17.5t-15 42.5q0 41 26 82q25 40 73 54z" />
    <glyph glyph-name="quoteright" unicode="&#x2019;" horiz-adv-x="222" 
d="M70 509v3q36 10 58 39t22 55q0 5 -5 5l-5 -2q-4 -2 -11.5 -4t-13.5 -2q-21 0 -35.5 14t-14.5 37q0 21 14.5 36t35.5 15q24 0 39 -17.5t15 -42.5q0 -41 -26 -82q-25 -40 -73 -54z" />
    <glyph glyph-name="quotesinglbase" unicode="&#x201a;" horiz-adv-x="222" 
d="M70 -94v3q36 10 58 39t22 55q0 5 -5 5l-5 -2q-4 -2 -11.5 -4t-13.5 -2q-21 0 -35.5 14t-14.5 37q0 21 14.5 36t35.5 15q24 0 39 -17.5t15 -42.5q0 -41 -26 -82q-25 -40 -73 -54z" />
    <glyph glyph-name="quotedblleft" unicode="&#x201c;" horiz-adv-x="368" 
d="M157 727v-3q-36 -10 -58 -39t-22 -55q0 -5 5 -5l4 2q5 2 12.5 4t13.5 2q21 0 35.5 -14t14.5 -37q0 -21 -14.5 -36t-35.5 -15q-24 0 -39 17.5t-15 42.5q0 41 26 82q25 40 73 54zM303 727v-3q-36 -10 -58 -39t-22 -55q0 -5 5 -5l4 2q5 2 12.5 4t13.5 2q21 0 35.5 -14
t14.5 -37q0 -21 -14.5 -36t-35.5 -15q-24 0 -39 17.5t-15 42.5q0 41 26 82q25 40 73 54z" />
    <glyph glyph-name="quotedblright" unicode="&#x201d;" horiz-adv-x="368" 
d="M70 509v3q36 10 58 39t22 55q0 5 -5 5l-5 -2q-4 -2 -11.5 -4t-13.5 -2q-21 0 -35.5 14t-14.5 37q0 21 14.5 36t35.5 15q24 0 39 -17.5t15 -42.5q0 -41 -26 -82q-25 -40 -73 -54zM216 509v3q36 10 58 39t22 55q0 5 -5 5l-5 -2q-4 -2 -11.5 -4t-13.5 -2q-21 0 -35.5 14
t-14.5 37q0 21 14.5 36t35.5 15q24 0 39 -17.5t15 -42.5q0 -41 -26 -82q-25 -40 -73 -54z" />
    <glyph glyph-name="quotedblbase" unicode="&#x201e;" horiz-adv-x="368" 
d="M70 -94v3q36 10 58 39t22 55q0 5 -5 5l-5 -2q-4 -2 -11.5 -4t-13.5 -2q-21 0 -35.5 14t-14.5 37q0 21 14.5 36t35.5 15q24 0 39 -17.5t15 -42.5q0 -41 -26 -82q-25 -40 -73 -54zM216 -94v3q36 10 58 39t22 55q0 5 -5 5l-5 -2q-4 -2 -11.5 -4t-13.5 -2q-21 0 -35.5 14
t-14.5 37q0 21 14.5 36t35.5 15q24 0 39 -17.5t15 -42.5q0 -41 -26 -82q-25 -40 -73 -54z" />
    <glyph glyph-name="dagger" unicode="&#x2020;" horiz-adv-x="568" 
d="M284 705q18 0 28.5 -12.5t10.5 -33.5q0 -19 -19 -96q-19 -76 -19 -126q38 0 104 19q71 20 88 20q21 0 33.5 -11.5t12.5 -29.5t-12.5 -29.5t-33.5 -11.5q-18 0 -89 20q-67 19 -103 21q0 -136 20 -322t20 -219q0 -21 -11.5 -33.5t-29.5 -12.5t-29.5 12.5t-11.5 33.5
q0 33 20 219t20 322q-35 -2 -104 -21q-69 -20 -88 -20q-21 0 -33.5 11.5t-12.5 29.5t12.5 29.5t33.5 11.5q18 0 87 -20q67 -19 105 -19q-2 51 -20 126q-18 79 -18 96q0 21 11 33.5t28 12.5z" />
    <glyph glyph-name="daggerdbl" unicode="&#x2021;" horiz-adv-x="568" 
d="M284 705q18 0 28.5 -12.5t10.5 -33.5q0 -19 -19 -91t-19 -121q38 0 104 19q71 20 88 20q21 0 33.5 -11.5t12.5 -29.5t-12.5 -29.5t-33.5 -11.5q-18 0 -89 20q-67 19 -103 21q0 -33 12 -89q13 -53 13 -80t-13 -80q-12 -55 -12 -88q35 0 104 20q69 21 88 21
q21 0 33.5 -11.5t12.5 -29.5t-12.5 -29.5t-33.5 -11.5q-22 0 -89 19q-63 18 -103 20q0 -49 19 -121t19 -91q0 -21 -10.5 -33.5t-28.5 -12.5q-17 0 -28 12.5t-11 33.5q0 18 18 91q18 69 20 121q-39 -2 -104 -20q-66 -19 -88 -19q-21 0 -33.5 11.5t-12.5 29.5t12.5 29.5
t33.5 11.5q19 0 87 -21q71 -20 105 -20q-2 34 -13 87q-12 57 -12 81t12 80q11 54 13 89q-35 -2 -104 -21q-69 -20 -88 -20q-21 0 -33.5 11.5t-12.5 29.5t12.5 29.5t33.5 11.5q18 0 87 -20q67 -19 105 -19q-2 52 -20 121q-18 73 -18 91q0 21 11 33.5t28 12.5z" />
    <glyph glyph-name="bullet" unicode="&#x2022;" horiz-adv-x="397" 
d="M195 366q34 0 56 -23t22 -59q0 -34 -23 -58t-55 -24q-34 0 -55.5 22.5t-21.5 57.5q0 36 22.5 60t54.5 24z" />
    <glyph glyph-name="ellipsis" unicode="&#x2026;" horiz-adv-x="666" 
d="M114 96q22 0 35.5 -14t13.5 -37q0 -22 -14.5 -36.5t-34.5 -14.5q-21 0 -34.5 14t-13.5 36t14 37t34 15zM336 96q22 0 35.5 -14t13.5 -37q0 -22 -14.5 -36.5t-34.5 -14.5q-21 0 -34.5 14t-13.5 36t14 37t34 15zM558 96q22 0 35.5 -14t13.5 -37q0 -22 -14.5 -36.5
t-34.5 -14.5q-21 0 -34.5 14t-13.5 36t14 37t34 15z" />
    <glyph glyph-name="perthousand" unicode="&#x2030;" horiz-adv-x="1099" 
d="M369 349l160 374h3l-148 -374l-63 -141q-54 -123 -99 -233h-3zM202 709q69 0 114 -51t45 -127t-48 -130t-114 -54q-67 0 -114 51q-45 52 -45 128q0 75 48 129t114 54zM202 705q-45 0 -69 -47t-24 -128q0 -80 24 -129.5t66 -49.5q45 0 69 47.5t24 128.5q0 80 -24 129
t-66 49zM545 353q69 0 114 -51t45 -127t-48 -130t-114 -54q-68 0 -114 51q-45 52 -45 128q0 75 48 129t114 54zM900 353q69 0 114 -51t45 -127t-48 -130t-114 -54q-67 0 -114 51q-45 52 -45 128q0 75 48 129t114 54zM545 349q-45 0 -69 -47t-24 -128q0 -80 24 -129.5
t66 -49.5q45 0 69 47.5t24 128.5q0 80 -24 129t-66 49zM900 349q-45 0 -69 -47t-24 -128q0 -80 24 -129.5t66 -49.5q45 0 69 47.5t24 128.5q0 80 -24 129t-66 49z" />
    <glyph glyph-name="guilsinglleft" unicode="&#x2039;" horiz-adv-x="394" 
d="M343 488v-5l-273 -222l273 -221v-5l-285 212q-8 6 -8 14q0 9 8 15z" />
    <glyph glyph-name="guilsinglright" unicode="&#x203a;" horiz-adv-x="394" 
d="M51 483v5l285 -212q8 -6 8 -15q0 -8 -8 -14l-285 -212v5l273 221z" />
    <glyph glyph-name="fraction" unicode="&#x2044;" horiz-adv-x="113" 
d="M50 349l160 374h3l-148 -374l-63 -141q-54 -123 -99 -233h-3z" />
    <glyph glyph-name="Euro" unicode="&#x20ac;" horiz-adv-x="621" 
d="M575 710v-209h-3q-22 105 -66 155t-128 50q-87 0 -134.5 -77.5t-56.5 -217.5h218v-3h-218q-1 -12 -1 -56q0 -32 3 -61h216v-3h-216q13 -125 73 -203q60 -77 145 -77q67 0 114 42.5t56 116.5h4q-9 -81 -66 -129t-150 -48q-101 0 -175 83q-72 84 -87 215h-98v3h98
q-3 27 -3 55q0 32 3 62h-98v3h99q17 133 91 215q75 84 183 84q49 0 93 -19q47 -18 66 -18q16 0 25.5 10t9.5 27h3z" />
    <glyph glyph-name="trademark" unicode="&#x2122;" horiz-adv-x="848" 
d="M359 769v-112h-3q-5 49 -28.5 69.5t-76.5 20.5h-16v-354h36v-3h-134v3h36v354h-15q-53 0 -76.5 -20.5t-28.5 -69.5h-3v112h2q0 -19 19 -19h265q18 0 21 19h2zM808 750v-3h-34v-354h34v-3h-132v3h36v345l-106 -348h-30l-129 349v-281q0 -64 42 -65v-3h-82v3q36 0 36 65
v289h-36v3h102l110 -305l93 305h96z" />
    <glyph glyph-name="partialdiff" unicode="&#x2202;" horiz-adv-x="547" 
d="M175 698v4q113 -31 215 -141q51 -54 81.5 -133t30.5 -164q0 -127 -64 -200q-63 -74 -166 -74q-101 0 -164 71t-63 178t65 184t161 77q85 0 130 -68q-31 112 -94 179t-132 87zM288 489q-76 0 -118 -68q-42 -67 -42 -177q0 -109 41 -180q41 -69 117 -69q65 0 100 70t35 193
q0 107 -25 165q-28 66 -108 66z" />
    <glyph glyph-name="product" unicode="&#x220f;" horiz-adv-x="567" 
d="M547 700v-3h-62v-694h62v-3h-207v3h63v694h-238v-694h62v-3h-207v3h63v694h-63v3h527z" />
    <glyph glyph-name="summation" unicode="&#x2211;" horiz-adv-x="529" 
d="M455 700l51 -144h-3q-17 46 -60 62t-135 16h-233l209 -365l-209 -364h233q92 0 135 16t60 62h3l-51 -144h-421l246 430l-246 431h421z" />
    <glyph glyph-name="minus" unicode="&#x2212;" 
d="M50 261v3q50 0 118 2.5t80 2.5q9 0 79 -2.5t123 -2.5v-3q-53 0 -123 -2.5t-79 -2.5q-12 0 -80 2.5t-118 2.5z" />
    <glyph glyph-name="radical" unicode="&#x221a;" horiz-adv-x="533" 
d="M536 750v-3h-92l-181 -747h-38l-169 504h-56v3h136l141 -433l164 676h95z" />
    <glyph glyph-name="infinity" unicode="&#x221e;" horiz-adv-x="507" 
d="M353 372q46 0 77.5 -32t31.5 -78q0 -45 -31.5 -76.5t-77.5 -31.5q-35 0 -62 19.5t-38 52.5q-11 -33 -38.5 -52.5t-62.5 -19.5q-45 0 -76 31.5t-31 76.5q0 46 31 78t76 32q35 0 62.5 -20.5t38.5 -53.5q11 33 38 53.5t62 20.5zM152 369q-41 0 -64.5 -30t-23.5 -77
q0 -46 23.5 -75.5t64.5 -29.5q42 0 67 29.5t25 75.5q0 47 -25 77t-67 30zM353 369q-41 0 -65.5 -30t-24.5 -77q0 -46 24 -75.5t66 -29.5t66 29.5t24 75.5q0 47 -24 77t-66 30z" />
    <glyph glyph-name="integral" unicode="&#x222b;" horiz-adv-x="287" 
d="M78 224v307q0 88 35 138.5t97 50.5q51 0 79 -28.5t28 -74.5q0 -26 -15.5 -44t-37.5 -18q-23 0 -37 14t-14 35q0 24 14.5 38t35.5 14q6 0 13.5 -2t11.5 -4l5 -2q5 0 5 5q0 24 -23.5 44.5t-64.5 20.5q-45 0 -73.5 -29.5t-28.5 -76.5q0 -35 23 -116q24 -79 24 -163v-301
q0 -82 -34 -140q-35 -59 -94 -59q-40 0 -66.5 22.5t-26.5 60.5q0 27 16 45.5t38 18.5q23 0 36.5 -14t13.5 -36q0 -23 -14.5 -37t-35.5 -14q-6 0 -13.5 2t-12.5 4l-4 2q-5 0 -5 -5q0 -16 22.5 -31.5t51.5 -15.5q37 0 68 27t31 70q0 36 -24 122t-24 170z" />
    <glyph glyph-name="approxequal" unicode="&#x2248;" 
d="M53 289h-3q21 43 46 61.5t66 18.5q38 0 88 -37q52 -37 98 -37q66 0 100 67h3q-21 -43 -46 -61.5t-66 -18.5q-63 0 -104 37q-39 37 -82 37q-66 0 -100 -67zM53 169h-3q21 43 46 61.5t66 18.5q38 0 88 -37q52 -37 98 -37q66 0 100 67h3q-21 -43 -46 -61.5t-66 -18.5
q-63 0 -104 37q-39 37 -82 37q-66 0 -100 -67z" />
    <glyph glyph-name="notequal" unicode="&#x2260;" 
d="M267 329l46 134h3q-18 -55 -40 -134l56 -3q76 -2 118 -2v-3q-62 0 -118 -3q-16 0 -30.5 -0.5t-21 -1t-7.5 -0.5l-34 -107q15 0 88 -2.5t123 -2.5v-3q-49 0 -124.5 -2.5t-92.5 -2.5q-27 -70 -46 -133h-3q21 64 39 133q-2 0 -9 0.5t-21.5 1t-29.5 0.5q-52 3 -113 3v3
q44 0 114 2q52 3 62 3l35 107q-20 0 -92.5 2.5t-118.5 2.5v3q45 0 119.5 2.5t97.5 2.5z" />
    <glyph glyph-name="lessequal" unicode="&#x2264;" 
d="M449 439l1 -3l-375 -124l375 -124l-1 -3q-121 38 -236 72q-86 25 -155 47q-5 2 -7 5t0 6t7 5l155 46q60 18 236 73zM50 95v3q50 0 118 2.5t80 2.5q9 0 79 -2.5t123 -2.5v-3q-53 0 -123 -2.5t-79 -2.5q-12 0 -80 2.5t-118 2.5z" />
    <glyph glyph-name="greaterequal" unicode="&#x2265;" 
d="M425 312l-375 124l1 3q176 -55 236 -73l155 -46q5 -2 7 -5t0 -6t-7 -5q-69 -22 -155 -47q-115 -34 -236 -72l-1 3zM50 95v3q53 0 123 2.5t79 2.5q12 0 80 -2.5t118 -2.5v-3q-50 0 -118 -2.5t-80 -2.5q-9 0 -79 2.5t-123 2.5z" />
    <glyph glyph-name="lozenge" unicode="&#x25ca;" horiz-adv-x="533" 
d="M277 700l229 -348l-215 -352h-42l-229 348l215 352h42zM214 658l-147 -240l245 -376l147 239z" />
    <glyph glyph-name="NULL" horiz-adv-x="0" 
 />
    <glyph glyph-name="CR.001" horiz-adv-x="333" 
 />
    <glyph glyph-name="f_i" horiz-adv-x="489" 
d="M15 507h63v20q0 95 51.5 149t141.5 54q73 0 116 -34t43 -78q0 -26 -15 -43t-38 -17q-22 0 -36.5 14t-14.5 36q0 24 14.5 38t35.5 14q4 0 9.5 -1t9.5 -2l4 -1q5 0 5 3q2 11 -12 26t-47 28.5t-74 13.5q-73 0 -115.5 -36t-42.5 -99q0 -34 15 -85h294v-504h62v-3h-202v3h63
v501h-216q26 -84 26 -171v-330h62v-3h-202v3h63v501h-63v3z" />
    <glyph glyph-name="f_l" horiz-adv-x="519" 
d="M15 507h63v20q0 95 50.5 149t137.5 54q90 0 133 -37.5t43 -103.5v-586h62v-3h-202v3h63v605q0 119 -107 119q-66 0 -105.5 -36t-39.5 -99q0 -34 15 -85h140v-3h-139q26 -84 26 -171v-330h62v-3h-202v3h63v501h-63v3z" />
    <glyph glyph-name="uni0434.locl" horiz-adv-x="548" 
d="M508 542h5l-11 -37l-11 -36q-9 -34 -9 -72v-344q0 -55 -22.5 -99t-58.5 -70t-77 -39.5t-81 -13.5q-76 0 -121 33.5t-45 83.5q0 25 14.5 42.5t36.5 17.5q24 0 38.5 -15t14.5 -36q0 -23 -14.5 -37t-35.5 -14q-6 0 -13.5 2t-11.5 4l-5 2q-5 0 -5 -5q0 -21 36 -47
q38 -26 96 -26q83 0 131.5 50.5t48.5 142.5v70q-18 -41 -56.5 -65t-89.5 -24q-98 0 -158 70q-59 71 -59 179q0 107 67 183t164 76q39 0 75.5 -16.5t62 -33t37.5 -16.5q19 0 30 17q11 19 27 73zM408 152v234q0 61 -33 93.5t-89 32.5q-76 0 -117 -69q-41 -70 -41 -179
t41.5 -174t113.5 -65q57 0 91 34t34 93z" />
    <glyph glyph-name="uni0433.locl" horiz-adv-x="408" 
d="M208 519q74 0 117 -35.5t43 -96.5q0 -91 -95 -136q-9 -4 -33 -14.5t-35 -16t-31 -16.5t-30.5 -20.5t-22 -23t-16.5 -29.5t-5 -35q0 -46 30.5 -74t81.5 -28q68 0 102 28q35 29 35 54q0 5 -5 5l-4 -2q-5 -2 -12.5 -4t-13.5 -2q-21 0 -35.5 14t-14.5 37q0 22 15 36.5
t38 14.5q22 0 36.5 -17.5t14.5 -42.5q0 -51 -40 -88t-116 -37q-70 0 -122 38q-50 38 -50 99q0 16 3.5 30t7 25t13 22.5t15 19t20 17t20.5 14t23.5 13t22.5 11t25 11t23 9.5q95 41 95 119q0 45 -26 71t-74 26q-63 0 -97 -29q-33 -28 -33 -53q0 -5 5 -5l5 2l13.5 4.5t12.5 2.5
q21 0 35 -14.5t14 -37.5q0 -21 -14.5 -36t-38.5 -15q-22 0 -36.5 17.5t-14.5 42.5q0 50 39 87q40 38 110 38z" />
    <glyph glyph-name="uni0453.locl" horiz-adv-x="408" 
d="M208 519q74 0 117 -35.5t43 -96.5q0 -91 -95 -136q-9 -4 -33 -14.5t-35 -16t-31 -16.5t-30.5 -20.5t-22 -23t-16.5 -29.5t-5 -35q0 -46 30.5 -74t81.5 -28q68 0 102 28q35 29 35 54q0 5 -5 5l-4 -2q-5 -2 -12.5 -4t-13.5 -2q-21 0 -35.5 14t-14.5 37q0 22 15 36.5
t38 14.5q22 0 36.5 -17.5t14.5 -42.5q0 -51 -40 -88t-116 -37q-70 0 -122 38q-50 38 -50 99q0 16 3.5 30t7 25t13 22.5t15 19t20 17t20.5 14t23.5 13t22.5 11t25 11t23 9.5q95 41 95 119q0 45 -26 71t-74 26q-63 0 -97 -29q-33 -28 -33 -53q0 -5 5 -5l5 2l13.5 4.5t12.5 2.5
q21 0 35 -14.5t14 -37.5q0 -21 -14.5 -36t-38.5 -15q-22 0 -36.5 17.5t-14.5 42.5q0 50 39 87q40 38 110 38zM125 628l-1 3q44 19 102 51q59 32 79 41q8 2 10 2q9 0 9 -9q0 -8 -12 -12q-7 -3 -44.5 -17.5t-75.5 -30t-67 -28.5z" />
    <glyph glyph-name="uni044E.locl" horiz-adv-x="772" 
d="M155 697v-444h135q0 110 65 187q66 78 156 78q93 0 154 -75q62 -76 62 -185q0 -110 -66 -189q-65 -78 -155 -78q-92 0 -153 75q-62 75 -63 184h-135v-247h62v-3h-202v3h63v694h-63v3h202v-3h-62zM506 -5q68 0 103 71q35 72 35 187q0 113 -35 188q-34 73 -98 73
q-67 0 -102.5 -69t-35.5 -188q0 -117 34 -189q34 -73 99 -73z" />
    <glyph glyph-name="uni043A.locl" horiz-adv-x="498" 
d="M217 700v-3h-62v-446q65 3 105.5 41.5t56.5 98.5q16 67 39 97.5t59 30.5q26 0 40.5 -14t14.5 -38t-15 -39t-37 -15q-9 0 -31.5 8.5t-28.5 8.5q-25 0 -37 -42q-37 -121 -145 -137q173 -3 210 -130q25 -88 56 -88q15 0 24 13.5t9 34.5v20h3v-20q0 -37 -19 -62t-54 -25
q-71 0 -104 120q-11 39 -16 53q-6 17 -21 39q-27 43 -101 43h-8v-246h62v-3h-202v3h63v694h-63v3h202z" />
    <glyph glyph-name="uni045C.locl" horiz-adv-x="498" 
d="M236 628l-1 3q43 19 102 51t79 41q8 2 10 2q9 0 9 -9q0 -8 -12 -12q-7 -3 -44.5 -17.5t-75.5 -30t-67 -28.5zM217 697h-62v-446q65 3 105.5 41.5t56.5 98.5q16 67 39 97.5t59 30.5q26 0 40.5 -14t14.5 -38t-15 -39t-37 -15q-9 0 -31.5 8.5t-28.5 8.5q-25 0 -37 -42
q-37 -121 -145 -137q173 -3 210 -130q25 -88 56 -88q15 0 24 13.5t9 34.5v20h3v-20q0 -37 -19 -62t-54 -25q-71 0 -104 120q-11 39 -16 53q-6 17 -21 39q-27 43 -101 43h-8v-246h62v-3h-202v3h63v694h-63v3h202v-3z" />
    <glyph glyph-name="uni0432.locl" horiz-adv-x="538" 
d="M56 113v269q0 327 246 327q60 0 104 -34q45 -33 45 -90q0 -38 -27.5 -71.5t-70.5 -51.5q140 -38 140 -221q0 -109 -67 -179q-66 -70 -164 -70q-39 0 -75.5 16.5t-62 33t-37.5 16.5q-21 0 -31 -18q-9 -14 -26 -72h-5l11 36l11 37q9 34 9 72zM130 491v-84q3 4 18 17t52 28
q41 18 85 18q23 0 44 -3q49 49 49 111q0 68 -26 96.5t-76 28.5q-60 0 -104 -57q-44 -56 -42 -155zM130 328v-204q0 -61 33 -93.5t89 -32.5q77 0 117.5 62.5t40.5 175.5q0 116 -34 171t-113 55q-51 0 -92 -39q-41 -38 -41 -95z" />
    <glyph glyph-name="uni0436.locl" horiz-adv-x="696" 
d="M448 700v-3h-62v-444q94 13 129 138q16 67 39 97.5t59 30.5q26 0 40.5 -14t14.5 -38t-15 -39t-37 -15q-9 0 -31.5 8.5t-28.5 8.5q-25 0 -37 -42q-38 -122 -132 -137q160 -1 197 -130q25 -88 56 -88q15 0 24 13.5t9 34.5v20h3v-20q0 -37 -19 -62t-54 -25q-71 0 -104 120
l-7 25q-3 13 -7 25q-1 5 -7 21t-10 21q-18 25 -31 30q-29 12 -51 13v-246h62v-3h-202v3h63v246q-22 -1 -51 -13q-12 -5 -30 -30l-18 -42l-7 -25l-6 -25q-33 -120 -104 -120q-35 0 -54 25t-19 62v20h3v-20q0 -21 9 -34.5t24 -13.5q31 0 56 88q38 128 197 130q-94 15 -132 137
q-12 42 -37 42q-6 0 -28.5 -8.5t-31.5 -8.5q-22 0 -37 15t-15 39t14.5 38t40.5 14q36 0 59 -30.5t39 -97.5q34 -123 128 -138v444h-63v3h202z" />
    <glyph glyph-name="zero.osf" horiz-adv-x="586" 
d="M295 518q105 0 176 -75q70 -74 70 -185q0 -109 -74 -189q-73 -78 -177 -78q-106 0 -176 75q-69 76 -69 186q0 111 73 188q74 78 177 78zM295 514q-81 0 -124 -69t-43 -188q0 -115 41 -189q42 -73 121 -73q83 0 125 71t42 187q0 115 -42 188q-40 73 -120 73z" />
    <glyph glyph-name="one.osf" horiz-adv-x="247" 
d="M165 514v-511h62v-3h-207v3h63v492l-63 -12v3z" />
    <glyph glyph-name="two.osf" horiz-adv-x="529" 
d="M454 0h-414l225 159q122 86 122 203q0 149 -145 149q-74 0 -118 -41q-43 -40 -43 -71q0 -5 5 -5l4 2q5 2 12.5 4t13.5 2q21 0 35.5 -14t14.5 -37q0 -21 -15 -36t-38 -15q-22 0 -36.5 16t-14.5 41q0 60 52 109q52 51 142 51q101 0 159.5 -41t58.5 -116q0 -68 -45 -114
q-44 -44 -146 -99l-142 -81h166q92 0 135 16t60 62h3z" />
    <glyph glyph-name="three.osf" horiz-adv-x="529" 
d="M75 358v159h3q0 -27 28 -27q17 0 62 13q48 14 85 14q101 0 160 -41t59 -116q0 -64 -56 -111t-142 -57q102 -5 161 -47t59 -110q0 -80 -68 -130q-68 -51 -179 -51q-97 0 -149 42t-52 94q0 25 14.5 42.5t36.5 17.5q23 0 38 -15t15 -36q0 -23 -14.5 -37t-35.5 -14
q-6 0 -13.5 2t-12.5 4l-4 2q-5 0 -5 -5q0 -26 43 -57q44 -32 119 -32q83 0 133 46t50 117q0 74 -47 119.5t-132 45.5h-71v3h70q78 2 116.5 45.5t38.5 118.5q0 78 -31.5 117t-100.5 39t-114 -41.5t-61 -113.5h-3z" />
    <glyph glyph-name="four.osf" horiz-adv-x="529" 
d="M18 0l375 530v-466q54 2 80 17.5t41 54.5h3l-51 -136h-73v-143h62v-3h-198v3h63v143h-302zM320 422l-253 -359h253v359z" />
    <glyph glyph-name="five.osf" horiz-adv-x="529" 
d="M498 567l-51 -144h-317l-50 -262q8 11 28 27q65 52 154 52q106 0 165.5 -47t59.5 -134q0 -88 -68 -147q-67 -58 -179 -58q-96 0 -149 47q-52 46 -52 99q0 25 14.5 42.5t36.5 17.5q24 0 38.5 -15t14.5 -36q0 -23 -14.5 -37t-35.5 -14q-6 0 -13.5 2t-11.5 4l-5 2
q-5 0 -5 -5q0 -28 44 -63q44 -36 118 -36q84 0 134 54q49 52 49 135q0 87 -42 133t-124 46q-55 0 -94 -21.5t-57 -44.5l-6 -7h-3l63 332h160q92 0 135 16t60 62h3z" />
    <glyph glyph-name="six.osf" horiz-adv-x="548" 
d="M377 666v-4q-79 -22 -147 -92q-77 -78 -95 -239q71 53 157 53q101 0 158.5 -49t57.5 -138q0 -88 -67 -146q-67 -59 -161 -59q-108 0 -169 64t-61 185q0 85 30.5 162t81.5 129q101 103 215 134zM267 374q-71 0 -132 -47q-4 -29 -4 -81q0 -116 42 -183q43 -67 107 -67
q69 0 106 55q38 56 38 138q0 88 -40 136.5t-117 48.5z" />
    <glyph glyph-name="seven.osf" horiz-adv-x="529" 
d="M85 507h421l-164 -289q-68 -121 -73 -285q-2 -89 -54 -89q-16 0 -26.5 10.5t-10.5 30.5q0 45 77 185l85 151l125 220h-233q-92 0 -135 -16t-60 -62h-3z" />
    <glyph glyph-name="eight.osf" horiz-adv-x="572" 
d="M286 655q96 0 154 -42q60 -42 60 -117q0 -65 -52 -110t-139 -56q100 -5 159 -47t59 -111q0 -80 -65 -130t-176 -50t-176 47.5t-65 126.5q0 69 59 114t159 50q-88 11 -139.5 53.5t-51.5 106.5q0 74 60 119q61 46 154 46zM286 651q-63 0 -95 -43t-32 -120q0 -72 32 -114.5
t95 -42.5q62 0 94.5 45t32.5 117q0 158 -127 158zM282 328q-73 0 -113 -44.5t-40 -117.5q0 -77 41 -123.5t116 -46.5q76 0 116.5 45t40.5 121q0 73 -43.5 119.5t-117.5 46.5z" />
    <glyph glyph-name="nine.osf" horiz-adv-x="548" 
d="M181 -158v4q31 9 59.5 23.5t59 41t54.5 61.5t42.5 88t25.5 116q-68 -52 -156 -52q-100 0 -158 51t-58 141q0 86 66 143t162 57q108 0 169 -64t61 -185q0 -85 -30.5 -162t-81.5 -129q-101 -103 -215 -134zM278 512q-67 0 -105.5 -52.5t-38.5 -135.5q0 -89 40 -139.5
t117 -50.5q73 0 132 47q4 44 4 81q0 116 -43 183q-42 67 -106 67z" />
    </font>
</defs>
</svg>
