<!-- Generated by IcoMoon.io -->
<svg version="1.1" xmlns="http://www.w3.org/2000/svg" width="30" height="32" viewBox="0 0 30 32">
<title>icon-of</title>
<path fill="#9cf" d="M13.832 29.992c-7.51 0-13.832-5.996-13.832-13.734 0-5.020 2.814-9.298 6.834-11.692 2.746 0.752 1.954 3.472 1.698 4.172-2.38 1.67-3.982 4.372-3.982 7.53 0 5.282 4.154 9.286 9.278 9.286 5.126 0 9.28-4.004 9.28-9.286 0-3.354-1.554-6.198-3.998-7.83-0.254-1.060-0.538-3.574 2.334-3.852 3.902 2.398 6.556 6.666 6.556 11.672 0 7.738-6.66 13.734-14.168 13.734zM14.1 17.706c-0.938 0-2.238-1.13-2.238-2.098v-13.456c0-0.134 0.022-2.168 2.172-2.168 0.938 0 2.17 0.508 2.17 2.168v13.456c0 0.968-1.164 2.098-2.104 2.098z"></path>
<path fill="#000" d="M13.832 29.992c-7.51 0-13.832-5.996-13.832-13.734 0-5.020 2.814-9.298 6.834-11.692 2.746 0.752 1.954 3.472 1.698 4.172-2.38 1.67-3.982 4.372-3.982 7.53 0 5.282 4.154 9.286 9.278 9.286 5.126 0 9.28-4.004 9.28-9.286 0-3.354-1.554-6.198-3.998-7.83-0.254-1.060-0.538-3.574 2.334-3.852 3.902 2.398 6.556 6.666 6.556 11.672 0 7.738-6.66 13.734-14.168 13.734zM14.1 17.706c-0.938 0-2.238-1.13-2.238-2.098v-13.456c0-0.134 0.022-2.168 2.172-2.168 0.938 0 2.17 0.508 2.17 2.168v13.456c0 0.968-1.164 2.098-2.104 2.098z"></path>
</svg>
