<!-- Generated by IcoMoon.io -->
<svg version="1.1" xmlns="http://www.w3.org/2000/svg" width="43" height="32" viewBox="0 0 43 32">
<title>icon-mess</title>
<path fill="#9cf" d="M40 25.043c0 3.229-3.2-1.771-3.2-1.771l-8.109-9.285c-0.901-0.939 0.968-2.219 0.968-2.219l8.259-7.037c2.475-2.579 2.037-0.139 2.037-0.139l0.045 20.451zM20.784 16.565c-0.792 1.053-1.528 0.021-1.528 0.021l-17.688-14.944c-1.549-1.659 1.504-1.643 1.504-1.643h33.773c3.037 0 1.493 1.563 1.493 1.563l-17.555 15.003zM2.083 4.731l8.259 7.037c0 0 1.869 1.28 0.968 2.219l-8.109 9.285c0 0-3.2 5-3.2 1.771l0.045-20.451c0 0-0.437-2.44 2.037 0.139zM12.797 14.944c0.899-1.616 3.197 1.717 3.197 1.717l3.2 3.331c0.899 0.835 1.6 0 1.6 0l3.248-3.331c2.451-3.176 3.2-1.613 3.2-1.613l9.547 10.987c3.2 3.28 0.051 3.28 0.051 3.28h-33.592c-3.197 0-0.048-3.384-0.048-3.384l9.597-10.987z"></path>
<path fill="#000" d="M40 25.043c0 3.229-3.2-1.771-3.2-1.771l-8.109-9.285c-0.901-0.939 0.968-2.219 0.968-2.219l8.259-7.037c2.475-2.579 2.037-0.139 2.037-0.139l0.045 20.451zM20.784 16.565c-0.792 1.053-1.528 0.021-1.528 0.021l-17.688-14.944c-1.549-1.659 1.504-1.643 1.504-1.643h33.773c3.037 0 1.493 1.563 1.493 1.563l-17.555 15.003zM2.083 4.731l8.259 7.037c0 0 1.869 1.28 0.968 2.219l-8.109 9.285c0 0-3.2 5-3.2 1.771l0.045-20.451c0 0-0.437-2.44 2.037 0.139zM12.797 14.944c0.899-1.616 3.197 1.717 3.197 1.717l3.2 3.331c0.899 0.835 1.6 0 1.6 0l3.248-3.331c2.451-3.176 3.2-1.613 3.2-1.613l9.547 10.987c3.2 3.28 0.051 3.28 0.051 3.28h-33.592c-3.197 0-0.048-3.384-0.048-3.384l9.597-10.987z"></path>
</svg>
