<!-- Generated by IcoMoon.io -->
<svg version="1.1" xmlns="http://www.w3.org/2000/svg" width="32" height="32" viewBox="0 0 32 32">
<title>icon-profile</title>
<path fill="#9cf" d="M16.51 1.078c3.556 0 3.806 4.718 3.806 4.718v4.392c0 0 0.010 3.338-2.218 4.584 0 0-0.16 0.982-0.032 0.918 0.126-0.062-0.634 4.418 3.234 4.988 3.87 0.57 6.74 2.956 7.47 3.654 0.73 0.696 1.222 5.664 1.222 5.664h-30.002c0 0-0.042-4.034 1.222-5.664 0.73-0.698 3.934-3.084 7.804-3.654 3.868-0.57 2.572-4.85 2.7-4.788 0.126 0.064-0.032-0.918-0.032-0.918s-2.146-2.702-2.116-5.14c0.032-2.438 0-4.036 0-4.036s-0.076-5.786 3.88-5.786l3.062 1.068z"></path>
<path fill="#000" d="M16.51 1.078c3.556 0 3.806 4.718 3.806 4.718v4.392c0 0 0.010 3.338-2.218 4.584 0 0-0.16 0.982-0.032 0.918 0.126-0.062-0.634 4.418 3.234 4.988 3.87 0.57 6.74 2.956 7.47 3.654 0.73 0.696 1.222 5.664 1.222 5.664h-30.002c0 0-0.042-4.034 1.222-5.664 0.73-0.698 3.934-3.084 7.804-3.654 3.868-0.57 2.572-4.85 2.7-4.788 0.126 0.064-0.032-0.918-0.032-0.918s-2.146-2.702-2.116-5.14c0.032-2.438 0-4.036 0-4.036s-0.076-5.786 3.88-5.786l3.062 1.068z"></path>
</svg>
