<!-- Generated by IcoMoon.io -->
<svg version="1.1" xmlns="http://www.w3.org/2000/svg" width="32" height="32" viewBox="0 0 32 32">
<title>icon-setting</title>
<path fill="#9cf" d="M8.438 15c0-3.624 2.938-6.562 6.562-6.562s6.562 2.938 6.562 6.562c0 3.624-2.938 6.562-6.562 6.562s-6.562-2.938-6.562-6.562zM1.876 12.188c-1.036 0-1.876 0.838-1.876 1.874v1.876c0 1.036 0.84 1.874 1.876 1.874h2.658c0.246 0.922 0.612 1.794 1.078 2.6l-1.882 1.88c-0.732 0.732-0.732 1.92 0 2.652l1.326 1.326c0.732 0.732 1.92 0.732 2.652 0l1.88-1.882c0.806 0.466 1.678 0.832 2.6 1.078v2.66c0 1.034 0.84 1.874 1.874 1.874h1.876c1.036 0 1.874-0.84 1.874-1.874v-2.664c0.92-0.246 1.79-0.608 2.596-1.074l1.884 1.882c0.732 0.732 1.92 0.732 2.652 0l1.326-1.326c0.732-0.732 0.732-1.92 0-2.652l-1.882-1.884c0.464-0.806 0.828-1.676 1.074-2.596h2.662c1.036 0 1.876-0.838 1.876-1.874v-1.876c0-1.036-0.84-1.874-1.876-1.874h-2.658c-0.246-0.922-0.612-1.794-1.078-2.6l1.882-1.88c0.732-0.732 0.732-1.92 0-2.652l-1.326-1.326c-0.732-0.732-1.92-0.732-2.652 0l-1.88 1.882c-0.806-0.466-1.678-0.832-2.6-1.078v-2.66c0-1.034-0.838-1.874-1.874-1.874h-1.876c-1.034 0-1.874 0.84-1.874 1.874v2.664c-0.92 0.246-1.79 0.61-2.596 1.074l-1.884-1.882c-0.732-0.732-1.92-0.732-2.652 0l-1.326 1.326c-0.732 0.732-0.732 1.92 0 2.652l1.882 1.884c-0.464 0.806-0.828 1.676-1.074 2.596h-2.662zM12.188 15c0 1.554 1.258 2.812 2.812 2.812s2.812-1.258 2.812-2.812c0-1.554-1.258-2.812-2.812-2.812s-2.812 1.258-2.812 2.812z"></path>
<path fill="#000" d="M8.438 15c0-3.624 2.938-6.562 6.562-6.562s6.562 2.938 6.562 6.562c0 3.624-2.938 6.562-6.562 6.562s-6.562-2.938-6.562-6.562zM1.876 12.188c-1.036 0-1.876 0.838-1.876 1.874v1.876c0 1.036 0.84 1.874 1.876 1.874h2.658c0.246 0.922 0.612 1.794 1.078 2.6l-1.882 1.88c-0.732 0.732-0.732 1.92 0 2.652l1.326 1.326c0.732 0.732 1.92 0.732 2.652 0l1.88-1.882c0.806 0.466 1.678 0.832 2.6 1.078v2.66c0 1.034 0.84 1.874 1.874 1.874h1.876c1.036 0 1.874-0.84 1.874-1.874v-2.664c0.92-0.246 1.79-0.608 2.596-1.074l1.884 1.882c0.732 0.732 1.92 0.732 2.652 0l1.326-1.326c0.732-0.732 0.732-1.92 0-2.652l-1.882-1.884c0.464-0.806 0.828-1.676 1.074-2.596h2.662c1.036 0 1.876-0.838 1.876-1.874v-1.876c0-1.036-0.84-1.874-1.876-1.874h-2.658c-0.246-0.922-0.612-1.794-1.078-2.6l1.882-1.88c0.732-0.732 0.732-1.92 0-2.652l-1.326-1.326c-0.732-0.732-1.92-0.732-2.652 0l-1.88 1.882c-0.806-0.466-1.678-0.832-2.6-1.078v-2.66c0-1.034-0.838-1.874-1.874-1.874h-1.876c-1.034 0-1.874 0.84-1.874 1.874v2.664c-0.92 0.246-1.79 0.61-2.596 1.074l-1.884-1.882c-0.732-0.732-1.92-0.732-2.652 0l-1.326 1.326c-0.732 0.732-0.732 1.92 0 2.652l1.882 1.884c-0.464 0.806-0.828 1.676-1.074 2.596h-2.662zM12.188 15c0 1.554 1.258 2.812 2.812 2.812s2.812-1.258 2.812-2.812c0-1.554-1.258-2.812-2.812-2.812s-2.812 1.258-2.812 2.812z"></path>
</svg>
